<svg xmlns="http://www.w3.org/2000/svg" viewBox="0 0 535.14 194.33"><defs><style>.cls-1{fill:#96622a;}</style></defs><title>Asset 5</title><g id="Layer_2" data-name="Layer 2"><g id="Layer_1-2" data-name="Layer 1"><path class="cls-1" d="M144.07,76.17c0,46.35-32.43,76.16-83.35,76.16H0V0H60.72C111.64,0,144.07,30,144.07,76.17Zm-49,0c0-18.28-11.75-31.34-34.38-31.34H49V107.5H60.72C83.35,107.5,95.1,94.67,95.1,76.17Z"/><path class="cls-1" d="M270.94,107.94H196.08c3,9.36,10.23,14.8,22,14.8,10.88,0,17.63-5,20.46-9.14l28.51,17c-8.49,13.06-25.9,24.59-49,24.59-39.82,0-64.2-25-64.2-57.88,0-33.3,24.81-57.89,58.54-57.89C246.79,39.39,275.29,61.37,270.94,107.94ZM231.12,86.61c-2.18-9.36-7.62-14.8-17.85-14.8-9.14,0-15,5.66-17.41,14.8Z"/><path class="cls-1" d="M397.38,107.94H322.52c3.05,9.36,10.23,14.8,22,14.8,10.88,0,17.63-5,20.46-9.14l28.51,17c-8.49,13.06-25.9,24.59-49,24.59-39.82,0-64.2-25-64.2-57.88,0-33.3,24.81-57.89,58.54-57.89C373.23,39.39,401.74,61.37,397.38,107.94ZM357.56,86.61c-2.18-9.36-7.62-14.8-17.85-14.8-9.14,0-15,5.66-17.41,14.8Z"/><path class="cls-1" d="M535.14,97.28c0,29.16-16.76,57.88-51.14,57.88a41.27,41.27,0,0,1-28.73-10.88v50.05H412.18V42h43.09v8.71c7-7,16.32-11.32,28.73-11.32C518.38,39.39,535.14,68.12,535.14,97.28Zm-43.09,0c0-10.45-7-17.85-17.84-17.85-10.67,0-17.63,7.4-17.63,17.85s7,17.84,17.63,17.84C485.09,115.12,492.05,107.72,492.05,97.28Z"/></g></g></svg>