<svg xmlns="http://www.w3.org/2000/svg" viewBox="0 0 556.68 155.16"><defs><style>.cls-1{fill:#83f0ff;}</style></defs><title>Asset 1</title><g id="Layer_2" data-name="Layer 2"><g id="Layer_1-2" data-name="Layer 1"><path class="cls-1" d="M48.75,42.87V64h51.36v39.39H48.75v49H0V0H106.42V42.87Z"/><path class="cls-1" d="M196.73,39.39v45.7c-32.64-5.44-33.08,13.71-33.08,27.64v39.6H120.56V42h43.09V59.41C171.05,46.79,183.89,39.39,196.73,39.39Z"/><path class="cls-1" d="M320.34,107.94H245.48c3.05,9.36,10.23,14.8,22,14.8,10.88,0,17.63-5,20.46-9.14l28.5,17c-8.48,13.06-25.89,24.59-49,24.59-39.82,0-64.2-25-64.2-57.88,0-33.3,24.81-57.89,58.54-57.89C296.19,39.39,324.69,61.37,320.34,107.94ZM280.52,86.61c-2.18-9.35-7.62-14.8-17.85-14.8-9.14,0-15,5.66-17.41,14.8Z"/><path class="cls-1" d="M430.9,117.52c0,25.24-21.11,37.64-53.54,37.64-21.33,0-46.13-6.09-50.92-25.68L363.65,118c1.09,3.26,4.57,7.62,12.84,7.62,6.53,0,10.23-2.61,10.23-6.31,0-5.88-9.14-6.31-20.24-8.71C344.72,106,329.7,99,329.7,76.17c0-24.59,22.63-36.78,50.71-36.78,19.15,0,40.47,8.92,45,27.64L391.72,75.3c-1.52-4.57-5.65-7-10.88-7-6.09,0-9.79,2.61-9.79,6.53,0,5.22,6.31,6.09,15.23,7.84C414.14,88.57,430.9,96.19,430.9,117.52Z"/><path class="cls-1" d="M556.68,83.35v69H513.59V96.84c0-8.7-4.13-15.23-13.92-15.23-9.58,0-13.71,6.53-13.71,15.23v55.49H442.87V0H486V53.32c6.31-7.62,15.88-13.93,30.25-13.93C549.28,39.39,556.68,67.24,556.68,83.35Z"/></g></g></svg>