<svg xmlns="http://www.w3.org/2000/svg" viewBox="0 0 505.76 166.48"><defs><style>.cls-1{fill:#ffce00;}</style></defs><title>Asset 6</title><g id="Layer_2" data-name="Layer 2"><g id="Layer_1-2" data-name="Layer 1"><path class="cls-1" d="M128.83,67.9c0,37.65-25.89,54.4-64.41,54.4H49v41.35H0V11.32H64.42C106.42,11.32,128.83,32.64,128.83,67.9Zm-49.4,0c0-8.05-4.79-13.71-15-13.71H49v27.2H64.42C74.64,81.39,79.43,76,79.43,67.9Z"/><path class="cls-1" d="M186.07,11.32V163.65H143V11.32Z"/><path class="cls-1" d="M309.68,95.1v68.55H266.59V153.21c-5.88,8.7-19.15,13.27-28.73,13.27-11.75,0-37.65-4.35-37.65-32.43,0-37,48.32-37,54.84-37h11.54c0-9.58-5.88-13.93-14.15-13.93-7.83,0-15.23,2.61-19.8,6.09L207,71.6c11.32-12.41,29.16-20.89,51.14-20.89C293.36,50.71,309.68,68.77,309.68,95.1Zm-43.09,33.3v-12h-.87c-17.41,0-22.2,4.78-22.2,11.1,0,3.26,2,7.18,8.92,7.18A19.71,19.71,0,0,0,266.59,128.4Z"/><path class="cls-1" d="M328.39,22.42a22.42,22.42,0,1,1,22.42,22.63A22.38,22.38,0,0,1,328.39,22.42Zm.87,30.9h43.09V163.65H329.26Z"/><path class="cls-1" d="M505.76,94.66v69H462.67V108.16c0-8.71-4.14-15.24-13.93-15.24-9.58,0-13.71,6.53-13.71,15.24v55.49H391.94V53.32H435V64.63c6.31-7.61,15.89-13.92,30.25-13.92C498.36,50.71,505.76,78.56,505.76,94.66Z"/></g></g></svg>