<svg xmlns="http://www.w3.org/2000/svg" viewBox="0 0 281.7 246.05"><title>Asset 7</title><g id="Layer_2" data-name="Layer 2"><g id="Layer_1-2" data-name="Layer 1"><path d="M0,163C0,89.72,34.32,36.64,98,0l21.46,35.47c-46,30.37-69.62,62.47-69.62,115.27l10.79,60.81L22.52,164.81c11.21-11,21-15.91,35.38-15.91,25.52,0,48.81,16.63,48.81,46.3,0,31.71-20.3,50.85-48.81,50.85C21.46,246.05,0,216.18,0,163Zm162.22,0c0-73.29,34.32-126.37,98-163L281.7,35.47c-46,30.37-69.61,62.47-69.61,115.27l10.79,60.81-38.14-46.74c11.21-11,21-15.91,35.38-15.91,25.51,0,48.81,16.63,48.81,46.3,0,31.71-20.3,50.85-48.81,50.85C183.68,246.05,162.22,216.18,162.22,163Z"/></g></g></svg>