<svg xmlns="http://www.w3.org/2000/svg" viewBox="0 0 537.27 56.02"><defs><style>.cls-1{fill:#516f3c;}</style></defs><title>Asset 28</title><g id="Layer_2" data-name="Layer 2"><g id="Layer_1-2" data-name="Layer 1"><path class="cls-1" d="M0,54.88C7.67,37.12,16.25,16,18.37,1.59H33.93A373,373,0,0,0,53,54.88H37.42c-2.27-8.42-8.8-12.67-14.8-12.67S11.39,46.38,11.39,54.88ZM24.44,39.55a17,17,0,0,1,9.11,2.35c-3.18-10.55-8.5-25-12.75-35.14a169.82,169.82,0,0,0-8.88,37.5C14.73,41.07,19.66,39.55,24.44,39.55Z"/><path class="cls-1" d="M56.48,54.88a212.72,212.72,0,0,0,1.75-26.64A212,212,0,0,0,56.48,1.59C66,1.59,71.06.08,77.21.08c12.45,0,20.87,4.09,20.87,12.07,0,4.55-2.88,9.33-8.27,11.91C97.25,25.73,101,32.19,101,38.72c0,12.07-11.31,16.85-25.81,16.85C69.31,55.57,66,54.88,56.48,54.88ZM86.39,38.41c0-7-2.88-9.71-6.75-10.78-4.48-1.21-6.53-3.19-6.53-5.69s2-4.4,5-4.4a2.1,2.1,0,1,1,0,4.17c-2.13,0-2.73.91-2.73,1.75s.75,1.67,2.35,1.67c3.19,0,7.06-2.51,7.06-11.77C84.8,6.15,80.55,3,73.94,3c-.6,0-1.36,0-2,.07C71.29,11.31,71,20,71,28.54c0,8.35.31,16.55.91,24.07a16.31,16.31,0,0,0,2.66.15C82.29,52.76,86.39,47.45,86.39,38.41Z"/><path class="cls-1" d="M103.48,28.16c0-18.75,14-28.16,28.08-28.16,13.9,0,27.94,9.34,27.94,28.09s-14,27.93-28,27.93S103.48,46.76,103.48,28.16ZM145,34.24c0-14.58-6.15-32-16.93-32-7.06,0-10.32,9.33-10.32,20,0,14.5,6,31.43,17,31.43C141.74,53.75,145,44.71,145,34.24Z"/><path class="cls-1" d="M165.27,34.46c0-7.28.69-14.57.69-21.93a74.42,74.42,0,0,0-.69-10.94h15.57c-.76,9-1.45,18.3-1.45,26.5,0,14.88,2.21,26.19,10,26.19s9.94-11.24,9.94-26c0-8.28-.68-17.54-1.44-26.65H213.4a75.81,75.81,0,0,0-.68,10.94c0,7.36.68,14.65.68,21.93C213.4,50.41,201.33,56,189.34,56S165.27,50.41,165.27,34.46Z"/><path class="cls-1" d="M234.81,55c1.07-12,2.13-24.06,2.13-36.13,0-5-.15-9.95-.61-15H231.7c-3.19,0-5.92,1.82-5.92,6.38,0,2.73,1.75,5.39,4.78,5.39,1.83,0,2.66-.68,2.66-1.29s-.68-1.06-2.05-1.06c-1.75,0-2.28-.76-2.28-1.52a1.52,1.52,0,0,1,1.67-1.52c1.9,0,3.42,1.9,3.42,4,0,4.4-3.95,6.68-8.12,6.68-4.71,0-9.72-3-9.72-9.26,0-4.86,3.72-10.1,12.53-10.1h27.4c8.81,0,12.53,5.24,12.53,10.1,0,6.3-5,9.26-9.72,9.26-4.18,0-8.12-2.28-8.12-6.68,0-2.12,1.51-4,3.41-4a1.52,1.52,0,0,1,1.67,1.52c0,.76-.53,1.52-2.28,1.52-1.36,0-2,.53-2,1.06s.83,1.29,2.65,1.29c3,0,4.78-2.66,4.78-5.39,0-4.56-2.73-6.38-5.92-6.38h-4.17c-.46,5-.61,10-.61,15,0,12.07,1.06,24.14,2.13,36.13Z"/><path class="cls-1" d="M285.3,54.88a212.72,212.72,0,0,0,1.75-26.64A212,212,0,0,0,285.3,1.59c9.49,0,14.58-1.51,20.72-1.51,12.45,0,20.88,4.09,20.88,12.07,0,4.55-2.88,9.33-8.27,11.91,7.43,1.67,11.15,8.13,11.15,14.66,0,12.07-11.31,16.85-25.8,16.85C298.13,55.57,294.79,54.88,285.3,54.88Zm29.91-16.47c0-7-2.89-9.71-6.76-10.78-4.47-1.21-6.52-3.19-6.52-5.69s2-4.4,5-4.4a2.1,2.1,0,1,1,0,4.17c-2.13,0-2.74.91-2.74,1.75s.76,1.67,2.36,1.67c3.18,0,7.06-2.51,7.06-11.77C313.62,6.15,309.36,3,302.76,3c-.61,0-1.37,0-2.05.07-.61,8.2-.91,16.85-.91,25.43,0,8.35.3,16.55.91,24.07a16.25,16.25,0,0,0,2.66.15C311.11,52.76,315.21,47.45,315.21,38.41Z"/><path class="cls-1" d="M333.81,54.88a198.06,198.06,0,0,0,1.82-27.63c0-9-.53-19.28-1.82-25.66,9.41,0,18.3-1.59,25-1.59,10.62,0,16.77,6.15,16.77,12.37,0,6.38-6.45,12.76-18.14,12.76v.38c12.15,2.73,19.66,8.12,19.66,29.37H361.29c0-10.55-1.52-17.08-3.49-21.48-3.11-7.21-7.21-8.88-7.21-13.28,0-3.34,2.28-4.63,3.79-4.63,1.83,0,2.51,1.14,2.51,2.12s-.53,1.9-1.44,1.9c-2.05,0-3.12,1.06-3.12,2s.91,1.75,2.66,1.75c3.8,0,7.59-3.57,7.59-10.93,0-6.23-3.49-9.42-9.18-9.42a20.17,20.17,0,0,0-4,.46c-.76,8.2-1.14,16.62-1.14,25.81,0,8.88.38,17.76,1.14,25.73Z"/><path class="cls-1" d="M380.27,54.88C387.94,37.12,396.52,16,398.64,1.59h15.57a371.75,371.75,0,0,0,19.05,53.29H417.7c-2.28-8.42-8.81-12.67-14.8-12.67s-11.24,4.17-11.24,12.67Zm24.45-15.33a17,17,0,0,1,9.11,2.35c-3.19-10.55-8.51-25-12.76-35.14-4.32,12.45-7.59,25.2-8.88,37.5C395,41.07,399.93,39.55,404.72,39.55Z"/><path class="cls-1" d="M436.23,54.88c3-17.76,2.27-35.52.75-53.29h16A494.6,494.6,0,0,0,479.34,49.5c.84-18.07-3.79-35.84-8-47.91h12.15c-3,13.67-2.28,35.53-.76,53.29H465.91c-8.2-15.33-15.19-30.82-25.59-46.15-.76,16.47,2.28,36.51,8.05,46.15Z"/><path class="cls-1" d="M488.31,54.88q1.13-13.32,1.13-26.64T488.31,1.59C497,1.59,504.93,0,512.45,0c14.95,0,24.82,10.1,24.82,27.4,0,20.2-13.44,28.47-26.72,28.47C500.38,55.87,498.17,54.88,488.31,54.88Zm33.4-27.48c0-17.53-6.46-25-17.84-24.14-.46,8.13-.76,16.63-.76,25.06s.3,17,.76,25.12C514.12,54,521.71,45,521.71,27.4Z"/></g></g></svg>