<svg xmlns="http://www.w3.org/2000/svg" viewBox="0 0 410.26 56.02"><defs><style>.cls-1{fill:#516f3c;}</style></defs><title>Asset 24</title><g id="Layer_2" data-name="Layer 2"><g id="Layer_1-2" data-name="Layer 1"><path class="cls-1" d="M0,43.5c0-5,4-9.72,10.4-9.72,4.33,0,8.27,2.35,8.27,6.76,0,2.12-1.51,4-3.41,4A1.52,1.52,0,0,1,13.59,43c0-.76.53-1.52,2.28-1.52,1.36,0,1.82-.53,1.82-1.06,0-1-1.06-1.59-2.36-1.59-1.89,0-4.1,1.29-4.1,4.93a10,10,0,0,0,10.1,10.25c3.8,0,7.29-4,7.29-8.81,0-9.49-26.87-19.2-26.87-29.75C1.75,4,14.58,0,24.82,0c8.66,0,16.55,3.42,16.55,10.17,0,5.32-5.39,8.2-10.78,8.2-6.15,0-8.65-3.72-8.65-6.91,0-2.27,1.29-4.25,3.49-4.25A1.72,1.72,0,0,1,27.33,9a1.78,1.78,0,0,1-2,1.74c-1.13,0-1.67.61-1.67,1.37a2.43,2.43,0,0,0,2.66,2.2c1.82,0,3.87-1.44,3.87-5.08,0-4.94-3.94-7.44-7.74-7.44C19,1.75,14,4,14,9c0,9,27.79,16.78,27.79,31.28,0,10.4-11.92,15.71-23,15.71C5.54,56,0,49.5,0,43.5Z"/><path class="cls-1" d="M45.85,54.88a312,312,0,0,0,0-53.29H61.42a312,312,0,0,0,0,53.29Z"/><path class="cls-1" d="M66.43,27.1C66.43,8.27,80.7,0,93.3,0c10,0,18.83,5.09,18.83,14.35,0,5.77-4.1,11-12.22,11-7.22,0-10.71-5-10.71-9.33,0-3.42,2-7.44,6.15-7.44a2.15,2.15,0,0,1,2.35,2.2,2.31,2.31,0,0,1-2.35,2.35c-3-.07-4.33,1.22-4.33,2.36a3.88,3.88,0,0,0,4.1,3.79c2.81,0,5.92-2.28,5.92-8s-3.41-9-7.44-9c-5.46,0-12,6.22-12,21,0,18.67,6.53,29.9,11.31,29.9,3.72,0,5.47-5.92,5.47-12.37a32,32,0,0,0-1.6-10.4h15.57a46.29,46.29,0,0,0,0,20.42,38.61,38.61,0,0,1-18.53,4.86C79.71,55.72,66.43,47.45,66.43,27.1Z"/><path class="cls-1" d="M115.09,54.88c3-17.76,2.28-35.52.76-53.29h16A492.43,492.43,0,0,0,158.21,49.5c.84-18.07-3.79-35.84-8-47.91h12.15c-3,13.67-2.28,35.53-.76,53.29H144.77c-8.19-15.33-15.18-30.82-25.58-46.15-.76,16.47,2.28,36.51,8,46.15Z"/><path class="cls-1" d="M166.34,54.88C174,37.12,182.58,16,184.71,1.59h15.56a374.2,374.2,0,0,0,19,53.29H203.76c-2.28-8.42-8.8-12.67-14.8-12.67s-11.24,4.17-11.24,12.67Zm24.44-15.33a17,17,0,0,1,9.11,2.35c-3.19-10.55-8.5-25-12.75-35.14a169.82,169.82,0,0,0-8.88,37.5C181.06,41.07,186,39.55,190.78,39.55Z"/><path class="cls-1" d="M229.65,55c1.07-12,2.13-24.06,2.13-36.13,0-5-.15-9.95-.61-15h-4.63c-3.19,0-5.92,1.82-5.92,6.38,0,2.73,1.75,5.39,4.78,5.39,1.82,0,2.66-.69,2.66-1.29s-.68-1.07-2.05-1.07c-1.75,0-2.28-.75-2.28-1.51a1.52,1.52,0,0,1,1.67-1.52c1.9,0,3.42,1.9,3.42,4,0,4.4-3.95,6.68-8.12,6.68C216,21,211,18,211,11.69c0-4.86,3.72-10.1,12.52-10.1h27.41c8.8,0,12.52,5.24,12.52,10.1,0,6.3-5,9.26-9.71,9.26-4.18,0-8.13-2.28-8.13-6.68,0-2.12,1.52-4,3.42-4a1.52,1.52,0,0,1,1.67,1.52c0,.76-.53,1.51-2.28,1.51-1.36,0-2.05.54-2.05,1.07s.84,1.29,2.66,1.29c3,0,4.78-2.66,4.78-5.39,0-4.56-2.73-6.38-5.92-6.38H243.7c-.46,5-.61,10-.61,15,0,12.07,1.06,24.14,2.13,36.13Z"/><path class="cls-1" d="M266.7,34.46c0-7.28.69-14.57.69-21.93a75.82,75.82,0,0,0-.69-10.94h15.56c-.76,9-1.44,18.3-1.44,26.5,0,14.88,2.2,26.19,9.95,26.19s9.94-11.24,9.94-26c0-8.28-.68-17.54-1.44-26.65h15.56a75.81,75.81,0,0,0-.68,10.94c0,7.36.68,14.65.68,21.93,0,15.95-12.07,21.56-24.06,21.56S266.7,50.41,266.7,34.46Z"/><path class="cls-1" d="M320.53,54.88a198.06,198.06,0,0,0,1.82-27.63c0-9-.53-19.28-1.82-25.66,9.41,0,18.29-1.59,25-1.59,10.63,0,16.78,6.15,16.78,12.37,0,6.38-6.45,12.76-18.14,12.76v.38c12.14,2.73,19.66,8.12,19.66,29.37H348c0-10.55-1.52-17.08-3.49-21.48-3.12-7.21-7.22-8.88-7.22-13.28,0-3.34,2.28-4.63,3.8-4.63,1.82,0,2.5,1.14,2.5,2.12s-.53,1.9-1.44,1.9c-2.05,0-3.11,1.06-3.11,2s.91,1.75,2.66,1.75c3.79,0,7.59-3.57,7.59-10.93,0-6.23-3.49-9.42-9.19-9.42a20.07,20.07,0,0,0-4,.46C335.33,11.54,335,20,335,29.15c0,8.88.38,17.76,1.14,25.73Z"/><path class="cls-1" d="M374.88,54.2a31.1,31.1,0,0,0-6.3.68q1.14-13.32,1.14-26.64T368.58,1.59c7.82,0,20-1.59,25.36-1.59C405,0,407.75,4.63,407.75,9.34s-3.34,9.41-10.55,9.41c-5.62,0-7.59-3-7.59-5.62,0-2.12,1.52-4,3.42-4a1.52,1.52,0,0,1,1.67,1.52c0,.76-.53,1.52-2.28,1.52-1.37,0-2.05.53-2.05,1.06s.83,1.29,2.66,1.29a4.73,4.73,0,0,0,5.08-4.94c0-5-3.72-7-8.73-7a23.73,23.73,0,0,0-6.3.91c0,5.08,0,15.86-.07,22.54h2.27c5,0,11.47-.91,15.26-4.55V32.79c-3.79-3.64-10.25-4.55-15.26-4.55H383c0,8.12.38,16.47,1.14,24.59a43.24,43.24,0,0,0,6.83.69c4.32,0,8.42-1.22,8.42-6.15,0-2.66-1.67-5.16-5.46-5.16-1.82,0-2.66.68-2.66,1.29s.68,1.06,2.05,1.06c1.75,0,2.28.76,2.28,1.52a1.52,1.52,0,0,1-1.67,1.52c-1.9,0-3.42-1.9-3.42-4,0-4.7,4.48-7.21,9.26-7.21,6.68,0,10.48,4.48,10.48,9.19,0,5.08-4.56,10.47-15,10.47C387,56,381.26,54.2,374.88,54.2Z"/></g></g></svg>