<svg xmlns="http://www.w3.org/2000/svg" viewBox="0 0 244.83 56.02"><defs><style>.cls-1{fill:#516f3c;}</style></defs><title>Asset 25</title><g id="Layer_2" data-name="Layer 2"><g id="Layer_1-2" data-name="Layer 1"><path class="cls-1" d="M6.3,54.2a31.1,31.1,0,0,0-6.3.68Q1.14,41.56,1.14,28.24T0,1.59C7.82,1.59,20,0,25.35,0,36.44,0,39.17,4.63,39.17,9.34s-3.34,9.41-10.55,9.41c-5.62,0-7.59-3-7.59-5.62,0-2.12,1.52-4,3.41-4a1.52,1.52,0,0,1,1.67,1.52c0,.76-.53,1.52-2.27,1.52-1.37,0-2.05.53-2.05,1.06s.83,1.29,2.65,1.29a4.74,4.74,0,0,0,5.09-4.94c0-5-3.72-7-8.73-7a23.73,23.73,0,0,0-6.3.91c0,5.08,0,15.86-.08,22.54H16.7c5,0,11.46-.91,15.26-4.55V32.79c-3.8-3.64-10.25-4.55-15.26-4.55H14.42c0,8.12.38,16.47,1.14,24.59a43.5,43.5,0,0,0,6.83.69c4.33,0,8.43-1.22,8.43-6.15,0-2.66-1.67-5.16-5.47-5.16-1.82,0-2.65.68-2.65,1.29s.68,1.06,2.05,1.06c1.74,0,2.27.76,2.27,1.52a1.52,1.52,0,0,1-1.67,1.52c-1.89,0-3.41-1.9-3.41-4,0-4.7,4.48-7.21,9.26-7.21,6.68,0,10.48,4.48,10.48,9.19,0,5.08-4.56,10.47-15,10.47C18.45,56,12.68,54.2,6.3,54.2Z"/><path class="cls-1" d="M61.42,54.88C59.75,40.46,51.17,14.8,43.81,1.59H60.43c0,10.4,7.44,30.6,14.57,47.53C81.46,29.76,85.33,14.58,85.33,1.59h9.11c-7.9,18.75-14.58,37.58-15.56,53.29Z"/><path class="cls-1" d="M103.86,54.2a31.1,31.1,0,0,0-6.3.68q1.13-13.32,1.13-26.64T97.56,1.59c7.81,0,20-1.59,25.35-1.59C134,0,136.73,4.63,136.73,9.34s-3.34,9.41-10.56,9.41c-5.61,0-7.59-3-7.59-5.62,0-2.12,1.52-4,3.42-4a1.52,1.52,0,0,1,1.67,1.52c0,.76-.53,1.52-2.28,1.52-1.36,0-2,.53-2,1.06s.84,1.29,2.66,1.29a4.74,4.74,0,0,0,5.09-4.94c0-5-3.72-7-8.73-7a23.8,23.8,0,0,0-6.31.91c0,5.08,0,15.86-.07,22.54h2.28c5,0,11.46-.91,15.25-4.55V32.79c-3.79-3.64-10.24-4.55-15.25-4.55H112c0,8.12.38,16.47,1.14,24.59a43.37,43.37,0,0,0,6.83.69c4.33,0,8.43-1.22,8.43-6.15,0-2.66-1.67-5.16-5.47-5.16-1.82,0-2.66.68-2.66,1.29s.69,1.06,2,1.06c1.75,0,2.28.76,2.28,1.52a1.52,1.52,0,0,1-1.67,1.52c-1.9,0-3.42-1.9-3.42-4,0-4.7,4.48-7.21,9.27-7.21,6.68,0,10.47,4.48,10.47,9.19,0,5.08-4.55,10.47-14.95,10.47C116,56,110.23,54.2,103.86,54.2Z"/><path class="cls-1" d="M142.5,54.88c3-17.76,2.28-35.52.76-53.29h16A492.43,492.43,0,0,0,185.62,49.5c.83-18.07-3.8-35.84-8-47.91h12.14c-3,13.67-2.27,35.53-.76,53.29H172.18C164,39.55,157,24.06,146.6,8.73c-.76,16.47,2.28,36.51,8.05,46.15Z"/><path class="cls-1" d="M211.05,55c1.06-12,2.13-24.06,2.13-36.13,0-5-.15-9.95-.61-15h-4.63c-3.19,0-5.92,1.82-5.92,6.38,0,2.73,1.74,5.39,4.78,5.39,1.82,0,2.66-.69,2.66-1.29s-.69-1.07-2.05-1.07c-1.75,0-2.28-.75-2.28-1.51a1.52,1.52,0,0,1,1.67-1.52c1.9,0,3.42,1.9,3.42,4,0,4.4-3.95,6.68-8.13,6.68-4.7,0-9.71-3-9.71-9.26,0-4.86,3.72-10.1,12.52-10.1h27.41c8.8,0,12.52,5.24,12.52,10.1,0,6.3-5,9.26-9.71,9.26-4.18,0-8.13-2.28-8.13-6.68,0-2.12,1.52-4,3.42-4a1.52,1.52,0,0,1,1.67,1.52c0,.76-.53,1.51-2.28,1.51-1.36,0-2.05.54-2.05,1.07s.84,1.29,2.66,1.29c3,0,4.78-2.66,4.78-5.39,0-4.56-2.73-6.38-5.92-6.38H225.1c-.46,5-.61,10-.61,15,0,12.07,1.06,24.14,2.12,36.13Z"/></g></g></svg>