<svg xmlns="http://www.w3.org/2000/svg" width="1920" height="4597.215" viewBox="0 0 1920 4597.215">
  <g id="그룹_6118" data-name="그룹 6118" transform="translate(-0.296 -1340.2)">
    <rect id="사각형_2321" data-name="사각형 2321" width="1920" height="2102.2" transform="translate(0.296 1340.2)" fill="#a1b56d"/>
    <path id="패스_7128" data-name="패스 7128" d="M1669.353,3225.343c-298.493,1.776-719.479,82.052-918.444,161.928C507.957,3469.477.3,3480.8.3,3480.8v94.8H.661V6012.553H1920.3V3236.962S1846.941,3225.3,1669.353,3225.343Z" transform="translate(0 -75.138)" fill="#c0d293"/>
    <g id="그룹_6025" data-name="그룹 6025" transform="translate(156.275 1473.843)">
      <path id="패스_7129" data-name="패스 7129" d="M174.167,1486.1a2.474,2.474,0,0,1-.587-.073c-1.427-.359-2.86-.636-4.378-.927s-3.079-.594-4.636-.984a2.4,2.4,0,1,1,1.169-4.656c1.426.358,2.857.634,4.373.926s3.084.594,4.64.985a2.4,2.4,0,0,1-.583,4.73Z" transform="translate(-162.75 -1479.391)" fill="#72995c"/>
    </g>
    <g id="그룹_6026" data-name="그룹 6026" transform="translate(108.553 1487.225)">
      <path id="패스_7130" data-name="패스 7130" d="M131,1499.542a38.961,38.961,0,0,1-6.54-.735c-3-.511-5.838-.994-8.488-.407a2.4,2.4,0,1,1-1.04-4.687c3.567-.792,7.006-.2,10.334.361a34.847,34.847,0,0,0,5.734.667,2.4,2.4,0,1,1,0,4.8Z" transform="translate(-113.047 -1493.328)" fill="#72995c"/>
    </g>
    <g id="그룹_6027" data-name="그룹 6027" transform="translate(36.384 1483.421)">
      <path id="패스_7131" data-name="패스 7131" d="M82.6,1495.4c-.054,0-.107,0-.159,0-1.993-.13-3.973-.281-5.946-.43a169.853,169.853,0,0,0-19.524-.73c-1.238.044-5.406.151-9.265.242l-5.143.12c-2.908.067-4.368.1-4.682-2l2.374-.354.025-2.4c.565,0,14.039-.316,16.513-.4a175.451,175.451,0,0,1,20.064.74c1.957.148,3.92.3,5.9.425a2.4,2.4,0,0,1-.155,4.8Z" transform="translate(-37.882 -1489.367)" fill="#72995c"/>
    </g>
    <g id="그룹_6028" data-name="그룹 6028" transform="translate(1711.094 1718.91)">
      <path id="패스_7132" data-name="패스 7132" d="M1793.192,1812.182s-7.889-43.811-11.079-58.924c0,0,13.933,21.315,18.633,47.172,0,0-4.364-39.788,12.421-65.8,0,0-3.861,37.09-.5,60.595,0,0,9.736-27.191,25.85-31.9,0,0-17.624,29.716-18.3,49.515Z" transform="translate(-1782.113 -1734.631)" fill="#7b9660"/>
    </g>
    <g id="그룹_6029" data-name="그룹 6029" transform="translate(319.328 2119.949)">
      <path id="패스_7133" data-name="패스 7133" d="M345.172,2244.722s.2-9.006-7.8-22.6c0,0,9.4,3.2,15.6,17.8a176.243,176.243,0,0,0-20.4-65.8s22.6,18.4,36.2,57.6c0,0,1.363-23.264,5.2-40.6,5.839-26.375,22.2-38.8,22.2-38.8a217.327,217.327,0,0,0-9.936,41.833,306.465,306.465,0,0,0-2.464,40.163s3.6-22.794,32.2-40.595c0,0-19.8,24.4-21.4,43.6,0,0,3-8.4,21.8-16,0,0-10,9-12.4,22Z" transform="translate(-332.572 -2152.318)" fill="#7b9660"/>
    </g>
    <g id="그룹_6030" data-name="그룹 6030" transform="translate(369.817 4490.361)">
      <path id="패스_7134" data-name="패스 7134" d="M397.757,4713.536s.2-9.006-7.8-22.6c0,0,9.4,3.2,15.6,17.8a176.244,176.244,0,0,0-20.4-65.8s22.6,18.4,36.2,57.6c0,0,1.363-23.263,5.2-40.6,5.839-26.375,22.2-38.8,22.2-38.8a217.328,217.328,0,0,0-9.936,41.834,306.462,306.462,0,0,0-2.464,40.163s3.6-22.794,32.2-40.6c0,0-19.8,24.4-21.4,43.6,0,0,3-8.4,21.8-16,0,0-10,9-12.4,22Z" transform="translate(-385.157 -4621.132)" fill="#a1b56d"/>
    </g>
    <g id="그룹_6031" data-name="그룹 6031" transform="translate(1496.065 5152.176)">
      <path id="패스_7135" data-name="패스 7135" d="M1570.758,5402.825s.2-9.006-7.8-22.6c0,0,9.4,3.2,15.6,17.8a176.245,176.245,0,0,0-20.4-65.8s22.6,18.4,36.2,57.6c0,0,1.363-23.264,5.2-40.6,5.839-26.375,22.2-38.8,22.2-38.8a217.337,217.337,0,0,0-9.936,41.834,306.451,306.451,0,0,0-2.464,40.162s3.6-22.793,32.2-40.595c0,0-19.8,24.4-21.4,43.6,0,0,3-8.4,21.8-16,0,0-10,9-12.4,22Z" transform="translate(-1558.158 -5310.42)" fill="#a1b56d"/>
    </g>
    <g id="그룹_6032" data-name="그룹 6032" transform="translate(1449.535 2692.277)">
      <path id="패스_7136" data-name="패스 7136" d="M1522.3,2840.809s.2-9.006-7.8-22.6c0,0,9.4,3.2,15.6,17.8a176.245,176.245,0,0,0-20.4-65.8s22.6,18.4,36.2,57.6c0,0,1.364-23.264,5.2-40.6,5.839-26.375,22.2-38.8,22.2-38.8a217.326,217.326,0,0,0-9.935,41.833,306.447,306.447,0,0,0-2.464,40.163s3.6-22.794,32.2-40.595c0,0-19.8,24.4-21.4,43.6,0,0,3-8.4,21.8-16,0,0-10,9-12.4,22Z" transform="translate(-1509.696 -2748.405)" fill="#7b9660"/>
    </g>
    <g id="그룹_6033" data-name="그룹 6033" transform="translate(1549.118 1605.397)">
      <path id="패스_7137" data-name="패스 7137" d="M1625.5,1692.7s-1.21-32.28-12.088-55.064c0,0,15.708,16.4,18.992,44.022,0,0-.691-46.087,13.807-65.251,0,0-5.866,35.554-1.9,66.279,0,0,12.088-27.614,26.414-36.937,0,0-17.955,28.315-18.819,46.778Z" transform="translate(-1613.414 -1616.406)" fill="#7b9660"/>
    </g>
    <g id="그룹_6034" data-name="그룹 6034" transform="translate(1697.069 4015.536)">
      <path id="패스_7138" data-name="패스 7138" d="M1778.585,4204.147s-7.89-43.812-11.079-58.924c0,0,13.933,21.315,18.633,47.172,0,0-4.364-39.788,12.421-65.8,0,0-3.861,37.09-.5,60.594,0,0,9.736-27.191,25.85-31.9,0,0-17.624,29.716-18.3,49.514Z" transform="translate(-1767.506 -4126.596)" fill="#a1b56d"/>
    </g>
    <g id="그룹_6035" data-name="그룹 6035" transform="translate(1611.485 2716.381)">
      <path id="패스_7139" data-name="패스 7139" d="M1689.449,2851.061s-7.89-43.811-11.079-58.924c0,0,13.933,21.315,18.632,47.172,0,0-4.363-39.788,12.422-65.8,0,0-3.861,37.09-.5,60.595,0,0,9.735-27.191,25.85-31.9,0,0-17.624,29.717-18.3,49.515Z" transform="translate(-1678.37 -2773.51)" fill="#7b9660"/>
    </g>
    <g id="그룹_6036" data-name="그룹 6036" transform="translate(1535.094 3902.023)">
      <path id="패스_7140" data-name="패스 7140" d="M1610.9,4084.664s-1.21-32.28-12.088-55.064c0,0,15.708,16.4,18.992,44.022,0,0-.691-46.087,13.807-65.251,0,0-5.866,35.554-1.9,66.279,0,0,12.088-27.614,26.414-36.937,0,0-17.955,28.315-18.819,46.778Z" transform="translate(-1598.808 -4008.371)" fill="#a1b56d"/>
    </g>
    <g id="그룹_6037" data-name="그룹 6037" transform="translate(213.651 2224.622)">
      <path id="패스_7141" data-name="패스 7141" d="M234.6,2337.63s-1.21-32.28-12.088-55.064c0,0,15.708,16.4,18.992,44.023,0,0-.691-46.087,13.807-65.251,0,0-5.866,35.554-1.9,66.279,0,0,12.088-27.614,26.414-36.937,0,0-17.955,28.315-18.819,46.778Z" transform="translate(-222.508 -2261.337)" fill="#7b9660"/>
    </g>
    <g id="그룹_6038" data-name="그룹 6038" transform="translate(352.671 4743.931)">
      <path id="패스_7142" data-name="패스 7142" d="M378.378,4962.779s-7.889-43.811-11.079-58.923c0,0,13.933,21.315,18.633,47.171,0,0-4.364-39.789,12.421-65.8,0,0-3.861,37.09-.5,60.595,0,0,9.736-27.191,25.85-31.9,0,0-17.624,29.716-18.3,49.515Z" transform="translate(-367.299 -4885.229)" fill="#a1b56d"/>
    </g>
    <g id="그룹_6039" data-name="그룹 6039" transform="translate(190.697 4630.418)">
      <path id="패스_7143" data-name="패스 7143" d="M210.689,4843.3s-1.21-32.279-12.088-55.064c0,0,15.708,16.4,18.992,44.022,0,0-.691-46.087,13.807-65.251,0,0-5.866,35.554-1.9,66.278,0,0,12.088-27.614,26.413-36.937,0,0-17.955,28.315-18.819,46.778Z" transform="translate(-198.601 -4767.004)" fill="#a1b56d"/>
    </g>
    <g id="그룹_6040" data-name="그룹 6040" transform="translate(1693.789 1966.79)">
      <path id="패스_7144" data-name="패스 7144" d="M1770.734,2091.225s-.3-26.106,9.361-58.5c3.937-13.183,10.725-26.193,18.521-39.107l-2.045-.816a176.244,176.244,0,0,0-23.1,47.22c-4.81,15.746-7.172,31.281-9.381,49.908Z" transform="translate(-1764.09 -1992.801)" fill="#5a8f6c"/>
    </g>
    <g id="그룹_6041" data-name="그룹 6041" transform="translate(296.687 3558.853)">
      <path id="패스_7145" data-name="패스 7145" d="M319.581,3726.086s.394-28.91-10.59-54.642c0,0,16.361,14.22,19.961,46.183,0,0-3.735-52.9,12.165-66.672,0,0-6.395,32.29-1.968,62.611,0,0,6.558-23.111,27.863-34.421,0,0-21.93,27.306-20.653,46.875Z" transform="translate(-308.991 -3650.955)" fill="#a1b56d"/>
    </g>
    <g id="그룹_6042" data-name="그룹 6042" transform="translate(1608.705 5310.191)">
      <path id="패스_7146" data-name="패스 7146" d="M1686.064,5550.126s.394-28.911-10.59-54.642c0,0,16.361,14.22,19.961,46.183,0,0-3.735-52.9,12.165-66.672,0,0-6.394,32.29-1.968,62.61,0,0,6.558-23.11,27.863-34.421,0,0-21.93,27.306-20.653,46.874Z" transform="translate(-1675.474 -5474.995)" fill="#a1b56d"/>
    </g>
    <g id="그룹_6043" data-name="그룹 6043" transform="translate(1659.678 5230.362)">
      <path id="패스_7147" data-name="패스 7147" d="M1739.153,5466.983s.394-28.91-10.59-54.642c0,0,16.361,14.22,19.961,46.183,0,0-3.735-52.9,12.165-66.672,0,0-6.395,32.29-1.968,62.61,0,0,6.558-23.11,27.863-34.421,0,0-21.93,27.306-20.653,46.875Z" transform="translate(-1728.563 -5391.852)" fill="#a1b56d"/>
    </g>
    <g id="그룹_6044" data-name="그룹 6044" transform="translate(1703.505 1975.904)">
      <path id="패스_7148" data-name="패스 7148" d="M1774.21,2046.448c1.421-.509,11.378-10.581,14.69-17.1,2.064-4.071,4.455-7.979,6.682-11.944,1.968-3.514,4.167-15.007,4.081-15.084-.365-.355-2.727,2.967-2.852,3.14-2.669,3.965-4.954,8.084-7.316,12.232-3.812,6.721-6.548,9.5-10.859,17.4C1777.763,2036.683,1774.546,2039.986,1774.21,2046.448Z" transform="translate(-1774.21 -2002.293)" fill="#5a8f6c"/>
    </g>
    <g id="그룹_6045" data-name="그룹 6045" transform="translate(1709.022 1943.058)">
      <path id="패스_7149" data-name="패스 7149" d="M1817.626,1977.654c-2.986-4.724-12.357.749-12.357.749s3.015-9.678-4.858-10.3c-5.713-.4-5.031,6.952-5.031,6.952s-7.4-6.289-12.242-2.045,4.215,8.18,4.215,8.18-11.608,2.976-5.742,7.24c4.714,3.428,12.568-.567,12.568-.567s-.49,8.843,9.342,9.563c6.615.48,4.445-7.172,4.445-7.172s8.555,8.017,11.243,2.218-6.308-7.825-6.308-7.825S1820.795,1982.666,1817.626,1977.654Z" transform="translate(-1779.956 -1968.084)" fill="#fff"/>
    </g>
    <g id="그룹_6046" data-name="그룹 6046" transform="translate(1719.588 1952.329)">
      <path id="패스_7150" data-name="패스 7150" d="M1799.7,1979.325a28.9,28.9,0,0,1,9.774,5.185c3.408,2.938-2.794,2.64-4.234,2.362-.951-.192-1.93-.422-2.871-.662-1.469-.375-2.938-.855-4.388-1.3-1.133-.355-9.361-4.983-6.366-6.7C1793.946,1976.877,1797.748,1978.739,1799.7,1979.325Z" transform="translate(-1790.96 -1977.74)" fill="#eec759"/>
    </g>
    <g id="그룹_6050" data-name="그룹 6050" transform="translate(99.668 4839.875)">
      <g id="그룹_6047" data-name="그룹 6047" transform="translate(32.353 45.968)">
        <path id="패스_7151" data-name="패스 7151" d="M137.489,5128.235s4.537-57.6,2.587-95.024l2.7-.18a722.053,722.053,0,0,1,.137,82.149Z" transform="translate(-137.489 -5033.032)" fill="#5a8f6c"/>
      </g>
      <g id="그룹_6048" data-name="그룹 6048">
        <path id="패스_7152" data-name="패스 7152" d="M121.73,5192.513s3.332-35.1-3.529-66.83-12.178-54.206-14.408-59.694c0,0,23.421,30.765,30.658,105.267,0,0,2.433-18.542-3.385-55.869-4.2-26.933-9.262-43.569-9.262-43.569s14.467,23.342,17.555,47.186c0,0,3.715-50.615,19.667-70.339,0,0-14.842,78.479-.439,133.587,0,0-2.266-62.925,8.271-107.237,14.748-62.012,44.931-89.859,44.931-89.859s-25.4,47.616-31.5,97.183-4.64,83.027-4.64,83.027,7.571-59.585,43.954-81.075c0,0-27.594,37.239-34.187,107.569Z" transform="translate(-103.793 -4985.155)" fill="#69a77f"/>
      </g>
      <g id="그룹_6049" data-name="그룹 6049" transform="translate(21.963 8.166)">
        <path id="패스_7153" data-name="패스 7153" d="M139.527,5055.485c-6.04-1.012-2.545-4.933-3.008-8.784-.24-2-1.788-3.912-1.626-5.936.135-1.684,2.073-3.967,1.63-5.6-.54-1.979-3.085-2.892-3.6-4.879-.541-2.1,1.2-4.074.681-6.1-.5-1.952-2.754-3.134-2.9-5.318-.117-1.737.559-3.385.175-5.148-.363-1.675-1.665-2.919-1.839-4.656-.212-2.122,1.626-3.984,1.351-5.98-.247-1.809-2.172-2.642-3.127-3.984-.5-.7-1.233-5.444.433-5.444.533,0,1.265,1.379,1.789,1.683.914.52,2.419.528,3.164,1.29,1.449,1.478.351,4.4,2.006,6.134.845.886,3.14,1.567,3.375,2.91.3,1.709-1.039,3.357-.3,5.058.879,2.024,3.452,1.89,4.414,3.716.714,1.343.155,3.08.621,4.522.852,2.632,3.655,3.635,3.85,6.652.174,2.686-1.78,4.888-1.678,7.511.094,2.418,2.138,3.922,1.86,6.591-.137,1.315-1.07,2.659-.879,3.993.252,1.772,1.64,2.981,1.3,4.987-.3,1.764-1.8,2.874-2.21,4.53-.214.86-2.188,2.758-2.376,3.385-.064.224-2.163.125-2.35.1Z" transform="translate(-126.668 -4993.66)" fill="#fffbef"/>
      </g>
    </g>
    <g id="그룹_6063" data-name="그룹 6063" transform="translate(1479.214 4221.836)">
      <g id="그룹_6051" data-name="그룹 6051" transform="translate(8.358 123.548)">
        <path id="패스_7154" data-name="패스 7154" d="M1577.335,4516.706c-1.527-.5-12.338-11.048-16-17.932-2.286-4.3-4.915-8.425-7.368-12.6-2.172-3.709-4.743-15.913-4.655-16,.383-.377,2.973,3.116,3.1,3.3,2.923,4.179,5.45,8.509,8.048,12.9,4.2,7.085,7.175,9.984,11.926,18.325C1573.35,4506.371,1576.85,4509.822,1577.335,4516.706Z" transform="translate(-1549.312 -4470.136)" fill="#5a8f6c"/>
      </g>
      <g id="그룹_6052" data-name="그룹 6052" transform="translate(23.532 112.83)">
        <path id="패스_7155" data-name="패스 7155" d="M1581.38,4563.48s-.326-41.432-16.264-103.936l2.211-.57s15.028,56.424,17.453,104.716Z" transform="translate(-1565.116 -4458.974)" fill="#5a8f6c"/>
      </g>
      <g id="그룹_6053" data-name="그룹 6053" transform="translate(92.824 156.901)">
        <path id="패스_7156" data-name="패스 7156" d="M1643.107,4588.609s10.167-25.076,32.369-52.169c9.038-11.03,20.727-20.755,33.355-29.975l-1.634-1.592a182.565,182.565,0,0,0-40.975,35.888c-10.9,13.123-19.38,27.025-28.938,43.945Z" transform="translate(-1637.285 -4504.874)" fill="#5a8f6c"/>
      </g>
      <g id="그룹_6054" data-name="그룹 6054" transform="translate(57.389 44.732)">
        <path id="패스_7157" data-name="패스 7157" d="M1603.216,4542.186s-9.31-98.761,5.794-154.137l3,1.582s-10.072,27.455-7,138.5Z" transform="translate(-1600.378 -4388.049)" fill="#5a8f6c"/>
      </g>
      <g id="그룹_6055" data-name="그룹 6055" transform="translate(4.329)">
        <path id="패스_7158" data-name="패스 7158" d="M1572.405,4584.818s-15.059-21.8-27.289-34.029c0,0,21.979,12.939,31.906,27.479,0,0-1.95-26.063-5.849-52.471a503.133,503.133,0,0,0-11.344-53.174,269.71,269.71,0,0,1,30.487,99.791s-4.815-43.668-5.985-74.875-3.9-80.536-5.654-93.015c0,0,11.9,42.706,16.381,88.535s6.435,50.31,6.435,50.31-2.1-59.28,5.461-89.313c12.158-48.325,51-110.495,56.313-112.6,0,0-34.225,57.22-44.087,108.877s-4.724,95.62-4.724,95.62,6.866-49.12,14.773-68.542,26.738-45.938,26.738-45.938-19.572,42.379-24.595,72.748-2.792,68.216-2.792,68.216-2.723-53.794,37.054-74.389c0,0-26.348,24.75-28.032,81.173,0,0,11.791-25.47,39.581-31.576,0,0-20.51,15.988-27.667,37.036Z" transform="translate(-1545.116 -4341.459)" fill="#69a77f"/>
      </g>
      <g id="그룹_6056" data-name="그룹 6056" transform="translate(116.304 177.273)">
        <path id="패스_7159" data-name="패스 7159" d="M1661.739,4552.671c1.579.318,16.2-3.459,22.793-7.622,4.121-2.6,8.447-4.866,12.656-7.286,3.725-2.135,12.016-11.449,11.984-11.575-.142-.519-4.125,1.222-4.329,1.323-4.611,2.169-8.958,4.682-13.389,7.195-7.168,4.07-11.187,5.108-19.452,9.983C1670.331,4545.678,1665.578,4546.942,1661.739,4552.671Z" transform="translate(-1661.739 -4526.092)" fill="#5a8f6c"/>
      </g>
      <g id="그룹_6057" data-name="그룹 6057" transform="translate(109.95 156.273)">
        <path id="패스_7160" data-name="패스 7160" d="M1655.231,4555.1c-.55-1.515.988-16.532,4.11-23.684,1.951-4.464,3.541-9.079,5.3-13.61,1.553-4,9.516-13.6,9.642-13.584.539.058-.591,4.262-.655,4.48-1.456,4.882-3.282,9.556-5.1,14.322-2.944,7.7-3.364,11.826-6.945,20.728C1660.855,4545.551,1660.324,4550.434,1655.231,4555.1Z" transform="translate(-1655.121 -4504.22)" fill="#5a8f6c"/>
      </g>
      <g id="그룹_6058" data-name="그룹 6058" transform="translate(0 85.736)">
        <path id="패스_7161" data-name="패스 7161" d="M1544.395,4438.4c3.676-4.481,12.618,2.336,12.618,2.336s-1.873-10.334,6.309-9.974c5.92.318,4.284,7.8,4.284,7.8s8.412-5.536,12.851-.553-5.374,7.872-5.374,7.872,11.558,4.54,4.986,8.175c-5.291,2.932-12.853-2.178-12.853-2.178s-.621,9.154-10.827,8.644c-6.861-.344-3.66-7.94-3.66-7.94s-9.815,7.161-11.839.854,7.478-7.244,7.478-7.244S1540.5,4443.151,1544.395,4438.4Z" transform="translate(-1540.607 -4430.756)" fill="#fff"/>
      </g>
      <g id="그룹_6059" data-name="그룹 6059" transform="translate(148.845 131.527)">
        <path id="패스_7162" data-name="패스 7162" d="M1735.137,4497.02c-.964-5.721-12.114-4.238-12.114-4.238s6.757-8.041-.525-11.792c-5.293-2.663-7.586,4.64-7.586,4.64s-4.556-8.979-10.885-6.859.759,9.5.759,9.5-12.289-1.793-8.389,4.623c3.14,5.168,12.24,4.489,12.24,4.489s-4.008,8.259,5.1,12.881c6.128,3.107,7.122-5.075,7.122-5.075s4.961,11.089,9.852,6.617-2.894-10-2.894-10S1736.157,4503.075,1735.137,4497.02Z" transform="translate(-1695.631 -4478.446)" fill="#fff"/>
      </g>
      <g id="그룹_6060" data-name="그룹 6060" transform="translate(10.58 96.13)">
        <path id="패스_7163" data-name="패스 7163" d="M1563.567,4442.494a29.88,29.88,0,0,0-10.716,4.087c-3.874,2.579,2.543,3.073,4.053,2.963,1-.075,2.042-.183,3.04-.317,1.558-.2,3.128-.5,4.676-.779,1.208-.209,10.263-3.928,7.4-6.072C1569.792,4440.7,1565.639,4442.134,1563.567,4442.494Z" transform="translate(-1551.626 -4441.581)" fill="#eec759"/>
      </g>
      <g id="그룹_6061" data-name="그룹 6061" transform="translate(161.883 139.647)">
        <path id="패스_7164" data-name="패스 7164" d="M1717.6,4491.226a30.032,30.032,0,0,1,7.27,8.87c2.08,4.17-3.732,1.406-4.989.561-.833-.561-1.683-1.172-2.483-1.775-1.252-.956-2.464-1.993-3.672-3-.944-.787-6.956-8.518-3.409-8.953C1713.087,4486.578,1715.981,4489.885,1717.6,4491.226Z" transform="translate(-1709.21 -4486.904)" fill="#eec759"/>
      </g>
      <g id="그룹_6062" data-name="그룹 6062" transform="translate(58.75 7.796)">
        <path id="패스_7165" data-name="패스 7165" d="M1605.335,4398.224c-.383-.954-1.7-1.424-2.044-2.78-.533-2.136.639-4.054.349-6.089-.2-1.441-1.661-2.445-1.826-4.087-.248-2.479,2.23-4.021,2.521-6.349.129-1.021-.467-2.119-.086-3.132s1.656-1.063,2.261-1.909c.7-.989.1-2.295.609-3.309.96-1.917,4.134-2.554,4.435-4.958.152-1.206-.526-2.4-.349-3.651.3-2.1,1.477-3,2.7-4.514.8-1.014.116-2.211.521-3.225.325-.812,3.982-5.066,5.13-4.605,1.924.77-.449,2.754-.7,3.743-.27,1.072,1.885,1.256,2.086,2.261.346,1.725-1.686,3.341-1.479,5.21.089.813,1.122,1.339.87,2.261-.351,1.29-1.659,2.362-1.391,3.827.136.754,1.975,1.642,1.739,2.353-.531,1.592-1.858,2.421-2,4.255-.12,1.567,2.368,1.65,2,3.309-.346,1.55-2.709,1.993-3.3,3.476-.556,1.391.752,2.7.348,4.171-.478,1.759-2.58,2.771-3.478,4.263-.212.352,2.158,2.663,1.825,3.911-.64,2.4-3.2,1.709-4.782,2.873-2.315,1.7-1.2,4.33-4.609,3.652C1605.419,4398.928,1605.682,4399.087,1605.335,4398.224Z" transform="translate(-1601.796 -4349.58)" fill="#fffbef"/>
      </g>
    </g>
    <g id="그룹_6064" data-name="그룹 6064" transform="translate(1639.685 1976.938)">
      <path id="패스_7166" data-name="패스 7166" d="M1720.337,2095.765s.2-9-7.8-22.6c0,0,9.4,3.2,15.6,17.8a176.4,176.4,0,0,0-20.4-65.8s22.6,18.4,36.2,57.6c0,0,1.363-23.264,5.2-40.595,5.838-26.385,22.2-38.8,22.2-38.8a217.2,217.2,0,0,0-9.937,41.824,307.437,307.437,0,0,0-2.468,40.172s3.6-22.8,32.2-40.6c0,0-19.8,24.407-21.4,43.6,0,0,3.005-8.4,21.8-16,0,0-10,9-12.405,22Z" transform="translate(-1707.74 -2003.371)" fill="#69a77f"/>
    </g>
    <g id="그룹_6076" data-name="그룹 6076" transform="translate(317.701 3722.866)">
      <g id="그룹_6065" data-name="그룹 6065" transform="translate(17.696 54.771)">
        <path id="패스_7167" data-name="패스 7167" d="M361.6,3957.807s-.246-31.31-12.292-78.555l1.671-.43s11.358,42.649,13.191,79.146Z" transform="translate(-349.308 -3878.822)" fill="#5a8f6c"/>
      </g>
      <g id="그룹_6066" data-name="그룹 6066" transform="translate(63.659 40.411)">
        <path id="패스_7168" data-name="패스 7168" d="M399.837,3936.584s-.6-27.787,23.463-72l-1.568-.722s-21.629,34.673-24.553,72.922Z" transform="translate(-397.179 -3863.866)" fill="#5a8f6c"/>
      </g>
      <g id="그룹_6067" data-name="그룹 6067" transform="translate(36.888 38.984)">
        <path id="패스_7169" data-name="패스 7169" d="M377.427,3920.721s-3.127-35.438-8.13-57.956l1.618-.386a444.44,444.44,0,0,1,8.47,49.864Z" transform="translate(-369.297 -3862.379)" fill="#5a8f6c"/>
      </g>
      <g id="그룹_6068" data-name="그룹 6068" transform="translate(56.416 24.305)">
        <path id="패스_7170" data-name="패스 7170" d="M390.621,3936.153s-4.434-52.609,5.508-89.062l1.972,1.042s-7.463,21.194-4.926,72.31Z" transform="translate(-389.636 -3847.091)" fill="#5a8f6c"/>
      </g>
      <g id="그룹_6069" data-name="그룹 6069" transform="translate(21.265 5.822)">
        <path id="패스_7171" data-name="패스 7171" d="M364.9,3954.385s.837-26.811-3.911-47.058-7.96-31.282-7.96-31.282,8.431,10.1,14.8,36.59a225.515,225.515,0,0,1,5.307,33.372,336.916,336.916,0,0,1,3.351-44.263c3.352-22.066,10.893-35.472,10.893-35.472s-3.77,19.133-3.631,37.566,4.189,44.826,4.189,44.826-.712-33.382,3.178-56.424c4.763-28.218,17.525-56.33,25.453-64.4,0,0-13.815,34.766-17.863,68.667-2.517,21.083-1.964,42.224-1.687,52.73,0,0,1.321-25.968,10-39.992,9.757-15.765,18.757-21.393,18.757-21.393s-10.094,13.274-14.241,28.206-6.914,38.988-6.914,38.988Z" transform="translate(-353.025 -3827.841)" fill="#69a77f"/>
      </g>
      <path id="패스_7172" data-name="패스 7172" d="M358.854,3926.7c-1.153-.38-9.325-8.346-12.091-13.554-1.727-3.253-3.715-6.362-5.57-9.525-1.641-2.8-3.584-12.028-3.517-12.094.289-.287,2.247,2.353,2.345,2.492,2.209,3.157,4.119,6.433,6.082,9.745,3.176,5.364,5.423,7.552,9.014,13.853C355.843,3918.889,358.488,3921.5,358.854,3926.7Z" transform="translate(-331.148 -3824.556)" fill="#5a8f6c"/>
      <path id="패스_7173" data-name="패스 7173" d="M403.594,3903.713c1.044-.149,9.234-5.678,12.394-9.685,1.973-2.508,4.146-4.851,6.214-7.259,1.83-2.134,4.907-9.7,4.86-9.762-.2-.293-2.277,1.659-2.382,1.764-2.369,2.348-4.5,4.845-6.685,7.365-3.531,4.079-5.784,5.595-9.815,10.413C407.365,3897.523,404.709,3899.336,403.594,3903.713Z" transform="translate(-333.775 -3823.977)" fill="#5a8f6c"/>
      <g id="그룹_6070" data-name="그룹 6070" transform="translate(0 34.567)">
        <path id="패스_7174" data-name="패스 7174" d="M333.741,3863.557c2.778-3.389,9.536,1.764,9.536,1.764s-1.416-7.811,4.769-7.535c4.474.237,3.238,5.888,3.238,5.888s6.358-4.179,9.714-.414-4.062,5.948-4.062,5.948,8.736,3.435,3.769,6.18c-4,2.21-9.715-1.649-9.715-1.649s-.47,6.924-8.182,6.538c-5.187-.264-2.767-6.009-2.767-6.009s-7.417,5.419-8.949.651,5.652-5.473,5.652-5.473S330.8,3867.146,333.741,3863.557Z" transform="translate(-330.877 -3857.778)" fill="#fff"/>
      </g>
      <g id="그룹_6071" data-name="그룹 6071" transform="translate(78.825 25.829)">
        <path id="패스_7175" data-name="패스 7175" d="M436.269,3855.13c-1.664-2.993-7.575.028-7.575.028s2.174-5.8-2.617-6.449c-3.47-.442-3.306,4.073-3.306,4.073s-4.3-4.095-7.407-1.67,2.295,5.138,2.295,5.138-7.19,1.422-3.755,4.222c2.766,2.255,7.695.083,7.695.083s-.6,5.385,5.38,6.163c4.021.519,2.96-4.233,2.96-4.233s4.948,5.193,6.786,1.742-3.582-4.989-3.582-4.989S438.032,3858.293,436.269,3855.13Z" transform="translate(-412.975 -3848.678)" fill="#fff"/>
      </g>
      <g id="그룹_6072" data-name="그룹 6072" transform="translate(7.996 42.419)">
        <path id="패스_7176" data-name="패스 7176" d="M348.23,3866.645a22.57,22.57,0,0,0-8.1,3.092c-2.928,1.952,1.923,2.321,3.063,2.238.758-.055,1.545-.137,2.3-.237,1.178-.154,2.365-.38,3.534-.59.913-.159,7.757-2.971,5.6-4.591C352.936,3865.294,349.8,3866.375,348.23,3866.645Z" transform="translate(-339.206 -3865.957)" fill="#eec759"/>
      </g>
      <g id="그룹_6073" data-name="그룹 6073" transform="translate(85.525 31.252)">
        <path id="패스_7177" data-name="패스 7177" d="M425.283,3855.51a17.759,17.759,0,0,1,5.794,3.5c1.979,1.908-1.8,1.516-2.665,1.3-.574-.149-1.168-.32-1.733-.5-.883-.281-1.763-.623-2.634-.943-.68-.248-5.548-3.363-3.661-4.31C421.855,3853.817,424.117,3855.085,425.283,3855.51Z" transform="translate(-419.952 -3854.327)" fill="#eec759"/>
      </g>
      <g id="그룹_6074" data-name="그룹 6074" transform="translate(58.124)">
        <path id="패스_7178" data-name="패스 7178" d="M393.743,3853.788c-.252-.629-1.12-.932-1.345-1.83-.35-1.406.421-2.668.23-4.008-.135-.943-1.094-1.6-1.2-2.69-.163-1.632,1.468-2.64,1.66-4.178.085-.672-.307-1.389-.058-2.056s1.091-.706,1.488-1.262c.464-.65.068-1.51.4-2.172.632-1.268,2.722-1.686,2.919-3.262.1-.8-.346-1.588-.228-2.4.2-1.383.972-1.973,1.773-2.976.53-.662.078-1.45.344-2.116.214-.535,2.62-3.336,3.377-3.032,1.266.507-.3,1.808-.458,2.459-.178.71,1.241.827,1.373,1.488.228,1.135-1.109,2.2-.973,3.433.06.53.738.882.572,1.489-.231.849-1.092,1.549-.916,2.519.09.49,1.3,1.075,1.145,1.544-.35,1.048-1.223,1.593-1.316,2.805-.08,1.025,1.557,1.086,1.316,2.172-.228,1.025-1.784,1.312-2.176,2.293-.365.91.5,1.77.229,2.745-.315,1.152-1.7,1.82-2.289,2.807-.14.231,1.42,1.752,1.2,2.574-.421,1.577-2.1,1.125-3.148,1.891-1.525,1.114-.791,2.85-3.033,2.4C393.8,3854.251,393.971,3854.355,393.743,3853.788Z" transform="translate(-391.414 -3821.777)" fill="#fffbef"/>
      </g>
      <g id="그룹_6075" data-name="그룹 6075" transform="translate(25.595 17.401)">
        <path id="패스_7179" data-name="패스 7179" d="M371.485,3876.229c-3.771,0-2.049-2.735-2.724-5.027-.349-1.186-1.483-2.188-1.592-3.434-.09-1.042.853-2.624.419-3.561-.531-1.152-2.169-1.444-2.682-2.6-.543-1.218.312-2.6-.209-3.771-.5-1.13-1.992-1.621-2.305-2.933-.248-1.042-.006-2.11-.419-3.141-.392-.981-1.31-1.6-1.592-2.641-.346-1.268.579-2.585.209-3.77-.335-1.07-1.588-1.378-2.3-2.095-.375-.375-1.306-3.186-.294-3.351.324-.056.908.705,1.257.837.609.227,1.524.078,2.054.458,1.03.75.662,2.635,1.843,3.523.6.452,2.067.634,2.347,1.422.355,1.008-.288,2.144.335,3.1.739,1.136,2.288.794,3.059,1.8.57.744.407,1.852.838,2.679.785,1.511,2.59,1.836,3.017,3.649.38,1.615-.582,3.147-.252,4.735.3,1.455,1.7,2.16,1.8,3.809.05.811-.377,1.726-.126,2.514.332,1.048,1.3,1.643,1.3,2.894,0,1.1-.8,1.929-.88,2.976-.042.545-1.047,1.9-1.1,2.3-.017.138-1.3.3-1.417.3Z" transform="translate(-357.535 -3839.9)" fill="#fffbef"/>
      </g>
    </g>
    <g id="그룹_6078" data-name="그룹 6078" transform="translate(238.525 2548.029)">
      <path id="패스_7180" data-name="패스 7180" d="M279.038,2722.144s1.079-26.087,12.435-57.935c4.622-12.962,12.081-25.588,20.555-38.079l-2-.912a176.227,176.227,0,0,0-25.55,45.934c-5.632,15.468-8.814,30.859-11.993,49.341Z" transform="translate(-249.373 -2599.247)" fill="#5a8f6c"/>
      <g id="그룹_6077" data-name="그룹 6077" transform="translate(0 46.009)">
        <path id="패스_7181" data-name="패스 7181" d="M259,2721.219s.393-28.91-10.588-54.642c0,0,16.356,14.23,19.962,46.183,0,0-3.737-52.9,12.161-66.672,0,0-6.392,32.29-1.966,62.611,0,0,6.556-23.111,27.862-34.421,0,0-21.932,27.306-20.651,46.874Z" transform="translate(-248.414 -2646.088)" fill="#4a704a"/>
      </g>
      <path id="패스_7182" data-name="패스 7182" d="M332.643,2608.662c-2.735-4.877-12.384.1-12.384.1s3.524-9.505-4.312-10.542c-5.677-.7-5.385,6.683-5.385,6.683s-7.06-6.673-12.119-2.688,3.779,8.382,3.779,8.382-11.749,2.362-6.117,6.932c4.534,3.668,12.581.1,12.581.1s-.955,8.8,8.829,10.033c6.577.835,4.818-6.923,4.818-6.923s8.116,8.459,11.1,2.8-5.883-8.142-5.883-8.142S335.541,2613.838,332.643,2608.662Z" transform="translate(-250.254 -2598.169)" fill="#fff"/>
      <path id="패스_7183" data-name="패스 7183" d="M314.68,2609.348a28.984,28.984,0,0,1,9.492,5.694c3.245,3.111-2.935,2.487-4.35,2.132-.94-.24-1.911-.518-2.835-.806-1.447-.461-2.887-1.008-4.312-1.536-1.112-.4-9.089-5.463-6.009-7.019C309.067,2606.593,312.771,2608.657,314.68,2609.348Z" transform="translate(-250.708 -2598.538)" fill="#eec759"/>
    </g>
    <g id="그룹_6080" data-name="그룹 6080" transform="translate(119.95 1357.02)">
      <path id="패스_7184" data-name="패스 7184" d="M155.347,1480.914s1.072-25.923,12.357-57.57c4.593-12.88,12.006-25.427,20.425-37.84l-1.992-.906a175.119,175.119,0,0,0-25.389,45.644c-5.6,15.371-8.759,30.665-11.918,49.031Z" transform="translate(-125.87 -1358.79)" fill="#5a8f6c"/>
      <g id="그룹_6079" data-name="그룹 6079" transform="translate(0 45.72)">
        <path id="패스_7185" data-name="패스 7185" d="M135.438,1479.995s.391-28.728-10.521-54.3c0,0,16.252,14.139,19.837,45.892,0,0-3.714-52.571,12.084-66.253,0,0-6.351,32.086-1.954,62.217,0,0,6.515-22.965,27.688-34.2,0,0-21.794,27.135-20.521,46.579Z" transform="translate(-124.917 -1405.336)" fill="#4a704a"/>
      </g>
      <path id="패스_7186" data-name="패스 7186" d="M208.616,1368.145c-2.718-4.847-12.306.1-12.306.1s3.5-9.446-4.285-10.476c-5.642-.7-5.351,6.64-5.351,6.64s-7.016-6.631-12.043-2.671,3.755,8.329,3.755,8.329-11.675,2.347-6.079,6.888c4.506,3.645,12.5.1,12.5.1s-.95,8.749,8.773,9.97c6.536.831,4.787-6.879,4.787-6.879s8.065,8.406,11.036,2.786-5.846-8.091-5.846-8.091S211.5,1373.289,208.616,1368.145Z" transform="translate(-126.745 -1357.718)" fill="#fff"/>
      <path id="패스_7187" data-name="패스 7187" d="M190.766,1368.827a28.819,28.819,0,0,1,9.431,5.658c3.225,3.092-2.916,2.472-4.323,2.118-.934-.238-1.9-.515-2.818-.8-1.437-.458-2.869-1-4.284-1.527-1.105-.4-9.032-5.429-5.971-6.974C185.188,1366.089,188.869,1368.141,190.766,1368.827Z" transform="translate(-127.196 -1358.085)" fill="#eec759"/>
    </g>
    <g id="그룹_6087" data-name="그룹 6087" transform="translate(119.295 2514.796)">
      <g id="그룹_6081" data-name="그룹 6081" transform="translate(42.573 57.234)">
        <path id="패스_7188" data-name="패스 7188" d="M174.922,2716.387s3.764-25.838,18.339-56.341c5.934-12.415,14.661-24.215,24.378-35.756l-1.9-1.123a176.1,176.1,0,0,0-30.148,43.062c-7.2,14.806-11.954,29.784-17.014,47.844Z" transform="translate(-168.575 -2623.167)" fill="#5a8f6c"/>
      </g>
      <g id="그룹_6082" data-name="그룹 6082" transform="translate(14.047 34.402)">
        <path id="패스_7189" data-name="패스 7189" d="M164.222,2727s-2.3-76.658-22.688-127.612l-2.669,1.834s14.277,29.352,19.078,103.532Z" transform="translate(-138.865 -2599.387)" fill="#5a8f6c"/>
      </g>
      <g id="그룹_6083" data-name="그룹 6083" transform="translate(0 52.722)">
        <path id="패스_7190" data-name="패스 7190" d="M136.314,2710.3s-1.459-12.29-6.865-21.037c0,0,12.7,8.536,15.612,18.953,0,0,3.956-31.656-20.825-68.3,0,0,30.7,26.73,37.57,64.214,0,0-6.327-55.055,24.695-85.664,0,0-14.5,31.445-12.626,80.172,0,0,8.67-28.939,30.955-36.86,0,0-16.87,18.329-19.164,45.607,0,0,6.875-15.622,21.872-21.651,0,0-11.656,15.5-11.877,24.791Z" transform="translate(-124.235 -2618.467)" fill="#4a704a"/>
      </g>
      <g id="그룹_6084" data-name="그룹 6084" transform="translate(63.475 78.902)">
        <path id="패스_7191" data-name="패스 7191" d="M190.345,2664.671c1.123.23,11.541-2.468,16.236-5.434,2.938-1.853,6.02-3.466,9.016-5.185,2.66-1.527,8.564-8.161,8.545-8.247-.106-.375-2.948.874-3.092.941-3.284,1.546-6.375,3.332-9.534,5.127-5.108,2.9-7.969,3.639-13.864,7.115C196.461,2659.688,193.081,2660.59,190.345,2664.671Z" transform="translate(-190.345 -2645.734)" fill="#5a8f6c"/>
      </g>
      <g id="그룹_6085" data-name="그룹 6085" transform="translate(73.069 34.28)">
        <path id="패스_7192" data-name="패스 7192" d="M238.875,2611.528c-2.218-5.137-12.328-1.19-12.328-1.19s4.484-9.083-3.207-10.927c-5.569-1.286-6.039,6.088-6.039,6.088s-6.337-7.365-11.781-3.917,2.9,8.728,2.9,8.728-11.935,1.143-6.8,6.26c4.129,4.119,12.5,1.392,12.5,1.392s-1.863,8.661,7.748,10.9c6.452,1.508,5.5-6.394,5.5-6.394s7.2,9.256,10.754,3.937-5.012-8.709-5.012-8.709S241.228,2616.962,238.875,2611.528Z" transform="translate(-200.338 -2599.26)" fill="#fff"/>
      </g>
      <g id="그룹_6086" data-name="그룹 6086" transform="translate(0.435)">
        <path id="패스_7193" data-name="패스 7193" d="M144.157,2608.232c.259-.95,1.469-1.526,1.642-2.861.269-2.083-1.047-3.783-1-5.741.038-1.392,1.315-2.506,1.3-4.081-.038-2.391-2.554-3.571-3.092-5.76-.23-.96.211-2.064-.259-2.977-.47-.931-1.69-.835-2.352-1.575-.778-.864-.346-2.17-.941-3.072-1.123-1.719-4.205-1.978-4.753-4.225-.269-1.133.24-2.343-.067-3.5-.509-1.968-1.728-2.688-3.053-4-.874-.864-.346-2.083-.845-3-.394-.739-4.33-4.378-5.367-3.822-1.747.941.72,2.564,1.066,3.476.374,1-1.661,1.4-1.738,2.381-.144,1.671,1.968,2.986,1.968,4.791.01.778-.912,1.392-.576,2.237.47,1.19,1.834,2.064,1.738,3.485-.048.73-1.7,1.776-1.392,2.42.672,1.459,2.026,2.093,2.362,3.831.278,1.469-2.074,1.824-1.546,3.351.5,1.44,2.794,1.6,3.524,2.948.682,1.258-.422,2.641.125,4,.643,1.613,2.746,2.343,3.764,3.668.24.307-1.757,2.765-1.306,3.917.864,2.208,3.226,1.268,4.858,2.2,2.381,1.364,1.613,3.985,4.772,2.967C144.157,2608.914,143.926,2609.1,144.157,2608.232Z" transform="translate(-124.688 -2563.557)" fill="#fffbef"/>
      </g>
    </g>
    <g id="그룹_6088" data-name="그룹 6088" transform="translate(1672.405 3077.494)">
      <path id="패스_7194" data-name="패스 7194" d="M1989.709,3156.294s-4.638-13.383-29.123-2.265c-23.119,10.495-12.812,37.686-12.812,37.686s-7.892-15.362-22.174-10.043-8.574,20.115-8.574,20.115a22.391,22.391,0,0,0-21.267-7.767c-13.643,2.439-13.378,15.65-13.378,15.65s-4.43-23.8-25.12-26.644c-27.094-3.725-34.111,22.688-34.111,22.688s-7.688-6.164-15.577-1.392a19.994,19.994,0,0,0-9.306,12.136s-5.058-10.744-15.577-6.567-9.487,8.478-9.487,8.478-4.172-12.3-18.54-8.2-12.792,19.136-12.792,19.136l247.839,27.441Z" transform="translate(-1741.819 -3149.614)" fill="#eec759"/>
    </g>
    <g id="그룹_6089" data-name="그룹 6089" transform="translate(1308.47 3084.176)">
      <path id="패스_7195" data-name="패스 7195" d="M1803.288,3228.266s-19.787-45.866-43.116-49.716-40.122,13.183-40.122,13.183-4.87-14.556-20.9-13.212-14.192,10.571-14.192,10.571-7.1-36.9-38.426-32.088-25.556,49.783-25.556,49.783-3.059-11.694-17.823-9.457c-7.652,1.171-9.673,10.974-9.673,10.974a29.25,29.25,0,0,0-25.7-11.406c-17.19,1.239-18.121,22.6-18.121,22.6s-2.747-11.963-13.1-12.866c-9.566-.845-12.507,5.828-12.507,5.828a15.334,15.334,0,0,0-10.422-9.064c-8.661-2.036-14.565,6.106-16.245,9.726,0,0,4.46-20.566-12.759-23.255-12.08-1.882-15.848,9.707-15.848,9.707s-14.266-4.752-21.81,14.085c0,0-16.46-10.984-25.845,9.861,0,0-9.807-6.125-19.792-2.871-7.287,2.372-10.69,11.147-10.69,11.147s-6.688-9.131-18.6-4.7c-13.312,4.964-8.361,35.881-8.361,35.881Z" transform="translate(-1362.775 -3156.572)" fill="#ffe395"/>
    </g>
    <g id="그룹_6090" data-name="그룹 6090" transform="translate(1732.744 3176.57)">
      <path id="패스_7196" data-name="패스 7196" d="M1838.736,3262.117a2.437,2.437,0,0,0,2.352-1.764,2.4,2.4,0,0,0-1.705-2.951c-12.749-3.455-22.729-4.858-32.357-4.561a2.4,2.4,0,1,0,.156,4.8c9.112-.28,18.647,1.069,30.9,4.389A2.487,2.487,0,0,0,1838.736,3262.117Z" transform="translate(-1804.662 -3252.802)" fill="#72995c"/>
    </g>
    <g id="그룹_6091" data-name="그룹 6091" transform="translate(1676.154 3175.714)">
      <path id="패스_7197" data-name="패스 7197" d="M1776.182,3258.448a7.728,7.728,0,0,0,2.81-.489,2.387,2.387,0,0,0,1.382-3.111,2.452,2.452,0,0,0-3.165-1.359c-1.12.433-3.156-.109-4.951-.584a24.5,24.5,0,0,0-3.474-.746,67.3,67.3,0,0,0-14.351.39c-2.1.211-4.274.427-6.4.539a2.4,2.4,0,1,0,.259,4.794c2.242-.116,4.475-.341,6.634-.556a62.67,62.67,0,0,1,13.307-.4,21.057,21.057,0,0,1,2.751.611A20.648,20.648,0,0,0,1776.182,3258.448Z" transform="translate(-1745.723 -3251.911)" fill="#72995c"/>
    </g>
    <g id="그룹_6092" data-name="그룹 6092" transform="translate(1630.475 3177.765)">
      <path id="패스_7198" data-name="패스 7198" d="M1700.587,3260.159l.13,0c2.555-.132,5.1-.378,7.554-.615a96.782,96.782,0,0,1,12.447-.669,2.4,2.4,0,1,0,.151-4.8,102.687,102.687,0,0,0-13.078.69c-2.4.232-4.887.473-7.331.6a2.4,2.4,0,0,0,.126,4.8Z" transform="translate(-1698.147 -3254.047)" fill="#72995c"/>
    </g>
    <g id="그룹_6093" data-name="그룹 6093" transform="translate(1706.103 3197.007)">
      <path id="패스_7199" data-name="패스 7199" d="M1797.514,3281.241a2.772,2.772,0,0,0,2.181-.9,2.624,2.624,0,0,0,.475-2.775,2.458,2.458,0,0,0-3.166-1.357,2.346,2.346,0,0,0-.217.1c-.4-.1-.877-.228-1.219-.321a19.429,19.429,0,0,0-2.1-.5c-.794-.121-1.609-.258-2.435-.395-3.922-.654-7.979-1.332-11.986-.823a2.4,2.4,0,1,0,.625,4.761c3.286-.413,6.976.2,10.545.794.85.142,1.689.282,2.515.407.315.047.959.224,1.528.38A13.308,13.308,0,0,0,1797.514,3281.241Z" transform="translate(-1776.916 -3274.087)" fill="#72995c"/>
    </g>
    <g id="그룹_6094" data-name="그룹 6094" transform="translate(1653.253 3198.24)">
      <path id="패스_7200" data-name="패스 7200" d="M1724.311,3281.479a2.56,2.56,0,0,0,.285-.015,144.181,144.181,0,0,1,17.83-1.29h.016a2.4,2.4,0,1,0,.015-4.8,153.7,153.7,0,0,0-18.425,1.322,2.4,2.4,0,0,0,.278,4.784Z" transform="translate(-1721.872 -3275.372)" fill="#72995c"/>
    </g>
    <g id="그룹_6095" data-name="그룹 6095" transform="translate(1390.278 3202.273)">
      <path id="패스_7201" data-name="패스 7201" d="M1450.419,3286.534a2.5,2.5,0,0,0,.41-.034c9.647-1.6,19.693-1.814,29.406-2.017q2.47-.052,4.932-.11a2.4,2.4,0,1,0-.124-4.8q-2.451.06-4.913.109c-9.889.208-20.116.423-30.115,2.083a2.4,2.4,0,0,0-2,2.766A2.431,2.431,0,0,0,1450.419,3286.534Z" transform="translate(-1447.98 -3279.572)" fill="#72995c"/>
    </g>
    <g id="그룹_6096" data-name="그룹 6096" transform="translate(1345.279 3212.201)">
      <path id="패스_7202" data-name="패스 7202" d="M1403.538,3296.979a2.434,2.434,0,0,0,.588-.071c3.857-.942,8.614-2.106,12.417-2.195a2.4,2.4,0,1,0-.116-4.8c-4.342.1-9.389,1.335-13.444,2.327a2.4,2.4,0,0,0,.556,4.738Z" transform="translate(-1401.113 -3289.912)" fill="#72995c"/>
    </g>
    <g id="그룹_6097" data-name="그룹 6097" transform="translate(1301.266 3217.602)">
      <path id="패스_7203" data-name="패스 7203" d="M1357.712,3302.187a2.457,2.457,0,0,0,.267-.014c1.873-.2,3.706-.542,5.478-.874a37.3,37.3,0,0,1,8.577-.939,2.4,2.4,0,1,0,.243-4.8,41.517,41.517,0,0,0-9.732,1.018c-1.755.328-3.413.637-5.094.817a2.4,2.4,0,0,0,.261,4.787Z" transform="translate(-1355.273 -3295.537)" fill="#72995c"/>
    </g>
    <g id="그룹_6098" data-name="그룹 6098" transform="translate(1319.505 3229.234)">
      <path id="패스_7204" data-name="패스 7204" d="M1376.71,3314.029a2.463,2.463,0,0,0,.591-.073c4.256-1.039,9.646-1.237,14.4-1.411q1.125-.042,2.195-.084c1.31-.056,4.23.12,5.773.249a2.46,2.46,0,0,0,1.113.232,2.743,2.743,0,0,0,2.554-1.306,2.378,2.378,0,0,0-.079-2.415c-.737-1.164-1.622-1.219-4.909-1.422-.733-.044-3.231-.189-4.648-.135-.714.029-1.44.055-2.181.083-4.991.182-10.649.391-15.4,1.551a2.4,2.4,0,0,0-1.781,2.907A2.435,2.435,0,0,0,1376.71,3314.029Z" transform="translate(-1374.269 -3307.653)" fill="#72995c"/>
    </g>
    <g id="그룹_6099" data-name="그룹 6099" transform="translate(1375.018 3222.6)">
      <path id="패스_7205" data-name="패스 7205" d="M1434.53,3308.482a2.465,2.465,0,0,0,1.144-.281c5.157-2.7,13.654-2.66,20.483-2.632,1.844.006,3.585.015,5.194-.026a2.4,2.4,0,1,0-.062-4.8h-.065c-1.536.038-3.242.031-5.047.024-7.373-.026-16.555-.07-22.8,3.193a2.38,2.38,0,0,0-1.01,3.246A2.452,2.452,0,0,0,1434.53,3308.482Z" transform="translate(-1432.086 -3300.743)" fill="#72995c"/>
    </g>
    <g id="그룹_6100" data-name="그룹 6100" transform="translate(1231.541 3230.838)">
      <path id="패스_7206" data-name="패스 7206" d="M1285.1,3318.724a2.487,2.487,0,0,0,.831-.144,66.8,66.8,0,0,1,11.913-2.648q1.119-.178,2.235-.363c.164-.026.775-.164,1.593-.353,1.005-.232,3.335-.771,4.6-1.006a2.61,2.61,0,0,0,3.089-3.323c-.792-2.065-2.832-1.643-4.993-1.2-1.229.253-2.72.6-3.809.851-.645.149-1.137.264-1.311.3-.713.118-1.45.236-2.186.354a71.628,71.628,0,0,0-12.789,2.872,2.391,2.391,0,0,0-1.465,3.074A2.441,2.441,0,0,0,1285.1,3318.724Z" transform="translate(-1282.652 -3309.323)" fill="#72995c"/>
    </g>
    <g id="그룹_6101" data-name="그룹 6101" transform="translate(841.405 3322.358)">
      <path id="패스_7207" data-name="패스 7207" d="M878.762,3415.906a2.46,2.46,0,0,0,.564-.066c5.3-1.23,10.724-2.235,15.973-3.207,5.3-.983,10.782-2,16.189-3.254a2.4,2.4,0,0,0,1.814-2.888,2.44,2.44,0,0,0-2.937-1.783c-5.3,1.23-10.723,2.235-15.97,3.207-5.3.982-10.785,2-16.192,3.254a2.4,2.4,0,0,0-1.814,2.888A2.435,2.435,0,0,0,878.762,3415.906Z" transform="translate(-876.322 -3404.642)" fill="#72995c"/>
    </g>
    <g id="그룹_6102" data-name="그룹 6102" transform="translate(772.688 3338.488)">
      <path id="패스_7208" data-name="패스 7208" d="M807.192,3432.543a2.474,2.474,0,0,0,.565-.066q7.554-1.758,15.114-3.514l11.979-2.783a2.4,2.4,0,0,0,1.814-2.889,2.44,2.44,0,0,0-2.939-1.783l-11.976,2.784q-7.561,1.756-15.117,3.514a2.4,2.4,0,0,0-1.813,2.889A2.435,2.435,0,0,0,807.192,3432.543Z" transform="translate(-804.752 -3421.441)" fill="#72995c"/>
    </g>
    <g id="그룹_6103" data-name="그룹 6103" transform="translate(816.708 3343.823)">
      <path id="패스_7209" data-name="패스 7209" d="M852.927,3434.706a11.086,11.086,0,0,0,2.857-.592,38.108,38.108,0,0,1,3.722-.969c6.361-.833,8.412-1.3,8.333-3.706a2.558,2.558,0,0,0-2.677-2.422,39.621,39.621,0,0,0-7.38.76,8.174,8.174,0,0,0-1.8.257l-.006,0a3.328,3.328,0,0,0-2.028,1.146c-.541.239-1.114.506-1.681.793-2.223,1.134-1.627,2.911-1.486,3.255A2.123,2.123,0,0,0,852.927,3434.706Z" transform="translate(-850.599 -3426.999)" fill="#72995c"/>
    </g>
    <g id="그룹_6104" data-name="그룹 6104" transform="translate(745.118 3357.354)">
      <path id="패스_7210" data-name="패스 7210" d="M778.476,3454.727a2.433,2.433,0,0,0,.341-.024c6.952-.954,14.231-3.278,21.27-5.527,3.887-1.241,7.556-2.413,11.159-3.365a2.4,2.4,0,0,0,1.724-2.942,2.447,2.447,0,0,0-2.992-1.695c-3.723.985-7.625,2.231-11.4,3.437-6.837,2.184-13.909,4.443-20.436,5.338a2.4,2.4,0,0,0,.334,4.778Z" transform="translate(-776.037 -3441.092)" fill="#72995c"/>
    </g>
    <g id="그룹_6105" data-name="그룹 6105" transform="translate(716.082 3349.52)">
      <path id="패스_7211" data-name="패스 7211" d="M745.932,3443.985a2.391,2.391,0,0,1,1.5-3.056c1.33-.454,3.966-1.16,7.306-2.053,5.28-1.413,15.055-4.028,16.752-5.171a2.472,2.472,0,0,1,3.263-.291,2.375,2.375,0,0,1,.484,3.362c-1.231,1.609-5,2.93-19.216,6.733-3.119.833-5.814,1.554-6.984,1.955a2.456,2.456,0,0,1-3.108-1.478Zm25.405-10.1,0,0Z" transform="translate(-745.796 -3432.931)" fill="#72995c"/>
    </g>
    <g id="그룹_6116" data-name="그룹 6116" transform="translate(22.832 3376.9)">
      <g id="그룹_6106" data-name="그룹 6106" transform="translate(481.565 28.767)">
        <path id="패스_7212" data-name="패스 7212" d="M527,3503.909a2.393,2.393,0,0,0-1.588,2.927,2.446,2.446,0,0,0,3.008,1.665c3.385-.928,6.709-1.789,9.925-2.621,10.527-2.724,20.469-5.3,31.053-9.869a2.385,2.385,0,0,0,1.253-3.164,2.456,2.456,0,0,0-3.217-1.232c-10.233,4.423-19.995,6.948-30.331,9.622-3.234.837-6.576,1.7-10,2.642C527.072,3503.888,527.038,3503.9,527,3503.909Z" transform="translate(-525.323 -3491.409)" fill="#72995c"/>
      </g>
      <g id="그룹_6107" data-name="그룹 6107" transform="translate(537.394 18.886)">
        <path id="패스_7213" data-name="패스 7213" d="M597.468,3481.432c.591-.12,1.029-.208,1.243-.255a2.443,2.443,0,0,1,2.913,1.823,2.394,2.394,0,0,1-1.854,2.864c-.227.049-.691.143-1.316.27a108.354,108.354,0,0,0-10.635,2.429,2.514,2.514,0,0,1-4.327-2.02c.151-1.139.491-1.787,2.968-2.586C588.437,3483.319,591.777,3482.586,597.468,3481.432Zm-10.376,3.384h0Z" transform="translate(-583.47 -3481.119)" fill="#72995c"/>
      </g>
      <g id="그룹_6108" data-name="그룹 6108" transform="translate(507.248 6.162)">
        <path id="패스_7214" data-name="패스 7214" d="M553.753,3475a2.393,2.393,0,0,0-1.574,2.981,2.448,2.448,0,0,0,3.047,1.6l.856-.257c7.169-2.149,14.586-4.37,21.829-6.777a2.391,2.391,0,0,0,1.532-3.042,2.452,2.452,0,0,0-3.074-1.513l-.02.007c-7.173,2.382-14.556,4.594-21.691,6.733l-.856.258C553.785,3474.989,553.769,3475,553.753,3475Z" transform="translate(-552.073 -3467.867)" fill="#72995c"/>
      </g>
      <g id="그룹_6109" data-name="그룹 6109" transform="translate(541.7)">
        <path id="패스_7215" data-name="패스 7215" d="M590.749,3461.962a4.456,4.456,0,0,0-1.288.715l-.471.331a2.375,2.375,0,0,0-.59,3.345,2.471,2.471,0,0,0,3.4.579l.521-.367.1-.068h0c.3-.055.744-.136,1.493-.314a2.4,2.4,0,0,0,1.8-2.9,2.445,2.445,0,0,0-2.947-1.771c-.624.148-1,.217-1.244.262A6.121,6.121,0,0,0,590.749,3461.962Z" transform="translate(-587.955 -3461.449)" fill="#72995c"/>
      </g>
      <g id="그룹_6110" data-name="그룹 6110" transform="translate(440.557 17.291)">
        <path id="패스_7216" data-name="패스 7216" d="M484.29,3488.326a2.4,2.4,0,0,0-1.649,2.646,2.437,2.437,0,0,0,2.785,2.007c2.07-.315,4.126-.616,6.17-.915,12.743-1.866,24.762-3.621,37.205-7.931a2.39,2.39,0,0,0,1.492-3.061,2.446,2.446,0,0,0-3.114-1.467c-11.99,4.142-23.8,5.879-36.3,7.711q-3.079.451-6.2.918A2.667,2.667,0,0,0,484.29,3488.326Z" transform="translate(-482.613 -3479.457)" fill="#72995c"/>
      </g>
      <g id="그룹_6111" data-name="그룹 6111" transform="translate(8.382 68.475)">
        <path id="패스_7217" data-name="패스 7217" d="M34.181,3532.886a2.419,2.419,0,0,0-1.554,1.513,2.393,2.393,0,0,0,1.532,3.043c11.9,3.953,26.4,4.474,36.261,4.522a2.4,2.4,0,1,0,.024-4.8c-9.525-.046-23.488-.54-34.722-4.271A2.471,2.471,0,0,0,34.181,3532.886Z" transform="translate(-32.498 -3532.766)" fill="#72995c"/>
      </g>
      <g id="그룹_6112" data-name="그룹 6112" transform="translate(57.052 73.46)">
        <path id="패스_7218" data-name="패스 7218" d="M84.869,3538.077a2.394,2.394,0,0,0,.612,4.678q2.294.137,4.569.282a2.4,2.4,0,1,0,.31-4.791q-2.284-.143-4.581-.284A2.5,2.5,0,0,0,84.869,3538.077Z" transform="translate(-83.188 -3537.958)" fill="#72995c"/>
      </g>
      <g id="그룹_6113" data-name="그룹 6113" transform="translate(0 51.888)">
        <path id="패스_7219" data-name="패스 7219" d="M25.45,3515.611a2.39,2.39,0,0,0,.115,4.6,50.713,50.713,0,0,0,6.023,1.139,2.435,2.435,0,0,0,2.772-2.023A2.4,2.4,0,0,0,32.3,3516.6a46.71,46.71,0,0,1-5.449-1.022A2.476,2.476,0,0,0,25.45,3515.611Z" transform="translate(-23.767 -3515.491)" fill="#72995c"/>
      </g>
      <g id="그룹_6114" data-name="그룹 6114" transform="translate(27.8 52.895)">
        <path id="패스_7220" data-name="패스 7220" d="M54.4,3516.659a2.389,2.389,0,0,0,.107,4.593c11.2,3.062,22.864,3.1,34.139,3.131,5.228.015,10.634.032,15.848.359a2.4,2.4,0,1,0,.31-4.791c-5.361-.336-10.842-.353-16.143-.368-10.952-.034-22.276-.068-32.847-2.957A2.467,2.467,0,0,0,54.4,3516.659Z" transform="translate(-52.722 -3516.539)" fill="#72995c"/>
      </g>
      <g id="그룹_6115" data-name="그룹 6115" transform="translate(83.535 68.912)">
        <path id="패스_7221" data-name="패스 7221" d="M113.381,3533.511c.248,0,.6,0,.96-.013a2.6,2.6,0,0,1,.85-.254,3.168,3.168,0,0,1,1.382.136,2.446,2.446,0,0,1,2.2,2.515c-.1,1.982-1.578,2.346-3.781,2.409-1.181.136-2.771.113-3.594-.79a2.378,2.378,0,0,1,1.033-3.867A2.958,2.958,0,0,1,113.381,3533.511Zm2.769,2.231-.01,0Z" transform="translate(-110.771 -3533.221)" fill="#72995c"/>
      </g>
    </g>
    <g id="그룹_6117" data-name="그룹 6117" transform="translate(185.968 3458.749)">
      <path id="패스_7222" data-name="패스 7222" d="M206.276,3639.1s.2-9.006-7.8-22.6c0,0,9.4,3.2,15.6,17.8a176.243,176.243,0,0,0-20.4-65.8s22.6,18.4,36.2,57.6c0,0,1.363-23.264,5.2-40.6,5.839-26.375,22.2-38.8,22.2-38.8a217.334,217.334,0,0,0-9.936,41.833,306.464,306.464,0,0,0-2.464,40.163s3.6-22.794,32.2-40.595c0,0-19.8,24.4-21.4,43.6,0,0,3-8.4,21.8-16,0,0-10,9-12.4,22Z" transform="translate(-193.676 -3546.695)" fill="#a1b56d"/>
    </g>
  </g>
</svg>
