<svg xmlns="http://www.w3.org/2000/svg" viewBox="0 0 1452.26 530.18"><defs><style>.cls-1{fill:#8db4e0;}.cls-2{fill:#b0443c;}.cls-3{fill:#f4b573;}.cls-4{fill:#ca8649;}.cls-5{fill:#683b11;}.cls-6{fill:#1d1d1b;}.cls-7{fill:#fff;}.cls-8{fill:#445e44;}.cls-9{fill:#334733;}.cls-10{fill:#46825e;}</style></defs><title>Asset 7</title><g id="Layer_2" data-name="Layer 2"><g id="Layer_1-2" data-name="Layer 1"><path class="cls-1" d="M1208.89,0H0V490.4H1208.89c134.41,0,243.37-109.78,243.37-245.2S1343.3,0,1208.89,0Z"/><circle class="cls-2" cx="1201.68" cy="245.2" r="222.67"/><path class="cls-3" d="M1438.37,231.1c-6.53,1.92-32.85,6.13-38,9.61-6.91,4.62-9.06,8.47-9,14.55-12.21,6.05-22.13,14.52-30.4,22.8-6.46,6.46-13.13,11.37-17.72,12.51-17.24,4.28-28.76-5.35-29.32-6.06a7.37,7.37,0,0,0-10.33-1.34c-3.23,2.48-8.79,12.95-6.3,16.18.65.85,19.39,12.62,40.7,12.62a40,40,0,0,0,9.69-1.21c8.57-2.13,17.3-7.28,25.59-15.58,7.78-7.78,15-18.58,25.68-23.49,7.75,4.64,20.72,7.8,30.22-2.54,13.07-14.22-12.27-23.46-12.27-23.46,4.3,0,23.41-6.52,27.26-9.78S1444.91,229.18,1438.37,231.1Z"/><path class="cls-3" d="M1325.28,443.68c-4.41-8.58-12.14-13.22-26.45-7.16,2-31.08-6.89-54.06-15.56-68.7-11.45-19.35-25.13-28.83-25.7-29.23a9.69,9.69,0,1,0-11,16c.11.07,11.22,7.94,20.46,23.91,11.47,19.82,15.2,42.89,11.14,68.66-4.52,3.27-7,7.18-6.62,13.86.43,8.9,7,14.63,33.52,6.31C1320.86,462.37,1328.16,449.28,1325.28,443.68Z"/><path class="cls-3" d="M1172.92,338.58a9.68,9.68,0,0,0-17.87,7.47c.2.48,18.87,46.92-22.6,97.14-5.69.37-9.88,2.4-13.14,8.35-4.3,7.82-1.72,16.13,25.26,22.93,16,4,29.08-3.29,29.56-9.57.73-9.61-3.42-17.6-18.74-19.94,18-26,22.8-50.61,23.35-67.8C1179.46,354.48,1173.19,339.21,1172.92,338.58Z"/><path class="cls-4" d="M1128.7,96.8l-1.23-14.91s-4.58-14.57,10.57-22.73,69.07-36.21,139.77,9.61,88.34,101.32,78.7,165.53-77.22,108.39-87.64,113.91-48.2,21.48-96.24,1.71c-41-16.85-98.3-48.31-114.74-81.05s-17-68.67-3.09-97.86C1069.67,139.85,1077,119.89,1128.7,96.8Z"/><path class="cls-5" d="M1135.29,93.7s56.66-17,121.83,22.38,47,96.82,47,96.82-17.21,87.18-86.77,91.62-95.55-41.14-95.55-41.14-39-44.82,21-111.67,112.79,29.53,112.9,31.95,4.67,70.49-62,68.81-19.25-58-19.25-58,19.55-10.24,9.55,12.84,17.5,23.16,20.86,18.89,48.35-22.75,13.77-51.49-63.74-11.72-74.31,11-20.37,64.82,22.59,87.6,70.87,2.64,89.19-26.42,41.77-65.28,8.45-94.83-64.24-39.56-90.71-33.51-76.81,34.69-83.9,97.29,50.81,98.33,97.57,106.89,91.85.35,110.57-45,36.6-80.2,19.14-119.06-50.41-72.92-106.09-75.84S1135.29,93.7,1135.29,93.7Z"/><path class="cls-6" d="M1339.23,212.33a61.41,61.41,0,0,0-2.81-5.9,6.65,6.65,0,0,1-.35-.83c-2.22-6.52-7.48-1.82-11.09-1.07,0,0-33.71,12.84-34.69,13.28-12.47,5.55-18.82,10.5-20.56,16.54a32.28,32.28,0,0,0-17.52,2.11c-3.57-5.17-11-8.82-24-12.16-1.07-.28-37.51-7.68-37.51-7.68-3.73-.19-10.14-4-10.58,2.74a5.2,5.2,0,0,1-.12.87,55.84,55.84,0,0,0-1.18,6.21c-1,15.72,13.37,27.75,44.86,31.82l12.27.62a26.43,26.43,0,0,0,6.6-.47c7.29-1.51,11.69-4.58,12.16-10l0-.12a19.78,19.78,0,0,0-.91-8.71,31.45,31.45,0,0,1,15.39-1.33,22.13,22.13,0,0,0,1.5,7.12l0,.12c1.9,5.2,7,7.54,14.57,7.89a25.84,25.84,0,0,0,6.58-.55l11.86-2.49C1333.53,241.56,1344.41,227.57,1339.23,212.33Z"/><path class="cls-7" d="M1223.52,281.63s43.93,11.09,63.5,3.85-20.53,18.31-48.72,13.62C1221.79,296.35,1225.42,285.6,1223.52,281.63Z"/><path class="cls-6" d="M1245.73,300a46.08,46.08,0,0,1-7.49-.59c-13-2.16-13.78-9.36-14.32-14.12a12.17,12.17,0,0,0-.71-3.54l-.32-.66.71.18c.44.11,44.06,11,63.3,3.86,4.9-1.81,5.33-1.32,5.53-1.08a.59.59,0,0,1,0,.74C1290.85,287.62,1266.82,300,1245.73,300Zm-21.65-17.9a16.56,16.56,0,0,1,.53,3.11c.55,4.83,1.3,11.45,13.74,13.52,22.93,3.81,52-12,53.47-14.23-.32,0-1.37.06-4.68,1.28C1269,292.52,1229.61,283.46,1224.08,282.13Z"/><path class="cls-6" d="M1280.31,278.06c-.91,0-1.44-.05-1.54-.06a2.77,2.77,0,0,1,.53-5.51c.09,0,9.69.76,21.21-6.2a3,3,0,0,0,.64-.48c-.29-.68-2.46-4.06-18.58-10.43-9.49-3.75-18.94-6.58-19-6.61a2.77,2.77,0,0,1,1.58-5.3c.1,0,9.88,3,19.65,6.83,18.68,7.39,21.52,11.86,21.91,14.93.17,1.32,0,3.83-3.31,5.8C1292.89,277.36,1283.81,278.06,1280.31,278.06Zm20.88-12.13h0Z"/><path class="cls-6" d="M1248.75,292.35l-.14-.68c-3.77.8-8.33-.16-11.71-1.2a6.89,6.89,0,0,1,.46-2.11l-.64-.27a7.58,7.58,0,0,0-.5,2.17,42,42,0,0,1-4.14-1.57l-.29.62a41.33,41.33,0,0,0,4.41,1.68,5.25,5.25,0,0,0,.53,2.26l.62-.31a4.43,4.43,0,0,1-.44-1.73,30.59,30.59,0,0,0,8.61,1.45A15.66,15.66,0,0,0,1248.75,292.35Z"/><path class="cls-3" d="M1144.93,282c-3.09-1.79-7.18-2.09-10.14-.08-1.59,1.08-40.4,25.53-52.76,82-7,3.08-16.68,8.89-21.79,18.88-8.66,16.92,17.71-4.92,17.71-4.92s-12.79,25.38-8.27,30.69,17.71-25.38,17.71-25.38-4.92,26.17-.39,30.3,9.25-29.31,9.25-29.31,2.36,26,7.87,24.79c3.92-.84,0-26.57,0-26.57s9.44,15,14.75,11.42c4.71-3.14-9.57-23.41-16-29.64,11.91-44.53,46.11-68.33,46.11-68.33C1153,290,1148.76,284.23,1144.93,282Z"/><path class="cls-6" d="M1233.86,188.89a2.39,2.39,0,0,1-1.34-.41c-3.57-2.33-30.29-16.53-43.65-11A2.42,2.42,0,1,1,1187,173c17.11-7,47.89,11.29,48.18,11.48a2.42,2.42,0,0,1-1.35,4.44Z"/><path class="cls-8" d="M157.32,423.38c42-31,119.28,14.89,119.28,14.89S128.5,335.36,179.09,314.42c38.74-16,89.9,25.41,111.76,45.71-17.33-17.56-49-52.24-41.79-64,9.86-16,33.94-11.42,72.44,15.28s84.74,158.72,83.66,185S330,544.21,285,518.9,115.35,454.4,157.32,423.38Z"/><path class="cls-9" d="M181.32,437.66c.59.18,59.53,17.65,81.8,27.3C281,472.7,354.35,506.55,383,519.78c-1.3.61-2.66,1.21-4.05,1.78-30.27-14-99.84-46.06-117.13-53.55-22.08-9.58-80.83-27-81.42-27.17a1.66,1.66,0,1,1,.94-3.18Z"/><path class="cls-9" d="M392.75,514.2c-.95.66-1.93,1.3-3,1.93-4.6-19.79-15.6-62.76-31.1-94.72-20.69-42.66-72.59-105-73.11-105.68a1.66,1.66,0,1,1,2.55-2.13c.52.63,52.68,63.33,73.54,106.36C377,451.57,388,493.78,392.75,514.2Z"/><path class="cls-9" d="M303.35,407.4c28.74,24.91,70.4,85.87,85.82,109.11-.94.55-1.9,1.09-2.9,1.62-15.45-23.28-56.73-83.64-85.1-108.22-35.42-30.69-110.22-80.23-111-80.73a1.66,1.66,0,1,1,1.83-2.76C192.79,326.91,267.76,376.57,303.35,407.4Z"/><path class="cls-10" d="M10.54,477.78s31.3-131.57,60.61-172.23,51.59-32.53,49.28-11.17S76.05,393.53,80.7,403.5,154,260.9,200.47,284.39s-86.92,137.27-74.56,152.76,48.44-53.89,87.8-47.12S162.8,487.37,145.94,508.6s-79.79,13.85-111.43,1.9S10.54,477.78,10.54,477.78Z"/><path class="cls-8" d="M106.62,421c21.94-32.14,67.32-96.94,79.68-111.65,5.5-6.54,12.13-14.85,18.15-22.4a20.65,20.65,0,0,0-3.77-2.47c-5.93,7.45-12.43,15.58-17.81,22-12.46,14.83-58,79.8-79.95,112-3.87,5.67-8.64,12.89-14.15,21.25C78,456.07,64.58,476.39,53.08,492.2c-6.17,8.48-11.33,15-15.34,19.47,1.5.51,3,1,4.65,1.51,3.67-4.21,8.35-10.13,14.38-18.43,11.55-15.88,25-36.21,35.74-52.54C98,433.87,102.78,426.66,106.62,421Z"/><path class="cls-8" d="M30.52,499.38c1.73-10.71,4.89-24.91,9.15-41.06,9-34.25,21.18-71,32.52-98.28a713.68,713.68,0,0,1,40.62-82.56,12.53,12.53,0,0,0-4.73-.78,720.33,720.33,0,0,0-40,81.62c-11.42,27.47-23.65,64.42-32.72,98.85-4.29,16.3-7.49,30.64-9.24,41.5-.45,2.79-.78,5.24-1,7.38,1.32.78,2.74,1.53,4.28,2.26C29.57,505.9,30,503,30.52,499.38Z"/><path class="cls-8" d="M96,522c1.93.06,3.84.08,5.74.08,23.45-28.61,64-75.27,80.46-89.58,13.48-11.74,28.13-25.83,35.67-33.18l4.35-4.27a8.86,8.86,0,0,0-3.18-3.17c-10.85,10.7-26.3,25.49-39.79,37.24C161.57,444.52,119.15,493.51,96,522Z"/></g></g></svg>