<svg xmlns="http://www.w3.org/2000/svg" viewBox="0 0 1383.68 490.46"><defs><style>.cls-1{fill:#fccb90;}.cls-2{fill:#647587;}.cls-3{fill:#683b11;}.cls-4{fill:#f4b573;}.cls-5{fill:#1d1d1b;}.cls-6{fill:#e6266f;}.cls-7{fill:#46825e;}.cls-8{fill:#445e44;}</style></defs><title>Asset 4</title><g id="Layer_2" data-name="Layer 2"><g id="Layer_1-2" data-name="Layer 1"><path class="cls-1" d="M238.19,0h1118.7V490.4H238.19C106.64,490.4,0,380.62,0,245.2S106.64,0,238.19,0Z"/><circle class="cls-2" cx="250.2" cy="245.2" r="222.67"/><path class="cls-3" d="M461.31,241.77c-.83-11.7-6.59-23.24-12.48-32.48-8.27-13-18.78-22.21-33.47-27.24-7.93-2.71-16.38-2.29-25.22-1.67a51.55,51.55,0,0,0,12.69-9,67.89,67.89,0,0,0,13.75-19c5.87-12,6.21-24.8,4.82-37.2-1.3-11.66-4-23-10.85-32.57a67.75,67.75,0,0,0-25.41-21.34c-10.55-5.14-23.42-5.91-34.37-5.44-15.4.66-28.62,5.16-40.32,15.37-6.32,5.51-10.17,13-14.06,21A51.66,51.66,0,0,0,295,76.72a67.88,67.88,0,0,0-9.61-21.42c-7.5-11.11-18.38-17.79-29.81-22.78-10.75-4.7-21.91-8.08-33.63-6.89A67.9,67.9,0,0,0,190.73,37C181,43.53,173.9,54.29,168.84,64c-7.13,13.67-9.85,27.37-6.86,42.6,1.62,8.23,6.21,15.33,11.17,22.69A51.44,51.44,0,0,0,159,122.79a67.86,67.86,0,0,0-23.36-2.39c-13.37.94-24.59,7-34.64,14.42-9.44,7-18,14.94-22.78,25.68a67.86,67.86,0,0,0-5.78,32.68c.83,11.71,6.59,23.24,12.48,32.49,8.28,13,18.78,22.2,33.47,27.23,7.94,2.72,16.38,2.29,25.23,1.67a51.6,51.6,0,0,0-12.7,9,68.09,68.09,0,0,0-13.75,19c-5.86,12-6.21,24.8-4.82,37.2,1.31,11.66,4,23,10.85,32.57a67.94,67.94,0,0,0,25.41,21.35c10.55,5.13,23.42,5.91,34.37,5.43,15.4-.66,28.62-5.16,40.32-15.37,6.32-5.51,10.17-13,14.06-21a51.63,51.63,0,0,0,1.42,15.48,68.15,68.15,0,0,0,9.61,21.43c7.5,11.1,18.38,17.78,29.81,22.77,10.75,4.7,21.92,8.08,33.63,6.89A67.82,67.82,0,0,0,343.07,398c9.72-6.57,16.82-17.33,21.89-27.05,7.12-13.67,9.84-27.37,6.85-42.6-1.62-8.23-6.21-15.33-11.17-22.68a51.74,51.74,0,0,0,14.11,6.51,68.14,68.14,0,0,0,23.37,2.39c13.36-.95,24.59-7,34.63-14.43,9.44-7,17.95-14.94,22.78-25.68A67.86,67.86,0,0,0,461.31,241.77Zm-136,9.59c.74,10.52,4.5,19.76,9.82,28-9.39-6.05-17.62-7.25-26.86-7.88-6.53-.44-11.93,2.06-18.42,3.53a68,68,0,0,0-23.1,10c-8.74,5.91-14.87,13.78-19.34,22.51.54-11.16-2.53-18.89-6.61-27.21-2.88-5.87-7.75-9.29-12.26-14.18a68,68,0,0,0-20.23-15c-9.48-4.62-19.36-6-29.15-5.5,9.93-5.11,15.09-11.63,20.25-19.32,3.65-5.43,4.18-11.36,6.15-17.71a67.78,67.78,0,0,0,2.88-25c-.74-10.52-4.5-19.76-9.82-28,9.4,6,17.63,7.25,26.87,7.88,6.52.44,11.92-2.06,18.41-3.53a67.9,67.9,0,0,0,23.11-10c8.73-5.9,14.86-13.78,19.33-22.51-.54,11.16,2.54,18.89,6.61,27.21,2.88,5.87,7.75,9.3,12.26,14.18a68.16,68.16,0,0,0,20.23,15c9.48,4.61,19.36,6,29.16,5.49-9.94,5.11-15.09,11.64-20.26,19.32-3.65,5.43-4.18,11.37-6.15,17.71A68.21,68.21,0,0,0,325.33,251.36Z"/><path class="cls-4" d="M381.06,217.47a5.15,5.15,0,0,0-5.64-4.59c-20.75,2.13-36.55-2-46.95-12.14-13.53-13.24-14.49-33.57-14.42-40.21,4.33-3.85,14.83-18.23,11.55-20.47-3.61-2.47-10.21,7.71-10.21,7.71s2.9-17.61.22-18.22c-3.77-.86-5.6,16.94-5.6,16.94s-3-23-6.1-20.19,0,20.79,0,20.79-8.79-21.16-11.94-17.56,5.41,21.12,5.41,21.12-17.9-15.19-12.1-3.52c4.44,8.94,14.14,13.11,18.46,14.58,0,8.91,1.78,29.94,16.35,45.19.36.38.73.75,1.1,1.12,12.69,12.47,31.28,17.54,55.26,15.08A5.14,5.14,0,0,0,381.06,217.47Z"/><path class="cls-4" d="M272.45,147.46s14.47-13,12.89-17.47-17.61,11.76-17.61,11.76,9.62-15.43,7.75-19.18-13.17,16.36-13.17,16.36,4.92-17.1,1.1-17.72c-2.71-.43-6.57,16.9-6.57,16.9s-2.34-11.85-6.61-10.91c-4,.87.8,19.09,3.33,23.63-1.26,5.76-6.33,24.31-20.8,33.25-9.6,5.93-21.82,6.62-36.32,2.07a5.11,5.11,0,1,0-3.08,9.75,79.16,79.16,0,0,0,10.52,2.57c13.1,2.22,24.63.3,34.38-5.74,16.21-10.06,22.61-28.67,24.8-37.39,4.84.18,14.81-.31,21.93-6.62C294.72,140.1,272.45,147.46,272.45,147.46Z"/><path class="cls-4" d="M190.4,357.14a5.68,5.68,0,0,0-7.93,1.3c-1.1,1.54-24.81,35-25.18,71.15-1.12-.53-2.31-1.1-3.55-1.72-10.66-5.32-16.18-2-19.21,4.32-1.85,3.86,2.93,12.64,13.17,15.76,17.24,5.25,21.46,1.25,21.71-4.81a13,13,0,0,0-.27-3.36,5.44,5.44,0,0,0,0-1.21c-4.37-35.42,22.3-73.12,22.57-73.5A5.68,5.68,0,0,0,190.4,357.14Z"/><path class="cls-4" d="M312.06,448.25a12.09,12.09,0,0,0-2-2.45,5.75,5.75,0,0,0-.82-1.17c-22.4-24.66-20.32-67.57-20.3-68.12a5.68,5.68,0,0,0-11.34-.65c-.1,1.78-2,40.28,17,68.48-1.21.18-2.49.38-3.85.56C279,446.52,276.12,452,277,458.52c.52,4,9.23,8.15,19.47,5.07C313.71,458.39,315.1,453.05,312.06,448.25Z"/><path class="cls-5" d="M265.08,99.2a6.78,6.78,0,0,0-6.74,2.86,3.35,3.35,0,0,1-1.54,0,2.29,2.29,0,0,1-1.41-1.26,5.64,5.64,0,0,1-.53-2.31,6,6,0,0,0-.38,2.55,3.78,3.78,0,0,0,1.33,2.64,4.9,4.9,0,0,0,1.49.8l-.06.26a6.8,6.8,0,1,0,7.84-5.56Z"/><path class="cls-5" d="M311.52,101.85a5.47,5.47,0,0,1-1.38,1.92,2.33,2.33,0,0,1-1.79.63,3.4,3.4,0,0,1-1.41-.62,6.79,6.79,0,1,0,0,2.92c0-.09,0-.18,0-.27a4.62,4.62,0,0,0,1.68-.16,3.78,3.78,0,0,0,2.25-1.92A6,6,0,0,0,311.52,101.85Z"/><path class="cls-5" d="M272.8,120.49c-2.88-.49-3-1.21-3.1-1.8-.25-1.44,1.44-2,2.08-2.26,4.17-1.48,6.89-8.2,7.58-10.66a1.29,1.29,0,0,1,2.48.69c-.11.38-2.46,8.51-7.61,11.63,2.12.22,5.26.37,8,.38a1.29,1.29,0,0,1,1.28,1.3,1.27,1.27,0,0,1-1.29,1.27A63.34,63.34,0,0,1,272.8,120.49Z"/><path class="cls-6" d="M349.19,79.56c-3.23.11-12.47,2.69-12.47,2.69s-6.21-9.13-8.66-11.25a1,1,0,0,0-1.84.65,12.93,12.93,0,0,1-1.62,5.06c-1.64,3.51-6.3,7.3.71,7.44,2.91,0,10.88-.82,10.88-.82s3.53,5.91,5.63,7.61c7.37,5.92,5.49,1,7-3.66,1.35-4.2,1.5-3.41,2.35-5.7C351.52,80.63,351.12,79.49,349.19,79.56Z"/><path class="cls-7" d="M1206.73,235.23c-50.1-4.24,28.79,113.33,28.79,113.33S1140.22,214,1092.19,231.72s46.5,141.37,46.5,141.37-77.91-59.29-115.94-29.32,83.45,129.18,128.56,136,215.52,15.9,231.17,7S1256.83,239.47,1206.73,235.23Z"/><path class="cls-8" d="M1309.34,490.15c-2.11-11.4-6.73-30-15.79-58.52-12.71-40.14-28.66-82.3-40.62-107.41-19.64-41.25-44.07-73.68-55.58-87.91a17,17,0,0,1,6.05-1.18c12.3,15.45,35.57,47.08,54.46,86.74,12.18,25.58,28.35,68.38,41.19,109.05,6.28,19.89,11.15,37.33,14.06,50.43.75,3.38,1.34,6.33,1.8,8.92Z"/><path class="cls-8" d="M1116.25,412.81c-17.73-11.44-72.31-43.83-99.84-60.11a17.39,17.39,0,0,1,2.45-4.89c27.46,16.24,82.48,48.89,100.35,60.41,20.14,13,118.89,60.42,149.9,75.23-11.64-16.79-37.83-55.24-55.06-85.84-17.1-30.34-95-118.31-131.43-158.84a18,18,0,0,1,3.82-3.94c36.49,40.52,114.73,128.81,132.36,160.1,21.47,38.11,57,88.58,60.43,93.47l1.26.86-13-.54C1237.05,474.2,1137.11,426.26,1116.25,412.81Z"/></g></g></svg>