<svg xmlns="http://www.w3.org/2000/svg" viewBox="0 0 1435.79 496.28"><defs><style>.cls-1{fill:#f6aa81;}.cls-2{fill:#5a3c5a;}.cls-3{fill:#ec7eaf;}.cls-4{fill:#e73958;}.cls-5{fill:#fff197;}.cls-6{fill:#f4b573;}.cls-7{fill:#1b1700;}.cls-8{fill:#1d1d1b;}.cls-9{fill:#f3ab70;}.cls-10{fill:#4a704a;}.cls-11{fill:#445e44;}</style></defs><title>Asset 2</title><g id="Layer_2" data-name="Layer 2"><g id="Layer_1-2" data-name="Layer 1"><path class="cls-1" d="M236.2,0H1403.49V490.4H236.2C105.75,490.4,0,380.62,0,245.2S105.75,0,236.2,0Z"/><circle class="cls-2" cx="246.2" cy="245.2" r="222.67"/><path class="cls-3" d="M398.63,266c-9.31,30.05-29.32,56.67-53.33,77.48C331,355.87,314,371.33,303.86,378.8c-9.28,6.82-21,11-29.82,15.91-11.58,6.41-30.23,11.66-42.71,8.66s-23.5-9.58-30.25-13.32c-11.31-6.27-15.52-10.67-29-20.24-40.34-28.73-80.58-73.45-86-119.89C79,188.46,95.78,110.65,160.35,107.44c68.45-3.41,64.75,40.31,81.18,55,22.36-18.16,25.93-55.64,89.72-55.64C389,106.8,415.69,211,398.63,266Z"/><rect class="cls-4" x="100.43" y="240.7" width="26.81" height="4.2" transform="translate(-118.63 109.12) rotate(-34.98)"/><rect class="cls-4" x="316.11" y="327" width="4.2" height="20.47" transform="translate(-20.81 20.93) rotate(-3.65)"/><rect class="cls-5" x="346.53" y="266.01" width="4.2" height="21.64" transform="translate(-72.61 420.83) rotate(-57.32)"/><rect class="cls-5" x="119.95" y="146.07" width="26.81" height="4.2" transform="matrix(0.82, -0.57, 0.57, 0.82, -60.85, 103.21)"/><rect class="cls-5" x="354.6" y="202.58" width="23.26" height="4.2" transform="translate(-27.17 350.48) rotate(-49.54)"/><rect class="cls-5" x="191.62" y="175.79" width="4.2" height="26.81" transform="translate(-44.89 317.21) rotate(-72.53)"/><rect class="cls-5" x="136.7" y="280.73" width="4.2" height="19.71" transform="translate(-126.69 108.33) rotate(-30)"/><rect class="cls-4" x="325.66" y="134.76" width="4.2" height="26.81" transform="translate(-14.79 257.88) rotate(-42.08)"/><path class="cls-6" d="M212.24,377.3a5.71,5.71,0,0,0-8.05-.53c-1.42,1.25-32.18,28.56-40.74,63.82-1-.78-2-1.61-3.08-2.5-9.21-7.62-15.36-5.64-19.76-.14-2.68,3.35,0,13,9.29,18.39,15.66,9,20.69,6.09,22.31.22a13.2,13.2,0,0,0,.5-3.34A5.06,5.06,0,0,0,173,452c3.77-35.6,38.39-66.39,38.74-66.7A5.71,5.71,0,0,0,212.24,377.3Z"/><path class="cls-6" d="M287.13,453.21c-1.37.15-2.66.27-3.89.38,11.74-32.07.55-69.07,0-70.78a5.7,5.7,0,1,0-10.89,3.37c.16.53,12.56,41.81-3.3,71.23a5.54,5.54,0,0,0-.49,1.34,12.16,12.16,0,0,0-1.38,2.87c-1.8,5.41.85,10.27,18.9,11.15,10.72.53,18.19-5.66,17.74-9.64C303.1,456.6,299,451.93,287.13,453.21Z"/><path class="cls-7" d="M215.12,288.4a3.15,3.15,0,0,0,.11-.44,4.27,4.27,0,0,0,0-.44,2.85,2.85,0,0,0,0-.31,4.75,4.75,0,0,0-.06-.57,10.35,10.35,0,0,0-.24-1,8.94,8.94,0,0,0-.82-1.83,9.13,9.13,0,0,0-2.5-2.66,14.27,14.27,0,0,0-5.83-2.34,27.07,27.07,0,0,0-2.9-.37,17.12,17.12,0,0,1-2.59-.44,16.48,16.48,0,0,1-5.1-1.91,10.71,10.71,0,0,0,2.16,1.8,27,27,0,0,0,2.44,1.45,18.36,18.36,0,0,0,2.68,1.2l1,.35a7.29,7.29,0,0,0-4.06,3.7c-1.79,3.82.14,8.51,4.3,10.46s9,.43,10.79-3.39A7.07,7.07,0,0,0,215.12,288.4Z"/><path class="cls-7" d="M280.22,277.18a16,16,0,0,1-2.58.47,26.84,26.84,0,0,0-2.89.42,14.37,14.37,0,0,0-5.8,2.42,8.94,8.94,0,0,0-2.45,2.71,8,8,0,0,0-.79,1.84,6.72,6.72,0,0,0-.23,1c0,.18,0,.38-.06.57a3.11,3.11,0,0,0,0,.32,2.92,2.92,0,0,0,0,.44,2.11,2.11,0,0,0,.12.43,7,7,0,0,0,.7,3.22c1.85,3.8,6.71,5.24,10.84,3.22s6-6.72,4.14-10.52a7.26,7.26,0,0,0-4.11-3.63l.95-.38a16.76,16.76,0,0,0,2.66-1.24,23.69,23.69,0,0,0,2.42-1.48,10.72,10.72,0,0,0,2.13-1.84A16.42,16.42,0,0,1,280.22,277.18Z"/><path class="cls-7" d="M245,297.17a1.05,1.05,0,0,1-1-.65c-1.54-3.78-2.55-3.81-2.7-3.84-.75,0-1.83,2-2.33,3.73a1,1,0,0,1-1.29.72,1,1,0,0,1-.72-1.3c.24-.85,1.59-5.1,4.23-5.24,2.35-.15,3.83,2.87,4.75,5.13a1.05,1.05,0,0,1-.57,1.37A1,1,0,0,1,245,297.17Z"/><path class="cls-8" d="M256.52,307.46a4.41,4.41,0,0,1,.71-.08,4.21,4.21,0,0,1,3.42,1.5,1,1,0,0,1-.09,1.48,1.06,1.06,0,0,1-1.49-.1,2.08,2.08,0,0,0-1.76-.78c-3.19.13-8,5.52-9.52,7.59a1,1,0,1,1-1.68-1.26C246.72,315,251.9,308.27,256.52,307.46Z"/><path class="cls-8" d="M266.47,243.32a.54.54,0,0,1-.34-.12.52.52,0,0,1-.06-.74,15.65,15.65,0,0,1,10.1-5,.54.54,0,0,1,.56.49.52.52,0,0,1-.49.55,14.76,14.76,0,0,0-9.37,4.62A.53.53,0,0,1,266.47,243.32Z"/><path class="cls-8" d="M216.88,243.32a.55.55,0,0,1-.4-.18,14.83,14.83,0,0,0-9.37-4.62.52.52,0,0,1,.07-1,15.65,15.65,0,0,1,10.1,5,.52.52,0,0,1-.4.86Z"/><path class="cls-9" d="M286.21,341.44c-.44-3.2-14.9.6-14.9.6s17.1-9.08,14-10.71-16.25,6.13-16.25,6.13,14-13.1,10.21-14.5-14.92,10.45-14.92,10.45,6.61-18.48-.82-10.5c-4.55,4.88-5.71,11.51-5.94,15.92-6.2,1.9-21.33,6.36-30.93,7.57-13.15,1.67-31.31-8.64-45.66-17.8a5.77,5.77,0,1,0-6.21,9.72c15.51,9.92,33.23,19.8,49,19.8a33.15,33.15,0,0,0,4.36-.27c11.16-1.41,28.09-6.49,33.85-8.29,4.74,2.28,18.22,5.91,19,2.79.87-3.55-9-5.72-9-5.72S286.52,343.72,286.21,341.44Z"/><path class="cls-6" d="M308.58,334.79A5.78,5.78,0,0,0,300.9,332c-22.64,10.57-35,5.8-43.22,2.64a29,29,0,0,0-6.92-2.07,87.84,87.84,0,0,0-25.14.74,5.82,5.82,0,0,0-1.45.52,7,7,0,0,0-.51-.58c-2.08-2.06-19.22-8-20.24-4.48s8.8,6.09,8.8,6.09-14.74,2.31-14.52,4.6c.31,3.22,14.91,0,14.91,0s-17.46,8.37-14.42,10.13,16.49-5.46,16.49-5.46-14.49,12.52-10.81,14.08,15.35-9.84,15.35-9.84-7.37,18.2.38,10.53c4.25-4.2,5.85-9.92,6.43-14.23a5.92,5.92,0,0,0,1.92-.06,76.41,76.41,0,0,1,21.5-.58,26.26,26.26,0,0,1,4.07,1.37c4.83,1.86,12,4.6,21.86,4.6,8.15,0,18.19-1.85,30.41-7.55A5.79,5.79,0,0,0,308.58,334.79Z"/><text></text><g id="_Group_" data-name="&lt;Group&gt;"><g id="_Group_2" data-name="&lt;Group&gt;"><path class="cls-10" d="M1432.62,416.42a161.83,161.83,0,0,0,.07-63.36c-7-34.71-26.33-84.34-79.67-117.74-89.62-56.11-129.36-56.89-162.09-22.6s-46.75,91.17-53,144.94,39.74,118.45,72.47,128.58,152.11,14,183.9,5C1415.59,485.22,1427.24,443.41,1432.62,416.42Z"/></g><g id="_Group_3" data-name="&lt;Group&gt;"><path class="cls-11" d="M1137.38,367.42q0-2.9.21-5.76a452.8,452.8,0,0,0,40.53,28.43c32.74,20.28,81.33,43.75,128.61,41.82-2.49-7.44-4.51-13.84-5.74-18.37-3.18-11.75-12.82-40.87-23.21-71.32-44.83-11.78-76.92-37.59-96-57.27a229,229,0,0,1-20.73-24.57c.71-1.69,1.43-3.37,2.18-5a223.65,223.65,0,0,0,22,26.45c18.22,18.77,48.56,43.25,90.72,55.08-10.72-31.33-21.9-63.09-27.38-78-8.47-23-20.19-54.43-24.91-67.1,1.5-.41,3-.77,4.59-1.07,4.85,13,16.36,43.9,24.71,66.55,5.72,15.54,17.65,49.48,28.81,82.16a.76.76,0,0,0,0,.11c3.46,10.14,6.84,20.15,10,29.46,25-29.71,29-74.29,27.9-107a346.66,346.66,0,0,0-5.43-49.17q2.58,1.35,5.24,2.79a350.24,350.24,0,0,1,4.86,46.13c.77,22-.91,42.08-5,59.61-5,21.51-13.73,39.25-25.85,52.78,5.58,16.85,10,30.84,12,38.15,4,14.66,16.45,49.24,26.12,75.56,38.61-41.77,57.14-97,65.91-136.41a432.58,432.58,0,0,0,9.22-63.43q2.19,3.39,4.17,6.8a440.73,440.73,0,0,1-8.8,57.53,365.55,365.55,0,0,1-23.61,71.91c-12.17,26.71-27.33,49.75-45.08,68.51.43,1.18.86,2.33,1.28,3.46q-2.48,0-5,0c-6.57-17.82-15.13-41.27-21.44-59.76q-3.54.18-7.15.18c-19.43,0-40.38-3.92-62.41-11.7-20.28-7.16-41.53-17.58-63.15-31A452.36,452.36,0,0,1,1137.38,367.42Z"/></g></g></g></g></svg>