<svg xmlns="http://www.w3.org/2000/svg" xmlns:xlink="http://www.w3.org/1999/xlink" width="1920" height="591.388" viewBox="0 0 1920 591.388">
  <defs>
    <clipPath id="clip-path">
      <path id="패스_7343" data-name="패스 7343" d="M1741.542,244.509c28.811,1.245,57.458-5.562,78.438-7.04-11.093-2.43-23.623-5.459-33.622-8.641a1.124,1.124,0,0,1-.492-1.827c2.318-2.568,4.441-5.175,5.3-9.433a3.461,3.461,0,0,0-1.415-3.513c-4.088-2.853-13.969-9.494-14-11.848-.2-17.768-19.649-120.648-18.774-121.852,1.116-1.537,12.727,7.846,20.283,7.285,0,0-22.052-29-35.036-32.658-5.095-1.433-83.808,108.758-91.636,119.737-.38.535-1.263,1.032-4.1,1.76-5.723,1.464-13.513-.521-8.155,9.307.547,1,.905,1.56-.207,1.837-1.4.349-4.671.783-5.968,1.744-1.543,1.143,1,5.241-1.846,7.531-7.66,6.166-17.9,7.559-27.462,7.01a194.614,194.614,0,0,1,18.728,7.931C1679.164,239.585,1699.26,242.68,1741.542,244.509Z" fill="none"/>
    </clipPath>
  </defs>
  <g id="그룹_6402" data-name="그룹 6402" transform="translate(0 -25.864)">
    <g id="Layer_8" data-name="Layer 8">
      <g id="그룹_6253" data-name="그룹 6253">
        <g id="그룹_6213" data-name="그룹 6213">
          <path id="패스_7318" data-name="패스 7318" d="M1851.065,238.78c-5.867-3.033-14.227-3.434-24.29-2.627-21.524,1.725-50.865,9-80.455,8-43.424-1.458-64.085-4.436-123.482-32.349a199.662,199.662,0,0,0-19.305-7.956,98.51,98.51,0,0,1-27.983-5.944h-.064c-24.262-.831-28.457,14.049-28.457,14.049-27.6,57.361,129.765,63.847,148.95,68.186s122.529,15.507,140.759,5.1C1858.187,272.989,1869.6,248.359,1851.065,238.78Z" fill="#260a23"/>
        </g>
        <g id="그룹_6219" data-name="그룹 6219">
          <g id="그룹_6214" data-name="그룹 6214">
            <path id="패스_7319" data-name="패스 7319" d="M1617.336,276.925c-1.918,4.289,4.27,11.229,4.27,11.229s9.3-.013,11.217-4.3-4.27-11.229-4.27-11.229S1619.254,272.637,1617.336,276.925Z" fill="#683b11"/>
          </g>
          <g id="그룹_6215" data-name="그룹 6215">
            <path id="패스_7320" data-name="패스 7320" d="M1612.742,287.995c-2.262,3.2,1.69,9.887,1.69,9.887s7.62,1.487,9.883-1.718-1.69-9.887-1.69-9.887S1615,284.79,1612.742,287.995Z" fill="#683b11"/>
          </g>
          <g id="그룹_6216" data-name="그룹 6216">
            <path id="패스_7321" data-name="패스 7321" d="M1607.521,294.89c-2.508,1.986-.954,8.126-.954,8.126s5.62,2.918,8.129.932.954-8.127.954-8.127S1610.03,292.9,1607.521,294.89Z" fill="#683b11"/>
          </g>
          <g id="그룹_6217" data-name="그룹 6217">
            <path id="패스_7322" data-name="패스 7322" d="M1599.026,302.055a58.987,58.987,0,0,1-6.046,1.457s6.1,5.582,6.995,9.515c1.236,5.428-1.287,5.2,5.3-2.713,1.836-2.2,1.018-7.262,1.018-7.262S1602.017,301.149,1599.026,302.055Z" fill="#683b11"/>
          </g>
          <g id="그룹_6218" data-name="그룹 6218">
            <path id="패스_7323" data-name="패스 7323" d="M1612.735,304.8a46.1,46.1,0,0,0-6.145-1.93,51.708,51.708,0,0,0-.993-7.1.522.522,0,0,0-.969-.176,6.571,6.571,0,0,1-1.975,1.818c-1.6,1.131-4.591,1.63-1.544,3.44,1.261.75,4.978,2.361,4.978,2.361a21.145,21.145,0,0,0,.574,4.745c1.754,4.44,2.147,1.83,3.986.139a22.963,22.963,0,0,1,2.452-1.913C1613.492,305.853,1613.6,305.253,1612.735,304.8Z" fill="#e8530e"/>
          </g>
        </g>
        <g id="그룹_6225" data-name="그룹 6225">
          <g id="그룹_6220" data-name="그룹 6220">
            <path id="패스_7324" data-name="패스 7324" d="M1789.76,287.841c1.55,4.434-5.2,10.829-5.2,10.829s-9.265-.8-10.815-5.23,5.2-10.831,5.2-10.831S1788.209,283.406,1789.76,287.841Z" fill="#683b11"/>
          </g>
          <g id="그룹_6221" data-name="그룹 6221">
            <path id="패스_7325" data-name="패스 7325" d="M1793.405,299.257c1.985,3.383-2.516,9.71-2.516,9.71s-7.718.84-9.7-2.543,2.515-9.711,2.515-9.711S1791.421,295.874,1793.405,299.257Z" fill="#683b11"/>
          </g>
          <g id="그룹_6222" data-name="그룹 6222">
            <path id="패스_7326" data-name="패스 7326" d="M1798.027,306.567c2.332,2.191.267,8.178.267,8.178s-5.846,2.435-8.178.244-.268-8.178-.268-8.178S1795.695,304.377,1798.027,306.567Z" fill="#683b11"/>
          </g>
          <g id="그룹_6223" data-name="그룹 6223">
            <path id="패스_7327" data-name="패스 7327" d="M1805.889,314.422a58.838,58.838,0,0,0,5.9,1.961s-6.547,5.049-7.771,8.893c-1.689,5.3.844,5.285-5.052-3.15-1.643-2.35-.4-7.322-.4-7.322S1802.985,313.268,1805.889,314.422Z" fill="#683b11"/>
          </g>
          <g id="그룹_6224" data-name="그룹 6224">
            <path id="패스_7328" data-name="패스 7328" d="M1792,316a46.04,46.04,0,0,1,6.285-1.406,51.857,51.857,0,0,1,1.587-6.992.523.523,0,0,1,.982-.094,6.544,6.544,0,0,0,1.813,1.978c1.5,1.262,4.438,2.011,1.25,3.559-1.32.641-5.159,1.933-5.159,1.933a21.155,21.155,0,0,1-.971,4.68c-2.122,4.277-2.294,1.642-3.984-.2a22.689,22.689,0,0,0-2.283-2.111C1791.155,316.989,1791.1,316.382,1792,316Z" fill="#e8530e"/>
          </g>
        </g>
        <g id="그룹_6238" data-name="그룹 6238">
          <g id="그룹_6228" data-name="그룹 6228">
            <g id="그룹_6226" data-name="그룹 6226">
              <path id="패스_7329" data-name="패스 7329" d="M1783.438,266.482c-.827,7.494-.975,8.438-2.121,16.4q-.055.381-.107.793c-1.084,7.592-1.189,10.88-1.851,17.043,0,.011-1.329,14.156-1.329,14.156a15.835,15.835,0,0,1-3.548,2.4c-13.489,2.521-9.81,14.906-25.305,16.245-27.017,2.333-63.415,1.382-92.741-6.8-3.485-.972-10.089-14.178-13.155-15.844-4.213-2.294-7.226.539-10.881-2.3-.658-3.508-2.41-12.647-3.182-16.6-.858-4.425-3.023-13.056-4.133-19.2-.055-.252-.1-.495-.133-.729-1.651-9.491-1.955-13.06-1.99-18.274-.086-12.087-.758-15.925,2.591-24.457,8.647-21.965,30.811-42.846,70.622-41.017,47.988,2.2,74.863,4.274,85.661,40.521C1787.109,246.471,1784.124,260.191,1783.438,266.482Z" fill="#f9d5cd"/>
            </g>
            <g id="그룹_6227" data-name="그룹 6227">
              <path id="패스_7330" data-name="패스 7330" d="M1784,223.423c-9.48-22.4-32.882-35.668-49.523-35.892l-59.841-.8c-16.557-.222-40.107,15.217-50.187,37.162-6.516,14.186-6.374,47.32-3.888,49.422,2.42,2.046,58.614-19.906,103.43-13.6a3.9,3.9,0,0,0,4.358-3.232,304.771,304.771,0,0,0,4.069-39.186,428.033,428.033,0,0,1,5.285,45.142c16.194,4.015,44.938,23.3,48.706,21.825S1790.958,239.869,1784,223.423Z" fill="#683b11"/>
            </g>
          </g>
          <g id="그룹_6237" data-name="그룹 6237">
            <g id="그룹_6230" data-name="그룹 6230">
              <g id="그룹_6229" data-name="그룹 6229">
                <path id="패스_7331" data-name="패스 7331" d="M1704.128,297.3a9.87,9.87,0,0,1-1.341-.1.342.342,0,0,1,.116-.674c.273.047,6.7,1.082,8.887-4.365a.341.341,0,1,1,.634.254C1710.669,296.8,1706.337,297.331,1704.128,297.3Z" fill="#bd1622"/>
              </g>
            </g>
            <g id="그룹_6232" data-name="그룹 6232">
              <g id="그룹_6231" data-name="그룹 6231">
                <path id="패스_7332" data-name="패스 7332" d="M1702.168,285.959a.34.34,0,0,1-.287-.163c-.038-.061-.913-1.51-.322-2.55.359-.631,1.146-.944,2.338-.928a2.623,2.623,0,0,1,2.32.986,2.972,2.972,0,0,1,.076,2.5.342.342,0,1,1-.631-.263,2.331,2.331,0,0,0-.018-1.861,2.008,2.008,0,0,0-1.756-.674c-.635-.009-1.452.085-1.734.582-.388.682.3,1.843.309,1.854a.341.341,0,0,1-.113.47A.338.338,0,0,1,1702.168,285.959Z" fill="#422918"/>
              </g>
            </g>
            <g id="그룹_6234" data-name="그룹 6234">
              <g id="그룹_6233" data-name="그룹 6233">
                <path id="패스_7333" data-name="패스 7333" d="M1684.99,273.491l-8.679-3.755a.368.368,0,1,0-.292.676l3.755,1.625c-2.141.487-3.807,3.2-3.851,6.494a8.511,8.511,0,0,0,1.193,4.614,8.645,8.645,0,0,1-2.295-.091.273.273,0,0,0-.327.212.276.276,0,0,0,.212.328,8.762,8.762,0,0,0,2.772.069,3.739,3.739,0,0,0,2.848,1.569c2.481.033,4.532-2.913,4.581-6.58a8.24,8.24,0,0,0-1.487-5.038l1.277.553a.354.354,0,0,0,.141.03.368.368,0,0,0,.152-.706Z" fill="#422918"/>
              </g>
            </g>
            <g id="그룹_6236" data-name="그룹 6236">
              <g id="그룹_6235" data-name="그룹 6235">
                <path id="패스_7334" data-name="패스 7334" d="M1722.887,274l8.776-3.521a.368.368,0,0,1,.274.683l-3.8,1.524c2.127.544,3.721,3.3,3.676,6.6a8.518,8.518,0,0,1-1.316,4.58,8.6,8.6,0,0,0,2.3-.029.276.276,0,0,1,.1.543,8.425,8.425,0,0,1-1.507.107,8.591,8.591,0,0,1-1.267-.112,3.736,3.736,0,0,1-2.888,1.492c-2.481-.034-4.453-3.033-4.4-6.7a8.231,8.231,0,0,1,1.623-5l-1.292.518a.367.367,0,0,1-.479-.2A.369.369,0,0,1,1722.887,274Z" fill="#422918"/>
              </g>
            </g>
          </g>
        </g>
        <g id="그룹_6252" data-name="그룹 6252">
          <g id="그룹_6248" data-name="그룹 6248">
            <g id="그룹_6247" data-name="그룹 6247" clip-path="url(#clip-path)">
              <g id="그룹_6239" data-name="그룹 6239">
                <path id="패스_7335" data-name="패스 7335" d="M1741.542,244.509c28.811,1.245,57.458-5.562,78.438-7.04-11.093-2.43-23.623-5.459-33.622-8.641a1.124,1.124,0,0,1-.492-1.827c2.318-2.568,4.441-5.175,5.3-9.433a3.461,3.461,0,0,0-1.415-3.513c-4.088-2.853-13.969-9.494-14-11.848-.2-17.768-19.649-120.648-18.774-121.852,1.116-1.537,12.727,7.846,20.283,7.285,0,0-22.052-29-35.036-32.658-5.095-1.433-83.808,108.758-91.636,119.737-.38.535-1.263,1.032-4.1,1.76-5.723,1.464-13.513-.521-8.155,9.307.547,1,.905,1.56-.207,1.837-1.4.349-4.671.783-5.968,1.744-1.543,1.143,1,5.241-1.846,7.531-7.66,6.166-17.9,7.559-27.462,7.01a194.614,194.614,0,0,1,18.728,7.931C1679.164,239.585,1699.26,242.68,1741.542,244.509Z" fill="#531b4b"/>
              </g>
              <g id="그룹_6240" data-name="그룹 6240">
                <path id="패스_7336" data-name="패스 7336" d="M1736.845,62.768a17.264,17.264,0,0,0-11.892-4.754c-2.732-.063-6.771.262-9.1,1.318-5.975,2.706-9.37,8.867-9.532,15.864a15.909,15.909,0,0,0,3.632,11.125c3.143,3.795,7.517,7.1,12.829,7.218,4.865.113,10.647-1.631,13.908-4.746s4.728-7.09,4.84-11.954C1741.647,71.589,1740.245,66.3,1736.845,62.768ZM1728.731,79.4a5.511,5.511,0,0,1-3.629,2.487,7.1,7.1,0,0,1-4.849-1.271,6.055,6.055,0,0,1-2.288-4.47,5.432,5.432,0,0,1,1.065-3.848,5.869,5.869,0,0,1,5.7-2.714,8.333,8.333,0,0,1,2.837,1.34,5.886,5.886,0,0,1,2.485,3.593A6.674,6.674,0,0,1,1728.731,79.4Z" fill="#f0c56d"/>
              </g>
              <g id="그룹_6241" data-name="그룹 6241">
                <path id="패스_7337" data-name="패스 7337" d="M1769.114,103.774a14.422,14.422,0,0,0-9.937-3.973,20.384,20.384,0,0,0-7.606,1.1c-4.993,2.261-7.83,7.409-7.965,13.254a13.3,13.3,0,0,0,3.034,9.3c2.627,3.17,6.281,5.929,10.721,6.031,4.064.094,8.9-1.363,11.62-3.965a13.51,13.51,0,0,0,4.044-9.989C1773.126,111.143,1771.955,106.721,1769.114,103.774Zm-6.78,13.893a4.608,4.608,0,0,1-3.032,2.078,5.939,5.939,0,0,1-4.052-1.062,5.06,5.06,0,0,1-1.911-3.736,4.539,4.539,0,0,1,.889-3.215,4.909,4.909,0,0,1,4.763-2.268,6.977,6.977,0,0,1,2.37,1.121,4.924,4.924,0,0,1,2.077,3A5.583,5.583,0,0,1,1762.334,117.667Z" fill="#f0c56d"/>
              </g>
              <g id="그룹_6242" data-name="그룹 6242">
                <path id="패스_7338" data-name="패스 7338" d="M1689.237,120.316A15.674,15.674,0,0,0,1678.443,116c-2.479-.057-6.145.238-8.262,1.2-5.424,2.456-8.506,8.048-8.653,14.4a14.443,14.443,0,0,0,3.3,10.1c2.853,3.444,6.822,6.44,11.645,6.552,4.415.1,9.663-1.482,12.623-4.308s4.291-6.435,4.393-10.851C1693.6,128.322,1692.323,123.517,1689.237,120.316Zm-7.364,15.092a5.006,5.006,0,0,1-3.294,2.258,6.442,6.442,0,0,1-4.4-1.154,5.5,5.5,0,0,1-2.077-4.058,4.933,4.933,0,0,1,.966-3.492,5.331,5.331,0,0,1,5.174-2.464,7.582,7.582,0,0,1,2.574,1.217,5.348,5.348,0,0,1,2.257,3.261A6.066,6.066,0,0,1,1681.873,135.408Z" fill="#f0c56d"/>
              </g>
              <g id="그룹_6243" data-name="그룹 6243">
                <path id="패스_7339" data-name="패스 7339" d="M1721.161,158.865a11.387,11.387,0,0,0-7.843-3.135,16.088,16.088,0,0,0-6,.869c-3.94,1.785-6.179,5.848-6.286,10.461a10.5,10.5,0,0,0,2.395,7.337c2.073,2.5,4.957,4.68,8.461,4.76,3.207.074,7.02-1.076,9.171-3.129a10.662,10.662,0,0,0,3.192-7.884C1724.328,164.682,1723.4,161.191,1721.161,158.865Zm-5.351,10.966a3.633,3.633,0,0,1-2.393,1.639,4.681,4.681,0,0,1-3.2-.838,3.993,3.993,0,0,1-1.508-2.947,3.58,3.58,0,0,1,.7-2.538,3.87,3.87,0,0,1,3.758-1.79,5.5,5.5,0,0,1,1.871.884,3.883,3.883,0,0,1,1.639,2.37A4.4,4.4,0,0,1,1715.81,169.831Z" fill="#f0c56d"/>
              </g>
              <g id="그룹_6244" data-name="그룹 6244">
                <path id="패스_7340" data-name="패스 7340" d="M1785.706,174.507a16.117,16.117,0,0,0-11.1-4.438c-2.549-.059-6.319.244-8.5,1.23-5.577,2.526-8.746,8.276-8.9,14.806a14.859,14.859,0,0,0,3.389,10.384c2.935,3.541,7.016,6.621,11.975,6.736,4.539.1,9.936-1.523,12.979-4.429s4.413-6.618,4.518-11.157C1790.188,182.738,1788.879,177.8,1785.706,174.507Zm-7.573,15.518a5.148,5.148,0,0,1-3.387,2.321,6.626,6.626,0,0,1-4.525-1.186,5.648,5.648,0,0,1-2.135-4.172,5.065,5.065,0,0,1,.993-3.592,5.481,5.481,0,0,1,5.32-2.533,7.767,7.767,0,0,1,2.647,1.252,5.5,5.5,0,0,1,2.32,3.353A6.232,6.232,0,0,1,1778.133,190.025Z" fill="#f0c56d"/>
              </g>
              <g id="그룹_6245" data-name="그룹 6245">
                <path id="패스_7341" data-name="패스 7341" d="M1741.915,209.4a17.263,17.263,0,0,0-11.892-4.755c-2.732-.063-6.771.262-9.1,1.318-5.975,2.706-9.371,8.867-9.532,15.863a15.91,15.91,0,0,0,3.632,11.126c3.143,3.795,7.517,7.1,12.829,7.218,4.864.113,10.646-1.632,13.907-4.745s4.728-7.091,4.841-11.955C1746.717,218.215,1745.315,212.922,1741.915,209.4Zm-8.114,16.628a5.518,5.518,0,0,1-3.629,2.486,7.1,7.1,0,0,1-4.849-1.271,6.051,6.051,0,0,1-2.288-4.47,5.435,5.435,0,0,1,1.064-3.848,5.87,5.87,0,0,1,5.7-2.714,8.317,8.317,0,0,1,2.837,1.341,5.885,5.885,0,0,1,2.485,3.592A6.678,6.678,0,0,1,1733.8,226.023Z" fill="#f0c56d"/>
              </g>
              <g id="그룹_6246" data-name="그룹 6246">
                <path id="패스_7342" data-name="패스 7342" d="M1668.417,211.428a17.265,17.265,0,0,0-11.892-4.754c-2.732-.063-6.77.261-9.1,1.318-5.974,2.706-9.37,8.867-9.532,15.863a15.919,15.919,0,0,0,3.631,11.126c3.144,3.794,7.517,7.1,12.831,7.218,4.864.112,10.646-1.632,13.907-4.746s4.727-7.09,4.84-11.954C1673.219,220.248,1671.817,214.955,1668.417,211.428Zm-8.114,16.628a5.516,5.516,0,0,1-3.629,2.487,7.1,7.1,0,0,1-4.849-1.271,6.054,6.054,0,0,1-2.287-4.47,5.43,5.43,0,0,1,1.064-3.849,5.872,5.872,0,0,1,5.7-2.714,8.335,8.335,0,0,1,2.837,1.341,5.892,5.892,0,0,1,2.486,3.593A6.68,6.68,0,0,1,1660.3,228.056Z" fill="#f0c56d"/>
              </g>
            </g>
          </g>
          <g id="그룹_6251" data-name="그룹 6251">
            <g id="그룹_6249" data-name="그룹 6249">
              <path id="패스_7344" data-name="패스 7344" d="M1649.533,190.974c10.368,5.435,35.515,12.467,61.236,16.444,18.691,2.89,37.948,3.483,50.782,4,7.174.288,2.736,2.5-4.044,3.569-16.346,2.58-61.619-1.009-76.087-5.475-15.7-4.848-25.717-8.557-35.272-17.176C1639.664,186.486,1639.7,185.823,1649.533,190.974Z" fill="#260a23"/>
            </g>
            <g id="그룹_6250" data-name="그룹 6250">
              <path id="패스_7345" data-name="패스 7345" d="M1665.455,183.107c21.093,6.04,40.45,8.1,47.6,7.407s3.14,2.176-3.43,4.162-28.224,1.82-35.844-2.4C1656.659,182.783,1644.362,177.068,1665.455,183.107Z" fill="#260a23"/>
            </g>
          </g>
        </g>
      </g>
    </g>
    <g id="Layer_7" data-name="Layer 7">
      <g id="그룹_6272" data-name="그룹 6272">
        <g id="그룹_6260" data-name="그룹 6260">
          <g id="그룹_6254" data-name="그룹 6254">
            <path id="패스_7346" data-name="패스 7346" d="M1462.131,257.344a75.409,75.409,0,0,1-9.642-11.507c-12.661-17.955,9.618-34.306,9.618-34.306s-3.325-1.935-7.2-17.453-.2-23.141,4.451-36.568,24.136-30.273,37.073-32.476,26.918-3.195,44.251,17.532,11.416,34.075,8.015,49.963-20.428,25.976-20.428,25.976a44.5,44.5,0,0,1,6.539,14.5c3.231,13.867-13.241,29.31-13.241,29.31,6.642,11.119,3.817,22.065,1.226,30.455-3.611,11.691-15.047,14.579-15.047,14.579,3.229,6.853,4.439,15.008-.34,23.346-11.284,19.688-25.375,8.265-25.526,8.126a3.925,3.925,0,0,1-.362-.424c-5.056,3.282-17.678,5.311-23.793-9.059-6.408-15.059,1.821-29.356,3.29-31.714-7.7-10.8-5.924-19.414-5.661-20.362.356-1.28-1.371-7.928,6.78-19.919Z" fill="#ca8549"/>
          </g>
          <g id="그룹_6255" data-name="그룹 6255">
            <path id="패스_7347" data-name="패스 7347" d="M1462.107,211.531a42.69,42.69,0,0,0,22.939,19.284,91.467,91.467,0,0,1,22,11.28c5.65,4.147,8.647,10.274,12.487,16.218.626.969,2.032,2.8,2.03,4l3.807-4.106c1.16-1.26-3.6-6.5-4.338-7.42a52.327,52.327,0,0,0-10.059-10.223c-6.676-4.834-14.652-7.705-22.074-11.01a48.726,48.726,0,0,1-8.959-4.658,44.742,44.742,0,0,1-6.87-6.2c-1.948-2.06-4.949-2.784-7.393-4.186A15.217,15.217,0,0,1,1462.107,211.531Z" fill="#a9733d"/>
          </g>
          <g id="그룹_6256" data-name="그룹 6256">
            <path id="패스_7348" data-name="패스 7348" d="M1528.267,218.505s-11.813-22.886-27.707-27.678-10.793-14.968-10.793-14.968l1.686,4.539c1.581,3.028,17.116,9.28,20.879,12.342,5.235,4.26,16.852,20.179,17.489,24.756Z" fill="#a9733d"/>
          </g>
          <g id="그룹_6257" data-name="그룹 6257">
            <path id="패스_7349" data-name="패스 7349" d="M1504.169,167.688s1.738,5.469-.014,8.195-6.375,6.708-3.589,11.346,2.789,2.963,2.789,2.963-3.177-.879.011-6.773S1508.086,177.09,1504.169,167.688Z" fill="#a9733d"/>
          </g>
          <g id="그룹_6258" data-name="그룹 6258">
            <path id="패스_7350" data-name="패스 7350" d="M1460.334,260.164s28.165.038,30.923,14.928,13.581,13.879,16.487,32.256h0s1.485-6.571-1.929-11.458c-8.318-11.907-12.266-18.961-12.563-21.135-.486-3.553-6.184-17.441-31.121-17.411Z" fill="#a9733d"/>
          </g>
          <g id="그룹_6259" data-name="그룹 6259">
            <path id="패스_7351" data-name="패스 7351" d="M1461.013,297.623s14.454,12.265,20.792,17.647,8.262,16.24-.289,23.126c0,0,8.31-2.362,9.543-9.928s-8.232-18.48-17.293-22.977A68.274,68.274,0,0,1,1461.013,297.623Z" fill="#a9733d"/>
          </g>
        </g>
        <g id="그룹_6266" data-name="그룹 6266">
          <g id="그룹_6261" data-name="그룹 6261">
            <path id="패스_7352" data-name="패스 7352" d="M1480.11,282.081s4.871,3.483,12.249-.045c4.713-2.254,6.055,1.169,5.4,3-.528,1.465-5.122,4.972-10.225,5.357-7.065.532-11.336-3.034-11.7-5.344C1475.545,283.269,1476.86,280.567,1480.11,282.081Z" fill="#fff"/>
            <path id="패스_7353" data-name="패스 7353" d="M1486.088,290.7c-6.214-.01-10.127-3.186-10.51-5.61a3.455,3.455,0,0,1,1.175-3.19c.62-.469,1.726-.857,3.464-.047a.23.23,0,0,1,.04.023c.048.034,4.849,3.352,11.993-.068,2.835-1.355,4.315-.6,4.944-.034a3.215,3.215,0,0,1,.8,3.349c-.6,1.666-5.424,5.144-10.444,5.523Q1486.8,290.7,1486.088,290.7Zm-7.733-8.808a2.1,2.1,0,0,0-1.3.412,2.97,2.97,0,0,0-.98,2.707c.336,2.125,4.446,5.655,11.433,5.131,5.03-.379,9.532-3.876,10.006-5.191a2.722,2.722,0,0,0-.661-2.8c-.925-.836-2.482-.8-4.387.116-7.177,3.431-12.114.285-12.483.037A3.943,3.943,0,0,0,1478.355,281.891Z" fill="#1d1e1c"/>
          </g>
          <g id="그룹_6262" data-name="그룹 6262">
            <line id="선_118" data-name="선 118" x1="3.085" y2="5.609" transform="translate(1478.719 282.912)" fill="#fff"/>
            <path id="패스_7354" data-name="패스 7354" d="M1478.718,288.774a.252.252,0,0,1-.221-.374l3.086-5.61a.253.253,0,0,1,.443.244l-3.086,5.609A.251.251,0,0,1,1478.718,288.774Z" fill="#1d1e1c"/>
          </g>
          <g id="그룹_6263" data-name="그룹 6263">
            <line id="선_119" data-name="선 119" x1="1.053" y2="6.711" transform="translate(1483.772 283.572)" fill="#fff"/>
            <path id="패스_7355" data-name="패스 7355" d="M1483.772,290.536a.253.253,0,0,1-.25-.292l1.053-6.711a.253.253,0,0,1,.5.079l-1.054,6.711A.252.252,0,0,1,1483.772,290.536Z" fill="#1d1e1c"/>
          </g>
          <g id="그룹_6264" data-name="그룹 6264">
            <line id="선_120" data-name="선 120" x2="1.429" y2="6.64" transform="translate(1488.515 283.345)" fill="#fff"/>
            <path id="패스_7356" data-name="패스 7356" d="M1489.942,290.237a.252.252,0,0,1-.246-.2l-1.429-6.64a.253.253,0,0,1,.495-.107l1.428,6.64a.251.251,0,0,1-.194.3A.248.248,0,0,1,1489.942,290.237Z" fill="#1d1e1c"/>
          </g>
          <g id="그룹_6265" data-name="그룹 6265">
            <line id="선_121" data-name="선 121" x2="3.486" y2="5.184" transform="translate(1491.976 282.213)" fill="#fff"/>
            <path id="패스_7357" data-name="패스 7357" d="M1495.462,287.649a.253.253,0,0,1-.21-.112l-3.485-5.184a.253.253,0,0,1,.419-.282l3.486,5.185a.252.252,0,0,1-.069.35A.244.244,0,0,1,1495.462,287.649Z" fill="#1d1e1c"/>
          </g>
        </g>
        <g id="그룹_6267" data-name="그룹 6267">
          <path id="패스_7358" data-name="패스 7358" d="M1499.391,270.12a2.089,2.089,0,1,1-2.086-2.092A2.089,2.089,0,0,1,1499.391,270.12Z" fill="#1d1e1c"/>
        </g>
        <g id="그룹_6268" data-name="그룹 6268">
          <path id="패스_7359" data-name="패스 7359" d="M1477.246,270.082a2.089,2.089,0,1,1-2.085-2.092A2.089,2.089,0,0,1,1477.246,270.082Z" fill="#1d1e1c"/>
        </g>
        <g id="그룹_6269" data-name="그룹 6269">
          <path id="패스_7360" data-name="패스 7360" d="M1484.21,276.12a.256.256,0,0,1-.1-.022,1.36,1.36,0,0,1-.809-.9,3.566,3.566,0,0,1,.713-2.438.253.253,0,0,1,.411.3,3.037,3.037,0,0,0-.636,2.012.865.865,0,0,0,.529.573.253.253,0,0,1-.1.483Z" fill="#1d1e1c"/>
        </g>
        <g id="그룹_6270" data-name="그룹 6270">
          <path id="패스_7361" data-name="패스 7361" d="M1501.874,256.645c-1.263,1.989-5.762.757-5.762.757Z" fill="#1d1e1c"/>
        </g>
        <g id="그룹_6271" data-name="그룹 6271">
          <path id="패스_7362" data-name="패스 7362" d="M1476.028,256.761s-4.568.943-5.7-1.123Z" fill="#1d1e1c"/>
        </g>
      </g>
    </g>
    <g id="Layer_2" data-name="Layer 2">
      <g id="그룹_6294" data-name="그룹 6294">
        <g id="그룹_6273" data-name="그룹 6273">
          <path id="패스_7363" data-name="패스 7363" d="M564.907,113.124c1.284,8.336,4,13.824,7.974,20.682,2.386,4.115,5.952,7.35,9.2,10.741a59.218,59.218,0,0,0,49.645,17.93c7.244-.829,9-1.031,17.162-4.629a55.243,55.243,0,0,0,16.567-10.923,59.7,59.7,0,0,0,11.755-15.209c3.315-6.123,6.779-11.484,7.771-18.574a54.972,54.972,0,0,0,.29-14.448,76.4,76.4,0,0,0-3.644-16.265c-2.118-5.593-4.384-12.293-8.113-16.563-3.573-4.092-7.136-8.576-13.171-11.773a91.234,91.234,0,0,0-20.024-7.968c-7-1.875-14.587-3.563-22.223-2.689a67.8,67.8,0,0,0-26.556,8.979,54.988,54.988,0,0,0-14.828,13.36c-3.075,3.816-4.543,8.587-6.6,13.065a60.97,60.97,0,0,0-5.342,20.748C564.3,105.9,563.656,105.007,564.907,113.124Z" fill="#efc46b"/>
        </g>
        <g id="그룹_6274" data-name="그룹 6274">
          <path id="패스_7364" data-name="패스 7364" d="M566.583,101.156c-.7,8.7.721,14.877,3.086,22.734,1.419,4.714,4.237,8.825,6.7,13.018a61.3,61.3,0,0,0,45.709,29.925c7.493.9,9.313,1.114,18.391-.559a57.168,57.168,0,0,0,19.295-7.04,61.8,61.8,0,0,0,15.474-12.5c4.8-5.374,9.572-9.945,12.266-16.847A56.871,56.871,0,0,0,691.25,115.4a79.034,79.034,0,0,0,.219-17.251c-.8-6.139-1.476-13.428-4.21-18.62-2.62-4.975-5.136-10.343-10.45-15a94.48,94.48,0,0,0-18.26-12.813c-6.6-3.562-13.838-7.075-21.738-8.021a70.166,70.166,0,0,0-28.889,2.695,56.938,56.938,0,0,0-18.128,9.908c-4.009,3.108-6.627,7.562-9.772,11.579a63.106,63.106,0,0,0-10.34,19.618C567.7,93.741,567.264,92.682,566.583,101.156Z" fill="#fdf297"/>
        </g>
        <g id="그룹_6275" data-name="그룹 6275">
          <path id="패스_7365" data-name="패스 7365" d="M570.515,103.892c-.369,8.6,1.256,14.624,3.874,22.274,1.57,4.591,4.5,8.535,7.076,12.574a60.9,60.9,0,0,0,11.776,13.528,60.3,60.3,0,0,0,34.336,14.263c7.412.608,9.211.755,18.09-1.226a56.35,56.35,0,0,0,18.743-7.641,60.923,60.923,0,0,0,14.778-12.883c4.532-5.468,9.062-10.145,11.462-17.042a56.047,56.047,0,0,0,3.156-14.4,77.846,77.846,0,0,0-.418-17c-1.009-6.016-1.946-13.169-4.829-18.181-2.763-4.8-5.438-10-10.842-14.393a93.07,93.07,0,0,0-18.453-11.946c-6.632-3.265-13.887-6.46-21.7-7.1a69.167,69.167,0,0,0-28.35,3.715,56.1,56.1,0,0,0-17.488,10.423c-3.834,3.208-6.249,7.69-9.2,11.761a62.2,62.2,0,0,0-9.462,19.7C571.344,96.549,570.874,95.523,570.515,103.892Z" fill="#efc46b"/>
        </g>
        <g id="그룹_6276" data-name="그룹 6276">
          <path id="패스_7366" data-name="패스 7366" d="M615.648,45.495c-.422,3.528,2.515,4.218,6.093,6.242A44.482,44.482,0,0,0,638.548,57.1a78.938,78.938,0,0,0,9.6.621A23.85,23.85,0,0,0,659.18,55.08a6.736,6.736,0,0,0,3.9-5.642,12.7,12.7,0,0,0-.516-4.962c-.6-2.3-2-3.9-3.833-6.039-2.115-2.476-3.691-5.873-7.38-8.168-3.034-1.889-6.117-3.728-9.435-4.125-4.075-.488-9.4,1.462-12.493,2.1-3.286.678-4.478,2.643-6.692,4.175-1.438,1-3.168,3.782-4.167,4.989C616.564,39.821,615.954,42.944,615.648,45.495Z" fill="#fff"/>
        </g>
        <g id="그룹_6277" data-name="그룹 6277">
          <path id="패스_7367" data-name="패스 7367" d="M621.641,51.913c-.641-.362-1.254-.678-1.847-.984-2.631-1.355-4.71-2.426-4.347-5.458.3-2.513.909-5.716,2.959-8.192.288-.348.648-.843,1.029-1.368a17.238,17.238,0,0,1,3.179-3.658,20.4,20.4,0,0,0,1.773-1.427,10.105,10.105,0,0,1,4.993-2.78c.781-.161,1.727-.412,2.727-.678,3.01-.8,6.755-1.793,9.831-1.425,3.256.389,6.238,2.112,9.518,4.154a19.927,19.927,0,0,1,5.657,5.868c.6.835,1.158,1.624,1.77,2.341l.17.2c1.74,2.036,3.115,3.644,3.705,5.921a12.931,12.931,0,0,1,.521,5.036,6.9,6.9,0,0,1-4.006,5.8,24.158,24.158,0,0,1-11.123,2.667,79.212,79.212,0,0,1-9.626-.622A44.9,44.9,0,0,1,621.641,51.913Zm10.57-24.153c-1.006.267-1.957.519-2.749.683a9.779,9.779,0,0,0-4.809,2.688,20.506,20.506,0,0,1-1.809,1.455,17.064,17.064,0,0,0-3.081,3.563c-.386.53-.749,1.031-1.045,1.388-1.983,2.4-2.575,5.524-2.869,7.983-.329,2.752,1.445,3.666,4.13,5.049.6.307,1.214.625,1.862.992A44.51,44.51,0,0,0,638.572,56.9a79,79,0,0,0,9.576.619A23.764,23.764,0,0,0,659.087,54.9a6.53,6.53,0,0,0,3.79-5.486,12.594,12.594,0,0,0-.511-4.887c-.566-2.186-1.914-3.763-3.621-5.759l-.17-.2c-.623-.73-1.191-1.526-1.792-2.369a19.329,19.329,0,0,0-5.541-5.759c-3.239-2.017-6.178-3.716-9.352-4.1C638.891,25.986,635.187,26.97,632.211,27.76Z" fill="#dddede"/>
        </g>
        <g id="그룹_6293" data-name="그룹 6293">
          <g id="그룹_6279" data-name="그룹 6279">
            <g id="그룹_6278" data-name="그룹 6278">
              <path id="패스_7368" data-name="패스 7368" d="M651.72,117.176a.607.607,0,0,0,.267-1.178l-6.96-2.36,7.707-2.695a.608.608,0,0,0-.4-1.147l-9.372,3.278a.607.607,0,0,0,.005,1.148l8.63,2.926A.616.616,0,0,0,651.72,117.176Z" fill="#1d1e1c"/>
            </g>
          </g>
          <g id="그룹_6281" data-name="그룹 6281">
            <g id="그룹_6280" data-name="그룹 6280">
              <path id="패스_7369" data-name="패스 7369" d="M614.063,113.231a.768.768,0,0,0,.127,0l9.077-.808a.608.608,0,0,0,.277-1.115l-8.335-5.4a.608.608,0,0,0-.661,1.02l6.854,4.437-7.32.652a.608.608,0,0,0-.019,1.209Z" fill="#1d1e1c"/>
            </g>
          </g>
          <g id="그룹_6283" data-name="그룹 6283">
            <g id="그룹_6282" data-name="그룹 6282">
              <path id="패스_7370" data-name="패스 7370" d="M629.506,123.416c.047.006.1.01.144.013a2.1,2.1,0,0,0,1.811-.738,1.669,1.669,0,0,0,.33.593,1.761,1.761,0,0,0,1.413.548,2.694,2.694,0,0,0,2.594-1.558.289.289,0,0,0-.539-.207,2.134,2.134,0,0,1-2.061,1.188,1.213,1.213,0,0,1-.971-.35,1.652,1.652,0,0,1-.292-1.159.289.289,0,0,0-.568-.1,1.586,1.586,0,0,1-1.682,1.209c-1.394-.092-1.628-1.635-1.63-1.651a.288.288,0,1,0-.571.081A2.454,2.454,0,0,0,629.506,123.416Z" fill="#1d1e1c"/>
            </g>
          </g>
          <g id="그룹_6285" data-name="그룹 6285">
            <g id="그룹_6284" data-name="그룹 6284">
              <ellipse id="타원_370" data-name="타원 370" cx="1.493" cy="3.78" rx="1.493" ry="3.78" transform="matrix(0.119, -0.993, 0.993, 0.119, 648.767, 123.041)" fill="#e6969f"/>
            </g>
          </g>
          <g id="그룹_6287" data-name="그룹 6287">
            <g id="그룹_6286" data-name="그룹 6286">
              <ellipse id="타원_371" data-name="타원 371" cx="1.493" cy="3.78" rx="1.493" ry="3.78" transform="matrix(0.119, -0.993, 0.993, 0.119, 606.975, 118.041)" fill="#e6969f"/>
            </g>
          </g>
          <g id="그룹_6289" data-name="그룹 6289">
            <g id="그룹_6288" data-name="그룹 6288">
              <path id="패스_7371" data-name="패스 7371" d="M617.438,84.384a.2.2,0,0,0,.121-.023c1.449-.795,3.227.391,3.244.4a.2.2,0,1,0,.228-.335c-.081-.054-2-1.338-3.666-.424a.2.2,0,0,0,.073.379Z" fill="#1d1e1c"/>
            </g>
          </g>
          <g id="그룹_6291" data-name="그룹 6291">
            <g id="그룹_6290" data-name="그룹 6290">
              <path id="패스_7372" data-name="패스 7372" d="M649.078,87.076a.2.2,0,0,0,.122-.024c1.449-.793,3.226.391,3.244.4a.2.2,0,0,0,.228-.335c-.081-.055-2-1.337-3.667-.424a.2.2,0,0,0,.073.379Z" fill="#1d1e1c"/>
            </g>
          </g>
          <g id="그룹_6292" data-name="그룹 6292">
            <path id="패스_7373" data-name="패스 7373" d="M632.2,117.078a.254.254,0,0,0,.283-.222l.117-.977a.255.255,0,0,0-.506-.06l-.117.976A.255.255,0,0,0,632.2,117.078Z" fill="#1d1e1c"/>
          </g>
        </g>
      </g>
    </g>
    <g id="Layer_3" data-name="Layer 3">
      <g id="그룹_6310" data-name="그룹 6310">
        <g id="그룹_6299" data-name="그룹 6299">
          <g id="그룹_6296" data-name="그룹 6296">
            <g id="그룹_6295" data-name="그룹 6295">
              <path id="패스_7374" data-name="패스 7374" d="M776.108,55.9l.7-6.822a8.944,8.944,0,0,1,6.673-9.359c7.516-2.407,34.169-10.526,62.191,16.059s31.318,53.082,21.584,81.215-43.9,42.377-49.061,43.99-23.53,5.634-43.522-7.3c-17.046-11.033-40.255-30.028-44.916-46.163s-1.911-32.382,6.818-44.369C745.888,70.354,750.867,61.969,776.108,55.9Z" fill="#ca8549"/>
            </g>
          </g>
          <g id="그룹_6298" data-name="그룹 6298">
            <g id="그룹_6297" data-name="그룹 6297">
              <path id="패스_7375" data-name="패스 7375" d="M779.341,55.057S806.3,52.171,832.373,75.37s13.059,47.584,13.059,47.584-15.074,37.851-46.8,34.015S759.017,130.4,759.017,130.4s-13.839-23.475,18.824-48.57,48.363,22.773,48.208,23.876-3.811,32.161-33.714,25.812-3.809-27.779-3.809-27.779,9.671-2.971,3.229,6.593,5.945,11.9,7.818,10.263,23.7-6.2,10.526-22.053-27.747-10.631-34.42-1.273-14.621,27.5,2.833,41.381,31.719,7.137,42.42-4.425,24.3-25.92,11.767-42.033S807.06,68.972,794.621,69.479s-37.529,9.19-45.98,36.81,14.649,48.586,35.01,56.367,41.368,7.867,53.611-11,23.227-33.077,18.62-52.059-16.6-37.1-41.455-43.083S779.341,55.057,779.341,55.057Z" fill="#683b13"/>
            </g>
          </g>
        </g>
        <g id="그룹_6308" data-name="그룹 6308">
          <g id="그룹_6301" data-name="그룹 6301">
            <g id="그룹_6300" data-name="그룹 6300">
              <path id="패스_7376" data-name="패스 7376" d="M843.447,121.264a27.467,27.467,0,0,0-.77-2.895,2.619,2.619,0,0,1-.088-.405c-.453-3.123-3.221-1.448-4.911-1.409,0,0-16.272,2.958-16.748,3.072-6.087,1.457-9.363,3.154-10.654,5.73a14.861,14.861,0,0,0-8.077-.52c-1.173-2.631-4.222-4.9-9.786-7.493-.459-.214-16.262-6.609-16.262-6.609-1.668-.4-4.238-2.645-5,.349a2.4,2.4,0,0,1-.128.381,25,25,0,0,0-1.051,2.7c-1.774,7,3.7,13.632,17.548,18.1l5.48,1.31a11.983,11.983,0,0,0,3.013.342c3.413-.066,5.654-1.083,6.319-3.471l.015-.055a9.105,9.105,0,0,0,.324-4,14.409,14.409,0,0,1,7.047.691,10.111,10.111,0,0,0,.077,3.335l.01.058c.419,2.5,2.534,3.987,5.9,4.781a12.008,12.008,0,0,0,3.015.3l5.553-.128C838.427,133.962,844.5,128.567,843.447,121.264Z" fill="#1d1e1c"/>
            </g>
          </g>
          <g id="그룹_6304" data-name="그룹 6304">
            <g id="그룹_6302" data-name="그룹 6302">
              <path id="패스_7377" data-name="패스 7377" d="M785.477,142.792s18.871,8.682,28.3,7.064-10.793,6.528-23.106,2.048C783.461,149.28,786,144.741,785.477,142.792Z" fill="#fff"/>
            </g>
            <g id="그룹_6303" data-name="그룹 6303">
              <path id="패스_7378" data-name="패스 7378" d="M793.946,152.946a20.946,20.946,0,0,1-3.328-.893c-5.66-2.059-5.424-5.373-5.267-7.566a5.5,5.5,0,0,0-.027-1.654l-.088-.327.308.142c.188.087,18.934,8.643,28.207,7.052,2.361-.4,2.512-.146,2.582-.021a.274.274,0,0,1-.056.331C815.324,151.142,803.453,154.716,793.946,152.946Zm-8.256-9.885a7.939,7.939,0,0,1-.023,1.449c-.159,2.223-.376,5.267,5.06,7.245,10.015,3.642,24.454-1.039,25.291-1.926a6.449,6.449,0,0,0-2.213.184C805.061,151.512,788.071,144.125,785.69,143.061Z" fill="#1d1e1c"/>
            </g>
          </g>
          <g id="그룹_6306" data-name="그룹 6306">
            <g id="그룹_6305" data-name="그룹 6305">
              <path id="패스_7379" data-name="패스 7379" d="M811.373,145.946c-.407-.076-.644-.142-.686-.154a1.269,1.269,0,1,1,.7-2.439,17.8,17.8,0,0,0,10.079-1.016,1.349,1.349,0,0,0,.329-.164c-.071-.33-.768-2.038-7.5-6.259-3.962-2.486-7.986-4.556-8.026-4.576a1.269,1.269,0,1,1,1.159-2.258c.042.021,4.2,2.162,8.284,4.727,7.8,4.9,8.7,7.154,8.622,8.569a2.653,2.653,0,0,1-1.979,2.338A20.941,20.941,0,0,1,811.373,145.946Zm10.43-3.714h0Z" fill="#1d1e1c"/>
            </g>
          </g>
          <g id="그룹_6307" data-name="그룹 6307">
            <path id="패스_7380" data-name="패스 7380" d="M795.951,149.739l-.007-.317a11.551,11.551,0,0,1-5.175-1.523,3.311,3.311,0,0,1,.382-.916l-.265-.175a3.547,3.547,0,0,0-.408.937,18.829,18.829,0,0,1-1.732-1.056l-.184.259a18.827,18.827,0,0,0,1.845,1.125,2.429,2.429,0,0,0,.05,1.062l.305-.088a2.049,2.049,0,0,1-.054-.815,14.089,14.089,0,0,0,3.76,1.376A7.147,7.147,0,0,0,795.951,149.739Z" fill="#1d1e1c"/>
          </g>
        </g>
        <g id="그룹_6309" data-name="그룹 6309">
          <path id="패스_7381" data-name="패스 7381" d="M797.923,101.856a1.11,1.11,0,0,1-.57-.3c-1.413-1.351-12.268-9.995-18.75-8.636a1.11,1.11,0,1,1-.456-2.173c8.3-1.739,20.64,9.106,20.754,9.217a1.11,1.11,0,0,1-.978,1.887Z" fill="#1d1e1c"/>
        </g>
      </g>
    </g>
    <g id="Layer_4" data-name="Layer 4">
      <g id="그룹_6325" data-name="그룹 6325">
        <g id="그룹_6311" data-name="그룹 6311">
          <path id="패스_7382" data-name="패스 7382" d="M1018.271,161.93c-6.062,12.571-16.59,22.936-28.5,30.489-7.07,4.484-15.557,10.152-20.5,12.759-4.521,2.383-9.919,3.449-14.131,5.02-5.5,2.052-14.032,3.132-19.31.994-5.307-2.15-9.68-5.75-12.4-7.834-4.554-3.494-6.11-5.7-11.382-10.787-15.814-15.26-30.529-37.524-29.843-58.257.909-27.44,13.389-60.475,41.931-57.642,30.261,3.005,25.764,21.947,32.005,29.473,11.005-6.5,15.038-22.712,43.03-18.517C1024.508,91.424,1029.376,138.9,1018.271,161.93Z" fill="#eb7eae"/>
        </g>
        <g id="그룹_6312" data-name="그룹 6312">
          <rect id="사각형_2323" data-name="사각형 2323" width="11.896" height="1.862" transform="translate(889.093 134.826) rotate(-26.457)" fill="#e63a59"/>
        </g>
        <g id="그룹_6313" data-name="그룹 6313">
          <rect id="사각형_2324" data-name="사각형 2324" width="9.082" height="1.862" transform="matrix(0.085, -0.996, 0.996, 0.085, 976.986, 192.331)" fill="#e63a59"/>
        </g>
        <g id="그룹_6314" data-name="그룹 6314">
          <rect id="사각형_2325" data-name="사각형 2325" width="1.863" height="9.603" transform="matrix(0.659, -0.752, 0.752, 0.659, 991.394, 160.921)" fill="#fff096"/>
        </g>
        <g id="그룹_6315" data-name="그룹 6315">
          <rect id="사각형_2326" data-name="사각형 2326" width="11.896" height="1.862" transform="translate(903.882 94.586) rotate(-26.456)" fill="#fff096"/>
        </g>
        <g id="그룹_6316" data-name="그룹 6316">
          <rect id="사각형_2327" data-name="사각형 2327" width="1.863" height="11.896" transform="matrix(0.438, -0.899, 0.899, 0.438, 927.656, 112.974)" fill="#fff096"/>
        </g>
        <g id="그룹_6317" data-name="그룹 6317">
          <rect id="사각형_2328" data-name="사각형 2328" width="1.863" height="8.746" transform="translate(900.178 151.89) rotate(-21.478)" fill="#fff096"/>
        </g>
        <g id="그룹_6318" data-name="그룹 6318">
          <rect id="사각형_2329" data-name="사각형 2329" width="1.863" height="11.896" transform="matrix(0.833, -0.553, 0.553, 0.833, 990.859, 101.11)" fill="#e63a59"/>
        </g>
        <g id="그룹_6319" data-name="그룹 6319">
          <path id="패스_7383" data-name="패스 7383" d="M936.277,159.677a1.236,1.236,0,0,0,.077-.183,1.414,1.414,0,0,0,.037-.192,1.38,1.38,0,0,0,.015-.14,2.422,2.422,0,0,0,.007-.252,3.4,3.4,0,0,0-.038-.47,3.757,3.757,0,0,0-.239-.855,4.044,4.044,0,0,0-.918-1.333,6.384,6.384,0,0,0-2.409-1.408,11.907,11.907,0,0,0-1.247-.355,9.24,9.24,0,0,1-3.218-1.537,4.794,4.794,0,0,0,.828.934c.31.281.636.544.975.795a8.181,8.181,0,0,0,1.1.7c.132.075.265.147.4.22a3.223,3.223,0,0,0-2.021,1.355,3.71,3.71,0,0,0,6.156,4.093A3.146,3.146,0,0,0,936.277,159.677Z" fill="#19180f"/>
        </g>
        <g id="그룹_6320" data-name="그룹 6320">
          <path id="패스_7384" data-name="패스 7384" d="M965.581,159.035a7.463,7.463,0,0,1-1.163.038,12.2,12.2,0,0,0-1.3-.007,6.4,6.4,0,0,0-2.705.683,4.051,4.051,0,0,0-1.253,1.025,3.779,3.779,0,0,0-.468.755,3.373,3.373,0,0,0-.166.44,2.342,2.342,0,0,0-.063.244,1.308,1.308,0,0,0-.025.139,1.334,1.334,0,0,0-.018.195,1.149,1.149,0,0,0,.023.2,3.141,3.141,0,0,0,.1,1.459,3.709,3.709,0,0,0,7.051-2.218,3.218,3.218,0,0,0-1.564-1.864c.147-.034.294-.066.442-.1a8.108,8.108,0,0,0,1.25-.368,12.462,12.462,0,0,0,1.158-.493,4.733,4.733,0,0,0,1.054-.666A7.345,7.345,0,0,1,965.581,159.035Z" fill="#19180f"/>
        </g>
        <g id="그룹_6321" data-name="그룹 6321">
          <path id="패스_7385" data-name="패스 7385" d="M948.824,165.493a.465.465,0,0,1-.383-.35c-.428-1.758-.869-1.839-.931-1.859-.333-.032-.934.755-1.266,1.481a.466.466,0,0,1-.848-.386c.163-.357,1.032-2.133,2.2-2.022,1.043.087,1.491,1.51,1.748,2.565a.466.466,0,0,1-.342.563A.452.452,0,0,1,948.824,165.493Z" fill="#19180f"/>
        </g>
        <g id="그룹_6322" data-name="그룹 6322">
          <path id="패스_7386" data-name="패스 7386" d="M953.191,170.762a2.524,2.524,0,0,1,.315.013,1.874,1.874,0,0,1,1.4.882.466.466,0,1,1-.784.5.93.93,0,0,0-.723-.46c-1.409-.152-3.856,1.9-4.677,2.705a.466.466,0,0,1-.653-.664C948.391,173.43,951.112,170.814,953.191,170.762Z" fill="#1d1e1c"/>
        </g>
        <g id="그룹_6323" data-name="그룹 6323">
          <path id="패스_7387" data-name="패스 7387" d="M961.771,143.275a.233.233,0,0,1-.117-.406,6.943,6.943,0,0,1,4.758-1.522.241.241,0,0,1,.213.251.232.232,0,0,1-.251.213,6.577,6.577,0,0,0-4.416,1.41A.235.235,0,0,1,961.771,143.275Z" fill="#1d1e1c"/>
        </g>
        <g id="그룹_6324" data-name="그룹 6324">
          <path id="패스_7388" data-name="패스 7388" d="M940.014,140.015a.234.234,0,0,1-.163-.107,6.589,6.589,0,0,0-3.808-2.641.233.233,0,0,1-.177-.278.239.239,0,0,1,.277-.177,6.947,6.947,0,0,1,4.1,2.849.234.234,0,0,1-.232.354Z" fill="#1d1e1c"/>
        </g>
      </g>
    </g>
    <g id="Layer_5" data-name="Layer 5">
      <g id="그룹_6345" data-name="그룹 6345">
        <g id="그룹_6327" data-name="그룹 6327">
          <g id="그룹_6326" data-name="그룹 6326">
            <path id="패스_7389" data-name="패스 7389" d="M1197.358,113.514c-12.408-14.973-32.8-24.182-53.547-26.226-12.659-1.247-31.521-1.151-42.72,2.94-28.683,10.475-46.6,37.889-49.793,70.311-2.016,20.459,1.947,37.368,12.972,52.918,13.268,18.713,32.417,35.565,57.039,37.99,22.541,2.22,49.992-3.856,66.218-17.173s24.425-31.265,26.645-53.805C1216.569,156.136,1211.91,131.075,1197.358,113.514Zm-43.476,74.357c-4.879,5.99-10.592,9.549-17.716,10.277s-16.073-2.717-22.064-7.6c-6.544-5.329-8.813-13.729-9.059-21.551-.2-6.5,1.855-12.053,6.284-17.491,7.018-8.617,17.278-13.036,27.408-10.609,3.955.948,9.336,4.475,12.7,7.215,5.515,4.491,9.577,10.952,10.284,17.548C1162.547,173.4,1159.149,181.4,1153.882,187.871Z" fill="#efc46b"/>
          </g>
        </g>
        <g id="그룹_6329" data-name="그룹 6329">
          <g id="그룹_6328" data-name="그룹 6328">
            <path id="패스_7390" data-name="패스 7390" d="M1214.024,176.481l-.517-2.7c-.522-2.731-2.646-4.552-.035-8.272l.494-2.705a22.51,22.51,0,0,0-3.055-15.973l-1.458-2.331a22.506,22.506,0,0,1-3.02-7.7l-.517-2.7a22.509,22.509,0,0,0-8.619-13.791l-2.2-1.648a22.485,22.485,0,0,1-5.6-6.09l-1.457-2.331c-2.973-4.758-5.778-7.632-11.181-9.145l-4.022-.145c-2.678-.75-4.89-1.037-7.884-4.853l-2.2-1.648a22.508,22.508,0,0,0-15.661-4.385l-2.737.265a22.511,22.511,0,0,1-8.24-.729l-2.648-.741a22.5,22.5,0,0,0-16.186,1.569l-2.457,1.236a22.5,22.5,0,0,1-7.946,2.3l-2.737.265c-5.584.541-11.907-.821-15.669,3.341l-2.792,5.892c-1.865,2.063-2.007,3.879-4.491,5.129l-2.456,1.236c-4.48,2.255-5,4.6-6.493,8.813a6.352,6.352,0,0,1-1.788,2.645l-2.369,2.085a7.186,7.186,0,0,0-1.79,2.406,22.526,22.526,0,0,1-3.773,5.735l-1.844,2.04a22.508,22.508,0,0,0-5.811,15.189l.012,2.75a22.534,22.534,0,0,1-1.486,8.137l-.983,2.568c-1.931,5.047-1.671,9.267.182,14.238a6.386,6.386,0,0,1,.32,1.177l.343,2.05a16.415,16.415,0,0,0,.633,2.477,22.519,22.519,0,0,1,1.149,7.006l.011,2.749a22.511,22.511,0,0,0,5.939,15.14l1.86,2.024a22.5,22.5,0,0,1,4.385,7.015l1,2.56a22.509,22.509,0,0,0,11.006,11.972l2.467,1.215c2.494,1.229,4.468.616,6.35,2.664l2.542,3.1c3.8,4.13,8.591,7.914,14.179,8.408l2.739.243a22.517,22.517,0,0,1,7.966,2.23l2.466,1.215a22.507,22.507,0,0,0,14.088,1.934,6.12,6.12,0,0,0,3.382-1.887l1.761-1.92a3.016,3.016,0,0,1,3.989-.427c1.161.846,2.272,2.031,3.855,2.171l2.739.243a22.511,22.511,0,0,0,15.623-4.517l2.187-1.666a22.515,22.515,0,0,1,7.39-3.718l2.641-.764a22.509,22.509,0,0,0,12.937-9.855l1.437-2.343c1.455-2.371,3.04-2.441,5.252-4.126l2.292-1.537a3.382,3.382,0,0,1,2.168-.575c8.743.758,5.557-10.119,6.526-15.428l.494-2.705a22.5,22.5,0,0,1,2.956-7.726l1.437-2.344A22.507,22.507,0,0,0,1214.024,176.481Zm-51.5,5.364-.648.882a8.962,8.962,0,0,0-1.426,2.967l-.285,1.057a8.963,8.963,0,0,1-3.828,5.218l-.923.589a8.972,8.972,0,0,0-2.4,2.251l-.647.883a8.961,8.961,0,0,1-5.455,3.483l-1.073.216a4.731,4.731,0,0,0-3.531,1.052l-1.11,1.155a7.138,7.138,0,0,1-5.679.891l-1.078-.186a8.953,8.953,0,0,0-3.292.046l-1.073.216a8.962,8.962,0,0,1-6.378-1.1l-.938-.563a8.949,8.949,0,0,0-3.086-1.147l-1.079-.186a8.959,8.959,0,0,1-5.549-3.331l-.672-.864c-.411-1.761-1.514-1.614-2.463-2.184l-.938-.563a8.957,8.957,0,0,1-3.972-5.11l-.314-1.048a8.965,8.965,0,0,0-1.508-2.927l-.672-.864c-1.318-1.7-5.39-3.636-2.846-6.028a1.343,1.343,0,0,0,.4-.8l.152-1.088c.087-1.1.487-1.592.169-2.652l-.314-1.049a8.959,8.959,0,0,1,.508-6.452l.474-.986a8.952,8.952,0,0,0,.857-3.179l.086-1.091a8.956,8.956,0,0,1,2.8-5.833l.8-.748a3.211,3.211,0,0,1,1.666-.568,1.2,1.2,0,0,0,.932-1.3l-.1-1.031a2.442,2.442,0,0,1,.337-1.505,8.961,8.961,0,0,1,4.311-3.666l1.015-.41a8.983,8.983,0,0,0,2.775-1.771l.8-.749c1.629-1.527,4.024-1.945,6.256-1.976l1.593.067c1.107-.015,1.448-.763,2.475-1.177l1.015-.41a8.962,8.962,0,0,1,6.471-.09l1.026.382a8.98,8.98,0,0,0,3.244.56l1.094-.016a8.961,8.961,0,0,1,6.068,2.254l.818.726a8.943,8.943,0,0,0,2.384,1.518,6.648,6.648,0,0,1,.9.469l.7.442a2.559,2.559,0,0,0,.435.218,7.383,7.383,0,0,1,4.272,3.722l.5.973a8.937,8.937,0,0,0,2.021,2.6l.818.726a8.959,8.959,0,0,1,2.966,5.753l.116,1.089a8.942,8.942,0,0,0,.7,2.64,2.853,2.853,0,0,1,.239,1.169l-.01,1.256a2.53,2.53,0,0,0,.311,1.233c.855,1.56,1.412,2.337.892,4.264l-.285,1.056c-.288,1.069.214,1.593.331,2.693l1.007,2.391C1165.924,178.53,1163.843,180.044,1162.523,181.845Z" fill="#ffecd4"/>
          </g>
        </g>
        <g id="그룹_6331" data-name="그룹 6331">
          <g id="그룹_6330" data-name="그룹 6330">
            <path id="패스_7391" data-name="패스 7391" d="M1099.584,205.813a.813.813,0,0,1-.055-1.61l15.282-2.577a.813.813,0,0,1,.27,1.6L1099.8,205.8A.778.778,0,0,1,1099.584,205.813Z" fill="#1d1e1c"/>
          </g>
        </g>
        <g id="그룹_6333" data-name="그룹 6333">
          <g id="그룹_6332" data-name="그룹 6332">
            <path id="패스_7392" data-name="패스 7392" d="M1159.548,211.719a.781.781,0,0,1-.21-.049l-14.486-5.508a.813.813,0,0,1,.578-1.519l14.485,5.508a.812.812,0,0,1-.367,1.568Z" fill="#1d1e1c"/>
          </g>
        </g>
        <g id="그룹_6335" data-name="그룹 6335">
          <g id="그룹_6334" data-name="그룹 6334">
            <path id="패스_7393" data-name="패스 7393" d="M1133.275,220.161a12.9,12.9,0,0,1-6.753-2.882c-6.1,3.842-13.59-1.354-13.912-1.582a.542.542,0,0,1,.625-.885c.074.052,7.494,5.189,13.025,1.342a.541.541,0,0,1,.69.06A10.747,10.747,0,0,0,1140,217.483a.541.541,0,0,1,.553.931A11.747,11.747,0,0,1,1133.275,220.161Z" fill="#1d1e1c"/>
          </g>
        </g>
        <g id="그룹_6337" data-name="그룹 6337">
          <g id="그룹_6336" data-name="그룹 6336">
            <path id="패스_7394" data-name="패스 7394" d="M1127.454,212.706a2.17,2.17,0,0,1-1.262-.522,2.444,2.444,0,0,1-.646-2.186,2.212,2.212,0,0,1,1.073-1.969,2.065,2.065,0,0,1,1.881.288.541.541,0,0,1-.619.888c-.162-.11-.573-.3-.814-.19-.22.1-.382.5-.444,1.1a1.468,1.468,0,0,0,.292,1.266,1.523,1.523,0,0,0,1.173.231.542.542,0,0,1,.219,1.061A3.015,3.015,0,0,1,1127.454,212.706Z" fill="#1d1e1c"/>
          </g>
        </g>
        <g id="그룹_6344" data-name="그룹 6344">
          <g id="그룹_6341" data-name="그룹 6341">
            <g id="그룹_6338" data-name="그룹 6338">
              <path id="패스_7395" data-name="패스 7395" d="M1213.993,141.189a3.239,3.239,0,0,0-4.288-1.614l-40.278,18.248c3.733-2.97,7.673-6.055,11.172-8.795,6.446-5.048,13.112-10.268,17.944-14.267,2.643-2.189,4.569-3.87,5.886-5.14,1.58-1.522,3.742-3.607,2.593-6.143a3.241,3.241,0,0,0-4.6-1.453c-.117.07-11.858,7-24.492,13.675-9.228,4.879-15.571,7.859-19.917,9.673,5.858-5.084,13.648-11.96,20.3-18.52,13.623-13.431,15.37-18.486,13.8-21.944a3.242,3.242,0,0,0-4.578-1.465c-.152.088-15.448,8.95-31.751,17.462-27.609,14.414-34.964,15.779-36.746,15.785a3.241,3.241,0,0,0-5.192,3.679,4.617,4.617,0,0,0,2.868,2.476c2.064.66,5.715.686,17.136-4.147,6.372-2.7,14.577-6.654,24.385-11.763,8.472-4.413,16.717-8.946,22.789-12.345-1.979,2.278-4.731,5.2-8.557,8.912-7.769,7.542-16.918,15.439-22.385,20.157-.917.792-1.7,1.472-2.39,2.067a10.984,10.984,0,0,1,3.082,2.65,11.088,11.088,0,0,1,3.844,3.769c.213.2.421.4.617.617.155.135.307.273.453.416,1.532-.518,3.324-1.2,5.452-2.1,4.4-1.859,9.868-4.481,16.294-7.807l-.836.655c-6.286,4.922-12.761,9.994-17.756,14.1.112.316.212.638.3.965a12,12,0,0,1,1,2.713,12.16,12.16,0,0,1,1.726,6.657l50.51-22.885A3.239,3.239,0,0,0,1213.993,141.189Z" fill="#683b13"/>
            </g>
            <g id="그룹_6339" data-name="그룹 6339">
              <path id="패스_7396" data-name="패스 7396" d="M1119.753,137.692l0,0Z" fill="#683b13"/>
            </g>
            <g id="그룹_6340" data-name="그룹 6340">
              <path id="패스_7397" data-name="패스 7397" d="M1186.1,107.092Z" fill="#683b13"/>
            </g>
          </g>
          <g id="그룹_6343" data-name="그룹 6343">
            <g id="그룹_6342" data-name="그룹 6342">
              <path id="패스_7398" data-name="패스 7398" d="M1187.519,99.046a5.548,5.548,0,0,0-3.446-2.99c-3.882-1.295-12.59-.71-45.754,15.485-20.53,10.026-44.3,23.019-61.653,32.505-1.87,1.022-3.723,2.035-5.529,3.02q5.171-3.375,11.879-7.418c15.9-9.581,35.676-20.416,51.567-29.122,8.9-4.875,16.584-9.085,22.1-12.252,2.965-1.7,5.112-2.994,6.563-3.948a20.419,20.419,0,0,0,1.973-1.432c2.167-1.849,1.644-3.72,1.319-4.438a3.845,3.845,0,0,0-2.259-2.036c-2.217-.781-6.11-.594-29.084,10.168-13.8,6.463-30.595,14.919-45.417,22.379-6.237,3.139-12.561,6.322-18.029,9.03,7.139-6.229,15.92-13.66,22.4-19.147,4.892-4.141,9.118-7.717,12.237-10.409,1.676-1.447,2.9-2.52,3.728-3.282,1.434-1.312,3.059-2.8,2.039-5.05a3.241,3.241,0,0,0-1.818-1.7c-1.263-.472-2.09-.11-3.588.546-.721.316-1.739.771-2.956,1.319-2.138.962-5.1,2.308-8.812,4-6.384,2.912-12.745,5.833-12.745,5.833a3.24,3.24,0,1,0,2.7,5.889c1.694-.778,3.589-1.647,5.559-2.549l-.536.453c-7.918,6.7-16.893,14.3-23.941,20.49-3.879,3.408-6.733,6-8.725,7.932-2.883,2.792-4.966,4.809-3.814,7.352a3.35,3.35,0,0,0,1.931,1.766c1.368.483,2.612.128,5.657-1.184,1.808-.779,4.319-1.948,7.676-3.573,6.252-3.027,14.844-7.352,23.941-11.931,8.885-4.472,18.51-9.316,27.756-13.865-14.564,8.014-30.595,16.968-43.672,24.964a214.839,214.839,0,0,0-20.389,13.7c-5.022,3.978-9.413,8.225-7.554,12.329a3.328,3.328,0,0,0,1.971,1.774c1.568.522,2.562.264,10.447-3.89,4.649-2.449,11.078-5.963,18.522-10.033,17.516-9.574,41.505-22.688,62.055-32.692,6.788-3.306,12.82-6.083,18.036-8.308-12.644,6.258-28.9,14.526-44.836,23.252-19.561,10.713-34.826,20.023-45.373,27.672-15.078,10.934-20.606,18.45-17.924,24.369a3.31,3.31,0,0,0,1.858,1.723,3.373,3.373,0,0,0,.83.195c1.06.1,2.2-.334,4.286-1.185,1.563-.637,3.78-1.592,6.591-2.84,4.7-2.086,11.147-5.028,19.166-8.744,8.045-3.728,16.091-7.5,21.368-9.989a9.742,9.742,0,0,1,1.39-4.2c0-.17.006-.339.015-.51a8.542,8.542,0,0,1,1.029-3.605c-15.621,7.391-38.662,18.137-48.975,22.614,1.9-2.558,5.881-6.572,14.162-12.578,10.323-7.487,25.351-16.648,44.667-27.228,33.011-18.082,67.475-34.2,67.819-34.361A3.239,3.239,0,0,0,1187.519,99.046Z" fill="#683b13"/>
            </g>
          </g>
        </g>
      </g>
    </g>
    <g id="Layer_6" data-name="Layer 6">
      <g id="그룹_6351" data-name="그룹 6351">
        <path id="패스_7399" data-name="패스 7399" d="M1422.505,272.715c-.952-5.8-4.36-11.289-7.723-15.632-4.73-6.108-10.4-10.216-17.957-12.046-4.085-.989-8.278-.386-12.665.329a25.8,25.8,0,0,0,5.92-5.059,34.088,34.088,0,0,0,5.984-10.134c2.371-6.281,1.956-12.664.69-18.786-1.189-5.758-3.037-11.3-6.915-15.751a34.006,34.006,0,0,0-13.665-9.48c-5.5-2.076-11.956-1.868-17.4-1.127-7.655,1.042-14.045,3.895-19.41,9.527-2.9,3.044-4.474,6.977-6.048,11.133a25.828,25.828,0,0,0-1.421-7.656,34.1,34.1,0,0,0-5.785-10.249c-4.254-5.194-9.989-8.026-15.924-9.991-5.581-1.849-11.306-3.021-17.1-1.887A34.006,34.006,0,0,0,1278.047,183c-4.548,3.725-7.6,9.421-9.676,14.505-2.925,7.151-3.649,14.11-1.454,21.574,1.186,4.032,3.805,7.362,6.617,10.8a25.823,25.823,0,0,0-7.341-2.6,34.09,34.09,0,0,0-11.768-.115c-6.625,1.087-11.945,4.638-16.614,8.795-4.392,3.909-8.27,8.281-10.183,13.864a34.005,34.005,0,0,0-1.378,16.574c.952,5.8,4.36,11.289,7.723,15.632,4.731,6.109,10.4,10.216,17.957,12.046,4.085.989,8.279.386,12.665-.329a25.8,25.8,0,0,0-5.92,5.059,34.087,34.087,0,0,0-5.984,10.134c-2.371,6.281-1.955,12.664-.69,18.786,1.19,5.758,3.037,11.3,6.915,15.751a34.006,34.006,0,0,0,13.665,9.48c5.5,2.076,11.956,1.868,17.4,1.127,7.655-1.042,14.045-3.895,19.411-9.527,2.9-3.043,4.474-6.977,6.047-11.133a25.814,25.814,0,0,0,1.421,7.656,34.081,34.081,0,0,0,5.785,10.249c4.254,5.194,9.99,8.026,15.924,9.991,5.581,1.849,11.307,3.022,17.1,1.887a34.008,34.008,0,0,0,15.042-7.094c4.548-3.725,7.6-9.421,9.676-14.5,2.925-7.151,3.65-14.111,1.454-21.574-1.186-4.033-3.805-7.363-6.617-10.8a25.824,25.824,0,0,0,7.341,2.6,34.09,34.09,0,0,0,11.768.115c6.625-1.087,11.946-4.638,16.615-8.795,4.391-3.909,8.27-8.281,10.182-13.864A33.994,33.994,0,0,0,1422.505,272.715ZM1355.1,283.773a29.432,29.432,0,0,0,6.192,13.517c-4.966-2.585-9.129-2.8-13.769-2.692-3.277.079-5.856,1.579-9.024,2.609a34.084,34.084,0,0,0-11.069,6.063,29.435,29.435,0,0,0-8.609,12.12c-.245-5.593-2.136-9.307-4.553-13.269-1.708-2.8-4.3-4.283-6.772-6.511a34.061,34.061,0,0,0-10.785-6.554,29.438,29.438,0,0,0-14.8-1.4c4.721-3.009,6.992-6.5,9.215-10.578,1.57-2.878,1.561-5.862,2.253-9.12a34.061,34.061,0,0,0,.283-12.617,29.44,29.44,0,0,0-6.191-13.517c4.966,2.585,9.128,2.8,13.768,2.692,3.277-.079,5.856-1.579,9.025-2.609a34.05,34.05,0,0,0,11.068-6.063,29.438,29.438,0,0,0,8.61-12.12c.244,5.593,2.136,9.307,4.553,13.269,1.707,2.8,4.3,4.283,6.772,6.511a34.056,34.056,0,0,0,10.784,6.554,29.453,29.453,0,0,0,14.8,1.4c-4.722,3.008-6.993,6.5-9.216,10.577-1.57,2.878-1.56,5.862-2.252,9.12A34.061,34.061,0,0,0,1355.1,283.773Z" fill="#683b13"/>
        <g id="그룹_6350" data-name="그룹 6350">
          <g id="그룹_6346" data-name="그룹 6346">
            <path id="패스_7400" data-name="패스 7400" d="M1318.017,210.624a3.4,3.4,0,0,0-3.23,1.739,1.725,1.725,0,0,1-.767.083,1.149,1.149,0,0,1-.762-.567,2.807,2.807,0,0,1-.374-1.127,3.065,3.065,0,0,0-.072,1.29,1.881,1.881,0,0,0,.79,1.255,2.325,2.325,0,0,0,.779.332c-.006.044-.014.088-.017.134a3.406,3.406,0,1,0,3.653-3.139Z" fill="#1d1e1c"/>
          </g>
          <g id="그룹_6347" data-name="그룹 6347">
            <path id="패스_7401" data-name="패스 7401" d="M1341.313,209.807a2.812,2.812,0,0,1-.6,1.023,1.148,1.148,0,0,1-.865.394,1.717,1.717,0,0,1-.732-.242,3.4,3.4,0,1,0,.12,1.457c.006-.045.007-.09.012-.134a2.331,2.331,0,0,0,.831-.161,1.884,1.884,0,0,0,1.035-1.061A3.04,3.04,0,0,0,1341.313,209.807Z" fill="#1d1e1c"/>
          </g>
          <g id="그룹_6348" data-name="그룹 6348">
            <path id="패스_7402" data-name="패스 7402" d="M1322.853,220.894c-1.463-.111-1.557-.467-1.633-.757-.188-.706.627-1.082.934-1.224,2.013-.929,3.059-4.408,3.293-5.67a.644.644,0,0,1,1.266.234c-.036.193-.832,4.356-3.259,6.151,1.07.016,2.64-.057,4.022-.177a.644.644,0,0,1,.11,1.283A31.881,31.881,0,0,1,1322.853,220.894Z" fill="#1d1e1c"/>
          </g>
          <g id="그룹_6349" data-name="그룹 6349">
            <path id="패스_7403" data-name="패스 7403" d="M1359.079,196.946a45.775,45.775,0,0,0-6.1,1.92,51.2,51.2,0,0,0-4.839-5.214.518.518,0,0,0-.889.408,6.5,6.5,0,0,1-.574,2.6c-.659,1.828-2.81,3.933.7,3.677,1.452-.107,5.391-.907,5.391-.907a20.975,20.975,0,0,0,3.161,3.536c3.949,2.616,2.786.269,3.323-2.151a22.7,22.7,0,0,1,.909-2.949C1360.292,197.374,1360.039,196.824,1359.079,196.946Z" fill="#e6276f"/>
          </g>
        </g>
      </g>
    </g>
    <g id="Layer_1" data-name="Layer 1">
      <g id="그룹_6352" data-name="그룹 6352">
        <path id="패스_7404" data-name="패스 7404" d="M.284,165.624s10.1-28.8,36.209-25.328c24.663,3.27,23.051,32.061,23.051,32.061s2.838-16.869,17.728-15.957,13.915,16.607,13.915,16.607a21.739,21.739,0,0,1,17.56-13.523c13.448-1.629,17.087,10.982,17.087,10.982s-2.869-23.859,15.592-32.544c24.182-11.379,38.5,11.657,38.5,11.657s5.358-8.07,14.117-5.826a19.878,19.878,0,0,1,12.26,8.815s1.556-11.653,12.6-10.733,11.341,5.3,11.341,5.3.269-12.877,14.887-13.142S262.7,148.45,262.7,148.45L229.652,194.3,0,249.545Z" fill="#ffe395"/>
      </g>
      <g id="그룹_6353" data-name="그룹 6353">
        <path id="패스_7405" data-name="패스 7405" d="M479.361,141.261s-6.9-20.292-22.277-19.119-14.7,10.048-14.7,10.048-4.9-13.614-20.126-10.367-13.675,11.749-13.675,11.749a18.9,18.9,0,0,0-20.558-8.248s10.464-34.408-9.494-34.675-15.033,36.842-15.033,36.842-14.783-3.895-19.438,9.959c0,0-21.989-3.432-18.136,19.734Z" fill="#ffe395"/>
      </g>
      <g id="그룹_6354" data-name="그룹 6354">
        <path id="패스_7406" data-name="패스 7406" d="M334.511,157.4s-4.467-28.126-22.845-25.463-17.341,12.982-17.341,12.982,6.287-37.423-25.018-34.473-16.818,42.383-16.818,42.383-26.576-1.884-33.141,22.6Z" fill="#eec759"/>
      </g>
      <g id="그룹_6355" data-name="그룹 6355">
        <path id="패스_7407" data-name="패스 7407" d="M1920,300.354s-327.549,59.846-683.3-41.506c-271.91-77.466-527.721-118.717-715.5-120.573C196.513,145.821.284,239.66.284,239.66L0,617.252H1920Z" fill="#a1b56d"/>
      </g>
      <g id="그룹_6356" data-name="그룹 6356">
        <path id="패스_7408" data-name="패스 7408" d="M979.146,243.261a2.351,2.351,0,0,0,1.231-.676,2.378,2.378,0,0,0-.046-3.362c-2.549-2.479-9.7-3.583-22.854-4.865-2.274-.222-4.239-.413-5.266-.577a2.385,2.385,0,0,0-.75,4.71c1.169.187,3.1.376,5.554.615,4.964.483,18.149,1.767,19.991,3.537A2.392,2.392,0,0,0,979.146,243.261Z" fill="#72995c"/>
      </g>
      <g id="그룹_6357" data-name="그룹 6357">
        <path id="패스_7409" data-name="패스 7409" d="M938.064,238.2a2.386,2.386,0,0,0-.377-4.72c-.823-.036-1.336-.061-1.69-.078a17.051,17.051,0,0,0-1.742-.027l-.939.015a2.385,2.385,0,1,0,.068,4.769l.954-.015c.722-.013.722-.013,1.424.021.36.018.882.044,1.719.081A2.44,2.44,0,0,0,938.064,238.2Z" fill="#72995c"/>
      </g>
      <g id="그룹_6358" data-name="그룹 6358">
        <path id="패스_7410" data-name="패스 7410" d="M948.134,253.564a2.385,2.385,0,0,0,.008-4.672c-1.013-.211-2.042-.433-3.085-.657-6.85-1.473-14.613-3.143-21.765-2.49a2.385,2.385,0,1,0,.433,4.75c6.428-.586,13.494.933,20.329,2.4,1.054.226,2.095.45,3.118.662A2.38,2.38,0,0,0,948.134,253.564Z" fill="#72995c"/>
      </g>
      <g id="그룹_6359" data-name="그룹 6359">
        <path id="패스_7411" data-name="패스 7411" d="M909.414,238.764a2.386,2.386,0,0,0-.174-4.7l-1.784-.231c-1.907-.247-1.94-.25-3.556-.389-.79-.067-1.979-.169-4-.352a2.385,2.385,0,1,0-.43,4.751c2.034.184,3.229.286,4.025.354,1.527.13,1.527.13,3.349.367l1.789.23A2.373,2.373,0,0,0,909.414,238.764Z" fill="#72995c"/>
      </g>
      <g id="그룹_6360" data-name="그룹 6360">
        <path id="패스_7412" data-name="패스 7412" d="M758.029,201.831a2.385,2.385,0,0,0,.77-4.643,141.463,141.463,0,0,0-25.65-5.683,2.385,2.385,0,1,0-.686,4.72,137.249,137.249,0,0,1,24.8,5.477A2.377,2.377,0,0,0,758.029,201.831Z" fill="#72995c"/>
      </g>
      <g id="그룹_6361" data-name="그룹 6361">
        <path id="패스_7413" data-name="패스 7413" d="M715.55,194.8a8.965,8.965,0,0,0,1.2-.078,2.385,2.385,0,0,0-.641-4.727,11.189,11.189,0,0,1-3.971-.59c-.693-.18-1.409-.367-2.129-.505a2.384,2.384,0,0,0-.9,4.684c.564.109,1.175.268,1.82.436A18.33,18.33,0,0,0,715.55,194.8Z" fill="#72995c"/>
      </g>
      <g id="그룹_6362" data-name="그룹 6362">
        <path id="패스_7414" data-name="패스 7414" d="M731.616,209.939a2.385,2.385,0,0,0,.444-4.728c-4.045-.772-8.24-1.5-12.3-2.2-3.946-.682-8.025-1.387-11.956-2.132a2.385,2.385,0,1,0-.888,4.686c3.968.752,8.066,1.461,12.031,2.146,4.037.7,8.211,1.42,12.216,2.184A2.377,2.377,0,0,0,731.616,209.939Z" fill="#72995c"/>
      </g>
      <g id="그룹_6363" data-name="그룹 6363">
        <path id="패스_7415" data-name="패스 7415" d="M691.694,195.449a2.385,2.385,0,0,0,.155-4.765l-.76-.048a3.832,3.832,0,0,1-1.3-.207c-.47-.143-1.213-.368-2.6-.738a2.385,2.385,0,0,0-1.23,4.608c1.3.347,2,.56,2.441.694a7.58,7.58,0,0,0,2.391.4l.738.047Q691.613,195.449,691.694,195.449Z" fill="#72995c"/>
      </g>
      <g id="그룹_6364" data-name="그룹 6364">
        <path id="패스_7416" data-name="패스 7416" d="M686.739,204.292a2.385,2.385,0,0,0,.774-4.641c-6.572-2.255-13.487-2.636-20.173-3a117.381,117.381,0,0,1-11.718-1.035,2.384,2.384,0,1,0-.745,4.71,120.486,120.486,0,0,0,12.2,1.089c6.654.365,12.941.712,18.887,2.751A2.381,2.381,0,0,0,686.739,204.292Z" fill="#72995c"/>
      </g>
      <g id="그룹_6365" data-name="그룹 6365">
        <path id="패스_7417" data-name="패스 7417" d="M419.848,160.114l.086,0c1.893-.066,3.732-.223,5.511-.375a44,44,0,0,1,11.483.017,2.385,2.385,0,1,0,.816-4.7,48.323,48.323,0,0,0-12.7-.071c-1.72.148-3.5.3-5.273.362a2.385,2.385,0,0,0,.082,4.768Z" fill="#72995c"/>
      </g>
      <g id="그룹_6366" data-name="그룹 6366">
        <path id="패스_7418" data-name="패스 7418" d="M402.065,161.7c.074,0,.149,0,.224-.01.9-.084,1.81-.113,2.775-.143.994-.032,2.022-.065,3.064-.162a2.385,2.385,0,1,0-.445-4.75c-.9.084-1.806.113-2.77.144-.994.031-2.022.064-3.067.162a2.385,2.385,0,0,0,.219,4.759Z" fill="#72995c"/>
      </g>
      <g id="그룹_6367" data-name="그룹 6367">
        <path id="패스_7419" data-name="패스 7419" d="M461.846,173.44a2.385,2.385,0,0,0,.4-4.734,97.76,97.76,0,0,0-33.584-.061,2.385,2.385,0,1,0,.892,4.686,92.848,92.848,0,0,1,31.876.074A2.4,2.4,0,0,0,461.846,173.44Z" fill="#72995c"/>
      </g>
      <g id="그룹_6368" data-name="그룹 6368">
        <path id="패스_7420" data-name="패스 7420" d="M408.315,174.576c.028,0,.056,0,.084,0,.53-.018,1.067-.041,1.609-.064,1.666-.072,3.392-.146,4.958-.07a2.385,2.385,0,0,0,.229-4.764c-1.788-.084-3.62-.007-5.392.069-.528.022-1.051.044-1.568.063a2.385,2.385,0,0,0,.08,4.768Z" fill="#72995c"/>
      </g>
      <g id="그룹_6369" data-name="그룹 6369">
        <path id="패스_7421" data-name="패스 7421" d="M383.312,171.39a2.377,2.377,0,0,0,1.839-.867,2.547,2.547,0,0,0,.32-2.8c-.882-1.7-2.61-1.81-8.536-1.339l-.409.032a2.385,2.385,0,1,0,.315,4.759l.47-.036c2.6-.206,3.92-.231,4.583-.216A2.377,2.377,0,0,0,383.312,171.39Z" fill="#72995c"/>
      </g>
      <g id="그룹_6380" data-name="그룹 6380">
        <g id="그룹_6370" data-name="그룹 6370">
          <path id="패스_7422" data-name="패스 7422" d="M1717.744,371.021a2.385,2.385,0,0,0,.351,4.756c3.428-.174,6.784-.3,10.03-.411,10.626-.381,20.661-.74,31.745-2.9a2.385,2.385,0,1,0-.913-4.682c-10.716,2.091-20.57,2.443-31,2.817-3.263.117-6.637.238-10.1.415C1717.816,371.015,1717.78,371.018,1717.744,371.021Z" fill="#72995c"/>
        </g>
        <g id="그룹_6371" data-name="그룹 6371">
          <path id="패스_7423" data-name="패스 7423" d="M1787.5,364.258c.589.01,1.026.019,1.241.019a2.386,2.386,0,1,1-.015,4.771c-.226,0-.69-.01-1.313-.021a104.329,104.329,0,0,0-10.664.072,2.386,2.386,0,0,1-2.894-.1,2.471,2.471,0,0,1-.788-2.792c.392-1.071.858-1.626,3.392-1.869C1778.482,364.149,1781.825,364.155,1787.5,364.258Zm-10.626,1.052,0,0Z" fill="#72995c"/>
        </g>
        <g id="그룹_6372" data-name="그룹 6372">
          <path id="패스_7424" data-name="패스 7424" d="M1748.325,349.422a2.385,2.385,0,0,0,.406,4.752l.872-.065c7.3-.544,14.852-1.106,22.281-1.884a2.385,2.385,0,0,0-.476-4.746l-.02,0c-7.355.769-14.874,1.329-22.139,1.871l-.873.066Z" fill="#72995c"/>
        </g>
        <g id="그룹_6373" data-name="그룹 6373">
          <path id="패스_7425" data-name="패스 7425" d="M1785.007,344.666a4.354,4.354,0,0,0-1.385.417l-.521.221a2.385,2.385,0,0,0,1.825,4.407l.577-.245.106-.045h0c.3.011.739.027,1.491.016a2.385,2.385,0,1,0-.073-4.77c-.627.01-1,0-1.243-.013A6.011,6.011,0,0,0,1785.007,344.666Z" fill="#72995c"/>
        </g>
        <g id="그룹_6374" data-name="그룹 6374">
          <path id="패스_7426" data-name="패스 7426" d="M1681.964,347.577a2.385,2.385,0,0,0,.068,4.754c2.041.139,4.066.289,6.079.437,12.55.926,24.386,1.8,37.184.3a2.385,2.385,0,0,0-.557-4.737c-12.329,1.442-23.961.59-36.276-.318-2.022-.148-4.055-.3-6.1-.439A2.462,2.462,0,0,0,1681.964,347.577Z" fill="#72995c"/>
        </g>
        <g id="그룹_6375" data-name="그룹 6375">
          <path id="패스_7427" data-name="패스 7427" d="M1260.886,295.957a2.384,2.384,0,0,0-1.016,4.41c10.482,6.387,24.177,10,33.566,12.166a2.384,2.384,0,1,0,1.071-4.647c-9.066-2.09-22.264-5.564-32.154-11.592A2.37,2.37,0,0,0,1260.886,295.957Z" fill="#72995c"/>
        </g>
        <g id="그룹_6376" data-name="그룹 6376">
          <path id="패스_7428" data-name="패스 7428" d="M1306.174,311.233a2.385,2.385,0,0,0-.439,4.665q2.157.625,4.293,1.254a2.385,2.385,0,1,0,1.341-4.577q-2.147-.629-4.3-1.257A2.366,2.366,0,0,0,1306.174,311.233Z" fill="#72995c"/>
        </g>
        <g id="그룹_6377" data-name="그룹 6377">
          <path id="패스_7429" data-name="패스 7429" d="M1256.519,278.081a2.384,2.384,0,0,0-.894,4.48,48.76,48.76,0,0,0,5.491,2.4,2.384,2.384,0,0,0,1.717-4.449,45.159,45.159,0,0,1-4.969-2.16A2.373,2.373,0,0,0,1256.519,278.081Z" fill="#72995c"/>
        </g>
        <g id="그룹_6378" data-name="그룹 6378">
          <path id="패스_7430" data-name="패스 7430" d="M1282.79,285.022a2.386,2.386,0,0,0-.9,4.476c10.01,5.372,21.112,7.908,31.848,10.361,4.978,1.137,10.126,2.313,15.023,3.75a2.385,2.385,0,0,0,1.342-4.578c-5.036-1.476-10.255-2.668-15.3-3.821-10.428-2.383-21.212-4.846-30.654-9.915A2.38,2.38,0,0,0,1282.79,285.022Z" fill="#72995c"/>
        </g>
        <g id="그룹_6379" data-name="그룹 6379">
          <path id="패스_7431" data-name="패스 7431" d="M1333.249,312.874c.237.054.572.124.919.193a2.521,2.521,0,0,1,.865-.065,3.065,3.065,0,0,1,1.287.429,2.42,2.42,0,0,1,1.543,2.909c-.523,1.9-2.016,1.936-4.129,1.523-1.155-.121-2.665-.485-3.251-1.536a2.386,2.386,0,0,1,.182-2.6,2.352,2.352,0,0,1,1.646-.925A2.847,2.847,0,0,1,1333.249,312.874Zm2.152,2.757h0Z" fill="#72995c"/>
        </g>
      </g>
      <g id="그룹_6381" data-name="그룹 6381">
        <path id="패스_7432" data-name="패스 7432" d="M498,356.785s.141-6.351-5.5-15.939c0,0,6.629,2.254,11,12.553A124.31,124.31,0,0,0,489.116,307s15.938,12.974,25.528,40.621c0,0,.962-16.407,3.667-28.636,4.118-18.6,15.656-27.362,15.656-27.362a153.242,153.242,0,0,0-7.007,29.5,216.106,216.106,0,0,0-1.738,28.324s2.539-16.075,22.708-28.629c0,0-13.963,17.206-15.091,30.748,0,0,2.115-5.924,15.373-11.28,0,0-7.052,6.344-8.744,15.512Z" fill="#7b9660"/>
      </g>
      <g id="그룹_6382" data-name="그룹 6382">
        <path id="패스_7433" data-name="패스 7433" d="M337.477,294.139s-1.2-32.072-12.01-54.71c0,0,15.607,16.294,18.869,43.739,0,0-.687-45.79,13.718-64.831,0,0-5.829,35.325-1.889,65.852,0,0,12.011-27.436,26.244-36.7,0,0-17.839,28.133-18.7,46.477Z" fill="#7b9660"/>
      </g>
      <g id="그룹_6383" data-name="그룹 6383">
        <rect id="사각형_2330" data-name="사각형 2330" width="10.319" height="1.862" transform="translate(966.742 149.901) rotate(-57.309)" fill="#fff096"/>
      </g>
      <path id="패스_7434" data-name="패스 7434" d="M1669.9,322.471c-3.986,11.029-15.225,13.6-26.255,9.616s-17.672-13.023-13.685-24.053,14.276-12.083,25.3-8.1S1673.883,311.442,1669.9,322.471Z" fill="#f7c7c5"/>
      <path id="패스_7435" data-name="패스 7435" d="M1780.525,309.666c3.089,11.313-4.62,19.887-15.934,22.977s-21.947-.477-25.036-11.79,4.718-18.1,16.031-21.188S1777.436,298.352,1780.525,309.666Z" fill="#f7c7c5"/>
      <g id="그룹_6386" data-name="그룹 6386">
        <g id="그룹_6384" data-name="그룹 6384">
          <path id="패스_7436" data-name="패스 7436" d="M621.631,140.449c-1.059,7.171-7.551,10.112-14.723,9.053s-12.307-5.716-11.248-12.888,7.163-9.075,14.335-8.016S622.69,133.277,621.631,140.449Z" fill="#f4b573"/>
        </g>
        <g id="그룹_6385" data-name="그룹 6385">
          <path id="패스_7437" data-name="패스 7437" d="M661.083,145.977c-.888,7.195-7.308,10.289-14.5,9.4s-12.439-5.422-11.551-12.616,6.944-9.243,14.139-8.356S661.971,138.782,661.083,145.977Z" fill="#f4b573"/>
        </g>
      </g>
      <g id="그룹_6389" data-name="그룹 6389">
        <g id="그룹_6387" data-name="그룹 6387">
          <path id="패스_7438" data-name="패스 7438" d="M784.4,160.706c-2.125,8.192-10.028,10.794-18.22,8.668s-13.57-8.173-11.444-16.365,9.447-9.638,17.639-7.513S786.521,152.514,784.4,160.706Z" fill="#f4b573"/>
        </g>
        <g id="그룹_6388" data-name="그룹 6388">
          <path id="패스_7439" data-name="패스 7439" d="M829.5,172.054c-1.93,8.24-9.769,11.029-18.009,9.1s-13.761-7.848-11.83-16.088,9.216-9.86,17.455-7.93S831.426,163.814,829.5,172.054Z" fill="#f4b573"/>
        </g>
      </g>
      <g id="그룹_6392" data-name="그룹 6392">
        <g id="그룹_6390" data-name="그룹 6390">
          <path id="패스_7440" data-name="패스 7440" d="M1313.3,278.328c-1.081,8.393-8.595,11.966-16.988,10.885s-14.489-6.406-13.408-14.8,8.164-10.747,16.558-9.666S1314.383,269.934,1313.3,278.328Z" fill="#f4b573"/>
        </g>
        <g id="그룹_6391" data-name="그룹 6391">
          <path id="패스_7441" data-name="패스 7441" d="M1359.471,283.928c-.881,8.416-8.308,12.167-16.725,11.286s-14.637-6.06-13.756-14.477,7.906-10.938,16.323-10.057S1360.352,275.51,1359.471,283.928Z" fill="#f4b573"/>
        </g>
      </g>
      <g id="그룹_6395" data-name="그룹 6395">
        <g id="그룹_6393" data-name="그룹 6393">
          <path id="패스_7442" data-name="패스 7442" d="M934.47,183.615c-1.98,7.292-9.063,9.536-16.355,7.555s-12.034-7.434-10.053-14.726,8.532-8.51,15.825-6.53S936.45,176.323,934.47,183.615Z" fill="#f4b573"/>
        </g>
        <g id="그룹_6394" data-name="그룹 6394">
          <path id="패스_7443" data-name="패스 7443" d="M974.623,194.2c-1.806,7.337-8.833,9.748-16.171,7.942s-12.207-7.146-10.4-14.483,8.328-8.711,15.665-6.9S976.429,186.864,974.623,194.2Z" fill="#f4b573"/>
        </g>
      </g>
      <g id="그룹_6398" data-name="그룹 6398">
        <g id="그룹_6396" data-name="그룹 6396">
          <path id="패스_7444" data-name="패스 7444" d="M1477.515,305.637c-.374,7.547-6.812,11.255-14.359,10.881s-13.346-4.686-12.972-12.233,6.513-10.139,14.06-9.766S1477.888,298.09,1477.515,305.637Z" fill="#f4b573"/>
        </g>
        <g id="그룹_6397" data-name="그룹 6397">
          <path id="패스_7445" data-name="패스 7445" d="M1519,307.384c-.194,7.553-6.541,11.413-14.1,11.219s-13.454-4.367-13.26-11.921,6.27-10.291,13.824-10.1S1519.2,299.829,1519,307.384Z" fill="#f4b573"/>
        </g>
      </g>
      <g id="그룹_6401" data-name="그룹 6401">
        <g id="그룹_6399" data-name="그룹 6399">
          <path id="패스_7446" data-name="패스 7446" d="M1112.171,228.486c-2.546,9.774-11.981,12.87-21.755,10.323s-16.186-9.771-13.639-19.545,11.288-11.491,21.062-8.945S1114.718,218.713,1112.171,228.486Z" fill="#f4b573"/>
        </g>
        <g id="그룹_6400" data-name="그룹 6400">
          <path id="패스_7447" data-name="패스 7447" d="M1165.983,242.085c-2.313,9.831-11.671,13.15-21.5,10.837s-16.414-9.383-14.1-19.215,11.011-11.756,20.842-9.443S1168.3,232.253,1165.983,242.085Z" fill="#f4b573"/>
        </g>
      </g>
    </g>
  </g>
</svg>
