<svg xmlns="http://www.w3.org/2000/svg" viewBox="0 0 1388.11 498.94"><defs><style>.cls-1{fill:#677ca0;}.cls-2{fill:#ef8599;}.cls-3{fill:#f0c56d;}.cls-4{fill:#f4b573;}.cls-5{fill:#fff397;}.cls-6{fill:#fff;}.cls-7{fill:#dfdfdf;}.cls-8{fill:#1d1d1b;}.cls-9{fill:#e6969f;}.cls-10{fill:#6a917b;}.cls-11{fill:#445e44;}.cls-12{fill:#ffe9d4;}</style></defs><title>Asset 8</title><g id="Layer_2" data-name="Layer 2"><g id="Layer_1-2" data-name="Layer 1"><path class="cls-1" d="M245.2,7,1337.3,0V490.4l-1092.1,7C109.78,497.35,0,387.57,0,252.15S109.78,7,245.2,7Z"/><circle class="cls-2" cx="248.14" cy="250.26" r="222.67"/><path class="cls-3" d="M404.61,258.92c-4.94,17.72-12.23,28.9-22.62,42.72-6.24,8.3-14.8,14.38-22.72,20.88a130.19,130.19,0,0,1-32.9,19.71,129,129,0,0,1-79.26,6.26c-15.47-3.68-19.23-4.57-36-14.47a120.68,120.68,0,0,1-33-27.95,130.32,130.32,0,0,1-21.51-36c-5.6-14.12-11.71-26.62-12-42.24a119.75,119.75,0,0,1,3.12-31.36c2.54-10.7,7.24-24.95,12.1-34.28,6-11.57,12.68-25.49,21.86-33.77,8.8-7.94,17.68-16.72,31.58-22.08a198.89,198.89,0,0,1,45.43-12.07c15.65-2.25,32.51-3.94,48.83-.07a148.13,148.13,0,0,1,55.18,26.33c13.11,10.27,21.34,21.09,28.65,32.78,5.67,9.06,7.61,19.77,10.91,30a133,133,0,0,1,6.2,46.32C407.79,243.44,409.43,241.67,404.61,258.92Z"/><path class="cls-4" d="M165,280.78h-.26c-.22,0-21.67.21-65-21.65-1.78-7.6-8.27-23.58-12.12-22-4.59,1.93,1.08,14.53,1.08,14.53S73.54,238.07,71.3,240.26c-3.14,3.08,12.76,15.81,12.76,15.81S60.24,244.73,61,249.46s19.91,12.8,19.91,12.8-25.68-4.64-24.17.6,23.56,7.84,23.56,7.84-25.59,7.76-10.84,9.42c11.24,1.26,21.18-5.39,25.29-8.63,43.1,21.56,66.12,22.55,69.9,22.55h.53a6.63,6.63,0,0,0-.2-13.25Z"/><path class="cls-5" d="M404.09,232.57c-.75,19-5.42,32-12.58,48.43-4.29,9.84-11.46,18-17.88,26.46a134.84,134.84,0,0,1-28.43,27.71,133.5,133.5,0,0,1-78.32,25.25c-16.46,0-20.45,0-39.68-6a124.78,124.78,0,0,1-40-20.25A134.54,134.54,0,0,1,157,303.11c-9-12.88-18.16-24-22.2-39.67a124.07,124.07,0,0,1-4.36-32.33c0-11.39,1.32-26.86,4-37.41,3.32-13.09,6.68-28.7,13.94-39.24,7-10.09,13.81-21.07,26.52-29.79a206.35,206.35,0,0,1,42.87-23c15.22-6,31.8-11.74,49.15-11.74a153.11,153.11,0,0,1,61.87,13.32c15.65,7.2,26.54,16.14,36.69,26.16,7.88,7.77,12.4,18.09,18.16,27.61a137.39,137.39,0,0,1,17.31,45.16C403.58,216.22,404.81,214,404.09,232.57Z"/><path class="cls-3" d="M394.86,237.47c-1.43,18.71-6.51,31.35-14.16,47.24-4.59,9.53-11.95,17.32-18.58,25.39a133,133,0,0,1-29,26.25,131.42,131.42,0,0,1-78.06,22c-16.21-.6-20.14-.75-38.86-7.34a123.06,123.06,0,0,1-38.61-21.4,132.93,132.93,0,0,1-28.67-31.73c-8.39-13-17-24.32-20.4-39.88a122.71,122.71,0,0,1-3.11-32c.42-11.21,2.29-26.4,5.31-36.7,3.75-12.77,7.63-28,15.17-38.12,7.23-9.69,14.37-20.25,27.21-28.36a203,203,0,0,1,43.06-21.1C231.36,96.36,247.9,91.32,265,92a150.82,150.82,0,0,1,60.43,15.39c15.15,7.67,25.54,16.87,35.17,27.11,7.48,7.94,11.55,18.27,16.88,27.85a135.86,135.86,0,0,1,15.39,45.11C395,221.36,396.25,219.25,394.86,237.47Z"/><path class="cls-6" d="M312.25,99.31c0,7.75-6.54,8.48-14.81,11.94a97,97,0,0,1-37.79,7.27,171.69,171.69,0,0,1-21-1.15,52.08,52.08,0,0,1-23.2-8.58,14.7,14.7,0,0,1-7-13.23c0-3.68.88-6.73,2.4-10.61,1.89-4.84,5.35-7.92,9.87-12.09,5.22-4.81,9.51-11.76,18.1-15.78,7.06-3.3,14.21-6.49,21.5-6.49,8.95,0,20,5.61,26.51,7.79,6.94,2.32,9,6.88,13.41,10.78,2.86,2.53,5.88,9,7.73,11.88C311.73,86.78,312.25,93.7,312.25,99.31Z"/><path class="cls-7" d="M259.65,119a173.06,173.06,0,0,1-21-1.15,52.65,52.65,0,0,1-23.4-8.66c-5-3.37-7.17-7.56-7.17-13.59a28.23,28.23,0,0,1,2.43-10.77c1.87-4.78,5.26-7.91,9.56-11.87l.42-.38c1.51-1.4,2.93-3,4.44-4.61,3.57-3.92,7.61-8.37,13.77-11.25,7.63-3.57,14.54-6.53,21.69-6.53,6.76,0,14.61,3.13,20.92,5.64,2.1.83,4.08,1.62,5.73,2.17,5,1.67,7.47,4.41,10.1,7.32a44.14,44.14,0,0,0,3.46,3.55c2.08,1.84,4.22,5.66,5.94,8.74.69,1.24,1.34,2.4,1.87,3.23,3.8,5.9,4.29,13,4.29,18.51,0,6.66-4.78,8.44-10.83,10.69-1.36.51-2.77,1-4.25,1.66A98,98,0,0,1,259.65,119ZM260.38,51c-7,0-13.78,2.92-21.32,6.44-6,2.81-9.8,7-13.49,11-1.52,1.67-2.95,3.25-4.49,4.67l-.42.38c-4.21,3.88-7.54,7-9.34,11.54A27.5,27.5,0,0,0,209,95.56a14.25,14.25,0,0,0,6.79,12.86,51.72,51.72,0,0,0,23,8.51,171.16,171.16,0,0,0,20.9,1.15,97.11,97.11,0,0,0,37.62-7.24c1.49-.63,2.91-1.15,4.29-1.67,6.17-2.29,10.25-3.81,10.25-9.86,0-5.4-.47-12.33-4.15-18-.55-.85-1.2-2-1.9-3.28-1.69-3-3.79-6.77-5.75-8.51a46.06,46.06,0,0,1-3.54-3.62c-2.55-2.82-5-5.48-9.72-7.07-1.67-.56-3.67-1.35-5.78-2.19C274.73,54.13,267,51,260.38,51Z"/><path class="cls-4" d="M374.35,281.18a6.6,6.6,0,0,0-8.64-3.58c-.21.08-20.24,7.74-68.52,2.35-4.32-6.5-16-19.22-19-16.37-3.63,3.42,6.07,13.25,6.07,13.25s-18.87-7.54-20.21-4.71c-1.87,4,17.47,10.38,17.47,10.38s-26.28-2.33-23.94,1.84,23.12,5.07,23.12,5.07-25.69,4.59-22.45,9,24.81-.84,24.81-.84-21.28,16.18-6.87,12.59c11-2.73,18-12.41,20.69-16.88a302.61,302.61,0,0,0,32.46,1.89c28.28,0,40.72-5,41.42-5.29A6.65,6.65,0,0,0,374.35,281.18Z"/><path class="cls-4" d="M235.48,422.09c-.08-.37-.17-.74-.27-1.12a15.26,15.26,0,0,0-2.39-5.11c-17.12-41.85-3-70-2.3-71.27a8,8,0,0,0-14-7.48c-.72,1.35-15.51,29.84-2.85,72.15-1-.13-2-.27-3.06-.43-14.79-2.22-20.11,3.88-21.26,12.62-.71,5.33,8.42,14,21.85,13.7,8.73-.16,14.61-1.23,18.42-2.89a7.8,7.8,0,0,0,1.65-.55A8,8,0,0,0,235.48,422.09Z"/><path class="cls-4" d="M310.32,419.34c-.13-.35-.27-.71-.43-1.06a15.28,15.28,0,0,0-3.13-4.69c-23.25-38.78-13.52-68.73-13.05-70.11a8,8,0,0,0-15-5.27c-.51,1.45-10.82,31.84,8.09,71.76-1,0-2,0-3.09,0-15,.05-19.29,6.88-19.11,15.69.11,5.37,10.43,12.53,23.67,10.24,8.68-1.49,14.35-3.45,17.86-5.69a7.86,7.86,0,0,0,4.2-10.9Z"/><path class="cls-8" d="M192.64,245.2a1.34,1.34,0,0,1-1.3-1,1.32,1.32,0,0,1,1-1.57l15.68-3.31-16-7.83a1.33,1.33,0,0,1-.61-1.78,1.32,1.32,0,0,1,1.77-.6l19.45,9.52a1.33,1.33,0,0,1-.31,2.49l-19.45,4.1A1.24,1.24,0,0,1,192.64,245.2Z"/><path class="cls-8" d="M275.21,246.41a1.24,1.24,0,0,1-.27,0l-19.45-4.1a1.32,1.32,0,0,1-.31-2.48l19.45-9.53a1.32,1.32,0,1,1,1.16,2.38l-16,7.83,15.68,3.31a1.33,1.33,0,0,1,1,1.57A1.32,1.32,0,0,1,275.21,246.41Z"/><path class="cls-8" d="M239.13,264.47h-.32a4.59,4.59,0,0,1-3.73-2.07,3.51,3.51,0,0,1-.86,1.2,3.83,3.83,0,0,1-3.21.82,5.88,5.88,0,0,1-5.21-4,.64.64,0,0,1,.46-.77.63.63,0,0,1,.76.46,4.64,4.64,0,0,0,4.16,3.1,2.61,2.61,0,0,0,2.19-.5,3.62,3.62,0,0,0,.93-2.44.63.63,0,0,1,.6-.63.63.63,0,0,1,.66.56,3.44,3.44,0,0,0,3.33,3.05c3,.17,4-3.12,4-3.15a.63.63,0,0,1,1.21.33C243.68,261.82,242.16,264.47,239.13,264.47Z"/><ellipse class="cls-9" cx="189.27" cy="255.41" rx="8.24" ry="3.26"/><ellipse class="cls-9" cx="281.07" cy="255.41" rx="8.24" ry="3.26"/><path class="cls-8" d="M275.38,183.07a.43.43,0,0,1-.26-.09c-2.93-2.09-7.09,0-7.13,0a.44.44,0,0,1-.59-.19.45.45,0,0,1,.19-.6c.19-.09,4.67-2.38,8.05,0a.43.43,0,0,1,.1.61A.45.45,0,0,1,275.38,183.07Z"/><path class="cls-8" d="M206.16,180.7a.43.43,0,0,1-.26-.09c-2.93-2.09-7.09,0-7.13,0a.45.45,0,0,1-.41-.79c.19-.09,4.68-2.37,8.06,0a.44.44,0,0,1,.1.61A.45.45,0,0,1,206.16,180.7Z"/><path class="cls-8" d="M234.93,250.05a.55.55,0,0,1-.55-.56v-2.14a.55.55,0,0,1,.55-.56.56.56,0,0,1,.56.56v2.14A.56.56,0,0,1,234.93,250.05Z"/><path class="cls-10" d="M1331.38,400.24S1304,303.93,1226.64,307s-96.31,61-96.31,61-18.25-18.06-61-10.31-34.2,72.71-34.2,72.71-65.9,10.68-52.31,68.54h388.31s32.21-62,7.87-82.35S1331.38,400.24,1331.38,400.24Z"/><path class="cls-11" d="M1265.55,498.94h-4.64a140.88,140.88,0,0,0-14.84-11.79c-9.15-6.34-34.25-17.86-60.83-30.06-22.81-10.47-46.25-21.24-61.58-29.62a180.06,180.06,0,0,1-23.74,1.62c-23.4,0-40.86-4.94-52.33-9.76a100.73,100.73,0,0,1-13.06-6.62c0-1.17.1-2.37.18-3.61a96.09,96.09,0,0,0,14.28,7.39c14.07,5.89,37.43,11.94,70,8.37-1.57-.92-3-1.79-4.33-2.63-11.3-7.2-24.35-21.48-38.81-42.44-5.33-7.72-9.86-15-13.09-20.33,1-.36,2-.69,3.1-1,9.85,16.24,31.11,48.73,50.5,61.09,13.6,8.67,42.36,21.88,70.19,34.65l1.46.67c.83-6.89,3.33-29.87,3.87-58.62.49-25.9-6.15-63.11-9.48-80,1-.41,2-.81,3-1.2,3.31,16.73,10.15,54.78,9.65,81.25-.57,30.48-3.33,54.52-4,60,25,11.48,48,22.15,56.84,28.27,2.34,1.62,4.52,3.23,6.56,4.81-1.86-16.19-8.82-79.54-7.46-105.07,1-19.58,4.22-53.72,6.21-74.23,1,.29,2.07.61,3.08.94-2,20.54-5.1,54.14-6.14,73.45-1.47,27.59,6.92,100.16,7.81,107.71C1260.83,494.55,1263.36,496.84,1265.55,498.94Z"/><path class="cls-11" d="M1186.85,487.79c-19-9.53-55.41-10.13-87.5-10.65-22.46-.37-43.67-.71-57.28-3.95a65.73,65.73,0,0,1-34.83-20.74,61.09,61.09,0,0,1-5.77-7.78c.85-.63,1.72-1.23,2.59-1.81a59,59,0,0,0,5.65,7.63,62.7,62.7,0,0,0,33.09,19.63c13.27,3.16,34.32,3.5,56.61,3.87,32.41.53,69.16,1.13,88.85,11a167.56,167.56,0,0,1,23.21,14h-5.54A165,165,0,0,0,1186.85,487.79Z"/><path class="cls-12" d="M1306.51,368.87c-1,2.87-12.82,16.08-28.31,13.74s-.72-34.57,3.56-34.57,4.45,6.94,4.45,6.94,7.52-3.79,10.86,0c2.67,3,.53,8.55.53,8.55S1309,361.75,1306.51,368.87Z"/><path class="cls-12" d="M1227.93,303.46c.91,2.91-.67,20.56-14.49,27.94s-21.23-27.3-17.8-29.85,7.72,2.91,7.72,2.91,3.76-7.53,8.71-6.49c4,.83,5.53,6.53,5.53,6.53S1225.67,296.26,1227.93,303.46Z"/><path class="cls-12" d="M1106.93,376.08c2.53,1.7,12.34,16.46,6.17,30.86s-33.64-8-32.57-12.16,7.85-2.55,7.85-2.55-1.78-8.23,2.73-10.51c3.61-1.83,8.41,1.63,8.41,1.63S1100.67,371.88,1106.93,376.08Z"/><path class="cls-12" d="M1217.63,365.63s8.12,4.78,7.28,12.41-11.9,6.9-18.21,1.88-6.36-10.09-2.66-14.29C1209.36,359.58,1217.63,365.63,1217.63,365.63Z"/><path class="cls-12" d="M1149,348.83s7.68,4.52,6.89,11.73-11.25,6.53-17.22,1.78-6-9.53-2.52-13.51C1141.17,343.11,1149,348.83,1149,348.83Z"/><path class="cls-12" d="M1051,367.73c7.47-1.11,10.25,5.61,10.25,5.61s3.4,6-1.58,9.78-12.91-1.15-14.81-6.49S1045.78,368.5,1051,367.73Z"/><path class="cls-12" d="M1166.55,379.73c7.52.71,8.61,7.9,8.61,7.9s1.87,6.6-3.88,9.11-12.26-4.2-12.83-9.85S1161.33,379.23,1166.55,379.73Z"/></g></g></svg>