<svg xmlns="http://www.w3.org/2000/svg" xmlns:xlink="http://www.w3.org/1999/xlink" viewBox="0 0 1510.28 494.46"><defs><style>.cls-1{fill:#ef8004;}.cls-2{fill:#32132b;}.cls-3{fill:none;}.cls-4{fill:#2e5b27;}.cls-5{fill:#b64564;}.cls-6{fill:#6a917b;}.cls-7{fill:#445e44;}.cls-8{fill:#ffe9d4;}.cls-9{fill:#221023;}.cls-10{fill:#683b14;}.cls-11{fill:#e75412;}.cls-12{fill:#f8d4cd;}.cls-13{clip-path:url(#clip-path);}.cls-14{clip-path:url(#clip-path-2);}.cls-15{fill:#541b4b;}.cls-16{fill:#bd1823;}.cls-17{fill:#422a18;}.cls-18{fill:#b98862;}.cls-19{fill:#cbcaca;}.cls-20{fill:#f0c56c;}.cls-21{fill:#dea275;}.cls-22{fill:#f7a807;}.cls-23{clip-path:url(#clip-path-3);}</style><clipPath id="clip-path"><path class="cls-1" d="M1324.17,393.3l-36.28,9.29,35.93,64.85s-11.88,17.23-15,16.05c-5-1.89,3.22,7.67,11.41,1.54,5.81-4.36,25.44-14.23,17.1-21.06Z"/></clipPath><clipPath id="clip-path-2"><path class="cls-2" d="M1237.7,409.15l-33.19-17.35-16.63,72.25s-20.35,4.87-21.87,1.93c-2.46-4.77-2.73,7.85,7.45,8.76,7.24.65,28.44,6.43,26.79-4.22Z"/></clipPath><clipPath id="clip-path-3"><path class="cls-3" d="M1311.75,177.88c27.06.57,53.8-6.42,73.46-8.24-10.46-2-22.28-4.63-31.73-7.41a1.06,1.06,0,0,1-.5-1.71c2.12-2.46,4.06-5,4.77-9a3.25,3.25,0,0,0-1.4-3.27c-3.89-2.59-13.31-8.61-13.38-10.82-.56-16.67-21-112.81-20.16-114,1-1.46,12.11,7.1,19.19,6.42,0,0-21.3-26.76-33.56-29.92-4.82-1.24-76.38,103.81-83.5,114.27-.34.51-1.16,1-3.81,1.74-5.34,1.49-12.7-.21-7.46,8.9.53.94.88,1.45-.16,1.73-1.31.36-4.36.84-5.56,1.76-1.43,1.11,1,4.9-1.58,7.11-7.06,5.95-16.64,7.47-25.62,7.15a185.42,185.42,0,0,1,17.74,7.05C1253.11,174.56,1272,177,1311.75,177.88Z"/></clipPath></defs><title>Asset 1</title><g id="Layer_2" data-name="Layer 2"><g id="Layer_1-2" data-name="Layer 1"><path class="cls-4" d="M1265.08,4.06,46.23,3.2V493.6l1218.85.86c135.42,0,245.2-109.78,245.2-245.2S1400.5,4.06,1265.08,4.06Z"/><circle class="cls-5" cx="1261.08" cy="249.26" r="222.67"/><path class="cls-6" d="M75.59,361.79S112,233.46,215.15,237.52s128.34,81.32,128.34,81.32,24.31-24.07,81.26-13.74S470.33,402,470.33,402s87.82,14.24,69.71,91.34H22.6s-42.91-82.64-10.48-109.74S75.59,361.79,75.59,361.79Z"/><path class="cls-7" d="M163.3,493.32h6.19a186.45,186.45,0,0,1,19.77-15.72c12.2-8.44,45.65-23.8,81.06-40.06,30.39-14,61.63-28.29,82.06-39.45A242.41,242.41,0,0,0,384,400.24c31.18,0,54.45-6.59,69.73-13a135.64,135.64,0,0,0,17.41-8.81c-.06-1.56-.14-3.17-.25-4.82a126.7,126.7,0,0,1-19,9.85c-18.75,7.85-49.87,15.91-93.29,11.15,2.09-1.22,4-2.39,5.77-3.5,15.06-9.6,32.46-28.63,51.72-56.55,7.09-10.29,13.14-19.95,17.45-27.09-1.33-.49-2.71-.92-4.14-1.31-13.12,21.64-41.46,64.93-67.29,81.4-18.12,11.56-56.45,29.15-93.52,46.17l-2,.9c-1.1-9.18-4.43-39.8-5.15-78.12-.65-34.5,8.2-84.09,12.63-106.6-1.3-.55-2.62-1.08-4-1.6-4.41,22.29-13.53,73-12.86,108.28.76,40.6,4.44,72.63,5.34,79.88-33.33,15.31-63.93,29.52-75.73,37.68q-4.68,3.24-8.74,6.4c2.47-21.57,11.75-106,9.93-140-1.4-26.07-5.62-71.58-8.27-98.9-1.39.39-2.75.81-4.11,1.25,2.66,27.38,6.8,72.14,8.18,97.88,2,36.76-9.22,133.46-10.4,143.52C169.6,487.47,166.22,490.52,163.3,493.32Z"/><path class="cls-7" d="M268.17,478.45C293.56,465.75,342,465,384.76,464.26c29.93-.49,58.2-.95,76.33-5.26a87.62,87.62,0,0,0,46.41-27.63A83,83,0,0,0,515.2,421c-1.14-.84-2.29-1.64-3.46-2.42a78.26,78.26,0,0,1-7.53,10.17,83.43,83.43,0,0,1-44.09,26.16c-17.68,4.21-45.73,4.67-75.43,5.15-43.19.71-92.15,1.51-118.4,14.63a222.8,222.8,0,0,0-30.93,18.63h7.39A220.78,220.78,0,0,1,268.17,478.45Z"/><path class="cls-8" d="M108.73,320c1.34,3.83,17.08,21.43,37.73,18.31s.94-46.07-4.75-46.07-5.93,9.25-5.93,9.25-10-5.05-14.47,0c-3.56,4-.72,11.39-.72,11.39S105.41,310.5,108.73,320Z"/><path class="cls-8" d="M213.43,232.84c-1.21,3.87.89,27.39,19.31,37.22s28.29-36.37,23.73-39.77-10.29,3.87-10.29,3.87-5-10-11.61-8.65c-5.26,1.11-7.37,8.71-7.37,8.71S216.44,223.24,213.43,232.84Z"/><path class="cls-8" d="M374.67,329.6c-3.37,2.26-16.44,21.94-8.22,41.13s44.82-10.69,43.39-16.2-10.45-3.41-10.45-3.41,2.37-11-3.65-14c-4.8-2.43-11.2,2.18-11.2,2.18S383,324,374.67,329.6Z"/><path class="cls-8" d="M227.17,315.68s-10.83,6.36-9.71,16.53,15.85,9.2,24.27,2.51,8.47-13.44,3.54-19C238.18,307.61,227.17,315.68,227.17,315.68Z"/><path class="cls-8" d="M318.62,293.29s-10.24,6-9.18,15.64,15,8.69,22.95,2.37,8-12.71,3.36-18C329,285.67,318.62,293.29,318.62,293.29Z"/><path class="cls-8" d="M449.23,318.47c-10-1.47-13.65,7.48-13.65,7.48s-4.54,7.94,2.11,13,17.2-1.53,19.73-8.65S456.14,319.5,449.23,318.47Z"/><path class="cls-8" d="M295.22,334.46c-10,1-11.47,10.53-11.47,10.53s-2.5,8.79,5.17,12.14S305.26,351.53,306,344,302.18,333.8,295.22,334.46Z"/><path class="cls-9" d="M1407.45,171.46c-5.4-2.7-13-3-22.24-2.12-19.65,1.83-46.39,8.81-73.46,8.24-39.71-.83-58.63-3.32-113.26-28.15a178.35,178.35,0,0,0-17.74-7.05,89.89,89.89,0,0,1-25.65-5.12H1155c-22.19-.48-25.85,13.18-25.85,13.18-24.57,52.75,119.37,56.87,137,60.62s112.19,12.77,128.74,3C1414.35,202.66,1424.5,180,1407.45,171.46Z"/><path class="cls-10" d="M1352,217c1.47,4-4.63,10-4.63,10s-8.48-.62-9.95-4.66,4.63-10,4.63-10S1350.5,213,1352,217Z"/><path class="cls-10" d="M1355.43,227.41c1.86,3.07-2.19,8.91-2.19,8.91s-7,.86-8.9-2.21,2.19-8.91,2.19-8.91S1353.58,224.34,1355.43,227.41Z"/><path class="cls-10" d="M1359.74,234c2.16,2,.34,7.48.34,7.48s-5.32,2.29-7.47.31-.34-7.47-.34-7.47S1357.58,232.07,1359.74,234Z"/><path class="cls-10" d="M1367,241.14a54.24,54.24,0,0,0,5.42,1.72s-5.93,4.69-7,8.22c-1.49,4.87.83,4.82-4.66-2.82-1.53-2.13-.45-6.69-.45-6.69S1364.35,240.11,1367,241.14Z"/><path class="cls-11" d="M1354.34,242.74a41.77,41.77,0,0,1,5.73-1.36,46.39,46.39,0,0,1,1.37-6.41.48.48,0,0,1,.9-.09,5.94,5.94,0,0,0,1.68,1.78c1.38,1.14,4.08,1.79,1.18,3.24-1.2.6-4.69,1.83-4.69,1.83a19.55,19.55,0,0,1-.84,4.29c-1.89,3.93-2.08,1.53-3.64-.14a22.79,22.79,0,0,0-2.11-1.9C1353.58,243.65,1353.52,243.1,1354.34,242.74Z"/><path class="cls-10" d="M1194.21,209c-1.7,3.95,4,10.22,4,10.22s8.51-.12,10.21-4.06-4-10.22-4-10.22S1195.92,205.08,1194.21,209Z"/><path class="cls-10" d="M1190.14,219.19c-2,3,1.66,9,1.66,9s7,1.28,9-1.68-1.66-9-1.66-9S1192.17,216.24,1190.14,219.19Z"/><path class="cls-10" d="M1185.45,225.56c-2.27,1.84-.78,7.44-.78,7.44s5.17,2.6,7.44.76.78-7.44.78-7.44S1187.72,223.71,1185.45,225.56Z"/><path class="cls-10" d="M1177.76,232.21a53.67,53.67,0,0,1-5.51,1.4s5.64,5,6.51,8.62c1.19,4.94-1.12,4.76,4.81-2.54,1.65-2,.84-6.66.84-6.66S1180.49,231.34,1177.76,232.21Z"/><path class="cls-11" d="M1190.33,234.56a41.82,41.82,0,0,0-5.64-1.7,49.19,49.19,0,0,0-1-6.47c-.21-.56-.7-.46-.89-.15a6.07,6.07,0,0,1-1.79,1.68c-1.44,1.05-4.17,1.54-1.37,3.16,1.16.67,4.58,2.1,4.58,2.1a19.65,19.65,0,0,0,.58,4.34c1.65,4,2,1.64,3.64.08a22.22,22.22,0,0,1,2.22-1.78C1191,235.51,1191.12,235,1190.33,234.56Z"/><path class="cls-12" d="M1344.05,163.17c-10.3-33-34.89-34.61-78.78-36.07-36.42-1.21-56.44,18.13-64.08,38.31-3,7.84-2.31,11.35-2.1,22.39.09,4.77.42,8,2,16.68,1.05,5.64,3.26,14,4.13,18.17,1.83,8.87,4,16.44,3.25,23.07h0l66.14,17.88,66.53-13.67s-.46-4.43.88-15.71c1-8.09.94-12.36,2.06-20.92,1-8,1.15-8.66,1.84-15.73C1346.51,191.81,1349.06,179.23,1344.05,163.17Z"/><path class="cls-10" d="M1346,158.19C1337,137.82,1315.49,126,1300.27,126l-54.71,0c-15.14,0-36.49,14.38-45.46,34.56-5.79,13-5.28,43.33-3,45.22s53.35-18.87,94.4-13.62a3.56,3.56,0,0,0,3.94-3,277.09,277.09,0,0,0,3.27-35.87,389.84,389.84,0,0,1,5.35,41.21c14.85,3.48,41.35,20.78,44.78,19.39S1352.51,173.15,1346,158.19Z"/><path class="cls-1" d="M1324.17,393.3l-36.28,9.29,35.93,64.85s-11.88,17.23-15,16.05c-5-1.89,3.22,7.67,11.41,1.54,5.81-4.36,25.44-14.23,17.1-21.06Z"/><g class="cls-13"><path class="cls-2" d="M1324.17,393.3l-36.28,9.29,35.93,64.85s-11.88,17.23-15,16.05c-5-1.89,3.22,7.67,11.41,1.54,5.81-4.36,25.44-14.23,17.1-21.06Z"/><rect class="cls-2" x="1281.14" y="395.96" width="51.13" height="9.24" transform="translate(-59.97 389.01) rotate(-16.56)"/><rect class="cls-2" x="1283.77" y="404.82" width="51.13" height="9.24" transform="translate(-62.39 390.12) rotate(-16.56)"/><rect class="cls-2" x="1286.4" y="413.67" width="51.13" height="9.24" transform="translate(-64.8 391.24) rotate(-16.56)"/><rect class="cls-2" x="1289.04" y="422.53" width="51.13" height="9.24" transform="translate(-67.22 392.36) rotate(-16.56)"/><rect class="cls-2" x="1291.67" y="431.39" width="51.13" height="9.24" transform="translate(-69.63 393.47) rotate(-16.56)"/><rect class="cls-1" x="1294.3" y="440.25" width="51.13" height="9.24" transform="translate(-72.05 394.59) rotate(-16.56)"/><rect class="cls-2" x="1296.94" y="449.1" width="51.13" height="9.24" transform="translate(-74.46 395.71) rotate(-16.56)"/><rect class="cls-1" x="1299.57" y="457.96" width="51.13" height="9.24" transform="matrix(0.96, -0.28, 0.28, 0.96, -76.88, 396.82)"/><rect class="cls-2" x="1302.2" y="466.82" width="51.13" height="9.24" transform="translate(-79.29 397.95) rotate(-16.56)"/><rect class="cls-1" x="1304.84" y="475.68" width="51.13" height="9.24" transform="translate(-81.71 399.06) rotate(-16.56)"/></g><path class="cls-2" d="M1237.7,409.15l-33.19-17.35-16.63,72.25s-20.35,4.87-21.87,1.93c-2.46-4.77-2.73,7.85,7.45,8.76,7.24.65,28.44,6.43,26.79-4.22Z"/><g class="cls-14"><path class="cls-2" d="M1237.7,409.15l-33.19-17.35-16.63,72.25s-20.35,4.87-21.87,1.93c-2.46-4.77-2.73,7.85,7.45,8.76,7.24.65,28.44,6.43,26.79-4.22Z"/><rect class="cls-2" x="1194.28" y="398.26" width="51.13" height="9.24" transform="translate(290.67 -484.23) rotate(25.4)"/><rect class="cls-2" x="1190.32" y="406.61" width="51.13" height="9.24" transform="translate(293.87 -481.72) rotate(25.4)"/><rect class="cls-2" x="1186.35" y="414.96" width="51.13" height="9.24" transform="translate(297.06 -479.22) rotate(25.4)"/><rect class="cls-2" x="1182.39" y="423.31" width="51.13" height="9.24" transform="translate(300.26 -476.71) rotate(25.4)"/><rect class="cls-2" x="1178.43" y="431.65" width="51.13" height="9.24" transform="translate(303.46 -474.21) rotate(25.4)"/><rect class="cls-1" x="1174.46" y="440" width="51.13" height="9.24" transform="translate(306.65 -471.7) rotate(25.4)"/><rect class="cls-2" x="1170.5" y="448.35" width="51.13" height="9.24" transform="translate(309.85 -469.19) rotate(25.4)"/><rect class="cls-1" x="1166.54" y="456.7" width="51.13" height="9.24" transform="translate(313.05 -466.68) rotate(25.4)"/><rect class="cls-2" x="1162.57" y="465.04" width="51.13" height="9.24" transform="translate(316.25 -464.18) rotate(25.4)"/><rect class="cls-1" x="1158.61" y="473.39" width="51.13" height="9.24" transform="translate(319.45 -461.67) rotate(25.4)"/></g><path class="cls-15" d="M1180.64,266.79s-87.83,50.26-88.64,77.72c0,0-.93-9.66,23.07-25.08,12.87-8.26,48.35-21.48,62-29.76Z"/><path class="cls-15" d="M1354.77,270.08s40.34,30.87,51,52.69c16.06,33.05-4.06,99.94-24.84,4.08-2.77-12.77-5.88-9.22-20.88-19.43a22.19,22.19,0,0,1-10-22.19Z"/><path class="cls-2" d="M1206.65,258.17s-4.47,15.19-9.88,18.87c-21.33,14.5-30.89-.35-85.48,40.33-45.75,34.09-.53,68.89,27.72,69.72,38.17,1.11,110.54,3.27,132.06,3,75-1.13,116.38,13.76,129.08-2.29,21.95-27.73,4-61.44-49-99.37-8-5.76-5.86-26-7.86-29.44s-75.25,8.46-75.25,8.46S1216.4,258.75,1206.65,258.17Z"/><path class="cls-1" d="M1208.37,253.11s-72.3,109.26-76.72,166.69c0,0,125.57,38.07,259.94,10.13-.47-1.73-39.56-156.54-49.76-174.18C1341.83,255.75,1251.47,267.75,1208.37,253.11Z"/><path class="cls-12" d="M1197.29,274.47l-42.58-19.65c-.77-3.13-4.28-14.54-12-3.42-2.22,3.18-4.37,5.27-5.14,7.44-1,2.76,1.3,4.61,2.81,5.47a7.19,7.19,0,0,0,3.49.52c1.84.05,3,.12,3.69.16l36.73,30.7Z"/><path class="cls-12" d="M1345.92,272.13l46-9c1.49-2.86,7.6-13.12,12.51-.48,1.41,3.62,3,6.16,3.23,8.44.31,2.92-2.35,4.17-4,4.65a7.1,7.1,0,0,1-3.52-.32c-1.81-.38-3-.59-3.63-.71l-42.94,21.15Z"/><path class="cls-16" d="M1273.79,226.65a10.22,10.22,0,0,1-1.23-.07.31.31,0,0,1-.25-.36.3.3,0,0,1,.35-.26c.25,0,6.14.91,8.08-4.09a.31.31,0,1,1,.58.22C1279.77,226.11,1275.81,226.65,1273.79,226.65Z"/><path class="cls-17" d="M1271.87,216.31a.31.31,0,0,1-.26-.15c0-.06-.86-1.37-.33-2.33.32-.58,1-.87,2.13-.87a2.39,2.39,0,0,1,2.13.87,2.72,2.72,0,0,1,.1,2.28.33.33,0,0,1-.41.18.32.32,0,0,1-.17-.41,2.13,2.13,0,0,0,0-1.7,1.82,1.82,0,0,0-1.61-.6c-.58,0-1.33.1-1.58.55-.35.63.3,1.69.3,1.7a.31.31,0,0,1-.09.43A.37.37,0,0,1,1271.87,216.31Z"/><path class="cls-17" d="M1256,205.1l-8-3.33a.34.34,0,0,0-.44.18.33.33,0,0,0,.19.44l3.45,1.45c-2,.47-3.45,3-3.45,6a7.86,7.86,0,0,0,1.14,4.2,7.16,7.16,0,0,1-2.09-.06.27.27,0,0,0-.3.2.25.25,0,0,0,.2.3,7.36,7.36,0,0,0,1.37.12,8.17,8.17,0,0,0,1.16-.09,3.43,3.43,0,0,0,2.62,1.4c2.27,0,4.11-2.71,4.12-6.07a7.5,7.5,0,0,0-1.42-4.58l1.17.49.13,0a.34.34,0,0,0,.31-.2A.35.35,0,0,0,1256,205.1Z"/><path class="cls-17" d="M1290.67,205.13l8-3.31a.33.33,0,0,1,.44.18.33.33,0,0,1-.19.44l-3.45,1.43c2,.48,3.44,3,3.44,6a7.77,7.77,0,0,1-1.15,4.2,7.94,7.94,0,0,0,2.1-.05.25.25,0,0,1,.29.2.24.24,0,0,1-.2.29,7.36,7.36,0,0,1-1.37.12,8.17,8.17,0,0,1-1.16-.09,3.44,3.44,0,0,1-2.63,1.4c-2.26,0-4.1-2.72-4.1-6.08a7.51,7.51,0,0,1,1.43-4.58l-1.18.49-.13,0a.34.34,0,0,1-.13-.65Z"/><polygon class="cls-18" points="1397.46 285.11 1387.16 281.89 1402.11 239.47 1410.87 242.21 1397.46 285.11"/><rect class="cls-19" x="1381.06" y="206.09" width="71.64" height="0.94" transform="translate(797.04 1497.3) rotate(-72.64)"/><path class="cls-19" d="M1404.11,240.09l-.9-.27,5.35-18a29.77,29.77,0,0,0,.72-4,86.22,86.22,0,0,0-.09-16.2A42.58,42.58,0,0,1,1409,194c.91-11.51,4-18.81,9-21.72a11,11,0,0,1,9.74-.36l-.41.84a10.25,10.25,0,0,0-8.88.34c-4.81,2.75-7.69,9.81-8.56,21a41.82,41.82,0,0,0,.2,7.46,86.19,86.19,0,0,1,.09,16.36,29.51,29.51,0,0,1-.75,4.17Z"/><path class="cls-19" d="M1405.19,240.43l-.9-.28,5.39-17.45s1.4-5,1.79-7a152.42,152.42,0,0,0,3-20.48c1.57-23.75,12.7-23.32,13.17-23.3l-.06.94c-.11,0-10.67-.31-12.17,22.42a153.75,153.75,0,0,1-3,20.6c-.4,2.06-1.75,6.9-1.81,7.11Z"/><path class="cls-19" d="M1409.16,241.68l-.89-.29,5.85-17.83a29.94,29.94,0,0,1,1.76-3.87,87,87,0,0,1,9.39-13.39,41,41,0,0,0,4.42-6c5.64-9.67,7.3-17.11,4.91-22.1a10.24,10.24,0,0,0-7.1-5.35l.14-.92a11,11,0,0,1,7.8,5.85c2.54,5.29.87,13-4.94,23a42.49,42.49,0,0,1-4.51,6.14,85.59,85.59,0,0,0-9.3,13.27,29.06,29.06,0,0,0-1.69,3.7Z"/><path class="cls-19" d="M1408.08,241.34l-.9-.28,5.52-17.42c.07-.21,1.72-5,2.56-6.88a154.74,154.74,0,0,1,9.29-18.63c11.73-19.54,2.87-25.3,2.77-25.36l.49-.8c.41.25,9.79,6.24-2.45,26.65a152.23,152.23,0,0,0-9.24,18.52c-.83,1.89-2.51,6.75-2.53,6.8Z"/><polygon class="cls-18" points="1397.46 285.11 1387.16 281.89 1402.11 239.47 1410.87 242.21 1397.46 285.11"/><rect class="cls-19" x="1381.06" y="206.09" width="71.64" height="0.94" transform="translate(797.04 1497.3) rotate(-72.64)"/><path class="cls-19" d="M1404.11,240.09l-.9-.27,5.35-18a29.77,29.77,0,0,0,.72-4,86.22,86.22,0,0,0-.09-16.2A42.58,42.58,0,0,1,1409,194c.91-11.51,4-18.81,9-21.72a11,11,0,0,1,9.74-.36l-.41.84a10.25,10.25,0,0,0-8.88.34c-4.81,2.75-7.69,9.81-8.56,21a41.82,41.82,0,0,0,.2,7.46,86.19,86.19,0,0,1,.09,16.36,29.51,29.51,0,0,1-.75,4.17Z"/><path class="cls-19" d="M1405.19,240.43l-.9-.28,5.39-17.45s1.4-5,1.79-7a152.42,152.42,0,0,0,3-20.48c1.57-23.75,12.7-23.32,13.17-23.3l-.06.94c-.11,0-10.67-.31-12.17,22.42a153.75,153.75,0,0,1-3,20.6c-.4,2.06-1.75,6.9-1.81,7.11Z"/><path class="cls-19" d="M1409.16,241.68l-.89-.29,5.85-17.83a29.94,29.94,0,0,1,1.76-3.87,87,87,0,0,1,9.39-13.39,41,41,0,0,0,4.42-6c5.64-9.67,7.3-17.11,4.91-22.1a10.24,10.24,0,0,0-7.1-5.35l.14-.92a11,11,0,0,1,7.8,5.85c2.54,5.29.87,13-4.94,23a42.49,42.49,0,0,1-4.51,6.14,85.59,85.59,0,0,0-9.3,13.27,29.06,29.06,0,0,0-1.69,3.7Z"/><path class="cls-19" d="M1408.08,241.34l-.9-.28,5.52-17.42c.07-.21,1.72-5,2.56-6.88a154.74,154.74,0,0,1,9.29-18.63c11.73-19.54,2.87-25.3,2.77-25.36l.49-.8c.41.25,9.79,6.24-2.45,26.65a152.23,152.23,0,0,0-9.24,18.52c-.83,1.89-2.51,6.75-2.53,6.8Z"/><polygon class="cls-1" points="1397.46 285.11 1387.16 281.89 1402.11 239.47 1410.87 242.21 1397.46 285.11"/><rect class="cls-20" x="1381.06" y="206.09" width="71.64" height="0.94" transform="translate(797.04 1497.3) rotate(-72.64)"/><path class="cls-20" d="M1404.11,240.09l-.9-.27,5.35-18a29.77,29.77,0,0,0,.72-4,86.22,86.22,0,0,0-.09-16.2A42.58,42.58,0,0,1,1409,194c.91-11.51,4-18.81,9-21.72a11,11,0,0,1,9.74-.36l-.41.84a10.25,10.25,0,0,0-8.88.34c-4.81,2.75-7.69,9.81-8.56,21a41.82,41.82,0,0,0,.2,7.46,86.19,86.19,0,0,1,.09,16.36,29.51,29.51,0,0,1-.75,4.17Z"/><path class="cls-20" d="M1405.19,240.43l-.9-.28,5.39-17.45s1.4-5,1.79-7a152.42,152.42,0,0,0,3-20.48c1.57-23.75,12.7-23.32,13.17-23.3l-.06.94c-.11,0-10.67-.31-12.17,22.42a153.75,153.75,0,0,1-3,20.6c-.4,2.06-1.75,6.9-1.81,7.11Z"/><path class="cls-20" d="M1409.16,241.68l-.89-.29,5.85-17.83a29.94,29.94,0,0,1,1.76-3.87,87,87,0,0,1,9.39-13.39,41,41,0,0,0,4.42-6c5.64-9.67,7.3-17.11,4.91-22.1a10.24,10.24,0,0,0-7.1-5.35l.14-.92a11,11,0,0,1,7.8,5.85c2.54,5.29.87,13-4.94,23a42.49,42.49,0,0,1-4.51,6.14,85.59,85.59,0,0,0-9.3,13.27,29.06,29.06,0,0,0-1.69,3.7Z"/><path class="cls-20" d="M1408.08,241.34l-.9-.28,5.52-17.42c.07-.21,1.72-5,2.56-6.88a154.74,154.74,0,0,1,9.29-18.63c11.73-19.54,2.87-25.3,2.77-25.36l.49-.8c.41.25,9.79,6.24-2.45,26.65a152.23,152.23,0,0,0-9.24,18.52c-.83,1.89-2.51,6.75-2.53,6.8Z"/><path class="cls-21" d="M1105.78,163s-6.11-7.87-7.42-12c-1.49-4.73.79-6.44,4.31-7.84h0c3.53-1.39,8.06-1.56,8.52,2.76.27,2.61,3.26,13.68,3.26,13.68Z"/><path class="cls-18" d="M1121.58,156.71l-24.1,9.54s11.84,33.87,15.57,42.63c4.41,10.35,17.48,40.87,17.48,40.87l24.1-9.53s-11.43-30.91-15.41-41C1137.21,194.16,1121.58,156.71,1121.58,156.71Z"/><path class="cls-21" d="M1105.78,163s-6.11-7.87-7.42-12c-1.49-4.73.79-6.44,4.31-7.84h0c3.53-1.39,8.06-1.56,8.52,2.76.27,2.61,3.26,13.68,3.26,13.68Z"/><path class="cls-18" d="M1121.58,156.71l-24.1,9.54s11.84,33.87,15.57,42.63c4.41,10.35,17.48,40.87,17.48,40.87l24.1-9.53s-11.43-30.91-15.41-41C1137.21,194.16,1121.58,156.71,1121.58,156.71Z"/><path class="cls-1" d="M1105.78,163s-6.11-7.87-7.42-12c-1.49-4.73.79-6.44,4.31-7.84h0c3.53-1.39,8.06-1.56,8.52,2.76.27,2.61,3.26,13.68,3.26,13.68Z"/><path class="cls-1" d="M1138.61,246.56s.92,9.92,2.82,13.85c2.15,4.47,5,4.16,8.51,2.76h0c3.53-1.39,6.94-4.37,4.32-7.84-1.59-2.08-7-12.2-7-12.2Z"/><path class="cls-20" d="M1121.58,156.71l-24.1,9.54s11.84,33.87,15.57,42.63c4.41,10.35,17.48,40.87,17.48,40.87l24.1-9.53s-11.43-30.91-15.41-41C1137.21,194.16,1121.58,156.71,1121.58,156.71Z"/><path class="cls-15" d="M1354.77,270c-25.26,3.51-49,66.24-68.81,19.39-9.76-23.14-7.34-26.23-28.36-1.53-10.14,11.92-27,26.3-38.32,25.72-15.09-.75-25.33-42.8-38.64-46.87,9.79-4,17-5.45,21-7.79,7.18-4.16,3.2-16.31,3.2-16.31,9.69-6.16,69.19,18.41,69.19,18.41s72.76-22.21,74.9-18.29C1350.85,246.22,1345.66,258.56,1354.77,270Z"/><path class="cls-22" d="M1272.77,259.23s-16.74-14.51-20.06-14.1c0,0,.12,13.07-2.15,16.84s-6,12.59,1.44,11.66,16.63-1.56,20.74-3.56,5.85.9,5.85.9,13,6.61,17.67,5.91,7.63-.82,4.42-10.64-3-3.75-1.51-10.15.91-9.84.33-11.51-10.16,3.5-13.45,6.15a104.38,104.38,0,0,0-7.57,7.29c-1.23,1.15-3.21,3.27-4.42,3S1272.77,259.23,1272.77,259.23Z"/><path class="cls-1" d="M1273.55,262.45s-9.44-4.31-13-4.12a6.35,6.35,0,0,0,.14,7.21s11.31-.28,13.17-.88c0,0,12.35,3.71,15.71,2.67a16.41,16.41,0,0,0,.32-7.52,38.14,38.14,0,0,0-12.41,3.41C1276.25,263.84,1273.55,262.45,1273.55,262.45Z"/><path class="cls-11" d="M1272.31,258.83s3.75-2.17,6.17-.81c0,0,2.07,9.41.11,13,0,0-4.32,2.42-7.47.36C1271.12,271.33,1270.79,261,1272.31,258.83Z"/><g class="cls-23"><path class="cls-15" d="M1311.75,177.88c27.06.57,53.8-6.42,73.46-8.24-10.46-2-22.28-4.63-31.73-7.41a1.06,1.06,0,0,1-.5-1.71c2.12-2.46,4.06-5,4.77-9a3.25,3.25,0,0,0-1.4-3.27c-3.89-2.59-13.31-8.61-13.38-10.82-.56-16.67-21-112.81-20.16-114,1-1.46,12.11,7.1,19.19,6.42,0,0-21.3-26.76-33.56-29.92-4.82-1.24-76.38,103.81-83.5,114.27-.34.51-1.16,1-3.81,1.74-5.34,1.49-12.7-.21-7.46,8.9.53.94.88,1.45-.16,1.73-1.31.36-4.36.84-5.56,1.76-1.43,1.11,1,4.9-1.58,7.11-7.06,5.95-16.64,7.47-25.62,7.15a185.42,185.42,0,0,1,17.74,7.05C1253.11,174.56,1272,177,1311.75,177.88Z"/><path class="cls-20" d="M1303.55,7.43a16.2,16.2,0,0,0-11.26-4.21c-2.56,0-6.35.38-8.51,1.42-5.56,2.67-8.61,8.52-8.62,15.09a14.93,14.93,0,0,0,3.64,10.36c3,3.5,7.2,6.5,12.19,6.51,4.57,0,10-1.76,13-4.75s4.29-6.75,4.3-11.31C1308.24,15.61,1306.81,10.67,1303.55,7.43Zm-7.27,15.77a5.15,5.15,0,0,1-3.35,2.41,6.66,6.66,0,0,1-4.58-1.09,5.66,5.66,0,0,1-2.24-4.15,5.09,5.09,0,0,1,.92-3.63,5.52,5.52,0,0,1,5.29-2.67,8.07,8.07,0,0,1,2.69,1.2,5.53,5.53,0,0,1,2.41,3.32A6.26,6.26,0,0,1,1296.28,23.2Z"/><path class="cls-20" d="M1334.69,45.24a13.59,13.59,0,0,0-9.41-3.53,19.2,19.2,0,0,0-7.12,1.2c-4.63,2.22-7.19,7.11-7.19,12.6a12.43,12.43,0,0,0,3,8.66c2.53,2.92,6,5.43,10.18,5.44,3.82,0,8.32-1.47,10.83-4a12.65,12.65,0,0,0,3.58-9.45C1338.61,52.07,1337.41,47.94,1334.69,45.24Zm-6.08,13.17a4.32,4.32,0,0,1-2.8,2,5.55,5.55,0,0,1-3.82-.91,4.74,4.74,0,0,1-1.87-3.47,4.29,4.29,0,0,1,.76-3,4.61,4.61,0,0,1,4.43-2.22,6.39,6.39,0,0,1,2.24,1,4.58,4.58,0,0,1,2,2.77A5.19,5.19,0,0,1,1328.61,58.41Z"/><path class="cls-20" d="M1260.08,62.43a14.7,14.7,0,0,0-10.22-3.83c-2.33,0-5.77.35-7.73,1.3-5,2.41-7.82,7.73-7.82,13.69a13.56,13.56,0,0,0,3.3,9.41c2.75,3.17,6.54,5.9,11.07,5.9,4.14,0,9-1.59,11.75-4.3a13.77,13.77,0,0,0,3.9-10.28C1264.33,69.85,1263,65.37,1260.08,62.43Zm-6.6,14.31a4.69,4.69,0,0,1-3,2.19,6.05,6.05,0,0,1-4.15-1,5.15,5.15,0,0,1-2-3.77,4.57,4.57,0,0,1,.83-3.29,5,5,0,0,1,4.8-2.42,7.3,7.3,0,0,1,2.45,1.08,5,5,0,0,1,2.18,3A5.69,5.69,0,0,1,1253.48,76.74Z"/><path class="cls-20" d="M1290.84,97.93a10.7,10.7,0,0,0-7.43-2.77,14.84,14.84,0,0,0-5.61.94c-3.66,1.75-5.68,5.61-5.68,9.94a9.82,9.82,0,0,0,2.4,6.84c2,2.3,4.75,4.29,8,4.29a12.92,12.92,0,0,0,8.54-3.13,10,10,0,0,0,2.83-7.46C1293.93,103.33,1293,100.07,1290.84,97.93Zm-4.8,10.41a3.35,3.35,0,0,1-2.21,1.58,4.39,4.39,0,0,1-3-.72,3.73,3.73,0,0,1-1.47-2.73,3.4,3.4,0,0,1,.6-2.4,3.63,3.63,0,0,1,3.49-1.75,5,5,0,0,1,1.78.79,3.61,3.61,0,0,1,1.58,2.19A4.11,4.11,0,0,1,1286,108.34Z"/><path class="cls-20" d="M1351.73,111.27a15.15,15.15,0,0,0-10.51-3.94c-2.39,0-5.92.36-7.94,1.33-5.18,2.49-8,8-8,14.08a14,14,0,0,0,3.39,9.68c2.83,3.26,6.73,6.07,11.38,6.07,4.26,0,9.29-1.64,12.09-4.43s4-6.3,4-10.56C1356.11,118.9,1354.78,114.29,1351.73,111.27ZM1345,126a4.84,4.84,0,0,1-3.13,2.25,6.28,6.28,0,0,1-4.27-1,5.32,5.32,0,0,1-2.09-3.87,4.75,4.75,0,0,1,.85-3.4,5.14,5.14,0,0,1,4.94-2.48,7,7,0,0,1,2.51,1.12,5.12,5.12,0,0,1,2.25,3.09A5.84,5.84,0,0,1,1345,126Z"/><path class="cls-20" d="M1311.37,144.92a16.22,16.22,0,0,0-11.26-4.21c-2.57,0-6.35.38-8.52,1.42-5.55,2.67-8.61,8.52-8.61,15.09a14.88,14.88,0,0,0,3.64,10.36c3,3.5,7.2,6.5,12.19,6.51,4.57,0,10-1.76,13-4.75s4.29-6.75,4.29-11.32C1316.06,153.09,1314.63,148.16,1311.37,144.92Zm-7.27,15.77a5.15,5.15,0,0,1-3.35,2.41,6.66,6.66,0,0,1-4.58-1.09,5.66,5.66,0,0,1-2.24-4.15,5,5,0,0,1,.92-3.63,5.5,5.5,0,0,1,5.29-2.67,8.07,8.07,0,0,1,2.69,1.2,5.54,5.54,0,0,1,2.41,3.32A6.3,6.3,0,0,1,1304.1,160.69Z"/><path class="cls-20" d="M1242.44,148.36a16.22,16.22,0,0,0-11.26-4.21c-2.57,0-6.35.38-8.52,1.42-5.55,2.67-8.6,8.52-8.61,15.09a14.93,14.93,0,0,0,3.64,10.36c3,3.5,7.2,6.51,12.19,6.51,4.57,0,10-1.75,12.95-4.74s4.29-6.76,4.29-11.32C1247.13,156.54,1245.7,151.6,1242.44,148.36Zm-7.27,15.77a5.15,5.15,0,0,1-3.35,2.41,6.66,6.66,0,0,1-4.58-1.09,5.66,5.66,0,0,1-2.24-4.15,5.09,5.09,0,0,1,.92-3.63,5.52,5.52,0,0,1,5.29-2.67,8.07,8.07,0,0,1,2.69,1.2,5.53,5.53,0,0,1,2.41,3.32A6.26,6.26,0,0,1,1235.17,164.13Z"/></g><path class="cls-9" d="M1224.29,129.56c9.84,4.88,33.59,11,57.81,14.15,17.6,2.33,35.68,2.48,47.74,2.7,6.73.12,2.61,2.28-3.73,3.43-15.28,2.76-57.84.34-71.51-3.55-14.84-4.22-24.31-7.49-33.46-15.38C1214.94,125.55,1215,124.93,1224.29,129.56Z"/><path class="cls-9" d="M1239.07,121.85c19.92,5.22,38.13,6.75,44.82,6s3,2-3.14,4-26.44,2.3-33.68-1.51C1230.81,121.72,1219.15,116.62,1239.07,121.85Z"/></g></g></svg>