<svg xmlns="http://www.w3.org/2000/svg" viewBox="0 0 725.93 56.02"><defs><style>.cls-1{fill:#516f3c;}</style></defs><title>Asset 29</title><g id="Layer_2" data-name="Layer 2"><g id="Layer_1-2" data-name="Layer 1"><path class="cls-1" d="M0,54.88C7.67,37.12,16.25,16,18.37,1.59H33.93A373,373,0,0,0,53,54.88H37.42c-2.27-8.42-8.8-12.67-14.8-12.67S11.39,46.38,11.39,54.88ZM24.44,39.55a17,17,0,0,1,9.11,2.35c-3.18-10.55-8.5-25-12.75-35.14a169.82,169.82,0,0,0-8.88,37.5C14.73,41.07,19.66,39.55,24.44,39.55Z"/><path class="cls-1" d="M56.48,54.88a212.72,212.72,0,0,0,1.75-26.64A212,212,0,0,0,56.48,1.59C66,1.59,71.06.08,77.21.08c12.45,0,20.87,4.09,20.87,12.07,0,4.55-2.88,9.33-8.27,11.91C97.25,25.73,101,32.19,101,38.72c0,12.07-11.31,16.85-25.81,16.85C69.31,55.57,66,54.88,56.48,54.88ZM86.39,38.41c0-7-2.88-9.71-6.75-10.78-4.48-1.21-6.53-3.19-6.53-5.69s2-4.4,5-4.4a2.1,2.1,0,1,1,0,4.17c-2.13,0-2.73.91-2.73,1.75s.75,1.67,2.35,1.67c3.19,0,7.06-2.51,7.06-11.77C84.8,6.15,80.55,3,73.94,3c-.6,0-1.36,0-2,.07C71.29,11.31,71,20,71,28.54c0,8.35.31,16.55.91,24.07a16.31,16.31,0,0,0,2.66.15C82.29,52.76,86.39,47.45,86.39,38.41Z"/><path class="cls-1" d="M103.48,28.16c0-18.75,14-28.16,28.08-28.16,13.9,0,27.94,9.34,27.94,28.09s-14,27.93-28,27.93S103.48,46.76,103.48,28.16ZM145,34.24c0-14.58-6.15-32-16.93-32-7.06,0-10.32,9.33-10.32,20,0,14.5,6,31.43,17,31.43C141.74,53.75,145,44.71,145,34.24Z"/><path class="cls-1" d="M165.27,34.46c0-7.28.69-14.57.69-21.93a74.42,74.42,0,0,0-.69-10.94h15.57c-.76,9-1.45,18.3-1.45,26.5,0,14.88,2.21,26.19,10,26.19s9.94-11.24,9.94-26c0-8.28-.68-17.54-1.44-26.65H213.4a75.81,75.81,0,0,0-.68,10.94c0,7.36.68,14.65.68,21.93C213.4,50.41,201.33,56,189.34,56S165.27,50.41,165.27,34.46Z"/><path class="cls-1" d="M234.81,55c1.07-12,2.13-24.06,2.13-36.13,0-5-.15-9.95-.61-15H231.7c-3.19,0-5.92,1.82-5.92,6.38,0,2.73,1.75,5.39,4.78,5.39,1.83,0,2.66-.68,2.66-1.29s-.68-1.06-2.05-1.06c-1.75,0-2.28-.76-2.28-1.52a1.52,1.52,0,0,1,1.67-1.52c1.9,0,3.42,1.9,3.42,4,0,4.4-3.95,6.68-8.12,6.68-4.71,0-9.72-3-9.72-9.26,0-4.86,3.72-10.1,12.53-10.1h27.4c8.81,0,12.53,5.24,12.53,10.1,0,6.3-5,9.26-9.72,9.26-4.18,0-8.12-2.28-8.12-6.68,0-2.12,1.51-4,3.41-4a1.52,1.52,0,0,1,1.67,1.52c0,.76-.53,1.52-2.28,1.52-1.36,0-2,.53-2,1.06s.83,1.29,2.65,1.29c3,0,4.78-2.66,4.78-5.39,0-4.56-2.73-6.38-5.92-6.38h-4.17c-.46,5-.61,10-.61,15,0,12.07,1.06,24.14,2.13,36.13Z"/><path class="cls-1" d="M285.15,27.78C285.15,8.05,299.34,0,311.41,0c9,0,16.86,4.48,16.86,12.07,0,4.78-3.57,9.19-9.72,9.19-6.38,0-9.34-4-9.34-7.75,0-3.19,2.13-6.3,5.77-6.3,1.14,0,1.67.61,1.67,1.22a1.12,1.12,0,0,1-1.14,1.14c-1.14,0-1.51-.54-2.88-.54-.84,0-1.29.84-1.29,1.75a2.86,2.86,0,0,0,3.11,2.66c1.9,0,3.95-1.45,3.95-4.79,0-3-2-6.22-5.7-6.22-8,0-12.37,11.54-12.37,23.76,0,20,8,27.4,13.89,27.4,3.5,0,6.3-2.65,6.3-6.83s-2.27-6.37-3.79-6.37c-.76,0-1.37.53-1.37,1.59,0,1.21,2.2,1.59,2.2,3.72a1.72,1.72,0,0,1-1.67,1.82c-1,0-2.05-.83-2.05-2.58a8.35,8.35,0,0,1,7.9-8.65,7.2,7.2,0,0,1,7.51,7.51c0,7.37-6.75,12.22-17.46,12.22C297.67,56,285.15,47.14,285.15,27.78Z"/><path class="cls-1" d="M333.2,54.88a312,312,0,0,0,0-53.29h15.57q-1,12.2-1.14,24.37h17.23q-.12-12.18-1.14-24.37h15.56a314,314,0,0,0,0,53.29H363.72q1.14-13.32,1.14-26.64H347.63q0,13.32,1.14,26.64Z"/><path class="cls-1" d="M383.46,54.88C391.13,37.12,399.71,16,401.83,1.59H417.4a371.75,371.75,0,0,0,19.05,53.29H420.89c-2.28-8.42-8.81-12.67-14.81-12.67s-11.23,4.17-11.23,12.67Zm24.45-15.33A17,17,0,0,1,417,41.9c-3.19-10.55-8.51-25-12.76-35.14-4.32,12.45-7.59,25.2-8.88,37.5C398.19,41.07,403.12,39.55,407.91,39.55Z"/><path class="cls-1" d="M440.17,54.88A198,198,0,0,0,442,27.25c0-9-.54-19.28-1.83-25.66,9.42,0,18.3-1.59,25-1.59,10.63,0,16.78,6.15,16.78,12.37,0,6.38-6.46,12.76-18.15,12.76v.38c12.15,2.73,19.66,8.12,19.66,29.37H467.65c0-10.55-1.51-17.08-3.49-21.48-3.11-7.21-7.21-8.88-7.21-13.28,0-3.34,2.28-4.63,3.8-4.63,1.82,0,2.5,1.14,2.5,2.12s-.53,1.9-1.44,1.9c-2.05,0-3.11,1.06-3.11,2s.91,1.75,2.65,1.75c3.8,0,7.59-3.57,7.59-10.93,0-6.23-3.49-9.42-9.18-9.42a20,20,0,0,0-4,.46C455,11.54,454.6,20,454.6,29.15c0,8.88.38,17.76,1.14,25.73Z"/><path class="cls-1" d="M486.64,54.88C494.3,37.12,502.88,16,505,1.59h15.56a374.2,374.2,0,0,0,19,53.29H524.06c-2.28-8.42-8.81-12.67-14.8-12.67S498,46.38,498,54.88Zm24.44-15.33a17,17,0,0,1,9.11,2.35c-3.19-10.55-8.5-25-12.75-35.14-4.33,12.45-7.6,25.2-8.89,37.5C501.36,41.07,506.3,39.55,511.08,39.55Z"/><path class="cls-1" d="M538.41,27.78C538.41,8.05,552.61,0,564.68,0c9,0,16.85,4.48,16.85,12.07,0,4.78-3.57,9.19-9.72,9.19-6.37,0-9.33-4-9.33-7.75,0-3.19,2.12-6.3,5.77-6.3,1.13,0,1.67.61,1.67,1.22a1.13,1.13,0,0,1-1.14,1.14c-1.14,0-1.52-.54-2.89-.54-.83,0-1.29.84-1.29,1.75a2.86,2.86,0,0,0,3.11,2.66c1.9,0,3.95-1.45,3.95-4.79,0-3-2-6.22-5.69-6.22-8,0-12.38,11.54-12.38,23.76,0,20,8,27.4,13.9,27.4,3.49,0,6.3-2.65,6.3-6.83s-2.28-6.37-3.8-6.37c-.76,0-1.36.53-1.36,1.59,0,1.21,2.2,1.59,2.2,3.72a1.72,1.72,0,0,1-1.67,1.82c-1,0-2-.83-2-2.58A8.35,8.35,0,0,1,575,36.29a7.21,7.21,0,0,1,7.52,7.51c0,7.37-6.76,12.22-17.46,12.22C550.94,56,538.41,47.14,538.41,27.78Z"/><path class="cls-1" d="M599.91,55C601,43,602,30.9,602,18.83c0-5-.15-9.95-.61-15h-4.63c-3.19,0-5.92,1.82-5.92,6.38,0,2.73,1.75,5.39,4.78,5.39,1.83,0,2.66-.68,2.66-1.29s-.68-1.06-2-1.06c-1.74,0-2.28-.76-2.28-1.52a1.52,1.52,0,0,1,1.67-1.52c1.9,0,3.42,1.9,3.42,4,0,4.4-4,6.68-8.12,6.68-4.71,0-9.72-3-9.72-9.26,0-4.86,3.72-10.1,12.53-10.1h27.4c8.81,0,12.53,5.24,12.53,10.1,0,6.3-5,9.26-9.72,9.26-4.18,0-8.12-2.28-8.12-6.68,0-2.12,1.52-4,3.41-4a1.52,1.52,0,0,1,1.67,1.52c0,.76-.53,1.52-2.27,1.52-1.37,0-2,.53-2,1.06s.83,1.29,2.65,1.29c3,0,4.79-2.66,4.79-5.39,0-4.56-2.74-6.38-5.93-6.38H614c-.46,5-.61,10-.61,15,0,12.07,1.06,24.14,2.13,36.13Z"/><path class="cls-1" d="M643.26,54.2a31.27,31.27,0,0,0-6.31.68q1.14-13.32,1.14-26.64T637,1.59c7.82,0,20-1.59,25.36-1.59,11.08,0,13.82,4.63,13.82,9.34s-3.34,9.41-10.56,9.41c-5.61,0-7.59-3-7.59-5.62,0-2.12,1.52-4,3.42-4a1.52,1.52,0,0,1,1.67,1.52c0,.76-.53,1.52-2.28,1.52-1.36,0-2,.53-2,1.06s.84,1.29,2.66,1.29a4.73,4.73,0,0,0,5.08-4.93c0-5-3.71-7.07-8.73-7.07a23.82,23.82,0,0,0-6.3.92c0,5.08,0,15.86-.07,22.54h2.28c5,0,11.46-.91,15.25-4.55V32.79c-3.79-3.64-10.24-4.55-15.25-4.55h-2.28c0,8.12.38,16.47,1.14,24.59a43.24,43.24,0,0,0,6.83.69c4.33,0,8.42-1.22,8.42-6.15,0-2.66-1.67-5.16-5.46-5.16-1.82,0-2.66.68-2.66,1.29s.69,1.06,2.05,1.06c1.75,0,2.28.76,2.28,1.52a1.52,1.52,0,0,1-1.67,1.52c-1.9,0-3.42-1.9-3.42-4,0-4.7,4.48-7.21,9.26-7.21,6.69,0,10.48,4.48,10.48,9.19,0,5.08-4.55,10.47-15,10.47C655.4,56,649.63,54.2,643.26,54.2Z"/><path class="cls-1" d="M682.66,54.88a198.06,198.06,0,0,0,1.82-27.63c0-9-.53-19.28-1.82-25.66,9.41,0,18.29-1.59,25-1.59,10.63,0,16.78,6.15,16.78,12.37,0,6.38-6.45,12.76-18.14,12.76v.38c12.14,2.73,19.66,8.12,19.66,29.37H710.14c0-10.55-1.52-17.08-3.49-21.48-3.12-7.21-7.22-8.88-7.22-13.28,0-3.34,2.28-4.63,3.8-4.63,1.82,0,2.5,1.14,2.5,2.12s-.53,1.9-1.44,1.9c-2,0-3.11,1.06-3.11,2s.91,1.75,2.66,1.75c3.79,0,7.59-3.57,7.59-10.93,0-6.23-3.49-9.42-9.19-9.42a20.07,20.07,0,0,0-4,.46c-.76,8.2-1.14,16.62-1.14,25.81,0,8.88.38,17.76,1.14,25.73Z"/></g></g></svg>