<svg xmlns="http://www.w3.org/2000/svg" viewBox="0 0 1498.75 544.19"><defs><style>.cls-1{fill:#704d39;}.cls-2{fill:#324e36;}.cls-3{fill:#ca8649;}.cls-4{fill:#aa733e;}.cls-5{fill:#f4b573;}.cls-6{fill:#fff;}.cls-7{fill:#1d1d1b;}.cls-8{fill:#4a704a;}.cls-9{fill:#445e44;}</style></defs><title>Asset 5</title><g id="Layer_2" data-name="Layer 2"><g id="Layer_1-2" data-name="Layer 1"><path class="cls-1" d="M1241.53,32,0,31.4V517.34l1241.53,5.06c142.06,0,257.22-109.78,257.22-245.2S1383.59,32,1241.53,32Z"/><circle class="cls-2" cx="1247.55" cy="277.2" r="222.67"/><path class="cls-3" d="M1202.44,247.06c-4.43-6.3-9.18-14.71-14.37-26.58-17.72-40.5,32.8-63.76,32.8-63.76s-5.78-5.15-7.16-37.31,8.94-45.71,23.52-70.31S1297-.85,1323.42,0s54.37,4.56,80.18,52.42,8.77,71.78-4.35,101.74-50.75,43-50.75,43a89.44,89.44,0,0,1,7,31.22c.78,28.64-37.92,52.45-37.92,52.45,8.61,24.6-1.37,45-9.87,60.54-11.83,21.59-35.54,22.68-35.54,22.68,3.6,14.81,2.7,31.38-10.09,45.89-30.19,34.27-53.36,6.06-53.61,5.73a8.19,8.19,0,0,1-.54-1c-11.29,4.43-37,3.34-43.26-27.45C1158.15,355,1180.14,330.08,1184,326c-10.83-24.4-3.85-40.66-3-42.42,1.22-2.39.49-16.19,21.4-36.54Z"/><path class="cls-4" d="M1220.87,156.72c6,19.44,19.81,36.59,37.45,47.27,13.35,8.09,28.39,19.59,38.83,31.12,9.47,10.45,12.91,23.74,18.08,37,.84,2.16,2.88,6.34,2.39,8.71l9.16-6.56c2.8-2-4.49-14.26-5.56-16.38-4.38-8.65-9.11-17-15.71-24.21-11.21-12.23-25.78-21.11-39.08-30.61-5.9-4.22-10.8-7.51-15.79-12.8a90.06,90.06,0,0,1-11-15c-3-4.85-8.64-7.49-12.89-11.24C1225.37,162.85,1221.39,158.41,1220.87,156.72Z"/><path class="cls-4" d="M1348.5,197.16s-14.06-49.89-43.47-65.75-15.24-33.87-15.24-33.87l1.49,9.63c1.9,6.61,30,25.2,36.19,32.76,8.61,10.51,25.09,46.58,24.5,55.86Z"/><path class="cls-4" d="M1321.48,87.24s1.22,11.49-3.33,16.15-15.27,10.66-11.65,20.93,4.3,7,4.3,7-5.91-3,2.76-13.35S1325.41,107.36,1321.48,87.24Z"/><path class="cls-4" d="M1197.76,251.9s55.52,11.43,55,41.9,21.18,32.84,19.5,70.25h0s5.57-12.36.81-23.37c-11.59-26.83-16.53-42.33-16.24-46.74.47-7.2-5.16-36.88-54.34-46.88Z"/><path class="cls-4" d="M1184,326l33.88,43.18c10.32,13.17,9.74,35.35-9.9,45.48,0,0,17.34-1.3,22.82-15.72S1222,359.2,1206,346.68C1191.1,335.09,1184,326,1184,326Z"/><path class="cls-5" d="M1183.06,393.53a6.11,6.11,0,0,0-8.57,1.08c-1.24,1.61-28,36.62-29.77,75.44-1.18-.62-2.43-1.27-3.73-2-11.25-6.12-17.31-2.78-20.8,3.9-2.13,4.08,2.67,13.69,13.53,17.43,18.32,6.29,23,2.16,23.5-4.34a14.31,14.31,0,0,0-.15-3.65,5.88,5.88,0,0,0,0-1.26c-3.32-38.2,26.76-77.66,27.06-78.05A6.11,6.11,0,0,0,1183.06,393.53Z"/><path class="cls-5" d="M1277,491.18a12.5,12.5,0,0,0-2.06-2.71,6.22,6.22,0,0,0-.83-1.3c-23.12-27.32-19.25-73.33-19.19-73.91a6.11,6.11,0,1,0-12.16-1.13c-.18,1.9-3.73,43.16,15.66,74.17-1.31.15-2.7.32-4.16.46-12.72,1.29-16,7.09-15.32,14.1.41,4.26,9.6,9.1,20.72,6.18C1278.36,502.12,1280.07,496.44,1277,491.18Z"/><path class="cls-5" d="M1190,313.19a5.59,5.59,0,0,0-7.31-3c-1.58.65-38.16,16.29-58,65.15-3.91.31-16.58,2-23.93,11.18-8.77,10.92,13.51-.91,13.51-.91s-13,16.41-10.53,20.92,16.56-15.68,16.56-15.68-7.45,18.15-4.8,21.81,11-19.78,11-19.78-2.16,19.09,2,19.06c3,0,4-19.17,4-19.17s4.59,12.2,9,10.43c3.69-1.49-2.8-16.86-6.65-23,17.93-44.86,51.81-59.55,52.16-59.7A5.59,5.59,0,0,0,1190,313.19Z"/><path class="cls-5" d="M1414,342.82c1.12-5-22.79.83-22.79.83s17.59-8.71,18-13.2-21.36,7.55-21.36,7.55,14.25-12.9,11.11-15.62c-2.24-1.94-15.64,11.77-15.64,11.77s4.62-12.18.18-13.74c-3.89-1.37-9.42,15.66-10.31,22.38C1334.42,376.91,1297.52,354,1296,353a5.59,5.59,0,0,0-6.07,9.4,71.15,71.15,0,0,0,22.6,8.61c2,.41,4.07.76,6.25,1,14.94,1.81,37.13-.18,59.76-19,3.91,2.75,13.82,8.68,24.53,6.82,13.8-2.41-10.75-8.24-10.75-8.24S1412.88,347.84,1414,342.82Z"/><path class="cls-6" d="M1227.91,303.08s8.2,8.83,24.17,4.85c10.2-2.54,11.47,4.75,9.43,8.09-1.63,2.68-12.11,7.74-22.32,6.44-14.15-1.8-21.13-10.55-20.92-15.25C1218.43,303.58,1222.11,298.79,1227.91,303.08Z"/><path class="cls-7" d="M1236.22,322.49c-12.25-2.53-18.68-10.37-18.46-15.3a7,7,0,0,1,3.6-5.82c1.42-.67,3.75-1,6.85,1.3a.23.23,0,0,1,.07.07c.08.08,8.21,8.56,23.68,4.7,6.13-1.53,8.75.55,9.76,1.93a6.46,6.46,0,0,1,.22,6.92c-1.85,3-12.77,8-22.82,6.68C1238.12,322.84,1237.16,322.68,1236.22,322.49ZM1224.53,302a4.21,4.21,0,0,0-2.73.29,6,6,0,0,0-3,4.94c-.2,4.33,6.48,12.94,20.47,14.73,10.07,1.28,20.36-3.8,21.82-6.2a5.49,5.49,0,0,0-.17-5.79c-1.49-2-4.57-2.57-8.7-1.54-15.53,3.87-24-4.33-24.62-5A8,8,0,0,0,1224.53,302Z"/><line class="cls-6" x1="1230.92" y1="305.4" x2="1222.57" y2="315.22"/><path class="cls-7" d="M1222.47,315.72a.54.54,0,0,1-.23-.11.52.52,0,0,1-.06-.72l8.35-9.81a.51.51,0,0,1,.72-.06.5.5,0,0,1,0,.71l-8.34,9.82A.52.52,0,0,1,1222.47,315.72Z"/><line class="cls-6" x1="1236.61" y1="307.92" x2="1231.82" y2="320.73"/><path class="cls-7" d="M1231.72,321.23l-.08,0a.51.51,0,0,1-.29-.66l4.78-12.8a.51.51,0,1,1,.95.35l-4.78,12.81A.51.51,0,0,1,1231.72,321.23Z"/><line class="cls-6" x1="1243.97" y1="308.96" x2="1244.11" y2="322.63"/><path class="cls-7" d="M1244,323.13a.51.51,0,0,1-.41-.49l-.14-13.67a.51.51,0,0,1,.51-.51.5.5,0,0,1,.51.5l.14,13.67a.5.5,0,0,1-.5.51Z"/><line class="cls-6" x1="1251.25" y1="308.13" x2="1256.04" y2="319.75"/><path class="cls-7" d="M1255.93,320.25a.48.48,0,0,1-.36-.3l-4.79-11.63a.51.51,0,0,1,1-.39l4.78,11.63a.51.51,0,0,1-.28.66A.45.45,0,0,1,1255.93,320.25Z"/><path class="cls-7" d="M1270.75,287.28a4.2,4.2,0,1,1-3.27-5A4.2,4.2,0,0,1,1270.75,287.28Z"/><path class="cls-7" d="M1227.1,278.27a4.2,4.2,0,1,1-3.26-5A4.2,4.2,0,0,1,1227.1,278.27Z"/><path class="cls-7" d="M1238.4,293a.5.5,0,0,1-.2-.08,2.76,2.76,0,0,1-1.23-2.11c-.13-2.17,2.29-4.42,2.39-4.52a.51.51,0,0,1,.69.75c-.6.56-2.15,2.31-2.06,3.71a1.74,1.74,0,0,0,.81,1.34.5.5,0,0,1,.11.71A.49.49,0,0,1,1238.4,293Z"/><path class="cls-7" d="M1281.08,261.71c-3.29,3.41-11.67-.83-11.67-.83Z"/><path class="cls-7" d="M1230.07,251.51s-9.38,0-10.79-4.51Z"/><g id="_Group_" data-name="&lt;Group&gt;"><g id="_Group_2" data-name="&lt;Group&gt;"><path class="cls-8" d="M20.08,458.24a161.79,161.79,0,0,1,3-63.28c8.65-34.33,30.44-82.95,85.36-113.69,92.25-51.64,132-50.47,163-14.62S313.69,360,317.28,414s-45.5,116.36-78.69,124.87-152.62,6.51-183.93-4C33.71,527.8,24.13,485.47,20.08,458.24Z"/></g><g id="_Group_3" data-name="&lt;Group&gt;"><path class="cls-9" d="M317.37,423.79c.08-1.93.11-3.85.07-5.77a451.41,451.41,0,0,1-41.88,26.41c-33.69,18.65-83.38,39.71-130.51,35.46,2.86-7.31,5.19-13.6,6.64-18.06,3.76-11.58,14.81-40.19,26.68-70.1,45.36-9.56,78.68-33.77,98.7-52.49A229,229,0,0,0,299,315.71q-.93-2.58-1.93-5.12a223.31,223.31,0,0,1-23.28,25.34c-19.12,17.85-50.62,40.82-93.31,50.57,12.25-30.77,25-61.94,31.17-76.54,9.58-22.53,22.83-53.37,28.18-65.79-1.48-.49-3-.92-4.54-1.3-5.48,12.76-18.49,43.05-27.94,65.26-6.48,15.24-20.06,48.55-32.81,80.65l0,.1c-4,10-7.83,19.8-11.38,28.94-23.54-30.89-25.37-75.63-22.62-108.23a345.9,345.9,0,0,1,7.83-48.85c-1.76.81-3.56,1.66-5.37,2.53a349.45,349.45,0,0,0-7.12,45.83c-1.85,22-1.15,42.08,2.08,59.79,4,21.73,11.79,39.87,23.24,54-6.41,16.55-11.55,30.31-13.89,37.52-4.68,14.44-18.84,48.37-29.79,74.19C80.93,491,65.13,434.87,58.31,395.09a433.94,433.94,0,0,1-6.1-63.8c-1.57,2.19-3.06,4.38-4.49,6.59a439.63,439.63,0,0,0,6,57.89,365.19,365.19,0,0,0,20.06,73c10.84,27.28,24.86,51,41.66,70.64l-1.44,3.4,5,.27c7.44-17.48,17.15-40.48,24.35-58.64q3.53.36,7.13.54c19.41,1,40.53-1.94,62.92-8.63,20.6-6.16,42.33-15.53,64.59-27.86A455.55,455.55,0,0,0,317.37,423.79Z"/></g></g></g></g></svg>