<svg xmlns="http://www.w3.org/2000/svg" viewBox="0 0 1371.3 503.3"><defs><style>.cls-1{fill:#7ac6b6;}.cls-2{fill:#77444d;}.cls-3{fill:#f0c56d;}.cls-4{fill:#ffedd4;}.cls-5{fill:#1d1d1b;}.cls-6{fill:#f4b573;}.cls-7{fill:#683b11;}.cls-8{fill:#4a704a;}.cls-9{fill:#445e44;}</style></defs><title>Asset 3</title><g id="Layer_2" data-name="Layer 2"><g id="Layer_1-2" data-name="Layer 1"><path class="cls-1" d="M1135.85,0H56.5V490.4H1135.85c130,0,235.45-109.78,235.45-245.2S1265.89,0,1135.85,0Z"/><circle class="cls-2" cx="1126.1" cy="245.2" r="222.67"/><path class="cls-3" d="M1244.75,100.47c-28.25-28-71.59-42.63-114.23-42.63-26,0-64.37,4-86.34,14.54C987.91,99.45,957,158.83,957,225.45c0,42,11.45,75.65,37,105.08,30.75,35.42,73.1,65.88,123.69,65.88,46.31,0,101-17.87,131.31-48.22s43.44-68.52,43.44-114.84C1292.39,183.36,1277.88,133.29,1244.75,100.47Zm-73.57,160c-8.73,13.17-19.64,21.56-34,24.47s-33.25-2.31-46.42-11c-14.39-9.53-20.69-26.17-22.76-42-1.72-13.18,1.36-24.9,9.28-36.85,12.56-18.94,32.55-30,53.65-27.08,8.24,1.13,19.9,7.23,27.29,12.13,12.13,8,21.69,20.37,24.45,33.65C1185.91,229.32,1180.6,246.28,1171.18,260.5Z"/><path class="cls-4" d="M1291.28,225.27l-1.59-5.39c-1.61-5.46-6.29-8.74-1.73-16.83l.47-5.6a46.09,46.09,0,0,0-9.42-31.9l-3.44-4.45a46,46,0,0,1-7.69-15.07l-1.59-5.39a46,46,0,0,0-20.3-26.33l-4.81-2.92a45.76,45.76,0,0,1-12.62-11.27l-3.43-4.45c-7-9.08-13.29-14.37-24.59-16.37l-8.21.51c-5.6-1-10.16-1.13-17-8.29l-4.81-2.91a46,46,0,0,0-32.74-5.79l-5.52,1.09a46.05,46.05,0,0,1-16.92.17l-5.53-1a46.05,46.05,0,0,0-32.63,6.44l-4.75,3a46,46,0,0,1-15.71,6.26l-5.52,1.09c-11.25,2.22-24.39.72-31.21,9.94l-4.5,12.55c-3.38,4.57-3.31,8.3-8.11,11.34l-4.75,3c-8.67,5.48-9.26,10.36-11.45,19.23a12.91,12.91,0,0,1-3.11,5.74l-4.4,4.72a14.65,14.65,0,0,0-3.16,5.26A46.27,46.27,0,0,1,974,164.11l-3.34,4.52a46,46,0,0,0-8.78,32.08l.57,5.59A46.1,46.1,0,0,1,961,223.16l-1.49,5.42c-2.91,10.66-1.54,19.19,3.23,28.94a13.65,13.65,0,0,1,.89,2.33l1.1,4.1a34.44,34.44,0,0,0,1.79,4.92,46,46,0,0,1,3.74,14l.57,5.6A46.06,46.06,0,0,0,986,318.1l4.2,3.75a45.88,45.88,0,0,1,10.32,13.4l2.56,5a46,46,0,0,0,24.8,22.16l5.26,2c5.32,2,9.22.36,13.46,4.15l5.79,5.79c8.56,7.64,19.07,14.38,30.54,14.27l5.62-.06a46,46,0,0,1,16.66,2.95l5.26,2a46.06,46.06,0,0,0,29.06,1.12,12.55,12.55,0,0,0,6.5-4.52l3.2-4.26a6.17,6.17,0,0,1,8-1.67c2.53,1.49,5,3.68,8.27,3.64l5.63,0A46.05,46.05,0,0,0,1202,375.4l4.12-3.83a46,46,0,0,1,14.29-9.05l5.23-2.08A46.08,46.08,0,0,0,1250,337.79l2.45-5.06c2.49-5.12,5.7-5.58,9.86-9.45l4.36-3.59a7,7,0,0,1,4.29-1.6c18-.21,9.28-21.71,10.19-32.7l.47-5.61a45.91,45.91,0,0,1,4.46-16.31l2.46-5.06A46,46,0,0,0,1291.28,225.27Zm-103.72,21.24-1.14,1.92a18.14,18.14,0,0,0-2.31,6.33l-.37,2.2a18.33,18.33,0,0,1-6.74,11.39l-1.76,1.38a18.26,18.26,0,0,0-4.44,5.07l-1.14,1.92a18.31,18.31,0,0,1-10.4,8.18l-2.14.66c-3.95.13-5.2,1.45-7,2.85l-2,2.57c-3.58,2.82-6.82,3.28-11.37,2.95l-2.24-.16a18.2,18.2,0,0,0-6.68.75l-2.14.66a18.32,18.32,0,0,1-13.2-1l-2-.95a18.37,18.37,0,0,0-6.51-1.72l-2.23-.16a18.28,18.28,0,0,1-12-5.67l-1.54-1.62c-1.19-3.5-3.4-3-5.45-3.95l-2-1a18.29,18.29,0,0,1-9.11-9.6l-.85-2.07a18.34,18.34,0,0,0-3.65-5.65l-1.54-1.63c-3-3.19-11.7-6.32-7-11.7a2.77,2.77,0,0,0,.66-1.7l.09-2.24c0-2.26.67-3.34-.19-5.43l-.85-2.07a18.35,18.35,0,0,1-.26-13.23l.77-2.11a18.28,18.28,0,0,0,1.11-6.64l-.05-2.23a18.33,18.33,0,0,1,4.54-12.44l1.48-1.68c.85-1,2.16-1.13,3.27-1.49a2.46,2.46,0,0,0,1.64-2.82l-.42-2.08a5,5,0,0,1,.39-3.13,18.26,18.26,0,0,1,8-8.33l2-1a18.29,18.29,0,0,0,5.29-4.17l1.48-1.68c3-3.43,7.79-4.76,12.33-5.27l3.25-.19c2.25-.25,2.8-1.84,4.81-2.89l2-1a18.35,18.35,0,0,1,13.15-1.48l2.16.57a18.13,18.13,0,0,0,6.72.49l2.22-.25a18.32,18.32,0,0,1,12.8,3.37l1.81,1.32a18.18,18.18,0,0,0,5.16,2.61,13.38,13.38,0,0,1,1.93.77l1.51.76a5,5,0,0,0,.93.36,15.1,15.1,0,0,1,9.44,6.72l1.21,1.87a18.27,18.27,0,0,0,4.63,4.89l1.81,1.31a18.34,18.34,0,0,1,7.19,11.12l.46,2.19a18.44,18.44,0,0,0,2,5.23,5.81,5.81,0,0,1,.72,2.33l.23,2.56a5.18,5.18,0,0,0,.88,2.44c2.05,3,3.34,4.48,2.67,8.5l-.36,2.21c-.38,2.23.75,3.2,1.21,5.41l2.53,4.67C1193.81,239.08,1189.88,242.58,1187.56,246.51Z"/><path class="cls-5" d="M1064.28,307.9a1.66,1.66,0,0,1-.43-3.27l30.58-8.3a1.66,1.66,0,1,1,.87,3.2l-30.58,8.31A1.67,1.67,0,0,1,1064.28,307.9Z"/><path class="cls-5" d="M1187.49,307.9a1.72,1.72,0,0,1-.44-.06l-30.58-8.31a1.66,1.66,0,1,1,.87-3.2l30.59,8.3a1.67,1.67,0,0,1-.44,3.27Z"/><path class="cls-5" d="M1135.72,330.34a26.39,26.39,0,0,1-14.32-4.51c-11.64,9-27.93,0-28.63-.43a1.11,1.11,0,1,1,1.09-1.93c.17.1,16.3,9.06,26.78.12a1.12,1.12,0,0,1,1.42,0c.52.42,12.92,10.17,26.8,0a1.11,1.11,0,1,1,1.31,1.78A24,24,0,0,1,1135.72,330.34Z"/><path class="cls-5" d="M1122.38,316.34a4.42,4.42,0,0,1-2.67-.81,5,5,0,0,1-1.76-4.32c0-2.12.62-3.54,1.79-4.22a4.21,4.21,0,0,1,3.89.21,1.11,1.11,0,0,1-1.08,1.93c-.36-.19-1.23-.5-1.7-.22s-.68,1.09-.68,2.31a3,3,0,0,0,.85,2.52,3.12,3.12,0,0,0,2.43.24,1.11,1.11,0,0,1,.66,2.11A6.28,6.28,0,0,1,1122.38,316.34Z"/><path class="cls-6" d="M1211.5,436.93l-3.09,0c8.88-37-6.23-60.8-6.94-61.89l-20,13-.07-.12c.52.84,12.51,20.77,1,52.84a12.08,12.08,0,0,0-.69,3.66,23.11,23.11,0,0,0-1.57,3c-3.63,8.42-.48,16.63,26.45,20.75,16,2.45,28.25-6.4,28.26-12.86C1234.88,444.76,1229.51,436.64,1211.5,436.93Z"/><path class="cls-6" d="M1072.94,447.49a22,22,0,0,0-1.56-3,11.8,11.8,0,0,0-.7-3.66c-11.54-32.07.46-52,1-52.84l-.07.12-20-13c-.71,1.09-15.82,24.89-6.94,61.89l-3.08,0c-18-.29-23.38,7.83-23.37,18.45,0,6.46,12.27,15.31,28.26,12.86C1073.43,464.12,1076.57,455.91,1072.94,447.49Z"/><path class="cls-6" d="M1124.06,364.59c-3-4.9-28.54-5.86-28.54-5.86s31.41-5.5,27.3-10.64-30.45,1.1-30.45,1.1,25.67-19.12,8.08-14.84c-8.13,2-14.38,7-18.77,11.75a11.69,11.69,0,0,0-3.16-.85c-7.15-.84-27.46-3.59-35.37-6.13l-.17-.05c-4.75-1.53-13.6-4.36-22.48-17.81A11.57,11.57,0,1,0,1001.19,334c13.36,20.26,28.33,25.06,34.73,27.1l.16.06c10.29,3.3,31.86,6.11,38.19,6.89,4,6.65,21.1,24.7,25.08,21,4.36-4-7.84-15.55-7.84-15.55s23.4,8.79,25,5.45c2.19-4.69-21.75-12.13-21.75-12.13S1127.06,369.49,1124.06,364.59Z"/><path class="cls-6" d="M1252.86,306.63a11.58,11.58,0,0,0-15.82,4.19c-8.1,13.94-16.77,17.27-21.43,19.06l-.17.07c-7.74,3-27.86,6.88-35,8.13a11.47,11.47,0,0,0-3.11,1c-4.65-4.53-11.18-9.16-19.41-10.67-17.8-3.27,8.91,14.36,8.91,14.36s-26.65-4.74-30.46.63,27.86,9.07,27.86,9.07-25.44,2.42-28.16,7.48,29.43.59,29.43.59-23.48,8.79-21,13.34c1.75,3.25,24.6-6.85,24.6-6.85s-11.52,12.19-6.94,16c4.18,3.44,20.22-15.54,23.84-22.42,6.29-1.14,27.66-5.17,37.74-9l.16-.06c6.26-2.41,20.94-8,33.14-29A11.58,11.58,0,0,0,1252.86,306.63Z"/><path class="cls-7" d="M1284.15,153.45a6.63,6.63,0,0,0-9.05-2.42l-78.31,45.21c7-6.79,14.4-13.86,21-20.14,12.11-11.56,24.63-23.52,33.66-32.63,4.94-5,8.52-8.79,10.95-11.64,2.91-3.41,6.89-8.09,4-13a6.62,6.62,0,0,0-9.65-2c-.22.16-22.73,16.61-47.1,32.73-17.8,11.78-30.11,19.12-38.59,23.68,10.9-11.52,25.38-27.07,37.6-41.76,25-30.06,27.57-40.7,23.69-47.42a6.63,6.63,0,0,0-9.61-2.06c-.29.21-29.64,21.31-61.11,41.9-53.29,34.86-68,39.12-71.61,39.49a6.62,6.62,0,0,0-9.83,8.52,9.46,9.46,0,0,0,6.33,4.47c4.33.93,11.77.25,34-11.88,12.43-6.76,28.33-16.46,47.27-28.82,16.35-10.68,32.22-21.56,43.9-29.69-3.57,5-8.59,11.52-15.63,19.85-14.3,16.9-31.33,34.81-41.51,45.5-1.71,1.8-3.18,3.34-4.45,4.69a22.45,22.45,0,0,1,6.8,4.77,22.66,22.66,0,0,1,8.58,6.9c.47.37.94.74,1.38,1.14.34.24.68.49,1,.75,3-1.36,6.53-3.11,10.68-5.37,8.57-4.66,19.18-11.09,31.59-19.15l-1.57,1.5c-11.8,11.28-24,22.9-33.31,32.25.3.63.56,1.26.8,1.91a24.69,24.69,0,0,1,2.58,5.32,24.82,24.82,0,0,1,4.84,13.2l98.2-56.69A6.64,6.64,0,0,0,1284.15,153.45Z"/><path class="cls-7" d="M1091.67,165.23h0Z"/><path class="cls-7" d="M1221.83,73a11.36,11.36,0,0,0-7.61-5.39c-8.16-1.86-25.77,1.08-90,40.68-39.77,24.52-85.53,55.72-119,78.51l-10.64,7.25q9.84-7.91,22.68-17.48c30.43-22.68,68.51-48.69,99.1-69.59,17.14-11.71,31.93-21.82,42.52-29.37,5.7-4.06,9.81-7.12,12.57-9.35a41.75,41.75,0,0,0,3.73-3.31c4-4.19,2.6-7.9,1.79-9.29a7.85,7.85,0,0,0-5-3.69c-4.67-1.15-12.56,0-57.15,26.52-26.78,15.92-59.27,36.49-87.94,54.64-12.06,7.64-24.29,15.39-34.88,22,13.28-14.1,29.66-31,41.76-43.45,9.12-9.41,17-17.53,22.81-23.64,3.12-3.28,5.39-5.71,6.93-7.42,2.66-3,5.67-6.31,3.14-10.69a6.65,6.65,0,0,0-4-3.09c-2.67-.7-4.28.2-7.19,1.83-1.41.79-3.39,1.92-5.75,3.28-4.16,2.39-9.92,5.72-17.13,9.91-12.41,7.2-24.77,14.42-24.77,14.42a6.62,6.62,0,1,0,6.68,11.44l10.8-6.3-1,1c-14.77,15.23-31.52,32.48-44.62,46.5-7.21,7.71-12.49,13.56-16.16,17.89-5.31,6.26-9.14,10.78-6.29,15.72a6.83,6.83,0,0,0,4.28,3.21c2.88.71,5.35-.26,11.28-3.54,3.52-1.95,8.4-4.83,14.9-8.81,12.12-7.42,28.74-17.94,46.33-29.08,17.18-10.88,35.8-22.67,53.7-33.78-28,19.23-58.85,40.66-83.86,59.55-17.47,13.2-30.15,23.66-38.75,32-9.42,9.1-17.51,18.62-12.9,26.6a6.78,6.78,0,0,0,4.37,3.21c3.29.75,5.26,0,20.48-10,9-5.92,21.35-14.36,35.68-24.13,33.72-23,79.91-54.49,119.73-79,13.15-8.09,24.86-15,35-20.52-24.47,15.27-55.91,35.35-86.58,56.3-37.66,25.72-66.85,47.73-86.78,65.41-28.49,25.27-38.24,41.67-31.59,53.18a6.76,6.76,0,0,0,4.12,3.14,7,7,0,0,0,1.73.23c2.18,0,4.41-1.12,8.49-3.27,3-1.61,7.37-4,12.84-7.1,9.14-5.19,21.67-12.47,37.25-21.64s31.24-18.5,41.48-24.61a19.93,19.93,0,0,1,2-8.82c0-.35-.06-.69-.08-1a17.5,17.5,0,0,1,1.38-7.55c-30.31,18.18-75,44.66-95.13,55.84,3.35-5.59,10.65-14.55,26.29-28.44,19.51-17.3,48.26-39,85.44-64.36,63.55-43.41,130.46-83.12,131.13-83.52A6.63,6.63,0,0,0,1221.83,73Z"/><g id="_Group_" data-name="&lt;Group&gt;"><g id="_Group_2" data-name="&lt;Group&gt;"><path class="cls-8" d="M36.12,489.53S-15.42,419.37,4.64,351.68s82.93-67.07,82.93-67.07,25.81-76.87,135.32-70S369.4,342.48,369.4,342.48s33.64-17.69,71.4,33,24.51,116.67-.46,121.8S84.16,510.78,36.12,489.53Z"/></g><g id="_Group_3" data-name="&lt;Group&gt;"><path class="cls-9" d="M236.55,496.07a2,2,0,0,1-1.15-.43,1.64,1.64,0,0,1-.21-2.47c.3-.32,30.68-32.34,47.38-49.1s87.57-75.88,88.28-76.47a2,2,0,0,1,2.72.12,1.63,1.63,0,0,1-.1,2.47c-.71.6-71.42,59.56-88,76.25s-47,48.72-47.32,49A2,2,0,0,1,236.55,496.07Z"/></g><g id="_Group_4" data-name="&lt;Group&gt;"><path class="cls-9" d="M221.21,495.21a2,2,0,0,1-1.44-.71c-.44-.53-44-53.29-80.16-77.63-15.48-10.42-31.8-28.44-48.5-53.54a373,373,0,0,1-20.46-34.62,1.67,1.67,0,0,1,.94-2.32,2,2,0,0,1,2.55.88c.32.63,31.74,62.55,67.74,86.78,30.6,20.6,66.26,61.09,77.43,74.18-.27-22.71-1-110.59,3.17-135.08,4.78-28,4.48-70.59,3.55-82.07a1.8,1.8,0,0,1,1.78-1.86,1.9,1.9,0,0,1,2.06,1.64c.93,11.59,1.24,54.61-3.58,82.87-4.67,27.31-3.08,138.61-3.06,139.73a1.76,1.76,0,0,1-1.3,1.67A2,2,0,0,1,221.21,495.21Z"/></g><g id="_Group_5" data-name="&lt;Group&gt;"><path class="cls-9" d="M301,431.24a2,2,0,0,1-1.17-.45c-22.55-18.39-11.89-86.5-11.42-89.39a1.88,1.88,0,0,1,2.18-1.46,1.81,1.81,0,0,1,1.63,2c-.11.69-10.83,69.13,10.16,86.25a1.65,1.65,0,0,1,.17,2.48A2,2,0,0,1,301,431.24Z"/></g><g id="_Group_6" data-name="&lt;Group&gt;"><path class="cls-9" d="M221.7,391.79a2,2,0,0,1-1-.34c-16.7-11-30.59-31.69-41.31-61.6a261.87,261.87,0,0,1-11.09-41.58,1.76,1.76,0,0,1,1.62-2,1.93,1.93,0,0,1,2.19,1.5,258,258,0,0,0,11,41.05c7.19,20,19.93,46.68,39.86,59.77a1.66,1.66,0,0,1,.45,2.45A2,2,0,0,1,221.7,391.79Z"/></g><g id="_Group_7" data-name="&lt;Group&gt;"><path class="cls-9" d="M227,332.14a1.93,1.93,0,0,1-1.69-1.13,1.69,1.69,0,0,1,1.1-2.26c26.47-9,28.12-35.7,28.14-36a1.84,1.84,0,0,1,2-1.65h0a1.84,1.84,0,0,1,1.82,1.85A46,46,0,0,1,254,308.76,44,44,0,0,1,227.77,332,2.12,2.12,0,0,1,227,332.14Z"/></g><g id="_Group_8" data-name="&lt;Group&gt;"><path class="cls-9" d="M92.05,392.88a98.42,98.42,0,0,1-28.56-5.78c-11.52-4.27-17.66-9.24-17.92-9.45a1.66,1.66,0,0,1-.16-2.48,2.06,2.06,0,0,1,2.72-.12c.11.09,6,4.85,16.95,8.86,10.1,3.71,26.66,7.52,48.2,4.59a1.93,1.93,0,0,1,2.2,1.48,1.75,1.75,0,0,1-1.59,2A114.4,114.4,0,0,1,92.05,392.88Z"/></g><g id="_Group_9" data-name="&lt;Group&gt;"><path class="cls-9" d="M156.24,429a1.61,1.61,0,0,1-.43-.07,1.75,1.75,0,0,1-1.32-2.18c9.13-29.15-17.8-76.83-18.07-77.3a1.67,1.67,0,0,1,.81-2.36,2,2,0,0,1,2.6.76,201.94,201.94,0,0,1,12.77,28.25c7.74,21.42,9.62,38.79,5.59,51.65A1.89,1.89,0,0,1,156.24,429Z"/></g><g id="_Group_10" data-name="&lt;Group&gt;"><path class="cls-9" d="M278.44,453.17l-.61,0a1.76,1.76,0,1,1,.21-3.5h0l.59,0c28.67,1.61,50.59-5.56,64-11.88,14.54-6.88,22.3-14.2,22.37-14.27a2,2,0,0,1,2.72,0,1.64,1.64,0,0,1,.08,2.48c-.33.31-8.27,7.8-23.37,15C330.6,447.43,308,454.83,278.44,453.17Z"/></g></g></g></g></svg>