<svg xmlns="http://www.w3.org/2000/svg" width="1920" height="510.574" viewBox="0 0 1920 510.574">
  <g id="그룹_6087" data-name="그룹 6087" transform="translate(-2983.769 -1958.454)">
    <path id="패스_7128" data-name="패스 7128" d="M4902.446,1997.284a30,30,0,1,0-58.676-8.831c0,.3.014.591.022.885h-.047c.009-.295.023-.588.023-.885a30,30,0,0,0-60,0,30,30,0,1,0-60,0,30,30,0,0,0-60,0c0,.3.014.591.022.885h-.048c.009-.295.022-.588.022-.885a30,30,0,0,0-60,0,30,30,0,1,0-60,0,30,30,0,0,0-60,0c0,.3.014.591.023.885h-.048c.008-.295.022-.588.022-.885a30,30,0,0,0-60,0,30,30,0,0,0-60,0,30,30,0,0,0-60,0c0,.3.015.591.022.885h-.047c.008-.295.023-.588.023-.885a30,30,0,0,0-60,0,30,30,0,0,0-60,0,30,30,0,0,0-60,0c0,.3.015.591.023.885h-.048c.009-.295.023-.588.023-.885a30,30,0,0,0-60,0,30,30,0,0,0-60,0c0,.3.013.591.022.885h-.047c.008-.295.022-.588.022-.885a30,30,0,0,0-60,0,30,30,0,0,0-60,0c0,.3.014.591.022.885h-.047c.009-.295.022-.588.022-.885a30,30,0,0,0-60,0,30,30,0,0,0-60,0,30,30,0,0,0-60,0c0,.3.014.591.022.885h-.048c.009-.295.022-.588.022-.885a30,30,0,0,0-60,0,30,30,0,0,0-60,0c0,.3.014.591.022.885h-.047c.009-.295.022-.588.022-.885a30,30,0,0,0-60,0,30,30,0,0,0-60,0,30,30,0,0,0-60,0c0,.3.013.591.022.885h-.047c.008-.295.022-.588.022-.885a30,30,0,0,0-60,0,30,30,0,0,0-60,0c0,.3.014.591.022.885h-.047c.009-.295.022-.588.022-.885a30,30,0,0,0-60,0,30,30,0,0,0-60,0c0,.3.014.591.023.885h-.048c.009-.295.022-.588.022-.885a30,30,0,0,0-60,0,30,30,0,0,0-60,0c0,.3.014.591.022.885h-.048c.009-.295.023-.588.023-.885a30,30,0,0,0-60,0c0,.3.014.591.023.885h-.023v449.69a30,30,0,0,0,60,0h0a30,30,0,1,0,60,0,30,30,0,1,0,60,0h0a30,30,0,0,0,60,0,30,30,0,1,0,60,0h0a30,30,0,0,0,60,0,30,30,0,0,0,60,0h0a30,30,0,1,0,60,0,30,30,0,1,0,60,0,30,30,0,0,0,60,0h0a30,30,0,0,0,60,0,30,30,0,1,0,60,0h0a30,30,0,1,0,60,0,30,30,0,0,0,60,0,30,30,0,1,0,60,0h0a30,30,0,0,0,60,0,30,30,0,1,0,60,0h0a30,30,0,0,0,60,0,30,30,0,1,0,60,0h0a30,30,0,0,0,60,0,30,30,0,0,0,60,0,30,30,0,0,0,60,0h0a30,30,0,0,0,60,0,30,30,0,0,0,60,0,30,30,0,0,0,60,0h0a30,30,0,0,0,60,0,30,30,0,1,0,60,0,30,30,0,1,0,60,0h0a30,30,0,1,0,60,0,30,30,0,1,0,60,0,30,30,0,0,0,60,0h0a30,30,0,1,0,58.676-8.831Z" transform="translate(0 0)" fill="#ffed9c"/>
    <g id="그룹_6026" data-name="그룹 6026" transform="translate(4338.255 2099.791)">
      <g id="그룹_6025" data-name="그룹 6025" transform="translate(0 0)">
        <circle id="타원_370" data-name="타원 370" cx="1.392" cy="1.392" r="1.392" fill="#79c1ed"/>
      </g>
    </g>
    <g id="그룹_6028" data-name="그룹 6028" transform="translate(4366.929 2092.308)">
      <g id="그룹_6027" data-name="그룹 6027" transform="translate(0 0)">
        <circle id="타원_371" data-name="타원 371" cx="1.392" cy="1.392" r="1.392" fill="#79c1ed"/>
      </g>
    </g>
    <g id="그룹_6030" data-name="그룹 6030" transform="translate(4462.168 1995.729)">
      <g id="그룹_6029" data-name="그룹 6029">
        <circle id="타원_372" data-name="타원 372" cx="1.392" cy="1.392" r="1.392" fill="#79c1ed"/>
      </g>
    </g>
    <g id="그룹_6032" data-name="그룹 6032" transform="translate(4336.863 2035.532)">
      <g id="그룹_6031" data-name="그룹 6031" transform="translate(0)">
        <circle id="타원_373" data-name="타원 373" cx="1.392" cy="1.392" r="1.392" fill="#79c1ed"/>
      </g>
    </g>
    <g id="그룹_6034" data-name="그룹 6034" transform="translate(4123.095 1995.749)">
      <g id="그룹_6033" data-name="그룹 6033">
        <circle id="타원_374" data-name="타원 374" cx="1.392" cy="1.392" r="1.392" fill="#79c1ed"/>
      </g>
    </g>
    <g id="그룹_6036" data-name="그룹 6036" transform="translate(4096.869 1995.749)">
      <g id="그룹_6035" data-name="그룹 6035">
        <circle id="타원_375" data-name="타원 375" cx="1.392" cy="1.392" r="1.392" fill="#79c1ed"/>
      </g>
    </g>
    <g id="그룹_6038" data-name="그룹 6038" transform="translate(3865.519 2075.08)">
      <g id="그룹_6037" data-name="그룹 6037" transform="translate(0)">
        <circle id="타원_376" data-name="타원 376" cx="1.392" cy="1.392" r="1.392" fill="#79c1ed"/>
      </g>
    </g>
    <g id="그룹_6040" data-name="그룹 6040" transform="translate(3868.164 1990.989)">
      <g id="그룹_6039" data-name="그룹 6039" transform="translate(0)">
        <circle id="타원_377" data-name="타원 377" cx="1.392" cy="1.392" r="1.392" fill="#79c1ed"/>
      </g>
    </g>
    <g id="그룹_6042" data-name="그룹 6042" transform="translate(3860.553 1978.233)">
      <g id="그룹_6041" data-name="그룹 6041">
        <circle id="타원_378" data-name="타원 378" cx="1.392" cy="1.392" r="1.392" fill="#79c1ed"/>
      </g>
    </g>
    <g id="그룹_6044" data-name="그룹 6044" transform="translate(3831.926 1969.659)">
      <g id="그룹_6043" data-name="그룹 6043">
        <path id="패스_7129" data-name="패스 7129" d="M5364.745,1991.264a1.393,1.393,0,1,1-1.393-1.392A1.393,1.393,0,0,1,5364.745,1991.264Z" transform="translate(-5361.959 -1989.872)" fill="#79c1ed"/>
      </g>
    </g>
    <g id="그룹_6046" data-name="그룹 6046" transform="translate(3245.424 1983.325)">
      <g id="그룹_6045" data-name="그룹 6045">
        <circle id="타원_379" data-name="타원 379" cx="1.392" cy="1.392" r="1.392" fill="#79c1ed"/>
      </g>
    </g>
    <g id="그룹_6048" data-name="그룹 6048" transform="translate(3265.372 2150.222)">
      <g id="그룹_6047" data-name="그룹 6047" transform="translate(0 0)">
        <circle id="타원_380" data-name="타원 380" cx="1.392" cy="1.392" r="1.392" fill="#79c1ed"/>
      </g>
    </g>
    <g id="그룹_6050" data-name="그룹 6050" transform="translate(3260.174 2160.619)">
      <g id="그룹_6049" data-name="그룹 6049" transform="translate(0 0)">
        <circle id="타원_381" data-name="타원 381" cx="1.392" cy="1.392" r="1.392" fill="#79c1ed"/>
      </g>
    </g>
    <g id="그룹_6052" data-name="그룹 6052" transform="translate(3105.547 2280.405)">
      <g id="그룹_6051" data-name="그룹 6051">
        <circle id="타원_382" data-name="타원 382" cx="1.392" cy="1.392" r="1.392" fill="#79c1ed"/>
      </g>
    </g>
    <g id="그룹_6054" data-name="그룹 6054" transform="translate(3111.755 2347.335)">
      <g id="그룹_6053" data-name="그룹 6053">
        <circle id="타원_383" data-name="타원 383" cx="1.392" cy="1.392" r="1.392" fill="#79c1ed"/>
      </g>
    </g>
    <g id="그룹_6056" data-name="그룹 6056" transform="translate(3193.46 1977.17)">
      <g id="그룹_6055" data-name="그룹 6055">
        <circle id="타원_384" data-name="타원 384" cx="1.392" cy="1.392" r="1.392" fill="#e44b57"/>
      </g>
    </g>
    <g id="그룹_6058" data-name="그룹 6058" transform="translate(3056.05 2006.887)">
      <g id="그룹_6057" data-name="그룹 6057" transform="translate(0 0)">
        <circle id="타원_385" data-name="타원 385" cx="1.392" cy="1.392" r="1.392" fill="#e44b57"/>
      </g>
    </g>
    <g id="그룹_6060" data-name="그룹 6060" transform="translate(3407.52 2014.345)">
      <g id="그룹_6059" data-name="그룹 6059" transform="translate(0 0)">
        <circle id="타원_386" data-name="타원 386" cx="1.392" cy="1.392" r="1.392" fill="#e44b57"/>
      </g>
    </g>
    <g id="그룹_6062" data-name="그룹 6062" transform="translate(3449.731 2000.692)">
      <g id="그룹_6061" data-name="그룹 6061">
        <circle id="타원_387" data-name="타원 387" cx="1.392" cy="1.392" r="1.392" fill="#e44b57"/>
      </g>
    </g>
    <g id="그룹_6064" data-name="그룹 6064" transform="translate(3723.215 2193.796)">
      <g id="그룹_6063" data-name="그룹 6063" transform="translate(0 0)">
        <circle id="타원_388" data-name="타원 388" cx="1.392" cy="1.392" r="1.392" fill="#e44b57"/>
      </g>
    </g>
    <g id="그룹_6066" data-name="그룹 6066" transform="translate(4241.765 2015.535)">
      <g id="그룹_6065" data-name="그룹 6065">
        <circle id="타원_389" data-name="타원 389" cx="1.392" cy="1.392" r="1.392" fill="#e44b57"/>
      </g>
    </g>
    <g id="그룹_6068" data-name="그룹 6068" transform="translate(4444.788 2015.529)">
      <g id="그룹_6067" data-name="그룹 6067" transform="translate(0 0)">
        <circle id="타원_390" data-name="타원 390" cx="1.392" cy="1.392" r="1.392" fill="#e44b57"/>
      </g>
    </g>
    <g id="그룹_6070" data-name="그룹 6070" transform="translate(4385.364 2160.379)">
      <g id="그룹_6069" data-name="그룹 6069" transform="translate(0 0)">
        <circle id="타원_391" data-name="타원 391" cx="1.392" cy="1.392" r="1.392" fill="#e44b57"/>
      </g>
    </g>
    <g id="그룹_6072" data-name="그룹 6072" transform="translate(4316.042 2359.659)">
      <g id="그룹_6071" data-name="그룹 6071" transform="translate(0)">
        <circle id="타원_392" data-name="타원 392" cx="1.392" cy="1.392" r="1.392" fill="#e44b57"/>
      </g>
    </g>
    <g id="그룹_6074" data-name="그룹 6074" transform="translate(3714.175 2276.97)">
      <g id="그룹_6073" data-name="그룹 6073" transform="translate(0)">
        <circle id="타원_393" data-name="타원 393" cx="2.785" cy="2.785" r="2.785" fill="#79c1ed"/>
      </g>
    </g>
    <g id="그룹_6076" data-name="그룹 6076" transform="translate(3643.528 2158.066)">
      <g id="그룹_6075" data-name="그룹 6075">
        <circle id="타원_394" data-name="타원 394" cx="2.785" cy="2.785" r="2.785" fill="#79c1ed"/>
      </g>
    </g>
    <g id="그룹_6078" data-name="그룹 6078" transform="translate(3748.864 2112.235)">
      <g id="그룹_6077" data-name="그룹 6077" transform="translate(0 0)">
        <circle id="타원_395" data-name="타원 395" cx="2.785" cy="2.785" r="2.785" fill="#79c1ed"/>
      </g>
    </g>
    <g id="그룹_6080" data-name="그룹 6080" transform="translate(4425.823 2046.651)">
      <g id="그룹_6079" data-name="그룹 6079" transform="translate(0 0)">
        <circle id="타원_396" data-name="타원 396" cx="2.785" cy="2.785" r="2.785" fill="#79c1ed"/>
      </g>
    </g>
    <g id="그룹_6082" data-name="그룹 6082" transform="translate(4415.901 2211.358)">
      <g id="그룹_6081" data-name="그룹 6081" transform="translate(0 0)">
        <circle id="타원_397" data-name="타원 397" cx="2.785" cy="2.785" r="2.785" fill="#79c1ed"/>
      </g>
    </g>
    <g id="그룹_6084" data-name="그룹 6084" transform="translate(4628.832 2244.754)">
      <g id="그룹_6083" data-name="그룹 6083" transform="translate(0 0)">
        <circle id="타원_398" data-name="타원 398" cx="2.785" cy="2.785" r="2.785" fill="#79c1ed"/>
      </g>
    </g>
    <g id="그룹_6086" data-name="그룹 6086" transform="translate(4850.418 2239.788)">
      <g id="그룹_6085" data-name="그룹 6085">
        <circle id="타원_399" data-name="타원 399" cx="2.785" cy="2.785" r="2.785" fill="#79c1ed"/>
      </g>
    </g>
    <path id="패스_7130" data-name="패스 7130" d="M4836.07,1994.725l-1.7-.866-1.349,1.349.3-1.884-1.7-.866,1.884-.3.3-1.884.866,1.7,1.884-.3-1.349,1.349Z" transform="translate(-1188.835 -20.472)" fill="#ffc253"/>
    <path id="패스_7131" data-name="패스 7131" d="M3629.392,2693.774l-3.407-.666-1.686,3.035-.42-3.446-3.407-.666,3.148-1.464-.42-3.446,2.365,2.541,3.148-1.464-1.686,3.035Z" transform="translate(-409.629 -468.796)" fill="#79c1ed"/>
    <path id="패스_7132" data-name="패스 7132" d="M3699.428,3053.358l-4.67-2.915-4.215,3.541,1.329-5.342-4.67-2.915,5.491-.387,1.329-5.342,2.065,5.1,5.491-.387-4.215,3.541Z" transform="translate(-452.561 -695.823)" fill="#79c1ed"/>
    <path id="패스_7133" data-name="패스 7133" d="M6180.085,2211.775l-5.8-1.75-3.456,4.974-.127-6.056-5.8-1.75,5.72-1.992-.127-6.055,3.662,4.824,5.72-1.992-3.457,4.974Z" transform="translate(-2046.616 -154.851)" fill="#ffc253"/>
    <path id="패스_7134" data-name="패스 7134" d="M5277.174,2266.754l-5.063-.3-1.854,4.721-1.275-4.909-5.063-.3,4.275-2.729-1.274-4.909,3.917,3.223,4.275-2.729-1.854,4.721Z" transform="translate(-1466.958 -192.92)" fill="#e44b57"/>
    <path id="패스_7135" data-name="패스 7135" d="M3961.773,2692.073l-6.919-1.652-3.709,6.069-.567-7.091-6.919-1.652,6.568-2.73-.566-7.091,4.626,5.4,6.568-2.73-3.709,6.07Z" transform="translate(-617.555 -462.88)" fill="#e44b57"/>
  </g>
</svg>
