<svg xmlns="http://www.w3.org/2000/svg" viewBox="0 0 850.91 1385.58"><defs><style>.cls-1{isolation:isolate;}.cls-2,.cls-4{fill:#ec646b;}.cls-3,.cls-5{fill:#fff;}.cls-3{opacity:0.54;}.cls-4{opacity:0.18;}.cls-4,.cls-7{mix-blend-mode:multiply;}.cls-5{opacity:0.23;}.cls-6,.cls-7{fill:#fece6b;}.cls-7{opacity:0.16;}</style></defs><title>Asset 16</title><g class="cls-1"><g id="Layer_2" data-name="Layer 2"><g id="Layer_1-2" data-name="Layer 1"><path class="cls-2" d="M461.85,1385.58l-2.63-1c19.16-52.6,7.73-107.23-11.2-197.75-7.62-36.39-16.24-77.64-24.67-127-6.77-39.72-8.23-78.06-4.34-114a315.66,315.66,0,0,1,19.42-81c16.66-42.62,37.3-64.25,37.51-64.46l2,1.94c-.2.21-20.52,21.54-37,63.69-15.19,38.91-30.09,104-14.87,193.29,8.42,49.33,17,90.55,24.65,126.92C469.79,1277.3,481.28,1332.23,461.85,1385.58Z"/><path class="cls-2" d="M824.09,629.45C760.48,763,600.91,848.79,481.52,791.94S328.16,557.13,391.77,423.57s202.56-176,321.94-119.19S887.7,495.89,824.09,629.45Z"/><path class="cls-3" d="M619.65,339.37c-25-10.18-53.28-19.25-81.14-23.2,0,0-38.67,11-78.3,51.9,16,.51,44.16,4,82.84,18.88C571.43,359.42,600.37,345.88,619.65,339.37Z"/><path class="cls-3" d="M709,386.45a554.56,554.56,0,0,0-82.57-43.3c-19.35,6.3-48.44,19.51-77.13,46.72,22.42,8.9,48.34,21.68,77.4,40C648.09,409.43,675.33,392.29,709,386.45Z"/><path class="cls-3" d="M539.15,392.06c-38.68-14.85-66.88-18.37-82.83-18.89-20.68,21.36-41.61,50.87-57.44,91.23,12.46,1.83,41.66,7.33,79.26,22.23C494.8,444.15,516.8,413.75,539.15,392.06Z"/><path class="cls-3" d="M622.72,434.9c-29.05-18.29-55-31.07-77.39-40-22.58,21.42-44.91,51.54-62,93.78a453.6,453.6,0,0,1,77.14,40.89C564.9,518,584.55,471.28,622.72,434.9Z"/><path class="cls-4" d="M590.57,684.54c.84,64.86,35.17,100.68,35.17,100.68C455.15,830.65,395.85,675.73,395.85,675.73c4.45,1,68.49,5.83,97.87-37.32Z"/><path class="cls-5" d="M789.55,650.44S751,731.07,665.72,767c0,0,7.17-19.66-8.33-56.34,0,0,71.78-28.82,107.37-116.81C764.76,593.87,784.94,615.91,789.55,650.44Z"/><path class="cls-2" d="M478.16,788.38s-2,8.09-13.79,7,16.16,23.14,24.84,19.56-5.36-23.1-5.36-23.1Z"/><path class="cls-2" d="M477.16,782.91s-4.48.35-.8,5.72,12.92,11.83,12.42,5.7S481.3,783.13,477.16,782.91Z"/><path class="cls-2" d="M491.26,791.65s-13.82,2.49-15.67-.19,3.43-6.83,11.57-4.92S493.14,791.51,491.26,791.65Z"/><path class="cls-2" d="M468.6,795.39s-10.63-5.26-13.45-1.95S455,805,467.57,814.28,496,825.54,498,817.85s-17.65-9.47-20.83-14.25S472.81,797.86,468.6,795.39Z"/><path class="cls-6" d="M333.73,1167.54c-25-62.88-10.16-128.4,12.23-227.57,8.63-38.23,18.41-81.55,27.56-131.84,17-93.31,6.51-161.85-5.26-202.92-12.75-44.49-29.73-67.21-29.9-67.43l2.23-1.7c.17.23,17.41,23.26,30.32,68.19a381.12,381.12,0,0,1,13.77,85.12c2,37.65-.86,77.77-8.4,119.24-9.16,50.35-18.95,93.7-27.59,132-22.28,98.66-37,163.84-12.36,225.92Z"/><path class="cls-6" d="M468.8,170.93C515.54,311.29,460,483.72,334.53,525.5s-273.3-62.92-320-203.28,24-267.3,149.42-309.08S422.06,30.57,468.8,170.93Z"/><path class="cls-3" d="M120.37,103.57c-25.1,10-51.75,23.06-74.56,39.53,0,0-20.27,34.71-20.46,91.68C37.2,224.09,60,207.07,98.15,191,99.51,151.44,111,121.63,120.37,103.57Z"/><path class="cls-3" d="M217.39,75.58a554.33,554.33,0,0,0-89.52,26c-9.59,18-21.4,47.64-23.21,87.14,22.32-9.13,49.86-17.89,83.49-24.85C189.44,134.35,197.18,103.12,217.39,75.58Z"/><path class="cls-3" d="M98.88,197.34c-38.18,16.11-60.95,33.13-72.8,43.82-.1,29.72,5.28,65.49,21.84,105.56,10.25-7.31,35.11-23.59,72.54-38.92C103,265.63,97.8,228.48,98.88,197.34Z"/><path class="cls-3" d="M188.81,170.29c-33.63,7-61.17,15.72-83.49,24.84-1.43,31.1,3.36,68.28,20.29,110.6a454,454,0,0,1,83.94-24C204.76,270.29,186.51,223,188.81,170.29Z"/><path class="cls-7" d="M338.68,372.5c45.57,46.17,95.14,48.19,95.14,48.19-91.45,151-241.59,80.45-241.59,80.45,3.88-2.39,53.4-43.28,44.67-94.74Z"/><path class="cls-5" d="M458.46,210s28.09,84.86-8.43,169.86c0,0-8.47-19.14-45.07-34.83,0,0,31.76-70.53-3.58-158.62C401.38,186.41,431.2,188.31,458.46,210Z"/><path class="cls-6" d="M329.65,525.27s4.17,7.21-5.07,14.64,27.69,5.48,31.46-3.13-19.87-12.93-19.87-12.93Z"/><path class="cls-6" d="M325.13,522s-3,3.36,3.39,4.68,17.51-.43,12.9-4.5S328.27,519.31,325.13,522Z"/><path class="cls-6" d="M341.35,518.55s-8.23,11.38-11.42,10.72-2.27-7.29,4.92-11.57S342.61,517.14,341.35,518.55Z"/><path class="cls-6" d="M327.62,537s-11.32,3.58-11.05,7.92,7.93,8.43,23.4,6.41,28.27-11.57,24.39-18.51-19.28,5.4-24.89,4.16S332.36,535.82,327.62,537Z"/></g></g></g></svg>