<svg xmlns="http://www.w3.org/2000/svg" viewBox="0 0 1642.43 1227.17"><defs><style>.cls-1{fill:#ec646b;}.cls-2{fill:#fece6b;}.cls-3{fill:#91cbf0;}.cls-4{fill:#068bbc;}</style></defs><title>Asset 15</title><g id="Layer_2" data-name="Layer 2"><g id="Layer_1-2" data-name="Layer 1"><path class="cls-1" d="M642.18,979.28c.2-1,2.39-13.66,2.5-13.65-1.91-.16-3.82-.21-5.73-.24a133.05,133.05,0,0,0-13.83.47,92.32,92.32,0,0,0-17.13,3,44.9,44.9,0,0,0-15.4,7.32,24.49,24.49,0,0,0-9,13.77c-.08.33-.16.66-.23,1s-.12,1-.16,1.4c0,0,0,.09,0,.14s0,.3-.05.44c0-.07,0-.17,0-.28,0,.22,0,.42,0,.62s0,.48,0,.7,0,.6,0,.9,0,.48,0,.68c0,.76,0,1.52.07,2.27a42.22,42.22,0,0,0,1.41,8.12,27.34,27.34,0,0,1,3-2.67,44.91,44.91,0,0,1,14.93-7.08,90.27,90.27,0,0,1,16.55-3,134.48,134.48,0,0,1,13.76-.57c1.48,0,3,.06,4.45.13a6.82,6.82,0,0,0,2.1.12s.07,0,.09,0C639.79,992.91,642,980.33,642.18,979.28Z"/><path class="cls-1" d="M653,1143.55c0-.5-.06-.9-.09-1.18C652.92,1142.76,653,1143.15,653,1143.55Z"/><path class="cls-1" d="M653,1143.55c0,.08,0,.16,0,.25v-.07C653,1143.67,653,1143.61,653,1143.55Z"/><path class="cls-1" d="M652.88,1142.37a.49.49,0,0,1,0-.12A.53.53,0,0,0,652.88,1142.37Z"/><path class="cls-1" d="M657.71,1122.64a28.35,28.35,0,0,0,.56-5.43c-.1-7-3.35-13.71-6.84-19.6-6.19-10.46-14.28-19.79-22.54-28.66-12.3-13.19-24.69-26.33-34.31-41.68-4.09-6.53-8-13.73-10.06-21.31a42.22,42.22,0,0,1-1.41-8.12c-.05-.75-.07-1.51-.07-2.27s0-1.52.11-2.28c0-.2,0-.4,0-.62,0,.11,0,.21,0,.28,0-.14,0-.29.05-.44s0-.09,0-.14c0-.44.09-.91.16-1.4-1.57,6.69-2.73,13.5-4,20.24-.51,2.74-1.1,5.48-1.42,8.25a31.67,31.67,0,0,0-.17,5.06,43.06,43.06,0,0,0,2.31,11.34c3.68,11,10.25,21,17.18,30.2,5,6.66,10.43,13,16,19.18,5.21,5.72,10.66,11.21,15.78,17,6.63,7.52,13,15.43,18,24.19a65.23,65.23,0,0,1,3.11,6.2,34,34,0,0,1,2.68,9.61.49.49,0,0,0,0,.12c0,.28.06.68.09,1.18,0,.06,0,.12,0,.18v.07c0,.64.06,1.41,0,2.29,0,.28,0,.56,0,.85C654.87,1138.91,656.3,1130.75,657.71,1122.64Z"/><path class="cls-1" d="M585.82,1203.92l.39-2.13c.13-.62.22-1.25.29-1.88a70,70,0,0,1-4.64-11.65,39.65,39.65,0,0,1-1.54-9c0-.74-.05-1.47,0-2.2v0c0-.48,0-1.18.1-2,0-.32,0-.65.07-1l0,.13c-1.14,5.34-2.16,10.71-3.18,16.07-.67,3.52-1.41,7-1.92,10.6a30.55,30.55,0,0,0-.23,6.55,49.38,49.38,0,0,0,4.09,15.35q1,2.25,2,4.46a9.93,9.93,0,0,0,.28-1.17c.21-.93.41-1.87.59-2.81.66-3.2,1.28-6.41,1.9-9.62S585.24,1207.14,585.82,1203.92Z"/><path class="cls-1" d="M653,1146.09c0-.88,0-1.65,0-2.29,0-.09,0-.17,0-.25,0-.4-.05-.79-.09-1.18a.53.53,0,0,1,0-.12,34,34,0,0,0-2.68-9.61,39,39,0,0,1-5.9,3.68c-7.47,3.85-15.65,6.18-23.64,8.67-8.2,2.56-16.56,5.11-24.15,9.21-6.46,3.5-12.48,8.45-14.94,15.6a37.72,37.72,0,0,0-1.1,4.21c0,.35-.05.68-.07,1-.06.85-.08,1.55-.1,2v0c0,.73,0,1.46,0,2.2a39.65,39.65,0,0,0,1.54,9,30.45,30.45,0,0,1,2.86-2.57,58.83,58.83,0,0,1,15.48-8.31c6-2.34,12.19-4.2,18.34-6.12A157.75,157.75,0,0,0,636,1165c4.66-2.09,9.34-4.71,12.71-8.62a17.69,17.69,0,0,0,3.4-5.9c.23-.69.42-1.4.58-2.11.12-.48.22-1,.33-1.45C653,1146.65,653,1146.37,653,1146.09Z"/><path class="cls-2" d="M737.33,272.17c-.9-.48-12.35-6.31-12.31-6.41-.71,1.77-1.32,3.59-1.92,5.4a134.25,134.25,0,0,0-3.62,13.35,92.22,92.22,0,0,0-2.18,17.26,45,45,0,0,0,2.45,16.88,24.47,24.47,0,0,0,10.51,12.64l.88.52,1.3.56.14.06.4.17-.26-.11.58.23.65.24.85.31.64.21c.73.23,1.46.44,2.2.61a42.31,42.31,0,0,0,8.17,1.05,28.13,28.13,0,0,1-1.67-3.66,45.38,45.38,0,0,1-2.36-16.36,90.28,90.28,0,0,1,2-16.7,130.48,130.48,0,0,1,3.51-13.32c.46-1.41.93-2.82,1.44-4.21.16-.45.79-1.49.73-2a.36.36,0,0,1,0-.09C749.65,278.48,738.27,272.68,737.33,272.17Z"/><path class="cls-2" d="M897.47,310.34c-.49-.12-.88-.21-1.16-.26C896.7,310.15,897.09,310.24,897.47,310.34Z"/><path class="cls-2" d="M897.47,310.34l.24.06-.07,0Z"/><path class="cls-2" d="M896.31,310.08l-.11,0Z"/><path class="cls-2" d="M878.9,299.64a28.16,28.16,0,0,0-5-2.14c-6.71-2-14.09-.84-20.74.75-11.83,2.83-23.13,7.8-34,13.08-16.24,7.86-32.45,15.82-50,20.49-7.44,2-15.47,3.6-23.32,3.32a42.31,42.31,0,0,1-8.17-1.05c-.74-.17-1.47-.38-2.2-.61s-1.44-.48-2.14-.76l-.58-.23.26.11-.4-.17-.14-.06-1.3-.56c5.94,3.47,12.1,6.59,18.17,9.78,2.47,1.29,4.92,2.66,7.47,3.78a29,29,0,0,0,4.78,1.65,43,43,0,0,0,11.52,1.15c11.6-.27,23.08-3.6,33.92-7.51,7.85-2.82,15.52-6.12,23.07-9.66,7-3.29,13.85-6.88,20.9-10.06,9.14-4.11,18.59-7.9,28.41-10a61.54,61.54,0,0,1,6.85-1.14,34,34,0,0,1,10,.27l.11,0c.28.05.67.14,1.16.26l.17,0,.07,0c.62.15,1.37.36,2.21.62.26.08.53.16.81.26C893.6,307.16,886.22,303.38,878.9,299.64Z"/><path class="cls-2" d="M935.34,392.31l-1.92-1c-.56-.3-1.13-.58-1.71-.83a69.51,69.51,0,0,1-12.5,1,39.22,39.22,0,0,1-9-1.17c-.71-.18-1.42-.39-2.11-.63h0c-.46-.15-1.12-.39-1.92-.69l-.93-.36.12.06c4.76,2.67,9.59,5.22,14.41,7.78,3.17,1.68,6.32,3.43,9.57,5a30,30,0,0,0,6.18,2.16,49.17,49.17,0,0,0,15.87.62c1.63-.16,3.25-.38,4.87-.64-.34-.22-.68-.42-1-.61l-2.51-1.39c-2.87-1.57-5.76-3.12-8.64-4.66S938.25,393.82,935.34,392.31Z"/><path class="cls-2" d="M899.92,311c-.84-.26-1.59-.47-2.21-.62l-.24-.06c-.38-.1-.77-.19-1.16-.26l-.11,0a34,34,0,0,0-10-.27A39.61,39.61,0,0,1,888,316.5c1.47,8.27,1.29,16.78,1.31,25.14,0,8.6,0,17.33,1.68,25.8,1.43,7.2,4.38,14.41,10.49,18.87a36.88,36.88,0,0,0,3.7,2.3l.93.36c.8.3,1.46.54,1.92.69h0c.69.24,1.4.45,2.11.63a39.22,39.22,0,0,0,9,1.17,30.74,30.74,0,0,1-1.62-3.49c-2.14-5.48-3-11.41-3.37-17.24-.46-6.43-.41-12.89-.43-19.33a159.34,159.34,0,0,0-.81-18.54c-.63-5.06-1.74-10.31-4.49-14.68a17.64,17.64,0,0,0-4.63-5c-.6-.42-1.22-.81-1.85-1.18l-1.28-.74C900.45,311.18,900.18,311.1,899.92,311Z"/><path class="cls-1" d="M1587.74,420.89l-.2.24-.09.11C1587.55,421.12,1587.64,421,1587.74,420.89Z"/><path class="cls-1" d="M1588.42,420.25l.13-.12S1588.56,420.11,1588.42,420.25Z"/><path class="cls-1" d="M1587.54,421.13l.2-.24c-.1.11-.19.23-.29.35l.09-.11c-.17.2-.34.4-.52.59l-.27.31c-.53.59.19-.18.88-.91l1.27-1.73C1588.46,420,1588,420.56,1587.54,421.13Z"/><path class="cls-1" d="M1588.92,419.36l0,0h0Z"/><path class="cls-1" d="M1601,407.61c1.25-1.32,2.53-2.63,3.71-4a40.73,40.73,0,0,0,5.87-9.09,43.27,43.27,0,0,0,3.75-22,47.51,47.51,0,0,0-2.77-12.22,118.71,118.71,0,0,1-6.07-21.14c-1-6.16-1.5-13.09.37-19.23a112.27,112.27,0,0,0-16.22,14.51,28.28,28.28,0,0,0-2.71,11.85,60.17,60.17,0,0,0,1.54,14.7c.71,3.24,1.59,6.44,2.59,9.6s2.21,6.13,3.25,9.22a46,46,0,0,1,2,21.56,42.25,42.25,0,0,1-3.24,10.9,39,39,0,0,1-4.11,7.08l0,0h0l-1.27,1.73-.65.86C1591.76,417.3,1596.38,412.44,1601,407.61Zm-12.57,12.64c.14-.14.16-.16.13-.12Z"/><path class="cls-1" d="M1473.38,364.36l1.37-1.44.39-.41c.26-.28.52-.57.77-.87a10.75,10.75,0,0,1,.54-7.55c.17-.39.35-.76.55-1.13.11-.2.24-.39.37-.59.24-.41.53-.87.88-1.36.13-.19.27-.38.42-.58-3.64,3.49-7.11,7.18-10.61,10.8-2.23,2.31-4.54,4.58-6.66,7a18.81,18.81,0,0,0-1.59,2.06,11.84,11.84,0,0,0-2,7.68,9.33,9.33,0,0,0,.41,1.87c0-.08,3-3,2.65-2.61q3.17-3.18,6.29-6.41C1469.23,368.68,1471.32,366.53,1473.38,364.36Z"/><path class="cls-1" d="M1587.63,421.12c-.69.73-1.41,1.5-.88.91l.27-.31c.18-.19.35-.39.52-.59.46-.57.92-1.14,1.36-1.74l0,0a39,39,0,0,0,4.11-7.08,29.79,29.79,0,0,1-4.3,1.55,30.4,30.4,0,0,1-15.07.15,40.91,40.91,0,0,1-16-8.31,73.57,73.57,0,0,1-15.56-18.29c-2.85-4.55-5.46-9.23-8.5-13.67a114.53,114.53,0,0,0-8.62-11.14,64.49,64.49,0,0,0-16.3-13.78,32.47,32.47,0,0,0-14.09-4.45,20.92,20.92,0,0,0-10.88,2.25,19.13,19.13,0,0,0-4.17,3l-.83.8c-.15.2-.29.39-.42.58-.35.49-.64.95-.88,1.36-.13.2-.26.39-.37.59s-.19.4-.29.6-.2.4-.26.53a10.75,10.75,0,0,0-.54,7.55c-.25.3-.51.59-.77.87h.94c7.18.16,13.94,3.43,19.64,7.58,9.49,6.91,16.88,16.51,23.1,26.34,3.57,5.64,6.71,11.48,10.82,16.76a65.09,65.09,0,0,0,10.78,11.1c6.21,4.92,13.69,8.45,21.7,8.75a30.5,30.5,0,0,0,18.88-5.8,37.9,37.9,0,0,0,4.08-3.4L1587,422Z"/><path class="cls-3" d="M329.35,962.29l.3.09.13,0Z"/><path class="cls-3" d="M328.49,961.92l-.16-.06Z"/><path class="cls-3" d="M329.65,962.38l-.3-.09.43.13-.13,0,.75.24.39.13c.75.25-.25-.11-1.19-.45s-1.55-.36-2.08-.47C328.23,962,328.94,962.18,329.65,962.38Z"/><path class="cls-3" d="M327.48,961.82h0Z"/><path class="cls-3" d="M311.88,955.44c-1.7-.63-3.41-1.28-5.15-1.81a39.91,39.91,0,0,0-10.68-1.76,43.2,43.2,0,0,0-21.65,5.31,48,48,0,0,0-10.11,7.42,118.41,118.41,0,0,1-17,14c-5.24,3.4-11.41,6.59-17.79,7.32a111.77,111.77,0,0,0,19.78,9.1,28.37,28.37,0,0,0,11.94-2.24,60.06,60.06,0,0,0,12.87-7.28c2.69-1.93,5.28-4,7.77-6.2s4.75-4.46,7.17-6.65a45.88,45.88,0,0,1,19-10.4,41.72,41.72,0,0,1,11.29-1.37,39.08,39.08,0,0,1,8.13,1h0c.53.11,1.24.27,2.08.47l1,.26C324.45,960,318.16,957.74,311.88,955.44Zm16.61,6.48-.16-.06Z"/><path class="cls-3" d="M323.08,1089.7l-1.87-.68-.53-.19c-.36-.13-.73-.26-1.11-.36a10.73,10.73,0,0,1-7.14,2.51c-.42,0-.83,0-1.25,0l-.68-.1c-.48-.07-1-.15-1.61-.27l-.7-.16c4.65,1.95,9.42,3.66,14.14,5.43,3,1.13,6,2.34,9.07,3.32a19.79,19.79,0,0,0,2.52.64,11.87,11.87,0,0,0,7.85-1.21,10,10,0,0,0,1.55-1.12c-.05,0-3.94-1.59-3.44-1.4-2.79-1.09-5.59-2.15-8.39-3.21S325.89,1090.73,323.08,1089.7Z"/><path class="cls-3" d="M329.6,962.3c.94.34,1.94.7,1.19.45l-.39-.13-.75-.24c-.71-.2-1.42-.39-2.13-.55h0a39.08,39.08,0,0,0-8.13-1,29.92,29.92,0,0,1,3.13,3.33A30.46,30.46,0,0,1,328.62,978a40.81,40.81,0,0,1-1.23,18,73.63,73.63,0,0,1-10.57,21.57c-3,4.43-6.29,8.68-9.15,13.24a113.91,113.91,0,0,0-6.79,12.35,64.65,64.65,0,0,0-6.13,20.44,32.43,32.43,0,0,0,1.53,14.7,20.92,20.92,0,0,0,6.39,9.08,19.31,19.31,0,0,0,4.45,2.61c.36.16.72.3,1.07.44l.7.16c.59.12,1.13.2,1.61.27l.68.1.66,0,.59,0a10.73,10.73,0,0,0,7.14-2.51c.38.1.75.23,1.11.36-.13-.29-.26-.58-.37-.87-2.72-6.64-2.41-14.15-.88-21,2.56-11.45,8.41-22,14.95-31.68,3.75-5.52,7.85-10.73,11.06-16.61a64.45,64.45,0,0,0,5.88-14.31c2-7.65,2.3-15.92-.62-23.39a30.56,30.56,0,0,0-12.84-15,37,37,0,0,0-4.75-2.38c-.82-.35-1.64-.67-2.46-1Z"/><path class="cls-4" d="M1585.36.62a1063.25,1063.25,0,0,1-120.84,190.24A1103.65,1103.65,0,0,1,1306.21,352C1248,400.41,1185,443.3,1118.64,480.93S982.65,551,911,578.76a1935.3,1935.3,0,0,1-220.38,70q-56.19,14.4-113.25,25.77T462.7,694.71q-57.58,8.7-115.6,14.77t-116.2,9.59q-58.18,3.51-116.39,4.34-29.07.4-58,0c-9.63-.14-19.25-.34-28.8-.63q-7.15-.21-14.23-.51l-7-.31L3,721.82l-3-.17.09-1.4,3,.18,3.42.17,7,.32q7.07.29,14.23.5,14.31.44,28.77.63,28.89.39,58,0,58.1-.81,116.32-4.35T347,708.09q57.94-6.09,115.53-14.76t114.56-20.12q57-11.43,113.18-25.75a1935.18,1935.18,0,0,0,220.22-70c71.64-27.72,141.21-60.12,207.5-97.73s129.25-80.44,187.36-128.78A1101.82,1101.82,0,0,0,1463.42,190,1061.43,1061.43,0,0,0,1584.11,0Z"/><path class="cls-1" d="M97.06,844.47q32.5-61.31,61.69-123.47-31.22,1-62.39,1.19c-20.76.12-41.5,0-62-.58C53.82,762.9,74.94,803.84,97.06,844.47Z"/><path class="cls-3" d="M242.62,839.46q28.9-63,54.84-126.65-62.32,5.34-124.83,7.71Q206.15,780.45,242.62,839.46Z"/><path class="cls-2" d="M387.52,826.65q25.53-64.5,48-129.4-61.89,8.65-124.23,14.33Q348,769.65,387.52,826.65Z"/><path class="cls-1" d="M531.65,806q22-65.81,40.69-131.88-61.19,12.15-123.06,21.13Q489,751.29,531.65,806Z"/><path class="cls-3" d="M674.63,777.16q18.09-67,32.58-134.11-60.15,15.88-121.28,28.37Q628.74,725.06,674.63,777.16Z"/><path class="cls-2" d="M815.89,739.29q13.73-68.1,23.43-136-29.34,10-59,19t-59.72,17.16Q766.58,690.34,815.89,739.29Z"/><path class="cls-1" d="M954.62,691.48q8.76-69,13-137.37-28.36,12.17-57.2,23.34c-4.82,1.84-9.61,3.73-14.45,5.53l-14.49,5.41L867,593.66c-4.85,1.74-9.74,3.43-14.6,5.15,8.21,7.9,16.53,15.81,24.9,23.63s16.81,15.59,25.34,23.34,17.11,15.37,25.79,23S945.78,684,954.62,691.48Z"/><path class="cls-3" d="M1089.69,632.68c.5-11.61.94-23.12,1.24-34.69s.51-23.09.62-34.56.08-23,0-34.45c0-5.7-.14-11.44-.26-17.16s-.25-11.43-.41-17.12l-6.77,3.63c-2.25,1.21-4.51,2.42-6.78,3.59L1063.67,509,1049.94,516c-4.57,2.31-9.2,4.52-13.8,6.79q-27.68,13.47-55.92,25.9Q1033.07,592.17,1089.69,632.68Z"/><path class="cls-2" d="M1219.57,561.8q-3.36-69.6-12.2-137.43-50.7,34.13-104.53,63.79Q1159.24,526.89,1219.57,561.8Z"/><path class="cls-1" d="M1342.27,477.9q-2.67-17.28-5.64-34.31c-2-11.4-4.16-22.77-6.39-34s-4.64-22.53-7.12-33.68q-1.87-8.37-3.82-16.68t-4-16.64l-5.78,4.94-5.87,4.84c-3.92,3.21-7.78,6.5-11.77,9.64l-11.89,9.5-12,9.33q-24.23,18.49-49.34,35.88Q1278.44,449.63,1342.27,477.9Z"/><path class="cls-3" d="M1455.35,380.45q-2.31-8.43-4.69-16.78l-2.4-8.33-2.48-8.34q-5-16.65-10.31-33c-7.2-21.93-14.75-43.43-22.92-64.71-6.8,7.46-13.84,14.71-20.84,22L1381,282.05c-.9.89-1.77,1.8-2.68,2.68l-2.72,2.65-5.43,5.29c-1.81,1.76-3.61,3.54-5.44,5.28l-5.52,5.21c-3.7,3.46-7.33,7-11.1,10.35s-7.47,6.83-11.24,10.21l-11.4,10q15.73,6.51,31.78,12.74c10.66,4.12,21.38,8.1,32.22,12s21.7,7.65,32.69,11.32q8.23,2.75,16.54,5.42C1444.27,377,1449.79,378.74,1455.35,380.45Z"/><path class="cls-2" d="M1556.2,269.77c-8.79-21.49-18.24-42.75-28-63.49q-7.41-15.65-15.1-30.95l-3.85-7.62-4-7.62q-4-7.6-8-15.11l-4.39,6.15-2.2,3.07-2.26,3-9,12.14c-6.17,8-12.27,16-18.64,23.84-12.64,15.72-25.65,31.15-39.21,46.11A1356.38,1356.38,0,0,0,1556.2,269.77Z"/><path class="cls-1" d="M1642.43,147.11A1351,1351,0,0,0,1568.19,30.8c-9.57,17.77-19.49,35.34-30.08,52.51-1.32,2.15-2.6,4.32-3.95,6.45l-4,6.39-4,6.39-2,3.19-2.09,3.16-8.32,12.62L1505.08,134q16.85,2.47,33.93,4.59t34.18,3.7l8.62.81,8.59.73q8.61.7,17.26,1.31t17.38,1.12C1630.86,146.58,1636.61,146.85,1642.43,147.11Z"/></g></g></svg>