<svg xmlns="http://www.w3.org/2000/svg" viewBox="0 0 1535.07 740.9"><defs><style>.cls-1{fill:#ba3817;}.cls-2{fill:#353535;}.cls-3{fill:#ec6619;}</style></defs><title>Asset 11</title><g id="Layer_2" data-name="Layer 2"><g id="Layer_1-2" data-name="Layer 1"><path class="cls-1" d="M1.83,53.24H77v5.57H42.54V81.87H36.37V58.81H1.83Zm9.74-31.92h49.5v-11H11.14V4.87h56.2V26.62H17.75V37.85H69.08v5.3H11.57Z"/><path class="cls-1" d="M84.3,53.24h75.17v5.57H125V81.87h-6.18V58.81H84.3Zm9.75-31.92h49.5v-11H93.61V4.87h56.2V26.62H100.22V37.85h51.33v5.3H94.05Z"/><path class="cls-1" d="M193.23,61.51q12.78-.6,23.83-2l.7,5.48q-8.7,1.22-19.36,2T179,67.69H165.82L165.56,62h13.83q2,0,7.57-.18V48.2a19.76,19.76,0,0,1-13-6.05q-5-5.26-5-14.57V25.75a22.4,22.4,0,0,1,2.74-11.48,17.32,17.32,0,0,1,7.4-7,24.93,24.93,0,0,1,21,0,17.37,17.37,0,0,1,7.4,7,22.5,22.5,0,0,1,2.74,11.48v1.83q0,9-4.7,14.27a19.53,19.53,0,0,1-12.35,6.26Zm-17.93-34q0,7.32,4,11.23a15.79,15.79,0,0,0,20.8,0Q204,34.81,204,27.49V25.84q0-7.31-3.95-11.27a15.67,15.67,0,0,0-20.8,0q-4,4-4,11.27Zm55.6,5.4h12.52v5.65H230.9V80.91h-6.18V.61h6.18Z"/><path class="cls-1" d="M311.11,47.68V68.73h34.45v5.74H270.4V68.73h34.53V47.68H280.14V6.53h55v5.65h-48.8V42.11h49.59v5.57Z"/><path class="cls-1" d="M404.81,38.72Q397.6,40,388.45,40.8t-17.74.79H358.53V5h6.26v31h7q7,0,15.88-.69T404,33.32ZM426,75.78l-2.7,5.57L392.89,66.47A42,42,0,0,1,382,74.87a87.08,87.08,0,0,1-16.1,6.82l-2.17-5.39q13-4.35,20.7-10.22t7.66-12.66V49h6.26v4.44a17.07,17.07,0,0,1-2.09,8.18Zm-5.13-24.54h-6.18V20.88h-23V15.31h23V.7h6.18Z"/><path class="cls-1" d="M496,67.69H458.4V7.05H496Zm-6.18-54.9H464.58V62h25.23ZM519.91,32h13.31v5.74H519.91V80.91h-6.26V.61h6.26Z"/><path class="cls-1" d="M614.13,39.41H539v-5.3h75.17ZM570.89,27.23q-10.78,0-16.7-3.22a10.49,10.49,0,0,1-5.92-9.83,10.32,10.32,0,0,1,5.92-9.74q5.91-3.14,16.7-3.13H582.2q10.88,0,16.79,3.13a10.32,10.32,0,0,1,5.92,9.74A10.49,10.49,0,0,1,599,24q-6,3.22-16.75,3.22Zm35.76,54.12H548.71V61.51h49.5v-9H548.27V47.24h56.2V66.73H554.88V76h51.77Zm-25.4-59.42q8.52,0,13-2t4.44-5.79q0-7.56-17.4-7.57h-9.31q-17.49,0-17.49,7.57,0,7.76,17.49,7.75Z"/><path class="cls-1" d="M667.64,33.06q-5.92,10.27-20.8,19.32l-3-5.05q10.88-6.87,16.4-14.14A26.15,26.15,0,0,0,665.72,17H646.58V11.31h19.23V0h6.09V11.31h19.4V17H671.81a32.3,32.3,0,0,1-1.74,10.61L694,45.76l-3.4,4.87ZM665,58.2v17h49.15v5.65H658.85V58.2ZM704.26.61h6.18V62.38h-6.18Z"/><path class="cls-1" d="M800.22,43.94v5.74H765.77V81.87h-6.18V49.68H725.06V43.94h54.81q1.56-8.62,2.52-17.27a132.7,132.7,0,0,0,1-14V10.88H733.67V5.13h55.85v6.18q0,13.32-3.39,32.63Z"/><path class="cls-1" d="M882.7,39.41H807.53v-5.3H882.7Zm-7.48,41.94H817.28V61.51h49.5v-9H816.84V47.24H873V66.73H823.45V76h51.77ZM818.06,2.18h53.33V7.4H824.24V21.58h48V26.8h-54.2Z"/><path class="cls-1" d="M899.23,63.64q-5.75-6.57-5.74-20v-12q0-13.48,5.74-20a20.12,20.12,0,0,1,29.75,0q5.74,6.57,5.75,20v12q0,13.48-5.75,20a20.12,20.12,0,0,1-29.75,0Zm25.4-4.31q3.92-5.13,3.92-15.83V31.58q0-10.69-3.92-15.79a13.39,13.39,0,0,0-21,0q-3.87,5.09-3.87,15.79V43.5q0,10.7,3.87,15.83a13.3,13.3,0,0,0,21,0Zm33.24,21.58H951.6V.61h6.27Z"/><path class="cls-1" d="M25.75,124.92A99.67,99.67,0,0,1,24,144.24l17,28.62L32,179,20,158.77a87.76,87.76,0,0,1-11.57,21L0,173.29A80.41,80.41,0,0,0,11.53,150.5a85.49,85.49,0,0,0,3.69-25.58v-11H25.75Zm36.46,13.83v-29.4H73v81.26H62.21V148.85h-8.1v39.84H43.59v-78H54.11v28.1Z"/><path class="cls-1" d="M127.45,161.81v13h32.72V185H83.61V174.77h32.71v-13H92.57V133.19h47.59V124.4h-48v-10h59.16v28.54H103.62v9.14H153v9.74Z"/><path class="cls-1" d="M166.08,160.5V150.41h76.56V160.5H209.93v12.79H198.79V160.5Zm31.32-16.79q-10.35,0-16.57-4.48a14.49,14.49,0,0,1-6.22-12.48,14.2,14.2,0,0,1,6.22-12.31Q187,110,197.4,110h13.92q10.35,0,16.62,4.4a14.17,14.17,0,0,1,6.26,12.31,14.45,14.45,0,0,1-6.26,12.48q-6.27,4.49-16.62,4.48Zm-22,23.41h11.14v13.13h48.54v10.36H175.39Zm24-47.5q-6.53,0-10.13,1.91t-3.61,5.39c0,2.32,1.2,4.11,3.61,5.35s5.78,1.87,10.13,1.87h9.92q6.52,0,10.14-1.87c2.4-1.24,3.61-3,3.61-5.35s-1.21-4.12-3.61-5.39-5.79-1.91-10.14-1.91Z"/><path class="cls-1" d="M312,177.73h-40.8V114.92H312ZM300.93,125.1H282.31v42.45h18.62Zm35.15,13.65h11.74v10.1H336.08v41.76H324.94V109.35h11.14Z"/><path class="cls-1" d="M429.17,150.06H352.61v-8.78h76.56Zm-45.59-13.57q-10.44,0-16.44-3.3a11,11,0,0,1-6-10.27,10.71,10.71,0,0,1,6-10q6-3.25,16.4-3.26H398.2q10.35,0,16.44,3.26a10.7,10.7,0,0,1,6.09,10,11,11,0,0,1-6.05,10.27q-6,3.3-16.48,3.3ZM422.47,191h-60.9V168.77h47.59v-4.61h-48v-8.7h59.15v21.83H372.62v4.88h49.85ZM396,127.88q13.58,0,13.57-4.78T396,118.31H385.84q-13.65,0-13.66,4.79t13.66,4.78Z"/><path class="cls-1" d="M456.66,158.94h76.56V169H500.51v22.53H489.37V169H456.66Zm5.22-16.1q26.79-8.86,28-20.35H466.4v-9.75h57.16v9.75H501.12a21.55,21.55,0,0,1-1.74,7.39L528,142.93l-4.7,9.48-30.19-13.83q-8.61,8.17-27.32,13.83Z"/><path class="cls-1" d="M584.38,155.2H542.7V113.26h41.68ZM553.49,123v22.44h20.1V123Zm59.16,67.6H554.54V164.33h11v16.19h47.07Zm-3-21.14H598.47V109.35h11.22Z"/><path class="cls-1" d="M697.48,148.41H622.31v-5.3h75.17Zm-43.24-12.18q-10.8,0-16.71-3.22a10.5,10.5,0,0,1-5.91-9.83,10.33,10.33,0,0,1,5.91-9.74q5.93-3.14,16.71-3.13h11.31q10.88,0,16.79,3.13a10.33,10.33,0,0,1,5.91,9.74,10.48,10.48,0,0,1-6,9.83q-6,3.23-16.74,3.22ZM690,190.35H632.05V170.51h49.5v-9H631.62v-5.22h56.2v19.49H638.23V185H690Zm-25.4-59.42q8.52,0,13-2t4.44-5.79q0-7.56-17.4-7.57h-9.31q-17.49,0-17.49,7.57,0,7.75,17.49,7.75Z"/><path class="cls-1" d="M731.4,122.14v-5.66h37.94v6.18A57.32,57.32,0,0,1,760,154q-9.31,14.61-26.19,25.75l-3.65-4.87q15.39-10,24.14-23.49t8.74-27.49v-1.74Zm56.21,67.77v-80.3h6.17v80.3Z"/><path class="cls-1" d="M824.32,170.86q6.87,0,15.49-.74t16.61-1.87l.7,5.48q-7.3,1.31-16.31,2t-17.53.74H810.75V116.05h37.76v5.74H817v49.07ZM871.82,141h13.31v5.74H871.82v43.15h-6.26v-80.3h6.26Z"/><path class="cls-1" d="M895.66,178.25V143.89h31.15V121.7H895.66v-5.65h37.41v33.49H901.84V172.6h8.44q7.22,0,16.05-.74t16.57-2l.78,5.39a152.89,152.89,0,0,1-16.35,2.18q-9.23.78-18.1.78Zm63.08,11.66h-6.18v-80.3h6.18Z"/><path class="cls-1" d="M1008.59,143.71v34h39.93v5.74H973.35v-5.74h29.06v-34Zm24.53-21.66H981.79V116.4h57.51v6.78a169,169,0,0,1-1.22,18.79q-1.21,10.71-3.22,21.58l-6.09-1.13q1.9-10.18,3.13-20.75a156.9,156.9,0,0,0,1.22-17.1Z"/><path class="cls-1" d="M1086.41,145.19q-5.88-4.69-5.88-13.48v-1.66q0-8.78,5.88-13.48t15.09-4.7a26.27,26.27,0,0,1,10.62,2,16.71,16.71,0,0,1,7.43,6.13,17.54,17.54,0,0,1,2.74,10v1.66a17.52,17.52,0,0,1-2.74,10,16.8,16.8,0,0,1-7.43,6.14,26.43,26.43,0,0,1-10.62,2Q1092.27,149.89,1086.41,145.19Zm65.55,41-3.74,4.52L1132.3,177q-4.62,7.47-14.27,13.65L1102.2,177q-4.62,7.47-14.27,13.65l-3.39-4.69q15.74-10.44,15.74-23v-4.18h6.09V163a25.62,25.62,0,0,1-1.56,8.7l13.57,11.57q11.92-9.23,11.92-20.27v-4.18h6.09V163a24.49,24.49,0,0,1-1.57,8.7Zm-65.16-54.64q0,6.09,4,9.44t10.66,3.35q6.43,0,10.49-3.35t4-9.44v-1.3q0-6.09-4-9.44a15.94,15.94,0,0,0-10.49-3.35q-6.62,0-10.66,3.35t-4,9.44Zm51.94-21.83h6.17v43.84h-6.17Z"/><path class="cls-1" d="M1221,109.61h6.26v80.3H1221V147.54h-16.88v5.05q0,13.49-5.74,20a20.12,20.12,0,0,1-29.75,0q-5.75-6.57-5.75-20v-12q0-13.49,5.75-20.05a20.12,20.12,0,0,1,29.75,0q5.74,6.57,5.74,20.05v1.31H1221Zm-23,31q0-10.7-3.92-15.79a12.61,12.61,0,0,0-10.53-5.09,12.48,12.48,0,0,0-10.48,5.09q-3.87,5.08-3.87,15.79V152.5q0,10.69,3.87,15.83a12.42,12.42,0,0,0,10.48,5.14,12.55,12.55,0,0,0,10.53-5.14q3.92-5.13,3.92-15.83Z"/><path class="cls-1" d="M1296.9,161.11v16.62h20.19v5.66h-75.17v-5.66h20.27V161.11h6.18v16.62h22.36V161.11Zm-23.14-4.87a26.94,26.94,0,0,1-12.48-2.74,19.87,19.87,0,0,1-8.22-7.52,21.58,21.58,0,0,1,0-21.54,20,20,0,0,1,8.22-7.48,26.94,26.94,0,0,1,12.48-2.74h11.57a27,27,0,0,1,12.49,2.74,20.4,20.4,0,0,1,0,36.54,27,27,0,0,1-12.49,2.74Zm1-36.36a22.66,22.66,0,0,0-9.92,2,14.72,14.72,0,0,0-6.35,5.48,14.47,14.47,0,0,0-2.18,7.83,14.85,14.85,0,0,0,2.18,8,14.61,14.61,0,0,0,6.35,5.52,22.66,22.66,0,0,0,9.92,2h9.48a22.69,22.69,0,0,0,9.92-2,14.66,14.66,0,0,0,6.35-5.52,14.84,14.84,0,0,0,2.17-8,14.46,14.46,0,0,0-2.17-7.83,14.78,14.78,0,0,0-6.35-5.48,22.69,22.69,0,0,0-9.92-2Z"/><path class="cls-2" d="M48.81,694.26h-9.6v12H12.91V677.63h26.3v12h9.6V674.77h4.87v35.11H48.81Zm-31.17,7.3H34.41V682.22H17.64Zm50,38.62H25V714.6h42.7Zm-5.09-21H30v16.33H62.56Zm.15-9.31V674.05h4.94v35.83Z"/><path class="cls-2" d="M129.62,700.63V674.05h5.09v66.13h-5.09V705.29H114v24H82.41V678.64h5v19.63h21.5V678.64H114v22Zm-42.2,2.29v21.64h21.5V702.92Z"/><path class="cls-2" d="M166.81,694.61q-5.09,7.74-16.84,14l-2.51-4.22q9.24-5,13.79-10.68a20.46,20.46,0,0,0,4.55-13.11v-4.15h5.09v4.15a24.62,24.62,0,0,1-1.86,9.74l20.13,12.76-2.58,4.15Zm-1.65,26.73h32.31v-8.81h5.09v27.65H160.07V712.53h5.09Zm0,4.58v9.6h32.31v-9.6Zm32.31-17.41V674.05h5.09v34.46Z"/><path class="cls-2" d="M239.31,726.28q11.1-.64,19.77-1.72l.58,4.51q-7.38,1.08-16.3,1.69t-16.37.61H215.53l-.29-4.73h12q1.88,0,6.88-.14v-9.18a17.69,17.69,0,0,1-9.85-3.83,10.4,10.4,0,0,1-3.76-8.34v-1.22a10.48,10.48,0,0,1,4.59-9.06c3.05-2.18,7-3.26,11.67-3.26a19.19,19.19,0,0,1,11.5,3.26,10.52,10.52,0,0,1,4.55,9.06v1.22a10.47,10.47,0,0,1-3.76,8.41,17.21,17.21,0,0,1-9.78,3.76Zm-.07-43.77h16.84v4.37H217.32v-4.37h16.76v-8.39h5.16Zm-13.68,22.56a6.85,6.85,0,0,0,3.18,5.88,13.79,13.79,0,0,0,8.06,2.22,13.33,13.33,0,0,0,7.88-2.22,6.85,6.85,0,0,0,3.16-5.88v-1a6.93,6.93,0,0,0-3.16-5.91,13.21,13.21,0,0,0-7.88-2.26,13.72,13.72,0,0,0-8.06,2.23,6.9,6.9,0,0,0-3.18,5.94Zm39.83,35.11V674.05h5.09v66.13Z"/><path class="cls-2" d="M299.92,722.48q.65-5.73,1-11.32-2.08.08-5.95.07H283.44l-.21-4.44h12q6.38,0,15.29-.57t16.52-1.51l.5,4.3A216.28,216.28,0,0,1,306,711q-.5,6.38-1.07,11.89Zm-8-25.07a9.77,9.77,0,0,1-4.87-8.74v-.93A9.85,9.85,0,0,1,291.9,679q4.88-3.12,12.39-3.12t12.4,3.12a9.87,9.87,0,0,1,4.87,8.78v.93a9.79,9.79,0,0,1-4.87,8.74q-4.87,3.08-12.4,3.08T291.9,697.41Zm.07-8.89a6.23,6.23,0,0,0,3.4,5.56,17.2,17.2,0,0,0,8.92,2,17.4,17.4,0,0,0,9-2,6.24,6.24,0,0,0,3.44-5.56v-.64a6.22,6.22,0,0,0-3.44-5.55,17.3,17.3,0,0,0-9-2,17.1,17.1,0,0,0-8.92,2,6.22,6.22,0,0,0-3.4,5.55Zm8.38,37.12v9.81h41.2v4.73H295.27V725.64Zm12.9-5.16v-4.23h20.13v-42.2h5.09v53h-5.09v-6.52Z"/><path class="cls-2" d="M370.49,684.37v-4.66h30.45v5.09a47.89,47.89,0,0,1-7.49,25.72A72.34,72.34,0,0,1,372.5,731.8l-3.08-4a67,67,0,0,0,19.38-19.38q7.05-11.07,7.05-22.61v-1.43Zm49.65,15.55h11v4.72h-11v35.54H415V674.05h5.16Z"/><path class="cls-2" d="M473,691.82a14.06,14.06,0,0,1-2.25,8.06,13.92,13.92,0,0,1-6.16,5,23.44,23.44,0,0,1-17.48,0,13.9,13.9,0,0,1-6.17-5,14.06,14.06,0,0,1-2.25-8.06V690.6q0-7.1,4.83-10.92t12.36-3.84q7.46,0,12.29,3.84T473,690.6Zm-29.15-.07a9.1,9.1,0,0,0,3.29,7.48,15.49,15.49,0,0,0,17.45,0,9.07,9.07,0,0,0,3.33-7.48v-1.08a9.07,9.07,0,0,0-3.33-7.52,15.69,15.69,0,0,0-17.45,0,9.1,9.1,0,0,0-3.29,7.52Zm10.46,29.59h32.24v-8.81h5.15v27.65H449.23V712.53h5.09Zm0,4.58v9.6h32.24v-9.6Zm32.24-17.41V674.05h5.15v34.46Z"/><path class="cls-2" d="M565.65,706h-61.9v-4.38h61.9ZM530,696q-8.88,0-13.75-2.65a8.63,8.63,0,0,1-4.87-8.09,8.51,8.51,0,0,1,4.87-8q4.88-2.58,13.75-2.57h9.32q9,0,13.83,2.57a8.52,8.52,0,0,1,4.87,8,8.63,8.63,0,0,1-4.91,8.09q-4.9,2.65-13.79,2.65Zm29.45,44.57H511.77V724.2h40.77v-7.45H511.42v-4.3H557.7v16H516.86v7.67h42.63Zm-20.92-48.93q7,0,10.68-1.62t3.65-4.76q0-6.24-14.33-6.23H530.9q-14.4,0-14.4,6.23t14.4,6.38Z"/><path class="cls-2" d="M622.61,703.71V710H651v4.37h-61.9V710h28.44v-6.24H597.75v-28h44.63v4.37H602.83v7.31h39.55v4.37H602.83v7.59h40.91v4.37Zm4.94,16.41q7.82,0,12,2.79a9,9,0,0,1,0,15.19q-4.15,2.79-12,2.8h-15q-7.89,0-12-2.8a9,9,0,0,1,0-15.19q4.18-2.79,12-2.79Zm-1.22,16.41c4.11,0,7.18-.52,9.21-1.54a4.82,4.82,0,0,0,0-9q-3-1.54-9.21-1.54H613.8q-6.16,0-9.25,1.54a4.8,4.8,0,0,0,0,9c2.06,1,5.14,1.54,9.25,1.54Z"/><path class="cls-2" d="M670.18,674.12h5.09v10.39h12.89v4.73H657.21v-4.73h13Zm9.17,23.79a12.11,12.11,0,0,1,4.44,5.37,20,20,0,0,1,1.58,8.24v3.8a20,20,0,0,1-1.58,8.2,12.34,12.34,0,0,1-4.44,5.45,11.57,11.57,0,0,1-6.52,1.9,11.91,11.91,0,0,1-6.63-1.9,12.32,12.32,0,0,1-4.47-5.41,19.83,19.83,0,0,1-1.58-8.24v-3.8q0-7.1,3.47-11.28a11.36,11.36,0,0,1,9.21-4.19A11.7,11.7,0,0,1,679.35,697.91Zm1.15,13.9a13.52,13.52,0,0,0-2.15-8.06,6.54,6.54,0,0,0-5.52-3,6.67,6.67,0,0,0-5.66,3,13.52,13.52,0,0,0-2.15,8.06V715a13.86,13.86,0,0,0,2.15,8.13,6.6,6.6,0,0,0,5.66,3.05,6.48,6.48,0,0,0,5.52-3.05A13.86,13.86,0,0,0,680.5,715Zm28.15-11.89V674.05h5.09v66.13h-5.09V704.64H698.41V739h-4.95V675.13h4.95v24.79Z"/><path class="cls-2" d="M742.33,715.18V710.8h61.9v4.38Zm48.79,11.46H750.35V722.2h45.92v18.7h-5.15Zm-35-26.87H797v4.44H751V675.7h44.64v4.37H756.08v7.59h39.55V692H756.08Z"/><path class="cls-2" d="M861,697.91H845.35v6.23H813.83V676.92h5v8.88h21.49v-8.88h5v4.87H861v-7.74h5.16v32.74H861Zm-42.2-7.6v9.32h21.49v-9.32Zm10,37.69v8h40.12v4.51H823.71V723.63H861v-7.74H823.36v-4.44H866.2V728ZM861,693.54v-7.38H845.35v7.38Z"/><path class="cls-2" d="M900.23,681.5h16.62V686H878.52V681.5h16.62v-8.31h5.09ZM913.77,704a10.66,10.66,0,0,1-4.51,9.06,18.81,18.81,0,0,1-11.47,3.33,21.88,21.88,0,0,1-8.16-1.46,13.17,13.17,0,0,1-5.77-4.27,10.7,10.7,0,0,1-2.11-6.66v-1.22a10.45,10.45,0,0,1,4.54-9,21.86,21.86,0,0,1,23,0,10.47,10.47,0,0,1,4.51,9Zm-26.94-.07A6.74,6.74,0,0,0,890,709.7a15.13,15.13,0,0,0,15.65,0,6.73,6.73,0,0,0,3.16-5.77v-1a6.73,6.73,0,0,0-3.16-5.76,15.07,15.07,0,0,0-15.65,0,6.73,6.73,0,0,0-3.12,5.76Zm2.37,18.41h5.16v13.11h39.76v4.66H889.2Zm41.12-48.29v20.28h11v4.8h-11v25.79h-5.09V674.05Z"/><path class="cls-2" d="M981.33,684.51H993.8v4.73H963.71v-4.73h12.46V674.12h5.16Zm6.34,15.73q3.33,4.18,3.33,11.28v3.8a20.33,20.33,0,0,1-1.54,8.24A12.55,12.55,0,0,1,985.2,729a11.52,11.52,0,0,1-15.26-2.33q-3.37-4.23-3.37-11.32v-3.8q0-7.15,3.37-11.32a10.94,10.94,0,0,1,9-4.15A10.65,10.65,0,0,1,987.67,700.24Zm-1.47,11.57a14,14,0,0,0-2-8.06,6.28,6.28,0,0,0-10.67,0,14,14,0,0,0-2,8.06V715a14.4,14.4,0,0,0,2,8.13,6.19,6.19,0,0,0,10.67,0,14.4,14.4,0,0,0,2-8.13Zm6.16-13.9h8.53V675.13h5V739h-5V720.48h-8.53v-4.59h8.53v-13.4h-8.53Zm22.79,42.27V674.05h5.08v66.13Z"/><path class="cls-2" d="M1063.36,708.58q-5.08.87-10,1.3t-11.21.42h-8.74V677.63H1059v4.52h-20.56v9.24h19.85v4.51h-19.85v9.82H1043a126.42,126.42,0,0,0,19.77-1.58Zm19.71,13.47h-38.33v-4.73h43.41v23.5h-5.08Zm.14-31.74V674.12h4.94v38.55h-4.94V694.9h-10v17.77h-4.87v-37.9h4.87v15.54Z"/><path class="cls-2" d="M1161.23,706h-61.9v-4.38h61.9Zm-35.61-10q-8.88,0-13.75-2.65a8.63,8.63,0,0,1-4.87-8.09,8.51,8.51,0,0,1,4.87-8q4.88-2.58,13.75-2.57h9.32q9,0,13.82,2.57a8.51,8.51,0,0,1,4.88,8,8.63,8.63,0,0,1-4.91,8.09q-4.9,2.65-13.79,2.65Zm29.45,44.57h-47.72V724.2h40.77v-7.45H1107v-4.3h46.28v16h-40.84v7.67h42.63Zm-20.92-48.93q7,0,10.67-1.62t3.66-4.76q0-6.24-14.33-6.23h-7.67q-14.4,0-14.4,6.23t14.4,6.38Z"/><path class="cls-2" d="M1212.17,677.28h5v29.59h-31V677.28h5v9.88h20.92Zm-20.92,14.54v10.46h20.92V691.82Zm46.07,28.44h-36.54v15.26h38.11v4.66h-43.2V715.61h41.63Zm-.43-46.21v14.83h11v4.66h-11V711h-5.16v-36.9Z"/><path class="cls-2" d="M1282.13,683q4.62,5.37,4.62,16.55v9.88q0,11.17-4.62,16.55a16.15,16.15,0,0,1-24.07,0q-4.62-5.37-4.62-16.55v-9.88q0-11.17,4.62-16.55a16.15,16.15,0,0,1,24.07,0Zm-.54,16.55q0-8.82-3.11-13a9.89,9.89,0,0,0-8.35-4.19,10,10,0,0,0-8.45,4.19q-3.17,4.2-3.16,13v9.81q0,8.82,3.16,13a10,10,0,0,0,8.45,4.23,9.85,9.85,0,0,0,8.35-4.23q3.11-4.23,3.11-13Zm23.14.36h11v4.72h-11v35.54h-5.08V674.05h5.08Z"/><path class="cls-2" d="M1354,714.24v15.91h28.37v4.73h-61.9v-4.73h28.44V714.24h-20.42V678.56h5.09v13.33h35.68V678.56h5.15v35.68Zm15.26-17.62h-35.68v13h35.68Z"/><path class="cls-2" d="M1406.61,686.59a77.49,77.49,0,0,1-1.65,16l15.62,24.57-4.15,3-13.33-21A71.47,71.47,0,0,1,1391.28,731l-3.8-3.3a68.36,68.36,0,0,0,10.61-19.13,65.74,65.74,0,0,0,3.51-22v-8.46h5Zm7.52,11.25h11.68V675.13h5V739h-5V702.57h-11.68Zm25.94,42.34V674.05h5v66.13Z"/><path class="cls-2" d="M1501.61,716.46v13.69h16.62v4.66h-61.9v-4.66H1473V716.46h5.08v13.69h18.42V716.46Zm-19-4a22.35,22.35,0,0,1-10.29-2.25,16.49,16.49,0,0,1-6.77-6.2,17,17,0,0,1-2.36-8.88,16.79,16.79,0,0,1,2.36-8.85,16.46,16.46,0,0,1,6.77-6.16,22.23,22.23,0,0,1,10.29-2.26h9.52a22.23,22.23,0,0,1,10.29,2.26,16.81,16.81,0,0,1,0,30.09,22.35,22.35,0,0,1-10.29,2.25Zm.86-29.94a18.7,18.7,0,0,0-8.17,1.64,12.19,12.19,0,0,0-5.23,4.52,11.86,11.86,0,0,0-1.79,6.45,11.84,11.84,0,0,0,7,11.1,18.69,18.69,0,0,0,8.17,1.65h7.8a18.69,18.69,0,0,0,8.17-1.65,11.84,11.84,0,0,0,7-11.1,11.86,11.86,0,0,0-1.79-6.45,12.19,12.19,0,0,0-5.23-4.52,18.7,18.7,0,0,0-8.17-1.64Z"/><path class="cls-2" d="M1528.23,736.28a3.87,3.87,0,0,1-1.18-2.83,3.74,3.74,0,0,1,1.18-2.8,4.06,4.06,0,0,1,5.66,0,3.74,3.74,0,0,1,1.18,2.8,4,4,0,0,1-6.84,2.83Zm5.26-17.38h-4.87l-.43-41.91h5.73Z"/><path class="cls-3" d="M25,344.81c1.56-2.46,2.12-6.48,2.12-11.5,0-20-10.38-55.37-17.41-66.87H36.92a67.77,67.77,0,0,0-.67,9.82c0,16.08,4.36,36.84,9.72,52.58,2.9-16.29,12.16-35.27,12.16-52.91a44.91,44.91,0,0,0-1-9.49h18.2c0,20.1,6.36,39.3,14.51,62.4,3.57-12.61,6-24,6-36.17a95.47,95.47,0,0,0-3.8-26.23H113.5c-8.37,22-16.74,48.78-16.74,65.75,0,5.36.78,9.72,2.68,12.62H71.64c0-14.18-7.48-30.26-12.72-44.66-6.14,16.64-7.71,26.68-9.72,44.66Z"/><path class="cls-3" d="M119.09,344.81a457.82,457.82,0,0,0,0-78.37H142a457.82,457.82,0,0,0,0,78.37Z"/><path class="cls-3" d="M173.57,344.92c1.56-17.64,3.13-35.39,3.13-53.14,0-7.37-.23-14.62-.9-22H169c-4.69,0-8.7,2.68-8.7,9.38,0,4,2.56,7.92,7,7.92,2.68,0,3.91-1,3.91-1.89s-1-1.57-3-1.57c-2.57,0-3.35-1.11-3.35-2.23a2.23,2.23,0,0,1,2.46-2.23c2.79,0,5,2.79,5,5.91,0,6.48-5.8,9.83-11.94,9.83-6.92,0-14.29-4.36-14.29-13.62,0-7.15,5.47-14.85,18.42-14.85h40.3c12.95,0,18.42,7.7,18.42,14.85,0,9.26-7.37,13.62-14.29,13.62-6.14,0-12-3.35-12-9.83,0-3.12,2.24-5.91,5-5.91a2.23,2.23,0,0,1,2.45,2.23c0,1.12-.78,2.23-3.35,2.23-2,0-3,.78-3,1.57s1.23,1.89,3.91,1.89c4.46,0,7-3.9,7-7.92,0-6.7-4-9.38-8.71-9.38h-6.14c-.67,7.37-.89,14.62-.89,22,0,17.75,1.56,35.5,3.13,53.14Z"/><path class="cls-3" d="M223,305c0-29,20.87-40.85,38.62-40.85,13.18,0,24.78,6.58,24.78,17.75,0,7-5.24,13.5-14.28,13.5-9.38,0-13.73-5.91-13.73-11.38,0-4.69,3.12-9.27,8.48-9.27,1.67,0,2.45.89,2.45,1.79a1.64,1.64,0,0,1-1.67,1.67c-1.67,0-2.23-.78-4.24-.78-1.23,0-1.9,1.23-1.9,2.57,0,2.45,2.23,3.91,4.58,3.91,2.79,0,5.8-2.13,5.8-7,0-4.35-2.9-9.15-8.37-9.15-11.72,0-18.2,17-18.2,34.94,0,29.36,11.73,40.3,20.43,40.3,5.14,0,9.27-3.91,9.27-10.05s-3.35-9.37-5.58-9.37c-1.12,0-2,.78-2,2.34,0,1.79,3.23,2.34,3.23,5.47a2.53,2.53,0,0,1-2.45,2.68c-1.45,0-3-1.23-3-3.8a12.28,12.28,0,0,1,11.61-12.72c7,0,11.06,5.13,11.06,11.05,0,10.83-9.94,18-25.68,18C241.45,346.48,223,333.42,223,305Z"/><path class="cls-3" d="M293.69,344.81a457.82,457.82,0,0,0,0-78.37h22.89q-1.51,17.93-1.68,35.84h25.35q-.18-17.92-1.68-35.84h22.89a457.82,457.82,0,0,0,0,78.37H338.57q1.68-19.59,1.68-39.19H314.9q0,19.61,1.68,39.19Z"/><path class="cls-3" d="M368.83,288.21V264.32h14.51l-10.83,23.89Z"/><path class="cls-3" d="M389.14,328.06c0-7.36,5.81-14.29,15.3-14.29,6.36,0,12.17,3.46,12.17,9.94,0,3.12-2.24,5.92-5,5.92a2.23,2.23,0,0,1-2.45-2.24c0-1.11.78-2.23,3.35-2.23,2,0,2.68-.78,2.68-1.56,0-1.45-1.57-2.35-3.47-2.35-2.79,0-6,1.9-6,7.26a14.65,14.65,0,0,0,14.84,15.07c5.58,0,10.72-5.92,10.72-12.95,0-13.95-39.52-28.24-39.52-43.76,0-17,18.87-22.77,33.94-22.77,12.73,0,24.33,5,24.33,15,0,7.81-7.92,12.05-15.85,12.05-9,0-12.72-5.47-12.72-10.16,0-3.35,1.89-6.25,5.13-6.25a2.52,2.52,0,0,1,2.79,2.57,2.62,2.62,0,0,1-2.9,2.57c-1.67,0-2.46.89-2.46,2,0,1.89,1.79,3.23,3.91,3.23,2.68,0,5.69-2.12,5.69-7.48,0-7.25-5.8-10.94-11.38-10.94-5.14,0-12.39,3.24-12.39,10.72,0,13.17,40.85,24.67,40.85,46,0,15.3-17.52,23.11-33.82,23.11C397.29,346.48,389.14,336.88,389.14,328.06Z"/><path class="cls-3" d="M476.67,344.81q1.68-19.59,1.67-39.19t-1.67-39.18c12.73,0,24.45-2.34,35.5-2.34,22,0,36.5,14.84,36.5,40.3,0,29.69-19.76,41.86-39.29,41.86C494.42,346.26,491.18,344.81,476.67,344.81Zm49.12-40.41c0-25.79-9.49-36.84-26.24-35.5-.67,11.94-1.11,24.44-1.11,36.84s.44,25,1.11,36.95C514.63,343.47,525.79,330.29,525.79,304.4Z"/><path class="cls-3" d="M556,305.51c0-27.57,20.55-41.41,41.31-41.41,20.43,0,41.08,13.73,41.08,41.3s-20.65,41.08-41.19,41.08S556,332.86,556,305.51Zm61.07,8.93c0-21.43-9-47-24.9-47-10.38,0-15.18,13.73-15.18,29.47,0,21.32,8.82,46.21,25,46.21C612.31,343.13,617.11,329.85,617.11,314.44Z"/><path class="cls-3" d="M642.45,344.81c4.47-26.12,3.35-52.25,1.12-78.37h23.56c7.36,16,23.1,45.55,38.73,70.44,1.23-26.57-5.58-52.69-11.72-70.44H712c-4.46,20.1-3.35,52.25-1.11,78.37H686.1c-12.05-22.55-22.32-45.33-37.62-67.88-1.11,24.23,3.35,53.7,11.84,67.88Z"/><path class="cls-3" d="M719,314.78c0-10.72,1-21.44,1-32.26a111.29,111.29,0,0,0-1-16.08h22.88c-1.11,13.29-2.12,26.9-2.12,39,0,21.88,3.24,38.51,14.63,38.51s14.62-16.52,14.62-38.29c0-12.16-1-25.78-2.12-39.18h22.88a111.29,111.29,0,0,0-1,16.08c0,10.82,1,21.54,1,32.26,0,23.44-17.75,31.7-35.38,31.7S719,338.22,719,314.78Z"/><path class="cls-3" d="M821.3,344.92c1.56-17.64,3.12-35.39,3.12-53.14,0-7.37-.22-14.62-.89-22h-6.81c-4.69,0-8.71,2.68-8.71,9.38,0,4,2.57,7.92,7,7.92,2.68,0,3.9-1,3.9-1.89s-1-1.57-3-1.57c-2.57,0-3.35-1.11-3.35-2.23a2.23,2.23,0,0,1,2.46-2.23c2.79,0,5,2.79,5,5.91,0,6.48-5.81,9.83-11.94,9.83-6.93,0-14.29-4.36-14.29-13.62,0-7.15,5.47-14.85,18.42-14.85h40.3c12.94,0,18.41,7.7,18.41,14.85,0,9.26-7.36,13.62-14.28,13.62-6.14,0-12-3.35-12-9.83,0-3.12,2.23-5.91,5-5.91a2.23,2.23,0,0,1,2.46,2.23c0,1.12-.78,2.23-3.35,2.23-2,0-3,.78-3,1.57s1.22,1.89,3.9,1.89c4.47,0,7-3.9,7-7.92,0-6.7-4-9.38-8.71-9.38H842c-.67,7.37-.89,14.62-.89,22,0,17.75,1.56,35.5,3.12,53.14Z"/><path class="cls-3" d="M913.4,344.81c-2.46-21.21-15.07-58.94-25.9-78.37H912c0,15.29,10.94,45,21.43,69.88,9.49-28.46,15.18-50.79,15.18-69.88H962c-11.61,27.57-21.43,55.26-22.88,78.37Z"/><path class="cls-3" d="M966.54,344.81a459.87,459.87,0,0,0,0-78.37h22.89a457.82,457.82,0,0,0,0,78.37Z"/><path class="cls-3" d="M1010.53,343.25a53.77,53.77,0,0,0-12.62,1.56c1.9-8.71,2.68-21.44,2.68-34.94a349.11,349.11,0,0,0-2.68-43.43h22.89c-2.57,7.37-3.58,20.77-3.58,34.38,0,16.3,1.45,32.82,3.35,39.52a27.87,27.87,0,0,0,5.81.67c10,0,14.51-6.81,14.51-12.17,0-5.13-2.9-7.36-5.36-7.36-2.79,0-4.35,1.34-4.35,2.45s1,1.79,3.12,1.79c3,0,4,1.67,4,3.12a3.36,3.36,0,0,1-3.68,3.24,6.07,6.07,0,0,1-6.48-6.14c0-3.91,3.58-8.26,11.73-8.26,7.25,0,15.07,4.35,15.07,14.4,0,6-4.25,14.4-16.41,14.4C1028.83,346.48,1021.13,343.25,1010.53,343.25Z"/><path class="cls-3" d="M1070.92,343.25a53.75,53.75,0,0,0-12.61,1.56c1.9-8.71,2.68-21.44,2.68-34.94a351,351,0,0,0-2.68-43.43h22.88c-2.56,7.37-3.57,20.77-3.57,34.38,0,16.3,1.45,32.82,3.35,39.52a27.87,27.87,0,0,0,5.81.67c10,0,14.51-6.81,14.51-12.17,0-5.13-2.9-7.36-5.36-7.36-2.79,0-4.35,1.34-4.35,2.45s1,1.79,3.12,1.79c3,0,4,1.67,4,3.12a3.36,3.36,0,0,1-3.68,3.24,6.07,6.07,0,0,1-6.48-6.14c0-3.91,3.57-8.26,11.72-8.26,7.26,0,15.07,4.35,15.07,14.4,0,6-4.24,14.4-16.41,14.4C1089.23,346.48,1081.53,343.25,1070.92,343.25Z"/><path class="cls-3" d="M1119.71,344.81c11.27-26.12,23.89-57.16,27-78.37h22.88a549.26,549.26,0,0,0,28,78.37h-22.88c-3.35-12.39-13-18.64-21.77-18.64s-16.52,6.13-16.52,18.64Zm36-22.55c4.91,0,9.82,1.11,13.39,3.46-4.69-15.52-12.5-36.73-18.75-51.69-6.37,18.31-11.17,37.06-13.06,55.15C1141.37,324.49,1148.62,322.26,1155.66,322.26Z"/><path class="cls-3" d="M1194.17,304c0-27.69,21-39.85,39.52-39.85,14.63,0,27.69,7.48,27.69,21.1,0,8.48-6,16.18-18,16.18-10.6,0-15.74-7.37-15.74-13.73,0-5,3-10.94,9-10.94a3.17,3.17,0,0,1,3.46,3.24,3.4,3.4,0,0,1-3.46,3.46c-4.36-.11-6.37,1.79-6.37,3.46,0,3.46,2.91,5.58,6,5.58,4.13,0,8.71-3.35,8.71-11.72s-5-13.28-10.94-13.28c-8,0-17.64,9.15-17.64,30.92,0,27.46,9.6,44,16.63,44,5.47,0,8-8.71,8-18.19a47.42,47.42,0,0,0-2.34-15.3h22.88a68.33,68.33,0,0,0,0,30,56.64,56.64,0,0,1-27.24,7.15C1213.71,346,1194.17,333.87,1194.17,304Z"/><path class="cls-3" d="M1277.23,343.8a45.13,45.13,0,0,0-9.26,1q1.66-19.59,1.67-39.19T1268,266.44c11.5,0,29.47-2.34,37.28-2.34,16.3,0,20.32,6.81,20.32,13.73s-4.91,13.84-15.52,13.84c-8.26,0-11.16-4.35-11.16-8.26,0-3.13,2.23-5.92,5-5.92a2.24,2.24,0,0,1,2.46,2.24c0,1.11-.78,2.23-3.35,2.23-2,0-3,.78-3,1.56s1.22,1.9,3.9,1.9c5,0,7.48-3.46,7.48-7.26,0-7.37-5.47-10.38-12.84-10.38a35.18,35.18,0,0,0-9.26,1.34c0,7.48,0,23.33-.11,33.16h3.35c7.36,0,16.85-1.34,22.43-6.7v16.74c-5.58-5.36-15.07-6.7-22.43-6.7h-3.35c0,11.95.56,24.23,1.67,36.17a64.59,64.59,0,0,0,10.05,1c6.36,0,12.39-1.79,12.39-9,0-3.91-2.46-7.59-8-7.59-2.68,0-3.9,1-3.9,1.89s1,1.57,3,1.57c2.57,0,3.35,1.11,3.35,2.23a2.23,2.23,0,0,1-2.46,2.23c-2.79,0-5-2.79-5-5.92,0-6.92,6.59-10.6,13.62-10.6,9.82,0,15.4,6.59,15.4,13.51,0,7.48-6.69,15.4-22,15.4C1295.09,346.48,1286.61,343.8,1277.23,343.8Z"/><path class="cls-3" d="M14.65,543.77c8.38-37.42,8.18-95.7,4.09-143.55H62.5c1.63,31.08,11.65,65.64,27,98.56,16.56-34.55,27.4-66.45,27.4-98.56H158c-4.09,27.2-4.09,95.7,0,143.55H116.07a675.68,675.68,0,0,0,.21-88.75q-19,44.48-33.74,88.75H68.83C58.2,509.62,44.71,459.11,28.14,420.26c-1.63,36.4,3.89,92.63,14.11,123.51Z"/><path class="cls-3" d="M188.46,541.93a82.58,82.58,0,0,0-17,1.84q3.07-35.89,3.07-71.77t-3.07-71.78c21.06,0,54-4.29,68.3-4.29,29.85,0,37.21,12.47,37.21,25.15s-9,25.36-28.42,25.36c-15.13,0-20.45-8-20.45-15.14,0-5.72,4.09-10.83,9.2-10.83,3.07,0,4.5,2,4.5,4.09s-1.43,4.09-6.13,4.09c-3.68,0-5.52,1.43-5.52,2.86,0,1.63,2.25,3.47,7.15,3.47,9.21,0,13.7-6.33,13.7-13.29,0-13.49-10-19-23.51-19a64,64,0,0,0-17,2.45c0,13.7,0,42.74-.21,60.73h6.14c13.49,0,30.87-2.45,41.1-12.27v30.67C247.35,474.45,230,472,216.48,472h-6.14c0,21.88,1,44.37,3.07,66.25a118.78,118.78,0,0,0,18.4,1.84c11.66,0,22.7-3.27,22.7-16.56,0-7.16-4.5-13.91-14.72-13.91-4.91,0-7.16,1.84-7.16,3.48,0,1.43,1.84,2.86,5.52,2.86,4.7,0,6.14,2,6.14,4.09s-1.44,4.09-4.5,4.09c-5.11,0-9.2-5.11-9.2-10.84,0-12.68,12.06-19.42,24.94-19.42,18,0,28.22,12.06,28.22,24.74,0,13.7-12.27,28.22-40.28,28.22C221.18,546.84,205.64,541.93,188.46,541.93Z"/><path class="cls-3" d="M294.59,543.77c8.38-37.42,8.18-95.7,4.09-143.55h43.76c1.64,31.08,11.66,65.64,27,98.56,16.57-34.55,27.4-66.45,27.4-98.56h41.1c-4.09,27.2-4.09,95.7,0,143.55H396a675.68,675.68,0,0,0,.21-88.75q-19,44.48-33.74,88.75h-13.7c-10.63-34.15-24.13-84.66-40.69-123.51-1.64,36.4,3.88,92.63,14.11,123.51Z"/><path class="cls-3" d="M450.82,543.77a573.52,573.52,0,0,0,4.7-71.77,571.1,571.1,0,0,0-4.7-71.78c25.56,0,39.26-4.09,55.82-4.09,33.54,0,56.24,11,56.24,32.52,0,12.27-7.77,25.15-22.29,32.1,20,4.5,30.06,21.88,30.06,39.46,0,32.52-30.47,45.4-69.53,45.4C485.38,545.61,476.38,543.77,450.82,543.77Zm80.57-44.37c0-18.82-7.77-26.18-18.2-29-12.07-3.27-17.59-8.59-17.59-15.34s5.32-11.86,13.5-11.86c4.29,0,6.34,2.87,6.34,5.52,0,2.87-2.05,5.73-6.34,5.73-5.73,0-7.36,2.45-7.36,4.7s2,4.5,6.34,4.5c8.58,0,19-6.75,19-31.69,0-19.43-11.45-27.81-29.24-27.81a52.79,52.79,0,0,0-5.52.2c-1.64,22.09-2.45,45.4-2.45,68.5,0,22.5.81,44.58,2.45,64.82a43.14,43.14,0,0,0,7.16.41C520.34,538,531.39,523.73,531.39,499.4Z"/><path class="cls-3" d="M598.46,541.93a82.58,82.58,0,0,0-17,1.84q3.06-35.89,3.06-71.77t-3.06-71.78c21.06,0,54-4.29,68.29-4.29,29.86,0,37.22,12.47,37.22,25.15s-9,25.36-28.42,25.36c-15.14,0-20.45-8-20.45-15.14,0-5.72,4.09-10.83,9.2-10.83,3.07,0,4.5,2,4.5,4.09s-1.43,4.09-6.14,4.09c-3.68,0-5.52,1.43-5.52,2.86,0,1.63,2.25,3.47,7.16,3.47,9.2,0,13.7-6.33,13.7-13.29,0-13.49-10-19-23.52-19a64.06,64.06,0,0,0-17,2.45c0,13.7,0,42.74-.2,60.73h6.13c13.5,0,30.88-2.45,41.1-12.27v30.67C657.35,474.45,640,472,626.47,472h-6.13c0,21.88,1,44.37,3.06,66.25a118.92,118.92,0,0,0,18.41,1.84c11.65,0,22.69-3.27,22.69-16.56,0-7.16-4.49-13.91-14.72-13.91-4.9,0-7.15,1.84-7.15,3.48,0,1.43,1.84,2.86,5.52,2.86,4.7,0,6.13,2,6.13,4.09s-1.43,4.09-4.5,4.09c-5.11,0-9.2-5.11-9.2-10.84,0-12.68,12.07-19.42,24.95-19.42,18,0,28.22,12.06,28.22,24.74,0,13.7-12.27,28.22-40.29,28.22C631.17,546.84,615.63,541.93,598.46,541.93Z"/><path class="cls-3" d="M704.59,543.77c3.06-20.45,4.9-47.85,4.9-74.43,0-24.13-1.43-51.94-4.9-69.12,25.35,0,49.28-4.29,67.27-4.29,28.63,0,45.19,16.56,45.19,33.33,0,17.18-17.38,34.35-48.87,34.35v1c32.72,7.37,53,21.88,53,79.14H778.61c0-28.42-4.09-46-9.41-57.87-8.38-19.43-19.42-23.92-19.42-35.78,0-9,6.13-12.48,10.22-12.48,4.91,0,6.75,3.07,6.75,5.73s-1.43,5.11-3.89,5.11c-5.52,0-8.38,2.86-8.38,5.32s2.45,4.7,7.16,4.7c10.22,0,20.44-9.61,20.44-29.45,0-16.76-9.4-25.35-24.74-25.35a53.28,53.28,0,0,0-10.84,1.23c-2,22.08-3.06,44.78-3.06,69.52,0,23.92,1,47.85,3.06,69.32Z"/><path class="cls-3" d="M829.12,513.1c0-13.5,10.63-26.18,28-26.18,11.66,0,22.29,6.34,22.29,18.2,0,5.73-4.09,10.84-9.2,10.84-3.07,0-4.5-2-4.5-4.09s1.43-4.09,6.13-4.09c3.68,0,4.91-1.43,4.91-2.86,0-2.66-2.86-4.3-6.34-4.3-5.11,0-11,3.48-11,13.3,0,18.19,14.31,27.6,27.2,27.6,10.22,0,19.63-10.84,19.63-23.72,0-25.56-72.39-51.73-72.39-80.16,0-31.08,34.56-41.71,62.16-41.71,23.31,0,44.58,9.2,44.58,27.4,0,14.31-14.52,22.08-29,22.08-16.56,0-23.31-10-23.31-18.6,0-6.14,3.48-11.46,9.41-11.46,3.47,0,5.11,2.25,5.11,4.71,0,2.25-1.64,4.7-5.32,4.7-3.06,0-4.49,1.64-4.49,3.68,0,3.48,3.27,5.93,7.15,5.93,4.91,0,10.43-3.88,10.43-13.7,0-13.29-10.63-20-20.86-20-9.4,0-22.69,5.93-22.69,19.63,0,24.13,74.84,45.19,74.84,84.25,0,28-32.11,42.33-62,42.33C844,546.84,829.12,529.25,829.12,513.1Z"/><path class="cls-3" d="M952.63,543.77a841.25,841.25,0,0,0,0-143.55h41.92q-2.76,32.82-3.07,65.64h46.42q-.32-32.82-3.07-65.64h41.92a841.25,841.25,0,0,0,0,143.55h-41.92q3.06-35.89,3.07-71.77H991.48q0,35.88,3.07,71.77Z"/><path class="cls-3" d="M1092.29,543.77a841.25,841.25,0,0,0,0-143.55h41.92a841.25,841.25,0,0,0,0,143.55Z"/><path class="cls-3" d="M1149.75,543.77q3.06-35.89,3.07-71.77t-3.07-71.78c32.1,0,48.67-4.29,69.73-4.29,32.1,0,48,24.54,48,51.12,0,38.44-27.2,53.57-51.32,53.57-10.64,0-20.66-3.06-27.4-8.18.4,17.18,1.43,34.15,2.86,51.33Zm75.86-96.72c0-24.74-5.72-43.56-26-43.56a37.92,37.92,0,0,0-8,.82c-2.05,23.52-3.07,48.26-2.86,66.46.2,16,6.54,21.47,13.7,21.47C1212.93,492.24,1225.61,480.38,1225.61,447.05Z"/></g></g></svg>