<svg xmlns="http://www.w3.org/2000/svg" xmlns:xlink="http://www.w3.org/1999/xlink" viewBox="0 0 1019.81 1212.1"><defs><style>.cls-1{fill:none;}.cls-2{fill:#068bbc;}.cls-10,.cls-3{fill:#ec646b;}.cls-11,.cls-4{fill:#91cbf0;}.cls-12,.cls-5,.cls-8{fill:#fece6b;}.cls-6{isolation:isolate;}.cls-7,.cls-9{fill:#fff;}.cls-7{opacity:0.54;}.cls-11,.cls-8{opacity:0.16;}.cls-10,.cls-11,.cls-8{mix-blend-mode:multiply;}.cls-9{opacity:0.23;}.cls-10{opacity:0.18;}.cls-12{stroke-miterlimit:10;stroke:url(#Unnamed_Pattern);}</style><pattern id="Unnamed_Pattern" data-name="Unnamed Pattern" width="1343.39" height="1330.33" patternTransform="translate(1379.48 -64.02)" patternUnits="userSpaceOnUse" viewBox="0 0 1343.39 1330.33"><rect class="cls-1" width="1343.39" height="1330.33"/><path class="cls-2" d="M1343.39,544.36a715.1,715.1,0,0,1-150.91,14.42,742.27,742.27,0,0,1-151-17.48A862.4,862.4,0,0,1,895.62,495a1053.92,1053.92,0,0,1-137.71-69.85,1303.58,1303.58,0,0,1-128.22-88.06q-30.84-23.9-60.46-49.48t-58-52.54q-28.41-27-55.59-55.27T402.53,122q-25.89-29.43-50.38-60-12.21-15.27-24-30.79-5.87-7.74-11.57-15.54c-1.89-2.59-3.76-5.19-5.61-7.77L308.28,4.1,307,2.21,305.79.53l.78-.53,1.16,1.68,1.32,1.88,2.72,3.84q2.76,3.87,5.6,7.77,5.69,7.77,11.56,15.53,11.71,15.5,24,30.76,24.42,30.51,50.35,60t53.06,57.7q27.17,28.26,55.56,55.24t58,52.51q29.6,25.51,60.42,49.44a1299.36,1299.36,0,0,0,128.12,88A1053.35,1053.35,0,0,0,896,494.1a861.19,861.19,0,0,0,145.76,46.28,741,741,0,0,0,150.75,17.46,713.87,713.87,0,0,0,150.71-14.4Z"/><path class="cls-3" d="M280.68,102.78q46-8.07,91-18.24-13.43-16.17-26.4-32.63c-8.64-11-17.12-22-25.32-33.18C306.12,46.13,293.11,74.26,280.68,102.78Z"/><path class="cls-4" d="M343.46,178q45.39-10.68,89.89-23.2Q404.78,123.9,377.7,91.71,359.72,134.25,343.46,178Z"/><path class="cls-5" d="M410.11,249.62q44.79-13.08,88.53-28-30.17-29.28-58.92-60Q424,205.1,410.11,249.62Z"/><path class="cls-3" d="M480.59,317.62q44-15.51,86.81-32.86-31.71-27.47-62-56.61Q492,272.37,480.59,317.62Z"/><path class="cls-4" d="M555,381.6q43-18.08,84.65-38.09-33.27-25.36-65.15-52.67Q563.67,335.72,555,381.6Z"/><path class="cls-5" d="M633.42,441q41.82-20.85,81.88-43.74-17.41-11.46-34.49-23.49T647,349.12Q639,394.56,633.42,441Z"/><path class="cls-3" d="M716.1,494.86Q756.34,471,794.41,445q-18.17-10-36-20.72c-3-1.8-5.95-3.56-8.9-5.38l-8.86-5.47-8.81-5.55c-2.93-1.85-5.84-3.75-8.76-5.63-.8,7.63-1.57,15.32-2.26,23s-1.33,15.36-1.92,23.09-1.1,15.43-1.57,23.19S716.45,487.06,716.1,494.86Z"/><path class="cls-4" d="M803.1,542.28c6.38-4.53,12.67-9,18.94-13.67s12.46-9.27,18.6-14,12.25-9.46,18.28-14.24c3-2.38,6-4.8,9-7.22s6-4.85,8.92-7.29l-4.72-2.1c-1.57-.69-3.15-1.39-4.71-2.11l-9.4-4.31L848.66,473c-3.11-1.47-6.2-3-9.31-4.52q-18.57-9.13-36.84-19Q801.22,495.48,803.1,542.28Z"/><path class="cls-5" d="M894.38,582q35.57-30.53,67.92-63.24-39-12.81-77-29.14Q888,535.5,894.38,582Z"/><path class="cls-3" d="M989.61,612.44q8.05-8.55,15.88-17.17c5.22-5.77,10.37-11.61,15.42-17.44s10-11.77,14.94-17.69q3.68-4.46,7.28-8.92c2.41-3,4.79-6,7.16-9l-5-1-5-1.11c-3.33-.76-6.67-1.45-10-2.27l-10-2.39-9.92-2.54Q990.6,527.66,971,521.49,978.25,566.88,989.61,612.44Z"/><path class="cls-4" d="M1088,632.22q3.53-4.71,7-9.42l3.44-4.71,3.4-4.76q6.76-9.54,13.27-19.11c8.66-12.88,17-25.77,24.88-38.9-6.77-.53-13.53-1.27-20.29-2l-10.12-1.23c-.84-.1-1.69-.19-2.53-.31l-2.53-.35-5-.7c-1.68-.23-3.37-.45-5-.7l-5-.78c-3.36-.54-6.73-1-10.08-1.62s-6.71-1.14-10.06-1.75l-10-1.9q3,11,6.36,22.13c2.21,7.37,4.53,14.7,6.93,22.08s4.9,14.68,7.49,22c1.3,3.67,2.61,7.35,4,11S1086.65,628.56,1088,632.22Z"/><path class="cls-5" d="M1188.46,640c7.77-13.54,15.16-27.33,22.15-41.07q5.25-10.4,10.19-20.79l2.46-5.2,2.42-5.24q2.38-5.25,4.72-10.48l-5.08.2-2.54.1-2.55.06-10.17.23c-6.78,0-13.56.1-20.35-.05-13.57-.21-27.13-.75-40.68-1.77A915,915,0,0,0,1188.46,640Z"/><path class="cls-3" d="M1289.19,635.16a907.81,907.81,0,0,0,31.08-87.45c-13.38,2.25-26.81,4.25-40.3,5.71-1.68.19-3.36.41-5,.57l-5.06.5-5.07.49-2.53.24-2.53.2-10.15.8-10.15.6q5.64,10,11.58,19.91t12.15,19.67l3.13,4.91,3.16,4.87q3.18,4.85,6.44,9.7t6.58,9.69C1284.69,628.8,1286.93,632,1289.19,635.16Z"/><path class="cls-5" d="M20,234.21c-.9-.48-12.34-6.31-12.3-6.41-.71,1.77-1.33,3.59-1.92,5.4a131.11,131.11,0,0,0-3.63,13.36A92,92,0,0,0,0,263.81a45,45,0,0,0,2.44,16.88A24.52,24.52,0,0,0,13,293.33l.89.52c.45.21.88.39,1.29.56l.14.06.4.18-.25-.12.57.23.65.24.85.31.65.21c.72.23,1.45.44,2.19.61a42.41,42.41,0,0,0,8.17,1.05,26.81,26.81,0,0,1-1.66-3.66,45.17,45.17,0,0,1-2.37-16.36,90.28,90.28,0,0,1,2-16.7A129.66,129.66,0,0,1,30,247.15c.45-1.42.93-2.83,1.43-4.22.16-.45.8-1.49.74-2,0,0,0-.07,0-.09C32.36,240.52,21,234.72,20,234.21Z"/><path class="cls-5" d="M180.19,272.38c-.49-.12-.89-.21-1.16-.26C179.41,272.19,179.8,272.28,180.19,272.38Z"/><path class="cls-5" d="M180.19,272.38l.24.06-.07,0Z"/><path class="cls-5" d="M179,272.12l-.12,0Z"/><path class="cls-5" d="M161.61,261.68a28.16,28.16,0,0,0-5-2.14c-6.7-2-14.09-.84-20.74.75-11.82,2.83-23.13,7.8-34,13.08-16.23,7.86-32.44,15.82-49.95,20.49-7.45,2-15.47,3.6-23.33,3.32a42.41,42.41,0,0,1-8.17-1.05c-.74-.17-1.47-.38-2.19-.61s-1.44-.48-2.15-.76l-.57-.23.25.12-.4-.18-.14-.06c-.41-.17-.84-.35-1.29-.56,5.93,3.47,12.09,6.59,18.17,9.78,2.46,1.29,4.91,2.66,7.46,3.78a30.16,30.16,0,0,0,4.79,1.66,42.84,42.84,0,0,0,11.51,1.14c11.61-.27,23.09-3.6,33.93-7.51,7.84-2.82,15.52-6.12,23.06-9.66,7-3.29,13.85-6.88,20.91-10.06,9.13-4.11,18.58-7.9,28.41-10a63.77,63.77,0,0,1,6.84-1.14,34,34,0,0,1,10,.27l.12,0c.27.05.67.14,1.16.26l.17,0,.07,0c.62.15,1.37.36,2.2.62l.81.26C176.31,269.2,168.94,265.42,161.61,261.68Z"/><path class="cls-5" d="M218.06,354.35l-1.93-1c-.56-.3-1.12-.58-1.7-.83a69.58,69.58,0,0,1-12.5,1,39.38,39.38,0,0,1-9-1.17c-.71-.18-1.41-.39-2.11-.63h0c-.45-.15-1.11-.38-1.91-.69l-.94-.36.12.06c4.76,2.67,9.59,5.22,14.42,7.78,3.17,1.68,6.32,3.43,9.56,5a30.09,30.09,0,0,0,6.19,2.16,49.14,49.14,0,0,0,15.87.62c1.62-.16,3.24-.38,4.86-.64-.33-.22-.68-.42-1-.61-.83-.47-1.67-.93-2.51-1.39q-4.31-2.35-8.64-4.66C223.85,357.4,221,355.86,218.06,354.35Z"/><path class="cls-5" d="M182.63,273.06c-.83-.26-1.58-.47-2.2-.62l-.24-.06c-.39-.1-.78-.19-1.16-.26l-.12,0a34,34,0,0,0-10-.27,39.64,39.64,0,0,1,1.78,6.72c1.47,8.27,1.28,16.78,1.31,25.14,0,8.6,0,17.33,1.67,25.8,1.43,7.2,4.39,14.41,10.49,18.87a36.2,36.2,0,0,0,3.7,2.3l.94.36c.8.31,1.46.54,1.91.69h0c.7.24,1.4.45,2.11.63a39.38,39.38,0,0,0,9,1.17,27.5,27.5,0,0,1-1.62-3.48,59.06,59.06,0,0,1-3.37-17.25c-.47-6.43-.42-12.89-.44-19.33a155.14,155.14,0,0,0-.81-18.54c-.62-5.06-1.74-10.31-4.49-14.68a17.49,17.49,0,0,0-4.63-5c-.59-.42-1.21-.81-1.84-1.18l-1.29-.74Z"/><path class="cls-4" d="M318.37,1317.82c.43.92,6.09,12.46,6,12.51,1.63-1,3.21-2.07,4.78-3.16a134.08,134.08,0,0,0,10.91-8.51,92.16,92.16,0,0,0,12.09-12.5,45,45,0,0,0,8.17-15,24.48,24.48,0,0,0-.82-16.41c-.13-.32-.27-.63-.4-1s-.47-.84-.7-1.22c0,0,0-.09-.07-.13l-.22-.38a1.73,1.73,0,0,1,.13.24c-.11-.18-.21-.36-.32-.53l-.37-.59-.5-.75-.38-.56c-.45-.61-.91-1.22-1.4-1.8a42.13,42.13,0,0,0-5.9-5.74,26.81,26.81,0,0,1-.87,3.93,45.18,45.18,0,0,1-7.92,14.5A90.34,90.34,0,0,1,329,1293a130.61,130.61,0,0,1-10.8,8.54c-1.21.86-2.43,1.7-3.68,2.52-.39.26-1.53.71-1.77,1.13,0,0-.06,0-.08,0C312.3,1305.38,317.92,1316.85,318.37,1317.82Z"/><path class="cls-4" d="M213.15,1191.21c.32.39.59.69.77.9C213.66,1191.82,213.4,1191.51,213.15,1191.21Z"/><path class="cls-4" d="M213.15,1191.21l-.15-.2,0,.06A1.34,1.34,0,0,1,213.15,1191.21Z"/><path class="cls-4" d="M213.92,1192.11l.08.09Z"/><path class="cls-4" d="M221.59,1210.91a29.26,29.26,0,0,0,2.74,4.73c4.19,5.59,10.77,9.13,17,11.84,11.16,4.83,23.19,7.64,35.08,10,17.7,3.45,35.45,6.81,52.25,13.58,7.15,2.88,14.54,6.41,20.66,11.34a42.13,42.13,0,0,1,5.9,5.74c.49.58,1,1.19,1.4,1.8s.86,1.25,1.25,1.9c.11.17.21.35.32.53a1.73,1.73,0,0,0-.13-.24l.22.38s.05.08.07.13c.23.38.46.79.7,1.22-2.66-6.33-5.72-12.52-8.67-18.72-1.19-2.52-2.33-5.08-3.7-7.51a29.1,29.1,0,0,0-2.84-4.19,43.11,43.11,0,0,0-8.52-7.83c-9.45-6.74-20.63-11-31.65-14.34-8-2.45-16.08-4.42-24.24-6.11-7.58-1.57-15.22-2.81-22.77-4.5-9.77-2.19-19.61-4.83-28.74-9a66.53,66.53,0,0,1-6.15-3.2,33.93,33.93,0,0,1-7.82-6.2l-.08-.09c-.18-.21-.45-.51-.77-.9a1.34,1.34,0,0,0-.11-.14l0-.06c-.41-.49-.88-1.11-1.4-1.82l-.49-.69C214.34,1196.07,218,1203.52,221.59,1210.91Z"/><path class="cls-4" d="M232,1102.91l.94,1.95a18,18,0,0,0,.87,1.69,70.2,70.2,0,0,1,10.59,6.7,40.1,40.1,0,0,1,6.53,6.36c.46.57.89,1.16,1.31,1.77l0,0c.27.4.66,1,1.12,1.71.17.26.35.55.53.85l-.06-.13c-2.21-5-4.54-9.93-6.86-14.87-1.53-3.25-3-6.54-4.68-9.71a30.17,30.17,0,0,0-3.65-5.43,48.86,48.86,0,0,0-12.33-10q-2.1-1.27-4.27-2.41a11.81,11.81,0,0,0,.46,1.11c.38.87.77,1.75,1.17,2.61q2,4.47,4.12,8.91C229.23,1097,230.62,1100,232,1102.91Z"/><path class="cls-4" d="M211.6,1189.19c.52.71,1,1.33,1.4,1.82l.15.2c.25.3.51.61.77.9l.08.09a33.93,33.93,0,0,0,7.82,6.2,38.93,38.93,0,0,1,2.61-6.44c3.78-7.5,9-14.2,14-20.9,5.14-6.89,10.41-13.86,14.14-21.64,3.18-6.63,5.14-14.16,2.93-21.4a35,35,0,0,0-1.58-4c-.18-.3-.36-.59-.53-.85-.46-.73-.85-1.31-1.12-1.71l0,0c-.42-.61-.85-1.2-1.31-1.77a40.1,40.1,0,0,0-6.53-6.36,30.81,30.81,0,0,1-.79,3.77,59,59,0,0,1-7.66,15.81c-3.48,5.43-7.4,10.56-11.25,15.73a157.37,157.37,0,0,0-10.47,15.31c-2.54,4.43-4.8,9.29-5.22,14.44a17.68,17.68,0,0,0,.71,6.78c.22.69.49,1.37.77,2,.19.46.39.91.58,1.37Z"/><path class="cls-5" d="M649.8,560.21c-.13-1.8-.31-3.59-.58-5.37a72.17,72.17,0,0,0-2-9.07,79.23,79.23,0,0,0-2.53-7.53c-.73-1.86-1.52-3.68-2.39-5.47-.47-1-1-2-1.51-2.93l-.21-.37a8.25,8.25,0,0,0,0,1.11c0,.89,0,1.78-.05,2.67q0,4.57,0,9.13c0,3,0,6.09,0,9.14l0,2a14.8,14.8,0,0,0,.07,1.76c.28.47.53,1,.79,1.44.7,1.33,1.34,2.68,2,4q1.35,3.06,2.46,6.22a78.51,78.51,0,0,1,2.31,8c.12.5.22,1,.32,1.5.16.74.31,1.48.44,2.23a.36.36,0,0,0,0,.1c.12.73.24,1.46.35,2.19h0c.1.84.46,4.16.71,8.55.06-2.44.06-4.89.07-7.33C650.07,574.9,650.32,567.51,649.8,560.21Z"/><path class="cls-5" d="M649.26,581q-.33-2.28-.81-4.53a47.89,47.89,0,0,1-3.24,9.2,52.49,52.49,0,0,1-13.08,16.87c-7.13,6.19-15.58,10.73-24.32,14.21-12.41,4.93-25.57,7.86-38.75,9.81-8.46,1.25-17,2.07-25.49,2.61-9.14.57-18.29.55-27.43,1.14a175.82,175.82,0,0,0-41,7.12,100.35,100.35,0,0,0-28.75,13.84,64.77,64.77,0,0,0-17.47,18.29A52.83,52.83,0,0,0,421.48,690a55,55,0,0,0-.49,5.59c0,1-.07,2-.09,3,.05.67.1,1.31.16,1.91,0-.21,0-.4,0-.54,0-.32,0-1.35,0-.85,0,.29,0,.57,0,.86,0,.45.05.89.08,1.34,0,.21,0,.42.06.63.23,2.15.46,3.68.57,4.35.24,1.3.51,2.6.84,3.88.35-1.37.75-2.72,1.21-4.05a54.58,54.58,0,0,1,6.35-12.6,62.93,62.93,0,0,1,10.35-11.69,80.43,80.43,0,0,1,14.65-10.18,109.65,109.65,0,0,1,19.16-8.07A154.7,154.7,0,0,1,498.49,658,237.59,237.59,0,0,1,528,655.65c11.47-.27,22.94-1,34.33-2.37a220.08,220.08,0,0,0,27.57-5,137.05,137.05,0,0,0,21.36-7.16,87.44,87.44,0,0,0,15.79-8.8,61.19,61.19,0,0,0,11.1-10,49.57,49.57,0,0,0,7-10.78,47.72,47.72,0,0,0,3.66-11,63.15,63.15,0,0,0,1.1-11C649.72,585.14,649.36,581.83,649.26,581Z"/></pattern></defs><title>Asset 17</title><g class="cls-6"><g id="Layer_2" data-name="Layer 2"><g id="Layer_1-2" data-name="Layer 1"><path class="cls-5" d="M1017.45,903.68c-2.1-27-11.09-45.65-29.15-60.3-20.94-17-55.65-29.14-106.14-37.18-38.83-6.19-64.75-20-77-40.89-13.5-23-5-46.76-4.92-47l2.21.82c-.08.23-8.18,23,4.76,45,11.9,20.29,37.25,33.65,75.33,39.72,26.4,4.2,48,9.37,65.94,15.78,17.21,6.15,30.73,13.31,41.31,21.9,18.61,15.09,27.87,34.2,30,62Z"/><path class="cls-5" d="M964.37,435.21c17.88,123.27-53.78,257.92-164,273.9s-217.15-92.75-235-216,59.58-218,169.75-233.94S946.49,312,964.37,435.21Z"/><path class="cls-7" d="M685.62,327.62C663.33,332.19,639.31,339,618,349.3c0,0-22,25.76-30.58,72.94,11.42-7.1,32.81-17.82,66.84-25.5C661.22,364.2,675.16,341.19,685.62,327.62Z"/><path class="cls-7" d="M770.18,318.84a466.91,466.91,0,0,0-78.06,8.27c-10.61,13.45-24.81,36.3-32.18,68.76,19.86-4.24,44-7.41,72.88-8.18C738.28,363.39,749.34,338.66,770.18,318.84Z"/><path class="cls-7" d="M653.87,402.14c-34,7.68-55.43,18.4-66.84,25.49-4.5,24.62-5.36,55.07,2.42,90.73,9.58-4.54,32.6-14.33,65.89-21.47C647.15,459.35,648.35,427.78,653.87,402.14Z"/><path class="cls-7" d="M732.42,393.08c-28.9.77-53,3.94-72.88,8.19-5.8,25.55-7.36,57.08.38,94.67a381.94,381.94,0,0,1,73.13-7.43C730.78,478.32,722.69,436.4,732.42,393.08Z"/><path class="cls-8" d="M826.58,582.93C857.49,628,898.26,637,898.26,637,800,748.55,686.1,667.78,686.1,667.78c3.57-1.4,50.69-27.93,51.1-71.88Z"/><path class="cls-9" d="M950,466.06s10.67,74.49-32.23,139.52c0,0-4.17-17.12-32.17-35.57,0,0,36.8-53.73,20.6-132C906.19,438,930.62,444,950,466.06Z"/><path class="cls-5" d="M796.39,708.19s2.39,6.6-6.37,11.38,22.14,8.66,26.54,2.08S802,708,802,708Z"/><path class="cls-5" d="M793.14,704.83s-3,2.34,2.11,4.38,14.57,2.25,11.36-1.81S796.14,703.05,793.14,704.83Z"/><path class="cls-5" d="M807.09,704.36s-8.51,8.21-11.06,7.19-.79-6.38,5.8-8.85S808.35,703.38,807.09,704.36Z"/><path class="cls-5" d="M793,717.57s-9.91,1.29-10.33,4.92,5.31,8.16,18.43,8.79,25.16-5.39,23-11.71-16.78,1.61-21.25-.25S797.07,717.34,793,717.57Z"/><path class="cls-3" d="M329.84,786.16c-19.52-22.86-29.06-50.76-29.17-85.3-.1-31.89,7.57-70.08,24.13-120.19,15.84-47.95,9.93-85.34,2.17-108.27-8.4-24.85-20.72-38.55-20.84-38.68l1.71-1.56c.51.56,12.72,14.11,21.29,39.38a154.57,154.57,0,0,1,8,46.88c.36,20.33-3.05,41.52-10.14,63-33.49,101.32-32.16,160.21,4.6,203.26Z"/><path class="cls-3" d="M381,121.67C432,233,401.66,379.76,302.19,425.31S71.76,397.92,20.8,286.62s-4.12-222,95.36-267.57S330.07,10.38,381,121.67Z"/><path class="cls-7" d="M88.4,97.32c-19.75,10.47-40.51,23.58-57.81,39.16,0,0-13.58,30.36-8.66,77.24,8.8-9.85,26-25.88,56-42.53C75.51,138.56,82.29,113,88.4,97.32Z"/><path class="cls-7" d="M165.72,65.64A458.23,458.23,0,0,0,94.4,95C88.11,110.66,81,136.13,83.07,168.79c17.55-9.5,39.43-19.16,66.47-27.88C148,116.49,151.55,90.1,165.72,65.64Z"/><path class="cls-7" d="M79.08,176.37c-30,16.66-47.18,32.68-56,42.53,2.57,24.46,10.18,53.41,27.38,84.89,7.78-6.93,26.78-22.53,56.2-38.48C88.57,232.18,81,202.08,79.08,176.37Z"/><path class="cls-7" d="M150.65,146.1c-27,8.72-48.92,18.38-66.47,27.88,1.6,25.71,8.85,55.87,26.56,89.17a375.63,375.63,0,0,1,66.9-27.23C172.68,226.94,153.46,189.64,150.65,146.1Z"/><path class="cls-10" d="M292,299.08c41.6,33.92,82.56,31.16,82.56,31.16C312.75,462.61,183,418,183,418c3-2.31,40.07-40.36,28.3-81.92Z"/><path class="cls-9" d="M376,154.73s30.66,67.3,8.2,140.48c0,0-8.67-15-40.17-24.64,0,0,19.83-60.84-17.1-130.15C326.94,140.42,351.64,139.32,376,154.73Z"/><path class="cls-3" d="M298.15,425.56s4.08,5.56-2.86,12.49,23.26,2,25.6-5.38-17.5-8.86-17.5-8.86Z"/><path class="cls-3" d="M294.14,423.29s-2.16,3,3.21,3.54,14.36-1.91,10.21-4.85S296.48,420.78,294.14,423.29Z"/><path class="cls-3" d="M307.17,419s-5.75,10.1-8.44,9.84-2.51-5.79,3-9.95S308.09,417.72,307.17,419Z"/><path class="cls-3" d="M297.52,435.34s-9,4-8.38,7.5,7.27,6.23,19.81,3.19,22.23-12,18.42-17.4-15.38,6.16-20.1,5.64S301.32,434,297.52,435.34Z"/><path class="cls-4" d="M405.51,1212.1c-10.8-28.2-10.14-56,2.08-87.41,11-28.35,30.68-57.57,51.51-88.51,3.93-5.85,8-11.9,12.08-18,24.44-36.78,33.28-67.16,36.4-86.18,3.37-20.58.94-32.64.92-32.76l2.3-.48c.11.5,2.54,12.49-.87,33.47-3.14,19.27-12.07,50-36.79,87.26-4.07,6.13-8.15,12.18-12.09,18-42.69,63.42-76.4,113.52-53.34,173.75Z"/><path class="cls-4" d="M711.23,643.8c0,124.56-90.25,247.52-201.58,247.52s-201.58-123-201.58-247.52,90.25-207.15,201.58-207.15S711.23,519.25,711.23,643.8Z"/><path class="cls-7" d="M450.82,497.3C428.1,498.63,403.35,502,380.74,509c0,0-25.43,22.34-40.73,67.8,12.31-5.39,35-12.92,69.8-15.64C421.42,530,438.51,509.23,450.82,497.3Z"/><path class="cls-7" d="M535.76,500.75a467,467,0,0,0-78.43-3c-12.44,11.79-29.77,32.36-41.72,63.43,20.26-1.35,44.59-1,73.3,2.37C497.8,540.27,512.3,517.38,535.76,500.75Z"/><path class="cls-7" d="M408.7,566.49c-34.78,2.72-57.49,10.25-69.81,15.64-8,23.71-13.21,53.72-10.63,90.13,10.13-3.11,34.32-9.51,68.3-11.79C393.84,622.15,399.56,591.08,408.7,566.49Z"/><path class="cls-7" d="M487.74,568.81c-28.72-3.39-53.05-3.72-73.31-2.37C405,590.9,399,621.88,401.23,660.19a382.3,382.3,0,0,1,73.43,3.15C473.87,652.93,471.89,610.28,487.74,568.81Z"/><path class="cls-11" d="M553.66,770.21c24.12,49,63.18,63.8,63.18,63.8-113.22,96.29-214.38,0-214.38,0,3.73-.88,54.17-20.37,60.89-63.8Z"/><path class="cls-9" d="M692.58,672.26s-.14,75.25-51.93,133.45c0,0-1.67-17.54-26.73-39.82,0,0,44.13-47.89,39.33-127.66C653.25,638.23,676.57,647.68,692.58,672.26Z"/><path class="cls-4" d="M505.81,889.84s1.42,6.87-7.94,10.34,20.66,11.75,26,5.87-12.43-15.61-12.43-15.61Z"/><path class="cls-4" d="M503.07,886s-3.29,1.89,1.46,4.64,14.1,4.31,11.5-.17S506.29,884.71,503.07,886Z"/><path class="cls-4" d="M516.94,887.58s-9.6,6.9-12,5.53.13-6.43,7-7.93S518.33,886.79,516.94,887.58Z"/><path class="cls-4" d="M501.08,898.63s-10-.15-10.93,3.39,4.09,8.84,17,11.34,25.67-1.72,24.42-8.3-16.84-.81-21-3.29S505.17,899,501.08,898.63Z"/><path class="cls-12" d="M529.89,95.94q-.18-2.7-.57-5.37a74,74,0,0,0-2-9.07A79.29,79.29,0,0,0,524.82,74c-.72-1.86-1.52-3.68-2.38-5.47-.48-1-1-2-1.52-2.93l-.21-.37a10.31,10.31,0,0,0-.05,1.11c0,.89,0,1.78,0,2.67,0,3,0,6.09,0,9.13s0,6.09,0,9.14l0,2a17.26,17.26,0,0,0,.07,1.76c.28.47.54,1,.79,1.44.7,1.33,1.34,2.68,2,4,.91,2,1.73,4.11,2.46,6.21a76.18,76.18,0,0,1,2.31,8c.12.5.22,1,.33,1.5.15.74.3,1.48.43,2.23,0,0,0,.06,0,.1.13.73.25,1.46.35,2.19h0c.1.84.46,4.16.71,8.55.07-2.44.06-4.89.07-7.33C530.16,110.63,530.41,103.24,529.89,95.94Z"/><path class="cls-12" d="M529.35,116.72c-.22-1.52-.48-3-.8-4.53a47.25,47.25,0,0,1-3.25,9.2,52.21,52.21,0,0,1-13.08,16.86c-7.13,6.2-15.58,10.74-24.32,14.22-12.41,4.93-25.57,7.86-38.75,9.81-8.45,1.25-17,2.07-25.49,2.61-9.13.57-18.29.55-27.42,1.14a175.91,175.91,0,0,0-41,7.12A100.17,100.17,0,0,0,326.51,187,64.66,64.66,0,0,0,309,205.28a52.83,52.83,0,0,0-7.46,20.41,55,55,0,0,0-.49,5.59c0,1-.07,2-.09,3,.05.67.11,1.31.16,1.91v-.54c0-.32,0-1.35,0-.85l0,.86c0,.44,0,.89.08,1.34l.06.63c.23,2.15.47,3.68.58,4.35.23,1.3.51,2.6.83,3.88.35-1.37.75-2.72,1.22-4.05a54.16,54.16,0,0,1,6.34-12.6,62.62,62.62,0,0,1,10.36-11.69,79.74,79.74,0,0,1,14.65-10.18,108.83,108.83,0,0,1,19.15-8.08,155.82,155.82,0,0,1,24.15-5.51,237.59,237.59,0,0,1,29.55-2.35c11.47-.28,22.94-1,34.33-2.37A220.56,220.56,0,0,0,470,184a136.94,136.94,0,0,0,21.35-7.16,88.13,88.13,0,0,0,15.8-8.8,61.13,61.13,0,0,0,11.09-10,49.2,49.2,0,0,0,7-10.78,47.25,47.25,0,0,0,3.66-11,63.15,63.15,0,0,0,1.1-11C529.81,120.87,529.45,117.56,529.35,116.72Z"/></g></g></g></svg>