<svg xmlns="http://www.w3.org/2000/svg" viewBox="0 0 31.84 12.25"><defs><style>.cls-1{fill:#f8a800;}.cls-2{fill:#f07f00;}.cls-3{fill:#e9530e;}.cls-4{fill:#f8c8c6;}</style></defs><title>Asset 7</title><g id="Layer_2" data-name="Layer 2"><g id="Layer_1-2" data-name="Layer 1"><path class="cls-1" d="M15.45,7.72s-3.09-3.63-3.81-3.65c0,0-.4,2.78-1,3.51s-1.7,2.49-.07,2.53A19.27,19.27,0,0,0,15.09,10c.94-.29,1.22.38,1.22.38s2.56,1.84,3.57,1.84,1.65.07,1.29-2.12-.51-.9,0-2.22a4.56,4.56,0,0,0,.44-2.44c-.07-.37-2.28.42-3.06.88a21.38,21.38,0,0,0-1.85,1.3c-.3.21-.79.59-1,.5S15.45,7.72,15.45,7.72Z"/><path class="cls-2" d="M15.51,8.43a10.44,10.44,0,0,0-2.64-1.3,1.36,1.36,0,0,0-.2,1.54,25.27,25.27,0,0,0,2.83.24S18,10.11,18.76,10a3.48,3.48,0,0,0,.31-1.59,8.29,8.29,0,0,0-2.75.32C16,8.82,15.51,8.43,15.51,8.43Z"/><path class="cls-3" d="M15.36,7.62s.87-.34,1.35,0c0,0,.13,2.07-.4,2.76a1.76,1.76,0,0,1-1.61-.16A8.76,8.76,0,0,1,15.36,7.62Z"/><path class="cls-4" d="M7.88,5.82C6.7,7.86,4.39,8,2.36,6.8S-.67,3.6.5,1.57,3.75-.32,5.78.86,9.05,3.79,7.88,5.82Z"/><path class="cls-4" d="M31.82,7.11c.21,2.35-1.61,3.77-3.95,4s-4.32-.87-4.53-3.21,1.57-3.41,3.91-3.62S31.61,4.77,31.82,7.11Z"/></g></g></svg>