<svg xmlns="http://www.w3.org/2000/svg" xmlns:xlink="http://www.w3.org/1999/xlink" viewBox="0 0 61.07 55.12"><defs><style>.cls-1{fill:none;}.cls-2{fill:#260a23;}.cls-3{fill:#683c11;}.cls-4{fill:#e9530e;}.cls-5{fill:#fad6cd;}.cls-6{fill:#be1622;}.cls-7{fill:#432918;}.cls-8{clip-path:url(#clip-path);}.cls-9{fill:#531c4b;}.cls-10{fill:#f0c56d;}</style><clipPath id="clip-path"><path class="cls-1" d="M38.09,37c5.59,1,11.36.48,15.5.77-2.1-.78-4.46-1.71-6.33-2.61a.22.22,0,0,1,0-.37,3.64,3.64,0,0,0,1.29-1.69.69.69,0,0,0-.18-.73c-.72-.66-2.47-2.23-2.41-2.69.45-3.47-.53-24.08-.33-24.29s2.27,1.88,3.76,2c0,0-3.51-6.26-5.94-7.33-1-.42-19.33,18.93-21.16,20.85-.09.1-.27.17-.85.24-1.15.12-2.62-.48-1.84,1.59.08.21.13.33-.09.35a4.24,4.24,0,0,0-1.22.18c-.33.18.06,1.05-.56,1.42a7.83,7.83,0,0,1-5.55.61,37.43,37.43,0,0,1,3.43,2.06C26.05,34.3,29.89,35.46,38.09,37Z"/></clipPath></defs><title>Asset 6</title><g id="Layer_2" data-name="Layer 2"><g id="Layer_1-2" data-name="Layer 1"><path class="cls-2" d="M59.62,38.85A9.21,9.21,0,0,0,55,37.67C50.7,37.42,44.78,38,39,37c-8.43-1.47-12.38-2.62-23.21-9.69-1.29-.84-2.47-1.52-3.55-2.08A19.27,19.27,0,0,1,7,23.34H7c-4.71-.82-5.93,2-5.93,2-7,10.44,23.57,16,27.19,17.38s23.49,6.37,27.33,4.84C60.07,45.72,63,41.22,59.62,38.85Z"/><path class="cls-3" d="M13,39.9c-.49.78.52,2.31.52,2.31s1.82.25,2.31-.54-.53-2.31-.53-2.31S13.46,39.11,13,39.9Z"/><path class="cls-3" d="M11.77,41.93c-.53.57.06,2,.06,2s1.44.5,2-.07-.06-2-.06-2S12.3,41.37,11.77,41.93Z"/><path class="cls-3" d="M10.56,43.13c-.54.32-.41,1.56-.41,1.56s1,.73,1.56.41.41-1.56.41-1.56S11.11,42.82,10.56,43.13Z"/><path class="cls-3" d="M8.71,44.3a11.24,11.24,0,0,1-1.22.12,5.39,5.39,0,0,1,1.1,2c.1,1.09-.39,1,1.11-.39.42-.38.4-1.39.4-1.39A2.58,2.58,0,0,0,8.71,44.3Z"/><path class="cls-4" d="M11.31,45.21a8.46,8.46,0,0,0-1.15-.54,9.36,9.36,0,0,0,0-1.42.1.1,0,0,0-.18-.06,1.22,1.22,0,0,1-.44.3c-.34.18-.94.2-.39.63.22.18.9.6.9.6a3.89,3.89,0,0,0,0,.94c.22.92.37.42.77.14a5.19,5.19,0,0,1,.53-.31C11.43,45.44,11.46,45.32,11.31,45.21Z"/><path class="cls-3" d="M46.31,46.74c.18.91-1.31,2-1.31,2s-1.78-.41-2-1.31,1.32-2,1.32-2S46.13,45.83,46.31,46.74Z"/><path class="cls-3" d="M46.71,49.07c.3.71-.75,1.83-.75,1.83s-1.53,0-1.83-.77.76-1.82.76-1.82S46.42,48.36,46.71,49.07Z"/><path class="cls-3" d="M47.41,50.62c.4.49-.17,1.61-.17,1.61s-1.2.31-1.6-.18.17-1.6.17-1.6S47,50.13,47.41,50.62Z"/><path class="cls-3" d="M48.73,52.37c.56.31,1.1.54,1.1.54a5.52,5.52,0,0,0-1.76,1.53c-.47,1,0,1.05-.9-.76a2.31,2.31,0,0,1,.12-1.44A2.6,2.6,0,0,1,48.73,52.37Z"/><path class="cls-4" d="M46,52.3a9.32,9.32,0,0,1,1.26-.1,10.61,10.61,0,0,1,.51-1.32.1.1,0,0,1,.19,0,1.19,1.19,0,0,0,.3.44c.26.29.81.51.15.73-.28.09-1.06.23-1.06.23a4.3,4.3,0,0,1-.32.89c-.53.78-.49.26-.77-.15a3.72,3.72,0,0,0-.39-.47C45.79,52.47,45.79,52.35,46,52.3Z"/><path class="cls-5" d="M45.66,42.4c-.36,1.44-.42,1.62-.86,3.14,0,.05,0,.1,0,.16-.42,1.45-.59,2.32-.89,3.5h0l-.33.24a19.15,19.15,0,0,1-8.13,3.17c-5.16.77-11.63-1.12-16.57-4.2-.6-.37-1.19-.77-1.74-1.18A16.7,16.7,0,0,1,15,45.4c0-.7-.09-1.45-.14-2.24s-.23-2.63-.28-3.86v-.14a17.88,17.88,0,0,1,.11-3.62c.31-2.36.29-3.13,1.17-4.7,2.29-4.05,7.19-7.52,14.9-6.08C40.08,26.5,45.26,27.64,46.38,35A16.24,16.24,0,0,1,45.66,42.4Z"/><path class="cls-3" d="M47,34c-1.24-4.64-5.44-7.86-8.68-8.36l-11.66-1.8c-3.22-.49-8.24,1.88-10.8,5.88-1.66,2.59-2.54,9.06-2.11,9.54s12-2.28,20.55.17a.76.76,0,0,0,.94-.51,59.26,59.26,0,0,0,1.86-7.53,84.91,84.91,0,0,1-.2,9c3,1.23,8.13,5.78,8.91,5.59S47.86,37.41,47,34Z"/><path class="cls-6" d="M29.35,46.25l-.26-.06a.07.07,0,0,1-.05-.08.07.07,0,0,1,.09,0A1.58,1.58,0,0,0,31,45.45a.07.07,0,0,1,.09,0,.06.06,0,0,1,0,.09A1.64,1.64,0,0,1,29.35,46.25Z"/><path class="cls-7" d="M29.27,44a.07.07,0,0,1-.05,0s-.13-.32,0-.51a.48.48,0,0,1,.48-.11.53.53,0,0,1,.43.25.58.58,0,0,1-.06.49.08.08,0,0,1-.09,0,.08.08,0,0,1,0-.1.44.44,0,0,0,0-.36c0-.09-.15-.15-.32-.18s-.29,0-.35.07,0,.36,0,.37a.09.09,0,0,1,0,.09Z"/><path class="cls-7" d="M26.26,41.08l-1.59-1a.08.08,0,0,0-.1,0,.07.07,0,0,0,0,.1l.68.42a1.25,1.25,0,0,0-.92,1.16,1.7,1.7,0,0,0,.1.94,1.7,1.7,0,0,1-.44-.08,0,0,0,0,0-.07,0,.05.05,0,0,0,0,.07,3,3,0,0,0,.29.07l.25,0a.72.72,0,0,0,.51.38c.48.08,1-.44,1.08-1.16a1.6,1.6,0,0,0-.16-1l.24.14h0a.08.08,0,0,0,.08,0A.07.07,0,0,0,26.26,41.08Z"/><path class="cls-7" d="M33.64,42.21l1.81-.44a.07.07,0,1,1,0,.14l-.79.19a1.26,1.26,0,0,1,.54,1.39,1.63,1.63,0,0,1-.38.86,1.7,1.7,0,0,0,.45,0,0,0,0,0,1,0,.05.05.05,0,0,1,0,.06,1.22,1.22,0,0,1-.29,0l-.25-.06a.72.72,0,0,1-.6.22c-.49-.08-.79-.72-.68-1.43a1.63,1.63,0,0,1,.45-.93l-.26.06h0a.09.09,0,0,1-.06-.06A.07.07,0,0,1,33.64,42.21Z"/><g class="cls-8"><path class="cls-9" d="M38.09,37c5.59,1,11.36.48,15.5.77-2.1-.78-4.46-1.71-6.33-2.61a.22.22,0,0,1,0-.37,3.64,3.64,0,0,0,1.29-1.69.69.69,0,0,0-.18-.73c-.72-.66-2.47-2.23-2.41-2.69.45-3.47-.53-24.08-.33-24.29s2.27,1.88,3.76,2c0,0-3.51-6.26-5.94-7.33-1-.42-19.33,18.93-21.16,20.85-.09.1-.27.17-.85.24-1.15.12-2.62-.48-1.84,1.59.08.21.13.33-.09.35a4.24,4.24,0,0,0-1.22.18c-.33.18.06,1.05-.56,1.42a7.83,7.83,0,0,1-5.55.61,37.43,37.43,0,0,1,3.43,2.06C26.05,34.3,29.89,35.46,38.09,37Z"/><path class="cls-10" d="M42.14,1.38A3.36,3.36,0,0,0,40,.13a4.79,4.79,0,0,0-1.81,0A3.4,3.4,0,0,0,35.85,3a3.16,3.16,0,0,0,.4,2.27A3.48,3.48,0,0,0,38.56,7a4.12,4.12,0,0,0,2.84-.55,3.17,3.17,0,0,0,1.27-2.2A3.82,3.82,0,0,0,42.14,1.38Zm-2,3a1.11,1.11,0,0,1-.78.39,1.42,1.42,0,0,1-.91-.38,1.23,1.23,0,0,1-.33-.94,1.06,1.06,0,0,1,.32-.72,1.15,1.15,0,0,1,1.18-.37,1.56,1.56,0,0,1,.52.34,1.17,1.17,0,0,1,.39.76A1.34,1.34,0,0,1,40.11,4.4Z"/><path class="cls-10" d="M47.32,10.26a2.83,2.83,0,0,0-1.83-1,3.89,3.89,0,0,0-1.52,0,2.83,2.83,0,0,0-1.91,2.37,2.64,2.64,0,0,0,.33,1.9A2.94,2.94,0,0,0,44.32,15a3.46,3.46,0,0,0,2.38-.46,2.67,2.67,0,0,0,1.06-1.84A3.24,3.24,0,0,0,47.32,10.26Zm-1.7,2.53a.92.92,0,0,1-.65.32,1.13,1.13,0,0,1-.76-.32,1,1,0,0,1-.28-.78.9.9,0,0,1,.27-.6,1,1,0,0,1,1-.31,1.27,1.27,0,0,1,.43.28,1,1,0,0,1,.32.64A1.11,1.11,0,0,1,45.62,12.79Z"/><path class="cls-10" d="M31.28,11.31a3.08,3.08,0,0,0-2-1.14,4.3,4.3,0,0,0-1.64,0,3.08,3.08,0,0,0-2.09,2.57,2.9,2.9,0,0,0,.37,2.06,3.2,3.2,0,0,0,2.1,1.6,3.74,3.74,0,0,0,2.58-.5,2.9,2.9,0,0,0,1.15-2A3.51,3.51,0,0,0,31.28,11.31Zm-1.85,2.74a1,1,0,0,1-.7.35,1.24,1.24,0,0,1-.83-.35,1.06,1.06,0,0,1-.3-.84,1,1,0,0,1,.29-.66A1.05,1.05,0,0,1,29,12.21a1.69,1.69,0,0,1,.46.31,1.09,1.09,0,0,1,.36.7A1.2,1.2,0,0,1,29.43,14.05Z"/><path class="cls-10" d="M36.45,19.7A2.25,2.25,0,0,0,35,18.87a3.39,3.39,0,0,0-1.19,0,2.24,2.24,0,0,0-1.52,1.87,2.09,2.09,0,0,0,.27,1.5,2.36,2.36,0,0,0,1.52,1.16A2.75,2.75,0,0,0,36,23.05a2.13,2.13,0,0,0,.83-1.45A2.53,2.53,0,0,0,36.45,19.7Zm-1.34,2a.73.73,0,0,1-.51.26.94.94,0,0,1-.6-.25.83.83,0,0,1-.22-.62.81.81,0,0,1,1-.72,1,1,0,0,1,.34.22.77.77,0,0,1,.26.51A.84.84,0,0,1,35.11,21.69Z"/><path class="cls-10" d="M48.62,24.52a3.16,3.16,0,0,0-2-1.17,4.36,4.36,0,0,0-1.69,0A3.17,3.17,0,0,0,42.74,26a3,3,0,0,0,.38,2.12,3.29,3.29,0,0,0,2.15,1.64,3.78,3.78,0,0,0,2.66-.51,3,3,0,0,0,1.18-2.05A3.58,3.58,0,0,0,48.62,24.52Zm-1.9,2.82a1,1,0,0,1-.73.36,1.32,1.32,0,0,1-.85-.36,1.11,1.11,0,0,1-.3-.87,1,1,0,0,1,.29-.67,1.09,1.09,0,0,1,1.11-.35,1.49,1.49,0,0,1,.48.32,1,1,0,0,1,.36.71A1.21,1.21,0,0,1,46.72,27.34Z"/><path class="cls-10" d="M39.12,30.13a3.42,3.42,0,0,0-2.19-1.26,5,5,0,0,0-1.81,0,3.4,3.4,0,0,0-2.29,2.84,3.16,3.16,0,0,0,.4,2.27,3.51,3.51,0,0,0,2.31,1.76,4.12,4.12,0,0,0,2.84-.55A3.17,3.17,0,0,0,39.65,33,3.82,3.82,0,0,0,39.12,30.13Zm-2,3a1.11,1.11,0,0,1-.77.39,1.42,1.42,0,0,1-.91-.38,1.23,1.23,0,0,1-.33-.94,1.06,1.06,0,0,1,.32-.72,1.14,1.14,0,0,1,1.18-.37,1.7,1.7,0,0,1,.52.33,1.22,1.22,0,0,1,.39.77A1.35,1.35,0,0,1,37.08,33.15Z"/><path class="cls-10" d="M24.73,28.51a3.43,3.43,0,0,0-2.19-1.25,4.84,4.84,0,0,0-1.82,0,3.37,3.37,0,0,0-2.29,2.83,3.15,3.15,0,0,0,.4,2.27,3.5,3.5,0,0,0,2.31,1.76A4,4,0,0,0,24,33.59a3.19,3.19,0,0,0,1.27-2.2A3.9,3.9,0,0,0,24.73,28.51Zm-2,3a1.08,1.08,0,0,1-.78.38,1.42,1.42,0,0,1-.91-.38,1.19,1.19,0,0,1-.32-.93,1.05,1.05,0,0,1,.31-.72,1.15,1.15,0,0,1,1.19-.38,1.69,1.69,0,0,1,.51.34,1.17,1.17,0,0,1,.39.77A1.34,1.34,0,0,1,22.69,31.54Z"/></g><path class="cls-2" d="M21.6,24c1.88,1.34,6.59,3.4,11.5,4.88a87.38,87.38,0,0,0,9.8,2.17c1.39.25.46.56-.89.58-3.26.06-12-1.88-14.69-3.14-2.94-1.38-4.79-2.38-6.42-4.32C19.8,22.86,19.82,22.73,21.6,24Z"/><path class="cls-2" d="M24.92,22.91A32.23,32.23,0,0,0,34,25.65c1.41.07.55.51-.79.72S27.67,26,26.3,24.92C23.22,22.6,21,21.15,24.92,22.91Z"/></g></g></svg>