<svg xmlns="http://www.w3.org/2000/svg" viewBox="0 0 1195.27 465.66"><defs><style>.cls-1{fill:#ba3817;}.cls-2{fill:#ec6619;}</style></defs><title>Asset 12</title><g id="Layer_2" data-name="Layer 2"><g id="Layer_1-2" data-name="Layer 1"><path class="cls-1" d="M490.69,229.36a40.69,40.69,0,0,0-7.47-13.66A38.21,38.21,0,0,0,470.87,206a35.72,35.72,0,0,0-16.71-3.59,45,45,0,0,0-18.73,4.37,64.76,64.76,0,0,0-16.72,11.53,93.51,93.51,0,0,0-14.06,16.89,126.58,126.58,0,0,0-10.88,20.53,145.26,145.26,0,0,0-7.39,22.42,134.85,134.85,0,0,0-3.44,22.42,34.41,34.41,0,0,0-.25,5.27c.05,1.65.12,3.33.16,5a93,93,0,0,0,2.69,19.66,51.12,51.12,0,0,0,7.18,16.42,35.27,35.27,0,0,0,12.37,11.26c5,2.78,11.09,4.08,18.14,3.92a56.68,56.68,0,0,0,25.28-6,78.86,78.86,0,0,0,15.82-10.78L460.07,336a66.51,66.51,0,0,1-6.16,4.74,27.9,27.9,0,0,1-14.65,5,17.72,17.72,0,0,1-8.23-2.33,14.83,14.83,0,0,1-5.23-5.24,22.79,22.79,0,0,1-2.74-7.29,47.39,47.39,0,0,1-.9-8.4c0-1-.05-2.14-.06-3.26a22.11,22.11,0,0,1,.13-3.28c.22-2.65.46-5.16.77-7.55a63.92,63.92,0,0,1,1.19-7,126.7,126.7,0,0,0,21.94-7.34,109.39,109.39,0,0,0,21.35-12.18,79.72,79.72,0,0,0,17-16.58,41.16,41.16,0,0,0,8.31-20.43A43.69,43.69,0,0,0,490.69,229.36Zm-8,17.17a29.77,29.77,0,0,1-7,16.49,69.47,69.47,0,0,1-14.81,13.43A93.57,93.57,0,0,1,443,286a68.87,68.87,0,0,1-16.34,4.67A71.09,71.09,0,0,1,430.28,280c1.81-4.33,3.87-8.9,6.22-13.7a161.07,161.07,0,0,1,8-14.4,134.62,134.62,0,0,1,9.17-13,55.33,55.33,0,0,1,9.36-9.43c3.14-2.41,6.06-3.63,8.72-3.65,3,0,5.52,1.87,7.64,5.68A26,26,0,0,1,482.67,246.53Z"/><path class="cls-1" d="M706.73,308.15q-6.09,9.21-13.4,19.26A114.4,114.4,0,0,1,677,345.57a79,79,0,0,1-20.42,13.2,56.84,56.84,0,0,1-25.56,4.6q-10.59-.36-17.89-4.92a35.22,35.22,0,0,1-11.73-11.93,51.32,51.32,0,0,1-6.25-16.81A93.06,93.06,0,0,1,593.51,310c0-1.72.08-3.4.12-5.05a36,36,0,0,1,.54-5.25v.2a129.9,129.9,0,0,1,4.69-22.39,146,146,0,0,1,8.61-22,127.73,127.73,0,0,1,12-19.89,93.74,93.74,0,0,1,15-16.08,64.79,64.79,0,0,1,17.34-10.59,44.7,44.7,0,0,1,18.93-3.3,33.49,33.49,0,0,1,16.47,4.81A38.65,38.65,0,0,1,699,221.61a43.66,43.66,0,0,1,6.52,15.12,47.32,47.32,0,0,1,.82,16.62c-.21,1.18-.45,2.49-.74,3.93a20.35,20.35,0,0,1-1.26,4.1,7.5,7.5,0,0,1-2.47,3.15,6.55,6.55,0,0,1-4.35,1.07,9.6,9.6,0,0,1-2-.7,7.63,7.63,0,0,1-2.12-1.69c.65-1.82,1.19-3.54,1.62-5.18a44.43,44.43,0,0,0,1-4.61,55.35,55.35,0,0,0,.2-8.23,27.11,27.11,0,0,0-1.33-7.31,15,15,0,0,0-3-5.31,6.52,6.52,0,0,0-4.65-2.2q-4.22-.19-9.56,3.53a58.43,58.43,0,0,0-10.87,10.24,139.8,139.8,0,0,0-11.13,15.21,172.83,172.83,0,0,0-10.21,18.36,193.54,193.54,0,0,0-8.2,19.83A135.2,135.2,0,0,0,631.92,317c-.17,1.05-.32,2.2-.42,3.45s-.19,2.41-.23,3.47a46.87,46.87,0,0,0,.52,8.94,24.87,24.87,0,0,0,2.42,7.52,14,14,0,0,0,4.73,5.32,14.68,14.68,0,0,0,7.7,2.17A28.43,28.43,0,0,0,662,344a65.69,65.69,0,0,0,13.8-10.51,115.45,115.45,0,0,0,12-13.82q5.53-7.47,10-13.79c0,.06,0,.13,0,.2q5.38-8.07,10.07-15.85t8.59-14.13q1.83-2.87,4.13-6.51c1.53-2.43,2.91-4.53,4.14-6.32a13.33,13.33,0,0,1,3.19-.81,4.29,4.29,0,0,1,3,1.27,10.36,10.36,0,0,1,1.82,2.79l-2.34,4.23q-4.2,7.1-10.28,17T706.73,308.15Z"/><path class="cls-1" d="M749.11,363.69c-7.73-.51-14.05-2.91-19-7.25a46.1,46.1,0,0,1-11.67-16.08,71.13,71.13,0,0,1-5.63-21,128.87,128.87,0,0,1-.75-22.07c.11-2,.21-3.93.32-5.84a29.44,29.44,0,0,1,.7-5.22q1.35-9.47,3.26-17.49a70.59,70.59,0,0,1,4.54-13.64,25,25,0,0,1,10.15-6.37,31,31,0,0,1,11.57-1.48,30.17,30.17,0,0,1,6.77,1.22,30.9,30.9,0,0,1,6.26,2.59,140.7,140.7,0,0,1,5.05-20.63,65.19,65.19,0,0,1,9.08-18.16,40.93,40.93,0,0,1,14.53-12.49q8.76-4.53,21.54-3.56,10.42.81,17.43,5.46a35.12,35.12,0,0,1,11.17,12,47.58,47.58,0,0,1,5.57,17,89.37,89.37,0,0,1,.44,20.53,97.56,97.56,0,0,1-1.62,11.2l0-.2a163.08,163.08,0,0,1-9.6,31,176,176,0,0,1-15.57,29.33,38,38,0,0,0,14.7-4.64,59.26,59.26,0,0,0,12.25-9.27,94.28,94.28,0,0,0,10.61-12.38q4.9-6.81,9.54-13.75l5.33-7.46c.72-.2,1.4-.39,2.06-.6a4.31,4.31,0,0,1,1.6-.25,3.53,3.53,0,0,1,2,1,5.8,5.8,0,0,1,1.36,3.32q-4.3,7.55-10.87,17.18a121.49,121.49,0,0,1-15,18,84.1,84.1,0,0,1-18.78,14.06,42.77,42.77,0,0,1-22.27,5.31,117.76,117.76,0,0,1-12.48,13.13A75.06,75.06,0,0,1,780,356.1a64.75,64.75,0,0,1-15,6.08A48.71,48.71,0,0,1,749.11,363.69Zm43-32.51A66.53,66.53,0,0,1,775,322.06a49.35,49.35,0,0,1-11.57-12.24,53.24,53.24,0,0,1-6.79-15,76.9,76.9,0,0,1-2.72-17.26,64.33,64.33,0,0,0-1.37,6.47q-.52,3.35-1.16,6.67-1,6.3-1.42,12.23a106.75,106.75,0,0,0,0,14.2,46.05,46.05,0,0,0,2.4,12.27,22.94,22.94,0,0,0,5.39,8.81,13.49,13.49,0,0,0,8.8,3.78,27.33,27.33,0,0,0,13.13-2.24A44.82,44.82,0,0,0,792.12,331.18Zm-14-67.42a155,155,0,0,0-.2,17.47,68.82,68.82,0,0,0,2.83,17.2A41.41,41.41,0,0,0,788,312.48a24.6,24.6,0,0,0,13.37,8.28,115.2,115.2,0,0,0,8.4-12.94q4-7.14,7.35-14.72A139.5,139.5,0,0,0,823,277.47a122.68,122.68,0,0,0,3.74-15.7,35.85,35.85,0,0,0,.86-5.2c.14-1.64.28-3.32.42-5a77.75,77.75,0,0,0-.23-16.13A42.76,42.76,0,0,0,824,222a25.48,25.48,0,0,0-7.75-9.48,22.31,22.31,0,0,0-11.93-4.23,12.62,12.62,0,0,0-8.84,2.61,26,26,0,0,0-6.9,8.34,58.32,58.32,0,0,0-4.94,12.55q-2,7.22-3.41,15.06-.68,3.52-1.2,7.86C778.65,257.57,778.37,260.6,778.14,263.76Z"/><path class="cls-1" d="M614.33,261.32a10.07,10.07,0,0,0-1.91-2.74,4.34,4.34,0,0,0-3-1.17,9.47,9.47,0,0,0-1.59.15,5,5,0,0,0-1.8.75,39.35,39.35,0,0,0-3.49,5.47q-2.17,3.9-4.82,9.2-5,9.18-11.71,20.94a235.26,235.26,0,0,1-14.4,22.31,105.67,105.67,0,0,1-16,17.79q-8.31,7.25-16.69,7.15c-4.51,0-7.64-2.25-9.37-6.61A42.24,42.24,0,0,1,527,318.48c0-1.45,0-2.93,0-4.45a32.15,32.15,0,0,1,.46-4.87c.57-5.13,1.37-10.35,2.37-15.62.11-.59.22-1.15.33-1.73,24.3-26.44,79.39-84.52,105.71-178.26,1.55-4.82,2-10.49,2.57-15.34a54.37,54.37,0,0,0-.21-9.42A30.67,30.67,0,0,0,635.65,79a22.69,22.69,0,0,0-5.54-7.67,13.17,13.17,0,0,0-8.87-3.25,32.38,32.38,0,0,0-18.11,5.11c-5.75,3.54-15.66,11.83-20.53,18-22,28-49,64.25-75,168-2.13,8.49-3.56,16.36-4.8,23.5s-2.07,13.08-2.48,17.84v-.19a33,33,0,0,0-.38,4.48A338.31,338.31,0,0,1,460.07,336l-11.56,20.09s22.67-10.6,52-35.65c.26,2.5.6,5,1.06,7.46a47.11,47.11,0,0,0,5.33,15,31.29,31.29,0,0,0,10.2,10.83c4.29,2.77,9.73,4.19,16.39,4.24a30.75,30.75,0,0,0,14.62-3.62,58.23,58.23,0,0,0,13.62-10,117.29,117.29,0,0,0,12.78-14.75q6.19-8.42,11.88-17.6t10.88-18.78q5.21-9.6,9.84-18.4h-.22Zm-73.09-13.09C570.86,147,611.32,95.62,615,90.86s6.65-7.11,8.94-7a3.08,3.08,0,0,1,2.55,1.74A13.14,13.14,0,0,1,628,89.84a26.83,26.83,0,0,1,.41,5.46,54.38,54.38,0,0,1-.34,5.45,52.33,52.33,0,0,1-1,5.7s-15.47,80.81-91.24,160.81c.22-.73.42-1.46.65-2.21C539.68,253.14,541.24,248.23,541.24,248.23Z"/><path class="cls-1" d="M422.1,319.23s-.51,9.41,4.25,16.31c4.93,7.15,15.43,11.61,33.72.49l1.46,7.32-18.67,5.74L428,348.15l-7.77-4.61-4.44-5.25.95-8.41Z"/><path class="cls-1" d="M1070.1,98.17c-34.42-53.2-108.23-15.36-86.46,4,15.59,13.88,26.42-18,59.42-.36,19.88,10.61,22.44,56.14-7.8,66.07-66.9,22-206.72-73.09-265-101.52-62.82-30.64-135-68.14-225.57-52.9-155,26.07-195.84,198.35-197.1,203.58l.11-.35c-.34,1.11-.69,2.23-1,3.32q-5.24,17.06-10.27,36.6t-10.08,40a.71.71,0,0,0,0-.2c-.74,3-1.5,6-2.26,9s-1.52,5.9-2.26,8.85q-4.5,18.07-8.77,34.77t-8.37,31.2q-.45-2.85-.93-5.7Q302,362,300.06,348.39T295.72,322q-2.37-12.78-5-23.92c-1.74-7.44-3.47-13.69-5.14-18.75a18.1,18.1,0,0,0-4.28-7,12,12,0,0,0-7.23-3.64c-5.62-.74-10.55,8.92-14.84,17.21q-5.92,11.49-12.48,25T233.55,339.1q-6.69,14.61-13.32,29.53t-12.61,29.13a13.46,13.46,0,0,0,.43-3.62,10.71,10.71,0,0,1,.07-2.79c.07-1,.17-2,.26-3.1s.21-2.17.28-3.12c.23-2,.48-4,.73-6q.3-6.36.92-12.89c.42-4.34.86-8.64,1.35-12.92.32-2.87.63-5.75,1-8.62.85-8.56,1.7-17.49,2.58-26.84s1.48-18.33,1.8-27c.42-5.31.65-10.63.68-15.93a242.61,242.61,0,0,0-1.63-34.13,144.75,144.75,0,0,0-7.26-31.52,104.91,104.91,0,0,0-14.57-27.38,85.82,85.82,0,0,0-23.44-21.41,75.26,75.26,0,0,0-25.59-9.67,104,104,0,0,0-30.15-1.31c-1.57.16-3.64.46-6.21.92s-5.48,1.13-8.74,2a123.9,123.9,0,0,0-36,14.63A130,130,0,0,0,14.42,221,106.91,106.91,0,0,0,4.08,254.12c-.43,3.12-.73,6-.88,8.6S3,267.32,3,268.64a75.88,75.88,0,0,0,4.2,22.42,58.4,58.4,0,0,0,10.64,18.58,56.34,56.34,0,0,0,16.81,13.23,61.46,61.46,0,0,0,22.54,6.43,36.5,36.5,0,0,0,5.65.12c1.94-.08,3.88-.25,5.8-.46a58.91,58.91,0,0,0,24.51-8.55,86,86,0,0,0,20.13-17.29A103.67,103.67,0,0,0,128,280.41a103,103,0,0,0,8.36-24.82,1.41,1.41,0,0,1,0,.2,33.11,33.11,0,0,0,.79-3.85,49.39,49.39,0,0,0,.63-5.64,9.28,9.28,0,0,0-1-5.08c-.78-1.39-2.26-1.82-4.49-1.35-2.92.56-4.69,1.65-5.31,3.31a17.79,17.79,0,0,0-1,5.67,4,4,0,0,1-.08,1.5,2.11,2.11,0,0,0-.13.72.68.68,0,0,1,.2,0A94.86,94.86,0,0,1,121,268.46a96.65,96.65,0,0,1-9,18.06,66.28,66.28,0,0,1-12.44,14.57,29.34,29.34,0,0,1-15.26,7.14,24.67,24.67,0,0,1-16.17-2.76,46.5,46.5,0,0,1-14.84-12.73,77.82,77.82,0,0,1-16.2-44.68,75,75,0,0,1,4.57-27.88,96.67,96.67,0,0,1,13.49-25.45,90,90,0,0,1,19.57-19.46l.22-.16a48.57,48.57,0,0,1,47.27-5.29c1,.42,2,.87,2.89,1.35a65.06,65.06,0,0,1,20.16,15.71A82.89,82.89,0,0,1,159,209.51a165.23,165.23,0,0,1,8.44,26.91,203.94,203.94,0,0,1,4.27,28.18q1.11,14.13,1,26.87a17.76,17.76,0,0,1,.05,3c0,.93-.11,1.94-.14,3,0,1.67,0,3.32,0,5a.68.68,0,0,0,.2,0c-1.77,56.91-22.4,156.74-22.81,158a3.31,3.31,0,0,0,2.06,3.68,12.81,12.81,0,0,0,5.84,1.32c1.73.09,3.71.19,5.91.25a46.08,46.08,0,0,0,5.5-.12,35.31,35.31,0,0,0,15.74-5.2,44.42,44.42,0,0,0,14.25-14.87,152.48,152.48,0,0,0,9.06-18.13c.12-.28.29-.72.52-1.35a8.7,8.7,0,0,1,.68-1.54c.22-.68.55-1.53,1-2.57s.87-1.89,1.21-2.56q5.63-13,12.15-27.6t13.43-29.5q6.93-14.94,13.89-29.49t13.22-27.29c1.59,7.33,3.1,15.07,4.58,23.25s2.85,17.06,4.14,26.66c.23,1.31.43,2.61.64,3.91q2.06,13.2,3.85,26c1.2,8.55,5.34,32.37,5.84,36.19A43.24,43.24,0,0,0,286,431.58a16.37,16.37,0,0,0,4.92,7c2.12,1.66,5,2.4,8.55,2.18a33.7,33.7,0,0,0,3.37-.39,21.58,21.58,0,0,0,3.95-1A27.42,27.42,0,0,0,318,430.7a55.42,55.42,0,0,0,7.63-12.18q4.45-11.53,9.75-28.74t10.88-37.09q5.61-19.86,11.11-40.61t10.26-39.37l4.82-17.61q3.65-13.14,7.34-26.23,2.66-9.39,6.1-21.22c1.43-4.8,3-9.67,4.66-14.57,13.1-40.4,32.45-70.63,55.36-92.86,80.91-78.43,197.66-54,258.61-29.31,82.88,33.6,226.38,112.54,306,119.74C1068.5,195.9,1093.88,134.92,1070.1,98.17Z"/><path class="cls-1" d="M798,196.22s-18.23.25-36.48,17.64c-21.14-1.11-42,26.85-49.1,68.71l39,8.17s12.22-72.59,46.26-81.23Z"/><path class="cls-1" d="M1194.06,389.84c-5.83-12.2-19.21-18.84-38.37-11.83-7.73,2.83-19.17,8.87-27.47,12.61a62.77,62.77,0,0,1-7.56,2.72,27.15,27.15,0,0,1-11.52.93,18.13,18.13,0,0,1-7.71-3.74,15.66,15.66,0,0,1-2.9-3.49,209.29,209.29,0,0,0,29.81-15c20.24-12.11,34-28.12,42-43a101.77,101.77,0,0,0,10.45-29.82,42.49,42.49,0,0,0-.13-10.26,40.66,40.66,0,0,0-4.93-14.74,38.11,38.11,0,0,0-10.45-11.78,36,36,0,0,0-15.84-6.54,45.19,45.19,0,0,0-19.24.95,64.57,64.57,0,0,0-18.54,8.35,93.27,93.27,0,0,0-16.88,14.1,129.64,129.64,0,0,0-14.41,18.25,143.71,143.71,0,0,0-11.28,20.76,131.64,131.64,0,0,0-7.44,21.63.46.46,0,0,0,0-.2,37.14,37.14,0,0,0-1.17,5.14c-.24,1.64-.48,3.31-.75,5a92.34,92.34,0,0,0-.85,19.8,52.36,52.36,0,0,0,3,14.62c-4.71.45-9.29.71-13.65.81l-1.52,0c-51.34-.34-20.34-64.34-18.58-68.58l.07-.16,0-.06q7.26-12.81,13.44-25.85a124.3,124.3,0,0,0,8.84-24.05,40.19,40.19,0,0,0,1.07-9.77,21.11,21.11,0,0,0-1.72-8.16,14.37,14.37,0,0,0-5.16-6,21.47,21.47,0,0,0-9.22-3.17,31.47,31.47,0,0,0-16.81,2.22,68.7,68.7,0,0,0-15.89,9.39,123.22,123.22,0,0,0-15,13.86q-7.27,7.89-14.14,15.62c-.84,1-1.61,1.83-2.34,2.62s-1.52,1.63-2.33,2.6q4.13-7.87,7.43-15.66a83.29,83.29,0,0,0,4.78-14.6,44.23,44.23,0,0,0,.62-9.2,21,21,0,0,0-2-8.23,15.9,15.9,0,0,0-5.45-6.26,20.81,20.81,0,0,0-9.55-3.25,31.22,31.22,0,0,0-16.34,2.39,65,65,0,0,0-15.25,9.34A126,126,0,0,0,919,253.81q-7,7.69-13.49,15.39c-2.25,2.56-4.36,5.06-6.36,7.51s-4,4.72-6.08,6.75a27.17,27.17,0,0,1,1.22-3.66c.37-.76.94-2.22,1.73-4.4q1.93-4.57,3.75-9.87A71.46,71.46,0,0,0,902.54,255a41.5,41.5,0,0,0,.7-9.8,21.45,21.45,0,0,0-2.46-9.13c-1.49-2.81-3.37-6.3-6.51-8.28s-8.36-4.93-13.18-2.64c-2.94,1.39-5.68,6.2-8.27,17.31a152.74,152.74,0,0,1-4.64,16.49q-3.31,9.45-7,19.84-4.73,12.51-9.21,26.13c-.65,2-1.27,4-1.87,6,0,0-20.09,56.74-.35,63.2,0,0,5.37,2.23,10.25.07a9.19,9.19,0,0,0,2.14-1.28c3.08-2.45,5.35-7.37,7.46-15.69,1.23-4.9,2.42-11,3.7-18.45v0q1.13-3.87,2.52-7.92a135.29,135.29,0,0,1,7.38-17.8,1.2,1.2,0,0,1-.2,0c1.34-1.73,2.71-3.45,4-5.15v.2c2.23-2.85,5-6.41,8.31-10.72s7-8.88,11-13.7,8.19-9.6,12.5-14.32,8.53-8.93,12.61-12.67a78.52,78.52,0,0,1,11.52-8.87c3.58-2.2,6.64-3.13,9.16-2.84,1.4.17,1.9,1.41,1.49,3.78-.6,2.71-2.29,6.74-5,12.08s-6,11.37-9.7,18.13c-2.66,4.88-5.48,10.13-8.4,15.71s-5.71,11.29-8.31,17.12-5,11.61-7.23,17.36a107.39,107.39,0,0,0-5,16.39,18.52,18.52,0,0,0-.54,3.05c-.12,1.11-.24,2.12-.33,3a48.46,48.46,0,0,0,.09,11.57,26.16,26.16,0,0,0,3.35,9.84,20.71,20.71,0,0,0,7.31,7.18,30.15,30.15,0,0,0,12,3.67q4.44.51,5-2a4.31,4.31,0,0,0,.26-1.47,3.4,3.4,0,0,0-.2-.9,33.46,33.46,0,0,1-2.1-10.33,44.3,44.3,0,0,1,.8-10.39,110.92,110.92,0,0,1,4.76-15.12c2.08-5.4,12-21.71,14.83-25.08s6.06-7.19,9.65-11.41q6.9-8.57,15-17.93t15.92-17.07a110.66,110.66,0,0,1,14.92-12.43q7-4.8,11.85-4.13a1.56,1.56,0,0,1,.61.19.71.71,0,0,0,.42.14c.91.53,1.12,1.64.62,3.3-.65,2.71-2.45,6.66-5.33,11.87s-6.22,11.16-9.92,17.89q-4.14,7.25-8.7,15.54c-1,1.84-2,3.69-3,5.55a.17.17,0,0,1,0,.07c-.07.11-.21.41-.42.85a4.25,4.25,0,0,0-.21.43c-3.12,6.61-15.91,36.12-7.7,59.09a38.16,38.16,0,0,0,3.25,6.84,35.33,35.33,0,0,0,7.73,9l.58.5a43.67,43.67,0,0,0,7.54,4.87,50.7,50.7,0,0,0,15.93,4.83,139.61,139.61,0,0,0,44.69-.76,36.88,36.88,0,0,0,4.74,4.69q6.69,5.46,17.17,7.12a57.41,57.41,0,0,0,26-1.41,78.9,78.9,0,0,0,12.86-5.18s33.62-18.43,48-14.47c9.85,2.7,7.76,11.75,3.82,15.13-1.7,1.46-4.17-1.67-8.25-.22-4.59,1.64-8.74,8.21-2.63,12.95C1182,423.47,1200.14,402.56,1194.06,389.84Zm-98.23-13.06a50.76,50.76,0,0,1,.62-8.43c.16-1.05.35-2.13.51-3.24a29.25,29.25,0,0,1,.72-3.2c.68-2.57,1.39-5,2.11-7.29s1.52-4.51,2.42-6.65c1.63-4.22,4.36-10.13,4.36-10.13a70,70,0,0,1,5.49-9.87c2.53-3.94,5.39-8,8.56-12.36a162.81,162.81,0,0,1,10.5-12.72,136.6,136.6,0,0,1,11.36-11.19,56,56,0,0,1,10.92-7.58c3.52-1.82,6.62-2.49,9.25-2.05,2.93.52,5.09,2.84,6.52,7a29.93,29.93,0,0,1,1.46,9s-.78,12-8.88,27c-5.64,10.52-19.22,24-34.77,36.22-9.19,7.24-19.94,12.43-31.11,16.1C1095.86,377.19,1095.84,377,1095.83,376.78Z"/><path class="cls-1" d="M77.55,228.88s2.5-22.13,25.85-24.44c26.38-2.6,42.11,22.2,32.29,54.3l-11.06-1.59s2.69-10.12.92-20.13c-2.16-12.23-18.86-12.81-22.61-1-.53,1.66-1.07,3.47-1.62,5.46C95.54,262.54,74.9,245.86,77.55,228.88Z"/><path class="cls-1" d="M944.33,335.58s-7,14.75-6.94,26.39c0,5.88,3.46,21-2.1,21.55-14.48,1.52-14.51-17.4-14.51-17.4l2.57-21.2s11.31-11.62,12.42-12.14S944.33,335.58,944.33,335.58Z"/><path class="cls-1" d="M695.7,241.06s1.62,5.57-1.79,10.07-3.23,8.25-.5,12.08,8.68-9.58,8.68-9.58l.26-9.71Z"/><path class="cls-2" d="M487.69,219.36a40.69,40.69,0,0,0-7.47-13.66A38.21,38.21,0,0,0,467.87,196a35.72,35.72,0,0,0-16.71-3.59,45,45,0,0,0-18.73,4.37,64.76,64.76,0,0,0-16.72,11.53,93.51,93.51,0,0,0-14.06,16.89,126.58,126.58,0,0,0-10.88,20.53,145.26,145.26,0,0,0-7.39,22.42,134.85,134.85,0,0,0-3.44,22.42,34.41,34.41,0,0,0-.25,5.27c.05,1.65.12,3.33.16,5a93,93,0,0,0,2.69,19.66,51.12,51.12,0,0,0,7.18,16.42,35.27,35.27,0,0,0,12.37,11.26c5,2.78,11.09,4.08,18.14,3.92a56.68,56.68,0,0,0,25.28-6,78.86,78.86,0,0,0,15.82-10.78L457.07,326a66.51,66.51,0,0,1-6.16,4.74,27.9,27.9,0,0,1-14.65,5,17.72,17.72,0,0,1-8.23-2.33,14.83,14.83,0,0,1-5.23-5.24,22.79,22.79,0,0,1-2.74-7.29,47.39,47.39,0,0,1-.9-8.4c0-1-.05-2.14-.06-3.26a22.11,22.11,0,0,1,.13-3.28c.22-2.65.46-5.16.77-7.55a63.92,63.92,0,0,1,1.19-7,126.7,126.7,0,0,0,21.94-7.34,109.39,109.39,0,0,0,21.35-12.18,79.72,79.72,0,0,0,17-16.58,41.16,41.16,0,0,0,8.31-20.43A43.69,43.69,0,0,0,487.69,219.36Zm-8,17.17a29.77,29.77,0,0,1-7,16.49,69.47,69.47,0,0,1-14.81,13.43A93.57,93.57,0,0,1,440,276a68.87,68.87,0,0,1-16.34,4.67A71.09,71.09,0,0,1,427.28,270c1.81-4.33,3.87-8.9,6.22-13.7a161.07,161.07,0,0,1,8-14.4,134.62,134.62,0,0,1,9.17-13,55.33,55.33,0,0,1,9.36-9.43c3.14-2.41,6.06-3.63,8.72-3.65,3,0,5.52,1.87,7.64,5.68A26,26,0,0,1,479.67,236.53Z"/><path class="cls-2" d="M703.73,298.15q-6.09,9.21-13.4,19.26A114.4,114.4,0,0,1,674,335.57a79,79,0,0,1-20.42,13.2,56.84,56.84,0,0,1-25.56,4.6q-10.59-.36-17.89-4.92a35.22,35.22,0,0,1-11.73-11.93,51.32,51.32,0,0,1-6.25-16.81A93.06,93.06,0,0,1,590.51,300c0-1.72.08-3.4.12-5.05a36,36,0,0,1,.54-5.25v.2a129.9,129.9,0,0,1,4.69-22.39,146,146,0,0,1,8.61-22,127.73,127.73,0,0,1,12-19.89,93.74,93.74,0,0,1,15-16.08,64.79,64.79,0,0,1,17.34-10.59,44.7,44.7,0,0,1,18.93-3.3,33.49,33.49,0,0,1,16.47,4.81A38.65,38.65,0,0,1,696,211.61a43.66,43.66,0,0,1,6.52,15.12,47.32,47.32,0,0,1,.82,16.62c-.21,1.18-.45,2.49-.74,3.93a20.35,20.35,0,0,1-1.26,4.1,7.5,7.5,0,0,1-2.47,3.15,6.55,6.55,0,0,1-4.35,1.07,9.6,9.6,0,0,1-2-.7,7.63,7.63,0,0,1-2.12-1.69c.65-1.82,1.19-3.54,1.62-5.18a44.43,44.43,0,0,0,1-4.61,55.35,55.35,0,0,0,.2-8.23,27.11,27.11,0,0,0-1.33-7.31,15,15,0,0,0-3-5.31,6.52,6.52,0,0,0-4.65-2.2q-4.22-.19-9.56,3.53a58.43,58.43,0,0,0-10.87,10.24,139.8,139.8,0,0,0-11.13,15.21,172.83,172.83,0,0,0-10.21,18.36,193.54,193.54,0,0,0-8.2,19.83A135.2,135.2,0,0,0,628.92,307c-.17,1.05-.32,2.2-.42,3.45s-.19,2.41-.23,3.47a46.87,46.87,0,0,0,.52,8.94,24.87,24.87,0,0,0,2.42,7.52,14,14,0,0,0,4.73,5.32,14.68,14.68,0,0,0,7.7,2.17A28.43,28.43,0,0,0,659,334a65.69,65.69,0,0,0,13.8-10.51,115.45,115.45,0,0,0,12-13.82q5.53-7.47,10-13.79c0,.06,0,.13,0,.2q5.38-8.07,10.07-15.85t8.59-14.13q1.83-2.87,4.13-6.51c1.53-2.43,2.91-4.53,4.14-6.32a13.33,13.33,0,0,1,3.19-.81,4.29,4.29,0,0,1,3,1.27,10.36,10.36,0,0,1,1.82,2.79l-2.34,4.23q-4.2,7.1-10.28,17T703.73,298.15Z"/><path class="cls-2" d="M746.11,353.69c-7.73-.51-14.05-2.91-19-7.25a46.1,46.1,0,0,1-11.67-16.08,71.13,71.13,0,0,1-5.63-21,128.87,128.87,0,0,1-.75-22.07c.11-2,.21-3.93.32-5.84a29.44,29.44,0,0,1,.7-5.22q1.35-9.47,3.26-17.49a70.59,70.59,0,0,1,4.54-13.64,25,25,0,0,1,10.15-6.37,31,31,0,0,1,11.57-1.48,30.17,30.17,0,0,1,6.77,1.22,30.9,30.9,0,0,1,6.26,2.59,140.7,140.7,0,0,1,5.05-20.63,65.19,65.19,0,0,1,9.08-18.16,40.93,40.93,0,0,1,14.53-12.49q8.76-4.53,21.54-3.56,10.42.81,17.43,5.46a35.12,35.12,0,0,1,11.17,12,47.58,47.58,0,0,1,5.57,17,89.37,89.37,0,0,1,.44,20.53,97.56,97.56,0,0,1-1.62,11.2l0-.2a163.08,163.08,0,0,1-9.6,31,176,176,0,0,1-15.57,29.33,38,38,0,0,0,14.7-4.64,59.26,59.26,0,0,0,12.25-9.27,94.28,94.28,0,0,0,10.61-12.38q4.9-6.81,9.54-13.75l5.33-7.46c.72-.2,1.4-.39,2.06-.6a4.31,4.31,0,0,1,1.6-.25,3.53,3.53,0,0,1,2,1,5.8,5.8,0,0,1,1.36,3.32q-4.3,7.55-10.87,17.18a121.49,121.49,0,0,1-15,18,84.1,84.1,0,0,1-18.78,14.06,42.77,42.77,0,0,1-22.27,5.31,117.76,117.76,0,0,1-12.48,13.13A75.06,75.06,0,0,1,777,346.1a64.75,64.75,0,0,1-15,6.08A48.71,48.71,0,0,1,746.11,353.69Zm43-32.51A66.53,66.53,0,0,1,772,312.06a49.35,49.35,0,0,1-11.57-12.24,53.24,53.24,0,0,1-6.79-15,76.9,76.9,0,0,1-2.72-17.26,64.33,64.33,0,0,0-1.37,6.47q-.52,3.35-1.16,6.67-1,6.3-1.42,12.23a106.75,106.75,0,0,0,0,14.2,46.05,46.05,0,0,0,2.4,12.27,22.94,22.94,0,0,0,5.39,8.81,13.49,13.49,0,0,0,8.8,3.78,27.33,27.33,0,0,0,13.13-2.24A44.82,44.82,0,0,0,789.12,321.18Zm-14-67.42a155,155,0,0,0-.2,17.47,68.82,68.82,0,0,0,2.83,17.2A41.41,41.41,0,0,0,785,302.48a24.6,24.6,0,0,0,13.37,8.28,115.2,115.2,0,0,0,8.4-12.94q4-7.14,7.35-14.72A139.5,139.5,0,0,0,820,267.47a122.68,122.68,0,0,0,3.74-15.7,35.85,35.85,0,0,0,.86-5.2c.14-1.64.28-3.32.42-5a77.75,77.75,0,0,0-.23-16.13A42.76,42.76,0,0,0,821,212a25.48,25.48,0,0,0-7.75-9.48,22.31,22.31,0,0,0-11.93-4.23,12.62,12.62,0,0,0-8.84,2.61,26,26,0,0,0-6.9,8.34,58.32,58.32,0,0,0-4.94,12.55q-2,7.22-3.41,15.06-.68,3.52-1.2,7.86C775.65,247.57,775.37,250.6,775.14,253.76Z"/><path class="cls-2" d="M611.33,251.32a10.07,10.07,0,0,0-1.91-2.74,4.34,4.34,0,0,0-3-1.17,9.47,9.47,0,0,0-1.59.15,5,5,0,0,0-1.8.75,39.35,39.35,0,0,0-3.49,5.47q-2.17,3.9-4.82,9.2-5,9.18-11.71,20.94a235.26,235.26,0,0,1-14.4,22.31,105.67,105.67,0,0,1-16,17.79q-8.31,7.25-16.69,7.15c-4.51,0-7.64-2.25-9.37-6.61A42.24,42.24,0,0,1,524,308.48c0-1.45,0-2.93,0-4.45a32.15,32.15,0,0,1,.46-4.87c.57-5.13,1.37-10.35,2.37-15.62.11-.59.22-1.15.33-1.73,24.3-26.44,79.39-84.52,105.71-178.26,1.55-4.82,2-10.49,2.57-15.34a54.37,54.37,0,0,0-.21-9.42A30.67,30.67,0,0,0,632.65,69a22.69,22.69,0,0,0-5.54-7.67,13.17,13.17,0,0,0-8.87-3.25,32.38,32.38,0,0,0-18.11,5.11c-5.75,3.54-15.66,11.83-20.53,18-22,28-49,64.25-75,168-2.13,8.49-3.56,16.36-4.8,23.5s-2.07,13.08-2.48,17.84v-.19a33,33,0,0,0-.38,4.48A338.31,338.31,0,0,1,457.07,326l-11.56,20.09s22.67-10.6,52-35.65c.26,2.5.6,5,1.06,7.46a47.11,47.11,0,0,0,5.33,15,31.29,31.29,0,0,0,10.2,10.83c4.29,2.77,9.73,4.19,16.39,4.24a30.75,30.75,0,0,0,14.62-3.62,58.23,58.23,0,0,0,13.62-10,117.29,117.29,0,0,0,12.78-14.75q6.19-8.42,11.88-17.6t10.88-18.78q5.21-9.6,9.84-18.4h-.22Zm-73.09-13.09C567.86,137,608.32,85.62,612,80.86s6.65-7.11,8.94-7a3.08,3.08,0,0,1,2.55,1.74A13.14,13.14,0,0,1,625,79.84a26.83,26.83,0,0,1,.41,5.46,54.38,54.38,0,0,1-.34,5.45,52.33,52.33,0,0,1-1,5.7s-15.47,80.81-91.24,160.81c.22-.73.42-1.46.65-2.21C536.68,243.14,538.24,238.23,538.24,238.23Z"/><path class="cls-2" d="M419.1,309.23s-.51,9.41,4.25,16.31c4.93,7.15,15.43,11.61,33.72.49l1.46,7.32-18.67,5.74L425,338.15l-7.77-4.61-4.44-5.25.95-8.41Z"/><path class="cls-2" d="M1067.1,88.17c-34.42-53.2-108.23-15.36-86.46,4,15.59,13.88,26.42-18,59.42-.36,19.88,10.61,22.44,56.14-7.8,66.07-66.9,22-206.72-73.09-265-101.52-62.82-30.64-135-68.14-225.57-52.9-155,26.07-195.84,198.35-197.1,203.58l.11-.35c-.34,1.11-.69,2.23-1,3.32q-5.24,17.06-10.27,36.6t-10.08,40a.71.71,0,0,0,0-.2c-.74,3-1.5,6-2.26,9s-1.52,5.9-2.26,8.85q-4.5,18.07-8.77,34.77t-8.37,31.2q-.45-2.85-.93-5.7Q299,352,297.06,338.39T292.72,312q-2.37-12.78-5-23.92c-1.74-7.44-3.47-13.69-5.14-18.75a18.1,18.1,0,0,0-4.28-7,12,12,0,0,0-7.23-3.64c-5.62-.74-10.55,8.92-14.84,17.21q-5.92,11.49-12.48,25T230.55,329.1q-6.69,14.61-13.32,29.53t-12.61,29.13a13.46,13.46,0,0,0,.43-3.62,10.71,10.71,0,0,1,.07-2.79c.07-1,.17-2,.26-3.1s.21-2.17.28-3.12c.23-2,.48-4,.73-6q.3-6.36.92-12.89c.42-4.34.86-8.64,1.35-12.92.32-2.87.63-5.75,1-8.62.85-8.56,1.7-17.49,2.58-26.84s1.48-18.33,1.8-27c.42-5.31.65-10.63.68-15.93a242.61,242.61,0,0,0-1.63-34.13,144.75,144.75,0,0,0-7.26-31.52,104.91,104.91,0,0,0-14.57-27.38,85.82,85.82,0,0,0-23.44-21.41,75.26,75.26,0,0,0-25.59-9.67,104,104,0,0,0-30.15-1.31c-1.57.16-3.64.46-6.21.92s-5.48,1.13-8.74,2a123.9,123.9,0,0,0-36,14.63A130,130,0,0,0,11.42,211,106.91,106.91,0,0,0,1.08,244.12c-.43,3.11-.73,6-.88,8.6S0,257.32,0,258.64a75.88,75.88,0,0,0,4.2,22.42,58.4,58.4,0,0,0,10.64,18.58,56.34,56.34,0,0,0,16.81,13.23,61.46,61.46,0,0,0,22.54,6.43,36.5,36.5,0,0,0,5.65.12c1.94-.08,3.88-.25,5.8-.46a58.91,58.91,0,0,0,24.51-8.55,86,86,0,0,0,20.13-17.29A103.67,103.67,0,0,0,125,270.41a103,103,0,0,0,8.36-24.82,1.41,1.41,0,0,1,0,.2,33.11,33.11,0,0,0,.79-3.85,49.39,49.39,0,0,0,.63-5.64,9.28,9.28,0,0,0-1-5.08c-.78-1.39-2.26-1.82-4.49-1.35-2.92.56-4.69,1.65-5.31,3.31a17.79,17.79,0,0,0-1,5.67,4,4,0,0,1-.08,1.5,2.11,2.11,0,0,0-.13.72.68.68,0,0,1,.2,0A94.86,94.86,0,0,1,118,258.46a96.65,96.65,0,0,1-9,18.06,66.28,66.28,0,0,1-12.44,14.57,29.34,29.34,0,0,1-15.26,7.14,24.67,24.67,0,0,1-16.17-2.76,46.5,46.5,0,0,1-14.84-12.73,77.82,77.82,0,0,1-16.2-44.68,75,75,0,0,1,4.57-27.88,96.67,96.67,0,0,1,13.49-25.45,90,90,0,0,1,19.57-19.46l.22-.16a48.57,48.57,0,0,1,47.27-5.29c1,.42,2,.87,2.89,1.35a65.06,65.06,0,0,1,20.16,15.71A82.89,82.89,0,0,1,156,199.51a165.23,165.23,0,0,1,8.44,26.91,203.94,203.94,0,0,1,4.27,28.18q1.11,14.13,1,26.87a17.76,17.76,0,0,1,.05,3c0,.93-.11,1.94-.14,3,0,1.67,0,3.32,0,5a.68.68,0,0,0,.2,0c-1.77,56.91-22.4,156.74-22.81,158a3.31,3.31,0,0,0,2.06,3.68,12.81,12.81,0,0,0,5.84,1.32c1.73.09,3.71.19,5.91.25a46.08,46.08,0,0,0,5.5-.12,35.31,35.31,0,0,0,15.74-5.2,44.42,44.42,0,0,0,14.25-14.87,152.48,152.48,0,0,0,9.06-18.13c.12-.28.29-.72.52-1.35a8.7,8.7,0,0,1,.68-1.54c.22-.68.55-1.53,1-2.57s.87-1.89,1.21-2.56q5.63-13,12.15-27.6t13.43-29.5q6.93-14.94,13.89-29.49t13.22-27.29c1.59,7.33,3.1,15.07,4.58,23.25s2.85,17.06,4.14,26.66c.23,1.31.43,2.61.64,3.91q2.06,13.2,3.85,26c1.2,8.55,5.34,32.37,5.84,36.19A43.24,43.24,0,0,0,283,421.58a16.37,16.37,0,0,0,4.92,7c2.12,1.66,5,2.4,8.55,2.18a33.7,33.7,0,0,0,3.37-.39,21.58,21.58,0,0,0,3.95-1A27.42,27.42,0,0,0,315,420.7a55.42,55.42,0,0,0,7.63-12.18q4.45-11.53,9.75-28.74t10.88-37.09q5.61-19.86,11.11-40.61t10.26-39.37l4.82-17.61q3.65-13.14,7.34-26.23,2.66-9.39,6.1-21.22c1.43-4.8,3-9.67,4.66-14.57,13.1-40.4,32.45-70.63,55.36-92.86,80.91-78.43,197.66-54,258.61-29.31,82.88,33.6,226.38,112.54,306,119.74C1065.5,185.9,1090.88,124.92,1067.1,88.17Z"/><path class="cls-2" d="M795,186.22s-18.23.25-36.48,17.64c-21.14-1.11-42,26.85-49.1,68.71l39,8.17s12.22-72.59,46.26-81.23Z"/><path class="cls-2" d="M1191.06,379.84c-5.83-12.2-19.21-18.84-38.37-11.83-7.73,2.83-19.17,8.87-27.47,12.61a62.77,62.77,0,0,1-7.56,2.72,27.15,27.15,0,0,1-11.52.93,18.13,18.13,0,0,1-7.71-3.74,15.66,15.66,0,0,1-2.9-3.49,209.29,209.29,0,0,0,29.81-15c20.24-12.11,34-28.12,42-43a101.77,101.77,0,0,0,10.45-29.82,42.49,42.49,0,0,0-.13-10.26,40.66,40.66,0,0,0-4.93-14.74,38.11,38.11,0,0,0-10.45-11.78,36,36,0,0,0-15.84-6.54,45.19,45.19,0,0,0-19.24,1,64.57,64.57,0,0,0-18.54,8.35,93.27,93.27,0,0,0-16.88,14.1,129.64,129.64,0,0,0-14.41,18.25,143.71,143.71,0,0,0-11.28,20.76,131.64,131.64,0,0,0-7.44,21.63.46.46,0,0,0,0-.2,37.14,37.14,0,0,0-1.17,5.14c-.24,1.64-.48,3.31-.75,5a92.34,92.34,0,0,0-.85,19.8,52.36,52.36,0,0,0,3,14.62c-4.71.45-9.29.71-13.65.81l-1.52,0c-51.34-.34-20.34-64.34-18.58-68.58l.07-.16,0-.06q7.26-12.81,13.44-25.85a124.3,124.3,0,0,0,8.84-24.05,40.19,40.19,0,0,0,1.07-9.77,21.11,21.11,0,0,0-1.72-8.16,14.37,14.37,0,0,0-5.16-6,21.47,21.47,0,0,0-9.22-3.17,31.47,31.47,0,0,0-16.81,2.22,68.7,68.7,0,0,0-15.89,9.39,123.22,123.22,0,0,0-15,13.86q-7.27,7.89-14.14,15.62c-.84,1-1.61,1.83-2.34,2.62s-1.52,1.63-2.33,2.6q4.13-7.87,7.43-15.66a83.29,83.29,0,0,0,4.78-14.6,44.23,44.23,0,0,0,.62-9.2,21,21,0,0,0-2-8.23,15.9,15.9,0,0,0-5.45-6.26,20.81,20.81,0,0,0-9.55-3.25,31.22,31.22,0,0,0-16.34,2.39,65,65,0,0,0-15.25,9.34A126,126,0,0,0,916,243.81q-7,7.69-13.49,15.39c-2.25,2.56-4.36,5.06-6.36,7.51s-4,4.72-6.08,6.75a27.17,27.17,0,0,1,1.22-3.66c.37-.76.94-2.22,1.73-4.4q1.93-4.57,3.75-9.87A71.46,71.46,0,0,0,899.54,245a41.5,41.5,0,0,0,.7-9.8,21.45,21.45,0,0,0-2.46-9.13c-1.49-2.81-3.37-6.3-6.51-8.28s-8.36-4.93-13.18-2.64c-2.94,1.39-5.68,6.2-8.27,17.31a152.74,152.74,0,0,1-4.64,16.49q-3.31,9.45-7,19.84-4.73,12.51-9.21,26.13c-.65,2-1.27,4-1.87,6,0,0-20.09,56.74-.35,63.2,0,0,5.37,2.23,10.25.07a9.19,9.19,0,0,0,2.14-1.28c3.08-2.45,5.35-7.37,7.46-15.69,1.23-4.9,2.42-11,3.7-18.45v0q1.13-3.87,2.52-7.92a135.29,135.29,0,0,1,7.38-17.8,1.2,1.2,0,0,1-.2,0c1.34-1.73,2.71-3.45,4-5.15v.2c2.23-2.85,5-6.41,8.31-10.72s7-8.88,11-13.7,8.19-9.6,12.5-14.32,8.53-8.93,12.61-12.67a78.52,78.52,0,0,1,11.52-8.87c3.58-2.2,6.64-3.13,9.16-2.84,1.4.17,1.9,1.41,1.49,3.78-.6,2.71-2.29,6.74-5,12.08s-6,11.37-9.7,18.13c-2.66,4.88-5.48,10.13-8.4,15.71s-5.71,11.29-8.31,17.12-5,11.61-7.23,17.36a107.39,107.39,0,0,0-5,16.39,18.52,18.52,0,0,0-.54,3.05c-.12,1.11-.24,2.12-.33,3a48.46,48.46,0,0,0,.09,11.57,26.16,26.16,0,0,0,3.35,9.84,20.71,20.71,0,0,0,7.31,7.18,30.15,30.15,0,0,0,12,3.67q4.44.51,5-2a4.31,4.31,0,0,0,.26-1.47,3.4,3.4,0,0,0-.2-.9,33.46,33.46,0,0,1-2.1-10.33,44.3,44.3,0,0,1,.8-10.39,110.92,110.92,0,0,1,4.76-15.12c2.08-5.4,12-21.71,14.83-25.08s6.06-7.19,9.65-11.41q6.9-8.57,15-17.93t15.92-17.07a110.66,110.66,0,0,1,14.92-12.43q7-4.8,11.85-4.13a1.56,1.56,0,0,1,.61.19.71.71,0,0,0,.42.14c.91.53,1.12,1.64.62,3.3-.65,2.71-2.45,6.66-5.33,11.87s-6.22,11.16-9.92,17.89q-4.14,7.25-8.7,15.54c-1,1.84-2,3.69-3,5.55a.17.17,0,0,1,0,.07c-.07.11-.21.41-.42.85a4.25,4.25,0,0,0-.21.43c-3.12,6.61-15.91,36.12-7.7,59.09a38.16,38.16,0,0,0,3.25,6.84,35.33,35.33,0,0,0,7.73,9l.58.5a43.67,43.67,0,0,0,7.54,4.87,50.7,50.7,0,0,0,15.93,4.83,139.61,139.61,0,0,0,44.69-.76,36.88,36.88,0,0,0,4.74,4.69q6.69,5.46,17.17,7.12a57.41,57.41,0,0,0,26-1.41,78.9,78.9,0,0,0,12.86-5.18s33.62-18.43,48-14.47c9.85,2.7,7.76,11.75,3.82,15.13-1.7,1.46-4.17-1.67-8.25-.22-4.59,1.64-8.74,8.21-2.63,12.95C1179,413.47,1197.14,392.56,1191.06,379.84Zm-98.23-13.06a50.76,50.76,0,0,1,.62-8.43c.16-1.05.35-2.13.51-3.24a29.25,29.25,0,0,1,.72-3.2c.68-2.57,1.39-5,2.11-7.29s1.52-4.51,2.42-6.65c1.63-4.22,4.36-10.13,4.36-10.13a70,70,0,0,1,5.49-9.87c2.53-3.94,5.39-8,8.56-12.36a162.81,162.81,0,0,1,10.5-12.72,136.6,136.6,0,0,1,11.36-11.19,56,56,0,0,1,10.92-7.58c3.52-1.82,6.62-2.49,9.25-2.05,2.93.52,5.09,2.84,6.52,7a29.93,29.93,0,0,1,1.46,9s-.78,12-8.88,27c-5.64,10.52-19.22,24-34.77,36.22-9.19,7.24-19.94,12.43-31.11,16.1C1092.86,367.19,1092.84,367,1092.83,366.78Z"/><path class="cls-2" d="M74.55,218.88s2.5-22.13,25.85-24.44c26.38-2.6,42.11,22.2,32.29,54.3l-11.06-1.59s2.69-10.12.92-20.13c-2.16-12.23-18.86-12.81-22.61-1-.53,1.66-1.07,3.47-1.62,5.46C92.54,252.54,71.9,235.86,74.55,218.88Z"/><path class="cls-2" d="M941.33,325.58s-7,14.75-6.94,26.39c0,5.88,3.46,21-2.1,21.55-14.48,1.52-14.51-17.4-14.51-17.4l2.57-21.2s11.31-11.62,12.42-12.14S941.33,325.58,941.33,325.58Z"/><path class="cls-2" d="M692.7,231.06s1.62,5.57-1.79,10.07-3.23,8.25-.5,12.08,8.68-9.58,8.68-9.58l.26-9.71Z"/></g></g></svg>