<svg xmlns="http://www.w3.org/2000/svg" xmlns:xlink="http://www.w3.org/1999/xlink" viewBox="0 0 1920 851.96"><defs><style>.cls-1{fill:none;}.cls-2{fill:#fff;}.cls-3{fill:#3c5732;}.cls-4{fill:#3c5632;}.cls-5{fill:#f0c56d;}.cls-6{fill:#1d1d1b;}.cls-7{fill:#d10079;}.cls-8{fill:#9d6fad;}.cls-9{fill:#260a23;}.cls-10{fill:#683b11;}.cls-11{fill:#e8530e;}.cls-12{fill:#f9d5cd;}.cls-13{fill:#bd1622;}.cls-14{fill:#422918;}.cls-15{clip-path:url(#clip-path);}.cls-16{fill:#531b4b;}.cls-17{fill:#f7a800;}.cls-18{fill:#ef7f00;}.cls-19{fill:#f7c7c5;}</style><clipPath id="clip-path"><path class="cls-1" d="M966.8,90.7c5.81,1.08,11.83.51,16.13.81-2.18-.81-4.64-1.79-6.58-2.72a.23.23,0,0,1-.05-.38,3.9,3.9,0,0,0,1.34-1.77.7.7,0,0,0-.18-.75c-.75-.7-2.57-2.33-2.51-2.81.47-3.61-.56-25.07-.34-25.29s2.36,2,3.91,2.06c0,0-3.65-6.52-6.19-7.64-1-.43-20.12,19.71-22,21.72-.09.1-.28.18-.88.24-1.21.14-2.73-.49-1.92,1.66.08.22.14.34-.1.37a4.57,4.57,0,0,0-1.26.18c-.35.19.05,1.1-.59,1.48a8.08,8.08,0,0,1-5.78.64,41.26,41.26,0,0,1,3.58,2.15C954.26,87.93,958.26,89.13,966.8,90.7Z"/></clipPath></defs><title>Asset 4</title><g id="Layer_2" data-name="Layer 2"><g id="Layer_1-2" data-name="Layer 1"><path class="cls-2" d="M0,74V852H1920V74ZM295,822A151.84,151.84,0,0,1,143,670V256A151.85,151.85,0,0,1,295,104H1625a151.84,151.84,0,0,1,152,152V670a151.84,151.84,0,0,1-152,152Z"/><path class="cls-3" d="M1625,74H295A182,182,0,0,0,113,256V670A182,182,0,0,0,295,852H1625a182,182,0,0,0,182-182V256A182,182,0,0,0,1625,74Zm152,596a151.84,151.84,0,0,1-152,152H295A151.84,151.84,0,0,1,143,670V256A151.85,151.85,0,0,1,295,104H1625a151.84,151.84,0,0,1,152,152Z"/><circle class="cls-4" cx="960" cy="83.55" r="83.55"/><path class="cls-4" d="M940.77,116.2a32.83,32.83,0,0,1-7.69-6.7h0c-.11-.14-.22-.27-.32-.41a21.9,21.9,0,0,1-4.38-9.78c-1.1-6.23,1.35-14.09,5.43-20.11.5-.74,1-1.45,1.56-2.12a21.14,21.14,0,0,1,2.44-2.56c5.5-4.92,13.28-7,20.69-7.63a30,30,0,0,1,19.61,5.19c9.9,6.44,15.39,16.31,13.35,26.46-.8,4-4.35,9.47-7.15,12.95-4.59,5.71-11.44,10.09-18.65,11.17C957.21,123.93,948.2,121,940.77,116.2Z"/><path class="cls-5" d="M1010.61,134.78c12.12-11.28,19-29,19.69-46.79.44-10.82-.56-26.85-4.58-36.17-10.3-23.87-34.47-37.76-62.18-38.9-17.49-.72-31.67,3.47-44.35,13.6-15.26,12.19-28.65,29.28-29.52,50.33-.79,19.27,5.71,42.3,17.82,55.45s27.76,19.24,47,20C975.32,153.18,996.39,148,1010.61,134.78Zm-65.32-33.34a26.44,26.44,0,0,1-5.95-5.78h0c-.09-.11-.17-.23-.25-.35a19.92,19.92,0,0,1-3.39-8.42c-.86-5.37,1-12.12,4.17-17.3.39-.64.79-1.25,1.21-1.83a18.29,18.29,0,0,1,1.88-2.2c4.25-4.23,10.27-6,16-6.55,5.51-.49,10.33,1,15.17,4.49,7.67,5.55,11.92,14,10.35,22.78-.61,3.41-3.35,8.16-5.52,11.15-3.54,4.91-8.84,8.67-14.41,9.59C958,108.1,951.05,105.61,945.29,101.44Z"/><path class="cls-6" d="M902.88,98.67l.42,1,1.19-.46a10.28,10.28,0,0,1-2.73-2.62,4.39,4.39,0,0,1-.83-2.4,3.43,3.43,0,0,1,.68-2.05,6.21,6.21,0,0,1,1.78-1.62,9.74,9.74,0,0,1,2.47-1.09,11.29,11.29,0,0,1,2.72-.49,9.27,9.27,0,0,1,2.6.23,4.62,4.62,0,0,1,2.07,1.05,3.66,3.66,0,0,1,1.11,1.95,5.69,5.69,0,0,1-.26,3l4-1.43-.64-1.31.78-.23,2.22,5.74-.7.2-.48-1.31-14.81,6.06.47.9-.69.33-2-5Zm.29-1.81a1,1,0,0,0,.23.61,3.22,3.22,0,0,0,.63.65,2.8,2.8,0,0,0,.79.44,1,1,0,0,0,.76,0l7.27-2.92a3,3,0,0,0,.76-1.68,1.35,1.35,0,0,0-.51-1.1,2.88,2.88,0,0,0-1.42-.53,7.81,7.81,0,0,0-2,0,10.65,10.65,0,0,0-2.2.49,9.43,9.43,0,0,0-2.06.93,5.93,5.93,0,0,0-1.56,1.36A3,3,0,0,0,903.17,96.86Z"/><path class="cls-6" d="M907.31,108.91a4.11,4.11,0,0,1-.07-2.08,4.9,4.9,0,0,1,.84-1.81,6.73,6.73,0,0,1,1.52-1.49,10.19,10.19,0,0,1,2-1.14,11.15,11.15,0,0,1,2.23-.71,10.3,10.3,0,0,1,2.23-.25,7.92,7.92,0,0,1,2,.26,4,4,0,0,1,1.61.83,10.05,10.05,0,0,1,2.36,3.57,6.21,6.21,0,0,1,.32,3.19,5.4,5.4,0,0,1-1.27,2.59,7.47,7.47,0,0,1-2.4,1.79,8.48,8.48,0,0,1-3,.79,7.94,7.94,0,0,1-6.16-2.17A8.8,8.8,0,0,1,907.31,108.91ZM919,103.49a4.62,4.62,0,0,0-1.74.21,11.33,11.33,0,0,0-2,.82,15.65,15.65,0,0,0-2,1.27,16,16,0,0,0-1.79,1.56,11.36,11.36,0,0,0-1.35,1.69,4.78,4.78,0,0,0-.7,1.67,3.38,3.38,0,0,0,1.61,1.2,4.51,4.51,0,0,0,2,.2,6.38,6.38,0,0,0,2.07-.6,10.14,10.14,0,0,0,2-1.21,9.75,9.75,0,0,0,1.6-1.61,6.42,6.42,0,0,0,1-1.81,3.9,3.9,0,0,0,.2-1.8A2.7,2.7,0,0,0,919,103.49Z"/><path class="cls-6" d="M924.05,108.88,928.1,112l-.69.87-.55-.44-1.57,2A9.5,9.5,0,0,1,927,114a8.14,8.14,0,0,1,1.91-.11,6.05,6.05,0,0,1,1.78.35,2.81,2.81,0,0,1,1.31.94,3,3,0,0,1,.55,1.66,5.91,5.91,0,0,1-.5,2.48,18.33,18.33,0,0,1-1.9,3.43,44,44,0,0,1-3.59,4.54l.85.64-.69.87-4.11-3.14.69-.87.45.36c.45-.45.93-1,1.43-1.57s1-1.22,1.49-1.87.95-1.31,1.39-2,.81-1.29,1.13-1.87a11.32,11.32,0,0,0,.73-1.6,2.49,2.49,0,0,0,.19-1.12,5.87,5.87,0,0,0-2.94-.18,7.17,7.17,0,0,0-2.6,1.19,14.84,14.84,0,0,0-2.49,2.34c-.83,1-1.7,2-2.61,3.25l.67.5-.68.87-4.18-3.22L916,119l.65.52,7.72-9-1-.8Z"/><path class="cls-6" d="M942.56,120.59l4.59,1.88-.42,1-.68-.26-4.54,10.87.7.3-.36.86a12.35,12.35,0,0,1-1.61-.63,2.21,2.21,0,0,1-.85-.65,1.21,1.21,0,0,1-.21-.84,4.23,4.23,0,0,1,.28-1.17c.16-.46.37-1,.62-1.64s.53-1.37.81-2.23a10.58,10.58,0,0,1-1,1.45,12.46,12.46,0,0,1-1.23,1.36,7.81,7.81,0,0,1-1.28,1,2.72,2.72,0,0,1-1.15.45,5.48,5.48,0,0,1-2.64-.47,2.76,2.76,0,0,1-1.33-1.43,4.66,4.66,0,0,1-.23-2.2,13.57,13.57,0,0,1,.61-2.79,29.51,29.51,0,0,1,1.23-3.19c.5-1.12,1-2.26,1.61-3.41l-1-.43.43-1,5.14,2.1-.43,1-.69-.27c-.26.61-.56,1.28-.9,2s-.68,1.43-1,2.15-.63,1.43-.88,2.13a8.76,8.76,0,0,0-.49,1.94,3.23,3.23,0,0,0,.16,1.58,2,2,0,0,0,1.08,1c.17,0,.44-.19.8-.55a16.11,16.11,0,0,0,1.24-1.4c.46-.58.93-1.21,1.42-1.9s.95-1.38,1.37-2,.79-1.27,1.1-1.82a7.83,7.83,0,0,0,.59-1.25l-1.26-.53Z"/><path class="cls-6" d="M954.42,135.33a8.93,8.93,0,0,1-4.06,1.47,2.38,2.38,0,0,1-2.25-1.27,7.63,7.63,0,0,1-.7-3.73,37.93,37.93,0,0,1,.59-5.86l-2.49-.39.17-1.09,2.49.39,1-5.18-.93-.17.17-.75,5.23.83-.16.75-.76-.12-1,5.21,2.2.35-.17,1.09-2.18-.34q-.18,1.31-.39,2.58c-.13.85-.22,1.64-.27,2.36a10,10,0,0,0,0,1.91,2,2,0,0,0,.5,1.22,1.34,1.34,0,0,0,1.16.31,5.75,5.75,0,0,0,2-.81l.12-1,.8.13-.41,2.86-.8-.13Z"/><path class="cls-6" d="M971.26,135.13l.88-.2-7.54-10.08-.86.2L963.5,124l5.32-1.26.24,1.08-.95.24,5.75,8.85,0-10.23-1.44.38-.25-1.08,3.86-1,.24,1.08-1.38.38.13,11.88,1.18-.27.25,1.07-4.92,1.09Z"/><path class="cls-6" d="M976.85,119.71a1.2,1.2,0,0,1-.59-.25,2.05,2.05,0,0,1-.53-.53,2.31,2.31,0,0,1-.31-.72,1.67,1.67,0,0,1,0-.8,1.75,1.75,0,0,1,.45-.75,2.78,2.78,0,0,1,1-.61,1.9,1.9,0,0,1,1.5.51,1.67,1.67,0,0,1,.47,1.21,2,2,0,0,1-.54,1.27A2.07,2.07,0,0,1,976.85,119.71Zm-.9,1.41,3.76-1.62,5,11.5,1.06-.57.39.85-4.91,2.16-.3-.86,1.21-.48-4.56-10.6-1.31.56Z"/><path class="cls-6" d="M986.62,129.76l1.22-.71-7.76-13.39-.8.42-.55-1,3.64-2.08,8.17,14.45.83-.48.55,1-4.75,2.74Z"/><path class="cls-6" d="M992.44,126.32l1.13-.84-9.23-12.41-.75.5-.66-.89,3.38-2.48,9.77,13.42.77-.57.66.89-4.41,3.27Z"/><path class="cls-6" d="M1004.92,115.78l.7-.78-1.72-1.56c0,.42,0,.91-.1,1.47s-.16,1.14-.28,1.75a14,14,0,0,1-.48,1.8,7.94,7.94,0,0,1-.73,1.61,4.47,4.47,0,0,1-1,1.2,2.41,2.41,0,0,1-1.34.57,2.78,2.78,0,0,1-1.67-.26,2.55,2.55,0,0,1-1-1.06,4.76,4.76,0,0,1-.52-1.66,9.61,9.61,0,0,1-.06-2,14.12,14.12,0,0,1,.31-2.18,18.74,18.74,0,0,1,.6-2.12,15.12,15.12,0,0,1,.8-1.85,6.5,6.5,0,0,1,.93-1.34,4.75,4.75,0,0,0-1.47-1.21,2.52,2.52,0,0,0-1.54-.31,2,2,0,0,0-1.28.81,4.24,4.24,0,0,0-.73,2.11s.1.09.32.11a4.4,4.4,0,0,1,.76.15,3.75,3.75,0,0,1,.88.35,1.47,1.47,0,0,1,.67.68,2,2,0,0,1,.14,1.15,5,5,0,0,1-.72,1.77,2,2,0,0,1-1.21.74,1.57,1.57,0,0,1-1.16-.24,2.3,2.3,0,0,1-.82-1.12,4.08,4.08,0,0,1-.22-1.88,9.24,9.24,0,0,1,.67-2.54,13.75,13.75,0,0,1,1.83-3,5,5,0,0,1,1.87-1.67,2.82,2.82,0,0,1,1.83-.14,5.16,5.16,0,0,1,1.9,1q1,.74,2.07,1.74c.74.66,1.54,1.36,2.4,2.09a23.89,23.89,0,0,0,2.84,2.08l.67-.78.55.55-4,4.6Zm-4.39,1.81c.33-.07.61-.13.84-.2a1.93,1.93,0,0,0,.58-.26,1.33,1.33,0,0,0,.41-.44,3.26,3.26,0,0,0,.28-.78c.08-.34.16-.76.23-1.27s.15-1.13.25-1.89L1000,110a11.75,11.75,0,0,0-1,1.35,9.12,9.12,0,0,0-.77,1.57,6.91,6.91,0,0,0-.42,1.62A3.13,3.13,0,0,0,998,116a2.2,2.2,0,0,0,.84,1.08A3.37,3.37,0,0,0,1000.53,117.59Z"/><path class="cls-6" d="M1021.83,109.87a4.58,4.58,0,0,1-2,.85,3.23,3.23,0,0,1-1.63-.2,3.28,3.28,0,0,1-1.24-1,4.86,4.86,0,0,1-.82-1.44,5.83,5.83,0,0,1-.33-1.67,4.2,4.2,0,0,1,.22-1.6,3.2,3.2,0,0,1,.82-1.28,2.71,2.71,0,0,1,1.48-.67,1.19,1.19,0,0,1,.79.33,1,1,0,0,1,.26.64,1.73,1.73,0,0,1-.11.73,2.18,2.18,0,0,1-.35.62,1.14,1.14,0,0,1-.42.34.27.27,0,0,1-.35-.15,2,2,0,0,0,.42-.88.67.67,0,0,0-.14-.53.5.5,0,0,0-.47-.14,1.09,1.09,0,0,0-.58.33,2.09,2.09,0,0,0-.45.84,3.8,3.8,0,0,0-.09,1.4,2.1,2.1,0,0,0,1.13.94,2.65,2.65,0,0,0,1.37.07,3.4,3.4,0,0,0,1.33-.58,3.81,3.81,0,0,0,1-1,2.61,2.61,0,0,0,.45-1.31,2.19,2.19,0,0,0-.38-1.37,4,4,0,0,0-1.49-1.23,10.13,10.13,0,0,0-2.88-.89,2.84,2.84,0,0,0-1.51.13,2.77,2.77,0,0,0-1.06.75,3.36,3.36,0,0,0-.66,1.15,7.05,7.05,0,0,0-.35,1.33,7.18,7.18,0,0,0-.12,1.28,9.42,9.42,0,0,0,0,1l-.64,0a1.19,1.19,0,0,1-.07-.42c0-.19,0-.4,0-.61s0-.42,0-.62a2,2,0,0,0,0-.42l-.53-.27a5.75,5.75,0,0,1-1.63,2.17,4.09,4.09,0,0,1-2,.87,4.41,4.41,0,0,1-2.14-.24,7.08,7.08,0,0,1-2.05-1.15,9.11,9.11,0,0,1-1.72-1.83,8.44,8.44,0,0,1-1.17-2.32,8.18,8.18,0,0,1-.4-2.61,6.77,6.77,0,0,1,.6-2.68,16.91,16.91,0,0,1-1.62-1.56,6.46,6.46,0,0,1-1.22-1.88,2.27,2.27,0,0,1-.21-1.08,2.16,2.16,0,0,1,.28-1,1.52,1.52,0,0,1,.72-.65,1.78,1.78,0,0,1,1.13-.06,1.6,1.6,0,0,1,.9.6,1.63,1.63,0,0,1,.3.86,1.56,1.56,0,0,1-.18.81.74.74,0,0,1-.52.43.91.91,0,0,1-.75-.25,3.74,3.74,0,0,1-.88-1.27.55.55,0,0,0-.22.52,2.61,2.61,0,0,0,.21.86,7.54,7.54,0,0,0,.53,1,6.6,6.6,0,0,0,.69.93,4.06,4.06,0,0,0,.71.64.77.77,0,0,0,.59.16,4.31,4.31,0,0,1,1.83-1,5.13,5.13,0,0,1,2-.12,7.27,7.27,0,0,1,2.05.61,10,10,0,0,1,1.9,1.17,9.72,9.72,0,0,1,1.56,1.58,7.36,7.36,0,0,1,1.07,1.81,5.27,5.27,0,0,1,.39,1.88,3.35,3.35,0,0,1-.46,1.77s0,0,.07,0l.18,0,.18,0,.11,0a6.21,6.21,0,0,1,1.21-2.89,4.36,4.36,0,0,1,2-1.41,4.73,4.73,0,0,1,2.37-.13,6.4,6.4,0,0,1,2.31.92,6.91,6.91,0,0,1,1.86,1.76,5.34,5.34,0,0,1,1,2.39,5.86,5.86,0,0,1-.28,2.8A8,8,0,0,1,1021.83,109.87Zm-11.44-7.38,1.23.69a1.63,1.63,0,0,0-.15-1.36,5.51,5.51,0,0,0-1.11-1.45,12.32,12.32,0,0,0-1.72-1.37,17.14,17.14,0,0,0-2-1.13,11,11,0,0,0-1.88-.73,3.58,3.58,0,0,0-1.42-.18c-.33.06-.51.21-.56.45a1.47,1.47,0,0,0,.18.9,6.23,6.23,0,0,0,.76,1.18,15.52,15.52,0,0,0,1.2,1.28,14.94,14.94,0,0,0,1.48,1.24,11.27,11.27,0,0,0,1.6,1,7.58,7.58,0,0,0,1.59.59,2.76,2.76,0,0,0,1.4,0l-1.21-.81Z"/><path class="cls-6" d="M1018.67,84.49l-.76-.12a14.56,14.56,0,0,1,.54,2.42,11.23,11.23,0,0,1,.06,2.38,7.93,7.93,0,0,1-.49,2.19,5.08,5.08,0,0,1-1.17,1.82,5.25,5.25,0,0,1-2.21,1.28,6.2,6.2,0,0,1-2.42.18,7.53,7.53,0,0,1-2.4-.72,9.93,9.93,0,0,1-2.15-1.43,9.13,9.13,0,0,1-1.66-2,7.1,7.1,0,0,1-1-2.26,9.75,9.75,0,0,1,.42-3.41,4,4,0,0,1,3.45-2.88,10,10,0,0,1,2.72,0l-.76,7.7a3.63,3.63,0,0,0,1,.34,9.74,9.74,0,0,0,1.29.19c.45,0,.91.06,1.38.07s.89,0,1.27,0a7.76,7.76,0,0,0,.92-.12c.25,0,.37-.12.37-.2a5.75,5.75,0,0,0,.24-1.4,9.68,9.68,0,0,0-.06-1.61,9.44,9.44,0,0,0-.32-1.6,7.17,7.17,0,0,0-.53-1.35l-1-.16.26-1.08,3.22.65Zm-12.2,3.74s.09.08.26.15.37.16.61.25.5.2.79.3.56.19.81.28l.65.21.32.09.41-4.15-3.38,0a.58.58,0,0,0-.58.43,2.7,2.7,0,0,0-.19,1,4.37,4.37,0,0,0,.08,1C1006.32,88,1006.39,88.2,1006.47,88.23Z"/><path class="cls-6" d="M923.61,42.52l4-3.9,1,1-.92.91,8,13.78-.75.83L923.83,50.8,929,60.61l-.65.62-15-6.62-.79.75-1-1L916.11,50l1,1-.88.88,8.57,2.91-3.26-5.49.81-.84L930.38,52l-5.17-9.08-.64.6Z"/><path class="cls-6" d="M933.6,35.1a1.55,1.55,0,0,1-.76-.3,2.79,2.79,0,0,1-.68-.65,2.68,2.68,0,0,1-.43-.9,2,2,0,0,1,0-1,2.15,2.15,0,0,1,.51-1,3.25,3.25,0,0,1,1.25-.8,2.32,2.32,0,0,1,1.89.58,2.14,2.14,0,0,1,.65,1.5,2.51,2.51,0,0,1-.59,1.62A2.6,2.6,0,0,1,933.6,35.1Zm-1,1.8,4.57-2.19L944,49l1.27-.76.54,1.05-6,2.92-.43-1.07,1.48-.65-6.3-13.17-1.59.77Z"/><path class="cls-6" d="M956.67,43.81a11,11,0,0,1-4,3.61,2.94,2.94,0,0,1-3.18-.46A9.66,9.66,0,0,1,947,42.91a49.6,49.6,0,0,1-2-7.16l-3,.69-.31-1.36,3-.69-1.21-6.57-1.14.23-.16-1,6.4-1.44.16,1-.93.2,1.27,6.6,2.68-.61.3,1.36-2.65.6q.39,1.62.75,3.21c.24,1.07.5,2,.77,2.91a14.25,14.25,0,0,0,.91,2.23,2.56,2.56,0,0,0,1.14,1.2,1.64,1.64,0,0,0,1.48-.17,6.66,6.66,0,0,0,1.92-1.87L956,41l1-.22.85,3.54-1,.22Z"/><path class="cls-6" d="M970.68,43.91a11.22,11.22,0,0,1-2.35,1.67,9.35,9.35,0,0,1-2.56.91,7.44,7.44,0,0,1-2.62,0,7,7,0,0,1-2.54-1,5.26,5.26,0,0,1-1.93-2.31,7.69,7.69,0,0,1-.63-3,11.15,11.15,0,0,1,.49-3.33,13.65,13.65,0,0,1,1.4-3.17,11,11,0,0,1,2.14-2.59,7.15,7.15,0,0,1,2.69-1.56,5.8,5.8,0,0,1,3.07-.08,7.25,7.25,0,0,1,3.24,1.83l.13-1.45,1,.09-.43,5-1-.09.11-1.23a4.84,4.84,0,0,0-.68-1.06,3.71,3.71,0,0,0-1-.9,4.13,4.13,0,0,0-1.38-.5,4.27,4.27,0,0,0-1.69.08,8.58,8.58,0,0,0-.9,1.66,19.8,19.8,0,0,0-.87,2.48,28,28,0,0,0-.62,2.87,16.58,16.58,0,0,0-.22,2.82,7.75,7.75,0,0,0,.37,2.37A2.56,2.56,0,0,0,965,44.93a1.71,1.71,0,0,0,.68,0,6.8,6.8,0,0,0,1.4-.31,10.72,10.72,0,0,0,1.82-.74,8.32,8.32,0,0,0,1.91-1.36l.12-1.41,1,.06L971.59,45l-1-.09Z"/><path class="cls-6" d="M980.7,49.88l.58.24c.14-.29.37-.76.67-1.42s.62-1.42.95-2.27.68-1.77,1-2.73.62-1.9.85-2.81a17.15,17.15,0,0,0,.44-2.52,4.05,4.05,0,0,0-.18-1.86,1.27,1.27,0,0,0-1-.8,3.94,3.94,0,0,0-2.14.62l-5.16,11.83,1.24.45-.4,1.34-6.93-2.87.54-1.34.86.42L980.09,28l-1.49-.63L979,26.2l7.36,3.15L986,30.53l-1.61-.68L982.5,35a8.61,8.61,0,0,1,3.17-.4,3.54,3.54,0,0,1,2,.79,3.37,3.37,0,0,1,1,1.73,7.78,7.78,0,0,1,.24,2.44,16.19,16.19,0,0,1-.41,2.94,31.5,31.5,0,0,1-.88,3.17c-.35,1.07-.74,2.14-1.18,3.2s-.86,2-1.3,3l1,.34-.41,1.1-5.6-2.3Z"/><path class="cls-6" d="M993.88,43.89a12.43,12.43,0,0,0,1.58-.43,6.76,6.76,0,0,0,1.51-.72,2.62,2.62,0,0,1-1.49-.42.77.77,0,0,1-.31-.75,1.47,1.47,0,0,1,.51-.8,3,3,0,0,1,1-.58,1.88,1.88,0,0,1,1.1,0,1.52,1.52,0,0,1,.9.82,1.19,1.19,0,0,1,0,1.1,2.91,2.91,0,0,1-.8,1,6,6,0,0,1-1.24.76,6.54,6.54,0,0,1-1.31.47,2.7,2.7,0,0,1-1,.05C994,44.29,993.85,44.14,993.88,43.89Z"/><path class="cls-6" d="M991.89,52.92l.7.79-.94.84a5.29,5.29,0,0,0,0,1.81,7.35,7.35,0,0,0,.62,1.89,5.88,5.88,0,0,0,1.14,1.61,3.54,3.54,0,0,0,1.62,1,3.84,3.84,0,0,0,2,0,6.69,6.69,0,0,0,2.44-1.4,3.3,3.3,0,0,0,1.05-1.82,3.2,3.2,0,0,0-.22-1.73,6.35,6.35,0,0,0-1-1.62c-.44-.52-.86-1-1.28-1.48s-.77-.91-1.06-1.32a1.48,1.48,0,0,1-.33-1.14,4.57,4.57,0,0,1,.78-2.56,4.24,4.24,0,0,1,1.85-1.51,4.77,4.77,0,0,1,2.42-.35,5.31,5.31,0,0,1,2.5,1,7.51,7.51,0,0,1,2.1,2.44,10.7,10.7,0,0,1,1.22,4l.67-.45.67.71-2,1.93-.73-.94.54-.56a2.11,2.11,0,0,0-.08-.76,8,8,0,0,0-.35-1.15c-.16-.42-.36-.86-.58-1.32a14.3,14.3,0,0,0-.7-1.25,5.92,5.92,0,0,0-.74-1,1.4,1.4,0,0,0-.71-.45,4.75,4.75,0,0,0-1.64.63,7.18,7.18,0,0,0-1.52,1.16,4.54,4.54,0,0,0-.91,1.32.94.94,0,0,0,.16,1.1,14,14,0,0,1,3.47,3.84,6.69,6.69,0,0,1,1,3.35,4.26,4.26,0,0,1-.9,2.62,5.14,5.14,0,0,1-2.23,1.64,6.88,6.88,0,0,1-6.11-.67,9.11,9.11,0,0,1-2.7-2.78,12.61,12.61,0,0,1-1.7-4.75l-.67.67-.7-.79Z"/><rect class="cls-7" x="987.78" y="68.15" width="8.72" height="2.51" transform="translate(60.73 -279.35) rotate(16.53)"/><rect class="cls-7" x="947.93" y="17.52" width="8.26" height="2.37" transform="translate(15.8 -155.03) rotate(9.39)"/><rect class="cls-7" x="912.97" y="76.69" width="9.37" height="2.69" transform="translate(1662.1 -464.17) rotate(139.07)"/><rect class="cls-8" x="896.07" y="62.3" width="8.59" height="2.47" transform="matrix(0.66, 0.76, -0.76, 0.66, 358.52, -658.34)"/><rect class="cls-8" x="954.05" y="141.47" width="9" height="2.58" transform="translate(1776.29 -377.34) rotate(139.07)"/><rect class="cls-8" x="1014.88" y="72.31" width="8.96" height="2.57" transform="translate(1298.04 -909.69) rotate(101.69)"/><path class="cls-9" d="M989.21,92.66a9.48,9.48,0,0,0-4.86-1.23c-4.42-.26-10.59.38-16.57-.66C959,89.23,954.88,88,943.61,80.68a40.1,40.1,0,0,0-3.7-2.17,20.12,20.12,0,0,1-5.51-2h0c-4.9-.85-6.18,2-6.18,2C921,89.42,952.75,95.22,956.52,96.64s24.46,6.64,28.46,5C989.68,99.81,992.7,95.13,989.21,92.66Z"/><path class="cls-10" d="M940.64,93.75c-.52.82.54,2.4.54,2.4s1.89.27,2.41-.55-.55-2.4-.55-2.4S941.15,92.93,940.64,93.75Z"/><path class="cls-10" d="M939.39,95.87c-.55.59.06,2.06.06,2.06s1.51.52,2.06-.07-.06-2.06-.06-2.06S939.94,95.28,939.39,95.87Z"/><path class="cls-10" d="M938.13,97.12c-.56.33-.42,1.63-.42,1.63s1,.75,1.62.42.43-1.63.43-1.63S938.7,96.79,938.13,97.12Z"/><path class="cls-10" d="M936.2,98.34a12,12,0,0,1-1.27.12,5.7,5.7,0,0,1,1.15,2.13c.1,1.14-.41,1,1.16-.4.43-.39.41-1.44.41-1.44A2.65,2.65,0,0,0,936.2,98.34Z"/><path class="cls-11" d="M938.91,99.28a9.75,9.75,0,0,0-1.2-.56,11.29,11.29,0,0,0,0-1.47.11.11,0,0,0-.2-.07,1.44,1.44,0,0,1-.45.32c-.36.18-1,.2-.41.65.23.19.94.62.94.62a4.7,4.7,0,0,0,0,1c.23,1,.39.44.81.14a4.19,4.19,0,0,1,.55-.31C939,99.52,939.07,99.4,938.91,99.28Z"/><path class="cls-10" d="M975.36,100.88c.19.94-1.37,2.05-1.37,2.05s-1.86-.42-2-1.37,1.36-2,1.36-2S975.17,99.93,975.36,100.88Z"/><path class="cls-10" d="M975.77,103.3c.31.75-.78,1.9-.78,1.9s-1.6,0-1.9-.79.79-1.9.79-1.9S975.47,102.56,975.77,103.3Z"/><path class="cls-10" d="M976.51,104.92c.41.51-.18,1.67-.18,1.67s-1.26.33-1.67-.19.18-1.66.18-1.66S976.09,104.41,976.51,104.92Z"/><path class="cls-10" d="M977.88,106.74a11.45,11.45,0,0,0,1.14.57,5.6,5.6,0,0,0-1.83,1.58c-.49,1,0,1.1-.94-.78a2.39,2.39,0,0,1,.13-1.5A2.62,2.62,0,0,1,977.88,106.74Z"/><path class="cls-11" d="M975,106.66a10.28,10.28,0,0,1,1.32-.1,10.65,10.65,0,0,1,.52-1.38.11.11,0,0,1,.2,0,1.44,1.44,0,0,0,.31.46c.27.29.85.53.16.75-.29.1-1.11.25-1.11.25a4.19,4.19,0,0,1-.33.92c-.55.81-.51.27-.8-.15a4.38,4.38,0,0,0-.4-.49C974.81,106.84,974.82,106.72,975,106.66Z"/><path class="cls-12" d="M974.68,96.36c-.38,1.5-.44,1.69-.9,3.27,0,.05,0,.1,0,.16-.44,1.51-.61,2.42-.92,3.65h0l-.35.25A20.05,20.05,0,0,1,964,107c-5.37.8-12.1-1.16-17.25-4.37-.63-.39-1.23-.8-1.81-1.23a19,19,0,0,1-2.18-1.9c0-.74-.09-1.52-.14-2.34s-.24-2.74-.29-4a.76.76,0,0,1,0-.15,20.06,20.06,0,0,1,.12-3.77c.33-2.46.3-3.26,1.22-4.9,2.38-4.21,7.48-7.82,15.52-6.32,9.69,1.82,15.09,3,16.25,10.67A17,17,0,0,1,974.68,96.36Z"/><path class="cls-10" d="M976,87.63c-1.29-4.83-5.66-8.19-9-8.71l-12.13-1.86c-3.36-.52-8.59,2-11.26,6.12-1.73,2.7-2.64,9.43-2.2,9.93s12.48-2.38,21.41.18a.79.79,0,0,0,1-.53,61.86,61.86,0,0,0,2-7.85,88.7,88.7,0,0,1-.22,9.32c3.18,1.28,8.47,6,9.28,5.83S977,91.17,976,87.63Z"/><path class="cls-13" d="M957.69,100.36a.84.84,0,0,1-.27-.06.05.05,0,0,1,0-.08.07.07,0,0,1,.08,0,1.66,1.66,0,0,0,1.93-.63.07.07,0,0,1,.1,0,.09.09,0,0,1,0,.1A1.7,1.7,0,0,1,957.69,100.36Z"/><path class="cls-14" d="M957.62,98a.07.07,0,0,1-.06,0s-.14-.33,0-.53a.51.51,0,0,1,.5-.12.53.53,0,0,1,.44.27.64.64,0,0,1,0,.51.08.08,0,0,1-.1,0,.07.07,0,0,1,0-.09.53.53,0,0,0,0-.38.42.42,0,0,0-.34-.19c-.13,0-.3,0-.37.07s0,.38,0,.39,0,.07,0,.09Z"/><path class="cls-14" d="M954.48,95l-1.66-1a.07.07,0,0,0-.07.13l.71.44c-.45,0-.86.54-1,1.21a1.8,1.8,0,0,0,.12,1,1.75,1.75,0,0,1-.47-.09.06.06,0,0,0-.07,0,.05.05,0,0,0,0,.07,1.59,1.59,0,0,0,.3.07l.26,0a.77.77,0,0,0,.54.4c.5.08,1-.46,1.12-1.2a1.75,1.75,0,0,0-.16-1.07l.24.15h0a.09.09,0,0,0,.08,0A.07.07,0,0,0,954.48,95Z"/><path class="cls-14" d="M962.17,96.16l1.88-.46a.07.07,0,1,1,0,.14l-.82.21a1.3,1.3,0,0,1,.56,1.44,1.71,1.71,0,0,1-.4.89,1.66,1.66,0,0,0,.47.06.06.06,0,0,1,.06.06s0,0-.06.06a2,2,0,0,1-.31,0l-.25,0a.78.78,0,0,1-.63.22c-.5-.08-.82-.75-.7-1.49a1.68,1.68,0,0,1,.47-1l-.28.07h0s0,0-.06-.06A.08.08,0,0,1,962.17,96.16Z"/><g class="cls-15"><path class="cls-16" d="M966.8,90.7c5.81,1.08,11.83.51,16.13.81-2.18-.81-4.64-1.79-6.58-2.72a.23.23,0,0,1-.05-.38,3.9,3.9,0,0,0,1.34-1.77.7.7,0,0,0-.18-.75c-.75-.7-2.57-2.33-2.51-2.81.47-3.61-.56-25.07-.34-25.29s2.36,2,3.91,2.06c0,0-3.65-6.52-6.19-7.64-1-.43-20.12,19.71-22,21.72-.09.1-.28.18-.88.24-1.21.14-2.73-.49-1.92,1.66.08.22.14.34-.1.37a4.57,4.57,0,0,0-1.26.18c-.35.19.05,1.1-.59,1.48a8.08,8.08,0,0,1-5.78.64,41.26,41.26,0,0,1,3.58,2.15C954.26,87.93,958.26,89.13,966.8,90.7Z"/><path class="cls-5" d="M971,53.64a3.59,3.59,0,0,0-2.28-1.3,5,5,0,0,0-1.89,0,3.53,3.53,0,0,0-2.39,2.95,3.24,3.24,0,0,0,.42,2.36,3.63,3.63,0,0,0,2.4,1.83,4.21,4.21,0,0,0,3-.56,3.33,3.33,0,0,0,1.33-2.3A4,4,0,0,0,971,53.64Zm-2.13,3.15a1.11,1.11,0,0,1-.8.4,1.46,1.46,0,0,1-1-.39,1.24,1.24,0,0,1-.34-1,1.14,1.14,0,0,1,.33-.75,1.2,1.2,0,0,1,1.23-.39,1.67,1.67,0,0,1,.54.35,1.21,1.21,0,0,1,.4.81A1.35,1.35,0,0,1,968.89,56.79Z"/><path class="cls-5" d="M976.41,62.89a3,3,0,0,0-1.91-1.09,4.41,4.41,0,0,0-1.58,0,2.94,2.94,0,0,0-2,2.47,2.68,2.68,0,0,0,.35,2,3,3,0,0,0,2,1.53,3.56,3.56,0,0,0,2.48-.47,2.74,2.74,0,0,0,1.1-1.92A3.35,3.35,0,0,0,976.41,62.89Zm-1.78,2.63a.93.93,0,0,1-.67.34,1.24,1.24,0,0,1-.8-.33,1.07,1.07,0,0,1-.28-.82,1,1,0,0,1,.27-.62,1,1,0,0,1,1-.33,1.42,1.42,0,0,1,.45.3,1,1,0,0,1,.33.66A1.14,1.14,0,0,1,974.63,65.52Z"/><path class="cls-5" d="M959.7,64a3.15,3.15,0,0,0-2.07-1.18,4.47,4.47,0,0,0-1.71,0,3.23,3.23,0,0,0-2.17,2.68,3,3,0,0,0,.39,2.15,3.29,3.29,0,0,0,2.18,1.66,3.84,3.84,0,0,0,2.68-.52,3,3,0,0,0,1.2-2.07A3.63,3.63,0,0,0,959.7,64Zm-1.92,2.86a1,1,0,0,1-.73.36,1.35,1.35,0,0,1-.87-.36,1.15,1.15,0,0,1-.3-.88,1,1,0,0,1,.29-.68,1.1,1.1,0,0,1,1.12-.36,1.43,1.43,0,0,1,.49.32,1.1,1.1,0,0,1,.37.73A1.26,1.26,0,0,1,957.78,66.84Z"/><path class="cls-5" d="M965.09,72.72a2.31,2.31,0,0,0-1.5-.86,3.28,3.28,0,0,0-1.25,0,2.32,2.32,0,0,0-1.57,1.94,2.14,2.14,0,0,0,.28,1.56,2.4,2.4,0,0,0,1.58,1.21,2.77,2.77,0,0,0,2-.38,2.18,2.18,0,0,0,.88-1.51A2.67,2.67,0,0,0,965.09,72.72Zm-1.4,2.08a.75.75,0,0,1-.53.26.93.93,0,0,1-.62-.26.85.85,0,0,1-.23-.64.76.76,0,0,1,.22-.5.79.79,0,0,1,.81-.25,1,1,0,0,1,.36.23.79.79,0,0,1,.26.53A.9.9,0,0,1,963.69,74.8Z"/><path class="cls-5" d="M977.76,77.74a3.3,3.3,0,0,0-2.13-1.22,4.53,4.53,0,0,0-1.76,0,3.3,3.3,0,0,0-2.23,2.75,3,3,0,0,0,.4,2.21,3.4,3.4,0,0,0,2.24,1.71,4,4,0,0,0,2.76-.53,3.12,3.12,0,0,0,1.24-2.14A3.76,3.76,0,0,0,977.76,77.74Zm-2,2.93a1,1,0,0,1-.75.38,1.34,1.34,0,0,1-.89-.37,1.18,1.18,0,0,1-.31-.91,1,1,0,0,1,.3-.7,1.1,1.1,0,0,1,1.15-.36,1.49,1.49,0,0,1,.51.33,1.1,1.1,0,0,1,.37.74A1.26,1.26,0,0,1,975.78,80.67Z"/><path class="cls-5" d="M967.87,83.58a3.51,3.51,0,0,0-2.28-1.31,5,5,0,0,0-1.89,0,3.55,3.55,0,0,0-2.39,3,3.27,3.27,0,0,0,.43,2.37,3.64,3.64,0,0,0,2.4,1.83,4.28,4.28,0,0,0,3-.57,3.3,3.3,0,0,0,1.32-2.29A4,4,0,0,0,967.87,83.58Zm-2.12,3.15a1.15,1.15,0,0,1-.81.4,1.49,1.49,0,0,1-1-.4,1.25,1.25,0,0,1-.34-1A1.1,1.1,0,0,1,964,85a1.2,1.2,0,0,1,1.24-.39,1.63,1.63,0,0,1,.53.35,1.25,1.25,0,0,1,.41.8A1.41,1.41,0,0,1,965.75,86.73Z"/><path class="cls-5" d="M952.88,81.9a3.51,3.51,0,0,0-2.28-1.31,5,5,0,0,0-1.89,0,3.55,3.55,0,0,0-2.39,3,3.32,3.32,0,0,0,.42,2.37,3.68,3.68,0,0,0,2.41,1.83,4.28,4.28,0,0,0,3-.57,3.3,3.3,0,0,0,1.32-2.29A4,4,0,0,0,952.88,81.9Zm-2.12,3.15a1.11,1.11,0,0,1-.81.4,1.47,1.47,0,0,1-1-.4,1.25,1.25,0,0,1-.34-1,1.1,1.1,0,0,1,.33-.75,1.19,1.19,0,0,1,1.23-.39,1.57,1.57,0,0,1,.54.35,1.25,1.25,0,0,1,.41.8A1.41,1.41,0,0,1,950.76,85.05Z"/></g><path class="cls-9" d="M949.63,77.2c2,1.4,6.86,3.55,12,5.09a92.08,92.08,0,0,0,10.2,2.26c1.45.26.49.58-.92.61-3.39.06-12.49-2-15.3-3.28-3.06-1.43-5-2.47-6.68-4.5C947.75,76,947.78,75.88,949.63,77.2Z"/><path class="cls-9" d="M953.08,76.06a33.42,33.42,0,0,0,9.46,2.86c1.48.06.58.53-.81.75s-5.79-.44-7.22-1.51C951.31,75.74,949,74.23,953.08,76.06Z"/><path class="cls-17" d="M956.59,106.1s-3.23-3.79-4-3.81c0,0-.41,2.91-1,3.66s-1.77,2.59-.08,2.64a19.72,19.72,0,0,0,4.72-.09c1-.3,1.27.4,1.27.4s2.66,1.91,3.72,1.91,1.72.08,1.34-2.21-.53-.93,0-2.3a4.81,4.81,0,0,0,.46-2.54c-.07-.39-2.37.43-3.19.91a20.14,20.14,0,0,0-1.93,1.36c-.31.21-.82.61-1.08.52S956.59,106.1,956.59,106.1Z"/><path class="cls-18" d="M956.65,106.84a10.49,10.49,0,0,0-2.75-1.35,1.41,1.41,0,0,0-.21,1.6,27,27,0,0,0,2.95.25s2.61,1.24,3.39,1.13a3.82,3.82,0,0,0,.33-1.66,8.55,8.55,0,0,0-2.87.33C957.2,107.24,956.65,106.84,956.65,106.84Z"/><path class="cls-11" d="M956.5,106s.9-.35,1.39,0c0,0,.14,2.15-.41,2.87a1.84,1.84,0,0,1-1.67-.17A9,9,0,0,1,956.5,106Z"/><path class="cls-19" d="M948.7,104.12c-1.23,2.12-3.63,2.24-5.75,1s-3.15-3.32-1.93-5.44,3.38-2,5.5-.74S949.92,102,948.7,104.12Z"/><path class="cls-19" d="M973.63,105.47c.22,2.43-1.67,3.91-4.11,4.13s-4.5-.9-4.72-3.34,1.64-3.54,4.08-3.76S973.42,103,973.63,105.47Z"/></g></g></svg>