<svg xmlns="http://www.w3.org/2000/svg" viewBox="0 0 164.9 62.84"><defs><style>.cls-1{fill:#fcc01b;}</style></defs><title>Asset 63</title><g id="Layer_2" data-name="Layer 2"><g id="Layer_1-2" data-name="Layer 1"><path class="cls-1" d="M5.35,62.84C4.43,14.07,1.53,8.41,0,3.21L11.24,1.68c-2.45,4-2.07,12.08-2.14,18.65A17.39,17.39,0,0,1,20,16.67c12.62,0,17.66,10.39,17.66,20.25a17.33,17.33,0,0,1-.07,1.91c-.69,9.25-6.5,18.66-18.35,18.66a38.74,38.74,0,0,1-4.51-.31c.3.84,1.3,2.91,1.53,3.37Zm15.21-10.4c6.58,0,7.57-8.56,7.88-12.54.38-5.42-.15-17.73-9-17.73-6.88,0-8.25,8.1-8.48,12.61C10.55,40.75,11.08,52.44,20.56,52.44Z"/><path class="cls-1" d="M65.75,34.4C65.75,27.9,65.29,16,55.5,16c-3.67,0-7.34,2.44-7.34,6.57,0,2.14,1.61,2.6,3.06,2.6,0-2.37.15-4.59,3.13-4.59a3.19,3.19,0,0,1,3.37,3.29c0,3.75-2.83,5.2-6.35,5.2-3.74,0-7.11-2.14-7.11-6.35,0-7.26,7.72-11.31,14.07-11.31,6,0,14.37,3.44,14.37,10.63,0,5.81,1.45,32.1,1.84,35.24v.38c-2.37.31-7.42,1.15-9.48,1.07V53.28c-7.27,7.95-22.33,9.56-24.54-1.14C36.31,35.93,52.52,29.05,65.75,34.4ZM53.59,53.21c5,0,12.69-4.36,12.69-9.71,0-4.13-5.12-7.11-9.25-7.11-5.73,0-8.87,3.82-8.87,9.25C48.16,49,49.54,53.21,53.59,53.21Z"/><path class="cls-1" d="M88.45,38.53c4,0,7,3,7,6,0,2.22-1.46,5.2-4.82,5.2-1.22,0-2.37-.38-3.59-.38,2.21,7.64,17.43,4,17.43-2.52,0-4.21-7.65-7.88-12.54-9-7-1.6-10.55-3-10.55-9.7,0-7.57,6.65-12.31,15.9-12.92,15.44-1,23,17.12,9,19.49H106c-3.44,0-6.12-2.37-6.12-5.12,0-3.06,2.22-4.59,5.89-4.59-2.07-11.54-17.2-4.66-17.2,2.83,0,8.33,26.06,7.34,26.06,19.11,0,6.19-8.17,11.93-16,11.93-10.47,0-19.42-2.83-19.42-12C79.12,42.2,82.41,38.53,88.45,38.53Z"/><path class="cls-1" d="M120.41,0a7.7,7.7,0,0,1,8.1,7.72c0,4.21-3.21,7.72-8.1,7.72s-8.34-3.51-8.34-7.72S115.51,0,120.41,0Zm-4.82,21.86h10.78c-3,12.24.53,24.7,1.07,36.39H116.66C119.64,42.12,116.12,33.41,115.59,21.86Z"/><path class="cls-1" d="M148.77,13.38c7.41,0,13.15,2.52,13.83,10.32,0,5.35-1.83,10.24-8.56,10.24-2.6,0-6.5-1.91-6.5-5.2a3.9,3.9,0,0,1,3.6-3.82c3.9,0,3.28,5,5,5,2.45,0,2.53-2.3,2.37-4a8.11,8.11,0,0,0-8.33-7.57c-12.84,0-11.85,35.24.46,35.24,6.11,0,10.7-6,10.7-11.85,0-1.38,3.29-2,3.52.69,0,8.87-6,15.13-15.75,15.13-11.85,0-18.58-8.86-19.49-19.57C128.66,26.83,135.16,13.38,148.77,13.38Z"/></g></g></svg>