<svg xmlns="http://www.w3.org/2000/svg" width="2009" height="878.747" viewBox="0 0 2009 878.747">
  <g id="그룹_6053" data-name="그룹 6053" transform="translate(-1864.156 1911.802)">
    <ellipse id="타원_370" data-name="타원 370" cx="1004.5" cy="386.972" rx="1004.5" ry="386.972" transform="translate(1864.156 -1806.998)" fill="#e1bb99"/>
    <g id="그룹_6050" data-name="그룹 6050">
      <path id="패스_7128" data-name="패스 7128" d="M3455.436-1708.408l-.171.014c-28.114,2.234-109.262-18.6-107.677-32.571,2.714-23.925,7.158-45.27,12.674-68.676,6.569-27.869,6.169-44.01,27.657-65.45,4.422-4.413,9.316-9.007,12.435-14.5,3.478-6.122,2.523-19.311,9.826-21.752,5.793-1.936,15.26,2.743,20.917,4.49,16.04,4.955,32.145,9.318,48.53,12.962,5.084,1.131,16.553,2.361,19.711,6.394,1.764,2.253-.04,11.568-2.127,16.475.047.1.095.209.141.313,13.858,30.831,9.935,54.188,6.4,87.043-2.446,22.72-4.674,55.544-7.6,65.3-1.7,5.664-28.613,8.984-40.71,9.957Z" fill="#bbafa3" fill-rule="evenodd"/>
      <path id="패스_7129" data-name="패스 7129" d="M3428.767-1710.2c-34.873-5.276-82.4-20.044-81.179-30.765a500.535,500.535,0,0,1,8.563-50.582c.848,20.445,6.092,40.014,19.534,53.545,11.609,11.685,28.61,18.681,43.746,24.421,3.035,1.151,6.158,2.3,9.336,3.381Z" fill="#b3a598" fill-rule="evenodd"/>
      <path id="패스_7130" data-name="패스 7130" d="M3405.509-1895.11c11.252,3.318,22.779,5.735,34.061,8.973,16.413,4.709,32.583,10.194,48.842,15.391m-109.426,11.757q3.186,1.1,6.4,2.136m8.362,2.459c22.507,6.979,44.737,14.808,67.351,21.439" fill="none" stroke="#a59180" stroke-linecap="round" stroke-linejoin="round" stroke-width="3.333"/>
      <path id="패스_7131" data-name="패스 7131" d="M3459.329-1708.757c-1.412.139-2.721.255-3.893.349,1.121-21.614,2.227-41.756,3.552-64.213.956-16.221.481-43.488,4.727-54.435,5.881-15.161,26.759-40.727,27.085-43.405.2-1.624.787-13.339,3.046-12.813,1.54.357,2.444,1.036,2.427,2.552-.03,2.7-1.081,5.4.069,8.026a21.416,21.416,0,0,0,1.01,1.989c13.858,30.831,9.935,54.188,6.4,87.043-2.4,22.3-4.591,54.322-7.44,64.729-.055.2-.109.388-.164.57-1.536,5.116-23.639,8.32-36.817,9.608Z" fill="#a59180" fill-rule="evenodd"/>
      <path id="패스_7132" data-name="패스 7132" d="M3491.819-1861.588c-5.213,45.578-12.972,91.114-14.135,137.078m-19.268,12.589c3.072-1.629,5.945-3.634,8.867-5.513,3.3-2.121,7.174-4.843,10.4-7.076a72.869,72.869,0,0,0,16.357,6.059" fill="none" stroke="#8b7563" stroke-linecap="round" stroke-linejoin="round" stroke-width="3.333"/>
      <path id="패스_7133" data-name="패스 7133" d="M3409.762-1815.427a21.389,21.389,0,0,0-17.539,5.809c-13.618,12.8-9.064,38.762,11.891,41.973,11.809,1.809,21.915-7.589,24.916-18.842,3.229-12.1-3.447-26.727-19.268-28.94Z" fill="#aa9887" fill-rule="evenodd"/>
      <path id="패스_7134" data-name="패스 7134" d="M3412.883-1803.633c-.313,3.019-1.218,6.089-3.347,8.19-2.3,2.269-5.424,3.285-8.068,5.04a12.3,12.3,0,0,0-4.813,5.964,11.488,11.488,0,0,0-.383,1.2c-2.273-2.938-2.139-7-.854-10.456,1.787-4.8,6.194-9.741,11.623-10.37a14,14,0,0,1,5.842.427Zm-15.49,21.581a8.712,8.712,0,0,1,.358-1.335c1.93-5.363,7.833-6.676,11.876-9.953a14.186,14.186,0,0,0,5.261-9.411c5,2.92,5.763,9.657,3.9,14.005-2.883,6.739-9.6,11.478-16.98,9.046a12.976,12.976,0,0,1-4.261-2.22l-.157-.132Z" fill="#51361f" fill-rule="evenodd"/>
      <g id="그룹_6049" data-name="그룹 6049">
        <g id="그룹_6037" data-name="그룹 6037">
          <g id="그룹_6026" data-name="그룹 6026">
            <g id="그룹_6025" data-name="그룹 6025">
              <path id="패스_7135" data-name="패스 7135" d="M3315.533-1741.733c-3.13,5.094-7.842,6.865-13.271,8.752-.2.049-.41.1-.627.139a19.416,19.416,0,0,1-2.612.376c-.631.051-1.263.074-1.887.065a22.959,22.959,0,0,1-7.427-1.28c-.173-.087-.291-.136-.416-.19a32.8,32.8,0,0,1-12-9.14c-.124-.162-.262-.349-.393-.534-.228-.317-.448-.636-.667-.966-.112-.168-.212-.325-.287-.436-.3-.416-.582-.847-.853-1.276l-.005-.012c-.29-.462-.564-.931-.812-1.407-.149-.271-.29-.545-.428-.818-.1-.205-.2-.409-.285-.6a12.088,12.088,0,0,0-.79-2.112,6,6,0,0,1-.353-1c-.116-.486-.231-.976-.339-1.464l0,0c-2.053-9.018-3.131-18.664-.236-27.471a5.561,5.561,0,0,1,.231-.507c3.032-8.78,9.168-13.543,16.493-15.44.2-.049.389-.1.584-.142a18.393,18.393,0,0,1,2.493-.4,28.629,28.629,0,0,1,4.226-.064h.01a32.378,32.378,0,0,1,6.331.967c4.824,1.284,8.055,4.615,10.932,8.517,1.3,2.166,2.5,4.322,3.541,6.5,3.116,6.492,4.877,13.171,4.056,20.828-.17,1.616-.4,3.221-.662,4.8C3319.289-1751.174,3318.185-1746.052,3315.533-1741.733Z" fill="#663a2b"/>
            </g>
          </g>
          <g id="그룹_6028" data-name="그룹 6028">
            <g id="그룹_6027" data-name="그룹 6027">
              <path id="패스_7136" data-name="패스 7136" d="M3291.642-1797.6a18.116,18.116,0,0,0-3.112.872,22.571,22.571,0,0,0-6.147,3.044c-2.338,1.926-4.867,3.321-6.219,6.141a26.233,26.233,0,0,0-1.868,4.135c-.338,1.218-.57,2.473-.908,3.7a88.818,88.818,0,0,0-1.955,8.714c-.457,2.619-.166,5.285-.261,7.9-.092,2.573.561,4.983.894,7.483a8.431,8.431,0,0,1,.011,1.972c-2.053-9.018-3.131-18.664-.236-27.471a5.561,5.561,0,0,1,.231-.507c3.032-8.78,9.168-13.543,16.493-15.44.2-.049.389-.1.584-.142A18.393,18.393,0,0,1,3291.642-1797.6Z" fill="#764e41"/>
            </g>
          </g>
          <g id="그룹_6030" data-name="그룹 6030">
            <g id="그룹_6029" data-name="그룹 6029">
              <path id="패스_7137" data-name="패스 7137" d="M3292.456-1794.981c-.689,1.258-2.2,2.1-2.908,3.518-.55,1.092-.9,2.186-1.477,3.266a10.376,10.376,0,0,0-1.031,6.393c.149,1.919,1.084,4.5.613,6.361a22.137,22.137,0,0,1-1.116,2.926c-.584,1.234-1.531,1.225-2.533,1.757-2.9,1.538-1.019,3.575,1.6,3.712,2.383.125,4.782-.7,6.552,1.278,1.583,1.77,1.04,3.615,1.217,5.823a9.156,9.156,0,0,1,.026,3.053c-.446,1.6-1.56,1.652-2.8,2.4a2.017,2.017,0,0,0-1.056,2.777c.655,1.425,2.6,1.154,3.483,2.2,1.259,1.484.806,5.856.432,7.6a15.849,15.849,0,0,1-1,3.5c-.689,1.477-1.684,2.583.089,3.763a5.8,5.8,0,0,0,4.366.412c.937-.381.826-.133,1.166-1.3.379-1.3.014-2.513.035-3.846a5.377,5.377,0,0,1,3.716-5.268c.775-.33,2.6-.423,2.614-1.558.009-.69-1.338-1.389-1.609-2.218-.911-2.789.106-6.3-.145-9.173-.292-3.33-1.853-5.764-3.446-8.57a22.1,22.1,0,0,1-1.127-3.057,23.494,23.494,0,0,0-2.188-3.557,21.5,21.5,0,0,1-2.185-3.727,9.232,9.232,0,0,1-.7-2.754c-.023-1.246-.1-.818.828-1.676,2.414-2.231-.17-2.162-1.375-4.079-.939-1.493-1.082-4.8-.629-6.464A10.673,10.673,0,0,0,3292.456-1794.981Z" fill="#603223"/>
            </g>
          </g>
          <g id="그룹_6032" data-name="그룹 6032">
            <g id="그룹_6031" data-name="그룹 6031">
              <path id="패스_7138" data-name="패스 7138" d="M3320.739-1760.844c-.171,1.612-.405,3.216-.661,4.8-.79,4.87-1.894,9.988-4.546,14.311-3.129,5.1-7.844,6.866-13.27,8.753-.2.05-.411.1-.626.14a19.952,19.952,0,0,1-2.613.375,22.881,22.881,0,0,1-9.311-1.218c-.176-.087-.294-.135-.419-.189a32.81,32.81,0,0,1-12-9.138c-.124-.163-.262-.347-.4-.535-.225-.318-.448-.639-.666-.967-.11-.166-.211-.322-.283-.434-.3-.419-.585-.847-.857-1.279a25.043,25.043,0,0,0,5.348,5.734,13.126,13.126,0,0,0,11.181,2.319c2.136-.493,3.658-6.332,5.907-2.751.962,1.532.385,2.969,2.744,3.277a15.463,15.463,0,0,0,5.458-.73c3.823-1.094,7.157-3.358,8.517-7.254a46.951,46.951,0,0,0,1.945-8.11c.631-3.928.281-7.585-.026-11.558a95.344,95.344,0,0,0-1.6-10.874c-.258-1.326-.842-2.56-1.158-3.835-.45-1.8-.415-3.753-1.177-5.479-.719-1.622-2.124-2.9-3.179-4.33-1.019-1.378-1.764-2.841-3.3-3.792a29.737,29.737,0,0,0-4.177-1.737c-1.8-.762-3.561-2.037-5.567-2.157-.045-.056-.092-.11-.136-.158a32.247,32.247,0,0,1,6.342.969c4.825,1.281,8.053,4.612,10.935,8.515C3318.322-1779.557,3321.831-1771.074,3320.739-1760.844Z" fill="#603223"/>
            </g>
          </g>
          <g id="그룹_6034" data-name="그룹 6034">
            <g id="그룹_6033" data-name="그룹 6033">
              <path id="패스_7139" data-name="패스 7139" d="M3315.532-1741.733c-3.13,5.1-7.842,6.866-13.27,8.751-.2.052-.412.1-.626.142a19.908,19.908,0,0,1-2.613.375c-.473.037-.947.059-1.418.064-.157,0-.313,0-.47,0a16.866,16.866,0,0,1-1.291-1.429q-.2-.248-.382-.5a10.532,10.532,0,0,1-1.258-3.1c-.055-.22-.1-.441-.149-.661a9.364,9.364,0,0,0,.607-6.1c-.041-.227-.087-.455-.136-.683a53.216,53.216,0,0,1-.849-7.054c0-.226.015-.444.037-.664.215-1.888,1.257-3.719,1.778-5.573.086-.189.172-.379.26-.569.073-.158.147-.317.222-.476s.152-.317.23-.476a16.189,16.189,0,0,0,.821-2.111c.076-.239.15-.48.221-.721.7-1.9,1.206-4.116,2.272-5.8.119-.188.245-.369.38-.545a58.553,58.553,0,0,1,4.723-4.733c.172-.148.347-.3.527-.458a5.059,5.059,0,0,1,.367-.5c.131-.157.269-.305.416-.46a21.575,21.575,0,0,1,3.031-3.221,5.087,5.087,0,0,1,.5-.306c.175-.1.356-.187.54-.271s.374-.162.568-.243c1.989-.862,5.714-4.046,6.715-1.319q.145.326.287.653a36.474,36.474,0,0,1,3.164,18.876c-.17,1.612-.405,3.217-.662,4.8C3319.288-1751.174,3318.184-1746.054,3315.532-1741.733Z" fill="#442318"/>
            </g>
          </g>
          <g id="그룹_6036" data-name="그룹 6036">
            <g id="그룹_6035" data-name="그룹 6035">
              <path id="패스_7140" data-name="패스 7140" d="M3292.925-1794.131a.472.472,0,0,0-.727-.5c-2.483,1.752-4.2,5.87-4.319,11.071q0,.2-.006.411a10.249,10.249,0,0,0,.068,2.487c.018.177.041.358.068.547s.057.384.091.591c.016.139.033.279.048.419a31.413,31.413,0,0,0,1.668,6.528c.054.151.11.3.162.454a2.092,2.092,0,0,1-.252.69,1.852,1.852,0,0,1-.5.5c-1.653.806-3.364.939-5.009,1.927,1.866,1.864,4.366.81,6.364,1.582a5.469,5.469,0,0,1,.594.209,3.615,3.615,0,0,1,.534.283,4.71,4.71,0,0,1,.47.347,2.532,2.532,0,0,1,.9,1.531c.05.137.1.274.149.411a40.705,40.705,0,0,1,1.193,4.055q.069.287.133.572a5.85,5.85,0,0,1,.371,3.658,2.813,2.813,0,0,1-.156.487,4.65,4.65,0,0,1-1.687,1.438c-.156.083-.314.161-.472.236-.928.107-1.147.984-1.7,1.314.833-.352.659,1.1,1.616.765.345.069.685.142,1.006.234a2.567,2.567,0,0,1,2.012,1.694,5.365,5.365,0,0,1,.081.581,7.766,7.766,0,0,1-.1,1.934c-.007.147-.016.29-.024.447a23.506,23.506,0,0,1-1.226,7.046,5.863,5.863,0,0,0,1.923,7.145.926.926,0,0,0,1.456-.934c-.473-2.311-.964-6.69,1.107-9.931.081-.125.165-.247.255-.369a5.073,5.073,0,0,1,1.652-.893c.2-.07.4-.134.606-.193a6.569,6.569,0,0,0,1.388-.265,4.682,4.682,0,0,0,.459-.172c.343-.6,1.506-.405,1.177-.953-.374-1.119-2.589-.087-2.885-1.937a2.506,2.506,0,0,1-.012-.575,6.039,6.039,0,0,1,.464-1.69,3.492,3.492,0,0,0,.053-.643c.021-3.767-1.426-8-3.2-11.727-1.783-3.755-5.237-8.9-6.775-15.133l-.1-.535c-.009-.091-.016-.183-.023-.275a2.351,2.351,0,0,1,.037-.513,2,2,0,0,1,.141-.443,3.456,3.456,0,0,1,1.412-1.084,7.642,7.642,0,0,1,.8-.3c.252-.27,1.26-.044,1.015-.84-.212-.47-.829-.079-1.314-.326-.1-.026-.2-.053-.3-.082a3.822,3.822,0,0,1-1.153-.544,2.766,2.766,0,0,1-.269-.3,3.385,3.385,0,0,1-.444-.768,1.318,1.318,0,0,1-.346-.317,1.376,1.376,0,0,1-.227-.474c0-.195.012-.392.023-.589a23.484,23.484,0,0,1,1.175-6.145Z" fill="#442318"/>
            </g>
          </g>
        </g>
        <g id="그룹_6048" data-name="그룹 6048">
          <g id="그룹_6039" data-name="그룹 6039">
            <g id="그룹_6038" data-name="그룹 6038">
              <path id="패스_7141" data-name="패스 7141" d="M3364.8-1753.486c-5.589,9.884-11.972,18.053-22.634,22.671-1.682.729-3.388,1.389-5.087,2.021-5.227,1.932-10.869,3.693-16.593,3.491-6.747-.239-11.11-3.888-15.983-8.17-.163-.169-.326-.352-.486-.539a21.959,21.959,0,0,1-1.821-2.359,25.8,25.8,0,0,1-3.983-9.827c-.013-.223-.031-.367-.049-.519a37.01,37.01,0,0,1,2.308-16.873c.086-.213.192-.452.3-.69q.282-.6.58-1.192c.1-.2.2-.388.269-.521q.369-.793.781-1.551l.009-.01q.438-.815.928-1.584c.184-.294.375-.587.572-.875.141-.214.288-.42.426-.61a13.658,13.658,0,0,0,1.633-1.952,7.062,7.062,0,0,1,.791-.906c.349-.328.7-.651,1.055-.974q1.336-1.226,2.722-2.417c7.119-6.121,15.178-11.442,24.339-13.275.188-.022.365-.043.631-.055,10.316-1.9,18.411,1.478,24.351,7.619.157.164.313.328.462.494a26.6,26.6,0,0,1,3.917,5.818c.093.175.182.353.271.531l.006.008a36.307,36.307,0,0,1,2.571,6.764C3368.511-1763.514,3367.033-1758.488,3364.8-1753.486Z" fill="#663a2b"/>
            </g>
          </g>
          <g id="그룹_6041" data-name="그룹 6041">
            <g id="그룹_6040" data-name="그룹 6040">
              <path id="패스_7142" data-name="패스 7142" d="M3364.24-1776.271c-.076-.042-.152-.08-.229-.118a10.16,10.16,0,0,1-4.417-3.543c-1.906-2.837-3.821-3.438-6.817-5.051a28.064,28.064,0,0,0-10.191-3.153,17.49,17.49,0,0,0-6.784.192c-1.8.409-3.657.266-5.452.7-3.617.884-6.7,3.106-10.121,4.456-2.4.951-3.34,2.634-5.3,4.093-.877.653-2.774,1.136-4.39,1.818,7.119-6.121,15.178-11.442,24.339-13.275.188-.022.365-.043.631-.055,10.316-1.9,18.411,1.478,24.351,7.619.157.164.313.328.462.494A26.6,26.6,0,0,1,3364.24-1776.271Z" fill="#764e41"/>
            </g>
          </g>
          <g id="그룹_6043" data-name="그룹 6043">
            <g id="그룹_6042" data-name="그룹 6042">
              <path id="패스_7143" data-name="패스 7143" d="M3359.982-1777.6c-1.62.023-3.292-.987-5.077-.9-1.378.067-2.647.334-4.031.366-2.779.064-4.546.988-6.856,2.543-1.8,1.213-3.817,3.567-5.91,4.14a25.092,25.092,0,0,1-3.5.532c-1.537.112-2.055-.824-3.136-1.513-3.123-1.992-4.079.988-2.757,3.639,1.2,2.412,3.351,4.31,2.389,7.152-.859,2.539-2.974,3.032-5.045,4.434a10.346,10.346,0,0,1-2.987,1.724c-1.823.454-2.491-.614-3.919-1.419-1.17-.66-2.385-.784-3.315.507-1.036,1.437.311,3.2-.221,4.645-.758,2.063-5.307,4.05-7.23,4.652a17.917,17.917,0,0,1-3.992.962c-1.836.144-3.476-.218-3.65,2.18a6.551,6.551,0,0,0,2.024,4.52c.9.709.59.738,1.923.425,1.484-.349,2.478-1.384,3.8-2.1,2.662-1.45,4.938-1.041,7.243.722.756.577,1.863,2.319,2.986,1.7.683-.376.621-2.088,1.285-2.816,2.233-2.447,6.251-3.4,8.933-5.245,3.111-2.139,4.635-5.028,6.506-8.154a25.056,25.056,0,0,1,2.377-2.809,26.471,26.471,0,0,0,2.279-4.129,24.371,24.371,0,0,1,2.447-4.22,10.468,10.468,0,0,1,2.315-2.224c1.211-.716.748-.554,2.108-.118,3.535,1.131,2.03-1.37,3.243-3.621.946-1.754,4.118-3.735,6-4.214A12.084,12.084,0,0,0,3359.982-1777.6Z" fill="#603223"/>
            </g>
          </g>
          <g id="그룹_6045" data-name="그룹 6045">
            <g id="그룹_6044" data-name="그룹 6044">
              <path id="패스_7144" data-name="패스 7144" d="M3342.165-1730.816c-1.678.729-3.386,1.391-5.084,2.02-5.226,1.933-10.871,3.7-16.594,3.494-6.747-.241-11.111-3.889-15.984-8.172-.16-.169-.324-.35-.486-.537a22.7,22.7,0,0,1-1.822-2.36,25.823,25.823,0,0,1-3.982-9.828c-.013-.222-.031-.365-.048-.517a37.054,37.054,0,0,1,2.306-16.876c.091-.213.2-.45.3-.687.188-.4.38-.8.58-1.193.1-.2.2-.387.27-.52.243-.53.506-1.046.78-1.553a28.277,28.277,0,0,0-2.66,8.445,14.817,14.817,0,0,0,3.941,12.278c1.673,1.826,8.258.073,5.989,4.275-.971,1.8-2.7,2.03-1.694,4.52a17.481,17.481,0,0,0,3.754,4.958c3.2,3.149,7.281,5.166,11.866,4.335a53.049,53.049,0,0,0,9.053-2.6c4.211-1.565,7.611-3.943,11.344-6.456a107.3,107.3,0,0,0,9.795-7.624c1.16-.991,2.048-2.251,3.125-3.272,1.518-1.442,3.458-2.494,4.73-4.2,1.194-1.61,1.668-3.7,2.487-5.533.788-1.769,1.811-3.314,1.891-5.354a33.641,33.641,0,0,0-.618-5.072c-.251-2.19.021-4.632-.977-6.67.031-.076.058-.152.081-.222a36.484,36.484,0,0,1,2.575,6.771c1.425,5.455-.053,10.48-2.285,15.484C3359.211-1743.6,3352.827-1735.434,3342.165-1730.816Z" fill="#603223"/>
            </g>
          </g>
          <g id="그룹_6047" data-name="그룹 6047">
            <g id="그룹_6046" data-name="그룹 6046">
              <path id="패스_7145" data-name="패스 7145" d="M3359.406-1776.668a.533.533,0,0,0,.09-.994c-3.1-1.467-8.1-.859-13.282,1.914-.136.072-.272.147-.408.223a11.559,11.559,0,0,0-2.407,1.449c-.163.117-.328.24-.5.371s-.346.27-.53.419l-.385.281a35.425,35.425,0,0,0-5.488,5.27c-.118.136-.236.276-.356.411a2.32,2.32,0,0,1-.818.136,2.059,2.059,0,0,1-.774-.213c-1.712-1.176-2.794-2.784-4.68-3.851-.794,2.871,1.633,4.742,1.985,7.135a6.313,6.313,0,0,1,.125.7,4.026,4.026,0,0,1,.019.683,5.636,5.636,0,0,1-.078.654,2.864,2.864,0,0,1-1,1.739q-.16.189-.321.375a45.714,45.714,0,0,1-3.321,3.429q-.243.227-.488.449a6.6,6.6,0,0,1-3.389,2.4,3.252,3.252,0,0,1-.565.118,5.243,5.243,0,0,1-2.352-.859q-.252-.16-.494-.332c-.621-.853-1.606-.58-2.234-.935.809.623-.712,1.257.147,2.014.124.378.241.752.329,1.119a2.9,2.9,0,0,1-.545,2.919,5.9,5.9,0,0,1-.526.4,8.809,8.809,0,0,1-1.957.977l-.453.226c-3.162,1.506-5.852,2.561-7.607,2.713a6.624,6.624,0,0,0-5.952,5.865,1.046,1.046,0,0,0,1.729.912c2.008-1.751,6.038-4.669,10.375-4.437.167.01.335.025.5.046a5.726,5.726,0,0,1,1.8,1.126c.18.158.356.322.527.488a7.419,7.419,0,0,0,1.033,1.217,5.2,5.2,0,0,0,.423.355c.783,0,1.237,1.256,1.593.627.891-.99-1.356-2.593.3-3.913a2.925,2.925,0,0,1,.559-.332,6.814,6.814,0,0,1,1.918-.483,4.027,4.027,0,0,0,.662-.306c3.713-2.075,7.07-5.853,9.747-9.664,2.7-3.842,5.833-10.1,11.1-15.077l.473-.393c.084-.06.17-.118.256-.176a2.6,2.6,0,0,1,.525-.249,2.185,2.185,0,0,1,.514-.107,3.912,3.912,0,0,1,1.852.784,8.769,8.769,0,0,1,.735.625c.406.1.745,1.213,1.39.53.345-.47-.382-.859-.41-1.473-.029-.11-.058-.222-.084-.336a4.3,4.3,0,0,1-.106-1.436,2.966,2.966,0,0,1,.144-.431,3.846,3.846,0,0,1,.508-.864,1.514,1.514,0,0,1,.119-.516,1.546,1.546,0,0,1,.34-.487c.194-.1.392-.206.592-.3A26.519,26.519,0,0,1,3357-1776Z" fill="#442318"/>
            </g>
          </g>
        </g>
      </g>
    </g>
    <g id="그룹_6051" data-name="그룹 6051">
      <path id="패스_7146" data-name="패스 7146" d="M2218.173-1768.581c-.481-6.483-.816-19.35-1.658-25.795-10.536-2.847-21.43-3.406-32.264-2.761a6.462,6.462,0,0,0-5.413,3.609c-12.089,24.839-17.435,61.38,7.19,78.626a2.491,2.491,0,0,0,2.99-.073,2.491,2.491,0,0,0,.765-2.891c-6.211-15.511-5.528-32.456-1.094-48.6a6.455,6.455,0,0,1,6.42-4.722,157.729,157.729,0,0,1,23.064,2.611Z" fill="#1e150e" fill-rule="evenodd"/>
      <path id="패스_7147" data-name="패스 7147" d="M2229.938-1826.236l0-.006-.034.013-.035.008v.006c-8.661,3.482-17.879,5.82-26.759,8.652,7.911,15.1,5.017,26.794,3.088,42.475-1.461,11.876-2.031,23.581.62,35.657,2.888,13.156,9.558,27.779,23.173,29.146,1.859,7.091,7.727,7.221,13.228,6.467,7.794-1.069,36.825-9.914,43.891-13.374,4.986-2.44,9.785-5.821,7.374-12.744,10.539-8.727,7.922-24.585,2.983-37.116-4.533-11.5-11.534-20.9-19.369-29.944-10.345-11.941-19.266-20.032-21.121-36.98-8.952,2.6-17.906,5.8-27.038,7.74Z" fill="#fff" fill-rule="evenodd"/>
      <path id="패스_7148" data-name="패스 7148" d="M2292.914-1728.2c-3.716,5.089-10.41,7.143-16.092,9.151-9.54,3.373-19.079,6.807-29.037,8.735-4.436.859-10.15,1.921-14.6.511" fill="none" stroke="#dbdbdb" stroke-linecap="round" stroke-linejoin="round" stroke-width="4.78"/>
      <path id="패스_7149" data-name="패스 7149" d="M2249.506-1761.892c-7.846,2.21-15.493,5.111-23.106,8.027-5.6,2.143-14.25,4.66-13.8,13.018a27.78,27.78,0,0,0,1.367,6.705,36.774,36.774,0,0,0,3.784,8.358c10.53,16.842,30.916,11.454,44.861,6.9,14.115-3.995,34.042-10.89,33.392-30.742a36.792,36.792,0,0,0-1.52-9.048,27.843,27.843,0,0,0-2.6-6.329c-4.29-7.187-12.876-4.45-18.716-3.109-7.946,1.825-15.911,3.681-23.656,6.221Z" fill="#51361f" fill-rule="evenodd"/>
      <path id="패스_7150" data-name="패스 7150" d="M2250.532-1758.523c-18.979,5.783-34.034,11.637-33.6,13.064s16.2-2.109,35.175-7.892,34.035-11.636,33.6-13.064-16.2,2.109-35.176,7.892Z" fill="#402b18" fill-rule="evenodd"/>
      <path id="패스_7151" data-name="패스 7151" d="M2228.376-1748.809c6.426-2.128,12.865-4.287,19.35-6.231,4.769-1.429,9.593-2.723,14.306-4.328m2.936-.783c3.919-1.194,7.854-2.394,11.811-3.457" fill="none" stroke="#322214" stroke-linecap="round" stroke-linejoin="round" stroke-width="4.78"/>
      <path id="패스_7152" data-name="패스 7152" d="M2213.489-1880.095c-9.609,2.927-20.665,6.352-27.916,11.776-2.978,2.228-6.727,5.155-6.283,9.161.356,3.212,2.719,5.954,4.726,8.362,3.511,4.213,7.142,8.283,10.42,12.679,8.372,11.227,16.4,23.1,26.061,33.344a73.516,73.516,0,0,0,6.616,6.35,21.973,21.973,0,0,0,4.812,3.079,12.518,12.518,0,0,0,3.593,1.024,12.512,12.512,0,0,0,2.66.06,6.4,6.4,0,0,0,1.384-.265,6.366,6.366,0,0,0,1.3-.552,12.464,12.464,0,0,0,2.175-1.533,12.525,12.525,0,0,0,2.412-2.854,21.953,21.953,0,0,0,2.277-5.238,73.758,73.758,0,0,0,1.951-8.961c2.309-13.89,2.351-28.223,3.04-42.211.27-5.477,1.014-10.88,1.579-16.335.323-3.119.756-6.712-.74-9.576-1.866-3.573-6.609-3.913-10.324-4.1-9.043-.459-20.13,2.864-29.74,5.792Z" fill="#d7cfc7" fill-rule="evenodd"/>
      <path id="패스_7153" data-name="패스 7153" d="M2241.7-1808.442c.925-11.126-.184-22.505-1.274-33.581-.5-5.1-.654-10.188-1.347-15.274m-4.29,30.473a138.51,138.51,0,0,0-1.813-17.161m-13.473,20.4c-3.67-8.607-6.972-17.352-10.431-26.045m4.695,25.274a77.151,77.151,0,0,1-5.653-12.211" fill="none" stroke="#cbc0b6" stroke-linecap="round" stroke-linejoin="round" stroke-width="4.78"/>
      <path id="패스_7154" data-name="패스 7154" d="M2214.283-1877.491c-18.979,5.783-33.441,13.585-32.275,17.413s17.522,2.24,36.5-3.543,33.441-13.585,32.274-17.413-17.521-2.24-36.5,3.543Z" fill="#c3b6aa" fill-rule="evenodd"/>
      <path id="패스_7155" data-name="패스 7155" d="M2243.149-1838.959a91.517,91.517,0,0,1-15.246,6.314,90.731,90.731,0,0,1-16.095,3.236,50.623,50.623,0,0,1-7.643-.2c-1.618-.143-3.543-.283-4.883.845-2.574,2.166-.818,6.619-.233,9.192.737,3.237,1.788,7.925,4.618,10.121,3.393,2.633,8.12,2.5,12.272,1.789,6.144-1.049,30.224-8.386,35.909-10.942,3.842-1.726,7.841-4.25,9.189-8.327,1.125-3.4-.617-7.879-1.81-10.977-.949-2.462-1.974-7.137-5.319-7.5-1.741-.189-3.261,1-4.524,2.022a50.689,50.689,0,0,1-6.235,4.425Z" fill="#1e150e" fill-rule="evenodd"/>
      <path id="패스_7156" data-name="패스 7156" d="M2205.2-1816.905c12.235.054,25.1-3.607,36.361-8.2,5.232-2.136,10.611-4.421,15.034-8.008m-43.935,11.375c10.123-.585,19.836-3.631,29.124-7.579" fill="none" stroke="#000" stroke-linecap="round" stroke-linejoin="round" stroke-width="4.78"/>
    </g>
    <g id="그룹_6052" data-name="그룹 6052">
      <path id="패스_7157" data-name="패스 7157" d="M2384.3-1776.6c35.471-8.543,66.278-7.141,68.751,3.127s-24.318,25.542-59.79,34.084-66.279,7.141-68.752-3.127,24.318-25.542,59.791-34.084Z" fill="#e9e4e0" fill-rule="evenodd"/>
      <path id="패스_7158" data-name="패스 7158" d="M2386.433-1767.728c18.521-4.46,34.606-3.728,35.9,1.633s-12.7,13.336-31.218,17.8-34.6,3.729-35.9-1.633,12.7-13.336,31.217-17.8Z" fill="#dbd3cd" fill-rule="evenodd"/>
      <path id="패스_7159" data-name="패스 7159" d="M2412.256-1803.921c.548-5.174,1.2-10.274,1.49-14.762.307-4.745.461-10.081,3.638-14.142,5.9-7.545,17.335-5,22.333,1.5,7.172,9.326,6.055,24.694-1.16,34.183a33.916,33.916,0,0,1-12.8,9.785c-4.427,2.028-9.231,3.5-14.1,2.78a60.243,60.243,0,0,1-.221-8.979c.017.448.044.889.083,1.321,3.838.366,7.68-.775,11.237-2.287a29.517,29.517,0,0,0,10.394-7.064c5.963-6.711,7.258-17.3,1.831-23.514-3.782-4.332-12.762-5.776-17.635-.436-2.623,2.875-2.888,6.545-3.257,9.814-.4,3.557-1.205,7.685-1.826,11.8Z" fill="#f2f2f2" fill-rule="evenodd"/>
      <path id="패스_7160" data-name="패스 7160" d="M2444.419-1812.7a30.823,30.823,0,0,1-5.862,15.56,33.916,33.916,0,0,1-12.8,9.785c-4.427,2.028-9.231,3.5-14.1,2.78a60.243,60.243,0,0,1-.221-8.979c.017.448.044.889.083,1.321,3.838.366,7.68-.775,11.237-2.287a35.04,35.04,0,0,0,5.34-2.819,11.709,11.709,0,0,0,8.373-2.155c4.018-3.116,6.645-8.086,7.957-13.206Zm-19.794-16.24a10.783,10.783,0,0,0-7.286,3.406c-2.623,2.875-2.888,6.545-3.257,9.814-.4,3.557-1.205,7.685-1.826,11.8.548-5.174,1.2-10.274,1.49-14.762.307-4.745.461-10.081,3.638-14.142,3.944-5.042,10.358-5.577,15.671-3.438a12.876,12.876,0,0,0-8.43,7.322Z" fill="#c6c6c6" fill-rule="evenodd"/>
      <path id="패스_7161" data-name="패스 7161" d="M2386.868-1765.925c6.9-1.742,16.119-4.3,20.743-6.9,1.127,2.245,2.855,5.187,1.811,7.837-2.071,5.26-11.067,7.435-16.189,8.849-1.178.325-6.382,1.578-7.58,1.825-5.2,1.073-14.2,3.231-18.442-.509-2.136-1.883-1.937-5.29-1.955-7.8,5.3.215,14.677-1.708,21.612-3.3Z" fill="#c6c6c6" fill-rule="evenodd"/>
      <path id="패스_7162" data-name="패스 7162" d="M2366.591-1850.123c13.344-3.213,32.28-6.361,42.585.957,9.874,7.012,9.966,21.165,10.571,31.97,1.357,24.227.639,45.327-25.33,53.94-2.137.708-4.3,1.293-6.477,1.784-2.164.555-4.354,1.018-6.58,1.36-27.042,4.154-37.288-14.306-47.108-36.494-4.381-9.9-10.742-22.539-5.143-33.278,5.844-11.207,24.137-17.025,37.482-20.239Z" fill="#fff" fill-rule="evenodd"/>
      <path id="패스_7163" data-name="패스 7163" d="M2410.022-1772.405c-3.752,3.792-8.815,6.9-15.6,9.149-2.137.708-4.3,1.293-6.477,1.784-2.164.555-4.354,1.018-6.58,1.36-21.913,3.366-32.8-8.116-41.362-24.4a52.047,52.047,0,0,0,6.292,6.32c17.344,14.5,44.188,16.875,63.732,5.786Z" fill="#f2f2f2" fill-rule="evenodd"/>
      <path id="패스_7164" data-name="패스 7164" d="M2367.926-1844.577c19.706-4.746,36.632-4.754,37.773-.017s-13.933,12.436-33.639,17.181-36.632,4.754-37.773.017,13.932-12.436,33.639-17.181Z" fill="#51361f" fill-rule="evenodd"/>
      <path id="패스_7165" data-name="패스 7165" d="M2384.424-1840.688c5.063-.927,8.34-1.279,8.451-.818.2.83-9.891,3.972-22.52,7.013s-23.045,4.838-23.244,4.009,9.891-3.972,22.52-7.013c1.891-.456,3.733-.883,5.5-1.278m-14.219.218c2.514-.73,5.183-1.439,7.958-2.108,16.014-3.856,29.519-4.9,30.14-2.317s-11.877,7.8-27.89,11.657-29.519,4.895-30.14,2.318c-.377-1.567,4.094-4.112,11.256-6.733" fill="none" stroke="#402b19" stroke-linecap="round" stroke-linejoin="round" stroke-width="3.434"/>
    </g>
  </g>
</svg>
