<svg xmlns="http://www.w3.org/2000/svg" width="2009" height="866.357" viewBox="0 0 2009 866.357">
  <g id="그룹_6072" data-name="그룹 6072" transform="translate(278.623 1899.412)">
    <ellipse id="타원_370" data-name="타원 370" cx="1004.5" cy="386.972" rx="1004.5" ry="386.972" transform="translate(-278.623 -1806.998)" fill="#ffd4d4"/>
    <path id="패스_7128" data-name="패스 7128" d="M708.847-1824.2s-261.54,3.3-434.392,44.014c-164.14,38.658-107.415,53.445-18.357,55.96s157.157,41.5,290.743,38.983,169.853-25.779,271.753-16.348,191.866,23.664,275.683,4.916,83.816-1.143,151.921-28.18S1158.977-1821.058,708.847-1824.2Z" fill="#f9f7f8"/>
    <path id="패스_7129" data-name="패스 7129" d="M939.7-1815.576c64.045,14.927,133.192,36.806,142.69,63.114,18.234,50.482-170.907,41.5-298.6,37.726s-189.395,27.571-324.141,15.562-129.656-32.067-223.952-33.481a333.634,333.634,0,0,1-65.807-7.284c1.839,9.71,39.582,14.394,86.211,15.711,89.058,2.514,157.157,41.5,290.743,38.983s169.853-25.779,271.753-16.348,191.866,23.664,275.683,4.916,83.816-1.143,151.921-28.18C1300.972-1746.6,1211.155-1795.6,939.7-1815.576Z" fill="#f9eff3"/>
    <path id="패스_7130" data-name="패스 7130" d="M650.772-1835.5s-280.79,14.383-197.539,40.229,467.1,36.111,506.171-2.987S650.772-1835.5,650.772-1835.5Z" fill="#fff"/>
    <g id="그룹_6025" data-name="그룹 6025">
      <path id="패스_7131" data-name="패스 7131" d="M1163.7-1764.848s-4.361-36.734-63.676-26.27C1100.021-1791.118,1112.339-1737.861,1163.7-1764.848Z" fill="#a4d668"/>
    </g>
    <g id="그룹_6026" data-name="그룹 6026">
      <path id="패스_7132" data-name="패스 7132" d="M885.546-1867.172s54.487,5.182,56.208,64.559C941.754-1802.613,889.3-1808.774,885.546-1867.172Z" fill="#72ba43"/>
    </g>
    <g id="그룹_6027" data-name="그룹 6027">
      <path id="패스_7133" data-name="패스 7133" d="M1168.382-1801.659c-1.691.282-39.666-38.489-79.023,11.119,0,0,35.824,28.109,77.332-10.837Z" fill="#579543"/>
    </g>
    <g id="그룹_6028" data-name="그룹 6028">
      <path id="패스_7134" data-name="패스 7134" d="M933.7-1893.562s-29.139,39.558,4.655,79.8C938.358-1813.767,974.229-1840.238,933.7-1893.562Z" fill="#579543"/>
    </g>
    <g id="그룹_6029" data-name="그룹 6029">
      <path id="패스_7135" data-name="패스 7135" d="M461.7-1899.412s-7.062,21.787,6.739,39.026C468.441-1860.386,479.163-1884.267,461.7-1899.412Z" fill="#579543"/>
    </g>
    <g id="그룹_6030" data-name="그룹 6030">
      <path id="패스_7136" data-name="패스 7136" d="M502.964-1872.062s-23.8-5.785-34.571,11.484C468.393-1860.578,482.955-1857.6,502.964-1872.062Z" fill="#579543"/>
    </g>
    <g id="그룹_6031" data-name="그룹 6031">
      <path id="패스_7137" data-name="패스 7137" d="M486.552-1898.622s-13.075,10.069-18.111,38.236C468.441-1860.386,490.975-1873.642,486.552-1898.622Z" fill="#86b049"/>
    </g>
    <g id="그룹_6032" data-name="그룹 6032">
      <path id="패스_7138" data-name="패스 7138" d="M516.489-1847.128s-17.515-23.958-48.393-13.295C468.1-1860.423,492.418-1841.325,516.489-1847.128Z" fill="#86b049"/>
    </g>
    <g id="그룹_6035" data-name="그룹 6035">
      <g id="그룹_6033" data-name="그룹 6033">
        <circle id="타원_371" data-name="타원 371" cx="50.142" cy="50.142" r="50.142" transform="translate(1004.96 -1785.044) rotate(-74.161)" fill="#6d55ad"/>
      </g>
      <g id="그룹_6034" data-name="그룹 6034">
        <path id="패스_7139" data-name="패스 7139" d="M1095.724-1848.636l-7.416,1.936-1.129-4.326a4.164,4.164,0,0,0-5.065-2.969h0a4.164,4.164,0,0,0-2.968,5.066l1.129,4.325-7.416,1.936a3.2,3.2,0,0,0-2.283,3.9h0a3.2,3.2,0,0,0,3.9,2.283l7.416-1.935,1.129,4.326a4.163,4.163,0,0,0,5.065,2.968h0a4.163,4.163,0,0,0,2.968-5.065l-1.129-4.326,7.416-1.935a3.2,3.2,0,0,0,2.283-3.9h0A3.2,3.2,0,0,0,1095.724-1848.636Z" fill="#3d3b6b"/>
      </g>
    </g>
    <g id="그룹_6038" data-name="그룹 6038">
      <g id="그룹_6036" data-name="그룹 6036">
        <circle id="타원_372" data-name="타원 372" cx="39.241" cy="39.241" r="39.241" transform="matrix(0.302, -0.953, 0.953, 0.302, 924.083, -1802.559)" fill="#5f64b2"/>
      </g>
      <g id="그룹_6037" data-name="그룹 6037">
        <path id="패스_7140" data-name="패스 7140" d="M973.811-1845.931l-7.608.925-.54-4.438a4.164,4.164,0,0,0-4.622-3.62h0a4.165,4.165,0,0,0-3.62,4.622l.54,4.438-7.608.925a3.2,3.2,0,0,0-2.785,3.556h0a3.2,3.2,0,0,0,3.556,2.784l7.608-.925.539,4.438a4.163,4.163,0,0,0,4.622,3.62h0a4.163,4.163,0,0,0,3.62-4.622l-.539-4.438,7.607-.925a3.2,3.2,0,0,0,2.785-3.555h0A3.2,3.2,0,0,0,973.811-1845.931Z" fill="#4643a0"/>
      </g>
    </g>
    <g id="그룹_6041" data-name="그룹 6041">
      <g id="그룹_6039" data-name="그룹 6039">
        <circle id="타원_373" data-name="타원 373" cx="39.425" cy="39.425" r="39.425" transform="translate(980.827 -1822.199) rotate(-21.044)" fill="#5f64b2"/>
      </g>
      <g id="그룹_6040" data-name="그룹 6040">
        <path id="패스_7141" data-name="패스 7141" d="M1049.157-1814.766l-6.672-3.77,2.2-3.892a4.164,4.164,0,0,0-1.572-5.657h0a4.163,4.163,0,0,0-5.656,1.572l-2.2,3.892-6.672-3.77a3.2,3.2,0,0,0-4.351,1.209h0a3.2,3.2,0,0,0,1.209,4.351l6.672,3.771-2.2,3.892a4.163,4.163,0,0,0,1.572,5.656h0a4.162,4.162,0,0,0,5.656-1.571l2.2-3.893,6.672,3.771a3.2,3.2,0,0,0,4.351-1.21h0A3.2,3.2,0,0,0,1049.157-1814.766Z" fill="#4643a0"/>
      </g>
    </g>
    <g id="그룹_6054" data-name="그룹 6054">
      <g id="그룹_6042" data-name="그룹 6042">
        <path id="패스_7142" data-name="패스 7142" d="M500.407-1829.337a18.786,18.786,0,0,0-10.943-18.587,18.782,18.782,0,0,0-17.137-17.342,18.784,18.784,0,0,0-16.668-13.926,18.693,18.693,0,0,0-9.153,1.573,18.709,18.709,0,0,0-12.258-5.93,18.781,18.781,0,0,0-20.21,17.232,18.717,18.717,0,0,0,.951,7.567,18.781,18.781,0,0,0-16.717,17.181,18.875,18.875,0,0,0,.12,4.071,18.772,18.772,0,0,0-11.248,15.74,18.829,18.829,0,0,0,.015,3.134,18.728,18.728,0,0,0-7.443,13.522,18.78,18.78,0,0,0,17.231,20.21,18.706,18.706,0,0,0,8.05-1.124,18.7,18.7,0,0,0,12.507,6.208,18.777,18.777,0,0,0,17.612-9.089,18.687,18.687,0,0,0,10.523,4.29,18.784,18.784,0,0,0,18.674-11.147,18.689,18.689,0,0,0,5.924-1.829,18.721,18.721,0,0,0,7.563,2.268,18.781,18.781,0,0,0,20.21-17.232,18.7,18.7,0,0,0-.934-7.52A18.681,18.681,0,0,0,500.407-1829.337Z" fill="#d63652"/>
      </g>
      <g id="그룹_6053" data-name="그룹 6053">
        <g id="그룹_6043" data-name="그룹 6043">
          <path id="패스_7143" data-name="패스 7143" d="M402.3-1830.306a12.224,12.224,0,0,0,8.614,6.267c2.856.49,6.288-.405,7.463-3.053a13.985,13.985,0,0,1-13.142-5.8c-1.04-1.515-1.765-3.2-2.821-4.669a1.041,1.041,0,0,0-1.154.283A9.84,9.84,0,0,0,402.3-1830.306Z" fill="#cc2939"/>
        </g>
        <g id="그룹_6044" data-name="그룹 6044">
          <path id="패스_7144" data-name="패스 7144" d="M422.056-1801.322a10.91,10.91,0,0,0,3.522,8.833c1.923,1.73,4.942,2.688,7.09,1.247a12.485,12.485,0,0,1-7.164-10.638c-.065-1.639.19-3.256.092-4.869a.926.926,0,0,0-1.006-.335A8.784,8.784,0,0,0,422.056-1801.322Z" fill="#cc2939"/>
        </g>
        <g id="그룹_6045" data-name="그룹 6045">
          <path id="패스_7145" data-name="패스 7145" d="M423.888-1815.6a9.373,9.373,0,0,0,6.3,5.2c2.163.51,4.834-.014,5.858-1.986a10.729,10.729,0,0,1-9.79-5.061c-.726-1.208-1.2-2.532-1.94-3.707a.8.8,0,0,0-.9.162A7.552,7.552,0,0,0,423.888-1815.6Z" fill="#cc2939"/>
        </g>
        <g id="그룹_6046" data-name="그룹 6046">
          <path id="패스_7146" data-name="패스 7146" d="M398.374-1810.067a9.374,9.374,0,0,0,6.3,5.2c2.163.51,4.833-.015,5.857-1.987a10.726,10.726,0,0,1-9.789-5.061c-.726-1.208-1.2-2.532-1.94-3.707a.8.8,0,0,0-.9.163A7.545,7.545,0,0,0,398.374-1810.067Z" fill="#cc2939"/>
        </g>
        <g id="그룹_6047" data-name="그룹 6047">
          <path id="패스_7147" data-name="패스 7147" d="M441.761-1836.544a12.218,12.218,0,0,0,6.445,8.481c2.593,1.292,6.138,1.423,8.025-.775a13.983,13.983,0,0,1-10.914-9.34c-.561-1.75-.77-3.572-1.357-5.283a1.039,1.039,0,0,0-1.187-.061A9.84,9.84,0,0,0,441.761-1836.544Z" fill="#cc2939"/>
        </g>
        <g id="그룹_6048" data-name="그룹 6048">
          <path id="패스_7148" data-name="패스 7148" d="M461.892-1817.462a12.222,12.222,0,0,0,.225,10.65c1.338,2.57,4.128,4.76,6.948,4.093a13.984,13.984,0,0,1-3.336-13.974c.575-1.744,1.477-3.341,2.009-5.071a1.042,1.042,0,0,0-.924-.747A9.843,9.843,0,0,0,461.892-1817.462Z" fill="#cc2939"/>
        </g>
        <g id="그룹_6049" data-name="그룹 6049">
          <path id="패스_7149" data-name="패스 7149" d="M391.086-1798.388c.352.179.748.387.859.766a1.525,1.525,0,0,1-.31,1.12,9.959,9.959,0,0,0-.036,9.534,13.313,13.313,0,0,1,5.182-10.183c.623-.474,1.375-1.093,1.2-1.856-.132-.583-.75-.9-1.305-1.121a55.926,55.926,0,0,1-6.977-2.889,11.028,11.028,0,0,1-5.01-6C382.9-1805.026,387.61-1800.16,391.086-1798.388Z" fill="#cd4656"/>
        </g>
        <g id="그룹_6050" data-name="그룹 6050">
          <path id="패스_7150" data-name="패스 7150" d="M421.2-1855.02a14.98,14.98,0,0,0,16.6,6.284,11.769,11.769,0,0,1-11.976,3.622c-4.2-1.335-7.29-5.89-6.476-10.225" fill="#cc2939"/>
        </g>
        <g id="그룹_6051" data-name="그룹 6051">
          <path id="패스_7151" data-name="패스 7151" d="M450.788-1863.2a11.615,11.615,0,0,0,10.5,8.9,9.125,9.125,0,0,1-9.689-.463,7.328,7.328,0,0,1-2.076-9.151" fill="#cc2939"/>
        </g>
        <g id="그룹_6052" data-name="그룹 6052">
          <path id="패스_7152" data-name="패스 7152" d="M475.724-1833.459a11.614,11.614,0,0,0,3.807,13.226,9.126,9.126,0,0,1-7.809-5.754,7.326,7.326,0,0,1,3.341-8.769" fill="#cc2939"/>
        </g>
      </g>
    </g>
    <g id="그룹_6067" data-name="그룹 6067">
      <g id="그룹_6055" data-name="그룹 6055">
        <path id="패스_7153" data-name="패스 7153" d="M294.187-1796.778a18.785,18.785,0,0,1,10.942-18.586,18.784,18.784,0,0,1,17.137-17.343,18.785,18.785,0,0,1,16.669-13.926,18.7,18.7,0,0,1,9.152,1.573,18.713,18.713,0,0,1,12.259-5.929,18.778,18.778,0,0,1,20.209,17.231,18.7,18.7,0,0,1-.95,7.567,18.782,18.782,0,0,1,16.717,17.181,18.874,18.874,0,0,1-.12,4.071,18.776,18.776,0,0,1,11.248,15.74,18.953,18.953,0,0,1-.015,3.135,18.733,18.733,0,0,1,7.443,13.521,18.781,18.781,0,0,1-17.232,20.21,18.7,18.7,0,0,1-8.049-1.124,18.71,18.71,0,0,1-12.508,6.209,18.777,18.777,0,0,1-17.611-9.09,18.691,18.691,0,0,1-10.523,4.29,18.783,18.783,0,0,1-18.674-11.147,18.681,18.681,0,0,1-5.924-1.829,18.707,18.707,0,0,1-7.563,2.268,18.78,18.78,0,0,1-20.21-17.231,18.707,18.707,0,0,1,.934-7.521A18.68,18.68,0,0,1,294.187-1796.778Z" fill="#d63652"/>
      </g>
      <g id="그룹_6066" data-name="그룹 6066">
        <g id="그룹_6056" data-name="그룹 6056">
          <path id="패스_7154" data-name="패스 7154" d="M392.288-1797.747a12.218,12.218,0,0,1-8.613,6.267c-2.856.491-6.288-.405-7.463-3.053a13.985,13.985,0,0,0,13.142-5.8c1.04-1.514,1.765-3.2,2.82-4.669a1.04,1.04,0,0,1,1.154.283A9.84,9.84,0,0,1,392.288-1797.747Z" fill="#cc2939"/>
        </g>
        <g id="그룹_6057" data-name="그룹 6057">
          <path id="패스_7155" data-name="패스 7155" d="M372.538-1768.763a10.91,10.91,0,0,1-3.522,8.833c-1.923,1.73-4.942,2.688-7.09,1.247a12.484,12.484,0,0,0,7.163-10.638c.066-1.639-.189-3.256-.092-4.868a.93.93,0,0,1,1.007-.336A8.786,8.786,0,0,1,372.538-1768.763Z" fill="#cc2939"/>
        </g>
        <g id="그룹_6058" data-name="그룹 6058">
          <path id="패스_7156" data-name="패스 7156" d="M370.7-1783.04a9.371,9.371,0,0,1-6.3,5.2c-2.163.51-4.834-.014-5.858-1.986a10.728,10.728,0,0,0,9.79-5.061c.725-1.208,1.2-2.532,1.94-3.707a.8.8,0,0,1,.9.162A7.547,7.547,0,0,1,370.7-1783.04Z" fill="#cc2939"/>
        </g>
        <g id="그룹_6059" data-name="그룹 6059">
          <path id="패스_7157" data-name="패스 7157" d="M396.22-1777.508a9.375,9.375,0,0,1-6.3,5.2c-2.163.51-4.833-.014-5.858-1.987a10.728,10.728,0,0,0,9.79-5.06c.726-1.209,1.2-2.533,1.94-3.708a.8.8,0,0,1,.9.163A7.545,7.545,0,0,1,396.22-1777.508Z" fill="#cc2939"/>
        </g>
        <g id="그룹_6060" data-name="그룹 6060">
          <path id="패스_7158" data-name="패스 7158" d="M352.833-1803.985a12.223,12.223,0,0,1-6.445,8.481c-2.593,1.293-6.138,1.423-8.026-.774a13.987,13.987,0,0,0,10.915-9.341c.56-1.75.77-3.572,1.357-5.283a1.038,1.038,0,0,1,1.186-.061A9.836,9.836,0,0,1,352.833-1803.985Z" fill="#cc2939"/>
        </g>
        <g id="그룹_6061" data-name="그룹 6061">
          <path id="패스_7159" data-name="패스 7159" d="M332.7-1784.9a12.221,12.221,0,0,1-.226,10.65c-1.337,2.57-4.128,4.76-6.947,4.093a13.983,13.983,0,0,0,3.336-13.973c-.576-1.745-1.478-3.342-2.009-5.071a1.041,1.041,0,0,1,.924-.748A9.847,9.847,0,0,1,332.7-1784.9Z" fill="#cc2939"/>
        </g>
        <g id="그룹_6062" data-name="그룹 6062">
          <path id="패스_7160" data-name="패스 7160" d="M403.508-1765.829c-.352.179-.748.387-.859.767a1.523,1.523,0,0,0,.309,1.119,9.959,9.959,0,0,1,.037,9.534,13.317,13.317,0,0,0-5.182-10.183c-.624-.473-1.376-1.092-1.2-1.856.131-.583.75-.9,1.305-1.121a55.945,55.945,0,0,0,6.977-2.889,11.029,11.029,0,0,0,5.01-6C411.693-1772.466,406.983-1767.6,403.508-1765.829Z" fill="#cc2939"/>
        </g>
        <g id="그룹_6063" data-name="그룹 6063">
          <path id="패스_7161" data-name="패스 7161" d="M373.392-1822.46a14.982,14.982,0,0,1-16.6,6.283,11.77,11.77,0,0,0,11.976,3.622c4.2-1.334,7.291-5.89,6.477-10.224" fill="#cc2939"/>
        </g>
        <g id="그룹_6064" data-name="그룹 6064">
          <path id="패스_7162" data-name="패스 7162" d="M343.8-1830.641a11.614,11.614,0,0,1-10.5,8.9A9.127,9.127,0,0,0,343-1822.2a7.328,7.328,0,0,0,2.076-9.151" fill="#cc2939"/>
        </g>
        <g id="그룹_6065" data-name="그룹 6065">
          <path id="패스_7163" data-name="패스 7163" d="M318.87-1800.9a11.614,11.614,0,0,1-3.807,13.226,9.125,9.125,0,0,0,7.809-5.754,7.326,7.326,0,0,0-3.341-8.768" fill="#cc2939"/>
        </g>
      </g>
    </g>
    <g id="그룹_6068" data-name="그룹 6068">
      <path id="패스_7164" data-name="패스 7164" d="M326.279-1865.7s8.382,21.315-4.338,39.366C321.941-1826.332,309.777-1849.513,326.279-1865.7Z" fill="#579543"/>
    </g>
    <g id="그룹_6069" data-name="그룹 6069">
      <path id="패스_7165" data-name="패스 7165" d="M286.426-1838.7s23.4-7.231,35.209,9.348C321.635-1829.355,307.282-1825.493,286.426-1838.7Z" fill="#579543"/>
    </g>
    <g id="그룹_6070" data-name="그룹 6070">
      <path id="패스_7166" data-name="패스 7166" d="M301.524-1863.389s13.666,9.251,20.417,37.057C321.941-1826.332,298.638-1838.185,301.524-1863.389Z" fill="#86b049"/>
    </g>
    <g id="그룹_6071" data-name="그룹 6071">
      <path id="패스_7167" data-name="패스 7167" d="M274.452-1812.988s16.016-24.985,47.489-16.231C321.941-1829.219,298.833-1808.669,274.452-1812.988Z" fill="#86b049"/>
    </g>
  </g>
</svg>
