<svg xmlns="http://www.w3.org/2000/svg" viewBox="0 0 304.72 81.7"><defs><style>.cls-1{fill:#fcc01b;}</style></defs><title>Asset 64</title><g id="Layer_2" data-name="Layer 2"><g id="Layer_1-2" data-name="Layer 1"><path class="cls-1" d="M9.33,38.53c4.05,0,7,3,7,6,0,2.22-1.45,5.2-4.81,5.2-1.23,0-2.37-.38-3.6-.38,2.22,7.64,17.43,4,17.43-2.52,0-4.21-7.64-7.88-12.53-9-7-1.6-10.55-3-10.55-9.7,0-7.57,6.65-12.31,15.9-12.92,15.44-1,23,17.12,8.94,19.49h-.23c-3.44,0-6.11-2.37-6.11-5.12,0-3.06,2.21-4.59,5.88-4.59C24.54,13.38,9.4,20.26,9.4,27.75c0,8.33,26.07,7.34,26.07,19.11,0,6.19-8.18,11.93-16,11.93C8.94,58.79,0,56,0,46.79,0,42.2,3.29,38.53,9.33,38.53Z"/><path class="cls-1" d="M41.28,0a7.71,7.71,0,0,1,8.11,7.72c0,4.21-3.22,7.72-8.11,7.72S33,11.93,33,7.72,36.39,0,41.28,0ZM36.47,21.86H47.25c-3,12.24.53,24.7,1.07,36.39H37.54C40.52,42.12,37,33.41,36.47,21.86Z"/><path class="cls-1" d="M63.3,61.85c3.13,0,7.57,1.37,7.57,5.73,0,4.74-4.9,6.11-8.26,6.11a12.9,12.9,0,0,1-4.82-1c.08,10.09,23.93,5.12,23.47-7.26s-24.92-6.27-30.42-6.27h-.46L62.08,48.7c-8.11-4.67-10-9-10-13.31,0-10.47,13.91-16,22.94-16.58a4.6,4.6,0,0,1-2.91-4c0-4.28,4.2-8.18,8.1-8.18A6.54,6.54,0,0,1,86.84,13c0,4.51-7,4.51-9.55,3.21,0,.76.23,1.91.92,2.14,10.62,4.89,13.22,10.16,13.22,14.37,0,16.66-13.76,17-25.61,17-.69,0-6.34,3.59-6.73,4.51,10.17-3.36,34.1-3.13,34.1,13.07,0,4.59-3.14,8.26-6.65,10.25-7,3.82-35.78,9.55-35.78-6.73C50.76,64.75,58.87,61.85,63.3,61.85ZM70.94,44c6.5,0,12.77-2.83,12.77-10.47,0-5.58-5.89-8.72-10.63-8.72C59.78,24.84,55.65,44,70.94,44Z"/><path class="cls-1" d="M94.8,21l8-.54.38,3.82.84-.91C107.18,20,109.09,18,114.75,18c18.19,0,15.29,29.66,9.78,43.19L118,59.86c-.16.61,8.25-33.56-6-33.56-7.87,0-7.95,10.62-7.95,15.82v1c.61,4.35,1,8.79,2.53,13.07L94.87,54.51a.91.91,0,0,1-.07-.23C96.63,40.44,96.55,34.94,94.8,21Z"/><path class="cls-1" d="M156.87,34.4c0-6.5-.46-18.42-10.24-18.42-3.67,0-7.34,2.44-7.34,6.57,0,2.14,1.61,2.6,3.06,2.6,0-2.37.15-4.59,3.13-4.59a3.2,3.2,0,0,1,3.37,3.29c0,3.75-2.83,5.2-6.35,5.2-3.75,0-7.11-2.14-7.11-6.35,0-7.26,7.72-11.31,14.07-11.31,6,0,14.37,3.44,14.37,10.63,0,5.81,1.45,32.1,1.83,35.24v.38c-2.37.31-7.41,1.15-9.48,1.07V53.28c-7.26,7.95-22.32,9.56-24.53-1.14C127.44,35.93,143.65,29.05,156.87,34.4ZM144.72,53.21c5,0,12.69-4.36,12.69-9.71,0-4.13-5.12-7.11-9.25-7.11-5.74,0-8.87,3.82-8.87,9.25C139.29,49,140.67,53.21,144.72,53.21Z"/><path class="cls-1" d="M168.11,27.67l5.81-.46c.38-7.95,0-9.63-.76-25.53L184,2.29,181,26.91l11.93-2L191.2,31,181,31.5c.16,8.56.84,26.9,10.17,27.9,5.89,0,10-3,8.49-8.49-3.44,5.35-10.71,3.67-10.71-3,0-9.71,12.54-8.11,13.92.76,1.45,9.25-3.06,15.59-11.85,15.59-16.51,0-20-15.59-17.35-32.1l-4.29,1.07Z"/><path class="cls-1" d="M229.27,52.52C217.42,63.37,204.5,54.05,204,39.22c-.07-2.76.08-15.6-2.29-18l12.54-1.37c.22,7.33-9.64,31,5.73,31,14.52,0,6.73-24.7,3.44-31.65a64,64,0,0,1,12.23-1c-.84,8.34-2.14,18.43,1.38,38l-6.35.84Z"/><path class="cls-1" d="M240.43,60.09c.84,0,3.29-20.11-1.15-46.64l6.73.46.31,3.37c3.82-3.67,9-6.5,14.14-6.5,7.8,0,9.33,7.57,9.33,15.29,0,11.24-15.14,10.7-15.14,1.14,0-4.51,2.6-7,7.49-7a9.27,9.27,0,0,1,3.14.46v-.15c-.85-2.53-4.21-3.67-6.5-3.67-19.95,0-4.82,43.11-5.89,42ZM265.5,21a.12.12,0,1,0,0-.23C265.43,20.79,265.43,21,265.5,21Z"/><path class="cls-1" d="M289.13,13.68c9.78,0,13.53,9.25,14.29,17.74l-21.94,4.89a26.43,26.43,0,0,0,3.37,13.61c3.44,6.27,14.75,5,14.9-3.13v-.31a4.61,4.61,0,0,1-4,1.6c-3.29,0-5.43-1.75-5.43-5.12.31-3.28,3-6.72,6.42-6.72h.46c4.28,0,7.49,2.59,7.49,6.95,0,7.57-4.51,15.29-12.84,15.29h-.69c-13.45,0-17.73-13.3-18.19-24.69C273,24.84,279,13.68,289.13,13.68Zm-7.19,17.89,15.37-2.14c0-3.74-3.06-9.48-7.34-9.48C284.92,20,281.94,27.29,281.94,31.57Z"/></g></g></svg>