<svg xmlns="http://www.w3.org/2000/svg" viewBox="0 0 431.28 63.47"><defs><style>.cls-1{fill:#ff6e1d;}</style></defs><title>Asset 11</title><g id="Layer_2" data-name="Layer 2"><g id="Layer_1-2" data-name="Layer 1"><path class="cls-1" d="M0,62.18A241.41,241.41,0,0,0,2,32,240.27,240.27,0,0,0,0,1.81C10.75,1.81,16.51.09,23.48.09c14.1,0,23.65,4.64,23.65,13.67,0,5.16-3.27,10.58-9.38,13.5,8.43,1.89,12.65,9.2,12.65,16.6C50.4,57.53,37.58,63,21.16,63,14.53,63,10.75,62.18,0,62.18ZM33.88,43.52c0-7.92-3.26-11-7.65-12.22-5.07-1.37-7.4-3.61-7.4-6.45s2.24-5,5.68-5a2.38,2.38,0,1,1,0,4.73c-2.41,0-3.1,1-3.1,2s.86,1.9,2.67,1.9c3.61,0,8-2.84,8-13.33,0-8.17-4.82-11.7-12.3-11.7a20.69,20.69,0,0,0-2.32.09c-.69,9.28-1,19.09-1,28.81,0,9.45.34,18.74,1,27.26a18.36,18.36,0,0,0,3,.17C29.24,59.77,33.88,53.75,33.88,43.52Z"/><path class="cls-1" d="M62.09,61.4a34.65,34.65,0,0,0-7.14.78Q56.24,47.08,56.24,32T55,1.81C63.81,1.81,77.66,0,83.68,0,96.23,0,99.33,5.25,99.33,10.58s-3.79,10.66-12,10.66c-6.36,0-8.6-3.35-8.6-6.36,0-2.41,1.72-4.56,3.87-4.56A1.73,1.73,0,0,1,84.54,12c0,.86-.61,1.72-2.58,1.72-1.55,0-2.33.6-2.33,1.2s1,1.47,3,1.47a5.37,5.37,0,0,0,5.77-5.59c0-5.68-4.22-8-9.89-8a26.89,26.89,0,0,0-7.14,1c0,5.76,0,18-.09,25.54h2.58c5.68,0,13-1,17.29-5.16v12.9C86.86,33,79.55,32,73.87,32H71.29c0,9.2.43,18.66,1.29,27.86a49.33,49.33,0,0,0,7.74.78c4.9,0,9.55-1.38,9.55-7,0-3-1.89-5.85-6.19-5.85-2.07,0-3,.78-3,1.47s.77,1.2,2.32,1.2c2,0,2.58.86,2.58,1.72a1.72,1.72,0,0,1-1.89,1.72c-2.15,0-3.87-2.15-3.87-4.56,0-5.33,5.07-8.17,10.49-8.17,7.57,0,11.87,5.08,11.87,10.41,0,5.76-5.16,11.87-17,11.87C75.85,63.47,69.31,61.4,62.09,61.4Z"/><path class="cls-1" d="M124.53,62.18c-1.9-16.34-11.61-45.41-20-60.37h18.84c0,11.78,8.42,34.65,16.51,53.83,7.31-21.93,11.69-39.13,11.69-53.83h10.32C153,23.05,145.42,44.38,144.31,62.18Z"/><path class="cls-1" d="M172.6,61.4a34.65,34.65,0,0,0-7.14.78q1.29-15.1,1.29-30.19T165.46,1.81c8.86,0,22.71-1.81,28.72-1.81,12.56,0,15.66,5.25,15.66,10.58s-3.79,10.66-12,10.66c-6.36,0-8.6-3.35-8.6-6.36,0-2.41,1.72-4.56,3.87-4.56A1.72,1.72,0,0,1,195,12c0,.86-.6,1.72-2.58,1.72-1.54,0-2.32.6-2.32,1.2s1,1.47,3,1.47a5.37,5.37,0,0,0,5.77-5.59c0-5.68-4.22-8-9.9-8a26.87,26.87,0,0,0-7.13,1c0,5.76,0,18-.09,25.54h2.58c5.68,0,13-1,17.29-5.16v12.9C197.37,33,190.06,32,184.38,32H181.8c0,9.2.43,18.66,1.29,27.86a49.33,49.33,0,0,0,7.74.78c4.9,0,9.55-1.38,9.55-7,0-3-1.89-5.85-6.2-5.85-2.06,0-3,.78-3,1.47s.78,1.2,2.33,1.2c2,0,2.58.86,2.58,1.72a1.72,1.72,0,0,1-1.9,1.72c-2.14,0-3.86-2.15-3.86-4.56,0-5.33,5.07-8.17,10.49-8.17,7.56,0,11.86,5.08,11.86,10.41,0,5.76-5.16,11.87-16.94,11.87C186.36,63.47,179.82,61.4,172.6,61.4Z"/><path class="cls-1" d="M217.23,62.18a224.68,224.68,0,0,0,2.07-31.31c0-10.14-.61-21.84-2.07-29.06C227.9,1.81,238,0,245.53,0c12,0,19,7,19,14,0,7.22-7.31,14.45-20.55,14.45v.43c13.76,3.09,22.27,9.2,22.27,33.28H248.36c0-12-1.72-19.35-4-24.34-3.53-8.17-8.17-10.06-8.17-15.05,0-3.78,2.58-5.25,4.3-5.25,2.06,0,2.84,1.29,2.84,2.41s-.61,2.15-1.64,2.15c-2.32,0-3.52,1.21-3.52,2.24s1,2,3,2c4.3,0,8.6-4.05,8.6-12.39,0-7-4-10.66-10.41-10.66a22.72,22.72,0,0,0-4.56.51c-.86,9.29-1.29,18.84-1.29,29.24,0,10.06.43,20.13,1.29,29.16Z"/><path class="cls-1" d="M269.86,62.18c8.69-20.13,18.41-44,20.81-60.37H308.3a425.23,425.23,0,0,0,21.59,60.37H312.26c-2.58-9.55-10-14.37-16.77-14.37s-12.73,4.73-12.73,14.37Zm27.69-17.37a19.25,19.25,0,0,1,10.32,2.66c-3.61-11.95-9.63-28.29-14.44-39.82-4.91,14.11-8.6,28.56-10.07,42.49C286.55,46.52,292.14,44.81,297.55,44.81Z"/><path class="cls-1" d="M327.23,30.7C327.23,9.37,343.39,0,357.67,0,368.93,0,379,5.76,379,16.25c0,6.54-4.65,12.47-13.85,12.47C357,28.72,353,23.05,353,18.15c0-3.87,2.32-8.43,7-8.43a2.44,2.44,0,0,1,2.67,2.49A2.63,2.63,0,0,1,360,14.88c-3.35-.09-4.9,1.37-4.9,2.66a4.39,4.39,0,0,0,4.64,4.3c3.19,0,6.71-2.58,6.71-9S362.57,2.58,358,2.58c-6.19,0-13.59,7.05-13.59,23.82,0,21.16,7.4,33.88,12.82,33.88,4.21,0,6.19-6.7,6.19-14a36.49,36.49,0,0,0-1.8-11.78h17.62a52.49,52.49,0,0,0,0,23.13,43.55,43.55,0,0,1-21,5.5C342.28,63.12,327.23,53.75,327.23,30.7Z"/><path class="cls-1" d="M391.21,61.4a34.65,34.65,0,0,0-7.14.78q1.29-15.1,1.29-30.19T384.07,1.81c8.86,0,22.7-1.81,28.72-1.81,12.56,0,15.66,5.25,15.66,10.58s-3.79,10.66-12,10.66c-6.36,0-8.6-3.35-8.6-6.36,0-2.41,1.72-4.56,3.87-4.56a1.73,1.73,0,0,1,1.9,1.72c0,.86-.61,1.72-2.58,1.72-1.55,0-2.33.6-2.33,1.2s.95,1.47,3,1.47a5.37,5.37,0,0,0,5.76-5.59c0-5.68-4.21-8-9.89-8a26.87,26.87,0,0,0-7.13,1c0,5.76,0,18-.09,25.54H403c5.68,0,13-1,17.29-5.16v12.9C416,33,408.67,32,403,32h-2.58c0,9.2.43,18.66,1.29,27.86a49.33,49.33,0,0,0,7.74.78c4.9,0,9.55-1.38,9.55-7,0-3-1.9-5.85-6.2-5.85-2.06,0-3,.78-3,1.47s.78,1.2,2.33,1.2c2,0,2.58.86,2.58,1.72a1.73,1.73,0,0,1-1.9,1.72c-2.14,0-3.87-2.15-3.87-4.56,0-5.33,5.08-8.17,10.5-8.17,7.57,0,11.86,5.08,11.86,10.41,0,5.76-5.16,11.87-16.94,11.87C405,63.47,398.43,61.4,391.21,61.4Z"/></g></g></svg>