<svg xmlns="http://www.w3.org/2000/svg" viewBox="0 0 303.75 63.47"><defs><style>.cls-1{fill:#ffc112;}</style></defs><title>Asset 8</title><g id="Layer_2" data-name="Layer 2"><g id="Layer_1-2" data-name="Layer 1"><path class="cls-1" d="M0,62.18Q1.29,47.08,1.29,32T0,1.81C9.8,1.81,18.83,0,27.35,0,44.29,0,55.47,11.44,55.47,31.05c0,22.87-15.22,32.24-30.27,32.24C13.67,63.29,11.18,62.18,0,62.18ZM37.84,31.05c0-19.87-7.31-28.38-20.21-27.35-.52,9.2-.86,18.83-.86,28.38s.34,19.26.86,28.46C29.24,61.15,37.84,51,37.84,31.05Z"/><path class="cls-1" d="M61.15,31.91C61.15,10.66,77,0,93,0c15.73,0,31.64,10.58,31.64,31.82S108.7,63.47,92.88,63.47,61.15,53,61.15,31.91Zm47,6.88c0-16.52-7-36.21-19.18-36.21-8,0-11.7,10.58-11.7,22.7,0,16.43,6.8,35.61,19.27,35.61C104.49,60.89,108.19,50.65,108.19,38.79Z"/><path class="cls-1" d="M127.71,62.18c3.44-20.13,2.58-40.25.86-60.37h18.15a558.76,558.76,0,0,0,29.84,54.26c.94-20.47-4.3-40.59-9-54.26h13.76c-3.44,15.48-2.58,40.24-.86,60.37h-19.1c-9.28-17.37-17.19-34.92-29-52.29-.86,18.66,2.58,41.36,9.12,52.29Z"/><path class="cls-1" d="M186.71,39c0-8.25.77-16.51.77-24.85a85.66,85.66,0,0,0-.77-12.38h17.62c-.85,10.23-1.63,20.72-1.63,30,0,16.85,2.49,29.67,11.27,29.67S225.23,48.76,225.23,32c0-9.37-.77-19.86-1.63-30.18h17.63a85.68,85.68,0,0,0-.78,12.38c0,8.34.78,16.6.78,24.85,0,18.06-13.68,24.43-27.26,24.43S186.71,57.1,186.71,39Z"/><path class="cls-1" d="M265.48,62.26c1.2-13.59,2.41-27.26,2.41-40.93,0-5.68-.17-11.27-.69-16.94H262c-3.61,0-6.7,2.06-6.7,7.22,0,3.1,2,6.11,5.41,6.11,2.07,0,3-.78,3-1.47s-.77-1.2-2.32-1.2c-2,0-2.58-.86-2.58-1.72a1.72,1.72,0,0,1,1.89-1.72c2.15,0,3.87,2.15,3.87,4.56,0,5-4.47,7.57-9.2,7.57-5.33,0-11-3.36-11-10.5,0-5.5,4.22-11.43,14.19-11.43h31.05c10,0,14.19,5.93,14.19,11.43,0,7.14-5.68,10.5-11,10.5-4.73,0-9.2-2.58-9.2-7.57,0-2.41,1.72-4.56,3.87-4.56a1.72,1.72,0,0,1,1.89,1.72c0,.86-.6,1.72-2.58,1.72-1.55,0-2.32.6-2.32,1.2s1,1.47,3,1.47c3.44,0,5.42-3,5.42-6.11,0-5.16-3.1-7.22-6.71-7.22h-4.73c-.52,5.67-.69,11.26-.69,16.94,0,13.67,1.21,27.34,2.41,40.93Z"/></g></g></svg>