<svg xmlns="http://www.w3.org/2000/svg" viewBox="0 0 411.93 63.47"><defs><style>.cls-1{fill:#ff5c5c;}</style></defs><title>Asset 9</title><g id="Layer_2" data-name="Layer 2"><g id="Layer_1-2" data-name="Layer 1"><path class="cls-1" d="M0,31.48C0,9.12,16.08,0,29.76,0,39.9,0,48.85,5.07,48.85,13.67c0,5.42-4,10.41-11,10.41-7.22,0-10.58-4.56-10.58-8.77,0-3.61,2.41-7.14,6.54-7.14,1.29,0,1.89.69,1.89,1.38a1.27,1.27,0,0,1-1.29,1.29c-1.29,0-1.72-.61-3.27-.61-.94,0-1.46.95-1.46,2,0,1.89,1.72,3,3.53,3,2.15,0,4.47-1.63,4.47-5.42,0-3.35-2.24-7-6.45-7-9,0-14,13.07-14,26.92,0,22.62,9,31,15.74,31,4,0,7.14-3,7.14-7.73s-2.58-7.23-4.3-7.23c-.86,0-1.55.6-1.55,1.81,0,1.37,2.49,1.8,2.49,4.21a1.94,1.94,0,0,1-1.89,2.06c-1.12,0-2.32-.94-2.32-2.92a9.46,9.46,0,0,1,8.94-9.8A8.16,8.16,0,0,1,50,49.62C50,58,42.31,63.47,30.19,63.47,14.19,63.47,0,53.4,0,31.48Z"/><path class="cls-1" d="M54.44,39c0-8.25.77-16.51.77-24.85a85.66,85.66,0,0,0-.77-12.38H72.07c-.86,10.23-1.64,20.72-1.64,30,0,16.85,2.5,29.67,11.27,29.67S93,48.76,93,32c0-9.37-.77-19.86-1.63-30.18H109a85.66,85.66,0,0,0-.77,12.38c0,8.34.77,16.6.77,24.85C109,57.1,95.29,63.47,81.7,63.47S54.44,57.1,54.44,39Z"/><path class="cls-1" d="M115.41,62.18Q116.7,47.08,116.7,32T115.41,1.81c13.5,0,20.47-1.81,29.33-1.81C158.24,0,165,10.32,165,21.5,165,37.67,153.51,44,143.36,44a19.46,19.46,0,0,1-11.52-3.44c.17,7.22.6,14.36,1.2,21.59ZM147.32,21.5c0-10.41-2.41-18.32-10.93-18.32a15.71,15.71,0,0,0-3.35.35c-.86,9.89-1.29,20.29-1.2,28,.08,6.7,2.75,9,5.76,9C142,40.51,147.32,35.52,147.32,21.5Z"/><path class="cls-1" d="M184.55,31.48C184.55,9.12,200.63,0,214.31,0c10.15,0,19.09,5.07,19.09,13.67,0,5.42-4,10.41-11,10.41-7.22,0-10.58-4.56-10.58-8.77,0-3.61,2.41-7.14,6.54-7.14,1.29,0,1.89.69,1.89,1.38A1.27,1.27,0,0,1,219,10.84c-1.29,0-1.72-.61-3.27-.61-.94,0-1.46.95-1.46,2,0,1.89,1.72,3,3.53,3,2.15,0,4.47-1.63,4.47-5.42,0-3.35-2.24-7-6.45-7-9,0-14,13.07-14,26.92,0,22.62,9,31,15.74,31,4,0,7.14-3,7.14-7.73s-2.58-7.23-4.3-7.23c-.86,0-1.55.6-1.55,1.81,0,1.37,2.49,1.8,2.49,4.21a1.94,1.94,0,0,1-1.89,2.06c-1.12,0-2.32-.94-2.32-2.92a9.46,9.46,0,0,1,8.94-9.8,8.17,8.17,0,0,1,8.52,8.51c0,8.34-7.66,13.85-19.78,13.85C198.74,63.47,184.55,53.4,184.55,31.48Z"/><path class="cls-1" d="M236.33,62.18c8.68-20.13,18.4-44,20.81-60.37h17.63a423.93,423.93,0,0,0,21.58,60.37H278.72c-2.58-9.55-10-14.37-16.77-14.37s-12.72,4.73-12.72,14.37ZM264,44.81a19.3,19.3,0,0,1,10.32,2.66c-3.62-11.95-9.63-28.29-14.45-39.82-4.9,14.11-8.6,28.56-10.06,42.49C253,46.52,258.6,44.81,264,44.81Z"/><path class="cls-1" d="M339.52,62.26C337,40.94,330.24,29.5,323.87,29.5a7,7,0,0,0-5.24,2.84l-1.72,2q.12,13.94,1.29,27.87H300.57q1.29-15.1,1.29-30.19T300.57,1.81H318.2c-.86,9.54-1.29,19.17-1.29,28.72L334.54,9.29C339.61,3.18,345.46.52,350.36.52c6.11,0,10.75,4.12,10.75,10.75,0,6.27-4.3,12.9-13.33,12.9-6.62,0-9.29-4.05-9.29-7.14,0-2,1-3.53,2.75-3.53A1.54,1.54,0,0,1,343,15.05a1.26,1.26,0,0,1-1.29,1.29,1.42,1.42,0,0,0-1.54,1.46A2.39,2.39,0,0,0,342.79,20c1.89,0,4.13-1.38,4.13-4.73,0-5.16-7.74-8-14.19,0L323.1,27.18l.08.08a23.2,23.2,0,0,1,7-1.12c14.36,0,24.08,15,28.9,36.29Z"/><path class="cls-1" d="M371.86,61.4a34.65,34.65,0,0,0-7.14.78Q366,47.08,366,32T364.72,1.81c8.86,0,22.7-1.81,28.73-1.81C406,0,409.1,5.25,409.1,10.58s-3.79,10.66-12,10.66c-6.36,0-8.6-3.35-8.6-6.36,0-2.41,1.72-4.56,3.87-4.56A1.72,1.72,0,0,1,394.3,12c0,.86-.6,1.72-2.58,1.72-1.54,0-2.32.6-2.32,1.2s1,1.47,3,1.47a5.37,5.37,0,0,0,5.76-5.59c0-5.68-4.21-8-9.88-8a26.89,26.89,0,0,0-7.14,1c0,5.76,0,18-.09,25.54h2.58c5.68,0,13-1,17.29-5.16v12.9C396.63,33,389.32,32,383.64,32h-2.58c0,9.2.43,18.66,1.29,27.86a49.33,49.33,0,0,0,7.74.78c4.9,0,9.55-1.38,9.55-7,0-3-1.89-5.85-6.19-5.85-2.07,0-3,.78-3,1.47s.77,1.2,2.32,1.2c2,0,2.58.86,2.58,1.72a1.72,1.72,0,0,1-1.89,1.72c-2.16,0-3.87-2.15-3.87-4.56,0-5.33,5.07-8.17,10.49-8.17,7.56,0,11.86,5.08,11.86,10.41,0,5.76-5.16,11.87-16.94,11.87C385.62,63.47,379.08,61.4,371.86,61.4Z"/></g></g></svg>