<svg xmlns="http://www.w3.org/2000/svg" viewBox="0 0 203.38 56.02"><defs><style>.cls-1{fill:#516f3c;}</style></defs><title>Asset 26</title><g id="Layer_2" data-name="Layer 2"><g id="Layer_1-2" data-name="Layer 1"><path class="cls-1" d="M0,54.88C3.11,41,3,19.36,1.52,1.59H17.76c.61,11.54,4.33,24.37,10,36.59C33.93,25.35,38,13.51,38,1.59H53.21c-1.51,10.1-1.51,35.53,0,53.29H37.65a251.44,251.44,0,0,0,.08-32.94Q30.67,38.46,25.2,54.88H20.12C16.17,42.21,11.16,23.46,5,9,4.4,22.55,6.45,43.42,10.25,54.88Z"/><path class="cls-1" d="M64.53,54.2a31.1,31.1,0,0,0-6.3.68q1.14-13.32,1.14-26.64T58.23,1.59c7.82,0,20-1.59,25.35-1.59C94.67,0,97.4,4.63,97.4,9.34s-3.34,9.41-10.55,9.41c-5.62,0-7.59-3-7.59-5.62,0-2.12,1.52-4,3.41-4a1.52,1.52,0,0,1,1.67,1.52c0,.76-.53,1.52-2.27,1.52-1.37,0-2,.53-2,1.06s.83,1.29,2.65,1.29a4.74,4.74,0,0,0,5.09-4.94c0-5-3.72-7-8.73-7a23.73,23.73,0,0,0-6.3.91c0,5.08,0,15.86-.08,22.54h2.28c5,0,11.46-.91,15.26-4.55V32.79c-3.8-3.64-10.25-4.55-15.26-4.55H72.65c0,8.12.38,16.47,1.14,24.59a43.5,43.5,0,0,0,6.83.69c4.33,0,8.43-1.22,8.43-6.15,0-2.66-1.67-5.16-5.47-5.16-1.82,0-2.65.68-2.65,1.29s.68,1.06,2,1.06c1.74,0,2.27.76,2.27,1.52a1.52,1.52,0,0,1-1.67,1.52c-1.89,0-3.41-1.9-3.41-4,0-4.7,4.48-7.21,9.26-7.21,6.68,0,10.48,4.48,10.48,9.19C99.91,50.63,95.35,56,85,56,76.68,56,70.91,54.2,64.53,54.2Z"/><path class="cls-1" d="M103.17,54.88c3-17.76,2.28-35.52.76-53.29h16A492.43,492.43,0,0,0,146.29,49.5c.84-18.07-3.79-35.84-8-47.91h12.15c-3,13.67-2.28,35.53-.76,53.29H132.86c-8.2-15.33-15.19-30.82-25.59-46.15-.76,16.47,2.28,36.51,8,46.15Z"/><path class="cls-1" d="M155.25,34.46c0-7.28.69-14.57.69-21.93a74.42,74.42,0,0,0-.69-10.94h15.57c-.76,9-1.45,18.3-1.45,26.5,0,14.88,2.2,26.19,9.95,26.19s9.94-11.24,9.94-26c0-8.28-.68-17.54-1.44-26.65h15.56a75.81,75.81,0,0,0-.68,10.94c0,7.36.68,14.65.68,21.93,0,15.95-12.07,21.56-24.06,21.56S155.25,50.41,155.25,34.46Z"/></g></g></svg>