<svg xmlns="http://www.w3.org/2000/svg" viewBox="0 0 308.22 63.47"><defs><style>.cls-1{fill:#68442c;}</style></defs><title>Asset 10</title><g id="Layer_2" data-name="Layer 2"><g id="Layer_1-2" data-name="Layer 1"><path class="cls-1" d="M0,31.48C0,9.12,16.08,0,29.76,0,39.9,0,48.85,5.07,48.85,13.67c0,5.42-4,10.41-11,10.41-7.22,0-10.58-4.56-10.58-8.77,0-3.61,2.41-7.14,6.54-7.14,1.29,0,1.89.69,1.89,1.38a1.27,1.27,0,0,1-1.29,1.29c-1.29,0-1.72-.61-3.27-.61-.94,0-1.46.95-1.46,2,0,1.89,1.72,3,3.53,3,2.15,0,4.47-1.63,4.47-5.42,0-3.35-2.24-7-6.45-7-9,0-14,13.07-14,26.92,0,22.62,9,31,15.74,31,4,0,7.14-3,7.14-7.73s-2.58-7.23-4.3-7.23c-.86,0-1.55.6-1.55,1.81,0,1.37,2.49,1.8,2.49,4.21a1.94,1.94,0,0,1-1.89,2.06c-1.12,0-2.32-.94-2.32-2.92a9.46,9.46,0,0,1,8.94-9.8A8.17,8.17,0,0,1,50,49.62C50,58,42.31,63.47,30.19,63.47,14.19,63.47,0,53.4,0,31.48Z"/><path class="cls-1" d="M51.86,31.91C51.86,10.66,67.68,0,83.68,0c15.74,0,31.64,10.58,31.64,31.82S99.42,63.47,83.59,63.47,51.86,53,51.86,31.91Zm47,6.88c0-16.52-7-36.21-19.18-36.21-8,0-11.69,10.58-11.69,22.7,0,16.43,6.79,35.61,19.26,35.61C95.2,60.89,98.9,50.65,98.9,38.79Z"/><path class="cls-1" d="M119.28,62.18q1.29-15.1,1.29-30.19T119.28,1.81a57.94,57.94,0,0,0,7.31.51C135.45,2.32,141.9,0,150.93,0c7.4,0,10.15,4.47,10.15,9.12,0,7.05-6.88,10.66-12.82,10.66s-8.42-3.1-8.42-6a4.36,4.36,0,0,1,4.38-4.47c1.38,0,2,.77,2,1.55a1.5,1.5,0,0,1-1.63,1.46c-2.58,0-3.7.6-3.7,1.89,0,1,.94,1.46,2.15,1.46a6.21,6.21,0,0,0,6.1-6.36c0-3-2.06-6.11-7.74-6.11a21.86,21.86,0,0,0-4.47.52c-.77,8.34-1.2,17.37-1.29,25.71h3.53c5.59,0,11.18-1,15.48-5.16v12.9C150.33,33,144.74,32,139.15,32h-3.53q0,15.09,1.29,30.19Z"/><path class="cls-1" d="M164.26,62.18q1.29-15.1,1.29-30.19T164.26,1.81a57.81,57.81,0,0,0,7.31.51c8.86,0,15.31-2.32,24.34-2.32,7.39,0,10.14,4.47,10.14,9.12,0,7.05-6.88,10.66-12.81,10.66s-8.43-3.1-8.43-6a4.37,4.37,0,0,1,4.39-4.47c1.37,0,2,.77,2,1.55a1.5,1.5,0,0,1-1.64,1.46c-2.58,0-3.69.6-3.69,1.89,0,1,.94,1.46,2.15,1.46a6.21,6.21,0,0,0,6.1-6.36c0-3-2.06-6.11-7.74-6.11a21.86,21.86,0,0,0-4.47.52c-.77,8.34-1.2,17.37-1.29,25.71h3.53c5.58,0,11.17-1,15.48-5.16v12.9C195.3,33,189.71,32,184.13,32H180.6q0,15.09,1.29,30.19Z"/><path class="cls-1" d="M216.38,61.4a34.5,34.5,0,0,0-7.14.78q1.29-15.1,1.29-30.19T209.24,1.81C218.09,1.81,231.94,0,238,0c12.56,0,15.65,5.25,15.65,10.58s-3.78,10.66-12,10.66c-6.37,0-8.6-3.35-8.6-6.36,0-2.41,1.72-4.56,3.87-4.56A1.72,1.72,0,0,1,238.82,12c0,.86-.6,1.72-2.58,1.72-1.55,0-2.32.6-2.32,1.2s.94,1.47,3,1.47a5.37,5.37,0,0,0,5.76-5.59c0-5.68-4.21-8-9.89-8a27,27,0,0,0-7.14,1c0,5.76,0,18-.08,25.54h2.58c5.67,0,13-1,17.28-5.16v12.9C241.14,33,233.83,32,228.16,32h-2.58c0,9.2.43,18.66,1.29,27.86a49.2,49.2,0,0,0,7.74.78c4.9,0,9.54-1.38,9.54-7,0-3-1.89-5.85-6.19-5.85-2.06,0-3,.78-3,1.47s.77,1.2,2.32,1.2c2,0,2.58.86,2.58,1.72A1.72,1.72,0,0,1,238,53.92c-2.15,0-3.87-2.15-3.87-4.56,0-5.33,5.07-8.17,10.49-8.17,7.57,0,11.87,5.08,11.87,10.41,0,5.76-5.16,11.87-16.94,11.87C230.13,63.47,223.6,61.4,216.38,61.4Z"/><path class="cls-1" d="M268.15,61.4a34.5,34.5,0,0,0-7.14.78Q262.3,47.08,262.3,32T261,1.81c8.86,0,22.7-1.81,28.72-1.81,12.56,0,15.65,5.25,15.65,10.58s-3.78,10.66-11.95,10.66c-6.36,0-8.6-3.35-8.6-6.36,0-2.41,1.72-4.56,3.87-4.56A1.72,1.72,0,0,1,290.59,12c0,.86-.6,1.72-2.58,1.72-1.55,0-2.32.6-2.32,1.2s.94,1.47,3,1.47a5.37,5.37,0,0,0,5.76-5.59c0-5.68-4.21-8-9.89-8a27,27,0,0,0-7.14,1c0,5.76,0,18-.08,25.54h2.58c5.67,0,13-1,17.28-5.16v12.9C292.91,33,285.6,32,279.93,32h-2.58c0,9.2.43,18.66,1.29,27.86a49.33,49.33,0,0,0,7.74.78c4.9,0,9.54-1.38,9.54-7,0-3-1.89-5.85-6.19-5.85-2.06,0-3,.78-3,1.47s.78,1.2,2.32,1.2c2,0,2.58.86,2.58,1.72a1.72,1.72,0,0,1-1.89,1.72c-2.15,0-3.87-2.15-3.87-4.56,0-5.33,5.08-8.17,10.49-8.17,7.57,0,11.87,5.08,11.87,10.41,0,5.76-5.16,11.87-16.94,11.87C281.91,63.47,275.37,61.4,268.15,61.4Z"/></g></g></svg>