<svg xmlns="http://www.w3.org/2000/svg" viewBox="0 0 83.06 83.06"><defs><style>.cls-1{fill:#8f582e;}.cls-2{fill:#c17e4f;}.cls-3{fill:#e4f4fe;}.cls-4{fill:#ffd930;}.cls-5{fill:#ed6ea7;}.cls-6{fill:#8dd3f3;}</style></defs><title>Asset 34</title><g id="Layer_2" data-name="Layer 2"><g id="Layer_1-2" data-name="Layer 1"><g id="_149_home_sweet_home_heart_love_and_romance_miscellaneous_valentines_day_valentine" data-name="149, home, sweet home, heart , love and romance, miscellaneous, valentines day, valentine"><g id="_Group_" data-name="&lt;Group&gt;"><g id="_Group_2" data-name="&lt;Group&gt;"><path id="_Path_" data-name="&lt;Path&gt;" class="cls-1" d="M50.56,83.06H32.5V61.39H50.56Z"/><rect id="_Path_2" data-name="&lt;Path&gt;" class="cls-2" x="7.22" y="75.83" width="25.28" height="7.22"/><rect id="_Path_3" data-name="&lt;Path&gt;" class="cls-2" x="50.56" y="75.83" width="25.28" height="7.22"/><path id="_Path_4" data-name="&lt;Path&gt;" class="cls-3" d="M75.83,75.83H50.56V61.39H32.5V75.83H7.22V39.41a6.91,6.91,0,0,0,6.62-6.91,6.92,6.92,0,1,0,13.84,0,6.93,6.93,0,0,0,13.85,0,6.92,6.92,0,0,0,13.84,0,6.92,6.92,0,1,0,13.84,0,6.91,6.91,0,0,0,6.62,6.91Z"/><path id="_Path_5" data-name="&lt;Path&gt;" class="cls-4" d="M72.22,0,83.06,32.5a6.93,6.93,0,0,1-13.85,0L63.19,0Z"/><path id="_Path_6" data-name="&lt;Path&gt;" class="cls-4" d="M52.36,0l3,32.5a6.92,6.92,0,0,1-13.84,0V0Z"/><path id="_Path_7" data-name="&lt;Path&gt;" class="cls-4" d="M30.69,0l-3,32.5a6.92,6.92,0,1,1-13.84,0l6-32.5Z"/><path id="_Path_8" data-name="&lt;Path&gt;" class="cls-5" d="M19.86,0l-6,32.5a6.91,6.91,0,0,1-6.62,6.91h-.3A6.92,6.92,0,0,1,0,32.5L10.83,0Z"/><path id="_Path_9" data-name="&lt;Path&gt;" class="cls-5" d="M63.19,0l6,32.5a6.92,6.92,0,1,1-13.84,0L52.36,0Z"/><path id="_Path_10" data-name="&lt;Path&gt;" class="cls-5" d="M41.53,0V32.5a6.92,6.92,0,0,1-13.84,0L30.7,0Z"/></g><rect id="_Path_11" data-name="&lt;Path&gt;" class="cls-6" x="57.78" y="61.39" width="10.83" height="7.22"/><rect id="_Path_12" data-name="&lt;Path&gt;" class="cls-6" x="14.44" y="61.39" width="10.83" height="7.22"/><path id="_Path_13" data-name="&lt;Path&gt;" class="cls-5" d="M48,49.09a4.8,4.8,0,0,1,1.21,3.27,5.67,5.67,0,0,1-1.52,3.73,32.29,32.29,0,0,1-3.8,3.57c-.53.45-1.13,1-1.75,1.51a.9.9,0,0,1-1.18,0,55,55,0,0,1-5.55-5.08,5.68,5.68,0,0,1-1.53-3.73,4.81,4.81,0,0,1,1.22-3.27,4.12,4.12,0,0,1,3.07-1.34,3.8,3.8,0,0,1,2.4.84,4.71,4.71,0,0,1,1,1,4.67,4.67,0,0,1,1-1,3.82,3.82,0,0,1,2.41-.84A4.15,4.15,0,0,1,48,49.09Z"/></g></g></g></g></svg>