<svg xmlns="http://www.w3.org/2000/svg" viewBox="0 0 83.06 83.06"><defs><style>.cls-1{fill:#ed6d6c;}.cls-2{fill:#f1d2e7;}.cls-3{fill:#e94b40;}.cls-4{fill:#647aa6;}</style></defs><title>Asset 37</title><g id="Layer_2" data-name="Layer 2"><g id="Layer_1-2" data-name="Layer 1"><g id="_34_chat_bubble_text_heart_love_and_romance_miscellaneous_valentines_day_valentine" data-name="34, chat bubble, text, heart , love and romance, miscellaneous, valentines day, valentine"><g id="_Group_" data-name="&lt;Group&gt;"><g id="_Group_2" data-name="&lt;Group&gt;"><path id="_Path_" data-name="&lt;Path&gt;" class="cls-1" d="M77.48,37.42l5.58,7.72H66.5C59.52,32.57,53.16,19,38.7,16.67A22.57,22.57,0,1,1,77.48,37.42Z"/><path id="_Path_2" data-name="&lt;Path&gt;" class="cls-2" d="M66.5,45.14A33.38,33.38,0,0,1,33.4,83.06H0L8.25,71.63A33.4,33.4,0,1,1,66.5,45.14Z"/><path id="_Path_3" data-name="&lt;Path&gt;" class="cls-3" d="M43.09,32.91c0,3.78-3.45,6.44-6.73,9.24-3.44,2.92-2.48,2.92-5.91,0s-6.74-5.56-6.74-9.24c0-5.63,6.48-7.95,9.69-3.49C36.62,25,43.09,27.29,43.09,32.91Z"/><path id="_Path_4" data-name="&lt;Path&gt;" class="cls-4" d="M30.69,53.26H16.25a.9.9,0,0,1,0-1.8H30.69a.9.9,0,1,1,0,1.8Z"/><path id="_Path_5" data-name="&lt;Path&gt;" class="cls-4" d="M50.56,60.49H16.25a.91.91,0,0,1,0-1.81H50.56a.91.91,0,0,1,0,1.81Z"/><path id="_Path_6" data-name="&lt;Path&gt;" class="cls-4" d="M50.56,67.71H16.25a.91.91,0,0,1,0-1.81H50.56a.91.91,0,0,1,0,1.81Z"/></g></g></g></g></g></svg>