<svg id="Layer_1" data-name="Layer 1" xmlns="http://www.w3.org/2000/svg" xmlns:xlink="http://www.w3.org/1999/xlink" viewBox="0 0 492.02 348.86"><defs><style>.cls-1{fill:none;}.cls-2{fill:#1d1d1b;}.cls-3{fill:#dfa374;}.cls-4{fill:#bb8a62;}.cls-5{fill:#ca8649;}.cls-6{fill:#f0c56d;}.cls-7{fill:#260a23;}.cls-8{clip-path:url(#clip-path);}.cls-9{fill:#531c4b;}</style><clipPath id="clip-path" transform="translate(-5.24 -70.86)"><path class="cls-1" d="M278.18,193c18.58.38,36.95-4.42,50.45-5.68-7.19-1.4-15.31-3.17-21.8-5.08a.72.72,0,0,1-.34-1.17,12.24,12.24,0,0,0,3.28-6.16,2.23,2.23,0,0,0-1-2.24c-2.67-1.78-9.14-5.92-9.19-7.43-.39-11.45-14.42-77.48-13.87-78.27.69-1,8.31,4.88,13.18,4.4,0,0-14.64-18.37-23.06-20.53-3.31-.85-52.44,71.31-57.32,78.5-.24.35-.8.69-2.62,1.2-3.67,1-8.72-.14-5.12,6.11.37.64.6,1-.11,1.19-.9.25-3,.57-3.82,1.21-1,.76.72,3.36-1.08,4.88-4.85,4.09-11.43,5.13-17.6,4.92a124,124,0,0,1,12.19,4.84C237.9,190.76,250.9,192.47,278.18,193Z"/></clipPath></defs><title>sublogo</title><path class="cls-2" d="M196.22,225.52v3.17h-5.38q-2.4,14.2-4.06,23.64t-2.72,15.26c-.72,3.88-1.25,6.78-1.62,8.71s-.63,3.29-.8,4.07a4.81,4.81,0,0,1-.3,1.17c-.05,0-.1,0-.14.14l-11.51.27L157.29,251l-8.89,31.07-3.79.07-24.94-53a5,5,0,0,0-.72-.11l-1.42-.07-2.61-.1v-3.17H140.2v3.17l-6.82.41L149.85,264c.09-.32.28-1,.58-1.9s.66-2,1.07-3.27.85-2.55,1.31-3.92.9-2.69,1.31-3.93.77-2.32,1.07-3.24.49-1.56.58-1.93l2.35-.14,11.57,30,9.1-46.93h-3.66v-3.17Z" transform="translate(-5.24 -70.86)"/><path class="cls-2" d="M199.94,239.23h13.23l.07,40.73,3.86-.35.06,3-17.29.14.21-3,4.2.14.07-37.49h-4.62Zm4.48-3a4.14,4.14,0,0,1-1.45-1.51,7,7,0,0,1-.86-2.28,6.83,6.83,0,0,1,0-2.55,5.11,5.11,0,0,1,1.07-2.34,5.63,5.63,0,0,1,2.31-1.65,8.43,8.43,0,0,1,3.82-.48,6.06,6.06,0,0,1,3.79,3.44,5.45,5.45,0,0,1-.17,4.2,6.43,6.43,0,0,1-3.21,3.1A6.76,6.76,0,0,1,204.42,236.2Z" transform="translate(-5.24 -70.86)"/><path class="cls-2" d="M251.2,275.75q-7.3,6-12.2,6.79a7.7,7.7,0,0,1-7.82-2.93q-2.93-3.72-4.1-11.58A127.55,127.55,0,0,1,226,249h-8.13v-3.58H226l.69-17.16-3-.07.14-2.48h17.08l-.13,2.48h-2.48l-.56,17.23h7.17V249h-7.1q.08,4.28.07,8.47c0,2.81.11,5.38.31,7.72a33.48,33.48,0,0,0,1,6.1,6.43,6.43,0,0,0,2.2,3.65,4.36,4.36,0,0,0,3.86.41,17.74,17.74,0,0,0,6-3.61l-.14-3.38h2.62l.14,9.37H251.2Z" transform="translate(-5.24 -70.86)"/><path class="cls-2" d="M289.58,274a29,29,0,0,1-5.72,4.79,24.16,24.16,0,0,1-6.44,2.89,20,20,0,0,1-6.79.69,18.33,18.33,0,0,1-6.82-1.89,13.57,13.57,0,0,1-5.55-5.48,20.07,20.07,0,0,1-2.31-7.65,28.42,28.42,0,0,1,.52-8.61,34.74,34.74,0,0,1,2.93-8.44,28.88,28.88,0,0,1,5-7.1,18.92,18.92,0,0,1,6.65-4.58,15.37,15.37,0,0,1,8-.89,19.45,19.45,0,0,1,8.82,4v-3.72h2.55v12.88h-2.55v-3.17a13.83,13.83,0,0,0-2-2.58,10.08,10.08,0,0,0-2.9-2.07,10.35,10.35,0,0,0-3.68-1,11.14,11.14,0,0,0-4.38.58,21.29,21.29,0,0,0-2,4.45,47.74,47.74,0,0,0-1.69,6.54,63.64,63.64,0,0,0-1,7.48,41.72,41.72,0,0,0,.07,7.27,19.36,19.36,0,0,0,1.48,6,6.61,6.61,0,0,0,3.27,3.51,4.49,4.49,0,0,0,1.76-.14,20.13,20.13,0,0,0,3.58-1.1,30.06,30.06,0,0,0,4.55-2.31,21.27,21.27,0,0,0,4.65-3.89v-3.65l2.62-.07v9.92h-2.62Z" transform="translate(-5.24 -70.86)"/><path class="cls-2" d="M321.55,279.47h1.65c.05-.82.09-2.17.14-4s0-4,0-6.34-.18-4.85-.34-7.47a73.71,73.71,0,0,0-.83-7.48,44.18,44.18,0,0,0-1.51-6.41,10.08,10.08,0,0,0-2.34-4.2,3.33,3.33,0,0,0-3.35-.82c-1.28.34-2.78,1.54-4.47,3.61l-.28,33.14,3.45-.2.41,3.58-19.57.21-.07-3.73,2.48.14.83-51H293.5l-.34-3.17H314l.34,3.17h-4.55l.76,13.91a22.74,22.74,0,0,1,7.2-4.13,9.4,9.4,0,0,1,5.65-.17,9,9,0,0,1,4.24,3,20.53,20.53,0,0,1,3.06,5.55,42.32,42.32,0,0,1,2,7.33q.75,4,1.13,8.38t.45,8.75c.05,2.94,0,5.71-.07,8.33l2.69-.2.14,3-15.78.2Z" transform="translate(-5.24 -70.86)"/><path class="cls-2" d="M342.7,248.68a37.27,37.27,0,0,0,2.65-3.31,16.73,16.73,0,0,0,2-3.79,6.92,6.92,0,0,1-3.75,1.41,2,2,0,0,1-1.83-1.07,3.74,3.74,0,0,1-.17-2.44,7.14,7.14,0,0,1,1.17-2.69,4.72,4.72,0,0,1,2.28-1.72,3.92,3.92,0,0,1,3.13.31,3.06,3.06,0,0,1,1.72,2.27,7.36,7.36,0,0,1-.17,3.24,15.32,15.32,0,0,1-1.41,3.48,16.59,16.59,0,0,1-2,3,6.86,6.86,0,0,1-2.11,1.69C343.53,249.34,343,249.23,342.7,248.68Z" transform="translate(-5.24 -70.86)"/><path class="cls-2" d="M353.11,271.55h2.75v3.24a13.9,13.9,0,0,0,3.62,3,18.68,18.68,0,0,0,4.75,2,16,16,0,0,0,5.1.55,9.58,9.58,0,0,0,4.69-1.48,10,10,0,0,0,3.44-4,16.82,16.82,0,0,0,1.48-7.06,8.49,8.49,0,0,0-1.72-5.13,8.39,8.39,0,0,0-3.76-2.52,16.79,16.79,0,0,0-4.89-.83c-1.77,0-3.47-.07-5.1-.07a42,42,0,0,1-4.41-.2,3.82,3.82,0,0,1-2.79-1.31,11.74,11.74,0,0,1-3.65-5.86,11,11,0,0,1,.24-6.13,12.39,12.39,0,0,1,3.52-5.24,13.67,13.67,0,0,1,6.23-3.13,19.77,19.77,0,0,1,8.41.1,28.6,28.6,0,0,1,10,4.55l.27-2.07,2.55-.07.28,7.17-3.1-.21-.14-2a6.22,6.22,0,0,0-1.62-1.13,23.17,23.17,0,0,0-2.86-1.28c-1.1-.41-2.29-.79-3.58-1.13a36.83,36.83,0,0,0-3.65-.8,15.26,15.26,0,0,0-3.14-.2,3.56,3.56,0,0,0-2.1.62,11.89,11.89,0,0,0-1.62,4.2,17.9,17.9,0,0,0-.34,4.89,10.54,10.54,0,0,0,1,4,2.46,2.46,0,0,0,2.41,1.58q8.13-1.31,13.5-.13a17.78,17.78,0,0,1,8.27,3.78,10.88,10.88,0,0,1,3.55,6.21,12.94,12.94,0,0,1-.66,7.06,17.35,17.35,0,0,1-4.37,6.41,17.83,17.83,0,0,1-7.51,4.2,23.91,23.91,0,0,1-10.09.45,32.86,32.86,0,0,1-12.2-4.83l.14,2.42h-2.76Z" transform="translate(-5.24 -70.86)"/><path class="cls-2" d="M29.87,356.12l3.38-.14v-4.13a33.49,33.49,0,0,1-11.06,5.23,14.18,14.18,0,0,1-8.16-.27,11.14,11.14,0,0,1-5.41-4.45,20.13,20.13,0,0,1-2.83-7.27,33.54,33.54,0,0,1-.44-8.75A38.68,38.68,0,0,1,7,327.52a29,29,0,0,1,3.69-7.61,15.19,15.19,0,0,1,5.55-5.06,11.71,11.71,0,0,1,7.16-1.11q4,.56,8.58,4.21l.28-13.71-4.69.41.21-2.62L47.65,302l-.21,2.34L43,304.24l1.17,51.95,3.24-.42.2,2.48-17.5.35Zm-5.09-3a3.09,3.09,0,0,0,2.1,0,10,10,0,0,0,4.92-3,3.39,3.39,0,0,0,1-2.27l-.42-25.42q-2.13-3.45-4.2-4.24a4.29,4.29,0,0,0-3.89.27A9.2,9.2,0,0,0,21,322.15a26,26,0,0,0-2.27,6,37.46,37.46,0,0,0-1.07,7.23,30.56,30.56,0,0,0,.45,7.34,19.44,19.44,0,0,0,2.27,6.3A9.83,9.83,0,0,0,24.78,353.15Z" transform="translate(-5.24 -70.86)"/><path class="cls-2" d="M104.84,313.74l16.53-.13v3.58H119.1v8.2a30,30,0,0,1,3.48-4.69,27.77,27.77,0,0,1,4.62-4.13,19.83,19.83,0,0,1,5.2-2.69,8.93,8.93,0,0,1,5.2-.24,9.75,9.75,0,0,1,4.72,3.1,19.35,19.35,0,0,1,3.69,7.34,60.77,60.77,0,0,1,2.06,12.57,146.56,146.56,0,0,1,0,18.78l3.44-.07v3.58l-16.67.28v-3.58h1.86q.35-3.11.48-6.89c.09-2.53.11-5.11,0-7.76s-.22-5.24-.45-7.82-.53-4.92-.9-7.06a37.29,37.29,0,0,0-1.34-5.54,7.81,7.81,0,0,0-1.76-3.24,18.82,18.82,0,0,0-7.78,5.48,22.8,22.8,0,0,0-4.2,8.26,47.14,47.14,0,0,0-1.66,11q-.27,6.17-.07,13.54l2.69-.07v3.58l-17,.21v-3.58h2.69L109,317.33h-4.13Z" transform="translate(-5.24 -70.86)"/><path class="cls-2" d="M181.25,313.61l16-.14v3.58l-2.34.07v38.24h2.48v3a39.76,39.76,0,0,1-5.58.14,7.07,7.07,0,0,1-3.34-.9,4,4,0,0,1-1.69-2.24,15.6,15.6,0,0,1-.62-3.85c-.09-1.59-.15-3.48-.17-5.69s-.15-4.78-.38-7.71a34.06,34.06,0,0,1-1.1,5.58,44.61,44.61,0,0,1-2,5.61A26.22,26.22,0,0,1,180,354a8.57,8.57,0,0,1-2.86,2.79c-3.3,1.47-6.12,2.1-8.44,1.89a8.7,8.7,0,0,1-5.71-2.62,15.08,15.08,0,0,1-3.45-6.3,45,45,0,0,1-1.65-9.13,98.76,98.76,0,0,1-.31-11.09q.13-6,.55-12.23h-3.59v-3.59l17.92-.13v3.58l-2.41.07q0,3.24-.21,7.06t-.34,7.68c-.1,2.58-.08,5.07,0,7.48a29.2,29.2,0,0,0,1,6.44,10.19,10.19,0,0,0,2.44,4.51,6.17,6.17,0,0,0,4.48,1.76c.51-.23,1.08-1.11,1.72-2.65a48.68,48.68,0,0,0,1.93-5.76q1-3.43,1.86-7.47t1.55-7.82q.66-3.8,1-6.82a24.08,24.08,0,0,0,.21-4.48h-4.41Z" transform="translate(-5.24 -70.86)"/><path class="cls-2" d="M231.62,351.85q-7.31,6-12.2,6.78a7.72,7.72,0,0,1-7.82-2.92c-1.95-2.49-3.32-6.34-4.1-11.58A126.45,126.45,0,0,1,206.4,325h-8.13v-3.58h8.13l.69-17.16-3-.06.14-2.48h17.09l-.14,2.48h-2.48l-.55,17.22h7.17V325h-7.1q.07,4.27.07,8.48t.31,7.72a34.31,34.31,0,0,0,1,6.09A6.49,6.49,0,0,0,221.8,351a4.35,4.35,0,0,0,3.86.42,17.81,17.81,0,0,0,6-3.62l-.14-3.38h2.62l.13,9.37h-2.61Z" transform="translate(-5.24 -70.86)"/><path class="cls-2" d="M276.16,355.08h2.9l-16.47-37.34h-2.83v-3.58L277.4,314v3.58l-3.17.07L286,349.85l7.3-32.39-4.82.14V314l12.81-.28v3.59l-4.62.2-8.12,37.69h3.92v3.58l-16.26-.13Z" transform="translate(-5.24 -70.86)"/><path class="cls-2" d="M305,315.33h13.23l.07,40.72,3.86-.34.07,3-17.3.13.21-3,4.2.14.07-37.48h-4.61Zm4.48-3a4.26,4.26,0,0,1-1.45-1.52,7,7,0,0,1-.86-2.27,6.83,6.83,0,0,1,0-2.55,5.17,5.17,0,0,1,1.07-2.34,5.74,5.74,0,0,1,2.31-1.66,8.74,8.74,0,0,1,3.82-.48,6.09,6.09,0,0,1,3.79,3.44,5.43,5.43,0,0,1-.17,4.21,6.53,6.53,0,0,1-3.2,3.1A6.83,6.83,0,0,1,309.44,312.3Z" transform="translate(-5.24 -70.86)"/><path class="cls-2" d="M324.19,355h4.54l-.07-50.23-2.89-.14v-3.58l13.51.07L338.79,355h3.1v3.58h-17.7Z" transform="translate(-5.24 -70.86)"/><path class="cls-2" d="M344.72,355h4.55l-.07-50.23-2.9-.14v-3.58l13.51.07L359.33,355h3.1v3.58H344.72Z" transform="translate(-5.24 -70.86)"/><path class="cls-2" d="M393.22,356.6h3.38l.07-7.51c-1,.87-2.26,1.84-3.76,2.89s-3.1,2.09-4.82,3.1a50.09,50.09,0,0,1-5.37,2.73,25.14,25.14,0,0,1-5.45,1.68,15.14,15.14,0,0,1-5.1.11,7.92,7.92,0,0,1-4.23-2,9.1,9.1,0,0,1-3-4.62,8.61,8.61,0,0,1,.3-4.86,15.29,15.29,0,0,1,2.9-4.82,33.16,33.16,0,0,1,4.75-4.52,45.79,45.79,0,0,1,5.93-3.92,56.11,56.11,0,0,1,6.41-3.1,42.53,42.53,0,0,1,6.16-2,19.42,19.42,0,0,1,5.24-.66,15.81,15.81,0,0,0-.24-6.17,8.32,8.32,0,0,0-2.55-4.41,6.36,6.36,0,0,0-4.69-1.37,13.69,13.69,0,0,0-6.65,2.79c-.13.09,0,.42.42,1a15.45,15.45,0,0,1,1.27,2.16,13.78,13.78,0,0,1,1,2.9,5.13,5.13,0,0,1-.21,3.1,6.39,6.39,0,0,1-2.48,2.82,15.48,15.48,0,0,1-5.82,2.07,6.68,6.68,0,0,1-4.38-1.34,5.12,5.12,0,0,1-1.89-3.34,7.48,7.48,0,0,1,.93-4.41,13.4,13.4,0,0,1,4.1-4.59,28.44,28.44,0,0,1,7.54-3.82,43.77,43.77,0,0,1,11.27-2.14c3.44-.27,6.12,0,8,1a9.1,9.1,0,0,1,4.27,4.13,17.1,17.1,0,0,1,1.69,6.72q.29,4,.24,8.79c0,3.21,0,6.66.07,10.33a79.57,79.57,0,0,0,1.07,11.37l3.31-.07-.14,2.55-19.77.07Zm-13.78-6.75c.88.64,1.63,1.17,2.28,1.58a6.32,6.32,0,0,0,1.89.86,4.05,4.05,0,0,0,1.93,0,9.74,9.74,0,0,0,2.48-1c1-.53,2.17-1.25,3.55-2.17s3.08-2.07,5.1-3.45V332.14a34.89,34.89,0,0,0-5.31.59,30.79,30.79,0,0,0-5.44,1.51,23.54,23.54,0,0,0-4.79,2.48,10.23,10.23,0,0,0-3.24,3.41,7.3,7.3,0,0,0-.82,4.38A11.13,11.13,0,0,0,379.44,349.85Z" transform="translate(-5.24 -70.86)"/><path class="cls-2" d="M429.19,391.33a14.46,14.46,0,0,1-5.27-4.48,10.25,10.25,0,0,1-1.76-5,10.59,10.59,0,0,1,1-5,15.84,15.84,0,0,1,3-4.44,18.62,18.62,0,0,1,4.34-3.38,13.32,13.32,0,0,1,5-1.68,10.11,10.11,0,0,1,4.85.55,8.52,8.52,0,0,1,4.07,3.34,3.77,3.77,0,0,1,.17,2.75,3.34,3.34,0,0,1-1.45,1.69,5.57,5.57,0,0,1-2.27.72,6.72,6.72,0,0,1-2.31-.1,3.29,3.29,0,0,1-1.58-.76.82.82,0,0,1-.07-1.2,6.29,6.29,0,0,0,3.13-.07,2.17,2.17,0,0,0,1.35-1.17,1.63,1.63,0,0,0-.28-1.55,3.41,3.41,0,0,0-1.79-1.21,6.39,6.39,0,0,0-3.06-.1A11.82,11.82,0,0,0,432,372a6.85,6.85,0,0,0-1.11,4.65,8.74,8.74,0,0,0,1.76,4.06,11.51,11.51,0,0,0,3.58,3,12,12,0,0,0,4.52,1.48,8.78,8.78,0,0,0,4.44-.58,7.06,7.06,0,0,0,3.41-3.1,12.86,12.86,0,0,0,1.41-6.1,32.92,32.92,0,0,0-1.55-9.65,9.1,9.1,0,0,0-2.55-4.2,9.29,9.29,0,0,0-3.68-2,10.9,10.9,0,0,0-4.28-.27,26.93,26.93,0,0,0-4.34.89,23.85,23.85,0,0,0-3.89,1.52,25.9,25.9,0,0,0-2.89,1.65l-1-1.86a4,4,0,0,1,1.11-.79l1.75-.93,1.76-.93a9.29,9.29,0,0,0,1.17-.72v-1.93a19.06,19.06,0,0,1-8.61-1.62,13.49,13.49,0,0,1-5.38-4.55,14.7,14.7,0,0,1-2.37-6.58,22.83,22.83,0,0,1,.38-7.61,29,29,0,0,1,2.82-7.65,27.69,27.69,0,0,1,5-6.75,26.35,26.35,0,0,1,7-4.93,21.27,21.27,0,0,1,8.61-2.13,56.71,56.71,0,0,1,2.17-7,21.34,21.34,0,0,1,3.69-6.27,7.47,7.47,0,0,1,2.82-2.18,7.17,7.17,0,0,1,3.28-.62,5,5,0,0,1,2.92,1.18,5.56,5.56,0,0,1,1.8,3.2,5.06,5.06,0,0,1-2.52,5.58,5.11,5.11,0,0,1-2.58.66,2.53,2.53,0,0,1-2-.9,3,3,0,0,1-.34-2.55,11.77,11.77,0,0,1,2.41-4.37,1.7,1.7,0,0,0-1.83.1,8.11,8.11,0,0,0-2.17,1.86,23.33,23.33,0,0,0-2.14,3,22.22,22.22,0,0,0-1.68,3.34,12.31,12.31,0,0,0-.83,3,2.41,2.41,0,0,0,.38,2,14,14,0,0,1,5.58,3.82,16.37,16.37,0,0,1,3.27,5.72,23.41,23.41,0,0,1,1.17,6.85,30.41,30.41,0,0,1-.65,7.2,30.81,30.81,0,0,1-2.31,6.82,23.71,23.71,0,0,1-3.72,5.72,17.21,17.21,0,0,1-4.86,3.86,10.66,10.66,0,0,1-5.78,1.21q-.07,0,0,.27c0,.19.09.38.13.59s.09.4.14.58a1.79,1.79,0,0,1,.07.35,20.38,20.38,0,0,1,10.09-.66,13.86,13.86,0,0,1,6.93,3.76,15.39,15.39,0,0,1,3.79,6.68,21.21,21.21,0,0,1,.65,8.06,22.63,22.63,0,0,1-2.41,8,17.52,17.52,0,0,1-5.48,6.34,18.93,18.93,0,0,1-8.47,3.24A25.3,25.3,0,0,1,429.19,391.33Zm4.89-43.89-.2,4.54a5.22,5.22,0,0,0,3.72-2.37,18.69,18.69,0,0,0,2.58-5.34,39.7,39.7,0,0,0,1.48-7,55.08,55.08,0,0,0,.45-7.37,37.85,37.85,0,0,0-.59-6.52,12,12,0,0,0-1.51-4.37,1.94,1.94,0,0,0-2.1-1,5,5,0,0,0-2.35,1.83,19.13,19.13,0,0,0-2.3,3.92,41.73,41.73,0,0,0-2,5.34,51.17,51.17,0,0,0-1.45,6.07,34.92,34.92,0,0,0-.55,6.1,23.2,23.2,0,0,0,.59,5.44,8.86,8.86,0,0,0,2,4.06l.62-4.68Z" transform="translate(-5.24 -70.86)"/><path class="cls-2" d="M493.68,355.5l-.14-2.48a46.3,46.3,0,0,1-7.27,3.34,36,36,0,0,1-7.47,1.82,25.41,25.41,0,0,1-7.24-.06,16.14,16.14,0,0,1-12.05-8.62,20,20,0,0,1-2.21-7.58,24.8,24.8,0,0,1,.66-8.09A30.51,30.51,0,0,1,461,326a29.92,29.92,0,0,1,5-6.61,23.43,23.43,0,0,1,6.48-4.58,31.18,31.18,0,0,1,11.06-1,13,13,0,0,1,11.4,9,32,32,0,0,1,1.72,8.68l-24.8,2.83a11,11,0,0,0-.41,3.3,34.64,34.64,0,0,0,.27,4.21q.27,2.2.72,4.44c.3,1.49.62,2.82,1,4a23.74,23.74,0,0,0,1,2.85c.32.74.62,1.08.89,1a17.37,17.37,0,0,0,4.59-.21,31.15,31.15,0,0,0,5-1.27,33.93,33.93,0,0,0,4.82-2.1,21.39,21.39,0,0,0,3.89-2.62l-.14-3.17,3.59.07.13,10.68Zm-20.05-36.18c-.09.05-.2.36-.31.93s-.24,1.28-.38,2.11-.26,1.73-.38,2.72-.23,1.91-.34,2.76-.2,1.58-.24,2.2-.07,1-.07,1.07l13.36-1.52-2.2-10.75a1.92,1.92,0,0,0-1.76-1.55,9.45,9.45,0,0,0-3.17.07,13.7,13.7,0,0,0-3.06.93C474.16,318.71,473.68,319.05,473.63,319.32Z" transform="translate(-5.24 -70.86)"/><path class="cls-3" d="M172.78,406.36s-16.8,3.88-24.47,3.49c-8.72-.43-10.07-4.14-10.12-9.28h0c-.05-5.14,2.55-10.94,9.94-9.4,4.45.92,24.53,2.57,24.53,2.57Z" transform="translate(-5.24 -70.86)"/><path class="cls-4" d="M172.56,383.35l.34,35.1s63.13,1.62,79.89,1.19c19.81-.5,78.22-2.08,78.22-2.08l-.34-35.1s-58-.69-77.08-.59C244,381.93,172.56,383.35,172.56,383.35Z" transform="translate(-5.24 -70.86)"/><path class="cls-3" d="M172.78,406.36s-16.8,3.88-24.47,3.49c-8.72-.43-10.07-4.14-10.12-9.28h0c-.05-5.14,2.55-10.94,9.94-9.4,4.45.92,24.53,2.57,24.53,2.57Z" transform="translate(-5.24 -70.86)"/><path class="cls-4" d="M172.56,383.35l.34,35.1s63.13,1.62,79.89,1.19c19.81-.5,78.22-2.08,78.22-2.08l-.34-35.1s-58-.69-77.08-.59C244,381.93,172.56,383.35,172.56,383.35Z" transform="translate(-5.24 -70.86)"/><path class="cls-5" d="M172.78,406.36s-16.8,3.88-24.47,3.49c-8.72-.43-10.07-4.14-10.12-9.28h0c-.05-5.14,2.55-10.94,9.94-9.4,4.45.92,24.53,2.57,24.53,2.57Z" transform="translate(-5.24 -70.86)"/><path class="cls-5" d="M330.89,405.79s16.88,3.68,24.54,3.21c8.71-.53,10-4.26,9.95-9.4h0c-.05-5.14-2.77-10.91-10.13-9.28-4.43,1-24.48,2.85-24.48,2.85Z" transform="translate(-5.24 -70.86)"/><path class="cls-6" d="M172.56,383.35l.34,35.1s63.13,1.62,79.89,1.19c19.81-.5,78.22-2.08,78.22-2.08l-.34-35.1s-58-.69-77.08-.59C244,381.93,172.56,383.35,172.56,383.35Z" transform="translate(-5.24 -70.86)"/><path class="cls-2" d="M192.63,403.84a3.77,3.77,0,0,0,1.62,1.41,4.66,4.66,0,0,0,1.87.44,3.32,3.32,0,0,0,1.39-.26.86.86,0,0,0,.56-.84.91.91,0,0,0-.42-.83,4.41,4.41,0,0,0-1.28-.48L195,403a6.74,6.74,0,0,1-2.81-1.33A3.25,3.25,0,0,1,191.1,399a3.31,3.31,0,0,1,1.32-2.81,5.6,5.6,0,0,1,3.45-1,6.36,6.36,0,0,1,5.28,2.6l-2.31,1.76a5.57,5.57,0,0,0-1.46-1.18,3.28,3.28,0,0,0-1.57-.44,2.12,2.12,0,0,0-1.16.27.89.89,0,0,0-.42.79,1,1,0,0,0,.35.78,2.87,2.87,0,0,0,1.09.47l1.35.31a7.81,7.81,0,0,1,3,1.33,3.2,3.2,0,0,1,1.19,2.7,3.25,3.25,0,0,1-.72,2.15A4.12,4.12,0,0,1,198.6,408a7.44,7.44,0,0,1-2.54.42,7.94,7.94,0,0,1-3.51-.75,5.52,5.52,0,0,1-2.37-2.16Z" transform="translate(-5.24 -70.86)"/><path class="cls-2" d="M204,393.14a1.86,1.86,0,1,1,1.3.53A1.8,1.8,0,0,1,204,393.14Zm2.94,15H203.7V395.51H207Z" transform="translate(-5.24 -70.86)"/><path class="cls-2" d="M219.05,395.86a4.72,4.72,0,0,1,1.73,1.86,5.9,5.9,0,0,1,.66,2.84v7.56h-3.26v-7.43c0-1.69-.81-2.54-2.43-2.54a2.6,2.6,0,0,0-1.72.61,2.08,2.08,0,0,0-.71,1.65v7.71h-3.26V395.51h3.05l.12,1.42a4.05,4.05,0,0,1,1.46-1.26,4.26,4.26,0,0,1,2-.47A4.42,4.42,0,0,1,219.05,395.86Z" transform="translate(-5.24 -70.86)"/><path class="cls-2" d="M226.46,407.75a5.15,5.15,0,0,1-2.15-2,6.11,6.11,0,0,1-.8-3.21v-1.47a6.11,6.11,0,0,1,.8-3.21,5.15,5.15,0,0,1,2.15-2,6.6,6.6,0,0,1,3-.68,6.14,6.14,0,0,1,3.47,1A5.12,5.12,0,0,1,235,399l-3.08,1.1a2.79,2.79,0,0,0-.95-1.48,2.51,2.51,0,0,0-1.54-.49,2.63,2.63,0,0,0-1.91.76,3,3,0,0,0-.77,2.23v1.31a3,3,0,0,0,.77,2.23,2.59,2.59,0,0,0,1.91.76A2.45,2.45,0,0,0,231,405a2.79,2.79,0,0,0,.95-1.48l3.08,1.1a5.12,5.12,0,0,1-2.1,2.84,6.14,6.14,0,0,1-3.47,1A6.48,6.48,0,0,1,226.46,407.75Z" transform="translate(-5.24 -70.86)"/><path class="cls-2" d="M248.47,403H240a3,3,0,0,0,.89,1.9,2.52,2.52,0,0,0,1.75.65,3.29,3.29,0,0,0,1.66-.4,2.27,2.27,0,0,0,1-1.17l3,.87a4.58,4.58,0,0,1-2,2.64,6.78,6.78,0,0,1-3.61.93,6.13,6.13,0,0,1-3-.7,5.17,5.17,0,0,1-2.1-2.05,6.56,6.56,0,0,1-.78-3.31v-1.13a6.6,6.6,0,0,1,.78-3.3,5.11,5.11,0,0,1,2.1-2.05,6.24,6.24,0,0,1,3-.69,6.37,6.37,0,0,1,3,.69,5.11,5.11,0,0,1,2.1,2.05,6.63,6.63,0,0,1,.78,3.32Zm-3.2-2.66a2,2,0,0,0-.36-1.13,2.6,2.6,0,0,0-1-.84,2.78,2.78,0,0,0-1.31-.31,2.54,2.54,0,0,0-1.67.58,2.83,2.83,0,0,0-.93,1.7Z" transform="translate(-5.24 -70.86)"/><path class="cls-2" d="M256,408.12V405.6l6.08-6a12.86,12.86,0,0,0,1.76-2.06,3.25,3.25,0,0,0,.53-1.74,1.94,1.94,0,0,0-.67-1.54,2.79,2.79,0,0,0-1.93-.59,2.58,2.58,0,0,0-1.93.76,4.62,4.62,0,0,0-1.1,2.1l-3.07-.75a7.26,7.26,0,0,1,2.15-3.59,5.64,5.64,0,0,1,3.95-1.43A6.43,6.43,0,0,1,266,392a4.39,4.39,0,0,1,1.57,3.6,5.62,5.62,0,0,1-.7,2.82,13.42,13.42,0,0,1-2.2,2.74l-4,3.95h7.27v3Z" transform="translate(-5.24 -70.86)"/><path class="cls-2" d="M273.58,407.61a5.89,5.89,0,0,1-2.35-2.46,8.49,8.49,0,0,1-.87-4V398a8.46,8.46,0,0,1,.87-4,5.77,5.77,0,0,1,2.35-2.46,7,7,0,0,1,6.56,0,5.81,5.81,0,0,1,2.34,2.46,8.34,8.34,0,0,1,.88,4v3.11a8.37,8.37,0,0,1-.88,4,5.92,5.92,0,0,1-2.34,2.46,7,7,0,0,1-6.56,0Zm5.64-3.21a5.52,5.52,0,0,0,.88-3.38v-2.87a5.53,5.53,0,0,0-.88-3.37,3,3,0,0,0-4.73,0,5.53,5.53,0,0,0-.87,3.37V401a5.52,5.52,0,0,0,.87,3.38,3,3,0,0,0,4.73,0Z" transform="translate(-5.24 -70.86)"/><path class="cls-2" d="M286,408.12V405.6l6.09-6a12.7,12.7,0,0,0,1.75-2.06,3.16,3.16,0,0,0,.53-1.74,2,2,0,0,0-.66-1.54,2.8,2.8,0,0,0-1.93-.59,2.6,2.6,0,0,0-1.94.76,4.82,4.82,0,0,0-1.1,2.1l-3.07-.75a7.33,7.33,0,0,1,2.15-3.59,5.65,5.65,0,0,1,4-1.43A6.4,6.4,0,0,1,296,392a4.4,4.4,0,0,1,1.58,3.6,5.62,5.62,0,0,1-.71,2.82,13.08,13.08,0,0,1-2.2,2.74l-4,3.95h7.27v3Z" transform="translate(-5.24 -70.86)"/><path class="cls-2" d="M302.92,403a3.61,3.61,0,0,0,3.59,2.57,3.67,3.67,0,0,0,2.33-.65,2,2,0,0,0,.85-1.67,2.18,2.18,0,0,0-.9-1.79,4.1,4.1,0,0,0-2.59-.7h-2.29V398h2.29a3.63,3.63,0,0,0,2.29-.62,2,2,0,0,0,.78-1.63,1.78,1.78,0,0,0-.76-1.54,3.4,3.4,0,0,0-2.06-.55,3.09,3.09,0,0,0-3.06,2.22l-2.86-1.08a6.23,6.23,0,0,1,2.16-3,6.12,6.12,0,0,1,3.76-1.1,8.09,8.09,0,0,1,3.08.56,4.8,4.8,0,0,1,2.14,1.64,4.3,4.3,0,0,1,.78,2.59,3.8,3.8,0,0,1-.68,2.34,5.11,5.11,0,0,1-1.79,1.47,4.87,4.87,0,0,1,2.07,1.52,3.93,3.93,0,0,1,.81,2.5,4.5,4.5,0,0,1-.81,2.68,5.28,5.28,0,0,1-2.25,1.77,8.32,8.32,0,0,1-3.29.62,6.36,6.36,0,0,1-6.46-4.42Z" transform="translate(-5.24 -70.86)"/><path class="cls-7" d="M343.88,189c-4.09-.53-70.34-6.58-74.33-7.68-26.2-7.27-16.42-4.25-60.06-8.43-4.85-.47-16.72-2.71-20.38-4-8.72-.28-19.13,1.92-20,1.57L154,174.8c-1.75-1.59,82.54,30.53,94.55,33.15s66-.55,77.24-7.57C339,192.13,357.32,190.7,343.88,189Z" transform="translate(-5.24 -70.86)"/><g class="cls-8"><path class="cls-9" d="M278.18,193c18.58.38,36.95-4.42,50.45-5.68-7.19-1.4-15.31-3.17-21.8-5.08a.72.72,0,0,1-.34-1.17,12.24,12.24,0,0,0,3.28-6.16,2.23,2.23,0,0,0-1-2.24c-2.67-1.78-9.14-5.92-9.19-7.43-.39-11.45-14.42-77.48-13.87-78.27.69-1,8.31,4.88,13.18,4.4,0,0-14.64-18.37-23.06-20.53-3.31-.85-52.44,71.31-57.32,78.5-.24.35-.8.69-2.62,1.2-3.67,1-8.72-.14-5.12,6.11.37.64.6,1-.11,1.19-.9.25-3,.57-3.82,1.21-1,.76.72,3.36-1.08,4.88-4.85,4.09-11.43,5.13-17.6,4.92a124,124,0,0,1,12.19,4.84C237.9,190.76,250.9,192.47,278.18,193Z" transform="translate(-5.24 -70.86)"/><path class="cls-6" d="M241.8,115.48a9.83,9.83,0,0,0-6.79-2.67,13.8,13.8,0,0,0-5.18.78c-3.4,1.56-5.31,5.08-5.38,9.07a9,9,0,0,0,2.1,6.33c1.81,2.15,4.31,4,7.34,4.07a11.84,11.84,0,0,0,7.9-2.75,9.23,9.23,0,0,0,2.72-6.83A11.12,11.12,0,0,0,241.8,115.48Zm-4.57,9.5a3.13,3.13,0,0,1-2.06,1.43,4,4,0,0,1-2.77-.71,3.43,3.43,0,0,1-1.31-2.54,3.08,3.08,0,0,1,.59-2.2,3.34,3.34,0,0,1,3.24-1.56,4.69,4.69,0,0,1,1.62.76,3.34,3.34,0,0,1,1.43,2A3.79,3.79,0,0,1,237.23,125Z" transform="translate(-5.24 -70.86)"/><path class="cls-6" d="M295.64,101.28a9.88,9.88,0,0,0-6.79-2.67,13.86,13.86,0,0,0-5.18.78c-3.4,1.56-5.31,5.08-5.38,9.07a9.13,9.13,0,0,0,2.1,6.33c1.81,2.15,4.31,4,7.34,4.07a11.84,11.84,0,0,0,7.91-2.75,9.24,9.24,0,0,0,2.72-6.83A11.17,11.17,0,0,0,295.64,101.28Zm-4.57,9.5a3.11,3.11,0,0,1-2.06,1.43,4,4,0,0,1-2.76-.71,3.46,3.46,0,0,1-1.32-2.54,3.09,3.09,0,0,1,.59-2.19,3.36,3.36,0,0,1,3.24-1.57,4.79,4.79,0,0,1,1.62.76,3.33,3.33,0,0,1,1.43,2A3.78,3.78,0,0,1,291.07,110.78Z" transform="translate(-5.24 -70.86)"/><path class="cls-6" d="M306.17,147.07a9.81,9.81,0,0,0-6.8-2.67,13.86,13.86,0,0,0-5.18.78c-3.39,1.56-5.31,5.08-5.38,9.07a9.06,9.06,0,0,0,2.11,6.32c1.8,2.16,4.3,4,7.33,4.08a11.94,11.94,0,0,0,7.91-2.75,9.23,9.23,0,0,0,2.72-6.83A11.2,11.2,0,0,0,306.17,147.07Zm-4.57,9.5a3.16,3.16,0,0,1-2.06,1.43,4.07,4.07,0,0,1-2.77-.71,3.47,3.47,0,0,1-1.32-2.54,3.09,3.09,0,0,1,.6-2.2,3.32,3.32,0,0,1,3.23-1.56,4.5,4.5,0,0,1,1.62.75,3.36,3.36,0,0,1,1.43,2A3.83,3.83,0,0,1,301.6,156.57Z" transform="translate(-5.24 -70.86)"/><path class="cls-6" d="M274.78,77A9.83,9.83,0,0,0,268,74.28a13.86,13.86,0,0,0-5.18.78c-3.39,1.56-5.31,5.08-5.38,9.07a9.1,9.1,0,0,0,2.11,6.33c1.8,2.15,4.3,4,7.33,4.07a11.89,11.89,0,0,0,7.91-2.75A9.23,9.23,0,0,0,277.5,85,11.17,11.17,0,0,0,274.78,77Zm-4.57,9.5a3.12,3.12,0,0,1-2,1.43,4,4,0,0,1-2.77-.71,3.47,3.47,0,0,1-1.32-2.54,3.13,3.13,0,0,1,.59-2.2,3.34,3.34,0,0,1,3.24-1.56,4.68,4.68,0,0,1,1.62.75,3.38,3.38,0,0,1,1.43,2A3.79,3.79,0,0,1,270.21,86.45Z" transform="translate(-5.24 -70.86)"/><path class="cls-6" d="M278.13,171.18a9.88,9.88,0,0,0-6.79-2.67,14.09,14.09,0,0,0-5.19.78c-3.39,1.56-5.31,5.09-5.38,9.07a9.08,9.08,0,0,0,2.11,6.33c1.8,2.15,4.3,4,7.33,4.07a11.84,11.84,0,0,0,7.91-2.75,9.19,9.19,0,0,0,2.72-6.82A11.17,11.17,0,0,0,278.13,171.18Zm-4.57,9.5a3.16,3.16,0,0,1-2.06,1.43,4,4,0,0,1-2.77-.71,3.44,3.44,0,0,1-1.32-2.54,3.07,3.07,0,0,1,.6-2.19,3.36,3.36,0,0,1,3.24-1.57,4.88,4.88,0,0,1,1.62.76,3.35,3.35,0,0,1,1.42,2A3.77,3.77,0,0,1,273.56,180.68Z" transform="translate(-5.24 -70.86)"/><path class="cls-6" d="M233.34,174a9.88,9.88,0,0,0-6.79-2.67,13.8,13.8,0,0,0-5.18.78c-3.4,1.56-5.32,5.08-5.39,9.07a9.08,9.08,0,0,0,2.11,6.33c1.8,2.15,4.31,4,7.33,4.07a11.82,11.82,0,0,0,7.91-2.75,9.2,9.2,0,0,0,2.72-6.83A11.16,11.16,0,0,0,233.34,174Zm-4.57,9.5a3.16,3.16,0,0,1-2.06,1.43,4,4,0,0,1-2.77-.71,3.46,3.46,0,0,1-1.32-2.54,3.1,3.1,0,0,1,.6-2.19,3.36,3.36,0,0,1,3.24-1.57,4.88,4.88,0,0,1,1.62.76,3.37,3.37,0,0,1,1.43,2A3.83,3.83,0,0,1,228.77,183.47Z" transform="translate(-5.24 -70.86)"/><path class="cls-6" d="M269.31,139.14a7.48,7.48,0,0,0-5.2-2,10.63,10.63,0,0,0-4,.6,7.51,7.51,0,0,0-4.12,6.94,7,7,0,0,0,1.61,4.85,7.76,7.76,0,0,0,5.62,3.12,9.08,9.08,0,0,0,6.06-2.11,7.06,7.06,0,0,0,2.08-5.22A8.5,8.5,0,0,0,269.31,139.14Zm-3.5,7.27a2.42,2.42,0,0,1-1.57,1.1,3.11,3.11,0,0,1-2.12-.55,2.58,2.58,0,0,1-1-1.94,2.36,2.36,0,0,1,.45-1.68,2.56,2.56,0,0,1,2.48-1.2,3.6,3.6,0,0,1,1.24.58,2.57,2.57,0,0,1,1.1,1.56A2.91,2.91,0,0,1,265.81,146.41Z" transform="translate(-5.24 -70.86)"/></g><path class="cls-7" d="M219.56,160.94c6.79,3.29,23.13,7.33,39.77,9.39,12.1,1.5,24.52,1.5,32.8,1.58,4.62.05,1.81,1.56-2.54,2.38-10.48,2-39.71.56-49.12-2-10.21-2.81-16.74-5-23.06-10.37C213.12,158.24,213.13,157.81,219.56,160.94Z" transform="translate(-5.24 -70.86)"/><path class="cls-7" d="M229.67,155.56c13.7,3.48,26.21,4.42,30.8,3.84s2.07,1.34-2.12,2.74-18.15,1.73-23.14-.84C224,155.52,216,152.08,229.67,155.56Z" transform="translate(-5.24 -70.86)"/><path class="cls-2" d="M101.2,329.84c-2.25-7.82-6.78-15-13.45-18.65-5.69-3.1-13.13-3.44-19.81-1.52-4.07,1.18-9.9,3.53-12.86,6.18-7.59,6.77-9.76,17.47-6.75,27.9,1.9,6.58,5.21,11.32,10.54,14.78,6.41,4.16,14.41,7,22.34,4.73,7.25-2.09,15-7.35,18.38-13.48S103.29,337.1,101.2,329.84ZM85.47,311.31l2.87,1.94-4.43,6.57L81,317.88Zm-3.09,9.31,6.56,4.43L87,327.92l-6.57-4.43Zm-18.73-5,3.41.57L65.75,324l-3.41-.57Zm-13.13,13,7.7-1.85.81,3.37-7.71,1.85ZM54.47,346,56,342.92l7.15,3.41-1.49,3.13Zm8.77,10.68L61.15,354l6.32-4.78L69.56,352Zm8.23-11.42c-2.68-.85-4.42-3.17-5.46-5.56a8.45,8.45,0,0,1-.21-6.19c1.11-3.53,3.74-6.16,7.18-6.66a13.08,13.08,0,0,1,4.82.67,9.11,9.11,0,0,1,5.34,4.17,10.33,10.33,0,0,1,.31,7.84,8.55,8.55,0,0,1-4.21,5.36A11.05,11.05,0,0,1,71.47,345.3Zm9.78,13.59-3.13-1.49,3.42-7.15,3.12,1.49Zm6.55-8.54-1.12-7.84L90.1,342l1.12,7.85Zm8.92-13.12H93.26v-7.92h3.46Z" transform="translate(-5.24 -70.86)"/></svg>