<svg xmlns="http://www.w3.org/2000/svg" viewBox="0 0 39.14 60.36"><defs><style>.cls-1{fill:#48552f;}</style></defs><title>Asset 2</title><g id="Layer_2" data-name="Layer 2"><g id="Layer_1-2" data-name="Layer 1"><path class="cls-1" d="M28,28.47a15.58,15.58,0,1,0-17.14.18A19.59,19.59,0,0,0,0,46.13V58.06a2.3,2.3,0,0,0,2.29,2.3H36.84a2.3,2.3,0,0,0,2.3-2.3V46.13A19.59,19.59,0,0,0,28,28.47ZM19.23,4.59a11,11,0,1,1-11,11A11,11,0,0,1,19.23,4.59Zm.34,26.56a15,15,0,0,1,15,15v9.64h-30V46.13A15,15,0,0,1,19.57,31.15Z"/></g></g></svg>