<svg xmlns="http://www.w3.org/2000/svg" viewBox="0 0 83.06 83.06"><defs><style>.cls-1{fill:#b5b7da;}.cls-2{fill:#f1f1fa;}.cls-3{fill:#d8d7ed;}.cls-4{fill:#f9cfd4;}.cls-5{fill:#ec6486;}.cls-6{fill:#f8bd3f;}.cls-7{fill:#fed753;}.cls-8{fill:#c12259;}</style></defs><title>Asset 35</title><g id="Layer_2" data-name="Layer 2"><g id="Layer_1-2" data-name="Layer 1"><g id="_82_cake_ceremony_wedding_cake_dessert_sweet" data-name="82, cake, ceremony, wedding cake, dessert, sweet"><g id="_Group_" data-name="&lt;Group&gt;"><g id="_Group_2" data-name="&lt;Group&gt;"><polygon id="_Path_" data-name="&lt;Path&gt;" class="cls-1" points="45.14 53.52 45.14 69.25 44.85 69.25 38.21 69.25 37.92 69.25 37.92 53.52 45.14 53.52"/><path id="_Path_2" data-name="&lt;Path&gt;" class="cls-2" d="M14.44,45.14V32.5A27.08,27.08,0,0,1,36.14,6,5.42,5.42,0,1,1,46.92,6,27.08,27.08,0,0,1,68.61,32.5V45.14A234.7,234.7,0,0,1,41.53,47,234.75,234.75,0,0,1,14.44,45.14Z"/><path id="_Path_3" data-name="&lt;Path&gt;" class="cls-3" d="M50.56,74.32v1.51l-9,1.81-9-1.81V74.32a5.71,5.71,0,0,1,5.71-5.71h6.64A5.71,5.71,0,0,1,50.56,74.32Z"/><path id="_Path_4" data-name="&lt;Path&gt;" class="cls-3" d="M79.44,45.14l-5.41,9H9l-5.42-9Z"/><path id="_Path_5" data-name="&lt;Path&gt;" class="cls-4" d="M57.78,35.57v9.57H25.28V35.57c4.06,0,4.06,3.61,8.12,3.61s4.07-3.61,8.13-3.61,4.06,3.61,8.12,3.61S53.71,35.57,57.78,35.57Z"/><path id="_Path_6" data-name="&lt;Path&gt;" class="cls-5" d="M8.54,0A3.43,3.43,0,0,1,11.82,3.6l-.38,8.16-8.16-.37A3.45,3.45,0,0,1,0,8V7.79A3.44,3.44,0,0,1,3.6,4.51l1.29.06L5,3.28A3.43,3.43,0,0,1,8.38,0Z"/><path id="_Path_7" data-name="&lt;Path&gt;" class="cls-5" d="M83.05,13.2c0,.06,0,.11,0,.17a3.45,3.45,0,0,1-3.28,3.43l-8.17.38L71.24,9a3.44,3.44,0,0,1,3.27-3.6h.17A3.44,3.44,0,0,1,78.11,8.7L78.17,10l1.29-.07A3.45,3.45,0,0,1,83.05,13.2Z"/><path id="_Path_8" data-name="&lt;Path&gt;" class="cls-6" d="M77.64,25.28a1.81,1.81,0,1,1-1.81,1.8A1.8,1.8,0,0,1,77.64,25.28Z"/><path id="_Path_9" data-name="&lt;Path&gt;" class="cls-6" d="M63.19,1.81a1.81,1.81,0,1,1-1.8,1.8A1.81,1.81,0,0,1,63.19,1.81Z"/><path id="_Path_10" data-name="&lt;Path&gt;" class="cls-7" d="M19.86,3.61a1.81,1.81,0,1,1-1.8,1.81A1.81,1.81,0,0,1,19.86,3.61Z"/><path id="_Path_11" data-name="&lt;Path&gt;" class="cls-7" d="M7.22,21.67a1.81,1.81,0,1,1-1.8,1.8A1.81,1.81,0,0,1,7.22,21.67Z"/><path id="_Path_12" data-name="&lt;Path&gt;" class="cls-7" d="M41.53,22.57a.9.9,0,0,1-.91-.9V14.45a.91.91,0,1,1,1.81,0v7.22A.9.9,0,0,1,41.53,22.57Z"/><path id="_Path_13" data-name="&lt;Path&gt;" class="cls-4" d="M52.36,25.58V30.7L41.53,32.5,30.69,30.7V25.58a3.92,3.92,0,0,1,3.92-3.91H48.45A3.91,3.91,0,0,1,52.36,25.58Z"/><path id="_Path_14" data-name="&lt;Path&gt;" class="cls-8" d="M57.78,34.61v1.5c-4.07,0-4.07,3.61-8.13,3.61s-4.06-3.61-8.12-3.61-4.06,3.61-8.13,3.61-4.06-3.61-8.12-3.61v-1.5a3.91,3.91,0,0,1,3.91-3.91H53.86A3.91,3.91,0,0,1,57.78,34.61Z"/><path id="_Path_15" data-name="&lt;Path&gt;" class="cls-1" d="M59.58,82.7v.36H23.47V82.7a6.87,6.87,0,0,1,6.86-6.87H52.72A6.87,6.87,0,0,1,59.58,82.7Z"/></g></g></g></g></g></svg>