<svg xmlns="http://www.w3.org/2000/svg" viewBox="0 0 83.96 83.96"><defs><style>.cls-1{fill:#ec6486;}.cls-2{fill:#bdd361;}.cls-3{fill:#ed6d6c;}.cls-4{fill:#68ba7e;}.cls-5{fill:#dd2257;}.cls-6{fill:#7dcdef;}.cls-7{fill:#ffd930;}</style></defs><title>Asset 36</title><g id="Layer_2" data-name="Layer 2"><g id="Layer_1-2" data-name="Layer 1"><g id="_96_confetti_fun_party_birthday_heart_love_and_romance_miscellaneous_valentines_day_valentine" data-name="96, confetti, fun, party, birthday, heart , love and romance, miscellaneous, valentines day, valentine"><g id="_Group_" data-name="&lt;Group&gt;"><g id="_Group_2" data-name="&lt;Group&gt;"><path id="_Path_" data-name="&lt;Path&gt;" class="cls-1" d="M20.1,35.83,30.65,33l14.42,2.88L63.84,54.59,55.18,59.7,29.79,63,6,59.7Z"/><path id="_Path_2" data-name="&lt;Path&gt;" class="cls-2" d="M14,84l-14-14L6,59.7H55.18Z"/><polygon id="_Path_3" data-name="&lt;Path&gt;" class="cls-2" points="45.07 35.83 20.1 35.83 29.36 20.12 45.07 35.83"/><path id="_Path_4" data-name="&lt;Path&gt;" class="cls-3" d="M82.08,5.69a3.49,3.49,0,0,1-.18,5,4.54,4.54,0,0,1-3,1.24,41.38,41.38,0,0,1-6-.27.72.72,0,0,1-.67-.66c-.28-4.2-.87-7.1,1-8.95a3.48,3.48,0,0,1,5-.18,3.29,3.29,0,0,1,.86,3,4.25,4.25,0,0,1,1.12,0A3.06,3.06,0,0,1,82.08,5.69Z"/><path id="_Path_5" data-name="&lt;Path&gt;" class="cls-3" d="M63.67,28.08A2.7,2.7,0,0,1,63.53,32a3.55,3.55,0,0,1-2.29,1,20.58,20.58,0,0,1-3.22-.1l-1.41-.1a.58.58,0,0,1-.36-.17.57.57,0,0,1-.16-.35c0-.51-.07-1-.1-1.42a19.11,19.11,0,0,1-.1-3.21,3.48,3.48,0,0,1,1-2.29,2.69,2.69,0,0,1,3.87-.14,2.55,2.55,0,0,1,.67,2.28,3.19,3.19,0,0,1,.87,0A2.36,2.36,0,0,1,63.67,28.08Z"/><path id="_Path_6" data-name="&lt;Path&gt;" class="cls-4" d="M39.39,69h-19a.91.91,0,0,0,0,1.81h15.9Z"/><path id="_Path_7" data-name="&lt;Path&gt;" class="cls-4" d="M13.67,69.91a.9.9,0,0,0-.9-.9H.53l-.53.9.9.91H12.77A.9.9,0,0,0,13.67,69.91Z"/><path id="_Path_8" data-name="&lt;Path&gt;" class="cls-5" d="M39.06,46a.9.9,0,0,0,.9.9H56.18l-1.8-1.8H40A.9.9,0,0,0,39.06,46Z"/><path id="_Path_9" data-name="&lt;Path&gt;" class="cls-5" d="M30.65,46a.9.9,0,0,0-.9-.9H14.61l-1.06,1.8h16.2A.9.9,0,0,0,30.65,46Z"/><path id="_Path_10" data-name="&lt;Path&gt;" class="cls-6" d="M64.52,41.42a.91.91,0,0,1,0-1.28c1.13-1.13,2.59-.76,3.66-.49s1.59.34,2,0,.28-.91,0-2-.63-2.54.49-3.67,2.6-.76,3.67-.49,1.59.34,2,0,.28-.91,0-2-.64-2.54.49-3.67,2.6-.76,3.67-.49,1.59.34,2,0a.9.9,0,0,1,1.27,0,.88.88,0,0,1,0,1.27c-1.12,1.13-2.59.77-3.66.5s-1.59-.35-2,0-.28.9,0,1.95.64,2.55-.49,3.67-2.6.77-3.67.5-1.59-.35-2,0-.28.9,0,1.95.64,2.54-.49,3.67-2.6.76-3.67.5-1.59-.35-2,0A.91.91,0,0,1,64.52,41.42Z"/><path id="_Path_11" data-name="&lt;Path&gt;" class="cls-6" d="M42.69,25a.9.9,0,0,1,0-1.27c1.27-1.27,2.76-1,4-.88s1.8.24,2.4-.36.53-1.27.36-2.4-.39-2.68.88-4,2.75-1,3.94-.87,1.81.23,2.41-.36.53-1.27.36-2.4-.4-2.68.87-3.95,2.75-1.05,3.94-.87,1.81.23,2.41-.37a.9.9,0,1,1,1.27,1.28c-1.27,1.27-2.75,1.05-3.94.87s-1.8-.23-2.4.37-.53,1.27-.36,2.4.39,2.67-.88,3.94-2.75,1-3.94.88-1.81-.24-2.4.36-.54,1.27-.37,2.4.4,2.68-.87,3.94-2.75,1.05-3.94.88S44.57,24.42,44,25A.89.89,0,0,1,42.69,25Z"/><path id="_Path_12" data-name="&lt;Path&gt;" class="cls-7" d="M40,16a.89.89,0,0,1,0-1.28l9.93-9.93a.9.9,0,0,1,1.27,1.28L41.26,16A.9.9,0,0,1,40,16Z"/><path id="_Path_13" data-name="&lt;Path&gt;" class="cls-7" d="M68.88,24.11a.89.89,0,0,1,0-1.28l4.51-4.51a.91.91,0,0,1,1.28,1.28l-4.52,4.51A.9.9,0,0,1,68.88,24.11Z"/><path id="_Path_14" data-name="&lt;Path&gt;" class="cls-1" d="M83.06,45.14H80.35V42.43a.91.91,0,0,0-1.81,0v2.71H75.83a.9.9,0,0,0,0,1.8h2.71v2.71a.91.91,0,1,0,1.81,0V46.94h2.71a.9.9,0,0,0,0-1.8Z"/><path id="_Path_15" data-name="&lt;Path&gt;" class="cls-1" d="M37.92,3.61H35.21V.9A.91.91,0,0,0,33.4.9V3.61H30.69a.91.91,0,0,0,0,1.81H33.4V8.13a.91.91,0,0,0,1.81,0V5.42h2.71a.91.91,0,0,0,0-1.81Z"/></g></g></g></g></g></svg>