<svg xmlns="http://www.w3.org/2000/svg" xmlns:xlink="http://www.w3.org/1999/xlink" width="1920" height="470.205" viewBox="0 0 1920 470.205">
  <defs>
    <clipPath id="clip-path">
      <path id="패스_7212" data-name="패스 7212" d="M1486.033,391.505c24.442,4.51,49.706,2.127,67.79,3.375-9.177-3.4-19.509-7.485-27.663-11.4a.97.97,0,0,1-.2-1.619c2.286-1.915,4.41-3.885,5.65-7.417a2.982,2.982,0,0,0-.788-3.168c-3.147-2.923-10.787-9.774-10.528-11.786,1.956-15.189-2.34-105.325-1.449-106.248,1.137-1.179,9.924,8.219,16.441,8.644,0,0-15.353-27.391-26-32.064-4.177-1.834-84.54,82.8-92.534,91.235-.389.411-1.2.73-3.715,1.011-5.059.565-11.471-2.061-8.073,6.968.347.923.586,1.44-.4,1.543-1.239.131-4.081.11-5.3.775-1.453.791.226,4.593-2.477,6.207-7.274,4.347-16.184,4.31-24.277,2.7a167.762,167.762,0,0,1,15.036,9.009C1433.382,379.842,1450.164,384.887,1486.033,391.505Z" fill="none"/>
    </clipPath>
  </defs>
  <g id="그룹_6190" data-name="그룹 6190" transform="translate(0 -229.795)">
    <g id="그룹_6044" data-name="그룹 6044">
      <g id="그룹_6032" data-name="그룹 6032">
        <g id="그룹_6026" data-name="그룹 6026">
          <path id="패스_7129" data-name="패스 7129" d="M339.187,417.384a65,65,0,0,1-8.475-9.776c-11.172-15.288,7.79-29.7,7.79-29.7s-2.894-1.619-6.461-14.935-.5-19.939,3.306-31.576,20.358-26.439,31.475-28.524,23.149-3.144,38.387,14.465,10.332,29.2,7.632,42.938-17.226,22.681-17.226,22.681a38.348,38.348,0,0,1,5.845,12.4c2.986,11.9-10.985,25.45-10.985,25.45,5.886,9.484,3.61,18.958,1.5,26.226-2.941,10.127-12.754,12.782-12.754,12.782,2.882,5.858,4.043,12.868.046,20.122-9.438,17.13-21.747,7.491-21.878,7.374a3.346,3.346,0,0,1-.319-.361c-4.309,2.9-15.156,4.833-20.634-7.46-5.741-12.884,1.142-25.324,2.374-27.377-6.8-9.2-5.387-16.644-5.174-17.464.288-1.109-1.3-6.813,5.554-17.264Z" fill="#ca8549"/>
        </g>
        <g id="그룹_6027" data-name="그룹 6027">
          <path id="패스_7130" data-name="패스 7130" d="M338.5,377.906a36.78,36.78,0,0,0,20.047,16.284,78.807,78.807,0,0,1,19.123,9.4c4.929,3.491,7.6,8.728,11,13.795.554.825,1.792,2.381,1.807,3.418l3.221-3.594c.982-1.1-3.2-5.545-3.845-6.331a45.111,45.111,0,0,0-8.817-8.663c-5.823-4.069-12.738-6.427-19.181-9.167a42.026,42.026,0,0,1-7.788-3.884,38.572,38.572,0,0,1-6.011-5.246c-1.708-1.746-4.3-2.327-6.431-3.5A13.1,13.1,0,0,1,338.5,377.906Z" fill="#a9733d"/>
        </g>
        <g id="그룹_6028" data-name="그룹 6028">
          <path id="패스_7131" data-name="패스 7131" d="M395.615,382.955S385.1,363.4,371.337,359.506s-9.518-12.742-9.518-12.742l1.519,3.887c1.406,2.587,14.883,7.749,18.171,10.333,4.573,3.6,14.815,17.144,15.431,21.079Z" fill="#a9733d"/>
        </g>
        <g id="그룹_6029" data-name="그룹 6029">
          <path id="패스_7132" data-name="패스 7132" d="M374.111,339.514s1.577,4.687.106,7.063-5.4,5.872-2.927,9.829,2.446,2.513,2.446,2.513-2.751-.712-.088-5.837S377.622,347.56,374.111,339.514Z" fill="#a9733d"/>
        </g>
        <g id="그룹_6030" data-name="그룹 6030">
          <path id="패스_7133" data-name="패스 7133" d="M337.68,419.841s24.271-.378,26.864,12.414,11.9,11.763,14.676,27.557h0s1.184-5.685-1.829-9.846c-7.34-10.14-10.846-16.161-11.133-18.03-.47-3.055-5.582-14.94-27.071-14.552Z" fill="#a9733d"/>
        </g>
        <g id="그룹_6031" data-name="그룹 6031">
          <path id="패스_7134" data-name="패스 7134" d="M338.809,452.11s12.634,10.359,18.173,14.905,7.356,13.874.087,19.932c0,0,7.127-2.156,8.08-8.693s-7.363-15.8-15.236-19.549A58.9,58.9,0,0,1,338.809,452.11Z" fill="#a9733d"/>
        </g>
      </g>
      <g id="그룹_6038" data-name="그룹 6038">
        <g id="그룹_6033" data-name="그룹 6033">
          <path id="패스_7135" data-name="패스 7135" d="M355.04,438.439s4.248,2.931,10.554-.217c4.029-2.01,5.235.92,4.693,2.507-.434,1.271-4.342,4.36-8.734,4.765-6.08.562-9.812-2.45-10.161-4.434C351.124,439.529,352.217,437.182,355.04,438.439Z" fill="#fff"/>
          <path id="패스_7136" data-name="패스 7136" d="M360.317,445.779c-5.356.081-8.773-2.6-9.139-4.682a2.977,2.977,0,0,1,.966-2.765,2.744,2.744,0,0,1,2.984-.092.243.243,0,0,1,.035.02c.042.029,4.228,2.818,10.334-.233,2.424-1.209,3.71-.582,4.26-.1a2.767,2.767,0,0,1,.736,2.874c-.493,1.445-4.6,4.512-8.919,4.911C361.144,445.751,360.724,445.773,360.317,445.779Zm-6.792-7.478a1.805,1.805,0,0,0-1.113.374,2.558,2.558,0,0,0-.8,2.347c.321,1.827,3.913,4.808,9.926,4.256,4.329-.4,8.159-3.479,8.548-4.619a2.35,2.35,0,0,0-.611-2.4c-.809-.707-2.15-.65-3.778.164-6.135,3.06-10.435.421-10.757.213A3.393,3.393,0,0,0,353.525,438.3Z" fill="#1d1e1c"/>
        </g>
        <g id="그룹_6034" data-name="그룹 6034">
          <line id="선_118" data-name="선 118" x1="2.577" y2="4.879" transform="translate(353.935 439.131)" fill="#fff"/>
          <path id="패스_7137" data-name="패스 7137" d="M353.938,444.227a.206.206,0,0,1-.1-.025.217.217,0,0,1-.091-.294l2.577-4.879a.218.218,0,1,1,.385.2l-2.577,4.878A.216.216,0,0,1,353.938,444.227Z" fill="#1d1e1c"/>
        </g>
        <g id="그룹_6035" data-name="그룹 6035">
          <line id="선_119" data-name="선 119" x1="0.81" y2="5.798" transform="translate(358.314 439.656)" fill="#fff"/>
          <path id="패스_7138" data-name="패스 7138" d="M358.318,445.672a.2.2,0,0,1-.034,0,.217.217,0,0,1-.185-.246l.81-5.8a.218.218,0,1,1,.431.061l-.81,5.8A.217.217,0,0,1,358.318,445.672Z" fill="#1d1e1c"/>
        </g>
        <g id="그룹_6036" data-name="그룹 6036">
          <line id="선_120" data-name="선 120" x2="1.327" y2="5.701" transform="translate(362.301 439.406)" fill="#fff"/>
          <path id="패스_7139" data-name="패스 7139" d="M363.631,445.325a.218.218,0,0,1-.215-.168l-1.328-5.7a.218.218,0,1,1,.425-.1l1.327,5.7a.217.217,0,0,1-.163.262A.182.182,0,0,1,363.631,445.325Z" fill="#1d1e1c"/>
        </g>
        <g id="그룹_6037" data-name="그룹 6037">
          <line id="선_121" data-name="선 121" x2="3.079" y2="4.416" transform="translate(365.267 438.38)" fill="#fff"/>
          <path id="패스_7140" data-name="패스 7140" d="M368.35,443.015a.217.217,0,0,1-.182-.094l-3.08-4.416a.218.218,0,0,1,.358-.249l3.079,4.417a.216.216,0,0,1-.054.3A.211.211,0,0,1,368.35,443.015Z" fill="#1d1e1c"/>
        </g>
      </g>
      <g id="그룹_6039" data-name="그룹 6039">
        <path id="패스_7141" data-name="패스 7141" d="M371.481,427.853a1.8,1.8,0,1,1-1.828-1.773A1.8,1.8,0,0,1,371.481,427.853Z" fill="#1d1e1c"/>
      </g>
      <g id="그룹_6040" data-name="그룹 6040">
        <path id="패스_7142" data-name="패스 7142" d="M352.4,428.141a1.8,1.8,0,1,1-1.827-1.772A1.8,1.8,0,0,1,352.4,428.141Z" fill="#1d1e1c"/>
      </g>
      <g id="그룹_6041" data-name="그룹 6041">
        <path id="패스_7143" data-name="패스 7143" d="M358.486,433.243a.2.2,0,0,1-.089-.018,1.168,1.168,0,0,1-.711-.766,3.08,3.08,0,0,1,.579-2.111.218.218,0,1,1,.358.248,2.62,2.62,0,0,0-.518,1.744.745.745,0,0,0,.464.485.218.218,0,0,1-.083.418Z" fill="#1d1e1c"/>
      </g>
      <g id="그룹_6042" data-name="그룹 6042">
        <path id="패스_7144" data-name="패스 7144" d="M373.425,416.2c-1.06,1.733-4.955.736-4.955.736Z" fill="#1d1e1c"/>
      </g>
      <g id="그룹_6043" data-name="그룹 6043">
        <path id="패스_7145" data-name="패스 7145" d="M351.155,416.68s-3.923.879-4.931-.885Z" fill="#1d1e1c"/>
      </g>
    </g>
    <g id="그룹_6064" data-name="그룹 6064">
      <g id="그룹_6046" data-name="그룹 6046">
        <g id="그룹_6045" data-name="그룹 6045">
          <path id="패스_7146" data-name="패스 7146" d="M537.637,334.959c-13.646-9.73-32.668-12.892-50.4-10.008-10.821,1.76-26.511,6.01-34.936,11.893-21.578,15.068-30.441,41.865-25.933,69.579,2.844,17.489,9.883,30.7,22.5,41.213,15.19,12.656,34.867,22.459,55.913,19.036,19.268-3.134,40.791-14.265,51.364-28.945s13.434-31.444,10.3-50.711C563.063,366.216,553.641,346.37,537.637,334.959ZM517.86,406.511c-2.74,6.069-6.712,10.3-12.485,12.478s-13.99,1.29-20.059-1.45c-6.63-2.992-10.377-9.488-12.311-15.949-1.608-5.369-1.12-10.451,1.367-15.96,3.941-8.729,11.511-14.678,20.486-14.9,3.5-.085,8.766,1.663,12.175,3.2,5.586,2.522,10.4,7.006,12.446,12.344C521.879,392.54,520.818,399.959,517.86,406.511Z" fill="#efc46b"/>
        </g>
      </g>
      <g id="그룹_6048" data-name="그룹 6048">
        <g id="그룹_6047" data-name="그룹 6047">
          <path id="패스_7147" data-name="패스 7147" d="M565.441,383.727l-1.028-2.136c-1.039-2.16-3.21-3.207-1.858-6.883l-.186-2.362a19.4,19.4,0,0,0-6.077-12.631l-1.729-1.62a19.374,19.374,0,0,1-4.219-5.747l-1.028-2.135a19.4,19.4,0,0,0-10.228-9.583l-2.2-.886a19.389,19.389,0,0,1-6.01-3.835l-1.73-1.62c-3.528-3.306-6.5-5.08-11.335-5.146l-3.383.768c-2.4-.032-4.3.218-7.641-2.3l-2.2-.886a19.4,19.4,0,0,0-14.015-.19l-2.221.825a19.382,19.382,0,0,1-7.026,1.215l-2.369-.032a19.405,19.405,0,0,0-13.137,4.885L464.053,335a19.4,19.4,0,0,1-6.112,3.671l-2.221.825c-4.532,1.686-10.1,1.949-12.313,6.248l-1.024,5.525c-1.1,2.131-.813,3.675-2.606,5.266L438,358.109c-3.234,2.869-3.15,4.936-3.461,8.777a5.466,5.466,0,0,1-.9,2.6l-1.513,2.26a6.207,6.207,0,0,0-.959,2.4,19.414,19.414,0,0,1-1.875,5.612l-1.085,2.107a19.4,19.4,0,0,0-1.483,13.937l.618,2.288a19.4,19.4,0,0,1,.561,7.107l-.251,2.357a16,16,0,0,0,3.3,11.819,5.535,5.535,0,0,1,.527.91l.739,1.632a14.267,14.267,0,0,0,1.074,1.924,19.389,19.389,0,0,1,2.506,5.581l.618,2.288a19.4,19.4,0,0,0,8.294,11.3l2,1.275a19.385,19.385,0,0,1,5.2,4.874l1.4,1.91a19.4,19.4,0,0,0,11.816,7.54l2.323.467c2.35.472,3.858-.475,5.879.814l2.8,2.018c4.076,2.6,8.906,4.694,13.67,3.87l2.336-.4a19.413,19.413,0,0,1,7.128.1l2.324.467a19.4,19.4,0,0,0,12.163-1.5,5.284,5.284,0,0,0,2.4-2.32l1.042-1.989a2.6,2.6,0,0,1,3.229-1.238c1.153.449,2.341,1.19,3.691.957l2.335-.4a19.4,19.4,0,0,0,12.015-7.216l1.454-1.871a19.424,19.424,0,0,1,5.333-4.732l2.032-1.22a19.4,19.4,0,0,0,8.6-11.069l.679-2.27c.687-2.3,1.993-2.7,3.463-4.6l1.569-1.787a2.91,2.91,0,0,1,1.679-.958c7.45-1.3,2.392-9.658,2.025-14.3l-.186-2.362a19.393,19.393,0,0,1,.754-7.089l.679-2.271A19.4,19.4,0,0,0,565.441,383.727Zm-41.716,15.854-.344.878a7.728,7.728,0,0,0-.532,2.787l0,.943a7.717,7.717,0,0,1-2.035,5.193l-.638.7a7.721,7.721,0,0,0-1.5,2.406l-.344.879a7.721,7.721,0,0,1-3.774,4.107l-.846.417A4.081,4.081,0,0,0,511,419.543l-.67,1.208a6.152,6.152,0,0,1-4.533,2l-.94.083a7.715,7.715,0,0,0-2.732.766l-.846.417a7.719,7.719,0,0,1-5.556.493l-.906-.262a7.739,7.739,0,0,0-2.824-.273l-.94.084a7.721,7.721,0,0,1-5.359-1.548l-.75-.571c-.732-1.376-1.619-1.01-2.535-1.275l-.906-.261a7.724,7.724,0,0,1-4.439-3.379l-.493-.8a7.721,7.721,0,0,0-1.9-2.1l-.751-.572c-1.472-1.121-5.294-1.837-3.7-4.392a1.166,1.166,0,0,0,.161-.752l-.114-.94c-.172-.938.053-1.434-.446-2.247l-.493-.8a7.719,7.719,0,0,1-1-5.487l.177-.926a7.714,7.714,0,0,0,.011-2.838l-.169-.927a7.718,7.718,0,0,1,1.046-5.479l.5-.8a2.768,2.768,0,0,1,1.262-.842,1.033,1.033,0,0,0,.49-1.286l-.314-.837a2.108,2.108,0,0,1-.052-1.327,7.727,7.727,0,0,1,2.781-4.008l.755-.565A7.722,7.722,0,0,0,476.72,377l.5-.8a7.949,7.949,0,0,1,4.774-3.03l1.342-.3c.919-.257,1.038-.956,1.8-1.528l.755-.565a7.72,7.72,0,0,1,5.371-1.506l.939.091a7.7,7.7,0,0,0,2.826-.251l.908-.254a7.717,7.717,0,0,1,5.553.536l.842.424a7.726,7.726,0,0,0,2.321.737,5.718,5.718,0,0,1,.856.191l.68.214a2.2,2.2,0,0,0,.41.085,6.373,6.373,0,0,1,4.382,2.156l.632.7a7.711,7.711,0,0,0,2.258,1.718l.842.424a7.72,7.72,0,0,1,3.742,4.137l.337.881a7.743,7.743,0,0,0,1.168,2.045,2.468,2.468,0,0,1,.458.921l.269,1.048a2.173,2.173,0,0,0,.531.958c1.057,1.111,1.693,1.634,1.686,3.355l0,.943c0,.954.53,1.279.871,2.17l1.368,1.769C525.826,396.067,524.428,397.789,523.725,399.581Z" fill="#ffecd4"/>
        </g>
      </g>
      <g id="그룹_6050" data-name="그룹 6050">
        <g id="그룹_6049" data-name="그룹 6049">
          <path id="패스_7148" data-name="패스 7148" d="M476.6,433.461a.7.7,0,0,1-.4-1.329l12.161-5.524a.7.7,0,1,1,.579,1.275l-12.16,5.524A.652.652,0,0,1,476.6,433.461Z" fill="#1d1e1c"/>
        </g>
      </g>
      <g id="그룹_6052" data-name="그룹 6052">
        <g id="그룹_6051" data-name="그룹 6051">
          <path id="패스_7149" data-name="패스 7149" d="M527.852,425.125a.761.761,0,0,1-.185.005l-13.285-1.386a.7.7,0,1,1,.145-1.393l13.285,1.386a.7.7,0,0,1,.04,1.388Z" fill="#1d1e1c"/>
        </g>
      </g>
      <g id="그룹_6054" data-name="그룹 6054">
        <g id="그룹_6053" data-name="그룹 6053">
          <path id="패스_7150" data-name="패스 7150" d="M507.833,437.965a11.113,11.113,0,0,1-6.262-.908c-4.23,4.549-11.62,1.877-11.939,1.758a.467.467,0,0,1,.325-.875c.073.027,7.39,2.666,11.146-1.762a.467.467,0,0,1,.588-.1,9.261,9.261,0,0,0,11.149-1.827.467.467,0,0,1,.667.654A10.127,10.127,0,0,1,507.833,437.965Z" fill="#1d1e1c"/>
        </g>
      </g>
      <g id="그룹_6056" data-name="그룹 6056">
        <g id="그룹_6055" data-name="그룹 6055">
          <path id="패스_7151" data-name="패스 7151" d="M501.336,433.042a1.876,1.876,0,0,1-1.167-.156,2.107,2.107,0,0,1-1.021-1.678,1.908,1.908,0,0,1,.458-1.878,1.782,1.782,0,0,1,1.631-.176.467.467,0,0,1-.319.877.892.892,0,0,0-.72.022c-.161.133-.208.5-.128,1.01a1.263,1.263,0,0,0,.523.991,1.312,1.312,0,0,0,1.028-.067.467.467,0,0,1,.417.835A2.574,2.574,0,0,1,501.336,433.042Z" fill="#1d1e1c"/>
        </g>
      </g>
      <g id="그룹_6063" data-name="그룹 6063">
        <g id="그룹_6060" data-name="그룹 6060">
          <g id="그룹_6057" data-name="그룹 6057">
            <path id="패스_7152" data-name="패스 7152" d="M557.613,354.334a2.794,2.794,0,0,0-3.93-.4l-29.517,24.106c2.453-3.3,5.053-6.74,7.362-9.8,4.254-5.63,8.653-11.452,11.793-15.852,1.718-2.408,2.951-4.234,3.767-5.583.979-1.617,2.32-3.832.8-5.69a2.791,2.791,0,0,0-4.152-.194c-.082.084-8.332,8.449-17.379,16.806-6.608,6.105-11.233,9.989-14.453,12.461,3.756-5.53,8.725-12.98,12.817-19.915,8.378-14.2,8.717-18.8,6.647-21.331a2.792,2.792,0,0,0-4.137-.209c-.107.107-10.89,10.871-22.589,21.565-19.811,18.111-25.636,20.875-27.12,21.274a2.793,2.793,0,0,0-3.511,4.213,3.981,3.981,0,0,0,2.936,1.428c1.866.093,4.912-.692,13.358-7.243,4.712-3.655,10.672-8.766,17.713-15.19,6.081-5.549,11.947-11.148,16.254-15.322-1.145,2.336-2.793,5.376-5.158,9.315-4.8,8-10.68,16.6-14.191,21.741-.589.862-1.1,1.6-1.533,2.25a9.441,9.441,0,0,1,3.152,1.526,9.563,9.563,0,0,1,4.036,2.29c.222.118.44.242.651.377.158.078.315.16.468.246,1.162-.77,2.5-1.735,4.078-2.954,3.251-2.521,7.229-5.915,11.847-10.107l-.552.731c-4.148,5.49-8.421,11.147-11.674,15.672q.246.357.462.738a10.338,10.338,0,0,1,1.431,2.04,10.474,10.474,0,0,1,2.909,5.163l37.016-30.23A2.793,2.793,0,0,0,557.613,354.334Z" fill="#683b13"/>
          </g>
          <g id="그룹_6058" data-name="그룹 6058">
            <path id="패스_7153" data-name="패스 7153" d="M478.336,372.257l0,0Z" fill="#683b13"/>
          </g>
          <g id="그룹_6059" data-name="그룹 6059">
            <path id="패스_7154" data-name="패스 7154" d="M526.836,332.1Z" fill="#683b13"/>
          </g>
        </g>
        <g id="그룹_6062" data-name="그룹 6062">
          <g id="그룹_6061" data-name="그룹 6061">
            <path id="패스_7155" data-name="패스 7155" d="M526.242,325.082a4.785,4.785,0,0,0-3.531-1.729c-3.52-.22-10.645,2.193-34.691,23.015-14.884,12.891-31.811,28.968-44.171,40.708-1.332,1.265-2.651,2.518-3.937,3.738q3.56-3.954,8.255-8.806c11.124-11.495,25.2-24.894,36.517-35.659,6.335-6.029,11.806-11.235,15.7-15.093,2.094-2.074,3.6-3.624,4.594-4.74a17.437,17.437,0,0,0,1.328-1.628,3.117,3.117,0,0,0,.117-3.989,3.314,3.314,0,0,0-2.332-1.2c-2.019-.161-5.221.856-21.979,14.9-10.063,8.434-22.188,19.192-32.885,28.683-4.5,3.994-9.066,8.044-13.023,11.508,4.571-6.766,10.243-14.9,14.43-20.9,3.16-4.53,5.889-8.443,7.893-11.376,1.076-1.575,1.855-2.739,2.38-3.558.9-1.41,1.929-3.008.582-4.657a2.793,2.793,0,0,0-1.89-1.012c-1.157-.114-1.765.37-2.868,1.248-.53.423-1.279,1.027-2.171,1.752-1.568,1.274-3.74,3.051-6.456,5.28-4.674,3.838-9.327,7.677-9.327,7.677a2.793,2.793,0,1,0,3.555,4.308c1.239-1.023,2.625-2.165,4.067-3.352l-.346.495c-5.114,7.333-10.911,15.645-15.414,22.362-2.477,3.7-4.281,6.488-5.514,8.536-1.784,2.963-3.073,5.1-1.551,6.968a2.891,2.891,0,0,0,2,1.044c1.246.1,2.2-.471,4.45-2.237,1.334-1.049,3.167-2.578,5.605-4.674,4.538-3.9,10.74-9.406,17.3-15.231,6.413-5.689,13.359-11.853,20.056-17.687-10.361,9.9-21.735,20.9-30.86,30.451a185.1,185.1,0,0,0-13.956,15.918c-3.3,4.425-6.023,8.933-3.567,11.941a2.865,2.865,0,0,0,2.034,1.041c1.421.089,2.193-.345,7.842-5.549,3.332-3.069,7.91-7.417,13.212-12.453,12.474-11.848,29.558-28.075,44.464-40.952,4.924-4.255,9.334-7.9,13.188-10.909-9.149,8.009-20.867,18.491-32.209,29.282-13.925,13.249-24.584,24.38-31.678,33.083-10.143,12.442-13.086,19.924-9.543,24.262a2.87,2.87,0,0,0,2.662,1c.907-.147,1.758-.763,3.31-1.934,1.16-.876,2.8-2.162,4.862-3.823,3.453-2.776,8.174-6.653,14.032-11.521,5.877-4.884,11.745-9.809,15.591-13.045a8.41,8.41,0,0,1,.23-3.805c-.037-.141-.07-.283-.1-.427a7.344,7.344,0,0,1,.06-3.231c-11.378,9.61-28.2,23.656-35.8,29.665,1.017-2.551,3.446-6.775,9.016-13.609,6.944-8.519,17.437-19.472,31.189-32.556,23.5-22.36,48.646-43.407,48.9-43.617A2.792,2.792,0,0,0,526.242,325.082Z" fill="#683b13"/>
          </g>
        </g>
      </g>
    </g>
    <g id="그룹_6070" data-name="그룹 6070">
      <path id="패스_7156" data-name="패스 7156" d="M904.629,367.158c-1.987-4.66-5.967-8.554-9.673-11.5a27.015,27.015,0,0,0-17.5-6.4c-3.622.011-7.009,1.377-10.534,2.876a22.258,22.258,0,0,0,3.917-5.45,29.381,29.381,0,0,0,2.929-9.711c.7-5.744-.962-11-3.278-15.867-2.178-4.575-4.862-8.837-9.021-11.764a29.312,29.312,0,0,0-13.384-5.131c-5.03-.609-10.392.89-14.795,2.627A27.02,27.02,0,0,0,818.994,318.8c-1.8,3.142-2.313,6.758-2.777,10.56a22.23,22.23,0,0,0-2.761-6.117,29.373,29.373,0,0,0-6.945-7.392c-4.627-3.474-10.01-4.667-15.38-5.094-5.051-.4-10.085-.209-14.7,1.93a29.3,29.3,0,0,0-11.136,9.025c-3.042,4.051-4.425,9.445-5.122,14.127a27.008,27.008,0,0,0,3.211,18.357c1.82,3.132,4.7,5.382,7.756,7.685a22.239,22.239,0,0,0-6.678-.667,29.38,29.38,0,0,0-9.874,2.319c-5.323,2.269-9.047,6.334-12.1,10.772-2.874,4.174-5.223,8.629-5.678,13.7a29.3,29.3,0,0,0,2.249,14.156c1.987,4.66,5.966,8.554,9.672,11.5a27.018,27.018,0,0,0,17.5,6.4c3.622-.011,7.008-1.376,10.534-2.876a22.26,22.26,0,0,0-3.918,5.45,29.364,29.364,0,0,0-2.928,9.711c-.7,5.744.962,11,3.277,15.867,2.178,4.575,4.862,8.837,9.022,11.765A29.3,29.3,0,0,0,795.6,465.1c5.03.609,10.392-.89,14.8-2.627a27.014,27.014,0,0,0,14.292-11.959c1.8-3.142,2.313-6.758,2.777-10.56a22.291,22.291,0,0,0,2.761,6.117,29.4,29.4,0,0,0,6.946,7.392c4.627,3.474,10.009,4.667,15.38,5.094,5.051.4,10.084.209,14.7-1.93A29.307,29.307,0,0,0,878.39,447.6c3.042-4.051,4.425-9.445,5.123-14.127a27.019,27.019,0,0,0-3.211-18.357c-1.82-3.132-4.7-5.382-7.757-7.685a22.248,22.248,0,0,0,6.678.667,29.381,29.381,0,0,0,9.875-2.319c5.322-2.269,9.046-6.334,12.1-10.772,2.873-4.173,5.222-8.629,5.678-13.7A29.321,29.321,0,0,0,904.629,367.158ZM850.475,390.25a25.377,25.377,0,0,0,7.956,10.043c-4.687-1.145-8.216-.474-12.077.573-2.727.739-4.578,2.523-7.018,4.036a29.359,29.359,0,0,0-8.021,7.347,25.369,25.369,0,0,0-4.719,11.912c-1.353-4.632-3.7-7.353-6.535-10.173-2-1.992-4.475-2.7-7-4.06a29.356,29.356,0,0,0-10.372-3.273,25.375,25.375,0,0,0-12.676,1.87c3.335-3.488,4.518-6.879,5.542-10.746.724-2.731.1-5.227.014-8.1a29.367,29.367,0,0,0-2.352-10.62,25.379,25.379,0,0,0-7.957-10.043c4.688,1.145,8.217.474,12.077-.573,2.727-.739,4.578-2.523,7.019-4.036a29.355,29.355,0,0,0,8.02-7.347,25.361,25.361,0,0,0,4.72-11.912c1.352,4.632,3.7,7.353,6.534,10.173,2,1.992,4.475,2.7,7.005,4.06A29.367,29.367,0,0,0,841,362.658a25.376,25.376,0,0,0,12.676-1.87c-3.335,3.488-4.519,6.88-5.543,10.746-.723,2.731-.1,5.227-.014,8.1A29.346,29.346,0,0,0,850.475,390.25Z" fill="#683b13"/>
      <g id="그룹_6069" data-name="그룹 6069">
        <g id="그룹_6065" data-name="그룹 6065">
          <path id="패스_7157" data-name="패스 7157" d="M804.423,336.63a2.935,2.935,0,0,0-2.347,2.119,1.472,1.472,0,0,1-.625.226.985.985,0,0,1-.754-.317,2.411,2.411,0,0,1-.544-.867,2.633,2.633,0,0,0,.2,1.094,1.625,1.625,0,0,0,.919.889,2.014,2.014,0,0,0,.72.118c.005.038.007.076.013.115a2.935,2.935,0,1,0,2.414-3.377Z" fill="#1d1e1c"/>
        </g>
        <g id="그룹_6066" data-name="그룹 6066">
          <path id="패스_7158" data-name="패스 7158" d="M823.755,331.165a2.421,2.421,0,0,1-.294.98.989.989,0,0,1-.643.507,1.472,1.472,0,0,1-.662-.053,2.932,2.932,0,1,0,.4,1.2c0-.039-.012-.077-.018-.115a1.989,1.989,0,0,0,.663-.3,1.622,1.622,0,0,0,.649-1.1A2.617,2.617,0,0,0,823.755,331.165Z" fill="#1d1e1c"/>
        </g>
        <g id="그룹_6067" data-name="그룹 6067">
          <path id="패스_7159" data-name="패스 7159" d="M810.579,344.234c-1.247.207-1.4-.071-1.523-.3-.3-.553.3-1.035.531-1.216,1.494-1.191,1.656-4.318,1.593-5.422a.554.554,0,1,1,1.107-.064c.01.169.2,3.816-1.465,5.817.9-.206,2.2-.59,3.33-.973a.555.555,0,0,1,.356,1.051A27.4,27.4,0,0,1,810.579,344.234Z" fill="#1d1e1c"/>
        </g>
        <g id="그룹_6068" data-name="그룹 6068">
          <path id="패스_7160" data-name="패스 7160" d="M835.987,316.754a39.386,39.386,0,0,0-4.709,2.857,44.426,44.426,0,0,0-5.121-3.37c-.515-.206-.751.2-.661.523a5.617,5.617,0,0,1,.054,2.294c-.177,1.666-1.545,3.87,1.337,2.935,1.194-.387,4.327-1.865,4.327-1.865a18.027,18.027,0,0,0,3.372,2.31c3.842,1.38,2.387-.346,2.339-2.482a19.764,19.764,0,0,1,.156-2.655C837.09,316.862,836.765,316.454,835.987,316.754Z" fill="#e6276f"/>
        </g>
      </g>
    </g>
    <g id="그룹_6086" data-name="그룹 6086">
      <g id="그룹_6075" data-name="그룹 6075">
        <g id="그룹_6072" data-name="그룹 6072">
          <g id="그룹_6071" data-name="그룹 6071">
            <path id="패스_7161" data-name="패스 7161" d="M941.471,298.81l-.818-5.853a7.708,7.708,0,0,1,3.665-9.2c5.8-3.557,26.441-15.823,55.353.679s37.11,38,34.736,63.55-28.053,44.483-32.038,46.892-18.54,9.546-37.93,2.819c-16.533-5.736-39.858-16.873-47.071-29.422s-8.246-26.714-3.4-38.539C919.14,317.11,921.588,309.069,941.471,298.81Z" fill="#ca8549"/>
          </g>
        </g>
        <g id="그룹_6074" data-name="그룹 6074">
          <g id="그룹_6073" data-name="그룹 6073">
            <path id="패스_7162" data-name="패스 7162" d="M944,297.44s21.973-7.949,48.56,6.118,20.7,37.151,20.7,37.151-4.848,34.776-32.192,38.077-38.612-14.106-38.612-14.106-16.4-16.809,5.787-44.519S993.4,329.3,993.5,330.252s3.412,27.7-22.922,28.526-8.89-22.471-8.89-22.471,7.485-4.472,4.056,4.856,7.419,8.744,8.65,6.986,18.569-10.051,4.285-20.62-25.408-3.2-29.073,6-6.593,26.024,10.865,34.057,28.015-.536,34.6-12.411,15.022-26.684,1.223-37.6-26.227-14.178-36.536-11.2-29.527,15.4-30.933,40.25,22.234,37.662,40.875,40,36.242-1.9,42.617-20.215,12.654-32.453,4.9-47.4S995.7,291.366,973.67,291.454,944,297.44,944,297.44Z" fill="#683b13"/>
          </g>
        </g>
      </g>
      <g id="그룹_6084" data-name="그룹 6084">
        <g id="그룹_6077" data-name="그룹 6077">
          <g id="그룹_6076" data-name="그룹 6076">
            <path id="패스_7163" data-name="패스 7163" d="M1011.252,339.7a23.4,23.4,0,0,0-1.239-2.265,2.436,2.436,0,0,1-.157-.321c-1.02-2.521-2.993-.551-4.4-.172,0,0-13.013,5.816-13.388,6.009-4.8,2.469-7.19,4.562-7.742,6.983a12.79,12.79,0,0,0-6.867,1.223c-1.523-1.962-4.54-3.235-9.73-4.264-.428-.085-14.968-2.194-14.968-2.194-1.478.009-4.091-1.344-4.113,1.317a2.241,2.241,0,0,1-.029.346,21.38,21.38,0,0,0-.326,2.476c-.048,6.223,5.892,10.651,18.4,11.552l4.856-.028a10.321,10.321,0,0,0,2.592-.332c2.843-.756,4.51-2.067,4.576-4.2l0-.049a7.866,7.866,0,0,0-.55-3.416,12.414,12.414,0,0,1,6.041-.867,8.7,8.7,0,0,0,.749,2.776l.02.046c.864,2.01,2.939,2.817,5.923,2.79a10.333,10.333,0,0,0,2.585-.365l4.622-1.247C1009.656,351.36,1013.634,345.6,1011.252,339.7Z" fill="#1d1e1c"/>
          </g>
        </g>
        <g id="그룹_6080" data-name="그룹 6080">
          <g id="그룹_6078" data-name="그룹 6078">
            <path id="패스_7164" data-name="패스 7164" d="M967.147,369.619s17.578,3.394,25.139.105-7.7,7.679-18.921,6.456C966.79,375.464,967.987,371.143,967.147,369.619Z" fill="#fff"/>
          </g>
          <g id="그룹_6079" data-name="그룹 6079">
            <path id="패스_7165" data-name="패스 7165" d="M976.319,376.38a18.065,18.065,0,0,1-2.968-.064c-5.161-.562-5.643-3.385-5.963-5.252a4.753,4.753,0,0,0-.361-1.379l-.141-.256.286.056c.176.034,17.624,3.348,25.059.113,1.893-.823,2.073-.637,2.157-.547a.237.237,0,0,1,.021.288C993.844,370.482,984.64,375.91,976.319,376.38Zm-8.94-6.579a6.792,6.792,0,0,1,.279,1.217c.323,1.893.766,4.486,5.722,5.026,9.131.993,20.256-5.888,20.775-6.8a5.56,5.56,0,0,0-1.815.608C985.329,372.9,969.591,370.2,967.379,369.8Z" fill="#1d1e1c"/>
          </g>
        </g>
        <g id="그룹_6082" data-name="그룹 6082">
          <g id="그룹_6081" data-name="그룹 6081">
            <path id="패스_7166" data-name="패스 7166" d="M989.47,366.944c-.356.02-.568.014-.606.012a1.093,1.093,0,0,1,.085-2.185,15.353,15.353,0,0,0,8.229-2.919,1.263,1.263,0,0,0,.242-.2c-.128-.261-1.062-1.548-7.561-3.7-3.826-1.267-7.619-2.174-7.657-2.183a1.094,1.094,0,1,1,.506-2.128c.04.009,3.963.947,7.9,2.257,7.533,2.5,8.754,4.2,8.976,5.4a2.287,2.287,0,0,1-1.177,2.363A18.055,18.055,0,0,1,989.47,366.944Zm7.968-5.249h0Z" fill="#1d1e1c"/>
          </g>
        </g>
        <g id="그룹_6083" data-name="그룹 6083">
          <path id="패스_7167" data-name="패스 7167" d="M977.339,373.284l-.071-.264a9.947,9.947,0,0,1-4.644-.212,2.881,2.881,0,0,1,.132-.846l-.258-.092a3.1,3.1,0,0,0-.149.868,16.589,16.589,0,0,1-1.667-.527l-.1.253a16.338,16.338,0,0,0,1.776.564,2.081,2.081,0,0,0,.26.878l.237-.136a1.777,1.777,0,0,1-.213-.671,12.151,12.151,0,0,0,3.43.38A6.131,6.131,0,0,0,977.339,373.284Z" fill="#1d1e1c"/>
        </g>
      </g>
      <g id="그룹_6085" data-name="그룹 6085">
        <path id="패스_7168" data-name="패스 7168" d="M969.162,332.8a.954.954,0,0,1-.537-.13c-1.46-.841-12.32-5.849-17.468-3.38a.957.957,0,0,1-.827-1.726c6.593-3.159,19.145,3.386,19.264,3.456a.957.957,0,0,1-.432,1.78Z" fill="#1d1e1c"/>
      </g>
    </g>
    <g id="그룹_6108" data-name="그룹 6108">
      <g id="그룹_6087" data-name="그룹 6087">
        <path id="패스_7169" data-name="패스 7169" d="M1054.508,371.192c1.953,7,4.836,11.421,8.941,16.882,2.463,3.277,5.846,5.681,8.976,8.25a51.035,51.035,0,0,0,44.319,10.26c6.114-1.451,7.6-1.8,14.213-5.718a47.633,47.633,0,0,0,13.059-11.044,51.473,51.473,0,0,0,8.5-14.218c2.21-5.579,4.625-10.522,4.748-16.691a47.338,47.338,0,0,0-1.232-12.393,65.787,65.787,0,0,0-4.783-13.546c-2.385-4.569-5.011-10.071-8.638-13.343-3.477-3.136-6.985-6.609-12.477-8.726a78.714,78.714,0,0,0-17.952-4.769c-6.182-.888-12.847-1.555-19.292-.025a58.427,58.427,0,0,0-21.806,10.4,47.4,47.4,0,0,0-11.321,12.95c-2.241,3.581-3.008,7.814-4.312,11.857a52.512,52.512,0,0,0-2.447,18.3C1053.253,365.076,1052.607,364.374,1054.508,371.192Z" fill="#efc46b"/>
      </g>
      <g id="그룹_6088" data-name="그룹 6088">
        <path id="패스_7170" data-name="패스 7170" d="M1054.717,360.779c.293,7.518,2.14,12.657,4.969,19.139,1.7,3.889,4.529,7.118,7.066,10.453a52.832,52.832,0,0,0,42.179,20.929c6.505,0,8.084,0,15.681-2.361a49.28,49.28,0,0,0,15.791-8,53.243,53.243,0,0,0,11.961-12.286c3.56-5.09,7.174-9.49,8.773-15.673a49.05,49.05,0,0,0,1.722-12.775,68.118,68.118,0,0,0-1.579-14.785c-1.309-5.172-2.638-11.34-5.509-15.5-2.751-3.99-5.454-8.325-10.478-11.77a81.4,81.4,0,0,0-16.939-9.1c-6.014-2.372-12.566-4.638-19.423-4.638a60.48,60.48,0,0,0-24.446,5.264,49.059,49.059,0,0,0-14.5,10.335c-3.112,3.07-4.9,7.15-7.177,10.909a54.4,54.4,0,0,0-6.84,17.847C1054.915,354.319,1054.433,353.458,1054.717,360.779Z" fill="#fdf297"/>
      </g>
      <g id="그룹_6089" data-name="그룹 6089">
        <path id="패스_7171" data-name="패스 7171" d="M1058.362,362.718c.564,7.393,2.572,12.386,5.6,18.665,1.814,3.767,4.721,6.843,7.342,10.035a52.548,52.548,0,0,0,11.463,10.371,51.957,51.957,0,0,0,30.843,8.689c6.405-.238,7.96-.3,15.355-2.9a48.578,48.578,0,0,0,15.257-8.459,52.474,52.474,0,0,0,11.328-12.538c3.318-5.143,6.716-9.609,8.063-15.756a48.3,48.3,0,0,0,1.227-12.644,67.122,67.122,0,0,0-2.1-14.5c-1.48-5.045-3.014-11.07-5.994-15.064-2.856-3.828-5.678-8-10.752-11.207a80.27,80.27,0,0,0-17.014-8.334c-6.009-2.115-12.545-4.105-19.3-3.854A59.594,59.594,0,0,0,1085.8,311.3a48.332,48.332,0,0,0-13.9,10.71c-2.952,3.138-4.56,7.221-6.667,11.006a53.593,53.593,0,0,0-6.08,17.827C1058.32,356.349,1057.813,355.519,1058.362,362.718Z" fill="#efc46b"/>
      </g>
      <g id="그룹_6090" data-name="그룹 6090">
        <path id="패스_7172" data-name="패스 7172" d="M1091.006,308.124c0,3.062,2.584,3.352,5.853,4.717a38.315,38.315,0,0,0,14.932,2.872,67.852,67.852,0,0,0,8.279-.452,20.543,20.543,0,0,0,9.169-3.392,5.8,5.8,0,0,0,2.758-5.227,10.944,10.944,0,0,0-.949-4.194c-.747-1.909-2.113-3.128-3.9-4.775-2.063-1.9-3.76-4.648-7.151-6.234-2.79-1.306-5.616-2.564-8.5-2.564-3.537,0-7.9,2.214-10.476,3.076-2.742.917-3.561,2.72-5.3,4.258-1.128,1-2.324,3.561-3.055,4.7A13.2,13.2,0,0,0,1091.006,308.124Z" fill="#fff"/>
      </g>
      <g id="그룹_6091" data-name="그룹 6091">
        <path id="패스_7173" data-name="패스 7173" d="M1096.791,313c-.585-.244-1.143-.452-1.682-.653-2.39-.89-4.278-1.593-4.278-4.225a13.387,13.387,0,0,1,1.694-7.314c.21-.327.468-.787.74-1.276a14.87,14.87,0,0,1,2.346-3.455,17.664,17.664,0,0,0,1.371-1.4,8.706,8.706,0,0,1,3.988-2.89c.652-.218,1.435-.53,2.264-.859,2.494-.992,5.6-2.227,8.267-2.227,2.827,0,5.554,1.169,8.571,2.581a17.162,17.162,0,0,1,5.441,4.442c.6.654,1.158,1.271,1.755,1.822l.166.153c1.7,1.564,3.038,2.8,3.777,4.687a11.158,11.158,0,0,1,.961,4.257,5.948,5.948,0,0,1-2.834,5.371,20.815,20.815,0,0,1-9.246,3.422,68.271,68.271,0,0,1-8.3.453A38.7,38.7,0,0,1,1096.791,313Zm6.573-21.751c-.834.331-1.622.645-2.284.866a8.433,8.433,0,0,0-3.84,2.793,17.8,17.8,0,0,1-1.4,1.43,14.675,14.675,0,0,0-2.272,3.365c-.276.493-.535.958-.752,1.294a13.067,13.067,0,0,0-1.638,7.125c0,2.389,1.612,2.989,4.051,3.9.542.2,1.1.411,1.7.658a38.351,38.351,0,0,0,14.865,2.859,67.973,67.973,0,0,0,8.258-.451,20.469,20.469,0,0,0,9.092-3.363,5.629,5.629,0,0,0,2.681-5.083,10.839,10.839,0,0,0-.937-4.13c-.708-1.813-2.023-3.024-3.688-4.558l-.166-.153c-.608-.56-1.175-1.183-1.776-1.843a16.654,16.654,0,0,0-5.331-4.361c-2.978-1.394-5.668-2.548-8.423-2.548C1108.9,289.049,1105.829,290.27,1103.364,291.251Z" fill="#dddede"/>
      </g>
      <g id="그룹_6107" data-name="그룹 6107">
        <g id="그룹_6093" data-name="그룹 6093">
          <g id="그룹_6092" data-name="그룹 6092">
            <path id="패스_7174" data-name="패스 7174" d="M1129.213,365.771a.524.524,0,0,0,.108-1.036l-6.2-1.306,6.319-3.1a.523.523,0,1,0-.461-.94l-7.684,3.764a.524.524,0,0,0,.122.983l7.685,1.62A.5.5,0,0,0,1129.213,365.771Z" fill="#1d1e1c"/>
          </g>
        </g>
        <g id="그룹_6095" data-name="그룹 6095">
          <g id="그룹_6094" data-name="그룹 6094">
            <path id="패스_7175" data-name="패스 7175" d="M1096.585,366.25a.5.5,0,0,0,.108-.011l7.685-1.621a.523.523,0,0,0,.123-.982l-7.685-3.764a.523.523,0,1,0-.461.94l6.319,3.1-6.2,1.307a.524.524,0,0,0,.108,1.036Z" fill="#1d1e1c"/>
          </g>
        </g>
        <g id="그룹_6097" data-name="그룹 6097">
          <g id="그룹_6096" data-name="그룹 6096">
            <path id="패스_7176" data-name="패스 7176" d="M1110.843,373.386c.041,0,.082,0,.124,0a1.812,1.812,0,0,0,1.474-.817,1.461,1.461,0,0,0,.344.474,1.515,1.515,0,0,0,1.264.324,2.322,2.322,0,0,0,2.061-1.6.249.249,0,0,0-.482-.122,1.841,1.841,0,0,1-1.643,1.228,1.049,1.049,0,0,1-.866-.2,1.422,1.422,0,0,1-.369-.962.249.249,0,0,0-.5-.029,1.368,1.368,0,0,1-1.316,1.206c-1.2.065-1.56-1.232-1.563-1.246a.249.249,0,0,0-.481.128A2.115,2.115,0,0,0,1110.843,373.386Z" fill="#1d1e1c"/>
          </g>
        </g>
        <g id="그룹_6099" data-name="그룹 6099">
          <g id="그룹_6098" data-name="그룹 6098">
            <ellipse id="타원_370" data-name="타원 370" cx="3.258" cy="1.287" rx="3.258" ry="1.287" transform="translate(1127.287 368.519)" fill="#e6969f"/>
          </g>
        </g>
        <g id="그룹_6101" data-name="그룹 6101">
          <g id="그룹_6100" data-name="그룹 6100">
            <ellipse id="타원_371" data-name="타원 371" cx="3.258" cy="1.287" rx="3.258" ry="1.287" transform="translate(1091.011 368.519)" fill="#e6969f"/>
          </g>
        </g>
        <g id="그룹_6103" data-name="그룹 6103">
          <g id="그룹_6102" data-name="그룹 6102">
            <path id="패스_7177" data-name="패스 7177" d="M1096.519,341.22a.177.177,0,0,0,.1-.033,3.043,3.043,0,0,1,2.817.013.174.174,0,0,0,.161-.309,3.334,3.334,0,0,0-3.182.012.175.175,0,0,0,.1.317Z" fill="#1d1e1c"/>
          </g>
        </g>
        <g id="그룹_6105" data-name="그룹 6105">
          <g id="그룹_6104" data-name="그룹 6104">
            <path id="패스_7178" data-name="패스 7178" d="M1123.871,340.283a.173.173,0,0,0,.1-.032,3.046,3.046,0,0,1,2.818.013.175.175,0,0,0,.161-.31,3.338,3.338,0,0,0-3.182.013.174.174,0,0,0,.1.316Z" fill="#1d1e1c"/>
          </g>
        </g>
        <g id="그룹_6106" data-name="그룹 6106">
          <path id="패스_7179" data-name="패스 7179" d="M1112.5,367.686a.219.219,0,0,0,.219-.22v-.847a.219.219,0,1,0-.439,0v.847A.219.219,0,0,0,1112.5,367.686Z" fill="#1d1e1c"/>
        </g>
      </g>
    </g>
    <g id="그룹_6124" data-name="그룹 6124">
      <g id="그룹_6109" data-name="그룹 6109">
        <path id="패스_7180" data-name="패스 7180" d="M721.165,372.563c-1.513,11.933-7.279,23.285-14.942,32.717-4.55,5.6-9.935,12.554-13.263,16.039-3.043,3.185-7.163,5.534-10.175,7.971-3.934,3.183-10.609,6.4-15.508,6.1-4.926-.3-9.485-2.05-12.274-3.009-4.678-1.609-6.554-2.986-12.254-5.7-17.1-8.142-35.221-22.309-40.335-39.44-6.769-22.673-5.613-53.087,18.488-58.584,25.552-5.828,27.063,10.882,34.223,15.325,7.215-8.323,6.072-22.677,30.1-26.912C706.963,313.236,723.937,350.7,721.165,372.563Z" fill="#eb7eae"/>
      </g>
      <g id="그룹_6110" data-name="그룹 6110">
        <rect id="사각형_2322" data-name="사각형 2322" width="10.252" height="1.605" transform="matrix(0.707, -0.707, 0.707, 0.707, 608.178, 385.773)" fill="#e63a59"/>
      </g>
      <g id="그룹_6111" data-name="그룹 6111">
        <rect id="사각형_2323" data-name="사각형 2323" width="1.605" height="7.827" transform="translate(693.901 401.102) rotate(-13.645)" fill="#e63a59"/>
      </g>
      <g id="그룹_6112" data-name="그룹 6112">
        <rect id="사각형_2324" data-name="사각형 2324" width="1.605" height="8.276" transform="matrix(0.386, -0.923, 0.923, 0.386, 698.924, 379.095)" fill="#fff096"/>
      </g>
      <g id="그룹_6113" data-name="그룹 6113">
        <rect id="사각형_2325" data-name="사각형 2325" width="10.253" height="1.605" transform="matrix(0.707, -0.707, 0.707, 0.707, 609.249, 348.84)" fill="#fff096"/>
      </g>
      <g id="그룹_6114" data-name="그룹 6114">
        <rect id="사각형_2326" data-name="사각형 2326" width="8.893" height="1.605" transform="translate(701.945 355.035) rotate(-59.532)" fill="#fff096"/>
      </g>
      <g id="그룹_6115" data-name="그룹 6115">
        <rect id="사각형_2327" data-name="사각형 2327" width="1.605" height="10.253" transform="translate(633.711 357.359) rotate(-82.532)" fill="#fff096"/>
      </g>
      <g id="그룹_6116" data-name="그룹 6116">
        <rect id="사각형_2328" data-name="사각형 2328" width="1.605" height="7.538" transform="translate(621.908 396.684) rotate(-39.996)" fill="#fff096"/>
      </g>
      <g id="그룹_6117" data-name="그룹 6117">
        <rect id="사각형_2329" data-name="사각형 2329" width="1.605" height="10.252" transform="translate(682.115 330.363) rotate(-52.081)" fill="#e63a59"/>
      </g>
      <g id="그룹_6118" data-name="그룹 6118">
        <path id="패스_7181" data-name="패스 7181" d="M653.541,393.167a1.229,1.229,0,0,0,.013-.171,1.086,1.086,0,0,0-.023-.168.957.957,0,0,0-.026-.118,1.958,1.958,0,0,0-.063-.208,2.927,2.927,0,0,0-.159-.373,3.271,3.271,0,0,0-.43-.634,3.5,3.5,0,0,0-1.115-.838,5.5,5.5,0,0,0-2.354-.491,10.281,10.281,0,0,0-1.117.051,6.411,6.411,0,0,1-1,.009,6.333,6.333,0,0,1-2.047-.384,4.121,4.121,0,0,0,.932.536,10.482,10.482,0,0,0,1.015.383,6.848,6.848,0,0,0,1.089.273c.129.026.257.048.384.072a2.776,2.776,0,0,0-1.281,1.661,3.2,3.2,0,0,0,6.152,1.66A2.717,2.717,0,0,0,653.541,393.167Z" fill="#19180f"/>
      </g>
      <g id="그룹_6119" data-name="그룹 6119">
        <path id="패스_7182" data-name="패스 7182" d="M677.313,384.62a6.322,6.322,0,0,1-.94.349,10.463,10.463,0,0,0-1.062.35,5.51,5.51,0,0,0-2.024,1.3,3.51,3.51,0,0,0-.744,1.181,3.28,3.28,0,0,0-.175.745,2.851,2.851,0,0,0-.016.406c0,.067.008.143.015.217,0,.035.01.076.018.12a1.125,1.125,0,0,0,.039.164,1.042,1.042,0,0,0,.073.155,2.713,2.713,0,0,0,.48,1.165,3.2,3.2,0,0,0,5.155-3.743,2.776,2.776,0,0,0-1.788-1.1l.333-.2a6.961,6.961,0,0,0,.921-.644,10.467,10.467,0,0,0,.811-.719,4.1,4.1,0,0,0,.68-.833A6.345,6.345,0,0,1,677.313,384.62Z" fill="#19180f"/>
      </g>
      <g id="그룹_6120" data-name="그룹 6120">
        <path id="패스_7183" data-name="패스 7183" d="M665.387,394.485a.4.4,0,0,1-.409-.182c-.831-1.319-1.214-1.264-1.27-1.264-.28.065-.557.873-.629,1.557a.4.4,0,0,1-.8-.083c.035-.337.259-2.026,1.244-2.256.876-.213,1.633.827,2.132,1.619a.4.4,0,0,1-.126.553A.392.392,0,0,1,665.387,394.485Z" fill="#19180f"/>
      </g>
      <g id="그룹_6121" data-name="그룹 6121">
        <path id="패스_7184" data-name="패스 7184" d="M670.4,397.6a1.933,1.933,0,0,1,.261-.076,1.613,1.613,0,0,1,1.389.337.4.4,0,1,1-.5.625.8.8,0,0,0-.717-.177c-1.193.261-2.631,2.607-3.082,3.49a.4.4,0,1,1-.715-.364C667.206,401.089,668.713,398.207,670.4,397.6Z" fill="#1d1e1c"/>
      </g>
      <g id="그룹_6122" data-name="그룹 6122">
        <path id="패스_7185" data-name="패스 7185" d="M669.886,372.783a.2.2,0,0,1-.208-.3,5.99,5.99,0,0,1,3.473-2.546.207.207,0,0,1,.242.147.2.2,0,0,1-.147.243,5.66,5.66,0,0,0-3.222,2.36A.2.2,0,0,1,669.886,372.783Z" fill="#1d1e1c"/>
      </g>
      <g id="그룹_6123" data-name="그룹 6123">
        <path id="패스_7186" data-name="패스 7186" d="M651.213,376.075a.2.2,0,0,1-.163-.043,5.683,5.683,0,0,0-3.835-1.116.2.2,0,0,1-.221-.178.208.208,0,0,1,.178-.221,5.987,5.987,0,0,1,4.133,1.2.2.2,0,0,1-.092.353Z" fill="#1d1e1c"/>
      </g>
    </g>
    <g id="그룹_6165" data-name="그룹 6165">
      <g id="그룹_6125" data-name="그룹 6125">
        <path id="패스_7187" data-name="패스 7187" d="M1580.2,399.717c-4.645-3.291-11.733-4.633-20.418-5.148-18.577-1.1-44.49,1.6-69.627-2.792-36.888-6.438-54.167-11.452-101.523-42.381a172.339,172.339,0,0,0-15.525-9.1,84.929,84.929,0,0,1-23.174-8.421l-.054-.009c-20.608-3.611-25.969,8.588-25.969,8.588-30.413,45.657,103.119,70.015,118.974,76.014s102.725,27.892,119.53,21.187C1582.184,429.766,1594.869,410.109,1580.2,399.717Z" fill="#260a23"/>
      </g>
      <g id="그룹_6131" data-name="그룹 6131">
        <g id="그룹_6126" data-name="그룹 6126">
          <path id="패스_7188" data-name="패스 7188" d="M1376.145,404.317c-2.151,3.431,2.3,10.094,2.3,10.094s7.938,1.1,10.089-2.33-2.3-10.1-2.3-10.1S1378.3,400.885,1376.145,404.317Z" fill="#683b11"/>
        </g>
        <g id="그룹_6127" data-name="그룹 6127">
          <path id="패스_7189" data-name="패스 7189" d="M1370.9,413.215c-2.314,2.464.259,8.641.259,8.641s6.326,2.18,8.641-.284-.26-8.641-.26-8.641S1373.214,410.75,1370.9,413.215Z" fill="#683b11"/>
        </g>
        <g id="그룹_6128" data-name="그룹 6128">
          <path id="패스_7190" data-name="패스 7190" d="M1365.619,418.475c-2.378,1.4-1.787,6.822-1.787,6.822s4.448,3.163,6.827,1.768,1.787-6.822,1.787-6.822S1368,417.08,1365.619,418.475Z" fill="#683b11"/>
        </g>
        <g id="그룹_6129" data-name="그룹 6129">
          <path id="패스_7191" data-name="패스 7191" d="M1357.511,423.575a50.718,50.718,0,0,1-5.335.52s4.538,5.494,4.832,8.958c.406,4.781-1.719,4.281,4.847-1.682,1.831-1.661,1.737-6.076,1.737-6.076S1360.172,423.159,1357.511,423.575Z" fill="#683b11"/>
        </g>
        <g id="그룹_6130" data-name="그룹 6130">
          <path id="패스_7192" data-name="패스 7192" d="M1368.883,427.558a39.714,39.714,0,0,0-5.014-2.383,44.488,44.488,0,0,0,0-6.178.45.45,0,0,0-.806-.267,5.646,5.646,0,0,1-1.9,1.315c-1.5.775-4.113.843-1.73,2.752.987.791,3.967,2.61,3.967,2.61a18.26,18.26,0,0,0-.078,4.12c.966,4,1.614,1.818,3.386.6a19.565,19.565,0,0,1,2.322-1.339C1369.4,428.547,1369.567,428.047,1368.883,427.558Z" fill="#e8530e"/>
        </g>
      </g>
      <g id="그룹_6137" data-name="그룹 6137">
        <g id="그룹_6132" data-name="그룹 6132">
          <path id="패스_7193" data-name="패스 7193" d="M1522,434.257c.793,3.971-5.734,8.622-5.734,8.622s-7.812-1.788-8.6-5.759,5.734-8.621,5.734-8.621S1521.211,430.286,1522,434.257Z" fill="#683b11"/>
        </g>
        <g id="그룹_6133" data-name="그룹 6133">
          <path id="패스_7194" data-name="패스 7194" d="M1523.75,444.437c1.289,3.125-3.309,7.987-3.309,7.987s-6.688-.206-7.977-3.331,3.309-7.987,3.309-7.987S1522.461,441.312,1523.75,444.437Z" fill="#683b11"/>
        </g>
        <g id="그룹_6134" data-name="그룹 6134">
          <path id="패스_7195" data-name="패스 7195" d="M1526.821,451.229c1.728,2.149-.751,7.012-.751,7.012s-5.281,1.38-7.009-.77.75-7.011.75-7.011S1525.092,449.081,1526.821,451.229Z" fill="#683b11"/>
        </g>
        <g id="그룹_6135" data-name="그룹 6135">
          <path id="패스_7196" data-name="패스 7196" d="M1532.591,458.874a50.64,50.64,0,0,0,4.8,2.379s-6.192,3.527-7.7,6.662c-2.076,4.325.088,4.611-3.935-3.293-1.121-2.2.533-6.3.533-6.3S1530.251,457.541,1532.591,458.874Z" fill="#683b11"/>
        </g>
        <g id="그룹_6136" data-name="그룹 6136">
          <path id="패스_7197" data-name="패스 7197" d="M1520.546,458.562a39.844,39.844,0,0,1,5.533-.448,44.471,44.471,0,0,1,2.19-5.777.45.45,0,0,1,.849.037,5.663,5.663,0,0,0,1.312,1.9c1.128,1.256,3.547,2.247.641,3.187-1.2.389-4.635,1.033-4.635,1.033a18.243,18.243,0,0,1-1.388,3.878c-2.323,3.4-2.155,1.127-3.377-.645a19.711,19.711,0,0,0-1.7-2.076C1519.708,459.3,1519.733,458.778,1520.546,458.562Z" fill="#e8530e"/>
        </g>
      </g>
      <g id="그룹_6150" data-name="그룹 6150">
        <g id="그룹_6140" data-name="그룹 6140">
          <g id="그룹_6138" data-name="그룹 6138">
            <path id="패스_7198" data-name="패스 7198" d="M1519.164,415.271c-1.6,6.3-1.842,7.086-3.773,13.746-.062.212-.124.434-.186.664-1.833,6.35-2.316,9.144-3.618,14.325,0,.009-2.828,11.924-2.828,11.924a13.637,13.637,0,0,1-3.316,1.625c-11.815.539-17.17,10.023-30.555,9.312a207.362,207.362,0,0,1-71.953-16.843c-2.859-1.247-6.29-11.832-8.708-13.621-3.321-2.462-6.232-.4-9.012-3.265-.142-3.073-.544-11.082-.73-14.545-.2-3.879-1.019-11.5-1.231-16.88-.018-.222-.027-.434-.027-.638-.274-8.3-.106-11.381.487-15.835,1.373-10.327,1.258-13.683,5.137-20.565,10.008-17.713,31.423-32.884,65.183-26.56,40.695,7.616,63.385,12.6,68.265,44.831C1524.69,398.631,1520.5,409.984,1519.164,415.271Z" fill="#f9d5cd"/>
          </g>
          <g id="그룹_6139" data-name="그룹 6139">
            <path id="패스_7199" data-name="패스 7199" d="M1524.792,378.587c-5.412-20.256-23.8-34.376-37.975-36.558l-50.979-7.843c-14.1-2.17-36.052,8.19-47.28,25.715-7.258,11.328-11.1,39.625-9.23,41.717,1.82,2.036,52.408-9.979,89.905.762a3.356,3.356,0,0,0,4.106-2.237,262.523,262.523,0,0,0,8.16-32.959,368.8,368.8,0,0,1-.888,39.162c13.341,5.363,35.568,25.258,38.96,24.453S1528.765,393.456,1524.792,378.587Z" fill="#683b11"/>
          </g>
        </g>
        <g id="그룹_6149" data-name="그룹 6149">
          <g id="그룹_6142" data-name="그룹 6142">
            <g id="그룹_6141" data-name="그룹 6141">
              <path id="패스_7200" data-name="패스 7200" d="M1447.785,432.089a8.375,8.375,0,0,1-1.133-.244.295.295,0,0,1,.18-.561c.227.072,5.591,1.725,8.107-2.663a.294.294,0,0,1,.511.292C1453.428,432.44,1449.667,432.379,1447.785,432.089Z" fill="#bd1622"/>
            </g>
          </g>
          <g id="그룹_6144" data-name="그룹 6144">
            <g id="그룹_6143" data-name="그룹 6143">
              <path id="패스_7201" data-name="패스 7201" d="M1447.469,422.174a.291.291,0,0,1-.225-.174c-.025-.056-.6-1.4.03-2.214a2.1,2.1,0,0,1,2.106-.513,2.263,2.263,0,0,1,1.863,1.119,2.562,2.562,0,0,1-.235,2.14.295.295,0,0,1-.507-.3,2,2,0,0,0,.208-1.591,1.734,1.734,0,0,0-1.418-.785c-.541-.083-1.25-.1-1.55.289-.413.536.037,1.609.042,1.62a.294.294,0,0,1-.314.409Z" fill="#422918"/>
            </g>
          </g>
          <g id="그룹_6146" data-name="그룹 6146">
            <g id="그룹_6145" data-name="그룹 6145">
              <path id="패스_7202" data-name="패스 7202" d="M1434.3,409.478l-6.957-4.243a.317.317,0,0,0-.331.541l3.011,1.837c-1.885.159-3.632,2.271-4.064,5.082a7.339,7.339,0,0,0,.466,4.08,7.389,7.389,0,0,1-1.947-.352.238.238,0,0,0-.163.447,7.077,7.077,0,0,0,1.265.306,7.382,7.382,0,0,0,1.093.085,3.22,3.22,0,0,0,2.242,1.68c2.114.325,4.217-1.944,4.7-5.068a7.1,7.1,0,0,0-.667-4.478l1.024.624a.3.3,0,0,0,.117.043.317.317,0,0,0,.213-.584Z" fill="#422918"/>
            </g>
          </g>
          <g id="그룹_6148" data-name="그룹 6148">
            <g id="그룹_6147" data-name="그룹 6147">
              <path id="패스_7203" data-name="패스 7203" d="M1466.583,414.445l7.912-1.955a.317.317,0,1,1,.152.616l-3.423.846c1.75.719,2.781,3.258,2.348,6.069a7.337,7.337,0,0,1-1.671,3.751,7.354,7.354,0,0,0,1.963.25.238.238,0,1,1,.021.475,7.23,7.23,0,0,1-1.3-.088,7.457,7.457,0,0,1-1.068-.248,3.219,3.219,0,0,1-2.643.928c-2.114-.325-3.438-3.121-2.957-6.246a7.094,7.094,0,0,1,1.982-4.07l-1.164.288a.311.311,0,0,1-.125.006.317.317,0,0,1-.028-.622Z" fill="#422918"/>
            </g>
          </g>
        </g>
      </g>
      <g id="그룹_6164" data-name="그룹 6164">
        <g id="그룹_6160" data-name="그룹 6160">
          <g id="그룹_6159" data-name="그룹 6159" clip-path="url(#clip-path)">
            <g id="그룹_6151" data-name="그룹 6151">
              <path id="패스_7204" data-name="패스 7204" d="M1486.033,391.505c24.442,4.51,49.706,2.127,67.79,3.375-9.177-3.4-19.509-7.485-27.663-11.4a.97.97,0,0,1-.2-1.619c2.286-1.915,4.41-3.885,5.65-7.417a2.982,2.982,0,0,0-.788-3.168c-3.147-2.923-10.787-9.774-10.528-11.786,1.956-15.189-2.34-105.325-1.449-106.248,1.137-1.179,9.924,8.219,16.441,8.644,0,0-15.353-27.391-26-32.064-4.177-1.834-84.54,82.8-92.534,91.235-.389.411-1.2.73-3.715,1.011-5.059.565-11.471-2.061-8.073,6.968.347.923.586,1.44-.4,1.543-1.239.131-4.081.11-5.3.775-1.453.791.226,4.593-2.477,6.207-7.274,4.347-16.184,4.31-24.277,2.7a167.762,167.762,0,0,1,15.036,9.009C1433.382,379.842,1450.164,384.887,1486.033,391.505Z" fill="#531b4b"/>
            </g>
            <g id="그룹_6152" data-name="그룹 6152">
              <path id="패스_7205" data-name="패스 7205" d="M1503.763,235.827a14.879,14.879,0,0,0-9.581-5.481c-2.324-.38-5.81-.586-7.928.036-5.423,1.6-9.058,6.448-10.033,12.4a13.713,13.713,0,0,0,1.769,9.93c2.229,3.615,5.567,6.955,10.087,7.7,4.138.678,9.281-.119,12.437-2.387s4.884-5.486,5.561-9.624C1506.807,243.929,1506.243,239.244,1503.763,235.827Zm-8.914,13.221a4.756,4.756,0,0,1-3.4,1.689,6.121,6.121,0,0,1-3.986-1.665,5.213,5.213,0,0,1-1.418-4.089,4.678,4.678,0,0,1,1.368-3.157,5.06,5.06,0,0,1,5.189-1.635,7.158,7.158,0,0,1,2.261,1.484,5.073,5.073,0,0,1,1.692,3.363A5.757,5.757,0,0,1,1494.849,249.048Z" fill="#f0c56d"/>
            </g>
            <g id="그룹_6153" data-name="그룹 6153">
              <path id="패스_7206" data-name="패스 7206" d="M1526.4,274.685a12.431,12.431,0,0,0-8.006-4.58,17.562,17.562,0,0,0-6.623.031c-4.532,1.332-7.57,5.386-8.384,10.359a11.465,11.465,0,0,0,1.477,8.3c1.863,3.02,4.652,5.812,8.429,6.43,3.458.567,7.755-.1,10.393-1.994a11.646,11.646,0,0,0,4.646-8.042C1528.943,281.454,1528.472,277.54,1526.4,274.685Zm-7.448,11.047a3.975,3.975,0,0,1-2.837,1.411,5.116,5.116,0,0,1-3.331-1.391,4.363,4.363,0,0,1-1.185-3.417,3.908,3.908,0,0,1,1.144-2.638,4.229,4.229,0,0,1,4.336-1.366,6.012,6.012,0,0,1,1.889,1.24,4.241,4.241,0,0,1,1.414,2.811A4.812,4.812,0,0,1,1518.952,285.732Z" fill="#f0c56d"/>
            </g>
            <g id="그룹_6154" data-name="그룹 6154">
              <path id="패스_7207" data-name="패스 7207" d="M1456.246,279.249a13.505,13.505,0,0,0-8.7-4.974,19.109,19.109,0,0,0-7.195.033c-4.923,1.448-8.223,5.852-9.107,11.254a12.454,12.454,0,0,0,1.605,9.014c2.024,3.28,5.053,6.313,9.156,6.984,3.756.616,8.425-.108,11.289-2.166a12.652,12.652,0,0,0,5.048-8.736C1459.009,286.6,1458.5,282.351,1456.246,279.249Zm-8.091,12a4.318,4.318,0,0,1-3.082,1.533,5.556,5.556,0,0,1-3.618-1.512,4.733,4.733,0,0,1-1.287-3.711,4.252,4.252,0,0,1,1.242-2.866,4.594,4.594,0,0,1,4.711-1.483,6.52,6.52,0,0,1,2.052,1.346,4.608,4.608,0,0,1,1.535,3.054A5.222,5.222,0,0,1,1448.155,291.25Z" fill="#f0c56d"/>
            </g>
            <g id="그룹_6155" data-name="그룹 6155">
              <path id="패스_7208" data-name="패스 7208" d="M1478.882,315.97a9.815,9.815,0,0,0-6.319-3.614,13.864,13.864,0,0,0-5.227.024c-3.577,1.052-5.974,4.251-6.617,8.176a9.044,9.044,0,0,0,1.166,6.549c1.471,2.384,3.672,4.587,6.653,5.075a11.83,11.83,0,0,0,8.2-1.574,9.189,9.189,0,0,0,3.668-6.347A11.134,11.134,0,0,0,1478.882,315.97ZM1473,324.689a3.133,3.133,0,0,1-2.238,1.114,4.037,4.037,0,0,1-2.629-1.1,3.436,3.436,0,0,1-.935-2.7,3.087,3.087,0,0,1,.9-2.082,3.336,3.336,0,0,1,3.422-1.078,4.731,4.731,0,0,1,1.492.978,3.355,3.355,0,0,1,1.115,2.219A3.789,3.789,0,0,1,1473,324.689Z" fill="#f0c56d"/>
            </g>
            <g id="그룹_6156" data-name="그룹 6156">
              <path id="패스_7209" data-name="패스 7209" d="M1532.1,337.041a13.886,13.886,0,0,0-8.943-5.115,19.621,19.621,0,0,0-7.4.033c-5.062,1.489-8.455,6.017-9.365,11.573a12.811,12.811,0,0,0,1.651,9.268c2.081,3.373,5.2,6.491,9.415,7.182,3.862.632,8.662-.112,11.607-2.228a13.006,13.006,0,0,0,5.191-8.982C1534.941,344.6,1534.416,340.23,1532.1,337.041Zm-8.32,12.339a4.436,4.436,0,0,1-3.168,1.576,5.708,5.708,0,0,1-3.721-1.554,4.869,4.869,0,0,1-1.323-3.816,4.369,4.369,0,0,1,1.277-2.947,4.723,4.723,0,0,1,4.844-1.525,6.7,6.7,0,0,1,2.11,1.385,4.732,4.732,0,0,1,1.578,3.139A5.368,5.368,0,0,1,1523.781,349.38Z" fill="#f0c56d"/>
            </g>
            <g id="그룹_6157" data-name="그룹 6157">
              <path id="패스_7210" data-name="패스 7210" d="M1490.552,361.58a14.882,14.882,0,0,0-9.582-5.481c-2.324-.38-5.81-.586-7.927.036-5.424,1.6-9.059,6.447-10.034,12.4a13.719,13.719,0,0,0,1.769,9.931c2.229,3.615,5.567,6.955,10.087,7.7,4.138.678,9.282-.119,12.437-2.387s4.884-5.486,5.562-9.624C1493.595,369.682,1493.032,365,1490.552,361.58Zm-8.915,13.221a4.752,4.752,0,0,1-3.4,1.689,6.121,6.121,0,0,1-3.986-1.665,5.217,5.217,0,0,1-1.418-4.089,4.679,4.679,0,0,1,1.368-3.157,5.059,5.059,0,0,1,5.19-1.635,7.169,7.169,0,0,1,2.261,1.484,5.076,5.076,0,0,1,1.691,3.364A5.75,5.75,0,0,1,1481.637,374.8Z" fill="#f0c56d"/>
            </g>
            <g id="그룹_6158" data-name="그룹 6158">
              <path id="패스_7211" data-name="패스 7211" d="M1427.577,354.524a14.876,14.876,0,0,0-9.581-5.48c-2.324-.381-5.81-.587-7.928.036-5.423,1.6-9.058,6.447-10.033,12.4a13.72,13.72,0,0,0,1.768,9.931c2.23,3.614,5.568,6.955,10.088,7.7,4.138.677,9.282-.12,12.437-2.387s4.884-5.486,5.561-9.624C1430.621,362.627,1430.058,357.941,1427.577,354.524Zm-8.914,13.222a4.752,4.752,0,0,1-3.4,1.688,6.111,6.111,0,0,1-3.986-1.665,5.215,5.215,0,0,1-1.418-4.089,4.675,4.675,0,0,1,1.368-3.157,5.061,5.061,0,0,1,5.19-1.635,7.2,7.2,0,0,1,2.261,1.484,5.076,5.076,0,0,1,1.691,3.364A5.754,5.754,0,0,1,1418.663,367.746Z" fill="#f0c56d"/>
            </g>
          </g>
        </g>
        <g id="그룹_6163" data-name="그룹 6163">
          <g id="그룹_6161" data-name="그룹 6161">
            <path id="패스_7213" data-name="패스 7213" d="M1413.906,334.808c8.2,5.878,28.822,14.888,50.3,21.359,15.607,4.7,31.972,7.512,42.864,9.487,6.089,1.105,2.036,2.461-3.879,2.563-14.26.247-52.471-8.231-64.286-13.774-12.823-6.016-20.925-10.379-28.05-18.879C1406.019,329.8,1406.134,329.236,1413.906,334.808Z" fill="#260a23"/>
          </g>
          <g id="그룹_6162" data-name="그룹 6162">
            <path id="패스_7214" data-name="패스 7214" d="M1428.437,330c17.281,7.678,33.556,11.748,39.738,12.015s2.419,2.233-3.426,3.142-24.307-1.823-30.306-6.34C1420.968,328.669,1411.156,322.32,1428.437,330Z" fill="#260a23"/>
          </g>
        </g>
      </g>
    </g>
    <path id="패스_7215" data-name="패스 7215" d="M1920,700V433.745c-69.82,19.469-174.874,37.193-324.375,35.958-244.034-2.014-272.229-80.894-604.4-83.823S555.541,460.333,348.6,462.451C229.669,463.668,134.772,429.566,0,406.5V700Z" fill="#3c5732"/>
    <g id="그룹_6169" data-name="그룹 6169">
      <g id="그룹_6166" data-name="그룹 6166">
        <path id="패스_7216" data-name="패스 7216" d="M1445.37,448.162s-13.221-15.527-16.293-15.616c0,0-1.71,11.91-4.305,15.024s-7.252,10.611-.311,10.811,15.35.9,19.372-.354,5.193,1.63,5.193,1.63,10.936,7.831,15.263,7.842,7.053.317,5.5-9.067-2.168-3.821.044-9.452,2.19-8.821,1.894-10.424-9.731,1.771-13.09,3.724a94.88,94.88,0,0,0-7.906,5.581c-1.278.875-3.373,2.524-4.445,2.151S1445.37,448.162,1445.37,448.162Z" fill="#f7a800"/>
      </g>
      <g id="그룹_6167" data-name="그룹 6167">
        <path id="패스_7217" data-name="패스 7217" d="M1445.63,451.206s-7.993-5.241-11.287-5.563a5.844,5.844,0,0,0-.873,6.58s10.329,1.323,12.1,1.032c0,0,10.729,5.092,13.932,4.614a15.176,15.176,0,0,0,1.334-6.795,35.27,35.27,0,0,0-11.77,1.37C1447.888,452.841,1445.63,451.206,1445.63,451.206Z" fill="#ef7f00"/>
      </g>
      <g id="그룹_6168" data-name="그룹 6168">
        <path id="패스_7218" data-name="패스 7218" d="M1445,447.734s3.712-1.445,5.729.127c0,0,.571,8.851-1.7,11.8,0,0-4.27,1.6-6.845-.708C1442.181,458.949,1443.317,449.527,1445,447.734Z" fill="#e8530e"/>
      </g>
    </g>
    <g id="그룹_6170" data-name="그룹 6170">
      <path id="패스_7219" data-name="패스 7219" d="M1415.919,451.5c-5.022,8.7-14.885,9.175-23.583,4.153s-12.938-13.641-7.916-22.339,13.855-8.037,22.554-3.016S1420.941,442.8,1415.919,451.5Z" fill="#f7c7c5"/>
    </g>
    <g id="그룹_6171" data-name="그룹 6171">
      <path id="패스_7220" data-name="패스 7220" d="M1511.117,455.082c.9,10-6.89,16.071-16.893,16.972s-18.432-3.707-19.333-13.71,6.7-14.548,16.707-15.449S1510.216,445.078,1511.117,455.082Z" fill="#f7c7c5"/>
    </g>
    <g id="그룹_6174" data-name="그룹 6174">
      <g id="그룹_6172" data-name="그룹 6172">
        <path id="패스_7221" data-name="패스 7221" d="M1105.7,391.427c-.816,6.2-6.371,8.816-12.565,8s-10.682-4.761-9.866-10.955,6.05-7.917,12.245-7.1S1106.515,385.233,1105.7,391.427Z" fill="#f4b573"/>
      </g>
      <g id="그룹_6173" data-name="그룹 6173">
        <path id="패스_7222" data-name="패스 7222" d="M1139.77,395.662c-.668,6.211-6.159,8.964-12.371,8.3s-10.793-4.506-10.124-10.718,5.86-8.058,12.072-7.389S1140.439,389.449,1139.77,395.662Z" fill="#f4b573"/>
      </g>
    </g>
    <g id="그룹_6177" data-name="그룹 6177">
      <g id="그룹_6175" data-name="그룹 6175">
        <path id="패스_7223" data-name="패스 7223" d="M971.833,385.245c.118,7.293-5.848,11.272-13.14,11.39s-13.151-3.668-13.27-10.961,5.631-10.178,12.924-10.3S971.714,377.952,971.833,385.245Z" fill="#f4b573"/>
      </g>
      <g id="그룹_6176" data-name="그룹 6176">
        <path id="패스_7224" data-name="패스 7224" d="M1011.9,384.3c.292,7.288-5.577,11.408-12.865,11.7s-13.235-3.354-13.527-10.642,5.387-10.309,12.675-10.6S1011.611,377.01,1011.9,384.3Z" fill="#f4b573"/>
      </g>
    </g>
    <g id="그룹_6180" data-name="그룹 6180">
      <g id="그룹_6178" data-name="그룹 6178">
        <path id="패스_7225" data-name="패스 7225" d="M818.228,390.518c.866,7.242-4.66,11.812-11.9,12.679s-13.458-2.3-14.324-9.541,4.556-10.7,11.8-11.569S817.361,383.276,818.228,390.518Z" fill="#f4b573"/>
      </g>
      <g id="그룹_6179" data-name="그룹 6179">
        <path id="패스_7226" data-name="패스 7226" d="M857.989,385.462c1.039,7.22-4.376,11.92-11.6,12.959s-13.509-1.978-14.548-9.2,4.3-10.808,11.52-11.847S856.951,378.243,857.989,385.462Z" fill="#f4b573"/>
      </g>
    </g>
    <g id="그룹_6183" data-name="그룹 6183">
      <g id="그룹_6181" data-name="그룹 6181">
        <path id="패스_7227" data-name="패스 7227" d="M663.533,414.984c.774,6.466-4.16,10.547-10.626,11.321s-12.017-2.052-12.791-8.519,4.068-9.556,10.535-10.33S662.76,408.517,663.533,414.984Z" fill="#f4b573"/>
      </g>
      <g id="그룹_6182" data-name="그룹 6182">
        <path id="패스_7228" data-name="패스 7228" d="M699.036,410.47c.927,6.446-3.908,10.642-10.354,11.57s-12.062-1.766-12.99-8.212,3.84-9.65,10.286-10.578S698.109,404.023,699.036,410.47Z" fill="#f4b573"/>
      </g>
    </g>
    <g id="그룹_6186" data-name="그룹 6186">
      <g id="그룹_6184" data-name="그룹 6184">
        <path id="패스_7229" data-name="패스 7229" d="M353.247,459.964c-.322,6.5-5.87,9.7-12.375,9.378s-11.5-4.039-11.18-10.544,5.613-8.738,12.118-8.416S353.569,453.459,353.247,459.964Z" fill="#f4b573"/>
      </g>
      <g id="그룹_6185" data-name="그룹 6185">
        <path id="패스_7230" data-name="패스 7230" d="M389,461.469c-.167,6.51-5.638,9.836-12.148,9.67s-11.6-3.764-11.428-10.275,5.4-8.869,11.914-8.7S389.171,454.958,389,461.469Z" fill="#f4b573"/>
      </g>
    </g>
    <g id="그룹_6189" data-name="그룹 6189">
      <g id="그룹_6187" data-name="그룹 6187">
        <path id="패스_7231" data-name="패스 7231" d="M499.474,450.669c1.435,8.585-4.9,14.341-13.484,15.776s-16.172-1.992-17.608-10.578,4.837-13.012,13.423-14.448S498.038,442.083,499.474,450.669Z" fill="#f4b573"/>
      </g>
      <g id="그룹_6188" data-name="그룹 6188">
        <path id="패스_7232" data-name="패스 7232" d="M546.595,442.433c1.639,8.549-4.555,14.453-13.1,16.092s-16.215-1.607-17.854-10.156,4.526-13.123,13.075-14.763S544.956,433.883,546.595,442.433Z" fill="#f4b573"/>
      </g>
    </g>
  </g>
</svg>
