<svg xmlns="http://www.w3.org/2000/svg" xmlns:xlink="http://www.w3.org/1999/xlink" viewBox="0 0 165.86 115.79"><defs><style>.cls-1{fill:none;}.cls-2{fill:#fff;}.cls-3{fill:#260a23;}.cls-4{clip-path:url(#clip-path);}.cls-5{fill:#531c4b;}.cls-6{fill:#f0c56d;}.cls-7{fill:#dfa374;}.cls-8{fill:#bb8a62;}.cls-9{fill:#ca8649;}.cls-10{fill:#1d1d1b;}</style><clipPath id="clip-path"><path class="cls-1" d="M92,41.18c6.26.13,12.45-1.49,17-1.91-2.43-.47-5.16-1.07-7.35-1.71a.25.25,0,0,1-.12-.4,4.14,4.14,0,0,0,1.11-2.07.76.76,0,0,0-.33-.76c-.9-.6-3.08-2-3.1-2.5C99.1,28,94.37,5.71,94.56,5.44S97.36,7.09,99,6.93c0,0-4.93-6.2-7.77-6.93C90.11-.28,73.55,24,71.9,26.47c-.08.12-.27.23-.88.4-1.24.35-2.94-.05-1.73,2.06.13.22.21.34,0,.4a4.72,4.72,0,0,0-1.29.41c-.33.26.24,1.13-.36,1.65A8.65,8.65,0,0,1,61.67,33c1.24.42,2.61,1,4.11,1.63C78.43,40.42,82.81,41,92,41.18Z"/></clipPath></defs><title>Asset 9</title><g id="Layer_2" data-name="Layer 2"><g id="Layer_1-2" data-name="Layer 1"><path class="cls-2" d="M64.38,51.66v1.07H62.57q-.81,4.79-1.37,8c-.37,2.13-.68,3.84-.92,5.15s-.42,2.29-.55,2.94-.21,1.1-.26,1.37a1.32,1.32,0,0,1-.11.39s0,0,0,0l-3.88.09L51.26,60.25l-3,10.48-1.28,0L38.57,52.89a1.19,1.19,0,0,0-.24,0l-.48,0-.88,0V51.73H45.5V52.8l-2.3.14,5.55,11.68c0-.11.09-.32.2-.64s.22-.69.36-1.1.28-.86.44-1.33l.44-1.32.36-1.09c.1-.31.16-.53.19-.65l.79-.05,3.91,10.1L58.5,52.73H57.27V51.66Z"/><path class="cls-2" d="M65.63,56.28h4.46l0,13.73,1.3-.12,0,1-5.83,0,.07-1L67.1,70l0-12.64H65.56Zm1.51-1a1.4,1.4,0,0,1-.48-.51,2.31,2.31,0,0,1-.29-.77,2.08,2.08,0,0,1,0-.86,1.68,1.68,0,0,1,.36-.79,1.9,1.9,0,0,1,.77-.56,3,3,0,0,1,1.29-.16,2.07,2.07,0,0,1,1.28,1.16A1.83,1.83,0,0,1,70,54.19a2.21,2.21,0,0,1-1.08,1.05A2.34,2.34,0,0,1,67.14,55.26Z"/><path class="cls-2" d="M82.91,68.59a9.6,9.6,0,0,1-4.11,2.29,2.57,2.57,0,0,1-2.63-1A8.43,8.43,0,0,1,74.78,66a44,44,0,0,1-.37-6.44H71.67v-1.2h2.74l.23-5.79-1,0,0-.84h5.76l-.05.84h-.83l-.19,5.81h2.42v1.2h-2.4c0,1,0,1.92,0,2.86s0,1.81.1,2.6a11.71,11.71,0,0,0,.35,2.06,2.18,2.18,0,0,0,.74,1.23,1.46,1.46,0,0,0,1.3.14,5.87,5.87,0,0,0,2-1.22l0-1.14h.88l0,3.16h-.89Z"/><path class="cls-2" d="M95.85,68a9.77,9.77,0,0,1-1.93,1.61,8.11,8.11,0,0,1-2.17,1,6.8,6.8,0,0,1-2.29.23,6.36,6.36,0,0,1-2.3-.64,4.54,4.54,0,0,1-1.86-1.85,6.59,6.59,0,0,1-.78-2.57,9.31,9.31,0,0,1,.17-2.91,11.52,11.52,0,0,1,1-2.84,9.72,9.72,0,0,1,1.67-2.4,6.43,6.43,0,0,1,2.24-1.54,5.23,5.23,0,0,1,2.68-.3,6.52,6.52,0,0,1,3,1.33V55.84h.86v4.34h-.86V59.11a4.7,4.7,0,0,0-.68-.87,3.23,3.23,0,0,0-1-.69,3.55,3.55,0,0,0-1.24-.33,3.77,3.77,0,0,0-1.48.2,6.85,6.85,0,0,0-.66,1.5,14.64,14.64,0,0,0-.57,2.2,22.82,22.82,0,0,0-.33,2.52,14.17,14.17,0,0,0,0,2.45,6.44,6.44,0,0,0,.5,2A2.19,2.19,0,0,0,91,69.29a1.55,1.55,0,0,0,.59-.05,6.91,6.91,0,0,0,1.21-.37,11.1,11.1,0,0,0,1.53-.78,7,7,0,0,0,1.57-1.31V65.55l.88,0v3.35h-.88Z"/><path class="cls-2" d="M106.63,69.84h.56c0-.27,0-.73,0-1.35s0-1.34,0-2.14-.06-1.64-.12-2.52a24.32,24.32,0,0,0-.27-2.52,15.58,15.58,0,0,0-.52-2.16,3.37,3.37,0,0,0-.78-1.42,1.14,1.14,0,0,0-1.13-.28,3.44,3.44,0,0,0-1.51,1.22l-.09,11.17,1.16-.06.14,1.2-6.6.07,0-1.25.83,0,.28-17.18H97.17l-.11-1.07h7l.11,1.07h-1.53l.25,4.69A7.56,7.56,0,0,1,105.36,56a3.14,3.14,0,0,1,1.91-.06,3,3,0,0,1,1.43,1,7.18,7.18,0,0,1,1,1.87,13.84,13.84,0,0,1,.68,2.47q.25,1.37.39,2.82c.08,1,.13,2,.15,3s0,1.93,0,2.81l.9-.06,0,1-5.32.07Z"/><path class="cls-2" d="M113.76,59.46a11.08,11.08,0,0,0,.89-1.11,5.68,5.68,0,0,0,.69-1.28,2.4,2.4,0,0,1-1.27.48.7.7,0,0,1-.61-.36,1.26,1.26,0,0,1-.06-.83,2.42,2.42,0,0,1,.39-.9,1.61,1.61,0,0,1,.77-.59,1.35,1.35,0,0,1,1.06.11,1.06,1.06,0,0,1,.58.77,2.56,2.56,0,0,1-.06,1.09A6,6,0,0,1,115,59a2.34,2.34,0,0,1-.71.57Q113.93,59.75,113.76,59.46Z"/><path class="cls-2" d="M117.27,67.17h.93v1.1a4.77,4.77,0,0,0,1.21,1A6.33,6.33,0,0,0,121,70a5.26,5.26,0,0,0,1.72.19,3.24,3.24,0,0,0,1.58-.5,3.45,3.45,0,0,0,1.16-1.35,5.9,5.9,0,0,0,.5-2.38,2.6,2.6,0,0,0-1.85-2.58,5.7,5.7,0,0,0-1.65-.28l-1.72,0a13.24,13.24,0,0,1-1.48-.07,1.3,1.3,0,0,1-1-.44,4,4,0,0,1-1.23-2,3.6,3.6,0,0,1,.09-2.06,4,4,0,0,1,1.18-1.77,4.7,4.7,0,0,1,2.1-1.06,6.66,6.66,0,0,1,2.84,0,9.71,9.71,0,0,1,3.36,1.53l.1-.69.86,0,.09,2.42-1-.07,0-.68a2.6,2.6,0,0,0-.55-.38,7.36,7.36,0,0,0-1-.43,14.33,14.33,0,0,0-2.44-.65,5.76,5.76,0,0,0-1.06-.07,1.3,1.3,0,0,0-.71.21,3.94,3.94,0,0,0-.54,1.42,5.85,5.85,0,0,0-.12,1.65,3.52,3.52,0,0,0,.34,1.34.82.82,0,0,0,.81.54,12.45,12.45,0,0,1,4.55-.05A6,6,0,0,1,128.74,63a3.67,3.67,0,0,1,1.2,2.09,4.51,4.51,0,0,1-.22,2.38,5.93,5.93,0,0,1-1.48,2.16,6,6,0,0,1-2.53,1.42,8.25,8.25,0,0,1-3.4.15,11.16,11.16,0,0,1-4.11-1.63l0,.82h-.93Z"/><path class="cls-2" d="M8.3,95.68l1.14,0v-1.4A11.32,11.32,0,0,1,5.71,96,4.74,4.74,0,0,1,3,95.91a3.73,3.73,0,0,1-1.82-1.49A6.71,6.71,0,0,1,.19,92,11,11,0,0,1,0,89,12.67,12.67,0,0,1,.6,86a9.83,9.83,0,0,1,1.25-2.56,5.05,5.05,0,0,1,1.87-1.71,3.91,3.91,0,0,1,2.41-.37A6.12,6.12,0,0,1,9,82.81l.1-4.62-1.58.14.07-.88,6.69,0-.07.79-1.51,0,.39,17.52,1.09-.14.07.83-5.9.12Zm-1.71-1a1,1,0,0,0,.7,0,3,3,0,0,0,.9-.38A3.15,3.15,0,0,0,9,93.66a1.15,1.15,0,0,0,.33-.77l-.14-8.57A3.22,3.22,0,0,0,7.72,82.9,1.44,1.44,0,0,0,6.41,83a3.07,3.07,0,0,0-1.09,1.24,9.13,9.13,0,0,0-.77,2,13.39,13.39,0,0,0-.36,2.44,11.22,11.22,0,0,0,.15,2.48,6.77,6.77,0,0,0,.77,2.12A3.28,3.28,0,0,0,6.59,94.68Z"/><path class="cls-2" d="M33.58,81.4l5.57-.05v1.21h-.77v2.76a10,10,0,0,1,1.18-1.58,9.7,9.7,0,0,1,1.55-1.39,6.71,6.71,0,0,1,1.76-.91,3.09,3.09,0,0,1,1.75-.08,3.35,3.35,0,0,1,1.59,1,6.38,6.38,0,0,1,1.24,2.47,19.72,19.72,0,0,1,.7,4.24,49.34,49.34,0,0,1,0,6.33l1.16,0v1.2l-5.62.1V95.52h.63c.07-.7.13-1.47.16-2.32s0-1.73,0-2.62-.07-1.77-.15-2.63-.18-1.66-.3-2.38a12.79,12.79,0,0,0-.46-1.87A2.63,2.63,0,0,0,43,82.6a6.36,6.36,0,0,0-2.62,1.85,7.67,7.67,0,0,0-1.42,2.79,15.9,15.9,0,0,0-.56,3.69c-.06,1.39-.07,2.91,0,4.57l.9,0v1.21l-5.73.07V95.54h.9L35,82.6H33.58Z"/><path class="cls-2" d="M59.33,81.35l5.39,0v1.21l-.79,0V95.43h.84v1a14.19,14.19,0,0,1-1.88,0,2.53,2.53,0,0,1-1.13-.31,1.36,1.36,0,0,1-.57-.75,5.18,5.18,0,0,1-.21-1.3q0-.81-.06-1.92c0-.74-.05-1.61-.12-2.6a11.82,11.82,0,0,1-.38,1.88,13.12,13.12,0,0,1-.66,1.89A8.11,8.11,0,0,1,58.9,95a2.82,2.82,0,0,1-1,.94,5.89,5.89,0,0,1-2.85.64,2.93,2.93,0,0,1-1.92-.88A5,5,0,0,1,52,93.54a14.51,14.51,0,0,1-.56-3.07,34.49,34.49,0,0,1-.11-3.74c0-1.34.1-2.72.19-4.13H50.32V81.4l6-.05v1.21l-.81,0c0,.73,0,1.52-.07,2.38s-.09,1.73-.12,2.59,0,1.71,0,2.52a9.62,9.62,0,0,0,.33,2.17,3.5,3.5,0,0,0,.82,1.53,2.11,2.11,0,0,0,1.51.59c.17-.08.37-.38.58-.9a15.05,15.05,0,0,0,.65-1.94q.33-1.15.63-2.52c.2-.9.38-1.78.52-2.63s.26-1.62.34-2.3a7.92,7.92,0,0,0,.07-1.51H59.33Z"/><path class="cls-2" d="M76.31,94.24a9.6,9.6,0,0,1-4.11,2.29,2.6,2.6,0,0,1-2.64-1,8.46,8.46,0,0,1-1.38-3.9,44,44,0,0,1-.37-6.43H65.07V84h2.74L68,78.22l-1,0,0-.83h5.76l0,.83H72L71.76,84h2.41v1.21H71.78q0,1.44,0,2.85c0,1,0,1.81.1,2.6a11.71,11.71,0,0,0,.35,2.06A2.18,2.18,0,0,0,73,94a1.46,1.46,0,0,0,1.3.14,5.87,5.87,0,0,0,2-1.22l0-1.14h.88l0,3.16h-.88Z"/><path class="cls-2" d="M91.33,95.33h1L86.75,82.74h-1v-1.2l6-.05V82.7l-1.07,0,3.95,10.85,2.46-10.92-1.63,0V81.49l4.32-.09v1.2l-1.55.08-2.74,12.7h1.32v1.21l-5.48,0Z"/><path class="cls-2" d="M101,81.93h4.46l0,13.73,1.3-.12,0,1-5.83,0,.07-1,1.42,0,0-12.64H101Zm1.51-1a1.42,1.42,0,0,1-.49-.51,2.23,2.23,0,0,1-.29-.77,2.08,2.08,0,0,1,0-.86,1.72,1.72,0,0,1,.36-.79,1.86,1.86,0,0,1,.78-.55,2.91,2.91,0,0,1,1.29-.17,2.05,2.05,0,0,1,1.27,1.16,1.88,1.88,0,0,1,0,1.42,2.21,2.21,0,0,1-1.08,1A2.34,2.34,0,0,1,102.55,80.91Z"/><path class="cls-2" d="M107.52,95.31h1.53l0-16.93-1,0V77.12l4.55,0-.16,18.16h1v1.21h-6Z"/><path class="cls-2" d="M114.44,95.31H116l0-16.93-1,0V77.12l4.56,0-.17,18.16h1v1.21h-6Z"/><path class="cls-2" d="M130.79,95.84h1.14l0-2.53c-.34.3-.76.62-1.26,1s-1.05.7-1.63,1a16.17,16.17,0,0,1-1.81.92,8.61,8.61,0,0,1-1.84.57,5,5,0,0,1-1.72,0,2.63,2.63,0,0,1-1.42-.68,3,3,0,0,1-1-1.56,2.85,2.85,0,0,1,.1-1.63,5.2,5.2,0,0,1,1-1.63,11.1,11.1,0,0,1,1.6-1.52,16.15,16.15,0,0,1,2-1.33,19.34,19.34,0,0,1,2.16-1,16.31,16.31,0,0,1,2.08-.69,7,7,0,0,1,1.76-.22,5.33,5.33,0,0,0-.08-2.08A2.76,2.76,0,0,0,131,83a2.18,2.18,0,0,0-1.58-.47,4.73,4.73,0,0,0-2.24.94s0,.15.14.34a6.43,6.43,0,0,1,.43.73,4.72,4.72,0,0,1,.35,1,1.76,1.76,0,0,1-.07,1,2.18,2.18,0,0,1-.84,1,5.35,5.35,0,0,1-2,.69,2.27,2.27,0,0,1-1.48-.45,1.73,1.73,0,0,1-.63-1.13,2.47,2.47,0,0,1,.31-1.48,4.56,4.56,0,0,1,1.38-1.55,9.76,9.76,0,0,1,2.55-1.29,14.68,14.68,0,0,1,3.79-.72,5.4,5.4,0,0,1,2.71.33,3.08,3.08,0,0,1,1.44,1.39,5.78,5.78,0,0,1,.57,2.27c.06.89.09,1.87.08,3s0,2.24,0,3.48a27,27,0,0,0,.36,3.83l1.12,0-.05.86-6.67,0Zm-4.64-2.27c.29.22.54.39.76.53a2.12,2.12,0,0,0,.64.29,1.3,1.3,0,0,0,.65,0,3,3,0,0,0,.84-.33c.33-.18.73-.42,1.19-.73L132,92.17V87.6a10.77,10.77,0,0,0-1.79.2,9.55,9.55,0,0,0-1.83.51,7.72,7.72,0,0,0-1.62.83,3.58,3.58,0,0,0-1.09,1.15,2.53,2.53,0,0,0-.28,1.48A3.83,3.83,0,0,0,126.15,93.57Z"/><path class="cls-2" d="M142.92,107.55a4.72,4.72,0,0,1-1.78-1.51,3.35,3.35,0,0,1-.59-1.69,3.45,3.45,0,0,1,.32-1.69,5.57,5.57,0,0,1,1-1.5,6,6,0,0,1,1.46-1.13,4.53,4.53,0,0,1,1.68-.57,3.52,3.52,0,0,1,1.64.18,3,3,0,0,1,1.37,1.13,1.32,1.32,0,0,1,.05.93,1.17,1.17,0,0,1-.48.57,1.93,1.93,0,0,1-.77.24,2.48,2.48,0,0,1-.78,0,1.15,1.15,0,0,1-.53-.26.29.29,0,0,1,0-.41,2.13,2.13,0,0,0,1.06,0,.69.69,0,0,0,.45-.39.58.58,0,0,0-.09-.53,1.12,1.12,0,0,0-.6-.4,2.08,2.08,0,0,0-1,0,4.1,4.1,0,0,0-1.4.59,2.3,2.3,0,0,0-.37,1.57,2.85,2.85,0,0,0,.59,1.37,3.89,3.89,0,0,0,1.21,1,4,4,0,0,0,1.52.5,3,3,0,0,0,1.5-.19,2.4,2.4,0,0,0,1.14-1.05,4.2,4.2,0,0,0,.48-2.06,11.36,11.36,0,0,0-.52-3.25,3.06,3.06,0,0,0-.86-1.41,3.16,3.16,0,0,0-1.24-.68,3.84,3.84,0,0,0-1.44-.09,8.91,8.91,0,0,0-1.47.3,8.11,8.11,0,0,0-1.31.51,7.67,7.67,0,0,0-1,.56l-.33-.63a1.49,1.49,0,0,1,.37-.26l.59-.32.6-.31a3.7,3.7,0,0,0,.39-.24v-.65a6.42,6.42,0,0,1-2.9-.55A4.49,4.49,0,0,1,139,93.63a4.94,4.94,0,0,1-.8-2.22,7.72,7.72,0,0,1,.12-2.57,10.47,10.47,0,0,1,.95-2.58A9.43,9.43,0,0,1,141,84a8.54,8.54,0,0,1,2.35-1.66,7,7,0,0,1,2.9-.72,19.79,19.79,0,0,1,.73-2.35,7.29,7.29,0,0,1,1.24-2.11,2.44,2.44,0,0,1,1-.73,2.18,2.18,0,0,1,1.1-.21,1.71,1.71,0,0,1,1,.39,1.9,1.9,0,0,1,.6,1.08,1.7,1.7,0,0,1-.85,1.88,1.61,1.61,0,0,1-.87.22.82.82,0,0,1-.67-.3,1,1,0,0,1-.12-.86,4,4,0,0,1,.82-1.47.58.58,0,0,0-.62,0,2.71,2.71,0,0,0-.73.63,7.36,7.36,0,0,0-.72,1,7.89,7.89,0,0,0-.57,1.12,4.32,4.32,0,0,0-.28,1,.8.8,0,0,0,.13.67,4.65,4.65,0,0,1,1.88,1.29,5.56,5.56,0,0,1,1.1,1.92,8.22,8.22,0,0,1,.4,2.31,10.42,10.42,0,0,1-.22,2.43,10.23,10.23,0,0,1-.78,2.3,8,8,0,0,1-1.26,1.93,5.74,5.74,0,0,1-1.63,1.3,3.66,3.66,0,0,1-1.95.41s0,0,0,.09,0,.13,0,.2,0,.13.05.19,0,.1,0,.12a6.79,6.79,0,0,1,3.4-.22,4.61,4.61,0,0,1,2.34,1.27,5.18,5.18,0,0,1,1.28,2.25,7.3,7.3,0,0,1,.22,2.72,7.5,7.5,0,0,1-.82,2.68,5.82,5.82,0,0,1-1.84,2.13,6.45,6.45,0,0,1-2.86,1.1A8.52,8.52,0,0,1,142.92,107.55Zm1.64-14.79-.07,1.53a1.81,1.81,0,0,0,1.26-.8,6,6,0,0,0,.87-1.8,14.3,14.3,0,0,0,.5-2.35,17.64,17.64,0,0,0,.15-2.48,12.22,12.22,0,0,0-.2-2.2,3.88,3.88,0,0,0-.51-1.47.64.64,0,0,0-.71-.34,1.66,1.66,0,0,0-.79.61,6.49,6.49,0,0,0-.77,1.33,13.84,13.84,0,0,0-.68,1.8,19,19,0,0,0-.49,2,12.3,12.3,0,0,0-.18,2.06,7.49,7.49,0,0,0,.2,1.83,3,3,0,0,0,.68,1.37l.21-1.58Z"/><path class="cls-2" d="M164.65,95.47l0-.83a15.42,15.42,0,0,1-2.45,1.12,12.52,12.52,0,0,1-2.52.62,8.66,8.66,0,0,1-2.44,0,5.89,5.89,0,0,1-2.21-.84,5.72,5.72,0,0,1-1.86-2.07,6.88,6.88,0,0,1-.74-2.55,8.46,8.46,0,0,1,.22-2.73,10.45,10.45,0,0,1,1-2.63,10.24,10.24,0,0,1,1.69-2.23,8,8,0,0,1,2.18-1.54,10.51,10.51,0,0,1,3.73-.34,4.43,4.43,0,0,1,3.85,3,11,11,0,0,1,.58,2.93l-8.36,1a3.6,3.6,0,0,0-.14,1.12,11.61,11.61,0,0,0,.09,1.41q.09.75.24,1.5c.1.51.21.95.33,1.35a8.65,8.65,0,0,0,.33,1c.11.25.21.37.31.35A5.86,5.86,0,0,0,160,95a9.63,9.63,0,0,0,1.7-.43,10.61,10.61,0,0,0,1.62-.71,6.93,6.93,0,0,0,1.31-.88l0-1.07,1.21,0,0,3.6ZM157.9,83.28s-.07.12-.11.31-.08.43-.13.71-.09.59-.12.92-.08.64-.12.93-.07.53-.08.74,0,.33,0,.36l4.5-.51-.74-3.62a.65.65,0,0,0-.59-.53,3.23,3.23,0,0,0-1.07,0,4.52,4.52,0,0,0-1,.31C158.07,83.07,157.91,83.19,157.9,83.28Z"/><path class="cls-3" d="M114.16,39.81c-1.38-.18-23.72-2.22-25.06-2.59-8.83-2.45-5.54-1.43-20.25-2.84A49.51,49.51,0,0,1,62,33c-2.94-.1-6.45.65-6.75.53L50.13,35C49.54,34.5,78,45.33,82,46.21s22.24-.18,26-2.55C112.51,40.88,118.69,40.4,114.16,39.81Z"/><g class="cls-4"><path class="cls-5" d="M92,41.18c6.26.13,12.45-1.49,17-1.91-2.43-.47-5.16-1.07-7.35-1.71a.25.25,0,0,1-.12-.4,4.14,4.14,0,0,0,1.11-2.07.76.76,0,0,0-.33-.76c-.9-.6-3.08-2-3.1-2.5C99.1,28,94.37,5.71,94.56,5.44S97.36,7.09,99,6.93c0,0-4.93-6.2-7.77-6.93C90.11-.28,73.55,24,71.9,26.47c-.08.12-.27.23-.88.4-1.24.35-2.94-.05-1.73,2.06.13.22.21.34,0,.4a4.72,4.72,0,0,0-1.29.41c-.33.26.24,1.13-.36,1.65A8.65,8.65,0,0,1,61.67,33c1.24.42,2.61,1,4.11,1.63C78.43,40.42,82.81,41,92,41.18Z"/><path class="cls-6" d="M79.75,15a3.36,3.36,0,0,0-2.29-.9,4.79,4.79,0,0,0-1.75.26,3.3,3.3,0,0,0-1.81,3.06,3.08,3.08,0,0,0,.7,2.14A3.45,3.45,0,0,0,77.08,21,4,4,0,0,0,79.74,20a3.1,3.1,0,0,0,.92-2.3A3.79,3.79,0,0,0,79.75,15Zm-1.55,3.2a1.06,1.06,0,0,1-.69.49,1.38,1.38,0,0,1-.93-.24,1.19,1.19,0,0,1-.45-.86,1.06,1.06,0,0,1,.2-.74,1.14,1.14,0,0,1,1.1-.53,1.79,1.79,0,0,1,.54.26,1.12,1.12,0,0,1,.48.69A1.24,1.24,0,0,1,78.2,18.24Z"/><path class="cls-6" d="M97.9,10.26a3.27,3.27,0,0,0-2.29-.9,4.59,4.59,0,0,0-1.75.26,3.28,3.28,0,0,0-1.81,3.06,3,3,0,0,0,.71,2.13,3.41,3.41,0,0,0,2.47,1.37,3.93,3.93,0,0,0,2.66-.93,3.08,3.08,0,0,0,.92-2.3A3.75,3.75,0,0,0,97.9,10.26Zm-1.54,3.2a1.09,1.09,0,0,1-.7.48,1.38,1.38,0,0,1-.93-.24,1.16,1.16,0,0,1-.45-.85,1.09,1.09,0,0,1,.2-.75,1.14,1.14,0,0,1,1.1-.52,1.47,1.47,0,0,1,.54.25,1.14,1.14,0,0,1,.48.69A1.31,1.31,0,0,1,96.36,13.46Z"/><path class="cls-6" d="M101.44,25.69a3.36,3.36,0,0,0-2.29-.9,4.74,4.74,0,0,0-1.74.26,3.33,3.33,0,0,0-1.82,3.06,3.09,3.09,0,0,0,.71,2.13,3.41,3.41,0,0,0,2.47,1.38,4,4,0,0,0,2.67-.93,3.14,3.14,0,0,0,.92-2.3A3.78,3.78,0,0,0,101.44,25.69Zm-1.54,3.2a1,1,0,0,1-.69.48,1.32,1.32,0,0,1-.93-.23,1.19,1.19,0,0,1-.45-.86,1.06,1.06,0,0,1,.2-.74A1.14,1.14,0,0,1,99.12,27a1.54,1.54,0,0,1,.55.26,1.1,1.1,0,0,1,.48.68A1.25,1.25,0,0,1,99.9,28.89Z"/><path class="cls-6" d="M90.86,2.05a3.34,3.34,0,0,0-2.29-.9,4.54,4.54,0,0,0-1.74.27A3.3,3.3,0,0,0,85,4.47a3.13,3.13,0,0,0,.71,2.14A3.45,3.45,0,0,0,88.2,8a4,4,0,0,0,2.66-.93,3.12,3.12,0,0,0,.92-2.3A3.75,3.75,0,0,0,90.86,2.05ZM89.32,5.26a1.08,1.08,0,0,1-.69.48,1.38,1.38,0,0,1-.93-.24,1.19,1.19,0,0,1-.45-.86,1.07,1.07,0,0,1,.2-.74,1.14,1.14,0,0,1,1.09-.53,1.73,1.73,0,0,1,.55.26,1.14,1.14,0,0,1,.48.69A1.28,1.28,0,0,1,89.32,5.26Z"/><path class="cls-6" d="M92,33.82a3.32,3.32,0,0,0-2.29-.9,4.83,4.83,0,0,0-1.75.26,3.32,3.32,0,0,0-1.81,3.06,3.09,3.09,0,0,0,.71,2.13,3.41,3.41,0,0,0,2.47,1.38A4,4,0,0,0,92,38.82a3.14,3.14,0,0,0,.92-2.3A3.78,3.78,0,0,0,92,33.82ZM90.45,37a1,1,0,0,1-.69.48,1.36,1.36,0,0,1-.94-.23,1.21,1.21,0,0,1-.44-.86,1.06,1.06,0,0,1,.2-.74,1.14,1.14,0,0,1,1.09-.53,1.54,1.54,0,0,1,.55.26,1.1,1.1,0,0,1,.48.68A1.25,1.25,0,0,1,90.45,37Z"/><path class="cls-6" d="M76.89,34.76a3.32,3.32,0,0,0-2.29-.9,4.74,4.74,0,0,0-1.74.26A3.33,3.33,0,0,0,71,37.18a3.09,3.09,0,0,0,.71,2.13,3.41,3.41,0,0,0,2.47,1.38,4,4,0,0,0,2.67-.93,3.14,3.14,0,0,0,.92-2.3A3.78,3.78,0,0,0,76.89,34.76ZM75.35,38a1,1,0,0,1-.69.48,1.32,1.32,0,0,1-.93-.23,1.19,1.19,0,0,1-.45-.86,1.06,1.06,0,0,1,.2-.74,1.14,1.14,0,0,1,1.09-.53,1.54,1.54,0,0,1,.55.26,1.1,1.1,0,0,1,.48.68A1.25,1.25,0,0,1,75.35,38Z"/><path class="cls-6" d="M89,23a2.52,2.52,0,0,0-1.75-.69,3.46,3.46,0,0,0-1.34.2,2.52,2.52,0,0,0-1.39,2.34,2.37,2.37,0,0,0,.54,1.63A2.63,2.63,0,0,0,87,27.56a3.09,3.09,0,0,0,2-.71,2.38,2.38,0,0,0,.7-1.77A2.89,2.89,0,0,0,89,23Zm-1.18,2.45a.82.82,0,0,1-.53.37,1.13,1.13,0,0,1-.72-.18.91.91,0,0,1-.34-.66.82.82,0,0,1,.16-.57.86.86,0,0,1,.83-.4,1.33,1.33,0,0,1,.42.19.86.86,0,0,1,.37.53A1,1,0,0,1,87.84,25.47Z"/></g><path class="cls-3" d="M72.25,30.37c2.29,1.11,7.79,2.47,13.41,3.16a97.17,97.17,0,0,0,11,.54c1.56,0,.61.52-.85.8-3.54.67-13.39.19-16.56-.69-3.45-1-5.64-1.69-7.78-3.5C70.08,29.46,70.08,29.31,72.25,30.37Z"/><path class="cls-3" d="M75.66,28.55A35.89,35.89,0,0,0,86,29.85c1.55-.2.7.45-.72.92s-6.11.58-7.8-.28C73.74,28.54,71,27.38,75.66,28.55Z"/><path class="cls-7" d="M56.3,111.29s-5.67,1.31-8.25,1.18c-2.94-.15-3.4-1.4-3.41-3.13h0c0-1.73.86-3.69,3.35-3.17,1.5.31,8.27.87,8.27.87Z"/><path class="cls-8" d="M56.23,103.54l.11,11.83s21.28.54,26.93.4l26.37-.7-.11-11.84S90,103,83.54,103C80.3,103.06,56.23,103.54,56.23,103.54Z"/><path class="cls-7" d="M56.3,111.29s-5.67,1.31-8.25,1.18c-2.94-.15-3.4-1.4-3.41-3.13h0c0-1.73.86-3.69,3.35-3.17,1.5.31,8.27.87,8.27.87Z"/><path class="cls-8" d="M56.23,103.54l.11,11.83s21.28.54,26.93.4l26.37-.7-.11-11.84S90,103,83.54,103C80.3,103.06,56.23,103.54,56.23,103.54Z"/><path class="cls-9" d="M56.3,111.29s-5.67,1.31-8.25,1.18c-2.94-.15-3.4-1.4-3.41-3.13h0c0-1.73.86-3.69,3.35-3.17,1.5.31,8.27.87,8.27.87Z"/><path class="cls-9" d="M109.6,111.1s5.69,1.24,8.27,1.08c2.94-.18,3.37-1.43,3.36-3.17h0c0-1.73-.94-3.67-3.42-3.13-1.49.33-8.25,1-8.25,1Z"/><path class="cls-6" d="M56.23,103.54l.11,11.83s21.28.54,26.93.4l26.37-.7-.11-11.84S90,103,83.54,103C80.3,103.06,56.23,103.54,56.23,103.54Z"/><path class="cls-10" d="M63,110.44a1.33,1.33,0,0,0,.55.48,1.52,1.52,0,0,0,.63.15,1.09,1.09,0,0,0,.47-.09.3.3,0,0,0,.19-.29.29.29,0,0,0-.15-.27,1.27,1.27,0,0,0-.43-.17l-.45-.1a2.21,2.21,0,0,1-.95-.45,1.11,1.11,0,0,1-.38-.89,1.12,1.12,0,0,1,.45-1,1.9,1.9,0,0,1,1.16-.33,2.12,2.12,0,0,1,1.78.88l-.77.59a1.87,1.87,0,0,0-.5-.4,1.07,1.07,0,0,0-.53-.15.72.72,0,0,0-.39.1.3.3,0,0,0-.14.26.31.31,0,0,0,.12.26.81.81,0,0,0,.36.16l.46.11a2.6,2.6,0,0,1,1,.44,1.08,1.08,0,0,1,.4.91,1.11,1.11,0,0,1-.24.73,1.42,1.42,0,0,1-.63.43,2.85,2.85,0,0,1-2.05-.11,1.8,1.8,0,0,1-.79-.73Z"/><path class="cls-10" d="M66.83,106.83a.57.57,0,0,1-.18-.43.59.59,0,0,1,.18-.44.63.63,0,0,1,.88,0,.59.59,0,0,1,.18.44.57.57,0,0,1-.18.43.63.63,0,0,1-.88,0Zm1,5.06h-1.1v-4.25h1.1Z"/><path class="cls-10" d="M71.9,107.75a1.68,1.68,0,0,1,.58.63,2,2,0,0,1,.22,1v2.55H71.6v-2.51c0-.57-.27-.86-.82-.86a.84.84,0,0,0-.57.21.71.71,0,0,0-.25.56v2.6H68.87v-4.25h1l0,.47a1.25,1.25,0,0,1,.49-.42,1.37,1.37,0,0,1,.68-.16A1.5,1.5,0,0,1,71.9,107.75Z"/><path class="cls-10" d="M74.4,111.76a1.69,1.69,0,0,1-.73-.67A2.06,2.06,0,0,1,73.4,110v-.5a2.06,2.06,0,0,1,.27-1.08,1.69,1.69,0,0,1,.73-.67,2.2,2.2,0,0,1,1-.23,2,2,0,0,1,1.17.34,1.7,1.7,0,0,1,.71,1l-1,.37a.91.91,0,0,0-.32-.5.83.83,0,0,0-.52-.17.88.88,0,0,0-.64.26,1,1,0,0,0-.26.75V110a1,1,0,0,0,.26.75.88.88,0,0,0,.64.26.83.83,0,0,0,.52-.17.87.87,0,0,0,.32-.5l1,.37a1.7,1.7,0,0,1-.71,1,2,2,0,0,1-1.17.34A2.2,2.2,0,0,1,74.4,111.76Z"/><path class="cls-10" d="M81.82,110.16H79a1,1,0,0,0,.3.64.85.85,0,0,0,.59.22,1.1,1.1,0,0,0,.56-.13.79.79,0,0,0,.34-.4l1,.3a1.57,1.57,0,0,1-.69.89,2.28,2.28,0,0,1-1.22.31,2.2,2.2,0,0,1-1-.23,1.75,1.75,0,0,1-.7-.7,2.12,2.12,0,0,1-.27-1.11v-.38a2.19,2.19,0,0,1,.27-1.12,1.79,1.79,0,0,1,.7-.69,2.29,2.29,0,0,1,2,0,1.75,1.75,0,0,1,.71.69,2.21,2.21,0,0,1,.27,1.12Zm-1.08-.89a.64.64,0,0,0-.12-.38,1,1,0,0,0-.33-.29,1,1,0,0,0-.45-.1.86.86,0,0,0-.56.19.94.94,0,0,0-.31.58Z"/><path class="cls-10" d="M84.34,111.89V111l2-2a4.43,4.43,0,0,0,.6-.7,1.14,1.14,0,0,0,.17-.58.65.65,0,0,0-.22-.52.92.92,0,0,0-.65-.2.87.87,0,0,0-.65.25,1.6,1.6,0,0,0-.37.71l-1-.25a2.39,2.39,0,0,1,.73-1.21,1.89,1.89,0,0,1,1.33-.48,2.19,2.19,0,0,1,1.42.43,1.52,1.52,0,0,1,.53,1.22,1.89,1.89,0,0,1-.24.95,4,4,0,0,1-.74.92l-1.36,1.33h2.45v1Z"/><path class="cls-10" d="M90.28,111.71a1.93,1.93,0,0,1-.79-.83,2.81,2.81,0,0,1-.3-1.35v-1a2.81,2.81,0,0,1,.3-1.35,2,2,0,0,1,.79-.83,2.4,2.4,0,0,1,2.21,0,2,2,0,0,1,.79.83,2.81,2.81,0,0,1,.3,1.35v1a2.81,2.81,0,0,1-.3,1.35,1.93,1.93,0,0,1-.79.83,2.32,2.32,0,0,1-2.21,0Zm1.9-1.08a1.83,1.83,0,0,0,.3-1.14v-1a1.83,1.83,0,0,0-.3-1.13,1,1,0,0,0-1.59,0,1.83,1.83,0,0,0-.3,1.13v1a1.83,1.83,0,0,0,.3,1.14,1,1,0,0,0,1.59,0Z"/><path class="cls-10" d="M94.46,111.89V111l2.05-2a4.85,4.85,0,0,0,.59-.7,1.07,1.07,0,0,0,.18-.58.65.65,0,0,0-.23-.52,1.05,1.05,0,0,0-1.3.05,1.6,1.6,0,0,0-.37.71l-1-.25a2.45,2.45,0,0,1,.72-1.21A1.91,1.91,0,0,1,96.4,106a2.15,2.15,0,0,1,1.42.43,1.5,1.5,0,0,1,.54,1.22,1.89,1.89,0,0,1-.24.95,4.57,4.57,0,0,1-.74.92L96,110.88h2.45v1Z"/><path class="cls-10" d="M100.17,110.14a1.22,1.22,0,0,0,1.21.87,1.24,1.24,0,0,0,.79-.22.69.69,0,0,0,.28-.56.74.74,0,0,0-.3-.61,1.43,1.43,0,0,0-.87-.23h-.77v-.92h.77a1.22,1.22,0,0,0,.77-.21.68.68,0,0,0,.26-.55.6.6,0,0,0-.25-.52,1.21,1.21,0,0,0-.7-.18,1,1,0,0,0-1,.75l-1-.37a2.17,2.17,0,0,1,.73-1,2.06,2.06,0,0,1,1.27-.37,2.64,2.64,0,0,1,1,.19,1.66,1.66,0,0,1,.72.55,1.47,1.47,0,0,1,.26.87,1.22,1.22,0,0,1-.23.79,1.62,1.62,0,0,1-.6.49,1.74,1.74,0,0,1,.7.52,1.32,1.32,0,0,1,.27.84,1.5,1.5,0,0,1-.27.9,1.76,1.76,0,0,1-.76.6,2.78,2.78,0,0,1-1.11.21,2.27,2.27,0,0,1-1.39-.4,2.33,2.33,0,0,1-.79-1.09Z"/><path class="cls-2" d="M32.56,87.1A10.22,10.22,0,0,0,28,80.82a9,9,0,0,0-6.67-.52A12.85,12.85,0,0,0,17,82.38c-2.56,2.29-3.29,5.89-2.27,9.41a8.28,8.28,0,0,0,3.55,5c2.16,1.4,4.86,2.37,7.53,1.6A10.92,10.92,0,0,0,32,93.83,8.49,8.49,0,0,0,32.56,87.1Zm-5.3-6.24,1,.65-1.49,2.21-1-.65ZM26.21,84l2.22,1.5-.65,1L25.56,85ZM19.9,82.32l1.15.19-.44,2.63L19.46,85Zm-4.43,4.4,2.6-.63.27,1.14-2.59.62Zm1.34,5.84.5-1,2.41,1.15-.5,1.06Zm3,3.6-.7-.93,2.13-1.61.7.93Zm2.78-3.85a3.12,3.12,0,0,1-1.84-1.87,2.79,2.79,0,0,1-.07-2.09A3.06,3.06,0,0,1,23,86.11a4.4,4.4,0,0,1,1.63.22,3.09,3.09,0,0,1,1.8,1.41,3.48,3.48,0,0,1,.11,2.64,2.86,2.86,0,0,1-1.43,1.81A3.7,3.7,0,0,1,22.54,92.31Zm3.29,4.59-1-.51L25.93,94l1.05.51ZM28,94l-.38-2.65,1.16-.16.38,2.64Zm3-4.43H29.88V86.92h1.17Z"/></g></g></svg>