<svg xmlns="http://www.w3.org/2000/svg" viewBox="0 0 458.98 458.98"><defs><style>.cls-1{fill:#f5b8d5;}.cls-2{fill:#fff;}</style></defs><title>Asset 6</title><g id="Layer_2" data-name="Layer 2"><g id="Layer_1-2" data-name="Layer 1"><path class="cls-1" d="M229.49,0C102.75,0,0,102.75,0,229.49A229.49,229.49,0,0,0,375.79,406.3q7.06-5.87,13.64-12.27a231,231,0,0,0,27.44-32A228.45,228.45,0,0,0,459,229.49C459,102.75,356.23,0,229.49,0Z"/><polygon class="cls-2" points="409.7 151.77 414.4 148.17 419.11 151.77 417.31 145.95 422.02 142.36 416.2 142.36 414.4 136.54 412.61 142.36 406.79 142.36 411.5 145.95 409.7 151.77"/><polygon class="cls-2" points="43.73 142.36 41.93 136.54 40.13 142.36 34.32 142.36 39.02 145.95 37.23 151.77 41.93 148.17 46.64 151.77 44.84 145.95 49.54 142.36 43.73 142.36"/><polygon class="cls-2" points="291.55 45.26 296.25 41.66 300.95 45.26 299.16 39.44 303.86 35.85 298.05 35.85 296.25 30.03 294.45 35.85 288.64 35.85 293.34 39.44 291.55 45.26"/><polygon class="cls-2" points="145.34 46.71 150.04 43.11 154.75 46.71 152.95 40.89 157.66 37.3 151.84 37.3 150.04 31.48 148.25 37.3 142.43 37.3 147.14 40.89 145.34 46.71"/></g></g></svg>