<svg xmlns="http://www.w3.org/2000/svg" viewBox="0 0 373.58 116.39"><defs><style>.cls-1{fill:#3095d3;}.cls-2{fill:#fff;}</style></defs><title>Asset 12</title><g id="Layer_2" data-name="Layer 2"><g id="Layer_1-2" data-name="Layer 1"><path class="cls-1" d="M365.91,13.65q-2-1.29-4-2.47a83.93,83.93,0,0,0-15-6.67c-1.54-.51-3.09-1-4.66-1.41A86.8,86.8,0,0,0,325.77.24c-1.64-.12-3.28-.2-4.92-.23Q317.4,0,314,.18a82.44,82.44,0,0,0-9.81,1.24c-1.61.3-3.21.65-4.79,1A84.39,84.39,0,0,0,283.78,8c-1.45.68-2.87,1.39-4.27,2.15a79,79,0,0,0-13.28,9q-1.77,1.5-3.44,3.1A66.21,66.21,0,0,0,253.64,33c-.2-.38-.41-.76-.64-1.13a21.3,21.3,0,0,0-2.78-3.55A26.43,26.43,0,0,0,232,20.62c-.31,0-.63,0-.94,0-5.38.1-10.71,1.88-15.86,4.45q-2.11,1.07-4.18,2.28c-1.79,1-3.55,2.17-5.28,3.32a26.62,26.62,0,0,0-2.5-8.74,30.92,30.92,0,0,0-2.19-3.87,37.25,37.25,0,0,0-11.25-10.8A42.27,42.27,0,0,0,185.65,5a39.3,39.3,0,0,0-16.08-3.83h0a37.64,37.64,0,0,0-4.87.23,40.38,40.38,0,0,0-15.6,5.15,37.76,37.76,0,0,0-4,2.58,35.17,35.17,0,0,0-10.19,11.58,28.11,28.11,0,0,0-1.76,4A25.55,25.55,0,0,0,132,29.41a20,20,0,0,0-2.9-9.49,24.25,24.25,0,0,0-2.63-3.65,33.31,33.31,0,0,0-13.09-9,36.29,36.29,0,0,0-4.64-1.47,34.2,34.2,0,0,0-12.83-.74,35.85,35.85,0,0,0-3.77.72,37.8,37.8,0,0,0-4.63,1.47A39,39,0,0,0,71.17,19.48a35.7,35.7,0,0,0-6.6,13.46A30.38,30.38,0,0,0,64,36.32l-.63-.69A83.71,83.71,0,0,0,52.07,24.7,39.85,39.85,0,0,0,48.18,22,31.36,31.36,0,0,0,39,18.29a21.23,21.23,0,0,0-6.57-.37,24.32,24.32,0,0,0-4.8,1c-5.58,1.72-10.25,5.4-11.29,10a8.87,8.87,0,0,0-.09,3.49l-.63-.59A69.79,69.79,0,0,0,2.67,22.45C1.79,22,.9,21.5,0,21.05a230.56,230.56,0,0,0,26.26,30.4A230.43,230.43,0,0,0,53.68,74.27,78.28,78.28,0,0,1,60.6,69.1q2-1.34,4.14-2.55A80.7,80.7,0,0,1,80,59.82q2.34-.75,4.72-1.37A79.4,79.4,0,0,1,101.28,56c1.64-.06,3.29-.08,4.93,0,1.14,0,2.27.08,3.4.16a75.34,75.34,0,0,1,13.21,2.14q2.39.6,4.72,1.35a79.8,79.8,0,0,1,15.24,6.73c1.41.8,2.79,1.66,4.14,2.54a76.24,76.24,0,0,1,12.7,10.47c1.11,1.14,2.19,2.33,3.23,3.54A70.15,70.15,0,0,1,169,91.29a21.44,21.44,0,0,1,3.26-4.88,23.83,23.83,0,0,1,3.52-3.28A25,25,0,0,1,190.24,78c.37,0,.73,0,1.1,0a26.06,26.06,0,0,1,4.87.61c5.16,1.14,10.24,3.72,15.11,6.86,1.24.8,2.48,1.64,3.69,2.5l1.08.78a32,32,0,0,1,5-14.18A36.59,36.59,0,0,1,224,70.76a39,39,0,0,1,13-10,37.12,37.12,0,0,1,4.54-1.83,35,35,0,0,1,10.29-1.76,34.66,34.66,0,0,1,6.29.46,37.44,37.44,0,0,1,4.79,1.13,39.26,39.26,0,0,1,14.36,8.11,40.28,40.28,0,0,1,3.39,3.4,33.52,33.52,0,0,1,7.83,15.41c.12.59.21,1.17.3,1.76,0-.55.05-1.09.12-1.63a25,25,0,0,1,6.93-14.3,32.3,32.3,0,0,1,3.56-3.24,34.5,34.5,0,0,1,15.08-6.72,32.28,32.28,0,0,1,4.9-.49,29.1,29.1,0,0,1,4.93.32,33.42,33.42,0,0,1,8.24,2.34q7.08-5.85,13.65-12.26a231,231,0,0,0,27.43-32A74.59,74.59,0,0,0,365.91,13.65Z"/><path class="cls-2" d="M319.33,61.05a32.28,32.28,0,0,0-4.9.49,34.5,34.5,0,0,0-15.08,6.72,32.3,32.3,0,0,0-3.56,3.24,25,25,0,0,0-6.93,14.3c-.07.54-.1,1.08-.12,1.63-.09-.59-.18-1.17-.3-1.76a33.52,33.52,0,0,0-7.83-15.41,40.28,40.28,0,0,0-3.39-3.4,39.26,39.26,0,0,0-14.36-8.11,37.44,37.44,0,0,0-4.79-1.13,34.66,34.66,0,0,0-6.29-.46,35,35,0,0,0-10.29,1.76A37.12,37.12,0,0,0,237,60.75a39,39,0,0,0-13,10,36.59,36.59,0,0,0-2.84,3.84,32,32,0,0,0-5,14.18L215,88c-1.21-.86-2.45-1.7-3.69-2.5-4.87-3.14-9.95-5.72-15.11-6.86a26.06,26.06,0,0,0-4.87-.61c-.37,0-.73,0-1.1,0a25,25,0,0,0-14.49,5.11,23.83,23.83,0,0,0-3.52,3.28A21.44,21.44,0,0,0,169,91.29a70.15,70.15,0,0,0-6.12-8.38c-1-1.21-2.12-2.4-3.23-3.54a76.24,76.24,0,0,0-12.7-10.47c-1.35-.88-2.73-1.74-4.14-2.54a79.8,79.8,0,0,0-15.24-6.73q-2.34-.75-4.72-1.35a75.34,75.34,0,0,0-13.21-2.14c-1.13-.08-2.26-.13-3.4-.16-1.64,0-3.29,0-4.93,0a79.4,79.4,0,0,0-16.59,2.44q-2.39.61-4.72,1.37a80.7,80.7,0,0,0-15.23,6.73q-2.11,1.22-4.14,2.55a78.28,78.28,0,0,0-6.92,5.17A228.37,228.37,0,0,0,186.2,116.39,228.52,228.52,0,0,0,332.5,63.71a33.42,33.42,0,0,0-8.24-2.34A29.1,29.1,0,0,0,319.33,61.05Z"/></g></g></svg>