<svg xmlns="http://www.w3.org/2000/svg" viewBox="0 0 303.85 82.94"><defs><style>.cls-1{fill:#516f3c;}</style></defs><title>Asset 46</title><g id="Layer_2" data-name="Layer 2"><g id="Layer_1-2" data-name="Layer 1"><path class="cls-1" d="M29.11,4.17C20.48,2,11.62,3.87,3,5.73L.43,6.29,0,13.48H7.23c1.33,4.08,1.1,30,.84,36l-4.36.62.66,9.36.34.1a16.55,16.55,0,0,0,3.54.4c22.43,0,37.5-13.92,37.5-34.63A21.89,21.89,0,0,0,29.11,4.17Zm6.18,20c0,9.52-5.12,24.63-18.87,24.63H15.7c-.2-8.56-.29-16.81-.29-26.67v-9c2.65-.21,4.25-.27,6.61-.27C30.21,12.87,35.29,17.2,35.29,24.17Z"/><path class="cls-1" d="M59.17,47.81h-.84c-1.12-3.88-2.07-13.24-.7-16.4,4.42-1.13,9.6-2,14.71-.48l.69.21-.53-9.23-.62.2a23.61,23.61,0,0,1-14.5.55c0-.6.1-1.92.17-2.74V19.8c.59-4.63.89-6.55,1-7.31,2-.4,6.48-.31,10.81-.22,1.8,0,3.57.07,5.12.07h1.15l.68-10.09-.62.09A175.31,175.31,0,0,1,48.58,4.46H48l.42,6h0C49.57,25.25,50.83,42,46.14,56l-.22.66h.69c4.75,0,11.47-.54,18-1.06s13.19-1.06,17.9-1.06h.46l1-11.11-.83.5C78.56,46.61,66.39,47.81,59.17,47.81Z"/><path class="cls-1" d="M117.38,44.58c-3.34,5.65-11.21,8-16.57,7-2.26-.44-6.15-1.89-6.87-6.64-2.12-14-2.08-27.35.16-43.14l.1-.72-14,3.3,8.61,55.23L119.41,58l-1.23-14.79Z"/><path class="cls-1" d="M132.65,4.94a.37.37,0,0,1-.21.13l-.19-1h0l-12,2.39.28.58c3.11,6.52,3.6,47.08,1.52,51.17l-.48.94,13.56-3-.62-.65C130.44,51.31,131.35,7,132.65,4.94Z"/><path class="cls-1" d="M176.35,3.32h-.73c-5.25,0-10,.14-14.86.45l-.65,0,.21.62a25.48,25.48,0,0,1,1,8.54c0,9.55-2.42,18-5,26.93-.6,2.1-1.21,4.25-1.8,6.44a157.76,157.76,0,0,1-5.17-37.92V7.92l-.51,0a115,115,0,0,0-14.89,1.67l-.89.14.58.68c9.14,10.65,14.19,35.15,14.19,48v.61l13.78-2.61V55.27c0-15.28,5.39-28.6,11.09-42.71,1.13-2.8,2.3-5.69,3.41-8.56Z"/><path class="cls-1" d="M188.79,47.81H188c-1.12-3.88-2.08-13.24-.7-16.4,4.42-1.13,9.59-2,14.71-.48l.68.21-.53-9.23-.62.2a23.59,23.59,0,0,1-14.49.55c0-.61.1-1.94.16-2.74.46-3.7.85-6.4,1.06-7.43,2-.4,6.48-.31,10.81-.22,1.79,0,3.56.07,5.12.07h1.15L206,2.25l-.61.09a175.44,175.44,0,0,1-27.17,2.12h-.53l.41,6h0C179.18,25.25,180.44,42,175.75,56l-.22.66h.69c4.75,0,11.48-.54,18-1.06s13.18-1.06,17.89-1.06h.46l.95-11.11-.83.5C208.18,46.61,196,47.81,188.79,47.81Z"/><path class="cls-1" d="M296.2,61.07a5.85,5.85,0,0,0-4.82,1,4,4,0,0,0-1.62,3.22v.53c0,4,4.74,5.15,6.8,5.43-.57,4.3-6.08,6.4-15.87,6.1C267.81,76.27,261.75,65.48,255.9,55c-2.61-4.64-5.3-9.45-8.54-13.25-3-3.6-6-7-9.91-9.3,5.6-2.47,11.69-7.67,11.69-14.9V17.2C248.89,6.62,239.22.07,230.4.07H211.88l.37.73c3.66,7.08,4.38,15.36,5,22.7a4.43,4.43,0,0,1,.07.6,4.38,4.38,0,0,0,.08.6c0,1.67,0,3.34,0,5,.11,9.41.23,19.15-3.34,28l-.27.67,16.24.32.83,0-.4-.76c-1-1.76-2-3.59-2.81-5.37a58,58,0,0,1-1.88-15.68V35.53a1.29,1.29,0,0,1,.17-.37l.2,0c3.35.29,5.94,3.05,7.82,5.41a127.51,127.51,0,0,1,9,13.79c8.35,14,17,28.44,35,28.55h.53c12.24,0,25.32-3.37,25.32-12.83V69.8C303.85,65.78,300.74,61.31,296.2,61.07ZM225.83,8.5c.35-1.22,1.68-1.35,3.52-1.41.36,0,.7,0,1,0h1c4.86,0,8.13,5,8.13,9.57v.59c-.22,6.63-5.68,12.23-11.91,12.23a9.94,9.94,0,0,1-1.7-.15Z"/><path class="cls-1" d="M267.25,61.15c8,0,13.69-6.09,17.28-18.6L297,0,285.31,1.09l0,.44c-.58,15.41-3.32,24.24-7.14,35.92-6.5-20.7-5.71-29.61-5.48-31.21V5.52L258.09,7.35l.32.63c14,27.94,16.59,43.84,13.12,46.8-1.45,1.23-3.95,0-6-1.34a8.63,8.63,0,0,1,.8-.39c1.55-.68,3.88-1.71,3.88-6,0-5.71-2.8-9-7.69-9-6.36,0-7.23,4.35-7.23,9.05C255.33,55,260.56,61.15,267.25,61.15Z"/></g></g></svg>