<svg xmlns="http://www.w3.org/2000/svg" viewBox="0 0 493.39 82.68"><defs><style>.cls-1{fill:#593b7f;}</style></defs><title>Asset 31</title><g id="Layer_2" data-name="Layer 2"><g id="Layer_1-2" data-name="Layer 1"><path class="cls-1" d="M0,33.19C0,19.07,7.89,1.53,25.43,1.53c10.17,0,15.94,5.93,15.94,15.26,0,5.92-3.26,12.53-10.4,12.53-4.25,0-6.6-2.89-7-6.45-.23-2.59.38-5.7,3.87-5.7,4.86,0,5.47,3.19,4.63,7.29,4.86-3,2-15.33-7.14-15.33C11.84,9.13,8.88,25.52,9.79,35.32c.53,5.16,3.57,18.82,11.69,18.82,5.77,0,7.52-5.08,7.52-9.64,0-.45-.08-1-.08-1.44L19,43.74l-1.52-5.16,29.23-6.23.6,8.89-7,.91c.15,5.24,1.52,14.19,2.13,19.36L35.6,59.23V48.07c-1.36,6.6-7.74,11.39-14.88,11.39C7.44,59.46,1.14,46.78.15,36.53.08,35.47,0,34.33,0,33.19Z"/><path class="cls-1" d="M58.23,35.54V37a58.62,58.62,0,0,0,1.9,15.86C61,54.75,62,56.57,63,58.39l-15.56-.3c4.25-10.55,3.34-22.17,3.34-33.33-.08-.45-.08-.83-.15-1.29C50,15.65,49.2,7.61,45.55.55H63.32c9.18,0,18.06,7,18.29,16.7v.38c0,7.13-6.15,12.45-12.37,14.88,4.32,2.27,7.59,6,10.7,9.71,10.48,12.3,14.73,34.24,33.78,35.91,4.78.15,15.64.08,16.47-6.6v-.46c-2.88-.3-6.83-1.59-6.83-5v-.53c0-2.89,3.34-4.4,5.85-3.8C133.38,62,136.5,66,136.5,70v.3c0,10.48-16.33,12.37-24.9,12.37h-.54C87,82.53,79.71,56,67.34,40.4c-2-2.58-4.71-5.31-8.2-5.62C58.53,34.63,58.38,35.09,58.23,35.54Zm5-29c-1.67.16-4.48-.22-5,1.9V29.77a10.28,10.28,0,0,0,2.2.23C67,30,72.65,24.08,72.88,17.25v-.61c0-4.86-3.49-10.1-8.65-10.1h-1Z"/><path class="cls-1" d="M104.46,8.37c15.26,0,20.73,12.83,19.89,24.14-.76,10.09-7.36,20.34-20.72,20.34-.61,0-3.49-.07-4.1-.07-11.84-3-16.93-13.59-16.17-23.69S91.56,8.37,104.46,8.37Zm.76,38.94c7.36,0,8.5-9.34,8.81-13.66.45-5.93-.15-19.29-10-19.29-7.82,0-9.34,8.81-9.64,13.74C93.83,34.63,94.52,47.31,105.22,47.31Z"/><path class="cls-1" d="M138,5.1c-.23,8.5-10,36.06,7.14,36.06,16.17,0,9.41-30,6.15-38A71.15,71.15,0,0,1,165.8,1.91c-.45,16.33,4.26,44.34-19.43,44.34-12.37,0-17.84-9-18.14-18.6-.15-3.27,1.06-18.22-1.52-20.95Z"/><path class="cls-1" d="M168.92,4.27C174.77-.29,209-6.59,208.62,17.78c-.15,12.15-10.78,18.83-21.94,18.83a20.26,20.26,0,0,1-3.11-.16,14,14,0,0,0-.07,1.67c0,6.31,2.5,12.15,1.74,23.69-3.64-.53-7.36-1.9-11.54-2,4.94-13,.38-34.62-1-51L170,9.28Zm14.35,26.57a16.51,16.51,0,0,0,2.65.22c7.82,0,12.76-5.84,12.76-13.74,0-.38-.08-.83-.08-1.29-.61-10.4-9.87-12.6-18.52-9.94Z"/><path class="cls-1" d="M257.21,8.37c15.26,0,20.72,12.83,19.89,24.14-.76,10.09-7.36,20.34-20.72,20.34-.61,0-3.5-.07-4.1-.07-11.85-3-16.93-13.59-16.17-23.69S244.31,8.37,257.21,8.37ZM258,47.31c7.36,0,8.5-9.34,8.81-13.66.45-5.93-.16-19.29-10-19.29-7.82,0-9.34,8.81-9.65,13.74C246.58,34.63,247.27,47.31,258,47.31Z"/><path class="cls-1" d="M288.19,35.54V37a59,59,0,0,0,1.89,15.86c.92,1.9,1.9,3.72,2.89,5.54l-15.56-.3c4.25-10.55,3.34-22.17,3.34-33.33-.08-.45-.08-.83-.15-1.29-.69-7.82-1.45-15.86-5.09-22.92h17.76c9.19,0,18.07,7,18.3,16.7v.38c0,7.13-6.15,12.45-12.38,14.88,4.33,2.27,7.6,6,10.71,9.71,10.47,12.3,14.73,34.24,33.78,35.91,4.78.15,15.64.08,16.47-6.6v-.46c-2.88-.3-6.83-1.59-6.83-5v-.53c0-2.89,3.34-4.4,5.85-3.8,4.17.23,7.28,4.25,7.28,8.28v.3c0,10.48-16.32,12.37-24.9,12.37H341C317,82.53,309.67,56,297.3,40.4c-2.05-2.58-4.71-5.31-8.2-5.62C288.49,34.63,288.34,35.09,288.19,35.54Zm5-29c-1.67.16-4.48-.22-5,1.9V29.77a10.28,10.28,0,0,0,2.2.23c6.6,0,12.22-5.92,12.45-12.75v-.61c0-4.86-3.49-10.1-8.66-10.1h-1Z"/><path class="cls-1" d="M323.34,50.65l4.33-.61c.22-4.48.6-33.78-1-37h-7.06L320,6.7l2.12-.46c8.43-1.82,17.46-3.79,26-1.59a21.59,21.59,0,0,1,16.32,20.72c0,21.94-16.24,34.24-37.12,34.24a16.19,16.19,0,0,1-3.41-.38Zm12.22-1.21c14.8,0,19.43-16.33,19.43-25.21,0-7.66-5.77-11.84-13.81-11.84-2.58,0-4.25.08-7.14.3v9.49c0,9.19.08,17.77.31,27.26Z"/><path class="cls-1" d="M368.21,10.42,368,7.3,367.83,5a175.79,175.79,0,0,0,27.33-2.13l-.61,9h-.69c-5.54,0-13.74-.46-16.39.23-.31,1.13-1,6.6-1.14,7.82a27.57,27.57,0,0,0-.15,3.18,24.22,24.22,0,0,0,15.18-.45l.45,7.89c-5.23-1.59-10.55-.68-15.25.53-1.67,3.27-.46,13.82.68,17.39h1.21c6.46,0,19.36-1.06,24.22-4l-.84,9.72c-9.48,0-26.49,2.12-36,2.12C370.56,42.3,369.34,25.6,368.21,10.42Z"/><path class="cls-1" d="M415.12,35.54V37A59,59,0,0,0,417,52.85c.91,1.9,1.9,3.72,2.89,5.54l-15.57-.3c4.26-10.55,3.34-22.17,3.34-33.33-.07-.45-.07-.83-.15-1.29-.68-7.82-1.44-15.86-5.08-22.92h17.76c9.19,0,18.07,7,18.29,16.7v.38c0,7.13-6.14,12.45-12.37,14.88,4.33,2.27,7.59,6,10.7,9.71,10.48,12.3,14.73,34.24,33.79,35.91,4.78.15,15.63.08,16.47-6.6v-.46c-2.89-.3-6.83-1.59-6.83-5v-.53c0-2.89,3.34-4.4,5.84-3.8,4.18.23,7.29,4.25,7.29,8.28v.3c0,10.48-16.32,12.37-24.9,12.37H468C443.89,82.53,436.61,56,424.23,40.4c-2.05-2.58-4.7-5.31-8.2-5.62C415.43,34.63,415.28,35.09,415.12,35.54Zm5-29c-1.67.16-4.47-.22-5,1.9V29.77a10.37,10.37,0,0,0,2.21.23c6.6,0,12.22-5.92,12.44-12.75v-.61c0-4.86-3.49-10.1-8.65-10.1h-1Z"/></g></g></svg>