<svg xmlns="http://www.w3.org/2000/svg" viewBox="0 0 445.03 82.14"><defs><style>.cls-1{fill:#516f3c;}</style></defs><title>Asset 34</title><g id="Layer_2" data-name="Layer 2"><g id="Layer_1-2" data-name="Layer 1"><path class="cls-1" d="M8.05,36.82c3,0,8.27,1.82,8.27,5.69,0,3.34-2.73,5.24-5.84,3.65,0,3.79,4.32,6.45,8.35,6.45,5.16,0,11.23-3,11.23-8.81,0-16.62-27.18-8.35-27.18-23.23C2.88,8.5,13,4,22.7,4c4.48,0,15.18,2.2,15.18,8.2,0,4.1-2.81,7.51-7.14,7.51-2.12,0-4.85-1.14-4.85-3.49,0-1.82,1.82-2.66,1.82-4.4,0-2.2-5.24-2.66-6.53-2.66-3.8,0-7.82,1.67-7.82,6,0,12.75,24.75,4.4,26.8,21a17.36,17.36,0,0,1,.15,1.9C40.31,49.65,26.42,56.1,16,56.1c-6.61,0-16-3.57-16-11.46C0,39.93,3.34,36.82,8.05,36.82Z"/><path class="cls-1" d="M44.11,50.63c2.73-11.84,6.15-26.57,4.25-43.8h9c2.2,9.19,12.38,26,18.45,31.51,0-10.1-.76-24.75-.76-34.62V2.13A49.8,49.8,0,0,1,83.2,1c-2.43,17.76-.15,36.43.91,54.05h-7C73.79,50.1,55.8,27,56.33,27.4c-.68,11-2,15-1,25.51Z"/><path class="cls-1" d="M95.13,36.82c3,0,8.27,1.82,8.27,5.69,0,3.34-2.73,5.24-5.85,3.65,0,3.79,4.33,6.45,8.35,6.45,5.17,0,11.24-3,11.24-8.81C117.14,27.18,90,35.45,90,20.57,90,8.5,100.06,4,109.78,4c4.47,0,15.18,2.2,15.18,8.2,0,4.1-2.81,7.51-7.14,7.51-2.12,0-4.86-1.14-4.86-3.49,0-1.82,1.83-2.66,1.83-4.4,0-2.2-5.24-2.66-6.53-2.66-3.8,0-7.82,1.67-7.82,6,0,12.75,24.75,4.4,26.8,21a17.36,17.36,0,0,1,.15,1.9c0,11.62-13.89,18.07-24.29,18.07-6.61,0-16-3.57-16-11.46C87.08,39.93,90.42,36.82,95.13,36.82Z"/><path class="cls-1" d="M154.72,32.64c0-14.12,7.9-31.65,25.43-31.65,10.17,0,15.94,5.92,15.94,15.26,0,5.92-3.26,12.52-10.4,12.52-4.25,0-6.6-2.88-7-6.45-.23-2.58.38-5.69,3.87-5.69,4.86,0,5.47,3.18,4.63,7.28,4.86-3,2-15.33-7.13-15.33-13.52,0-16.48,16.4-15.57,26.19.53,5.16,3.57,18.82,11.69,18.82,5.77,0,7.52-5.08,7.52-9.64,0-.45-.08-1-.08-1.44l-9.94.68L172.18,38l29.23-6.22.6,8.88-7,.91c.15,5.24,1.52,14.2,2.13,19.36l-6.84-2.28V47.52c-1.36,6.61-7.74,11.39-14.87,11.39-13.29,0-19.59-12.68-20.58-22.93C154.8,34.92,154.72,33.78,154.72,32.64Z"/><path class="cls-1" d="M214.32,39.78l-4.79,19.51L201,57c3-6.45,7.21-29.07,6.38-44l-3.27.46-1.67-7.21c0-.23,4-.92,32.49-4.33l1.22,5.77-4.71,1c-.15,5.47,1.22,33.48,8.66,48.21l-10,1.82L226,38.26Zm.53-9.26c1.21.3,8.5-.61,9.71-.76v-.31c0-5.54-.38-10.93-.38-16.62a63.82,63.82,0,0,0-8.72.91,2.58,2.58,0,0,0-.84.23Z"/><path class="cls-1" d="M239.9,4.18l12.83-3c-2.12,15-2.43,28.39-.15,43.42,1.59,10.63,19,9,24.44-.15l1.07,12.75L248.4,58.68Z"/><path class="cls-1" d="M274.75,4.18l12.83-3c-2.13,15-2.43,28.39-.15,43.42,1.59,10.63,19.05,9,24.44-.15l1.06,12.75-29.68,1.52Z"/><path class="cls-1" d="M319.84,9.87l-.22-3.11-.16-2.36a176.81,176.81,0,0,0,27.33-2.12l-.6,9h-.69c-5.54,0-13.74-.45-16.39.23-.31,1.14-1,6.6-1.14,7.82a27.71,27.71,0,0,0-.15,3.19A24.28,24.28,0,0,0,343,22.09l.45,7.9c-5.23-1.6-10.55-.69-15.25.53-1.68,3.26-.46,13.81.68,17.38h1.21c6.45,0,19.36-1.06,24.22-3.95l-.84,9.72c-9.49,0-26.49,2.13-36,2.13C322.2,41.75,321,25.05,319.84,9.87Z"/><path class="cls-1" d="M366.76,35v1.44a59,59,0,0,0,1.9,15.86c.91,1.9,1.9,3.72,2.88,5.55L356,57.54c4.25-10.55,3.34-22.16,3.34-33.32-.07-.46-.07-.84-.15-1.29-.68-7.82-1.44-15.87-5.09-22.93h17.77c9.18,0,18.07,7,18.29,16.7v.38c0,7.14-6.15,12.45-12.37,14.88,4.33,2.28,7.59,6,10.7,9.72C399,54,403.2,75.91,422.25,77.58c4.79.15,15.64.08,16.48-6.6v-.46c-2.89-.3-6.83-1.59-6.83-5V65c0-2.88,3.34-4.4,5.84-3.79,4.18.22,7.29,4.25,7.29,8.27v.3c0,10.48-16.32,12.38-24.9,12.38h-.53c-24.07-.15-31.35-26.65-43.73-42.29-2.05-2.58-4.7-5.31-8.2-5.61C367.07,34.08,366.91,34.54,366.76,35Zm5-29c-1.67.15-4.48-.23-5,1.9V29.23a11,11,0,0,0,2.2.22c6.61,0,12.23-5.92,12.45-12.75v-.61c0-4.85-3.49-10.09-8.65-10.09h-1Z"/><path class="cls-1" d="M404.11,38.11c4.56,0,7.22,3,7.22,8.5,0,5.77-4.41,5.16-4.94,6.53,13,9.34,11.46-11-6-45.93l13.37-1.67v.08c-.16,1.06-1.3,10.4,6,33,4.1-12.53,7.06-21.48,7.67-37.65L438,0l-12.3,42c-2.8,9.79-7.51,18.29-16.85,18.29-6.38,0-11.46-6-11.46-13.58C397.36,41.07,398.88,38.11,404.11,38.11Z"/></g></g></svg>