<svg xmlns="http://www.w3.org/2000/svg" viewBox="0 0 434.78 83.81"><defs><style>.cls-1{fill:#f9af1e;}</style></defs><title>Asset 32</title><g id="Layer_2" data-name="Layer 2"><g id="Layer_1-2" data-name="Layer 1"><path class="cls-1" d="M3,4.1C13.36,4.1,28.16,0,34.77,0h.38c0,2.51-2.51,9.34-3.57,11.31-6.83-4.1-13.82-2.43-19.59-1-1.13,3.57-2.27,11.85-.6,15.11,3.87.76,9.11-.76,11.69-2.28l-.76,11.39c-3.8-3.8-7.29-2.43-11.24-1.9v1.6c0,8.57,1.22,16.17,5.32,24.59H3.49l.15-2.35C4.78,40.54,5,19,0,4,.91,4,1.9,4.1,3,4.1Z"/><path class="cls-1" d="M47.9,5.69c-1.59.31-2.43,47.07,1.83,51.47L38,59.74c2-4,1.67-45.09-1.52-51.77Z"/><path class="cls-1" d="M52.54,52.3c2.73-11.84,6.15-26.57,4.25-43.8h9C68,17.69,78.19,34.46,84.27,40c0-10.1-.76-24.75-.76-34.62V3.8a49.8,49.8,0,0,1,8.12-1.14c-2.43,17.76-.15,36.44.91,54.05h-7c-3.34-4.94-21.33-28.09-20.8-27.64-.68,11-2.05,15-1,25.51Z"/><path class="cls-1" d="M97.71,51.77l4.33-.6c.22-4.48.6-33.79-1-37.05H94l.38-6.3,2.12-.46c8.43-1.82,17.46-3.79,26-1.59a21.6,21.6,0,0,1,16.32,20.72c0,21.94-16.24,34.24-37.12,34.24a16.19,16.19,0,0,1-3.41-.38Zm12.22-1.21c14.8,0,19.43-16.32,19.43-25.21,0-7.66-5.77-11.84-13.81-11.84-2.58,0-4.25.08-7.14.31v9.49c0,9.18.08,17.76.31,27.25Z"/><path class="cls-1" d="M179.47,41.45,174.69,61l-8.51-2.28c3-6.45,7.22-29.07,6.38-44l-3.26.46L167.63,7.9c0-.23,4-.92,32.49-4.33l1.21,5.77-4.7,1c-.16,5.47,1.21,33.48,8.65,48.21l-10,1.82-4.1-20.42Zm.53-9.26c1.21.3,8.5-.61,9.72-.76v-.31c0-5.54-.38-10.93-.38-16.62a64,64,0,0,0-8.73.91,2.66,2.66,0,0,0-.84.23Z"/><path class="cls-1" d="M240.66,38.49c3,0,8.27,1.82,8.27,5.69,0,3.34-2.73,5.24-5.84,3.65,0,3.79,4.33,6.45,8.35,6.45,5.16,0,11.23-3,11.23-8.81,0-16.62-27.17-8.35-27.17-23.23,0-12.07,10.09-16.62,19.81-16.62,4.48,0,15.18,2.2,15.18,8.2,0,4.1-2.81,7.51-7.13,7.51-2.13,0-4.86-1.14-4.86-3.49,0-1.82,1.82-2.66,1.82-4.4,0-2.2-5.24-2.66-6.53-2.66-3.79,0-7.82,1.67-7.82,6,0,12.75,24.75,4.4,26.8,21a15.35,15.35,0,0,1,.15,1.9c0,11.62-13.89,18.07-24.29,18.07-6.6,0-16-3.57-16-11.46C232.61,41.6,236,38.49,240.66,38.49Z"/><path class="cls-1" d="M273.08,16.09a37.4,37.4,0,0,1-1.14-11c7.74,1.74,44.94-1.67,44.79-3.42l.45,7.82c-5.24.91-14.8,1.75-19.28,3.34,0,1-.08,2.13-.08,3.34,0,11.61,1.45,33.33,6.15,42.28H292.28c-.3-11.69.91-31.65-4.4-44Z"/><path class="cls-1" d="M325.54,9.49c15.25,0,20.72,12.83,19.88,24.14C344.67,43.73,338.06,54,324.7,54c-.61,0-3.49-.07-4.1-.07-11.84-3-16.93-13.59-16.17-23.69S312.63,9.49,325.54,9.49Zm.75,38.94c7.37,0,8.51-9.33,8.81-13.66.46-5.92-.15-19.28-10-19.28-7.82,0-9.34,8.8-9.64,13.74C314.91,35.75,315.59,48.43,326.29,48.43Z"/><path class="cls-1" d="M356.51,36.67v1.44A59,59,0,0,0,358.41,54c.91,1.9,1.9,3.72,2.88,5.55l-15.56-.31c4.25-10.55,3.34-22.16,3.34-33.32-.07-.46-.07-.84-.15-1.29-.68-7.82-1.44-15.87-5.09-22.93H361.6c9.18,0,18.07,7,18.29,16.7v.38c0,7.14-6.15,12.45-12.37,14.88,4.33,2.28,7.59,6,10.7,9.72C388.7,55.64,393,77.58,412,79.25c4.79.15,15.64.08,16.48-6.6v-.46c-2.89-.3-6.84-1.59-6.84-5v-.53c0-2.88,3.34-4.4,5.85-3.79,4.18.22,7.29,4.25,7.29,8.27v.3c0,10.48-16.32,12.38-24.9,12.38h-.53c-24.07-.15-31.35-26.65-43.73-42.29-2.05-2.58-4.71-5.31-8.2-5.61C356.82,35.75,356.66,36.21,356.51,36.67Zm5-29c-1.67.15-4.48-.23-5,1.89V30.9a10.94,10.94,0,0,0,2.2.22c6.61,0,12.22-5.92,12.45-12.75v-.61c0-4.85-3.49-10.09-8.65-10.09h-1Z"/><path class="cls-1" d="M391.81,11.54l-.22-3.11-.16-2.36A176.81,176.81,0,0,0,418.76,4l-.6,9h-.69c-5.54,0-13.74-.45-16.39.23-.31,1.14-1,6.6-1.14,7.82a27.71,27.71,0,0,0-.15,3.19A24.28,24.28,0,0,0,415,23.76l.45,7.9c-5.23-1.6-10.55-.69-15.25.53-1.68,3.26-.46,13.81.68,17.38h1.21c6.45,0,19.36-1.06,24.22-4l-.84,9.72c-9.49,0-26.49,2.13-36,2.13C394.17,43.42,393,26.72,391.81,11.54Z"/></g></g></svg>