<svg xmlns="http://www.w3.org/2000/svg" viewBox="0 0 447.94 55.84"><defs><style>.cls-1{fill:#516f3c;}</style></defs><title>Asset 48</title><g id="Layer_2" data-name="Layer 2"><g id="Layer_1-2" data-name="Layer 1"><path class="cls-1" d="M0,54.71Q1.14,41.42,1.14,28.15T0,1.59C11.88,1.59,18,0,25.8,0,37.68,0,43.58,9.08,43.58,18.92c0,14.22-10.06,19.82-19,19.82a17.11,17.11,0,0,1-10.14-3c.15,6.36.53,12.64,1.06,19ZM28.07,18.92C28.07,9.76,26,2.8,18.46,2.8a14.47,14.47,0,0,0-3,.3c-.75,8.7-1.13,17.86-1.06,24.59.08,5.91,2.42,8,5.07,8C23.38,35.64,28.07,31.25,28.07,18.92Z"/><path class="cls-1" d="M47.59,54.71a196.92,196.92,0,0,0,1.82-27.54c0-8.93-.53-19.22-1.82-25.58C57,1.59,65.83,0,72.49,0,83.08,0,89.21,6.13,89.21,12.33c0,6.36-6.43,12.72-18.08,12.72v.37c12.1,2.73,19.59,8.1,19.59,29.29H75c0-10.52-1.52-17-3.49-21.42-3.1-7.18-7.18-8.85-7.18-13.24,0-3.33,2.27-4.61,3.78-4.61,1.82,0,2.5,1.13,2.5,2.11s-.53,1.9-1.44,1.9c-2,0-3.1,1.06-3.1,2s.9,1.74,2.64,1.74c3.79,0,7.57-3.55,7.57-10.89,0-6.21-3.48-9.38-9.15-9.38a19.77,19.77,0,0,0-4,.45C62.35,11.5,62,19.9,62,29.06c0,8.85.38,17.7,1.14,25.65Z"/><path class="cls-1" d="M92.46,28.07C92.46,9.38,106.38,0,120.46,0c13.85,0,27.85,9.31,27.85,28s-14,27.84-27.93,27.84S92.46,46.61,92.46,28.07Zm41.39,6.06c0-14.53-6.13-31.86-16.87-31.86-7,0-10.29,9.31-10.29,20,0,14.45,6,31.32,17,31.32C130.6,53.57,133.85,44.57,133.85,34.13Z"/><path class="cls-1" d="M151.78,54.71c3.11-13.85,3-35.42,1.52-53.12h16.19c.6,11.5,4.31,24.29,10,36.47,6.13-12.79,10.14-24.59,10.14-36.47h15.21c-1.52,10.06-1.52,35.41,0,53.12H189.31a249.92,249.92,0,0,0,.08-32.84q-7,16.46-12.48,32.84h-5.07C167.9,42.07,162.91,23.38,156.78,9c-.61,13.47,1.43,34.28,5.22,45.71Z"/><path class="cls-1" d="M209.82,28.07c0-18.69,13.92-28.07,28-28.07,13.85,0,27.85,9.31,27.85,28s-14,27.84-27.92,27.84S209.82,46.61,209.82,28.07Zm41.39,6.06c0-14.53-6.13-31.86-16.88-31.86-7,0-10.29,9.31-10.29,20,0,14.45,6,31.32,17,31.32C248,53.57,251.21,44.57,251.21,34.13Z"/><path class="cls-1" d="M284.8,54.78c1.06-12,2.12-24,2.12-36,0-5-.15-9.92-.6-14.91H281.7c-3.18,0-5.9,1.81-5.9,6.35,0,2.73,1.74,5.38,4.76,5.38,1.82,0,2.65-.68,2.65-1.29s-.68-1.06-2-1.06c-1.74,0-2.27-.75-2.27-1.51a1.51,1.51,0,0,1,1.66-1.52c1.9,0,3.41,1.9,3.41,4,0,4.38-3.93,6.65-8.1,6.65-4.69,0-9.68-2.95-9.68-9.23,0-4.84,3.71-10.06,12.48-10.06H306c8.78,0,12.49,5.22,12.49,10.06,0,6.28-5,9.23-9.69,9.23-4.16,0-8.1-2.27-8.1-6.65,0-2.12,1.52-4,3.41-4a1.51,1.51,0,0,1,1.66,1.52c0,.76-.53,1.51-2.27,1.51-1.36,0-2,.53-2,1.06s.83,1.29,2.65,1.29c3,0,4.76-2.65,4.76-5.38,0-4.54-2.72-6.35-5.9-6.35H298.8c-.45,5-.6,9.91-.6,14.91,0,12,1.06,24.06,2.11,36Z"/><path class="cls-1" d="M321.73,54.71a312,312,0,0,0,0-53.12h15.51a310,310,0,0,0,0,53.12Z"/><path class="cls-1" d="M342.23,28.07c0-18.69,13.92-28.07,28-28.07,13.84,0,27.84,9.31,27.84,28s-14,27.84-27.92,27.84S342.23,46.61,342.23,28.07Zm41.39,6.06c0-14.53-6.13-31.86-16.87-31.86-7,0-10.29,9.31-10.29,20,0,14.45,6,31.32,17,31.32C380.37,53.57,383.62,44.57,383.62,34.13Z"/><path class="cls-1" d="M400.79,54.71c3-17.71,2.27-35.42.76-53.12h16a492.18,492.18,0,0,0,26.25,47.75c.84-18-3.78-35.72-7.94-47.75h12.11c-3,13.62-2.27,35.41-.76,53.12h-16.8c-8.17-15.29-15.13-30.72-25.5-46-.76,16.42,2.27,36.4,8,46Z"/></g></g></svg>