<svg xmlns="http://www.w3.org/2000/svg" viewBox="0 0 244.02 55.84"><defs><style>.cls-1{fill:#eb5d60;}</style></defs><title>Asset 42</title><g id="Layer_2" data-name="Layer 2"><g id="Layer_1-2" data-name="Layer 1"><path class="cls-1" d="M6.28,54A30.21,30.21,0,0,0,0,54.71Q1.14,41.42,1.14,28.15T0,1.59C7.79,1.59,20,0,25.27,0,36.32,0,39,4.62,39,9.31s-3.32,9.38-10.51,9.38c-5.6,0-7.57-3-7.57-5.6,0-2.12,1.51-4,3.41-4A1.51,1.51,0,0,1,26,10.59c0,.76-.53,1.52-2.27,1.52-1.36,0-2,.53-2,1.06s.83,1.28,2.65,1.28a4.72,4.72,0,0,0,5.07-4.92c0-5-3.71-7-8.71-7a23.65,23.65,0,0,0-6.28.91c0,5.06,0,15.81-.07,22.47h2.27c5,0,11.42-.91,15.21-4.54V32.69c-3.79-3.63-10.22-4.54-15.21-4.54H14.38c0,8.1.38,16.42,1.13,24.52a44.39,44.39,0,0,0,6.81.68c4.32,0,8.4-1.21,8.4-6.13,0-2.65-1.66-5.15-5.45-5.15-1.81,0-2.64.68-2.64,1.29s.68,1.06,2,1.06c1.74,0,2.27.75,2.27,1.51a1.51,1.51,0,0,1-1.67,1.51c-1.89,0-3.4-1.89-3.4-4,0-4.69,4.46-7.18,9.23-7.18,6.66,0,10.44,4.46,10.44,9.15,0,5.07-4.54,10.44-14.9,10.44C18.39,55.84,12.64,54,6.28,54Z"/><path class="cls-1" d="M61.21,54.71C59.55,40.33,51,14.75,43.66,1.59H60.23C60.23,12,67.65,32.08,74.76,49c6.43-19.3,10.29-34.43,10.29-47.37h9.08C86.26,20.28,79.6,39,78.62,54.71Z"/><path class="cls-1" d="M103.51,54a30.21,30.21,0,0,0-6.28.68q1.14-13.29,1.13-26.56T97.23,1.59C105,1.59,117.21,0,122.5,0c11.05,0,13.77,4.62,13.77,9.31s-3.33,9.38-10.51,9.38c-5.6,0-7.57-3-7.57-5.6,0-2.12,1.51-4,3.4-4a1.52,1.52,0,0,1,1.67,1.51c0,.76-.53,1.52-2.27,1.52-1.36,0-2,.53-2,1.06s.83,1.28,2.64,1.28a4.72,4.72,0,0,0,5.07-4.92c0-5-3.7-7-8.7-7a23.59,23.59,0,0,0-6.28.91c0,5.06,0,15.81-.07,22.47h2.27c5,0,11.42-.91,15.21-4.54V32.69c-3.79-3.63-10.22-4.54-15.21-4.54h-2.27c0,8.1.37,16.42,1.13,24.52a44.39,44.39,0,0,0,6.81.68c4.31,0,8.4-1.21,8.4-6.13,0-2.65-1.66-5.15-5.45-5.15-1.81,0-2.65.68-2.65,1.29s.68,1.06,2.05,1.06c1.74,0,2.27.75,2.27,1.51a1.51,1.51,0,0,1-1.67,1.51c-1.89,0-3.4-1.89-3.4-4,0-4.69,4.46-7.18,9.23-7.18,6.66,0,10.44,4.46,10.44,9.15,0,5.07-4.54,10.44-14.91,10.44C115.62,55.84,109.87,54,103.51,54Z"/><path class="cls-1" d="M142,54.71c3-17.71,2.27-35.42.76-53.12h16A494.77,494.77,0,0,0,185,49.34c.83-18-3.78-35.72-7.94-47.75h12.1c-3,13.62-2.27,35.41-.75,53.12h-16.8c-8.17-15.29-15.14-30.72-25.5-46-.76,16.42,2.27,36.4,8,46Z"/><path class="cls-1" d="M210.35,54.78c1.06-12,2.12-24,2.12-36,0-5-.16-9.92-.61-14.91h-4.61c-3.18,0-5.91,1.81-5.91,6.35,0,2.73,1.74,5.38,4.77,5.38,1.82,0,2.65-.68,2.65-1.29s-.68-1.06-2-1.06c-1.74,0-2.27-.75-2.27-1.51a1.51,1.51,0,0,1,1.66-1.52c1.89,0,3.41,1.9,3.41,4,0,4.38-3.94,6.65-8.1,6.65-4.69,0-9.69-2.95-9.69-9.23,0-4.84,3.71-10.06,12.49-10.06h27.31c8.78,0,12.49,5.22,12.49,10.06,0,6.28-5,9.23-9.69,9.23-4.16,0-8.09-2.27-8.09-6.65,0-2.12,1.51-4,3.4-4a1.52,1.52,0,0,1,1.67,1.52c0,.76-.53,1.51-2.27,1.51-1.36,0-2,.53-2,1.06s.84,1.29,2.65,1.29c3,0,4.77-2.65,4.77-5.38,0-4.54-2.72-6.35-5.9-6.35h-4.16c-.46,5-.61,9.91-.61,14.91,0,12,1.06,24.06,2.12,36Z"/></g></g></svg>