<svg xmlns="http://www.w3.org/2000/svg" width="1920" height="1450.171" viewBox="0 0 1920 1450.171">
  <g id="그룹_6186" data-name="그룹 6186" transform="translate(4246.803 6862.692)">
    <rect id="사각형_2321" data-name="사각형 2321" width="1920" height="1450.171" transform="translate(-4246.803 -6862.692)" fill="#fff"/>
    <g id="그룹_6031" data-name="그룹 6031" transform="translate(-3012.209 -5717.054)">
      <g id="그룹_6025" data-name="그룹 6025" transform="translate(0 0)">
        <path id="패스_7128" data-name="패스 7128" d="M-1353.749-4152.922a18.25,18.25,0,0,1-1.706-3.209c-2.1-4.888,4-7.643,4-7.643s-.691-.625-.83-4.5,1.115-5.491,2.89-8.437,7.236-5.958,10.411-5.831,6.536.6,9.6,6.374.993,8.644-.61,12.236-6.142,5.127-6.142,5.127a10.745,10.745,0,0,1,.821,3.762c.07,3.447-4.607,6.278-4.607,6.278,1.015,2.967-.2,5.418-1.239,7.274a5.486,5.486,0,0,1-4.3,2.7,5.86,5.86,0,0,1-1.253,5.513c-3.661,4.1-6.425.683-6.454.643a.973.973,0,0,1-.064-.119c-1.362.523-4.453.37-5.18-3.34-.762-3.888,1.9-6.862,2.371-7.347-1.282-2.946-.429-4.9-.318-5.106a7.508,7.508,0,0,1,2.606-4.377Z" transform="translate(1358.543 4182.542)" fill="#c07136"/>
      </g>
      <g id="그룹_6026" data-name="그룹 6026" transform="translate(7.088 18.767)">
        <path id="패스_7129" data-name="패스 7129" d="M-1341.961-4138.636a10.339,10.339,0,0,0,4.465,5.719,22.094,22.094,0,0,1,4.645,3.776c1.13,1.266,1.532,2.867,2.144,4.468a2.471,2.471,0,0,1,.28,1.049l1.108-.78c.338-.241-.527-1.72-.655-1.976a12.655,12.655,0,0,0-1.869-2.926,28.893,28.893,0,0,0-4.676-3.715,11.872,11.872,0,0,1-1.888-1.554,10.825,10.825,0,0,1-1.316-1.813,7.128,7.128,0,0,0-1.541-1.363A3.7,3.7,0,0,1-1341.961-4138.636Z" transform="translate(1341.961 4138.636)" fill="#9c5e2e"/>
      </g>
      <g id="그룹_6027" data-name="그룹 6027" transform="translate(15.011 11.707)">
        <path id="패스_7130" data-name="패스 7130" d="M-1316.03-4143.12s-1.649-6.014-5.173-7.946-1.8-4.087-1.8-4.087l.172,1.16c.223.8,3.588,3.057,4.325,3.972,1.026,1.271,2.979,5.625,2.9,6.742Z" transform="translate(1323.427 4155.154)" fill="#9c5e2e"/>
      </g>
      <g id="그룹_6028" data-name="그룹 6028" transform="translate(17.332 10.495)">
        <path id="패스_7131" data-name="패스 7131" d="M-1316.077-4157.99s.137,1.383-.415,1.94-1.847,1.27-1.42,2.507.512.842.512.842-.708-.368.343-1.6S-1315.621-4155.566-1316.077-4157.99Z" transform="translate(1317.996 4157.99)" fill="#9c5e2e"/>
      </g>
      <g id="그룹_6029" data-name="그룹 6029" transform="translate(4.227 29.619)">
        <path id="패스_7132" data-name="패스 7132" d="M-1348.655-4112.671s6.669,1.422,6.575,5.087,2.52,3.969,2.286,8.468h0a3.9,3.9,0,0,0,.118-2.811c-1.372-3.237-1.953-5.106-1.915-5.636.063-.866-.589-4.441-6.5-5.686Z" transform="translate(1348.655 4113.249)" fill="#9c5e2e"/>
      </g>
      <g id="그룹_6030" data-name="그룹 6030" transform="translate(2.507 39.103)">
        <path id="패스_7133" data-name="패스 7133" d="M-1352.678-4091.062s2.808,3.63,4.039,5.223a3.574,3.574,0,0,1-1.229,5.463,3.348,3.348,0,0,0,2.759-1.872c.672-1.73-1.022-4.79-2.943-6.311A16.54,16.54,0,0,1-1352.678-4091.062Z" transform="translate(1352.678 4091.062)" fill="#9c5e2e"/>
      </g>
    </g>
    <g id="그룹_6037" data-name="그룹 6037" transform="translate(-2443.822 -5709.573)">
      <g id="그룹_6032" data-name="그룹 6032" transform="translate(2.684 4.374)">
        <path id="패스_7134" data-name="패스 7134" d="M5.536-4129.048a14.267,14.267,0,0,1-4.479,3.711,15.589,15.589,0,0,1-3.485,1.278,15.654,15.654,0,0,1-4.564.679,15.511,15.511,0,0,1-5.574-1.034,15.6,15.6,0,0,1-3.525-1.912,11.421,11.421,0,0,1-3.335-3.261,14.5,14.5,0,0,1-2.39-4.626,15.668,15.668,0,0,1-.739-4.989,14.21,14.21,0,0,1,.6-5.249,14.423,14.423,0,0,1,1.788-3.344,20.057,20.057,0,0,1,2.921-3.256,14.8,14.8,0,0,1,3.982-2.75,11.915,11.915,0,0,1,4.525-1,23.933,23.933,0,0,1,5.606.745,15.779,15.779,0,0,1,5.431,2.236,17.784,17.784,0,0,1,4.926,5.463,14.413,14.413,0,0,1,1.68,4.96,15.6,15.6,0,0,1-.165,3.837,15.993,15.993,0,0,1-1.439,5.435A9.427,9.427,0,0,1,5.536-4129.048Z" transform="translate(22.557 4154.807)" fill="#f1b756"/>
      </g>
      <g id="그룹_6033" data-name="그룹 6033" transform="translate(0.49 4.058)">
        <path id="패스_7135" data-name="패스 7135" d="M3.749-4132.426a14.76,14.76,0,0,1-3.624,4.808,16.1,16.1,0,0,1-3.2,2.12,16.247,16.247,0,0,1-4.433,1.775,16.05,16.05,0,0,1-5.861.291,16.124,16.124,0,0,1-4.007-1.082A11.808,11.808,0,0,1-21.518-4127a15,15,0,0,1-3.514-4.087,16.219,16.219,0,0,1-1.937-4.848,14.723,14.723,0,0,1-.646-5.43,14.924,14.924,0,0,1,1-3.795,20.779,20.779,0,0,1,2.163-3.977,15.287,15.287,0,0,1,3.353-3.722,12.321,12.321,0,0,1,4.317-2.093,24.756,24.756,0,0,1,5.824-.589,16.308,16.308,0,0,1,6,.953,18.406,18.406,0,0,1,6.266,4.323,14.962,14.962,0,0,1,2.878,4.594,16.184,16.184,0,0,1,.751,3.9,16.556,16.556,0,0,1-.15,5.817A9.744,9.744,0,0,1,3.749-4132.426Z" transform="translate(27.69 4155.546)" fill="#fff083"/>
      </g>
      <g id="그룹_6034" data-name="그룹 6034" transform="translate(0 3.958)">
        <path id="패스_7136" data-name="패스 7136" d="M1.841-4132.438a14.544,14.544,0,0,1-3.745,4.6,15.9,15.9,0,0,1-3.232,1.97,15.988,15.988,0,0,1-4.431,1.585,15.83,15.83,0,0,1-5.783.072,15.9,15.9,0,0,1-3.906-1.213,11.658,11.658,0,0,1-3.983-2.6,14.8,14.8,0,0,1-3.31-4.154,16.006,16.006,0,0,1-1.729-4.845,14.5,14.5,0,0,1-.436-5.371,14.669,14.669,0,0,1,1.125-3.7,20.391,20.391,0,0,1,2.277-3.837,15.059,15.059,0,0,1,3.438-3.542,12.157,12.157,0,0,1,4.328-1.9,24.418,24.418,0,0,1,5.756-.366,16.052,16.052,0,0,1,5.878,1.159A18.143,18.143,0,0,1,.1-4150.1a14.721,14.721,0,0,1,2.665,4.63,15.877,15.877,0,0,1,.6,3.872A16.309,16.309,0,0,1,3-4135.871,9.6,9.6,0,0,1,1.841-4132.438Z" transform="translate(28.837 4155.78)" fill="#f1b756"/>
      </g>
      <g id="그룹_6035" data-name="그룹 6035" transform="translate(16.311 0.053)">
        <path id="패스_7137" data-name="패스 7137" d="M20.851-4156.826c-.356.861-1.117.643-2.2.646a11.667,11.667,0,0,1-4.535-.928,20.71,20.71,0,0,1-2.277-1.09,6.271,6.271,0,0,1-2.186-2.021,1.767,1.767,0,0,1-.168-1.792,3.317,3.317,0,0,1,.755-1.069,4.016,4.016,0,0,1,1.652-.891,8.257,8.257,0,0,1,2.737-.922,6.322,6.322,0,0,1,2.688.266,11.074,11.074,0,0,1,2.591,2.084c.665.577.685,1.18,1,1.814a7.871,7.871,0,0,1,.314,1.676A4.018,4.018,0,0,1,20.851-4156.826Z" transform="translate(-9.321 4164.917)" fill="#fff"/>
      </g>
      <g id="그룹_6036" data-name="그룹 6036" transform="translate(16.256 0)">
        <path id="패스_7138" data-name="패스 7138" d="M14.027-4157.128a20.907,20.907,0,0,1-2.283-1.092,6.343,6.343,0,0,1-2.2-2.038,1.81,1.81,0,0,1-.172-1.841,3.4,3.4,0,0,1,.765-1.086,3.916,3.916,0,0,1,1.608-.88l.065-.023c.232-.086.462-.194.705-.31a5.233,5.233,0,0,1,2.048-.617,6.316,6.316,0,0,1,2.712.271,7.452,7.452,0,0,1,2.067,1.587c.195.189.379.368.538.505a2.652,2.652,0,0,1,.786,1.277,5.217,5.217,0,0,0,.223.554,4.527,4.527,0,0,1,.258,1.245c.02.169.039.329.06.445a4.075,4.075,0,0,1-.374,2.255c-.306.741-.919.719-1.695.692-.175-.006-.356-.013-.549-.012A11.775,11.775,0,0,1,14.027-4157.128Zm3.2-7.519a6.256,6.256,0,0,0-2.666-.262,5.067,5.067,0,0,0-2.007.607c-.245.116-.477.225-.714.312l-.064.023a3.846,3.846,0,0,0-1.568.854,3.3,3.3,0,0,0-.744,1.053,1.713,1.713,0,0,0,.164,1.742,6.222,6.222,0,0,0,2.167,2,20.634,20.634,0,0,0,2.271,1.087,11.677,11.677,0,0,0,4.515.924c.2,0,.377.006.554.012.792.028,1.315.046,1.593-.626a3.977,3.977,0,0,0,.367-2.195c-.022-.12-.041-.281-.061-.451a4.477,4.477,0,0,0-.248-1.211,5.4,5.4,0,0,1-.227-.565,2.571,2.571,0,0,0-.756-1.232c-.16-.139-.345-.319-.542-.509A7.4,7.4,0,0,0,17.229-4164.647Z" transform="translate(-9.193 4165.04)" fill="#d8d8d8"/>
      </g>
    </g>
    <g id="그룹_6049" data-name="그룹 6049" transform="translate(-2727.891 -5515.186)">
      <g id="그룹_6039" data-name="그룹 6039" transform="translate(0.802 0.771)">
        <g id="그룹_6038" data-name="그룹 6038">
          <path id="패스_7139" data-name="패스 7139" d="M-653.3-3702.711c-3.709-3.735-9.429-5.72-15.072-5.767-3.443-.028-8.524.457-11.444,1.832-7.477,3.521-11.639,11.347-11.711,20.164a20.051,20.051,0,0,0,4.784,13.949c4.032,4.721,9.6,8.8,16.3,8.852,6.13.051,13.382-2.256,17.432-6.24s5.823-9.021,5.873-15.152C-647.081-3691.689-648.946-3698.332-653.3-3702.711Zm-9.91,21.1a6.95,6.95,0,0,1-4.525,3.2,8.947,8.947,0,0,1-6.132-1.51,7.626,7.626,0,0,1-2.966-5.589,6.84,6.84,0,0,1,1.268-4.868,7.4,7.4,0,0,1,7.13-3.526,10.5,10.5,0,0,1,3.6,1.636,7.422,7.422,0,0,1,3.2,4.48A8.416,8.416,0,0,1-663.206-3681.61Z" transform="translate(691.523 3708.479)" fill="#f1b756"/>
        </g>
      </g>
      <g id="그룹_6041" data-name="그룹 6041" transform="translate(0.928 1.334)">
        <g id="그룹_6040" data-name="그룹 6040">
          <path id="패스_7140" data-name="패스 7140" d="M-647.1-3685.39l-.2-.715c-.207-.724-.824-1.163-.21-2.229l.067-.742a6.092,6.092,0,0,0-1.212-4.231l-.45-.593a6.089,6.089,0,0,1-1-2l-.2-.715a6.094,6.094,0,0,0-2.659-3.508l-.633-.391a6.089,6.089,0,0,1-1.658-1.505l-.449-.593a4.852,4.852,0,0,0-3.236-2.193l-1.088.059a3.216,3.216,0,0,1-2.243-1.117l-.634-.391a6.093,6.093,0,0,0-4.328-.8l-.731.138a6.074,6.074,0,0,1-2.239,0l-.731-.135a6.091,6.091,0,0,0-4.325.816l-.632.393a6.093,6.093,0,0,1-2.086.813l-.731.138c-1.492.281-3.229.068-4.142,1.281l-.609,1.656c-.453.6-.447,1.094-1.086,1.492l-.632.393c-1.153.717-1.236,1.361-1.536,2.534a1.715,1.715,0,0,1-.418.756l-.588.62a1.946,1.946,0,0,0-.424.692,6.11,6.11,0,0,1-.878,1.638l-.448.594a6.089,6.089,0,0,0-1.2,4.236l.069.741a6.086,6.086,0,0,1-.2,2.23l-.2.716a5.028,5.028,0,0,0,.395,3.834,1.724,1.724,0,0,1,.115.309l.142.544a4.551,4.551,0,0,0,.231.653,6.085,6.085,0,0,1,.48,1.861l.07.741a6.1,6.1,0,0,0,1.969,3.936l.551.5a6.091,6.091,0,0,1,1.352,1.784l.333.666a6.092,6.092,0,0,0,3.258,2.959l.695.268c.7.271,1.219.057,1.776.563l.76.773a6.271,6.271,0,0,0,4.027,1.922l.744,0a6.089,6.089,0,0,1,2.2.407l.695.268a6.1,6.1,0,0,0,3.844.179,1.666,1.666,0,0,0,.866-.592l.427-.561a.816.816,0,0,1,1.065-.212,2.19,2.19,0,0,0,1.092.491l.744,0a6.092,6.092,0,0,0,4.1-1.6l.549-.5a6.084,6.084,0,0,1,1.9-1.182l.693-.27a6.093,6.093,0,0,0,3.247-2.971l.33-.667c.335-.674.76-.732,1.315-1.24l.581-.47a.916.916,0,0,1,.57-.208c2.375-.009,1.252-2.863,1.384-4.317l.067-.741a6.084,6.084,0,0,1,.609-2.155l.33-.666A6.092,6.092,0,0,0-647.1-3685.39Zm-13.752,2.7-.153.254a2.434,2.434,0,0,0-.312.834l-.051.292a2.43,2.43,0,0,1-.9,1.5l-.235.181a2.432,2.432,0,0,0-.592.666l-.153.253a2.426,2.426,0,0,1-1.386,1.072l-.284.085a1.281,1.281,0,0,0-.927.369l-.271.338a1.931,1.931,0,0,1-1.509.378l-.3-.024a2.42,2.42,0,0,0-.886.093l-.284.084a2.426,2.426,0,0,1-1.746-.142l-.267-.129a2.413,2.413,0,0,0-.859-.234l-.3-.024a2.428,2.428,0,0,1-1.577-.763l-.2-.217c-.154-.465-.448-.4-.718-.529l-.266-.129a2.428,2.428,0,0,1-1.2-1.281l-.11-.275a2.439,2.439,0,0,0-.478-.752l-.2-.216c-.4-.425-1.541-.849-.914-1.556a.366.366,0,0,0,.09-.225l.015-.3c0-.3.092-.441-.019-.719l-.11-.275a2.423,2.423,0,0,1-.02-1.751l.1-.277a2.413,2.413,0,0,0,.154-.878l0-.3a2.425,2.425,0,0,1,.615-1.64l.2-.221a.863.863,0,0,1,.435-.193.325.325,0,0,0,.22-.372l-.053-.276a.665.665,0,0,1,.054-.414,2.421,2.421,0,0,1,1.073-1.093l.263-.136a2.427,2.427,0,0,0,.705-.545l.2-.221a2.5,2.5,0,0,1,1.638-.685l.431-.021c.3-.031.372-.241.639-.377l.263-.135a2.426,2.426,0,0,1,1.743-.181l.286.077a2.441,2.441,0,0,0,.888.072l.294-.031a2.428,2.428,0,0,1,1.69.46l.239.176a2.414,2.414,0,0,0,.679.351,1.837,1.837,0,0,1,.255.1l.2.1a.674.674,0,0,0,.122.048,2,2,0,0,1,1.242.9l.159.25a2.418,2.418,0,0,0,.608.652l.239.176a2.424,2.424,0,0,1,.939,1.479l.058.29a2.425,2.425,0,0,0,.253.695.778.778,0,0,1,.093.309l.028.339a.683.683,0,0,0,.114.325,1.277,1.277,0,0,1,.344,1.127l-.051.292c-.052.295.1.424.154.718l.33.62C-660.017-3683.667-660.542-3683.208-660.854-3682.691Z" transform="translate(691.227 3707.162)" fill="#ffe9ca"/>
        </g>
      </g>
      <g id="그룹_6048" data-name="그룹 6048" transform="translate(0 0)">
        <g id="그룹_6045" data-name="그룹 6045" transform="translate(17.06 3.902)">
          <g id="그룹_6042" data-name="그룹 6042">
            <path id="패스_7141" data-name="패스 7141" d="M-626.362-3691.462a.877.877,0,0,0-1.2-.331l-10.413,5.9c.934-.891,1.921-1.819,2.8-2.642,1.615-1.518,3.285-3.087,4.49-4.283.66-.654,1.138-1.154,1.462-1.528.389-.449.921-1.063.549-1.719a.875.875,0,0,0-.575-.424.877.877,0,0,0-.7.144c-.03.022-3.026,2.174-6.269,4.282-2.369,1.54-4.006,2.5-5.134,3.092,1.455-1.512,3.388-3.556,5.022-5.486,3.345-3.952,3.694-5.357,3.187-6.25a.875.875,0,0,0-.572-.424.875.875,0,0,0-.7.14c-.039.027-3.946,2.788-8.134,5.479-7.091,4.557-9.041,5.1-9.521,5.149a.878.878,0,0,0-.979-.077.877.877,0,0,0-.33,1.2,1.251,1.251,0,0,0,.833.6c.572.127,1.557.045,4.518-1.535,1.652-.882,3.767-2.148,6.287-3.764,2.176-1.4,4.288-2.818,5.842-3.882-.478.662-1.149,1.516-2.09,2.611-1.911,2.222-4.185,4.573-5.544,5.978l-.594.616a2.971,2.971,0,0,1,.9.639,3.007,3.007,0,0,1,1.128.922c.062.049.123.1.181.152.045.032.089.066.132.1.4-.178.867-.405,1.419-.7,1.14-.608,2.551-1.448,4.2-2.5l-.209.2c-1.574,1.48-3.2,3-4.443,4.233.038.082.073.167.1.253a3.247,3.247,0,0,1,.335.707,3.291,3.291,0,0,1,.627,1.753l13.059-7.4A.877.877,0,0,0-626.362-3691.462Z" transform="translate(653.489 3701.154)" fill="#562c0c"/>
          </g>
          <g id="그룹_6043" data-name="그룹 6043" transform="translate(1.639 11.042)">
            <path id="패스_7142" data-name="패스 7142" d="M-649.654-3675.322h0Z" transform="translate(649.654 3675.322)" fill="#562c0c"/>
          </g>
          <g id="그룹_6044" data-name="그룹 6044" transform="translate(18.778 1.18)">
            <path id="패스_7143" data-name="패스 7143" d="M-609.558-3698.394Z" transform="translate(609.558 3698.394)" fill="#562c0c"/>
          </g>
        </g>
        <g id="그룹_6047" data-name="그룹 6047">
          <g id="그룹_6046" data-name="그룹 6046">
            <path id="패스_7144" data-name="패스 7144" d="M-657.373-3707.4a1.5,1.5,0,0,0-1-.722c-1.078-.255-3.412.115-11.957,5.287-5.29,3.2-11.381,7.282-15.828,10.261l-1.417.948q1.311-1.036,3.022-2.289c4.052-2.969,9.12-6.371,13.192-9.1,2.28-1.53,4.249-2.852,5.66-3.84.758-.531,1.3-.931,1.673-1.224a5.5,5.5,0,0,0,.5-.434.978.978,0,0,0,.247-1.228,1.043,1.043,0,0,0-.658-.494c-.616-.157-1.661-.012-7.592,3.448-3.562,2.078-7.884,4.765-11.7,7.137-1.605,1-3.232,2.01-4.64,2.873,1.773-1.853,3.96-4.07,5.574-5.706,1.218-1.235,2.27-2.3,3.045-3.1.417-.43.719-.75.925-.975.354-.388.756-.829.427-1.411a.879.879,0,0,0-.532-.414c-.352-.1-.565.021-.954.235-.186.1-.45.25-.765.427-.553.311-1.319.746-2.278,1.293-1.65.94-3.294,1.882-3.294,1.882a.877.877,0,0,0-.324,1.2.877.877,0,0,0,1.2.325l1.437-.823-.133.135c-1.971,2-4.206,4.265-5.955,6.106-.963,1.013-1.668,1.782-2.159,2.35-.71.823-1.222,1.418-.849,2.074a.909.909,0,0,0,.564.43c.38.1.707-.029,1.5-.457.469-.254,1.118-.63,1.983-1.15,1.611-.968,3.822-2.343,6.163-3.8,2.286-1.422,4.763-2.962,7.144-4.414-3.731,2.515-7.834,5.319-11.165,7.792a58.2,58.2,0,0,0-5.162,4.189c-1.257,1.194-2.337,2.446-1.736,3.507a.9.9,0,0,0,.575.43c.435.1.7.009,2.721-1.3,1.194-.773,2.841-1.877,4.749-3.156,4.489-3.007,10.636-7.125,15.932-10.322,1.75-1.056,3.308-1.952,4.66-2.678-3.256,1.995-7.438,4.618-11.52,7.358a120.755,120.755,0,0,0-11.558,8.563c-3.8,3.314-5.105,5.474-4.238,7a.9.9,0,0,0,.542.42.916.916,0,0,0,.228.032,2.673,2.673,0,0,0,1.127-.423c.406-.21.98-.521,1.708-.926,1.215-.677,2.882-1.626,4.953-2.823s4.155-2.415,5.517-3.213a2.64,2.64,0,0,1,.272-1.166c0-.045-.007-.092-.008-.137a2.314,2.314,0,0,1,.19-1c-4.031,2.373-9.98,5.83-12.651,7.287a18.093,18.093,0,0,1,3.512-3.734,118.828,118.828,0,0,1,11.378-8.427c8.458-5.677,17.356-10.86,17.445-10.912A.876.876,0,0,0-657.373-3707.4Z" transform="translate(693.399 3710.283)" fill="#562c0c"/>
          </g>
        </g>
      </g>
    </g>
    <g id="그룹_6056" data-name="그룹 6056" transform="translate(-3853.492 -5518.036)">
      <g id="그룹_6050" data-name="그룹 6050">
        <path id="패스_7145" data-name="패스 7145" d="M-3321.882-3687.33a18.292,18.292,0,0,1-1.706-3.209c-2.1-4.889,4-7.643,4-7.643s-.691-.625-.83-4.5,1.116-5.49,2.89-8.438,7.237-5.958,10.411-5.83,6.536.594,9.6,6.374.993,8.644-.61,12.237-6.142,5.126-6.142,5.126a10.766,10.766,0,0,1,.821,3.762c.07,3.447-4.607,6.278-4.607,6.278,1.015,2.967-.2,5.417-1.239,7.275a5.485,5.485,0,0,1-4.3,2.7,5.863,5.863,0,0,1-1.252,5.512c-3.661,4.1-6.426.683-6.454.643a.938.938,0,0,1-.064-.118c-1.362.523-4.453.37-5.18-3.34-.762-3.889,1.9-6.862,2.371-7.347-1.282-2.946-.429-4.9-.318-5.107a7.5,7.5,0,0,1,2.605-4.377Z" transform="translate(3326.676 3716.949)" fill="#c07136"/>
      </g>
      <g id="그룹_6051" data-name="그룹 6051" transform="translate(7.088 18.767)">
        <path id="패스_7146" data-name="패스 7146" d="M-3310.094-3673.044a10.337,10.337,0,0,0,4.465,5.719,22.137,22.137,0,0,1,4.645,3.776c1.13,1.266,1.532,2.867,2.144,4.468a2.468,2.468,0,0,1,.28,1.049l1.107-.782c.338-.24-.527-1.719-.655-1.975a12.672,12.672,0,0,0-1.869-2.926,28.9,28.9,0,0,0-4.676-3.716,11.8,11.8,0,0,1-1.888-1.553,10.8,10.8,0,0,1-1.316-1.814,7.151,7.151,0,0,0-1.541-1.362A3.7,3.7,0,0,1-3310.094-3673.044Z" transform="translate(3310.094 3673.044)" fill="#9c5e2e"/>
      </g>
      <g id="그룹_6052" data-name="그룹 6052" transform="translate(15.011 11.707)">
        <path id="패스_7147" data-name="패스 7147" d="M-3284.163-3677.528s-1.649-6.013-5.173-7.947-1.8-4.087-1.8-4.087l.172,1.16c.222.8,3.588,3.057,4.325,3.971,1.026,1.272,2.979,5.625,2.9,6.742Z" transform="translate(3291.56 3689.562)" fill="#9c5e2e"/>
      </g>
      <g id="그룹_6053" data-name="그룹 6053" transform="translate(17.332 10.495)">
        <path id="패스_7148" data-name="패스 7148" d="M-3284.21-3692.4s.137,1.382-.415,1.94-1.847,1.269-1.42,2.507.512.842.512.842-.708-.368.343-1.6S-3283.754-3689.974-3284.21-3692.4Z" transform="translate(3286.129 3692.398)" fill="#9c5e2e"/>
      </g>
      <g id="그룹_6054" data-name="그룹 6054" transform="translate(4.226 29.619)">
        <path id="패스_7149" data-name="패스 7149" d="M-3316.789-3647.079s6.669,1.423,6.575,5.088,2.519,3.969,2.286,8.468h0a3.9,3.9,0,0,0,.118-2.811c-1.373-3.238-1.954-5.106-1.915-5.636.063-.866-.589-4.442-6.5-5.686Z" transform="translate(3316.789 3647.657)" fill="#9c5e2e"/>
      </g>
      <g id="그룹_6055" data-name="그룹 6055" transform="translate(2.507 39.103)">
        <path id="패스_7150" data-name="패스 7150" d="M-3320.811-3625.47l4.039,5.223a3.574,3.574,0,0,1-1.229,5.463,3.348,3.348,0,0,0,2.759-1.873c.672-1.73-1.022-4.79-2.943-6.31A16.527,16.527,0,0,1-3320.811-3625.47Z" transform="translate(3320.811 3625.47)" fill="#9c5e2e"/>
      </g>
    </g>
    <g id="그룹_6062" data-name="그룹 6062" transform="translate(-3307.958 -5510.555)">
      <g id="그룹_6057" data-name="그룹 6057" transform="translate(2.684 4.374)">
        <path id="패스_7151" data-name="패스 7151" d="M-2016.06-3663.456a14.271,14.271,0,0,1-4.479,3.711,15.583,15.583,0,0,1-3.484,1.278,15.692,15.692,0,0,1-4.564.679,15.508,15.508,0,0,1-5.574-1.034,15.608,15.608,0,0,1-3.526-1.912,11.424,11.424,0,0,1-3.335-3.261,14.517,14.517,0,0,1-2.39-4.626,15.666,15.666,0,0,1-.739-4.989,14.208,14.208,0,0,1,.6-5.249,14.41,14.41,0,0,1,1.788-3.344,20.039,20.039,0,0,1,2.921-3.256,14.778,14.778,0,0,1,3.982-2.75,11.9,11.9,0,0,1,4.525-1,23.887,23.887,0,0,1,5.606.745,15.743,15.743,0,0,1,5.432,2.236,17.8,17.8,0,0,1,4.926,5.462,14.441,14.441,0,0,1,1.68,4.96,15.644,15.644,0,0,1-.165,3.838,16,16,0,0,1-1.44,5.434A9.419,9.419,0,0,1-2016.06-3663.456Z" transform="translate(2044.152 3689.215)" fill="#f1b756"/>
      </g>
      <g id="그룹_6058" data-name="그룹 6058" transform="translate(0.49 4.058)">
        <path id="패스_7152" data-name="패스 7152" d="M-2017.847-3666.834a14.78,14.78,0,0,1-3.623,4.808,16.116,16.116,0,0,1-3.2,2.12,16.214,16.214,0,0,1-4.434,1.775,16.051,16.051,0,0,1-5.861.292,16.15,16.15,0,0,1-4.007-1.083,11.824,11.824,0,0,1-4.138-2.488,15,15,0,0,1-3.513-4.087,16.192,16.192,0,0,1-1.937-4.847,14.708,14.708,0,0,1-.647-5.43,14.912,14.912,0,0,1,1-3.795,20.743,20.743,0,0,1,2.163-3.976,15.268,15.268,0,0,1,3.353-3.722,12.31,12.31,0,0,1,4.317-2.094,24.8,24.8,0,0,1,5.824-.59,16.315,16.315,0,0,1,6,.954,18.419,18.419,0,0,1,6.267,4.324,14.937,14.937,0,0,1,2.878,4.594,16.159,16.159,0,0,1,.751,3.9,16.543,16.543,0,0,1-.15,5.817A9.751,9.751,0,0,1-2017.847-3666.834Z" transform="translate(2049.285 3689.955)" fill="#fff083"/>
      </g>
      <g id="그룹_6059" data-name="그룹 6059" transform="translate(0 3.958)">
        <path id="패스_7153" data-name="패스 7153" d="M-2019.754-3666.846a14.552,14.552,0,0,1-3.745,4.6,15.9,15.9,0,0,1-3.233,1.969,15.987,15.987,0,0,1-4.431,1.585,15.814,15.814,0,0,1-5.783.071,15.911,15.911,0,0,1-3.907-1.212,11.642,11.642,0,0,1-3.983-2.6,14.8,14.8,0,0,1-3.31-4.154,15.991,15.991,0,0,1-1.729-4.845,14.5,14.5,0,0,1-.437-5.371,14.687,14.687,0,0,1,1.125-3.7,20.423,20.423,0,0,1,2.276-3.837,15.051,15.051,0,0,1,3.438-3.542,12.145,12.145,0,0,1,4.328-1.9,24.424,24.424,0,0,1,5.757-.366,16.059,16.059,0,0,1,5.878,1.159,18.131,18.131,0,0,1,6.012,4.488,14.724,14.724,0,0,1,2.666,4.629,15.95,15.95,0,0,1,.6,3.873,16.33,16.33,0,0,1-.362,5.723A9.6,9.6,0,0,1-2019.754-3666.846Z" transform="translate(2050.431 3690.188)" fill="#f1b756"/>
      </g>
      <g id="그룹_6060" data-name="그룹 6060" transform="translate(16.31 0.053)">
        <path id="패스_7154" data-name="패스 7154" d="M-2000.744-3691.234c-.356.861-1.116.643-2.2.646a11.661,11.661,0,0,1-4.535-.928,20.777,20.777,0,0,1-2.277-1.09,6.26,6.26,0,0,1-2.185-2.021,1.767,1.767,0,0,1-.168-1.792,3.331,3.331,0,0,1,.755-1.069,4.008,4.008,0,0,1,1.652-.891,8.246,8.246,0,0,1,2.737-.923,6.335,6.335,0,0,1,2.689.266,11.059,11.059,0,0,1,2.59,2.084c.665.576.686,1.179,1,1.814a7.844,7.844,0,0,1,.314,1.677A4.015,4.015,0,0,1-2000.744-3691.234Z" transform="translate(2012.274 3699.325)" fill="#fff"/>
      </g>
      <g id="그룹_6061" data-name="그룹 6061" transform="translate(16.256 0)">
        <path id="패스_7155" data-name="패스 7155" d="M-2007.569-3691.537a20.794,20.794,0,0,1-2.283-1.093,6.34,6.34,0,0,1-2.2-2.037,1.811,1.811,0,0,1-.173-1.841,3.39,3.39,0,0,1,.766-1.086,3.907,3.907,0,0,1,1.608-.88l.064-.024c.232-.086.462-.194.705-.309a5.231,5.231,0,0,1,2.047-.617,6.33,6.33,0,0,1,2.712.27,7.454,7.454,0,0,1,2.067,1.588c.195.189.379.368.537.5a2.652,2.652,0,0,1,.786,1.277,5.384,5.384,0,0,0,.223.553,4.543,4.543,0,0,1,.258,1.245c.02.169.039.329.06.446a4.072,4.072,0,0,1-.375,2.255c-.306.741-.919.719-1.694.692-.175-.006-.356-.013-.55-.012A11.78,11.78,0,0,1-2007.569-3691.537Zm3.2-7.518a6.243,6.243,0,0,0-2.667-.263,5.065,5.065,0,0,0-2.007.608c-.246.115-.478.225-.714.312l-.065.023a3.838,3.838,0,0,0-1.568.854,3.29,3.29,0,0,0-.744,1.053,1.713,1.713,0,0,0,.164,1.742,6.241,6.241,0,0,0,2.168,2,20.76,20.76,0,0,0,2.271,1.087,11.68,11.68,0,0,0,4.515.924c.195,0,.377.006.554.012.792.028,1.315.046,1.593-.626a3.979,3.979,0,0,0,.368-2.2c-.022-.12-.041-.281-.062-.451a4.458,4.458,0,0,0-.248-1.212,5.294,5.294,0,0,1-.227-.565,2.568,2.568,0,0,0-.756-1.232c-.16-.139-.345-.319-.541-.509A7.392,7.392,0,0,0-2004.366-3699.055Z" transform="translate(2012.401 3699.448)" fill="#d8d8d8"/>
      </g>
    </g>
    <g id="그룹_6067" data-name="그룹 6067" transform="translate(-3585.83 -5711.005)">
      <g id="그룹_6064" data-name="그룹 6064" transform="translate(0 0)">
        <g id="그룹_6063" data-name="그룹 6063">
          <path id="패스_7156" data-name="패스 7156" d="M-2676.835-4165.869l1.354-1.4a2.54,2.54,0,0,1,3.134-.914c2.1.784,9.469,3.658,11.047,14.512s-2.345,17.343-9.461,21.906-17.24,1.734-18.673,1.188a14.94,14.94,0,0,1-8.423-9.278c-1.862-5.457-3.7-13.772-1.9-18.19a14.479,14.479,0,0,1,9.319-8.7C-2686.115-4167.958-2683.531-4168.952-2676.835-4165.869Z" transform="translate(2700.495 4168.389)" fill="#c07136"/>
        </g>
      </g>
      <g id="그룹_6066" data-name="그룹 6066" transform="translate(3.907 2.9)">
        <g id="그룹_6065" data-name="그룹 6065">
          <path id="패스_7157" data-name="패스 7157" d="M-2670.733-4161.6s6.52,4.094,8.257,13.851-5.452,12.908-5.452,12.908-10.014,5.792-16.415-.639-4.166-12.888-4.166-12.888,1.039-7.668,12.735-7.524,6.783,13.579,6.555,13.8-6.5,6.5-12.056-.169,4.033-6.865,4.033-6.865,2.679,1.038-.439,2.039-.766,3.7-.06,3.662,6.375,2.785,6.223-3.067-4.319-7.249-7.452-6.334-8.1,3.564-6.642,9.727,5.82,7.167,10.239,6.468,9.976-1.509,10.012-7.306-1.636-9.686-4.5-11.759a14.783,14.783,0,0,0-16.724.128c-6.739,4.675-5.273,13.41-2.1,18.725s7.843,9.025,13.891,6.969,10.993-3.294,13.3-8.338,2.818-11.191-1.672-16.895S-2670.733-4161.6-2670.733-4161.6Z" transform="translate(2691.355 4161.605)" fill="#562c0c"/>
        </g>
      </g>
    </g>
    <g id="그룹_6073" data-name="그룹 6073" transform="translate(-4154.005 -5709.573)">
      <g id="그룹_6068" data-name="그룹 6068" transform="translate(2.684 4.374)">
        <path id="패스_7158" data-name="패스 7158" d="M-3995.336-4129.048a14.263,14.263,0,0,1-4.479,3.711,15.6,15.6,0,0,1-3.485,1.278,15.653,15.653,0,0,1-4.564.679,15.5,15.5,0,0,1-5.574-1.034,15.586,15.586,0,0,1-3.526-1.912,11.412,11.412,0,0,1-3.335-3.261,14.5,14.5,0,0,1-2.39-4.626,15.675,15.675,0,0,1-.739-4.989,14.223,14.223,0,0,1,.6-5.249,14.437,14.437,0,0,1,1.787-3.344,20.093,20.093,0,0,1,2.921-3.256,14.8,14.8,0,0,1,3.983-2.75,11.913,11.913,0,0,1,4.525-1,23.929,23.929,0,0,1,5.605.745,15.771,15.771,0,0,1,5.432,2.236,17.785,17.785,0,0,1,4.926,5.463,14.45,14.45,0,0,1,1.68,4.96,15.626,15.626,0,0,1-.166,3.837,16,16,0,0,1-1.439,5.435A9.431,9.431,0,0,1-3995.336-4129.048Z" transform="translate(4023.429 4154.807)" fill="#f1b756"/>
      </g>
      <g id="그룹_6069" data-name="그룹 6069" transform="translate(0.49 4.058)">
        <path id="패스_7159" data-name="패스 7159" d="M-3997.123-4132.426a14.764,14.764,0,0,1-3.624,4.808,16.119,16.119,0,0,1-3.2,2.12,16.251,16.251,0,0,1-4.434,1.775,16.043,16.043,0,0,1-5.86.291,16.131,16.131,0,0,1-4.008-1.082,11.812,11.812,0,0,1-4.137-2.488,15.006,15.006,0,0,1-3.513-4.087,16.222,16.222,0,0,1-1.937-4.848,14.721,14.721,0,0,1-.646-5.43,14.912,14.912,0,0,1,1-3.795,20.678,20.678,0,0,1,2.163-3.977,15.28,15.28,0,0,1,3.353-3.722,12.309,12.309,0,0,1,4.317-2.093,24.755,24.755,0,0,1,5.823-.589,16.3,16.3,0,0,1,6,.953,18.409,18.409,0,0,1,6.267,4.323,14.94,14.94,0,0,1,2.877,4.594,16.148,16.148,0,0,1,.751,3.9,16.565,16.565,0,0,1-.15,5.817A9.761,9.761,0,0,1-3997.123-4132.426Z" transform="translate(4028.562 4155.546)" fill="#fff083"/>
      </g>
      <g id="그룹_6070" data-name="그룹 6070" transform="translate(0 3.958)">
        <path id="패스_7160" data-name="패스 7160" d="M-3999.031-4132.438a14.55,14.55,0,0,1-3.745,4.6,15.911,15.911,0,0,1-3.233,1.97,15.974,15.974,0,0,1-4.431,1.585,15.825,15.825,0,0,1-5.782.072,15.885,15.885,0,0,1-3.907-1.213,11.654,11.654,0,0,1-3.983-2.6,14.79,14.79,0,0,1-3.31-4.154,15.97,15.97,0,0,1-1.729-4.845,14.5,14.5,0,0,1-.437-5.371,14.718,14.718,0,0,1,1.125-3.7,20.449,20.449,0,0,1,2.277-3.837,15.07,15.07,0,0,1,3.438-3.542,12.155,12.155,0,0,1,4.328-1.9,24.424,24.424,0,0,1,5.757-.366,16.047,16.047,0,0,1,5.877,1.159,18.14,18.14,0,0,1,6.013,4.487,14.717,14.717,0,0,1,2.665,4.63,15.947,15.947,0,0,1,.6,3.872,16.335,16.335,0,0,1-.362,5.723A9.6,9.6,0,0,1-3999.031-4132.438Z" transform="translate(4029.708 4155.78)" fill="#f1b756"/>
      </g>
      <g id="그룹_6071" data-name="그룹 6071" transform="translate(16.311 0.053)">
        <path id="패스_7161" data-name="패스 7161" d="M-3980.021-4156.826c-.356.861-1.116.643-2.2.646a11.665,11.665,0,0,1-4.535-.928,20.64,20.64,0,0,1-2.277-1.09,6.274,6.274,0,0,1-2.186-2.021,1.769,1.769,0,0,1-.168-1.792,3.326,3.326,0,0,1,.755-1.069,4.022,4.022,0,0,1,1.652-.891,8.255,8.255,0,0,1,2.737-.922,6.325,6.325,0,0,1,2.689.266,11.055,11.055,0,0,1,2.59,2.084c.665.577.686,1.18,1,1.814a7.9,7.9,0,0,1,.314,1.676A4.02,4.02,0,0,1-3980.021-4156.826Z" transform="translate(3991.55 4164.917)" fill="#fff"/>
      </g>
      <g id="그룹_6072" data-name="그룹 6072" transform="translate(16.256 0)">
        <path id="패스_7162" data-name="패스 7162" d="M-3986.845-4157.128a20.955,20.955,0,0,1-2.283-1.092,6.335,6.335,0,0,1-2.2-2.038,1.812,1.812,0,0,1-.173-1.841,3.414,3.414,0,0,1,.765-1.086,3.917,3.917,0,0,1,1.608-.88l.064-.023c.232-.086.462-.194.706-.31a5.226,5.226,0,0,1,2.047-.617,6.317,6.317,0,0,1,2.712.271,7.452,7.452,0,0,1,2.067,1.587c.195.189.379.368.537.505a2.647,2.647,0,0,1,.786,1.277,5.4,5.4,0,0,0,.223.554,4.505,4.505,0,0,1,.258,1.245c.02.169.039.329.06.445a4.074,4.074,0,0,1-.374,2.255c-.306.741-.919.719-1.7.692-.175-.006-.356-.013-.549-.012A11.779,11.779,0,0,1-3986.845-4157.128Zm3.2-7.519a6.252,6.252,0,0,0-2.666-.262,5.062,5.062,0,0,0-2.007.607c-.246.116-.478.225-.714.312l-.064.023a3.843,3.843,0,0,0-1.568.854,3.3,3.3,0,0,0-.744,1.053,1.713,1.713,0,0,0,.163,1.742,6.235,6.235,0,0,0,2.167,2,20.762,20.762,0,0,0,2.271,1.087,11.68,11.68,0,0,0,4.515.924c.2,0,.377.006.554.012.792.028,1.314.046,1.593-.626a3.973,3.973,0,0,0,.368-2.195c-.022-.12-.041-.281-.061-.451a4.474,4.474,0,0,0-.248-1.211,5.485,5.485,0,0,1-.227-.565,2.572,2.572,0,0,0-.755-1.232c-.161-.139-.346-.319-.542-.509A7.394,7.394,0,0,0-3983.644-4164.647Z" transform="translate(3991.678 4165.04)" fill="#d8d8d8"/>
      </g>
    </g>
    <g id="그룹_6185" data-name="그룹 6185" transform="translate(-4159.779 -6818.156)">
      <g id="그룹_6080" data-name="그룹 6080" transform="translate(1142.567 219.613)">
        <g id="그룹_6074" data-name="그룹 6074">
          <path id="패스_7163" data-name="패스 7163" d="M-1365.456-6215.112a18.262,18.262,0,0,1-1.706-3.209c-2.1-4.888,4-7.643,4-7.643s-.691-.625-.83-4.5,1.116-5.491,2.89-8.437,7.236-5.959,10.411-5.831,6.536.6,9.6,6.374.993,8.644-.61,12.236-6.143,5.127-6.143,5.127a10.761,10.761,0,0,1,.821,3.762c.07,3.447-4.608,6.278-4.608,6.278,1.015,2.967-.2,5.417-1.238,7.274a5.487,5.487,0,0,1-4.3,2.7,5.86,5.86,0,0,1-1.252,5.512c-3.661,4.1-6.425.685-6.454.644a.921.921,0,0,1-.064-.119c-1.363.523-4.454.371-5.18-3.339-.762-3.889,1.9-6.862,2.371-7.347-1.282-2.946-.429-4.9-.318-5.106a7.5,7.5,0,0,1,2.605-4.377Z" transform="translate(1370.249 6244.731)" fill="#c07136"/>
        </g>
        <g id="그룹_6075" data-name="그룹 6075" transform="translate(7.088 18.767)">
          <path id="패스_7164" data-name="패스 7164" d="M-1353.667-6200.826a10.338,10.338,0,0,0,4.465,5.72,22.114,22.114,0,0,1,4.645,3.775c1.13,1.266,1.532,2.868,2.144,4.468a2.467,2.467,0,0,1,.279,1.05l1.108-.781c.338-.241-.527-1.72-.655-1.976a12.655,12.655,0,0,0-1.869-2.926,28.9,28.9,0,0,0-4.675-3.716,11.8,11.8,0,0,1-1.888-1.553,10.821,10.821,0,0,1-1.316-1.814,7.145,7.145,0,0,0-1.541-1.362A3.687,3.687,0,0,1-1353.667-6200.826Z" transform="translate(1353.667 6200.826)" fill="#9c5e2e"/>
        </g>
        <g id="그룹_6076" data-name="그룹 6076" transform="translate(15.011 11.707)">
          <path id="패스_7165" data-name="패스 7165" d="M-1327.736-6205.31s-1.649-6.013-5.173-7.946-1.8-4.087-1.8-4.087l.172,1.16c.222.8,3.588,3.057,4.325,3.971,1.026,1.272,2.978,5.625,2.9,6.742Z" transform="translate(1335.133 6217.343)" fill="#9c5e2e"/>
        </g>
        <g id="그룹_6077" data-name="그룹 6077" transform="translate(17.332 10.495)">
          <path id="패스_7166" data-name="패스 7166" d="M-1327.783-6220.179s.137,1.383-.415,1.94-1.847,1.269-1.42,2.507.512.842.512.842-.708-.368.343-1.6S-1327.327-6217.755-1327.783-6220.179Z" transform="translate(1329.703 6220.179)" fill="#9c5e2e"/>
        </g>
        <g id="그룹_6078" data-name="그룹 6078" transform="translate(4.226 29.619)">
          <path id="패스_7167" data-name="패스 7167" d="M-1360.362-6174.86s6.669,1.423,6.575,5.088,2.52,3.969,2.286,8.467h0a3.893,3.893,0,0,0,.118-2.81c-1.372-3.238-1.953-5.106-1.914-5.636.063-.867-.589-4.442-6.5-5.687Z" transform="translate(1360.362 6175.439)" fill="#9c5e2e"/>
        </g>
        <g id="그룹_6079" data-name="그룹 6079" transform="translate(2.507 39.103)">
          <path id="패스_7168" data-name="패스 7168" d="M-1364.384-6153.252l4.039,5.223a3.573,3.573,0,0,1-1.229,5.463,3.346,3.346,0,0,0,2.758-1.872c.672-1.73-1.022-4.791-2.943-6.311A16.541,16.541,0,0,1-1364.384-6153.252Z" transform="translate(1364.384 6153.252)" fill="#9c5e2e"/>
        </g>
      </g>
      <g id="그룹_6086" data-name="그룹 6086" transform="translate(1710.953 227.094)">
        <g id="그룹_6081" data-name="그룹 6081" transform="translate(2.684 4.374)">
          <path id="패스_7169" data-name="패스 7169" d="M-6.171-6191.238a14.268,14.268,0,0,1-4.479,3.711,15.552,15.552,0,0,1-3.485,1.277,15.621,15.621,0,0,1-4.564.679,15.51,15.51,0,0,1-5.574-1.033,15.575,15.575,0,0,1-3.525-1.911,11.429,11.429,0,0,1-3.335-3.262,14.5,14.5,0,0,1-2.39-4.626,15.671,15.671,0,0,1-.739-4.989,14.206,14.206,0,0,1,.605-5.248,14.419,14.419,0,0,1,1.788-3.345,20.03,20.03,0,0,1,2.921-3.255,14.76,14.76,0,0,1,3.982-2.75,11.9,11.9,0,0,1,4.525-1,23.935,23.935,0,0,1,5.606.746,15.755,15.755,0,0,1,5.431,2.236,17.79,17.79,0,0,1,4.926,5.463,14.437,14.437,0,0,1,1.68,4.96,15.6,15.6,0,0,1-.165,3.837,15.982,15.982,0,0,1-1.44,5.435A9.413,9.413,0,0,1-6.171-6191.238Z" transform="translate(34.264 6216.998)" fill="#f1b756"/>
        </g>
        <g id="그룹_6082" data-name="그룹 6082" transform="translate(0.49 4.058)">
          <path id="패스_7170" data-name="패스 7170" d="M-7.958-6194.616a14.76,14.76,0,0,1-3.623,4.808,16.147,16.147,0,0,1-3.2,2.12,16.236,16.236,0,0,1-4.433,1.775,16.06,16.06,0,0,1-5.861.292,16.142,16.142,0,0,1-4.007-1.083,11.8,11.8,0,0,1-4.138-2.488,15.011,15.011,0,0,1-3.513-4.086,16.227,16.227,0,0,1-1.937-4.848,14.71,14.71,0,0,1-.646-5.43,14.927,14.927,0,0,1,1-3.8,20.769,20.769,0,0,1,2.163-3.977,15.276,15.276,0,0,1,3.353-3.721,12.3,12.3,0,0,1,4.317-2.093,24.755,24.755,0,0,1,5.824-.59,16.315,16.315,0,0,1,6,.953,18.415,18.415,0,0,1,6.267,4.323,14.959,14.959,0,0,1,2.878,4.594,16.181,16.181,0,0,1,.751,3.9,16.566,16.566,0,0,1-.15,5.817A9.746,9.746,0,0,1-7.958-6194.616Z" transform="translate(39.396 6217.736)" fill="#fff083"/>
        </g>
        <g id="그룹_6083" data-name="그룹 6083" transform="translate(0 3.958)">
          <path id="패스_7171" data-name="패스 7171" d="M-9.865-6194.627a14.548,14.548,0,0,1-3.745,4.6,15.866,15.866,0,0,1-3.232,1.97,15.977,15.977,0,0,1-4.431,1.585,15.83,15.83,0,0,1-5.783.072,15.919,15.919,0,0,1-3.906-1.212,11.655,11.655,0,0,1-3.983-2.6,14.8,14.8,0,0,1-3.31-4.154,16,16,0,0,1-1.729-4.845,14.5,14.5,0,0,1-.437-5.371,14.713,14.713,0,0,1,1.125-3.7,20.426,20.426,0,0,1,2.277-3.836,15.059,15.059,0,0,1,3.438-3.542,12.132,12.132,0,0,1,4.328-1.9,24.343,24.343,0,0,1,5.756-.367,16.062,16.062,0,0,1,5.878,1.159,18.16,18.16,0,0,1,6.013,4.488,14.725,14.725,0,0,1,2.665,4.63,15.9,15.9,0,0,1,.6,3.872,16.31,16.31,0,0,1-.362,5.723A9.613,9.613,0,0,1-9.865-6194.627Z" transform="translate(40.543 6217.97)" fill="#f1b756"/>
        </g>
        <g id="그룹_6084" data-name="그룹 6084" transform="translate(16.311 0.053)">
          <path id="패스_7172" data-name="패스 7172" d="M9.145-6219.016c-.356.862-1.117.643-2.2.647a11.671,11.671,0,0,1-4.536-.928,20.918,20.918,0,0,1-2.277-1.09,6.261,6.261,0,0,1-2.186-2.02,1.767,1.767,0,0,1-.168-1.792,3.319,3.319,0,0,1,.755-1.07,4.015,4.015,0,0,1,1.652-.89,8.28,8.28,0,0,1,2.737-.923,6.324,6.324,0,0,1,2.689.267,11.062,11.062,0,0,1,2.59,2.083c.665.577.686,1.179,1,1.814a7.864,7.864,0,0,1,.314,1.677A4.021,4.021,0,0,1,9.145-6219.016Z" transform="translate(2.385 6227.106)" fill="#fff"/>
        </g>
        <g id="그룹_6085" data-name="그룹 6085" transform="translate(16.256)">
          <path id="패스_7173" data-name="패스 7173" d="M2.321-6219.318a20.9,20.9,0,0,1-2.283-1.093,6.342,6.342,0,0,1-2.2-2.038,1.811,1.811,0,0,1-.173-1.841,3.4,3.4,0,0,1,.765-1.086,3.9,3.9,0,0,1,1.608-.879l.064-.024c.232-.086.462-.194.706-.309a5.236,5.236,0,0,1,2.048-.617,6.313,6.313,0,0,1,2.711.271,7.447,7.447,0,0,1,2.067,1.587c.195.189.379.368.538.506a2.651,2.651,0,0,1,.786,1.276,5,5,0,0,0,.223.554,4.534,4.534,0,0,1,.258,1.245c.02.169.039.329.06.446a4.075,4.075,0,0,1-.374,2.255c-.306.741-.919.719-1.7.691-.175-.006-.356-.012-.549-.012A11.81,11.81,0,0,1,2.321-6219.318Zm3.2-7.52a6.261,6.261,0,0,0-2.666-.262,5.059,5.059,0,0,0-2.007.607c-.246.116-.478.225-.714.312l-.064.024a3.854,3.854,0,0,0-1.568.854,3.313,3.313,0,0,0-.744,1.054,1.713,1.713,0,0,0,.164,1.742,6.227,6.227,0,0,0,2.167,2,20.668,20.668,0,0,0,2.271,1.087,11.677,11.677,0,0,0,4.515.924c.2,0,.377.006.553.012.792.028,1.315.047,1.593-.626a3.977,3.977,0,0,0,.368-2.195c-.022-.12-.041-.281-.061-.451a4.448,4.448,0,0,0-.248-1.212,5.385,5.385,0,0,1-.227-.564,2.57,2.57,0,0,0-.756-1.232c-.16-.14-.346-.319-.542-.51A7.423,7.423,0,0,0,5.522-6226.837Z" transform="translate(2.513 6227.23)" fill="#d8d8d8"/>
        </g>
      </g>
      <g id="그룹_6091" data-name="그룹 6091" transform="translate(1429.758 5.159)">
        <g id="그룹_6088" data-name="그룹 6088" transform="translate(0)">
          <g id="그룹_6087" data-name="그룹 6087">
            <path id="패스_7174" data-name="패스 7174" d="M-674.721-6743.912l1.354-1.4a2.54,2.54,0,0,1,3.133-.915c2.1.785,9.471,3.659,11.048,14.512s-2.345,17.343-9.46,21.907-17.24,1.734-18.674,1.187a14.935,14.935,0,0,1-8.422-9.278c-1.862-5.456-3.7-13.772-1.9-18.189a14.477,14.477,0,0,1,9.319-8.7C-684-6746-681.417-6746.995-674.721-6743.912Z" transform="translate(698.381 6746.431)" fill="#c07136"/>
          </g>
        </g>
        <g id="그룹_6090" data-name="그룹 6090" transform="translate(3.907 2.9)">
          <g id="그룹_6089" data-name="그룹 6089">
            <path id="패스_7175" data-name="패스 7175" d="M-668.619-6739.648s6.52,4.1,8.258,13.852-5.451,12.908-5.451,12.908-10.014,5.792-16.416-.64-4.166-12.888-4.166-12.888,1.04-7.667,12.735-7.523,6.784,13.579,6.555,13.8-6.5,6.5-12.056-.168,4.033-6.865,4.033-6.865,2.679,1.037-.439,2.038-.766,3.7-.061,3.664,6.375,2.784,6.224-3.069-4.319-7.248-7.453-6.333-8.095,3.565-6.641,9.727,5.819,7.167,10.238,6.469,9.975-1.509,10.011-7.307-1.635-9.685-4.5-11.759a14.781,14.781,0,0,0-16.725.128c-6.739,4.674-5.273,13.41-2.1,18.724s7.843,9.025,13.891,6.968,10.994-3.294,13.3-8.338,2.817-11.19-1.673-16.894S-668.619-6739.648-668.619-6739.648Z" transform="translate(689.241 6739.648)" fill="#562c0c"/>
          </g>
        </g>
      </g>
      <g id="그룹_6103" data-name="그룹 6103" transform="translate(1426.884 446.218)">
        <g id="그룹_6093" data-name="그룹 6093" transform="translate(0.801 0.771)">
          <g id="그룹_6092" data-name="그룹 6092">
            <path id="패스_7176" data-name="패스 7176" d="M-665-5707.03c-3.709-3.735-9.429-5.721-15.072-5.767-3.443-.028-8.524.457-11.444,1.832-7.477,3.521-11.639,11.347-11.711,20.164a20.052,20.052,0,0,0,4.784,13.949c4.032,4.721,9.6,8.8,16.3,8.852,6.13.05,13.381-2.255,17.432-6.24s5.824-9.021,5.874-15.151C-658.787-5696.009-660.653-5702.651-665-5707.03Zm-9.91,21.1a6.95,6.95,0,0,1-4.526,3.2,8.94,8.94,0,0,1-6.132-1.51,7.625,7.625,0,0,1-2.966-5.589,6.839,6.839,0,0,1,1.268-4.867,7.4,7.4,0,0,1,7.13-3.526,10.487,10.487,0,0,1,3.6,1.636,7.419,7.419,0,0,1,3.2,4.48A8.417,8.417,0,0,1-674.912-5685.93Z" transform="translate(703.23 5712.798)" fill="#f1b756"/>
          </g>
        </g>
        <g id="그룹_6095" data-name="그룹 6095" transform="translate(0.928 1.334)">
          <g id="그룹_6094" data-name="그룹 6094">
            <path id="패스_7177" data-name="패스 7177" d="M-658.809-5689.71l-.205-.714c-.207-.724-.824-1.163-.21-2.229l.068-.742a6.1,6.1,0,0,0-1.212-4.23l-.45-.593a6.079,6.079,0,0,1-1-2l-.205-.715a6.1,6.1,0,0,0-2.658-3.508l-.633-.39a6.09,6.09,0,0,1-1.658-1.505l-.449-.592a4.856,4.856,0,0,0-3.236-2.194l-1.088.059a3.218,3.218,0,0,1-2.243-1.117l-.633-.391a6.09,6.09,0,0,0-4.328-.8l-.731.138a6.1,6.1,0,0,1-2.239,0l-.732-.135a6.089,6.089,0,0,0-4.324.816l-.632.393a6.092,6.092,0,0,1-2.086.813l-.731.138c-1.492.281-3.229.068-4.142,1.282l-.609,1.656c-.453.6-.447,1.094-1.086,1.492l-.632.393c-1.152.716-1.236,1.361-1.536,2.533a1.708,1.708,0,0,1-.418.756l-.588.62a1.948,1.948,0,0,0-.424.692,6.125,6.125,0,0,1-.878,1.638l-.448.594a6.093,6.093,0,0,0-1.2,4.236l.07.741a6.085,6.085,0,0,1-.2,2.229l-.2.716a5.027,5.027,0,0,0,.4,3.833,1.763,1.763,0,0,1,.115.31l.142.544a4.5,4.5,0,0,0,.231.653,6.084,6.084,0,0,1,.48,1.86l.07.741a6.092,6.092,0,0,0,1.969,3.937l.551.5a6.086,6.086,0,0,1,1.352,1.784l.333.666a6.094,6.094,0,0,0,3.258,2.958l.695.268c.7.271,1.219.057,1.776.563l.76.772a6.269,6.269,0,0,0,4.027,1.923l.744,0a6.122,6.122,0,0,1,2.2.406l.695.269a6.094,6.094,0,0,0,3.845.178,1.665,1.665,0,0,0,.865-.591l.428-.561a.816.816,0,0,1,1.065-.212,2.185,2.185,0,0,0,1.092.492l.744,0a6.087,6.087,0,0,0,4.1-1.6l.549-.5a6.089,6.089,0,0,1,1.9-1.183l.694-.27a6.093,6.093,0,0,0,3.247-2.972l.33-.667c.335-.674.76-.732,1.315-1.24l.581-.47a.917.917,0,0,1,.57-.208c2.375-.008,1.252-2.863,1.384-4.317l.068-.742a6.083,6.083,0,0,1,.609-2.154l.33-.667A6.091,6.091,0,0,0-658.809-5689.71Zm-13.752,2.7-.153.254a2.439,2.439,0,0,0-.312.834l-.051.292a2.426,2.426,0,0,1-.9,1.5l-.234.181a2.428,2.428,0,0,0-.592.666l-.153.253a2.427,2.427,0,0,1-1.386,1.072l-.284.084a1.277,1.277,0,0,0-.927.369l-.271.338a1.928,1.928,0,0,1-1.509.378l-.295-.024a2.428,2.428,0,0,0-.887.093l-.284.084a2.428,2.428,0,0,1-1.746-.142l-.267-.129a2.428,2.428,0,0,0-.86-.234l-.3-.024a2.423,2.423,0,0,1-1.577-.762l-.2-.217c-.154-.465-.448-.4-.717-.529l-.266-.128a2.428,2.428,0,0,1-1.2-1.281l-.11-.275a2.429,2.429,0,0,0-.477-.752l-.2-.217c-.4-.425-1.541-.849-.914-1.556a.362.362,0,0,0,.089-.224l.015-.3c0-.3.092-.44-.019-.718l-.11-.275a2.42,2.42,0,0,1-.02-1.751l.1-.277a2.422,2.422,0,0,0,.154-.878l0-.3a2.422,2.422,0,0,1,.615-1.64l.2-.222a.872.872,0,0,1,.436-.193.325.325,0,0,0,.22-.373l-.053-.275a.661.661,0,0,1,.054-.414,2.421,2.421,0,0,1,1.073-1.093l.264-.136a2.421,2.421,0,0,0,.7-.545l.2-.221a2.5,2.5,0,0,1,1.638-.686l.431-.021c.3-.031.372-.241.639-.377l.263-.135a2.425,2.425,0,0,1,1.742-.181l.286.077a2.433,2.433,0,0,0,.888.072l.294-.031a2.43,2.43,0,0,1,1.691.459l.238.176a2.4,2.4,0,0,0,.679.351,2.085,2.085,0,0,1,.255.1l.2.1a.734.734,0,0,0,.123.048,2,2,0,0,1,1.242.9l.159.25a2.433,2.433,0,0,0,.608.652l.239.175a2.426,2.426,0,0,1,.939,1.479l.058.291a2.422,2.422,0,0,0,.253.694.78.78,0,0,1,.093.31l.027.339a.69.69,0,0,0,.114.324,1.278,1.278,0,0,1,.344,1.127l-.051.292c-.052.295.1.424.154.718l.33.621C-671.724-5687.988-672.249-5687.528-672.561-5687.012Z" transform="translate(702.934 5711.482)" fill="#ffe9ca"/>
          </g>
        </g>
        <g id="그룹_6102" data-name="그룹 6102">
          <g id="그룹_6099" data-name="그룹 6099" transform="translate(17.059 3.902)">
            <g id="그룹_6096" data-name="그룹 6096">
              <path id="패스_7178" data-name="패스 7178" d="M-638.069-5695.782a.877.877,0,0,0-1.2-.332l-10.413,5.9c.934-.892,1.921-1.819,2.8-2.642,1.615-1.519,3.285-3.086,4.49-4.283.659-.654,1.138-1.154,1.462-1.527.388-.45.921-1.064.55-1.72a.876.876,0,0,0-.575-.424.874.874,0,0,0-.7.144c-.03.022-3.027,2.175-6.269,4.282-2.369,1.54-4.007,2.5-5.134,3.092,1.455-1.512,3.388-3.556,5.022-5.486,3.345-3.952,3.693-5.357,3.187-6.251a.874.874,0,0,0-.572-.423.872.872,0,0,0-.7.14c-.039.027-3.947,2.788-8.134,5.479-7.091,4.557-9.041,5.1-9.521,5.149a.878.878,0,0,0-.979-.077.876.876,0,0,0-.331,1.195,1.251,1.251,0,0,0,.834.6c.572.127,1.557.046,4.518-1.535,1.652-.881,3.767-2.147,6.287-3.764,2.176-1.4,4.288-2.818,5.842-3.882-.478.662-1.149,1.516-2.09,2.61-1.91,2.222-4.185,4.573-5.544,5.978l-.594.616a2.984,2.984,0,0,1,.9.639,3,3,0,0,1,1.128.922c.062.049.123.1.181.152.044.032.089.065.132.1.4-.177.867-.4,1.418-.7,1.14-.609,2.551-1.448,4.2-2.5l-.21.2c-1.574,1.479-3.2,3-4.443,4.232q.057.124.1.253a3.278,3.278,0,0,1,.335.708,3.29,3.29,0,0,1,.627,1.752l13.058-7.4A.876.876,0,0,0-638.069-5695.782Z" transform="translate(665.196 5705.474)" fill="#562c0c"/>
            </g>
            <g id="그룹_6097" data-name="그룹 6097" transform="translate(1.64 11.042)">
              <path id="패스_7179" data-name="패스 7179" d="M-661.36-5679.642h0Z" transform="translate(661.36 5679.642)" fill="#562c0c"/>
            </g>
            <g id="그룹_6098" data-name="그룹 6098" transform="translate(18.778 1.179)">
              <path id="패스_7180" data-name="패스 7180" d="M-621.265-5702.715Z" transform="translate(621.265 5702.715)" fill="#562c0c"/>
            </g>
          </g>
          <g id="그룹_6101" data-name="그룹 6101">
            <g id="그룹_6100" data-name="그룹 6100">
              <path id="패스_7181" data-name="패스 7181" d="M-669.079-5711.724a1.5,1.5,0,0,0-1-.723c-1.078-.254-3.411.115-11.957,5.288-5.29,3.2-11.381,7.281-15.828,10.261l-1.417.948q1.311-1.035,3.022-2.288c4.052-2.969,9.12-6.371,13.192-9.1,2.28-1.531,4.249-2.853,5.66-3.84.758-.531,1.305-.931,1.673-1.224a5.473,5.473,0,0,0,.5-.435.978.978,0,0,0,.247-1.228,1.04,1.04,0,0,0-.659-.494c-.616-.157-1.661-.012-7.592,3.448-3.561,2.078-7.884,4.766-11.7,7.138-1.605,1-3.232,2.009-4.64,2.873,1.773-1.853,3.959-4.07,5.574-5.707,1.218-1.235,2.27-2.3,3.045-3.1.416-.431.719-.75.925-.976.354-.389.756-.829.427-1.411a.883.883,0,0,0-.532-.414c-.352-.1-.566.021-.954.235-.186.1-.45.25-.764.427-.553.311-1.319.746-2.278,1.292-1.65.94-3.294,1.882-3.294,1.882a.877.877,0,0,0-.324,1.2.877.877,0,0,0,1.2.325l1.437-.823-.133.135c-1.972,2-4.206,4.265-5.956,6.106-.962,1.013-1.668,1.781-2.158,2.35-.71.824-1.222,1.418-.85,2.075a.911.911,0,0,0,.564.43c.38.1.707-.029,1.5-.457.468-.254,1.117-.631,1.982-1.15,1.611-.968,3.823-2.343,6.164-3.8,2.286-1.422,4.763-2.962,7.144-4.414-3.731,2.515-7.834,5.318-11.165,7.792a58.41,58.41,0,0,0-5.163,4.188c-1.257,1.195-2.337,2.447-1.736,3.507a.9.9,0,0,0,.574.43c.435.1.7.009,2.721-1.3,1.194-.774,2.842-1.877,4.749-3.155,4.489-3.007,10.636-7.125,15.932-10.322,1.75-1.056,3.308-1.952,4.66-2.678-3.256,1.994-7.438,4.618-11.52,7.357a120.6,120.6,0,0,0-11.558,8.564c-3.8,3.313-5.105,5.474-4.238,7a.9.9,0,0,0,.542.42.916.916,0,0,0,.228.032,2.683,2.683,0,0,0,1.127-.423c.406-.21.98-.521,1.708-.927,1.216-.676,2.882-1.626,4.953-2.823s4.156-2.414,5.518-3.212a2.642,2.642,0,0,1,.272-1.166c0-.045-.007-.091-.008-.137a2.316,2.316,0,0,1,.189-1c-4.031,2.373-9.98,5.83-12.651,7.287a18.08,18.08,0,0,1,3.511-3.734,118.953,118.953,0,0,1,11.378-8.426c8.458-5.677,17.356-10.86,17.445-10.912A.876.876,0,0,0-669.079-5711.724Z" transform="translate(705.105 5714.603)" fill="#562c0c"/>
            </g>
          </g>
        </g>
      </g>
      <g id="그룹_6110" data-name="그룹 6110" transform="translate(301.283 443.367)">
        <g id="그룹_6104" data-name="그룹 6104">
          <path id="패스_7182" data-name="패스 7182" d="M-3333.589-5691.651a18.23,18.23,0,0,1-1.706-3.209c-2.1-4.889,4-7.642,4-7.642s-.691-.626-.83-4.5,1.116-5.491,2.89-8.438,7.236-5.958,10.411-5.831,6.536.6,9.6,6.374.993,8.644-.609,12.236-6.143,5.126-6.143,5.126a10.768,10.768,0,0,1,.821,3.763c.069,3.447-4.607,6.278-4.607,6.278,1.015,2.966-.2,5.417-1.238,7.274a5.485,5.485,0,0,1-4.3,2.7,5.861,5.861,0,0,1-1.253,5.513c-3.661,4.1-6.425.683-6.454.643a1,1,0,0,1-.065-.118c-1.362.523-4.453.371-5.18-3.34-.762-3.888,1.9-6.862,2.371-7.346-1.282-2.946-.428-4.9-.318-5.107a7.505,7.505,0,0,1,2.606-4.377Z" transform="translate(3338.383 5721.271)" fill="#c07136"/>
        </g>
        <g id="그룹_6105" data-name="그룹 6105" transform="translate(7.088 18.768)">
          <path id="패스_7183" data-name="패스 7183" d="M-3321.8-5677.364a10.333,10.333,0,0,0,4.465,5.719,22.136,22.136,0,0,1,4.645,3.776c1.13,1.266,1.532,2.868,2.144,4.468a2.466,2.466,0,0,1,.28,1.05l1.108-.781c.338-.24-.528-1.719-.655-1.976a12.66,12.66,0,0,0-1.869-2.925,28.909,28.909,0,0,0-4.676-3.716,11.9,11.9,0,0,1-1.889-1.553,10.874,10.874,0,0,1-1.315-1.814,7.149,7.149,0,0,0-1.541-1.363A3.672,3.672,0,0,1-3321.8-5677.364Z" transform="translate(3321.8 5677.364)" fill="#9c5e2e"/>
        </g>
        <g id="그룹_6106" data-name="그룹 6106" transform="translate(15.011 11.707)">
          <path id="패스_7184" data-name="패스 7184" d="M-3295.869-5681.849s-1.649-6.013-5.173-7.946-1.8-4.087-1.8-4.087l.172,1.16c.222.8,3.587,3.057,4.325,3.971,1.026,1.272,2.978,5.625,2.9,6.742Z" transform="translate(3303.266 5693.882)" fill="#9c5e2e"/>
        </g>
        <g id="그룹_6107" data-name="그룹 6107" transform="translate(17.332 10.495)">
          <path id="패스_7185" data-name="패스 7185" d="M-3295.916-5696.718s.137,1.382-.415,1.94-1.846,1.269-1.42,2.507.512.842.512.842-.708-.368.343-1.6S-3295.46-5694.294-3295.916-5696.718Z" transform="translate(3297.835 5696.718)" fill="#9c5e2e"/>
        </g>
        <g id="그룹_6108" data-name="그룹 6108" transform="translate(4.227 29.619)">
          <path id="패스_7186" data-name="패스 7186" d="M-3328.5-5651.4s6.669,1.422,6.574,5.088,2.52,3.969,2.286,8.467h0a3.9,3.9,0,0,0,.118-2.81c-1.373-3.239-1.953-5.106-1.915-5.637.064-.866-.589-4.442-6.5-5.687Z" transform="translate(3328.495 5651.978)" fill="#9c5e2e"/>
        </g>
        <g id="그룹_6109" data-name="그룹 6109" transform="translate(2.507 39.104)">
          <path id="패스_7187" data-name="패스 7187" d="M-3332.518-5629.79l4.039,5.223a3.574,3.574,0,0,1-1.23,5.463,3.346,3.346,0,0,0,2.759-1.873c.673-1.729-1.022-4.79-2.942-6.31A16.526,16.526,0,0,1-3332.518-5629.79Z" transform="translate(3332.518 5629.79)" fill="#9c5e2e"/>
        </g>
      </g>
      <g id="그룹_6116" data-name="그룹 6116" transform="translate(846.817 450.849)">
        <g id="그룹_6111" data-name="그룹 6111" transform="translate(2.684 4.374)">
          <path id="패스_7188" data-name="패스 7188" d="M-2027.766-5667.776a14.274,14.274,0,0,1-4.479,3.711,15.585,15.585,0,0,1-3.485,1.277,15.672,15.672,0,0,1-4.564.679,15.507,15.507,0,0,1-5.574-1.034,15.6,15.6,0,0,1-3.526-1.912,11.426,11.426,0,0,1-3.334-3.262,14.512,14.512,0,0,1-2.39-4.626,15.661,15.661,0,0,1-.739-4.989,14.214,14.214,0,0,1,.6-5.249,14.4,14.4,0,0,1,1.788-3.344,20,20,0,0,1,2.921-3.256,14.76,14.76,0,0,1,3.982-2.75,11.906,11.906,0,0,1,4.526-1,23.906,23.906,0,0,1,5.606.745,15.778,15.778,0,0,1,5.432,2.236,17.794,17.794,0,0,1,4.926,5.463,14.427,14.427,0,0,1,1.68,4.961,15.626,15.626,0,0,1-.165,3.837,15.993,15.993,0,0,1-1.44,5.434A9.419,9.419,0,0,1-2027.766-5667.776Z" transform="translate(2055.858 5693.536)" fill="#f1b756"/>
        </g>
        <g id="그룹_6112" data-name="그룹 6112" transform="translate(0.49 4.058)">
          <path id="패스_7189" data-name="패스 7189" d="M-2029.553-5671.155a14.774,14.774,0,0,1-3.623,4.808,16.1,16.1,0,0,1-3.2,2.12,16.2,16.2,0,0,1-4.433,1.775,16.058,16.058,0,0,1-5.861.292,16.144,16.144,0,0,1-4.007-1.083,11.816,11.816,0,0,1-4.138-2.488,15,15,0,0,1-3.513-4.087,16.2,16.2,0,0,1-1.937-4.848,14.715,14.715,0,0,1-.646-5.43,14.905,14.905,0,0,1,1-3.8,20.719,20.719,0,0,1,2.163-3.977,15.271,15.271,0,0,1,3.353-3.722,12.326,12.326,0,0,1,4.317-2.094,24.807,24.807,0,0,1,5.824-.589,16.3,16.3,0,0,1,6,.954,18.407,18.407,0,0,1,6.266,4.323,14.936,14.936,0,0,1,2.878,4.594,16.167,16.167,0,0,1,.751,3.9,16.56,16.56,0,0,1-.15,5.817A9.756,9.756,0,0,1-2029.553-5671.155Z" transform="translate(2060.991 5694.275)" fill="#fff083"/>
        </g>
        <g id="그룹_6113" data-name="그룹 6113" transform="translate(0 3.958)">
          <path id="패스_7190" data-name="패스 7190" d="M-2031.46-5671.166a14.545,14.545,0,0,1-3.744,4.6,15.856,15.856,0,0,1-3.233,1.97,15.992,15.992,0,0,1-4.431,1.585,15.808,15.808,0,0,1-5.783.071,15.9,15.9,0,0,1-3.906-1.212,11.639,11.639,0,0,1-3.983-2.6,14.766,14.766,0,0,1-3.31-4.154,15.984,15.984,0,0,1-1.729-4.845,14.5,14.5,0,0,1-.437-5.371,14.7,14.7,0,0,1,1.125-3.7,20.47,20.47,0,0,1,2.277-3.837,15.057,15.057,0,0,1,3.438-3.542,12.145,12.145,0,0,1,4.328-1.9,24.346,24.346,0,0,1,5.757-.367,16.051,16.051,0,0,1,5.878,1.16,18.126,18.126,0,0,1,6.012,4.487,14.719,14.719,0,0,1,2.665,4.629,15.926,15.926,0,0,1,.6,3.873,16.317,16.317,0,0,1-.362,5.723A9.6,9.6,0,0,1-2031.46-5671.166Z" transform="translate(2062.137 5694.509)" fill="#f1b756"/>
        </g>
        <g id="그룹_6114" data-name="그룹 6114" transform="translate(16.31 0.052)">
          <path id="패스_7191" data-name="패스 7191" d="M-2012.451-5695.555c-.355.861-1.116.643-2.195.646a11.646,11.646,0,0,1-4.535-.927,20.768,20.768,0,0,1-2.277-1.09,6.264,6.264,0,0,1-2.186-2.021,1.768,1.768,0,0,1-.168-1.792,3.336,3.336,0,0,1,.755-1.069,4.025,4.025,0,0,1,1.652-.891,8.267,8.267,0,0,1,2.737-.923,6.336,6.336,0,0,1,2.689.267,11.034,11.034,0,0,1,2.589,2.084c.665.576.686,1.179,1,1.814a7.832,7.832,0,0,1,.314,1.676A4.011,4.011,0,0,1-2012.451-5695.555Z" transform="translate(2023.98 5703.646)" fill="#fff"/>
        </g>
        <g id="그룹_6115" data-name="그룹 6115" transform="translate(16.256)">
          <path id="패스_7192" data-name="패스 7192" d="M-2019.275-5695.857a20.922,20.922,0,0,1-2.283-1.092,6.344,6.344,0,0,1-2.2-2.039,1.81,1.81,0,0,1-.173-1.841,3.4,3.4,0,0,1,.766-1.085,3.912,3.912,0,0,1,1.608-.88l.065-.024c.232-.085.462-.193.705-.308a5.212,5.212,0,0,1,2.047-.617,6.321,6.321,0,0,1,2.711.27,7.455,7.455,0,0,1,2.068,1.588c.195.189.379.368.537.5a2.655,2.655,0,0,1,.786,1.276,5.3,5.3,0,0,0,.223.554,4.538,4.538,0,0,1,.258,1.246c.02.169.038.33.06.445a4.075,4.075,0,0,1-.375,2.255c-.306.741-.919.719-1.694.691-.175-.006-.356-.012-.55-.012A11.786,11.786,0,0,1-2019.275-5695.857Zm3.2-7.519a6.248,6.248,0,0,0-2.666-.262,5.071,5.071,0,0,0-2.007.607c-.246.116-.477.226-.714.313l-.064.024a3.837,3.837,0,0,0-1.568.854,3.306,3.306,0,0,0-.744,1.053,1.714,1.714,0,0,0,.164,1.742,6.227,6.227,0,0,0,2.167,2,20.824,20.824,0,0,0,2.271,1.088,11.683,11.683,0,0,0,4.516.924c.195,0,.377.005.553.012.792.028,1.315.046,1.592-.626a3.978,3.978,0,0,0,.368-2.2c-.022-.12-.041-.28-.061-.452a4.475,4.475,0,0,0-.248-1.211,5.36,5.36,0,0,1-.227-.565,2.572,2.572,0,0,0-.756-1.232c-.161-.139-.346-.319-.542-.509A7.38,7.38,0,0,0-2016.073-5703.375Z" transform="translate(2024.108 5703.768)" fill="#d8d8d8"/>
        </g>
      </g>
      <g id="그룹_6121" data-name="그룹 6121" transform="translate(568.946 225.662)">
        <g id="그룹_6118" data-name="그룹 6118">
          <g id="그룹_6117" data-name="그룹 6117">
            <path id="패스_7193" data-name="패스 7193" d="M-2688.541-6228.059l1.354-1.4a2.541,2.541,0,0,1,3.133-.914c2.1.784,9.47,3.658,11.047,14.512s-2.344,17.343-9.46,21.906-17.24,1.734-18.674,1.188a14.939,14.939,0,0,1-8.423-9.278c-1.863-5.457-3.7-13.772-1.9-18.19a14.481,14.481,0,0,1,9.318-8.7C-2697.822-6230.147-2695.237-6231.142-2688.541-6228.059Z" transform="translate(2712.201 6230.579)" fill="#c07136"/>
          </g>
        </g>
        <g id="그룹_6120" data-name="그룹 6120" transform="translate(3.907 2.9)">
          <g id="그룹_6119" data-name="그룹 6119">
            <path id="패스_7194" data-name="패스 7194" d="M-2682.439-6223.794s6.519,4.095,8.257,13.852-5.451,12.907-5.451,12.907-10.015,5.792-16.416-.64-4.166-12.888-4.166-12.888,1.04-7.667,12.735-7.523,6.784,13.58,6.556,13.8-6.5,6.5-12.057-.169,4.033-6.865,4.033-6.865,2.679,1.037-.439,2.037-.767,3.7-.06,3.664,6.375,2.784,6.223-3.068-4.32-7.248-7.452-6.333-8.1,3.563-6.641,9.727,5.82,7.166,10.238,6.469,9.976-1.509,10.012-7.307-1.635-9.686-4.5-11.759a14.783,14.783,0,0,0-16.724.127c-6.74,4.674-5.273,13.411-2.1,18.725s7.844,9.026,13.891,6.968,10.994-3.294,13.3-8.337,2.817-11.192-1.673-16.9S-2682.439-6223.794-2682.439-6223.794Z" transform="translate(2703.061 6223.794)" fill="#562c0c"/>
          </g>
        </g>
      </g>
      <g id="그룹_6127" data-name="그룹 6127" transform="translate(0.77 227.094)">
        <g id="그룹_6122" data-name="그룹 6122" transform="translate(2.684 4.374)">
          <path id="패스_7195" data-name="패스 7195" d="M-4007.043-6191.238a14.257,14.257,0,0,1-4.479,3.711,15.563,15.563,0,0,1-3.485,1.277,15.625,15.625,0,0,1-4.564.679,15.509,15.509,0,0,1-5.574-1.033,15.591,15.591,0,0,1-3.526-1.911,11.435,11.435,0,0,1-3.334-3.262,14.518,14.518,0,0,1-2.39-4.626,15.671,15.671,0,0,1-.739-4.989,14.208,14.208,0,0,1,.6-5.248,14.415,14.415,0,0,1,1.787-3.345,20.074,20.074,0,0,1,2.921-3.255,14.779,14.779,0,0,1,3.983-2.75,11.893,11.893,0,0,1,4.525-1,23.929,23.929,0,0,1,5.606.746,15.752,15.752,0,0,1,5.432,2.236,17.789,17.789,0,0,1,4.926,5.463,14.445,14.445,0,0,1,1.68,4.96,15.637,15.637,0,0,1-.165,3.837,16.01,16.01,0,0,1-1.44,5.435A9.426,9.426,0,0,1-4007.043-6191.238Z" transform="translate(4035.135 6216.998)" fill="#f1b756"/>
        </g>
        <g id="그룹_6123" data-name="그룹 6123" transform="translate(0.49 4.058)">
          <path id="패스_7196" data-name="패스 7196" d="M-4008.829-6194.616a14.767,14.767,0,0,1-3.624,4.808,16.158,16.158,0,0,1-3.2,2.12,16.24,16.24,0,0,1-4.434,1.775,16.055,16.055,0,0,1-5.86.292,16.157,16.157,0,0,1-4.008-1.083,11.8,11.8,0,0,1-4.137-2.488,15,15,0,0,1-3.513-4.086,16.224,16.224,0,0,1-1.937-4.848,14.723,14.723,0,0,1-.646-5.43,14.925,14.925,0,0,1,1-3.8,20.76,20.76,0,0,1,2.163-3.977,15.276,15.276,0,0,1,3.353-3.721,12.3,12.3,0,0,1,4.317-2.093,24.759,24.759,0,0,1,5.824-.59,16.315,16.315,0,0,1,6,.953,18.409,18.409,0,0,1,6.266,4.323,14.948,14.948,0,0,1,2.878,4.594,16.179,16.179,0,0,1,.751,3.9,16.542,16.542,0,0,1-.15,5.817A9.75,9.75,0,0,1-4008.829-6194.616Z" transform="translate(4040.268 6217.736)" fill="#fff083"/>
        </g>
        <g id="그룹_6124" data-name="그룹 6124" transform="translate(0 3.958)">
          <path id="패스_7197" data-name="패스 7197" d="M-4010.738-6194.627a14.549,14.549,0,0,1-3.744,4.6,15.856,15.856,0,0,1-3.233,1.97,15.961,15.961,0,0,1-4.431,1.585,15.828,15.828,0,0,1-5.782.072,15.9,15.9,0,0,1-3.906-1.212,11.651,11.651,0,0,1-3.984-2.6,14.784,14.784,0,0,1-3.309-4.154,15.985,15.985,0,0,1-1.73-4.845,14.489,14.489,0,0,1-.437-5.371,14.717,14.717,0,0,1,1.125-3.7,20.473,20.473,0,0,1,2.276-3.836,15.07,15.07,0,0,1,3.438-3.542,12.14,12.14,0,0,1,4.328-1.9,24.349,24.349,0,0,1,5.757-.367,16.055,16.055,0,0,1,5.877,1.159,18.139,18.139,0,0,1,6.013,4.488,14.726,14.726,0,0,1,2.665,4.63,15.927,15.927,0,0,1,.6,3.872,16.337,16.337,0,0,1-.362,5.723A9.607,9.607,0,0,1-4010.738-6194.627Z" transform="translate(4041.415 6217.97)" fill="#f1b756"/>
        </g>
        <g id="그룹_6125" data-name="그룹 6125" transform="translate(16.311 0.053)">
          <path id="패스_7198" data-name="패스 7198" d="M-3991.727-6219.016c-.356.862-1.116.643-2.2.647a11.664,11.664,0,0,1-4.535-.928,20.817,20.817,0,0,1-2.277-1.09,6.266,6.266,0,0,1-2.186-2.02,1.766,1.766,0,0,1-.168-1.792,3.327,3.327,0,0,1,.754-1.07,4.022,4.022,0,0,1,1.652-.89,8.284,8.284,0,0,1,2.737-.923,6.326,6.326,0,0,1,2.689.267,11.064,11.064,0,0,1,2.59,2.083c.665.577.686,1.179,1,1.814a7.874,7.874,0,0,1,.313,1.677A4.016,4.016,0,0,1-3991.727-6219.016Z" transform="translate(4003.257 6227.106)" fill="#fff"/>
        </g>
        <g id="그룹_6126" data-name="그룹 6126" transform="translate(16.256)">
          <path id="패스_7199" data-name="패스 7199" d="M-3998.551-6219.318a20.888,20.888,0,0,1-2.283-1.093,6.332,6.332,0,0,1-2.2-2.038,1.811,1.811,0,0,1-.173-1.841,3.408,3.408,0,0,1,.765-1.086,3.9,3.9,0,0,1,1.608-.879l.064-.024c.232-.086.462-.194.705-.309a5.243,5.243,0,0,1,2.048-.617,6.318,6.318,0,0,1,2.712.271,7.458,7.458,0,0,1,2.067,1.587c.195.189.379.368.537.506a2.642,2.642,0,0,1,.786,1.276,5.41,5.41,0,0,0,.223.554,4.522,4.522,0,0,1,.258,1.245c.02.169.039.329.06.446a4.081,4.081,0,0,1-.374,2.255c-.306.741-.92.719-1.7.691-.175-.006-.356-.012-.549-.012A11.813,11.813,0,0,1-3998.551-6219.318Zm3.2-7.52a6.262,6.262,0,0,0-2.666-.262,5.055,5.055,0,0,0-2.007.607c-.246.116-.478.225-.714.312l-.064.024a3.855,3.855,0,0,0-1.568.854,3.317,3.317,0,0,0-.744,1.054,1.713,1.713,0,0,0,.164,1.742,6.228,6.228,0,0,0,2.167,2,20.672,20.672,0,0,0,2.271,1.087,11.68,11.68,0,0,0,4.515.924c.2,0,.377.006.553.012.792.028,1.315.047,1.593-.626a3.977,3.977,0,0,0,.368-2.195c-.022-.12-.041-.281-.061-.451a4.487,4.487,0,0,0-.248-1.212,5.371,5.371,0,0,1-.227-.564,2.564,2.564,0,0,0-.756-1.232c-.16-.14-.345-.319-.541-.51A7.421,7.421,0,0,0-3995.349-6226.837Z" transform="translate(4003.384 6227.23)" fill="#d8d8d8"/>
        </g>
      </g>
      <g id="그룹_6137" data-name="그룹 6137" transform="translate(846.047 7.924)">
        <g id="그룹_6128" data-name="그룹 6128">
          <path id="패스_7200" data-name="패스 7200" d="M-2028.952-6721a19.418,19.418,0,0,1-6.365,8.41c-1.66,1.313-3.645,2.959-4.82,3.744a28.756,28.756,0,0,1-3.421,1.631,7.736,7.736,0,0,1-4.828.755,13.533,13.533,0,0,1-3.32-1.645,31.175,31.175,0,0,1-3.143-2.414c-4.375-3.422-8.656-8.634-9.026-13.863-.49-6.921,1.784-15.552,9.032-15.586,7.685-.037,7.051,4.843,8.816,6.571,2.6-1.921,3.186-6.1,10.332-5.78C-2029.228-6738.882-2026.762-6727.075-2028.952-6721Z" transform="translate(2063.94 6739.964)" fill="#e266a1"/>
        </g>
        <g id="그룹_6129" data-name="그룹 6129" transform="translate(1.808 13.924)">
          <rect id="사각형_2322" data-name="사각형 2322" width="3.006" height="0.47" transform="matrix(0.844, -0.536, 0.536, 0.844, 0, 1.612)" fill="#de2146"/>
        </g>
        <g id="그룹_6130" data-name="그룹 6130" transform="translate(25.363 25.387)">
          <rect id="사각형_2323" data-name="사각형 2323" width="0.471" height="2.296" transform="translate(0 0.009) rotate(-1.07)" fill="#de2146"/>
        </g>
        <g id="그룹_6131" data-name="그룹 6131" transform="translate(28.206 19.034)">
          <rect id="사각형_2324" data-name="사각형 2324" width="0.471" height="2.427" transform="translate(0 0.384) rotate(-54.755)" fill="#ffee82"/>
        </g>
        <g id="그룹_6132" data-name="그룹 6132" transform="translate(4.472 3.423)">
          <rect id="사각형_2325" data-name="사각형 2325" width="3.007" height="0.471" transform="matrix(0.844, -0.536, 0.536, 0.844, 0, 1.61)" fill="#ffee82"/>
        </g>
        <g id="그룹_6133" data-name="그룹 6133" transform="translate(30.607 10.819)">
          <rect id="사각형_2326" data-name="사각형 2326" width="2.608" height="0.471" transform="matrix(0.682, -0.731, 0.731, 0.682, 0, 1.906)" fill="#ffee82"/>
        </g>
        <g id="그룹_6134" data-name="그룹 6134" transform="translate(10.929 8.591)">
          <rect id="사각형_2327" data-name="사각형 2327" width="0.471" height="3.007" transform="translate(0 0.442) rotate(-69.954)" fill="#ffee82"/>
        </g>
        <g id="그룹_6135" data-name="그룹 6135" transform="translate(5.04 19.318)">
          <rect id="사각형_2328" data-name="사각형 2328" width="0.471" height="2.21" transform="translate(0 0.217) rotate(-27.415)" fill="#ffee82"/>
        </g>
        <g id="그룹_6136" data-name="그룹 6136" transform="translate(26.507 4.098)">
          <rect id="사각형_2329" data-name="사각형 2329" width="0.471" height="3.006" transform="matrix(0.772, -0.636, 0.636, 0.772, 0, 0.3)" fill="#de2146"/>
        </g>
      </g>
      <path id="패스_7201" data-name="패스 7201" d="M-3319.269-6715.129a9.614,9.614,0,0,0,1.426-4.348,8.224,8.224,0,0,0-1.15-5.556,8.34,8.34,0,0,0-2.433-2.266,6.751,6.751,0,0,0,2.039.14,8.924,8.924,0,0,0,2.983-.8,8.7,8.7,0,0,0,3.582-3.393,8.8,8.8,0,0,0,1.6-4.222,8.923,8.923,0,0,0-.817-4.286,9.612,9.612,0,0,0-3.052-3.408,8.221,8.221,0,0,0-5.387-1.782,8.379,8.379,0,0,0-3.179.974,6.74,6.74,0,0,0,1.141-1.7,8.926,8.926,0,0,0,.8-2.982,8.692,8.692,0,0,0-1.147-4.8,8.809,8.809,0,0,0-2.856-3.5,8.93,8.93,0,0,0-4.121-1.435,9.6,9.6,0,0,0-4.478.938,8.224,8.224,0,0,0-4.237,3.773,8.36,8.36,0,0,0-.746,3.24,6.776,6.776,0,0,0-.9-1.837,8.96,8.96,0,0,0-2.183-2.184,8.714,8.714,0,0,0-4.729-1.405,8.82,8.82,0,0,0-4.455.726,8.925,8.925,0,0,0-3.3,2.852,9.6,9.6,0,0,0-1.426,4.348,8.22,8.22,0,0,0,1.15,5.556,8.35,8.35,0,0,0,2.433,2.266,6.783,6.783,0,0,0-2.039-.14,8.907,8.907,0,0,0-2.983.8,8.692,8.692,0,0,0-3.582,3.392,8.809,8.809,0,0,0-1.6,4.221,8.928,8.928,0,0,0,.818,4.287,9.6,9.6,0,0,0,3.052,3.408,8.225,8.225,0,0,0,5.387,1.781,8.354,8.354,0,0,0,3.178-.974,6.792,6.792,0,0,0-1.14,1.7,8.938,8.938,0,0,0-.8,2.983,8.692,8.692,0,0,0,1.147,4.8,8.8,8.8,0,0,0,2.856,3.5,8.915,8.915,0,0,0,4.121,1.436,9.609,9.609,0,0,0,4.477-.938,8.23,8.23,0,0,0,4.237-3.773,8.363,8.363,0,0,0,.745-3.239,6.787,6.787,0,0,0,.9,1.834,8.928,8.928,0,0,0,2.183,2.185,8.705,8.705,0,0,0,4.729,1.406,8.813,8.813,0,0,0,4.455-.726A8.925,8.925,0,0,0-3319.269-6715.129Zm-14.658-10.315a7.719,7.719,0,0,0-1.324,3.669,6.777,6.777,0,0,0-2.084-3.034,8.207,8.207,0,0,0-2.17-1.169,8.929,8.929,0,0,0-3.187-.9,7.731,7.731,0,0,0-3.84.688,6.774,6.774,0,0,0,1.586-3.321,8.215,8.215,0,0,0-.072-2.464,8.933,8.933,0,0,0-.816-3.21,7.732,7.732,0,0,0-2.516-2.981,6.78,6.78,0,0,0,3.67-.288,8.174,8.174,0,0,0,2.1-1.295,8.921,8.921,0,0,0,2.372-2.311,7.72,7.72,0,0,0,1.324-3.669,6.777,6.777,0,0,0,2.084,3.034,8.212,8.212,0,0,0,2.17,1.169,8.928,8.928,0,0,0,3.187.9,7.718,7.718,0,0,0,3.84-.688,6.774,6.774,0,0,0-1.585,3.323,8.209,8.209,0,0,0,.072,2.463,8.937,8.937,0,0,0,.815,3.21,7.725,7.725,0,0,0,2.516,2.981,6.783,6.783,0,0,0-3.67.287,8.26,8.26,0,0,0-2.1,1.295A8.929,8.929,0,0,0-3333.927-6725.444Z" transform="translate(3653.72 6758.501)" fill="#562c0c"/>
      <g id="그룹_6142" data-name="그룹 6142" transform="translate(1429.758 900.079)">
        <g id="그룹_6139" data-name="그룹 6139" transform="translate(0)">
          <g id="그룹_6138" data-name="그룹 6138">
            <path id="패스_7202" data-name="패스 7202" d="M-674.721-4650.3l1.354-1.4a2.539,2.539,0,0,1,3.133-.914c2.1.784,9.471,3.659,11.048,14.512s-2.345,17.343-9.46,21.907-17.24,1.734-18.674,1.188a14.942,14.942,0,0,1-8.422-9.279c-1.862-5.457-3.7-13.771-1.9-18.189a14.476,14.476,0,0,1,9.319-8.7C-684-4652.388-681.417-4653.383-674.721-4650.3Z" transform="translate(698.381 4652.82)" fill="#c07136"/>
          </g>
        </g>
        <g id="그룹_6141" data-name="그룹 6141" transform="translate(3.907 2.899)">
          <g id="그룹_6140" data-name="그룹 6140">
            <path id="패스_7203" data-name="패스 7203" d="M-668.619-4646.037s6.52,4.1,8.258,13.852-5.451,12.908-5.451,12.908-10.014,5.792-16.416-.64-4.166-12.887-4.166-12.887,1.04-7.669,12.735-7.524,6.784,13.58,6.555,13.8-6.5,6.5-12.056-.169,4.033-6.865,4.033-6.865,2.679,1.038-.439,2.038-.766,3.7-.061,3.664,6.375,2.784,6.224-3.069-4.319-7.248-7.453-6.333-8.095,3.564-6.641,9.727,5.819,7.167,10.238,6.469,9.975-1.51,10.011-7.306-1.635-9.686-4.5-11.759a14.782,14.782,0,0,0-16.725.128c-6.739,4.674-5.273,13.41-2.1,18.725s7.843,9.025,13.891,6.968,10.994-3.294,13.3-8.338,2.817-11.19-1.673-16.894S-668.619-4646.037-668.619-4646.037Z" transform="translate(689.241 4646.037)" fill="#562c0c"/>
          </g>
        </g>
      </g>
      <g id="그룹_6152" data-name="그룹 6152" transform="translate(1710.183 684.464)">
        <g id="그룹_6143" data-name="그룹 6143" transform="translate(0)">
          <path id="패스_7204" data-name="패스 7204" d="M-7.356-5138.269a19.422,19.422,0,0,1-6.366,8.409c-1.66,1.313-3.645,2.959-4.82,3.744a28.762,28.762,0,0,1-3.421,1.632,7.744,7.744,0,0,1-4.828.754,13.5,13.5,0,0,1-3.32-1.645,31.2,31.2,0,0,1-3.143-2.414c-4.375-3.423-8.656-8.634-9.026-13.864-.489-6.921,1.783-15.552,9.033-15.587,7.685-.037,7.05,4.843,8.816,6.572,2.6-1.921,3.186-6.1,10.332-5.78C-7.633-5156.156-5.167-5144.349-7.356-5138.269Z" transform="translate(42.345 5157.238)" fill="#e266a1"/>
        </g>
        <g id="그룹_6144" data-name="그룹 6144" transform="translate(1.807 13.925)">
          <rect id="사각형_2330" data-name="사각형 2330" width="3.007" height="0.471" transform="translate(0 1.61) rotate(-32.381)" fill="#de2146"/>
        </g>
        <g id="그룹_6145" data-name="그룹 6145" transform="translate(25.363 25.387)">
          <rect id="사각형_2331" data-name="사각형 2331" width="0.471" height="2.295" transform="translate(0 0.009) rotate(-1.071)" fill="#de2146"/>
        </g>
        <g id="그룹_6146" data-name="그룹 6146" transform="translate(28.206 19.034)">
          <rect id="사각형_2332" data-name="사각형 2332" width="0.471" height="2.427" transform="translate(0 0.384) rotate(-54.749)" fill="#ffee82"/>
        </g>
        <g id="그룹_6147" data-name="그룹 6147" transform="translate(4.472 3.423)">
          <rect id="사각형_2333" data-name="사각형 2333" width="3.007" height="0.471" transform="translate(0 1.611) rotate(-32.386)" fill="#ffee82"/>
        </g>
        <g id="그룹_6148" data-name="그룹 6148" transform="translate(30.606 10.82)">
          <rect id="사각형_2334" data-name="사각형 2334" width="2.608" height="0.471" transform="matrix(0.683, -0.731, 0.731, 0.683, 0, 1.905)" fill="#ffee82"/>
        </g>
        <g id="그룹_6149" data-name="그룹 6149" transform="translate(10.929 8.591)">
          <rect id="사각형_2335" data-name="사각형 2335" width="0.471" height="3.007" transform="translate(0 0.442) rotate(-69.954)" fill="#ffee82"/>
        </g>
        <g id="그룹_6150" data-name="그룹 6150" transform="translate(5.04 19.318)">
          <rect id="사각형_2336" data-name="사각형 2336" width="0.471" height="2.21" transform="translate(0 0.217) rotate(-27.427)" fill="#ffee82"/>
        </g>
        <g id="그룹_6151" data-name="그룹 6151" transform="translate(26.506 4.098)">
          <rect id="사각형_2337" data-name="사각형 2337" width="0.471" height="3.007" transform="matrix(0.772, -0.636, 0.636, 0.772, 0, 0.3)" fill="#de2146"/>
        </g>
      </g>
      <path id="패스_7205" data-name="패스 7205" d="M-1351.135-5132.4a9.606,9.606,0,0,0,1.426-4.347,8.225,8.225,0,0,0-1.15-5.556,8.362,8.362,0,0,0-2.433-2.266,6.739,6.739,0,0,0,2.039.141,8.939,8.939,0,0,0,2.983-.8,8.7,8.7,0,0,0,3.582-3.392,8.81,8.81,0,0,0,1.6-4.221,8.922,8.922,0,0,0-.817-4.287,9.614,9.614,0,0,0-3.052-3.409,8.229,8.229,0,0,0-5.387-1.782,8.361,8.361,0,0,0-3.179.975,6.779,6.779,0,0,0,1.141-1.695,8.958,8.958,0,0,0,.8-2.983,8.7,8.7,0,0,0-1.147-4.8,8.8,8.8,0,0,0-2.856-3.5,8.926,8.926,0,0,0-4.121-1.436,9.61,9.61,0,0,0-4.478.939,8.224,8.224,0,0,0-4.237,3.774,8.356,8.356,0,0,0-.745,3.239,6.771,6.771,0,0,0-.9-1.835,8.938,8.938,0,0,0-2.183-2.184,8.692,8.692,0,0,0-4.729-1.405,8.8,8.8,0,0,0-4.455.726,8.915,8.915,0,0,0-3.3,2.851,9.6,9.6,0,0,0-1.426,4.347,8.219,8.219,0,0,0,1.149,5.557,8.362,8.362,0,0,0,2.433,2.265,6.733,6.733,0,0,0-2.038-.14,8.939,8.939,0,0,0-2.983.8,8.7,8.7,0,0,0-3.582,3.392,8.815,8.815,0,0,0-1.6,4.221,8.933,8.933,0,0,0,.818,4.287,9.6,9.6,0,0,0,3.052,3.408,8.226,8.226,0,0,0,5.387,1.782,8.358,8.358,0,0,0,3.178-.974,6.761,6.761,0,0,0-1.141,1.7,8.938,8.938,0,0,0-.8,2.982,8.692,8.692,0,0,0,1.147,4.8,8.809,8.809,0,0,0,2.855,3.5,8.921,8.921,0,0,0,4.122,1.436,9.61,9.61,0,0,0,4.478-.939,8.224,8.224,0,0,0,4.237-3.773,8.37,8.37,0,0,0,.745-3.24,6.767,6.767,0,0,0,.9,1.835,8.955,8.955,0,0,0,2.183,2.185,8.7,8.7,0,0,0,4.729,1.405,8.81,8.81,0,0,0,4.454-.726A8.921,8.921,0,0,0-1351.135-5132.4Zm-14.658-10.315a7.722,7.722,0,0,0-1.324,3.67,6.774,6.774,0,0,0-2.084-3.035,8.236,8.236,0,0,0-2.17-1.169,8.963,8.963,0,0,0-3.187-.9,7.731,7.731,0,0,0-3.84.688,6.775,6.775,0,0,0,1.586-3.322,8.223,8.223,0,0,0-.072-2.464,8.952,8.952,0,0,0-.815-3.21,7.733,7.733,0,0,0-2.516-2.981,6.767,6.767,0,0,0,3.67-.288,8.225,8.225,0,0,0,2.1-1.294,8.949,8.949,0,0,0,2.371-2.312,7.725,7.725,0,0,0,1.324-3.669,6.777,6.777,0,0,0,2.085,3.034,8.216,8.216,0,0,0,2.169,1.169,8.956,8.956,0,0,0,3.188.9,7.732,7.732,0,0,0,3.84-.689,6.773,6.773,0,0,0-1.586,3.322,8.226,8.226,0,0,0,.072,2.464,8.938,8.938,0,0,0,.816,3.209,7.723,7.723,0,0,0,2.516,2.981,6.773,6.773,0,0,0-3.67.288,8.224,8.224,0,0,0-2.1,1.294A8.947,8.947,0,0,0-1365.793-5142.718Z" transform="translate(2526.87 5852.316)" fill="#562c0c"/>
      <g id="그룹_6162" data-name="그룹 6162" transform="translate(846.047 902.843)">
        <g id="그룹_6153" data-name="그룹 6153">
          <path id="패스_7206" data-name="패스 7206" d="M-2028.952-4627.385a19.421,19.421,0,0,1-6.365,8.41c-1.66,1.312-3.645,2.959-4.82,3.744a28.535,28.535,0,0,1-3.421,1.632,7.743,7.743,0,0,1-4.828.755,13.5,13.5,0,0,1-3.32-1.645,31.175,31.175,0,0,1-3.143-2.414c-4.375-3.422-8.656-8.634-9.026-13.863-.49-6.922,1.784-15.553,9.032-15.587,7.685-.037,7.051,4.843,8.816,6.572,2.6-1.921,3.186-6.1,10.332-5.781C-2029.228-4645.271-2026.762-4633.465-2028.952-4627.385Z" transform="translate(2063.94 4646.354)" fill="#e266a1"/>
        </g>
        <g id="그룹_6154" data-name="그룹 6154" transform="translate(1.808 13.924)">
          <rect id="사각형_2338" data-name="사각형 2338" width="3.006" height="0.47" transform="matrix(0.844, -0.536, 0.536, 0.844, 0, 1.612)" fill="#de2146"/>
        </g>
        <g id="그룹_6155" data-name="그룹 6155" transform="translate(25.363 25.387)">
          <rect id="사각형_2339" data-name="사각형 2339" width="0.471" height="2.295" transform="translate(0 0.009) rotate(-1.07)" fill="#de2146"/>
        </g>
        <g id="그룹_6156" data-name="그룹 6156" transform="translate(28.206 19.034)">
          <rect id="사각형_2340" data-name="사각형 2340" width="0.471" height="2.427" transform="translate(0 0.384) rotate(-54.756)" fill="#ffee82"/>
        </g>
        <g id="그룹_6157" data-name="그룹 6157" transform="translate(4.472 3.422)">
          <rect id="사각형_2341" data-name="사각형 2341" width="3.007" height="0.471" transform="translate(0 1.61) rotate(-32.387)" fill="#ffee82"/>
        </g>
        <g id="그룹_6158" data-name="그룹 6158" transform="translate(30.607 10.819)">
          <rect id="사각형_2342" data-name="사각형 2342" width="2.608" height="0.471" transform="matrix(0.682, -0.731, 0.731, 0.682, 0, 1.906)" fill="#ffee82"/>
        </g>
        <g id="그룹_6159" data-name="그룹 6159" transform="translate(10.93 8.591)">
          <rect id="사각형_2343" data-name="사각형 2343" width="0.471" height="3.007" transform="translate(0 0.442) rotate(-69.953)" fill="#ffee82"/>
        </g>
        <g id="그룹_6160" data-name="그룹 6160" transform="translate(5.04 19.318)">
          <rect id="사각형_2344" data-name="사각형 2344" width="0.471" height="2.21" transform="matrix(0.888, -0.46, 0.46, 0.888, 0, 0.217)" fill="#ffee82"/>
        </g>
        <g id="그룹_6161" data-name="그룹 6161" transform="translate(26.507 4.098)">
          <rect id="사각형_2345" data-name="사각형 2345" width="0.471" height="3.006" transform="matrix(0.772, -0.636, 0.636, 0.772, 0, 0.3)" fill="#de2146"/>
        </g>
      </g>
      <path id="패스_7207" data-name="패스 7207" d="M-3319.269-4621.518a9.612,9.612,0,0,0,1.426-4.347,8.225,8.225,0,0,0-1.15-5.556,8.348,8.348,0,0,0-2.433-2.266,6.751,6.751,0,0,0,2.039.14,8.926,8.926,0,0,0,2.983-.8,8.692,8.692,0,0,0,3.582-3.392,8.809,8.809,0,0,0,1.6-4.221,8.924,8.924,0,0,0-.817-4.287,9.614,9.614,0,0,0-3.052-3.409,8.223,8.223,0,0,0-5.387-1.782,8.363,8.363,0,0,0-3.179.974,6.766,6.766,0,0,0,1.141-1.7,8.932,8.932,0,0,0,.8-2.983,8.693,8.693,0,0,0-1.147-4.8,8.806,8.806,0,0,0-2.856-3.5,8.92,8.92,0,0,0-4.121-1.436,9.6,9.6,0,0,0-4.478.938,8.222,8.222,0,0,0-4.237,3.774,8.353,8.353,0,0,0-.746,3.239,6.768,6.768,0,0,0-.9-1.835,8.928,8.928,0,0,0-2.183-2.184,8.707,8.707,0,0,0-4.729-1.406,8.809,8.809,0,0,0-4.455.726,8.927,8.927,0,0,0-3.3,2.852,9.6,9.6,0,0,0-1.426,4.347,8.221,8.221,0,0,0,1.15,5.556,8.371,8.371,0,0,0,2.433,2.266,6.751,6.751,0,0,0-2.039-.14,8.906,8.906,0,0,0-2.983.8,8.7,8.7,0,0,0-3.582,3.392,8.809,8.809,0,0,0-1.6,4.221,8.925,8.925,0,0,0,.818,4.287,9.606,9.606,0,0,0,3.052,3.409,8.226,8.226,0,0,0,5.387,1.782,8.339,8.339,0,0,0,3.178-.975,6.785,6.785,0,0,0-1.14,1.7,8.933,8.933,0,0,0-.8,2.982,8.692,8.692,0,0,0,1.147,4.8,8.8,8.8,0,0,0,2.856,3.5,8.915,8.915,0,0,0,4.121,1.436,9.609,9.609,0,0,0,4.477-.938,8.227,8.227,0,0,0,4.237-3.773,8.366,8.366,0,0,0,.745-3.24,6.775,6.775,0,0,0,.9,1.835,8.933,8.933,0,0,0,2.183,2.184,8.7,8.7,0,0,0,4.729,1.406,8.807,8.807,0,0,0,4.455-.725A8.93,8.93,0,0,0-3319.269-4621.518Zm-14.658-10.316a7.728,7.728,0,0,0-1.324,3.67,6.777,6.777,0,0,0-2.084-3.034,8.209,8.209,0,0,0-2.17-1.169,8.949,8.949,0,0,0-3.187-.9,7.726,7.726,0,0,0-3.84.688,6.777,6.777,0,0,0,1.586-3.322,8.217,8.217,0,0,0-.072-2.464,8.938,8.938,0,0,0-.816-3.21,7.734,7.734,0,0,0-2.516-2.981,6.771,6.771,0,0,0,3.67-.289,8.2,8.2,0,0,0,2.1-1.294,8.923,8.923,0,0,0,2.372-2.311,7.722,7.722,0,0,0,1.324-3.669,6.772,6.772,0,0,0,2.084,3.034,8.242,8.242,0,0,0,2.17,1.17,8.957,8.957,0,0,0,3.187.9,7.728,7.728,0,0,0,3.84-.688,6.769,6.769,0,0,0-1.585,3.322,8.212,8.212,0,0,0,.072,2.463,8.935,8.935,0,0,0,.815,3.209,7.723,7.723,0,0,0,2.516,2.982,6.779,6.779,0,0,0-3.67.288,8.231,8.231,0,0,0-2.1,1.294A8.947,8.947,0,0,0-3333.927-4631.834Z" transform="translate(3653.72 5559.81)" fill="#562c0c"/>
      <g id="그룹_6174" data-name="그룹 6174" transform="translate(566.071 678.501)">
        <g id="그룹_6164" data-name="그룹 6164" transform="translate(0.801 0.771)">
          <g id="그룹_6163" data-name="그룹 6163">
            <path id="패스_7208" data-name="패스 7208" d="M-2678.823-5163.619c-3.708-3.733-9.429-5.72-15.072-5.766-3.443-.028-8.525.457-11.444,1.832-7.477,3.521-11.639,11.347-11.712,20.164a20.053,20.053,0,0,0,4.784,13.949c4.031,4.722,9.6,8.8,16.3,8.853,6.131.05,13.383-2.255,17.432-6.24s5.823-9.022,5.873-15.151C-2672.608-5152.6-2674.473-5159.238-2678.823-5163.619Zm-9.91,21.1a6.952,6.952,0,0,1-4.526,3.2,8.944,8.944,0,0,1-6.132-1.511,7.625,7.625,0,0,1-2.966-5.588,6.84,6.84,0,0,1,1.268-4.868,7.4,7.4,0,0,1,7.13-3.527,10.494,10.494,0,0,1,3.6,1.636,7.422,7.422,0,0,1,3.2,4.48A8.417,8.417,0,0,1-2688.733-5142.518Z" transform="translate(2717.052 5169.386)" fill="#f1b756"/>
          </g>
        </g>
        <g id="그룹_6166" data-name="그룹 6166" transform="translate(0.928 1.334)">
          <g id="그룹_6165" data-name="그룹 6165">
            <path id="패스_7209" data-name="패스 7209" d="M-2672.629-5146.3l-.205-.716c-.208-.723-.824-1.162-.21-2.229l.067-.741a6.093,6.093,0,0,0-1.212-4.232l-.45-.592a6.082,6.082,0,0,1-1-2l-.2-.715a6.1,6.1,0,0,0-2.659-3.508l-.633-.39a6.094,6.094,0,0,1-1.658-1.506l-.449-.593a4.852,4.852,0,0,0-3.237-2.193l-1.087.058a3.218,3.218,0,0,1-2.244-1.116l-.633-.39a6.086,6.086,0,0,0-4.328-.8l-.731.138a6.086,6.086,0,0,1-2.239,0l-.732-.135a6.091,6.091,0,0,0-4.325.816l-.632.393a6.061,6.061,0,0,1-2.086.812l-.731.139c-1.492.282-3.229.068-4.142,1.282l-.609,1.656c-.452.6-.447,1.095-1.086,1.491l-.632.393c-1.153.717-1.236,1.361-1.536,2.534a1.714,1.714,0,0,1-.417.756l-.588.62a1.945,1.945,0,0,0-.424.692,6.112,6.112,0,0,1-.877,1.638l-.448.594a6.093,6.093,0,0,0-1.2,4.236l.07.741a6.07,6.07,0,0,1-.2,2.23l-.2.716a5.022,5.022,0,0,0,.4,3.833,1.742,1.742,0,0,1,.115.31l.142.544a4.522,4.522,0,0,0,.231.652,6.1,6.1,0,0,1,.48,1.86l.07.742a6.088,6.088,0,0,0,1.969,3.936l.551.5a6.074,6.074,0,0,1,1.352,1.784l.333.666a6.094,6.094,0,0,0,3.259,2.959l.694.268c.7.271,1.219.058,1.776.563l.76.773a6.268,6.268,0,0,0,4.027,1.921h.744a6.086,6.086,0,0,1,2.2.407l.694.267a6.087,6.087,0,0,0,3.844.179,1.651,1.651,0,0,0,.866-.591l.428-.56a.815.815,0,0,1,1.065-.212,2.188,2.188,0,0,0,1.092.491h.744a6.093,6.093,0,0,0,4.1-1.6l.549-.5a6.1,6.1,0,0,1,1.9-1.182l.693-.271a6.088,6.088,0,0,0,3.248-2.972l.331-.666c.334-.675.76-.732,1.315-1.24l.581-.47a.912.912,0,0,1,.57-.208c2.375-.008,1.252-2.863,1.384-4.318l.067-.741a6.082,6.082,0,0,1,.609-2.154l.331-.667A6.09,6.09,0,0,0-2672.629-5146.3Zm-13.752,2.7-.153.253a2.413,2.413,0,0,0-.312.834l-.051.292a2.426,2.426,0,0,1-.905,1.5l-.234.182a2.4,2.4,0,0,0-.593.666l-.154.253a2.422,2.422,0,0,1-1.385,1.071l-.284.085a1.281,1.281,0,0,0-.927.37l-.271.338a1.931,1.931,0,0,1-1.509.378l-.3-.024a2.45,2.45,0,0,0-.887.092l-.283.085a2.427,2.427,0,0,1-1.747-.142l-.267-.128a2.412,2.412,0,0,0-.859-.235l-.3-.024a2.423,2.423,0,0,1-1.577-.763l-.2-.216c-.154-.465-.448-.4-.717-.529l-.267-.129a2.42,2.42,0,0,1-1.195-1.281l-.11-.275a2.444,2.444,0,0,0-.477-.752l-.2-.216c-.4-.425-1.542-.849-.914-1.556a.368.368,0,0,0,.09-.224l.014-.3c0-.3.093-.441-.019-.719l-.11-.275a2.426,2.426,0,0,1-.02-1.751l.1-.277a2.422,2.422,0,0,0,.154-.877l0-.3a2.425,2.425,0,0,1,.614-1.64l.2-.221a.878.878,0,0,1,.436-.194.325.325,0,0,0,.22-.372l-.053-.275a.666.666,0,0,1,.054-.415,2.419,2.419,0,0,1,1.073-1.092l.263-.135a2.436,2.436,0,0,0,.705-.545l.2-.221a2.5,2.5,0,0,1,1.639-.685l.431-.021c.3-.032.372-.241.639-.377l.263-.135a2.424,2.424,0,0,1,1.742-.182l.286.078a2.423,2.423,0,0,0,.888.071l.294-.03a2.422,2.422,0,0,1,1.691.459l.238.176a2.441,2.441,0,0,0,.68.351,1.735,1.735,0,0,1,.255.1l.2.1a.619.619,0,0,0,.123.049,2,2,0,0,1,1.242.9l.159.25a2.438,2.438,0,0,0,.607.651l.239.176a2.421,2.421,0,0,1,.939,1.479l.058.29a2.438,2.438,0,0,0,.253.695.784.784,0,0,1,.094.31l.028.338a.682.682,0,0,0,.114.325,1.278,1.278,0,0,1,.344,1.128l-.051.292c-.052.295.1.424.154.718l.33.62C-2685.544-5144.574-2686.068-5144.115-2686.381-5143.6Z" transform="translate(2716.755 5168.068)" fill="#ffe9ca"/>
          </g>
        </g>
        <g id="그룹_6173" data-name="그룹 6173">
          <g id="그룹_6170" data-name="그룹 6170" transform="translate(17.059 3.902)">
            <g id="그룹_6167" data-name="그룹 6167">
              <path id="패스_7210" data-name="패스 7210" d="M-2651.888-5152.369a.878.878,0,0,0-1.2-.331l-10.413,5.9c.934-.892,1.921-1.819,2.8-2.643,1.615-1.517,3.284-3.087,4.489-4.282.659-.654,1.138-1.154,1.462-1.529.388-.448.921-1.063.549-1.718a.877.877,0,0,0-.575-.425.877.877,0,0,0-.7.146c-.03.021-3.026,2.173-6.269,4.282-2.369,1.539-4.007,2.5-5.133,3.092,1.455-1.513,3.387-3.556,5.022-5.486,3.345-3.952,3.693-5.358,3.187-6.251a.88.88,0,0,0-.572-.424.876.876,0,0,0-.7.141c-.039.027-3.947,2.789-8.135,5.479-7.091,4.557-9.041,5.1-9.521,5.149a.877.877,0,0,0-.979-.077.878.878,0,0,0-.331,1.2,1.25,1.25,0,0,0,.834.6c.572.128,1.557.046,4.518-1.534,1.652-.881,3.767-2.149,6.287-3.764,2.176-1.4,4.289-2.818,5.843-3.882-.478.662-1.149,1.516-2.09,2.61-1.91,2.222-4.184,4.573-5.543,5.978-.228.235-.424.438-.594.616a2.943,2.943,0,0,1,.895.64,3,3,0,0,1,1.129.922c.062.047.123.1.181.15.045.033.089.066.132.1.4-.177.866-.4,1.419-.7,1.14-.608,2.551-1.448,4.2-2.5l-.209.2c-1.575,1.48-3.2,3-4.443,4.233.038.083.072.167.1.253a3.284,3.284,0,0,1,.335.707,3.289,3.289,0,0,1,.627,1.752l13.059-7.4A.878.878,0,0,0-2651.888-5152.369Z" transform="translate(2679.016 5162.061)" fill="#562c0c"/>
            </g>
            <g id="그룹_6168" data-name="그룹 6168" transform="translate(1.64 11.042)">
              <path id="패스_7211" data-name="패스 7211" d="M-2675.18-5136.229h0Z" transform="translate(2675.18 5136.229)" fill="#562c0c"/>
            </g>
            <g id="그룹_6169" data-name="그룹 6169" transform="translate(18.779 1.179)">
              <path id="패스_7212" data-name="패스 7212" d="M-2635.084-5159.3Z" transform="translate(2635.084 5159.302)" fill="#562c0c"/>
            </g>
          </g>
          <g id="그룹_6172" data-name="그룹 6172">
            <g id="그룹_6171" data-name="그룹 6171">
              <path id="패스_7213" data-name="패스 7213" d="M-2682.9-5168.311a1.5,1.5,0,0,0-1-.721c-1.078-.255-3.411.114-11.957,5.287-5.29,3.2-11.381,7.282-15.828,10.262l-1.417.949q1.311-1.036,3.021-2.289c4.053-2.97,9.121-6.372,13.192-9.1,2.28-1.53,4.249-2.852,5.659-3.84.759-.532,1.306-.932,1.674-1.224a5.662,5.662,0,0,0,.5-.434.981.981,0,0,0,.248-1.229,1.04,1.04,0,0,0-.658-.493c-.616-.156-1.661-.011-7.592,3.449-3.562,2.077-7.885,4.765-11.7,7.137-1.605,1-3.232,2.01-4.64,2.873,1.773-1.852,3.959-4.069,5.573-5.706,1.218-1.235,2.27-2.3,3.046-3.1.417-.43.719-.749.925-.975.355-.388.757-.829.428-1.411a.883.883,0,0,0-.532-.414c-.352-.1-.566.021-.954.235-.187.1-.45.25-.765.428-.552.312-1.319.746-2.278,1.293-1.65.939-3.294,1.882-3.294,1.882a.877.877,0,0,0-.324,1.2.877.877,0,0,0,1.2.326l1.436-.824-.133.136c-1.971,2-4.206,4.265-5.955,6.106-.963,1.013-1.669,1.781-2.158,2.35-.71.822-1.222,1.417-.85,2.075a.906.906,0,0,0,.563.429c.38.1.707-.029,1.5-.457.469-.254,1.117-.63,1.982-1.15,1.612-.968,3.823-2.343,6.163-3.8,2.286-1.42,4.763-2.961,7.145-4.413-3.731,2.515-7.834,5.318-11.165,7.792a58.163,58.163,0,0,0-5.163,4.188c-1.257,1.195-2.337,2.446-1.737,3.507a.9.9,0,0,0,.574.43c.436.1.7.009,2.721-1.3,1.194-.774,2.841-1.877,4.749-3.155,4.489-3.008,10.636-7.125,15.932-10.323,1.75-1.056,3.307-1.952,4.66-2.678-3.257,1.995-7.439,4.619-11.521,7.358a120.665,120.665,0,0,0-11.558,8.563c-3.8,3.315-5.105,5.475-4.239,7a.9.9,0,0,0,.542.419.946.946,0,0,0,.229.033,2.67,2.67,0,0,0,1.126-.424c.406-.209.98-.521,1.708-.925,1.216-.677,2.883-1.627,4.953-2.824s4.155-2.414,5.517-3.212a2.642,2.642,0,0,1,.273-1.166q-.006-.068-.009-.138a2.325,2.325,0,0,1,.19-1c-4.031,2.373-9.98,5.83-12.651,7.287a18.088,18.088,0,0,1,3.511-3.735,119.021,119.021,0,0,1,11.379-8.425c8.458-5.677,17.356-10.861,17.445-10.912A.879.879,0,0,0-2682.9-5168.311Z" transform="translate(2718.925 5171.189)" fill="#562c0c"/>
            </g>
          </g>
        </g>
      </g>
      <g id="그룹_6184" data-name="그룹 6184" transform="translate(0 684.464)">
        <g id="그룹_6175" data-name="그룹 6175">
          <path id="패스_7214" data-name="패스 7214" d="M-4008.228-5138.269a19.424,19.424,0,0,1-6.365,8.409c-1.66,1.313-3.646,2.959-4.821,3.744a28.755,28.755,0,0,1-3.42,1.632,7.744,7.744,0,0,1-4.828.754,13.52,13.52,0,0,1-3.321-1.645,31.207,31.207,0,0,1-3.143-2.414c-4.375-3.423-8.657-8.634-9.026-13.864-.49-6.921,1.783-15.552,9.032-15.587,7.686-.037,7.051,4.843,8.816,6.572,2.6-1.921,3.187-6.1,10.333-5.78C-4008.5-5156.156-4006.039-5144.349-4008.228-5138.269Z" transform="translate(4043.216 5157.238)" fill="#e266a1"/>
        </g>
        <g id="그룹_6176" data-name="그룹 6176" transform="translate(1.807 13.925)">
          <rect id="사각형_2346" data-name="사각형 2346" width="3.006" height="0.471" transform="translate(0 1.61) rotate(-32.381)" fill="#de2146"/>
        </g>
        <g id="그룹_6177" data-name="그룹 6177" transform="translate(25.363 25.387)">
          <rect id="사각형_2347" data-name="사각형 2347" width="0.471" height="2.295" transform="translate(0 0.009) rotate(-1.071)" fill="#de2146"/>
        </g>
        <g id="그룹_6178" data-name="그룹 6178" transform="translate(28.205 19.034)">
          <rect id="사각형_2348" data-name="사각형 2348" width="0.471" height="2.427" transform="translate(0 0.384) rotate(-54.749)" fill="#ffee82"/>
        </g>
        <g id="그룹_6179" data-name="그룹 6179" transform="translate(4.471 3.423)">
          <rect id="사각형_2349" data-name="사각형 2349" width="3.006" height="0.471" transform="translate(0 1.61) rotate(-32.386)" fill="#ffee82"/>
        </g>
        <g id="그룹_6180" data-name="그룹 6180" transform="translate(30.606 10.819)">
          <rect id="사각형_2350" data-name="사각형 2350" width="2.608" height="0.471" transform="matrix(0.682, -0.731, 0.731, 0.682, 0, 1.907)" fill="#ffee82"/>
        </g>
        <g id="그룹_6181" data-name="그룹 6181" transform="translate(10.929 8.591)">
          <rect id="사각형_2351" data-name="사각형 2351" width="0.471" height="3.006" transform="translate(0 0.442) rotate(-69.951)" fill="#ffee82"/>
        </g>
        <g id="그룹_6182" data-name="그룹 6182" transform="translate(5.04 19.318)">
          <rect id="사각형_2352" data-name="사각형 2352" width="0.471" height="2.21" transform="translate(0 0.217) rotate(-27.416)" fill="#ffee82"/>
        </g>
        <g id="그룹_6183" data-name="그룹 6183" transform="translate(26.506 4.098)">
          <rect id="사각형_2353" data-name="사각형 2353" width="0.471" height="3.007" transform="matrix(0.772, -0.636, 0.636, 0.772, 0, 0.3)" fill="#de2146"/>
        </g>
      </g>
    </g>
  </g>
</svg>
