<svg xmlns="http://www.w3.org/2000/svg" viewBox="0 0 1183.19 1223.7"><defs><style>.cls-1{fill:#ea4f51;}</style></defs><title>Asset 17</title><g id="Layer_2" data-name="Layer 2"><g id="Layer_1-2" data-name="Layer 1"><path class="cls-1" d="M597.61,71.67a13.86,13.86,0,0,1-1.38-1.34l-.11-.1c-2-1.35-3.7-1.78-5.3-1.32-3.29,1-5.27,5.59-7.57,11C579.87,87.76,576,96.72,567,97.32c-10.35.7-18.35-2.6-23.76-9.8s-7.15-17-7.6-23.9c-.7-10.39,1.32-20.95,5.54-29,5.19-9.89,13.46-15.49,23.9-16.18,5.49-.37,10.15.45,13.45,2.36,3.81,2.19,5.9,5.82,6.23,10.78a13.66,13.66,0,0,1-.91,6.84c-1.06,2.21-3,3.37-5.88,3.56l-.72,0C575.85,35.21,574.92,31.47,567,32c-5.57.37-7.32,4.08-7.1,7.42.38,5.62,6.41,13.08,15.39,12.49,12.93-.87,22.35-12,21.46-25.46-.56-8.33-4.14-14.41-10.65-18C580.52,5.27,573,4,563.71,4.63a50.65,50.65,0,0,0-37.42,20.14,60,60,0,0,0-11.78,39.82c1.71,25.65,19.17,42.83,43,42.83,1.11,0,2.23,0,3.37-.12,21.53-1.43,34.73-16.94,39.91-31l0-.1v-.11C600.66,74.41,599,72.89,597.61,71.67Z"/><path class="cls-1" d="M656,.83l-.6.08.19.57c4.17,13,9.55,50.19-1.92,64.72-3.57,4.53-8.53,6.58-14.75,6.11-6-.46-10.52-2.68-13.32-6.59-7.61-10.68-2-32.14,2.11-47.81,1.57-6,2.92-11.15,3.29-14.7l.06-.58-23.31,1.5.61.75c3.34,4.12,1.5,21.82.41,32.39-.34,3.3-.61,5.91-.66,7.36-.76,17.39,7.32,36.64,32.31,38.53,1.35.1,2.66.15,3.94.15,9,0,16.36-2.49,22-7.43C680.54,63.52,682,38.51,683.26,16.45c.31-5.47.61-10.63,1.1-15.3l0-.51-.51,0C672.4-.27,663.8-.2,656,.83Z"/><path class="cls-1" d="M759.4,17.08c-17.8-14.3-50.71-13.65-59.27-9.54l-.28.14-.07,10.56,5.22.26c-.92,7.09-1.65,14.63-2.41,22.6-2.49,25.89-5.31,55.23-16.35,72.16l-.39.6.69.16a68.67,68.67,0,0,1,13.33,5.14c2.5,1.18,4.87,2.3,7.32,3.22l.51.19.15-.52c3.79-13.15,4.35-22.58,4.84-30.91a89.6,89.6,0,0,1,1.55-14,25.52,25.52,0,0,1,.64-2.54A45.81,45.81,0,0,0,720.2,76c20.35,4.43,43.77-3.26,49.16-26.55C772.55,35.84,769.2,25,759.4,17.08Zm-9,24.81c-.1.46-.16.93-.22,1.38s-.09.74-.16,1.06c-1.56,7.11-5.19,13-10.23,16.63-5.23,3.74-11.64,4.93-18.55,3.42A30.68,30.68,0,0,1,716.82,63l4-46.64c10.65-.8,19.74,2,25,7.61C750,28.5,751.57,34.53,750.41,41.89Z"/><path class="cls-1" d="M885.2,151.79c.74-1.56,0-3.7-.61-5.42a13.17,13.17,0,0,1-.55-1.85l0-.14c-1.07-2.14-2.38-3.35-4-3.72-3.35-.76-7.32,2.33-11.93,5.91-6.79,5.28-14.48,11.26-22.69,7.4-9.4-4.41-14.79-11.17-16-20.09s2-18.34,4.93-24.6c4.42-9.42,11.31-17.68,18.89-22.67,9.33-6.14,19.28-7,28.75-2.57,5,2.34,8.67,5.31,10.63,8.58,2.27,3.77,2.34,8,.23,12.45-2.84,6.05-6.43,8-11,5.82l-.66-.31c2.1-6.66,3.11-10.39-4.1-13.77-3.58-1.68-6-.87-7.4.11-2.42,1.68-3.72,5.19-3.38,9.15a14.6,14.6,0,0,0,8.4,12.17,22.41,22.41,0,0,0,18.11.53,24.47,24.47,0,0,0,13-12.4c3.56-7.57,3.37-14.62-.57-21-3.36-5.42-9.33-10.18-17.75-14.13a50.62,50.62,0,0,0-42.5-.51A60,60,0,0,0,815.31,99.9c-11.45,24.36-3.29,49,19.83,59.82A43.59,43.59,0,0,0,853.8,164c12.46,0,23.63-5.41,31.28-12Z"/><path class="cls-1" d="M935.89,215.09l.07-.66c3.34-29.89,28.83-74.7,36.19-85.47l8.65,3.38L985.23,121l-.41-.2c-56.35-27.88-56.59-27.54-57.05-26.84l-5.07,13.8,5.61,2.64c-14.19,24.34-44.2,55.93-55.71,63l-.51.31L884,187l28.12-26.28,19.53,9.43-14.78,36.91Zm3.86-95.3a6.24,6.24,0,0,1,1,.38l.13.06a126.19,126.19,0,0,1,14.34,7.33c-2.89,4.45-5.6,8.92-8.23,13.26s-5.37,8.88-8.24,13.27l-.08.11c-8.29-4.06-14-7.12-15.48-8.37Z"/><path class="cls-1" d="M1110.75,239.78a335.5,335.5,0,0,1-37.36-36.49l-.35-.4-7.75,7.8h0c-20,20.3-42.55,43.32-68.7,54.26l-.15.06c.86-3.3,1.8-6.54,2.72-9.72,3.18-10.93,6.19-21.25,5.33-32.3l-.16-.85-.08-1.25c-.8-7.69-1.62-15.64-4.2-23.32,1.75-.81,3.51-1.68,5.36-2.6,8.74-4.33,17.77-8.82,26.83-6.77-3.41,4.88-4.25,12.07.25,16a11.78,11.78,0,0,0,11.07,2.61,19.62,19.62,0,0,0,9.64-6.13,11.57,11.57,0,0,0,1.35-1.76c3.77-5.47,7.6-12.55,3.64-18.76l-1.4-1.25c-5.47-4.8-13-6.27-20.55-4-15.49,4.91-28.31,8.77-40.22,12.1,11.48-16.32,21.89-27.3,33.62-35.5l1.28-1.43-.37-.33c-7.21-6.33-12.84-11-18.27-15.05l-.4-.31-.3.41c-.52.7-1,1.43-1.51,2.16s-1,1.44-1.5,2.15c-20.53,29.57-41.77,60.14-73.31,78.8l-.57.34.48.46c6.15,5.77,12.51,11.74,19.13,17.34l.62.53.19-.79c2.83-12.11,12-20.92,20.91-29.43,3-2.89,6.12-5.87,8.92-8.92,0,.3.08.61.12.91a33.65,33.65,0,0,1,.41,5.06c-.36,10.83-2.31,22.11-4.37,34-5.51,31.89-11.2,64.87,14.64,89.08a102.61,102.61,0,0,0,26.47,18.17,40.12,40.12,0,0,0,16.12,4,17.9,17.9,0,0,0,6.28-1,10.53,10.53,0,0,0,6.12-5.76c3.23-7.49-.9-13.57-5.84-16.76s-10.33-3.64-12.54-1.21c-1.29,1.42-2.48,5,3.83,13.23-6.45,2.87-16.6-2-30.21-14.36-15.07-13.65-13.78-36.09-11.66-48.25.54-3.05,1.23-6,2-8.95l.12.14c6,6.83,15.23,15.82,24.18,24.52s18.16,17.65,24.11,24.44l.31.35,16.14-11.87-.92-.3c-9.58-3.13-26.76-19.22-35.9-29.65l-1.28-1.46c4.07-6.52,17-20.39,23.37-22.24,7.3,5,15.3,11.38,19.59,20.88l.3.66L1078,259.53l-.57-.33a45.75,45.75,0,0,1-19.4-20.7c.69-.61,3-2.4,4.46-3.47,6.43-4.35,10.77-7.18,12.32-8,3.11,2.27,8.78,9,14.26,15.53,2.26,2.68,4.39,5.21,6.35,7.46l1.17,1.33,14.6-11.15Z"/><path class="cls-1" d="M1067.06,295.81a5.94,5.94,0,0,1-4.82-2.47q-1.73-2.38-3.46-4.75a5.94,5.94,0,0,1,9.56-7c1.19,1.61,2.37,3.22,3.54,4.85a5.94,5.94,0,0,1-4.82,9.41Z"/><path class="cls-1" d="M591.64,1223.7c-2.83,0-5.64,0-8.45,0a5.94,5.94,0,1,1,.17-11.88q4.13.06,8.27.06H595a5.79,5.79,0,0,1,6,5.9,5.94,5.94,0,0,1-5.91,6Zm56.24-2.66a5.94,5.94,0,0,1-.56-11.86q5.8-.54,11.58-1.21a5.94,5.94,0,1,1,1.36,11.8q-5.88.68-11.82,1.24Zm-117.42-.49-.62,0c-3.94-.42-7.88-.86-11.8-1.35a5.94,5.94,0,1,1,1.46-11.79q5.76.72,11.57,1.32a5.94,5.94,0,0,1-.61,11.85Zm181.35-9.19a5.94,5.94,0,0,1-1.21-11.75q5.71-1.18,11.37-2.49a5.94,5.94,0,1,1,2.67,11.57q-5.79,1.33-11.61,2.55A6.38,6.38,0,0,1,711.81,1211.36Zm-245.19-1a6.08,6.08,0,0,1-1.27-.13q-5.82-1.28-11.59-2.65a5.94,5.94,0,1,1,2.76-11.55q5.66,1.35,11.35,2.59a5.94,5.94,0,0,1-1.25,11.74Zm307.66-15.67a5.94,5.94,0,0,1-1.85-11.58q5.55-1.82,11-3.74a5.94,5.94,0,1,1,3.93,11.21q-5.61,2-11.26,3.82A6,6,0,0,1,774.28,1194.66Zm-370-1.56a6,6,0,0,1-1.9-.31q-5.65-1.9-11.26-3.93a5.94,5.94,0,0,1,4-11.17q5.49,2,11,3.85a5.94,5.94,0,0,1-1.9,11.56Zm430.22-22a5.95,5.95,0,0,1-2.47-11.35c3.53-1.6,7-3.25,10.51-4.92a5.94,5.94,0,1,1,5.15,10.7q-5.33,2.57-10.73,5A5.94,5.94,0,0,1,834.5,1171.14ZM344.2,1169a5.91,5.91,0,0,1-2.51-.56q-5.4-2.52-10.75-5.14a5.94,5.94,0,0,1,5.25-10.66q5.24,2.57,10.52,5A5.94,5.94,0,0,1,344.2,1169Zm547.52-27.93a5.94,5.94,0,0,1-3.05-11q5-3,9.91-6.06a5.94,5.94,0,1,1,6.3,10.07q-5,3.14-10.12,6.18A5.81,5.81,0,0,1,891.72,1141.1Zm-604.55-2.64a5.88,5.88,0,0,1-3.09-.87q-5.08-3.1-10.1-6.3a5.94,5.94,0,1,1,6.39-10q4.9,3.13,9.89,6.17a5.94,5.94,0,0,1-3.09,11Zm658.12-33.54a5.94,5.94,0,0,1-3.59-10.67q4.63-3.51,9.19-7.12a5.94,5.94,0,1,1,7.37,9.32q-4.65,3.67-9.38,7.27A6,6,0,0,1,945.29,1104.92Zm-711.42-3.13a6,6,0,0,1-3.63-1.24q-4.71-3.65-9.33-7.37a5.94,5.94,0,1,1,7.44-9.25q4.54,3.66,9.15,7.22a5.94,5.94,0,0,1-3.63,10.64Zm760.71-38.72a5.94,5.94,0,0,1-4.09-10.25q4.23-4,8.37-8.09a5.94,5.94,0,1,1,8.34,8.45q-4.23,4.18-8.54,8.27A6,6,0,0,1,994.58,1063.07Zm-809.65-3.58a5.89,5.89,0,0,1-4.12-1.67q-4.27-4.12-8.47-8.33a5.94,5.94,0,1,1,8.42-8.38q4.11,4.13,8.3,8.17a5.94,5.94,0,0,1-4.13,10.21ZM1039,1016.07a5.93,5.93,0,0,1-4.53-9.77q3.76-4.45,7.43-9a5.94,5.94,0,0,1,9.22,7.49q-3.73,4.62-7.58,9.16A5.93,5.93,0,0,1,1039,1016.07Zm-898-4a5.9,5.9,0,0,1-4.57-2.15q-3.8-4.56-7.5-9.2a5.94,5.94,0,0,1,9.29-7.41q3.63,4.54,7.34,9a5.93,5.93,0,0,1-.77,8.36A5.87,5.87,0,0,1,140.94,1012.1ZM1078,964.47a5.94,5.94,0,0,1-4.93-9.26q3.26-4.83,6.41-9.74a5.94,5.94,0,1,1,10,6.43q-3.23,5-6.54,9.94A5.92,5.92,0,0,1,1078,964.47Zm-975.58-4.3a5.93,5.93,0,0,1-5-2.67q-3.27-4.95-6.43-10a5.94,5.94,0,0,1,10-6.34q3.1,4.9,6.3,9.76a5.93,5.93,0,0,1-5,9.21Zm1008.66-51.3a5.94,5.94,0,0,1-5.26-8.69q2.71-5.16,5.3-10.39a5.94,5.94,0,1,1,10.64,5.28q-2.65,5.34-5.41,10.61A5.94,5.94,0,0,1,1111.07,908.87ZM69.84,904.34a5.93,5.93,0,0,1-5.29-3.24q-2.7-5.26-5.29-10.6a5.94,5.94,0,1,1,10.68-5.19q2.53,5.22,5.18,10.39a5.93,5.93,0,0,1-5.28,8.64Zm1068-54.39a6,6,0,0,1-2.15-.4,5.94,5.94,0,0,1-3.39-7.69q2.12-5.45,4.12-10.93a5.94,5.94,0,0,1,11.16,4.07q-2.05,5.61-4.2,11.16A6,6,0,0,1,1137.82,850ZM43.65,845.27a5.94,5.94,0,0,1-5.56-3.84Q36,835.88,34,830.27a5.94,5.94,0,0,1,11.19-4q2,5.51,4,10.94a5.94,5.94,0,0,1-3.45,7.65A6,6,0,0,1,43.65,845.27Zm1114.2-56.84a6.16,6.16,0,0,1-1.52-.2,5.94,5.94,0,0,1-4.22-7.27c1-3.74,2-7.51,2.87-11.28a5.94,5.94,0,1,1,11.54,2.81q-1.41,5.78-2.93,11.52A5.94,5.94,0,0,1,1157.85,788.43ZM24.15,783.61a5.94,5.94,0,0,1-5.75-4.47q-1.47-5.75-2.83-11.54a5.94,5.94,0,0,1,11.57-2.71q1.32,5.67,2.77,11.31a5.93,5.93,0,0,1-4.28,7.22A5.84,5.84,0,0,1,24.15,783.61ZM1170.92,725.1a5.3,5.3,0,0,1-.88-.07,5.94,5.94,0,0,1-5-6.75q.86-5.74,1.6-11.53a5.94,5.94,0,1,1,11.78,1.51q-.75,5.91-1.63,11.77A5.94,5.94,0,0,1,1170.92,725.1ZM11.62,720.17a5.94,5.94,0,0,1-5.87-5.11q-.82-5.87-1.54-11.78A5.94,5.94,0,0,1,16,701.86q.69,5.79,1.5,11.55a5.88,5.88,0,0,1-5.89,6.76Zm1165.3-59.45h-.23a5.94,5.94,0,0,1-5.71-6.16q.23-5.81.33-11.64a5.94,5.94,0,0,1,11.88.22q-.12,6-.34,11.88A5.93,5.93,0,0,1,1176.92,660.72Zm-1170.75-5A5.94,5.94,0,0,1,.24,650Q.06,644.06,0,638.12a5.94,5.94,0,0,1,5.88-6,6,6,0,0,1,6,5.88c0,3.89.11,7.76.23,11.63a5.93,5.93,0,0,1-5.76,6.11Zm1169.69-59.7a5.94,5.94,0,0,1-5.91-5.52q-.42-5.82-.94-11.59a5.94,5.94,0,1,1,11.83-1.08q.54,5.89,1,11.83a6,6,0,0,1-5.51,6.35ZM7.76,591.11H7.29a5.94,5.94,0,0,1-5.45-6.39q.46-5.94,1.05-11.84A5.94,5.94,0,0,1,14.71,574q-.57,5.79-1,11.6A6,6,0,0,1,7.76,591.11Zm1160-59.2a5.94,5.94,0,0,1-5.83-4.87q-1-5.73-2.21-11.42a5.94,5.94,0,1,1,11.64-2.38q1.19,5.81,2.25,11.66a5.94,5.94,0,0,1-4.77,6.91A5.64,5.64,0,0,1,1167.76,531.91ZM16.41,527a5.32,5.32,0,0,1-1.12-.11A5.93,5.93,0,0,1,10.57,520q1.13-5.84,2.36-11.65a5.94,5.94,0,0,1,11.62,2.47q-1.22,5.7-2.31,11.42A6,6,0,0,1,16.41,527Zm1136.21-58a5.94,5.94,0,0,1-5.69-4.23q-1.68-5.58-3.46-11.11a5.94,5.94,0,0,1,11.3-3.65q1.83,5.65,3.54,11.34a5.94,5.94,0,0,1-5.69,7.65ZM32.1,464.28a5.93,5.93,0,0,1-5.68-7.7q1.77-5.7,3.65-11.35A5.94,5.94,0,0,1,41.34,449q-1.85,5.53-3.57,11.12A5.94,5.94,0,0,1,32.1,464.28Zm1098.48-56a5.93,5.93,0,0,1-5.46-3.61q-2.28-5.36-4.68-10.66a5.94,5.94,0,0,1,10.83-4.88q2.45,5.42,4.77,10.88a5.93,5.93,0,0,1-3.13,7.79A5.82,5.82,0,0,1,1130.58,408.26ZM54.67,403.63a5.87,5.87,0,0,1-2.37-.5,5.94,5.94,0,0,1-3.07-7.82q2.39-5.46,4.88-10.87a5.94,5.94,0,0,1,10.79,5q-2.45,5.29-4.78,10.65A6,6,0,0,1,54.67,403.63Zm1047.27-53.35a5.93,5.93,0,0,1-5.17-3q-2.87-5.07-5.83-10.08a5.94,5.94,0,1,1,10.22-6.05q3,5.12,5.95,10.29a5.94,5.94,0,0,1-5.17,8.86ZM83.83,345.87a6,6,0,0,1-3-.79A6,6,0,0,1,78.69,337q3-5.16,6-10.25a5.94,5.94,0,0,1,10.17,6.14q-3,5-5.93,10A5.94,5.94,0,0,1,83.83,345.87Zm35.36-54.18a5.93,5.93,0,0,1-4.78-9.45q3.51-4.8,7.13-9.52a5.94,5.94,0,1,1,9.43,7.22q-3.54,4.62-7,9.33A5.93,5.93,0,0,1,119.19,291.69Zm41.09-50a5.93,5.93,0,0,1-4.37-9.95q4-4.38,8.13-8.68a5.94,5.94,0,0,1,8.59,8.21q-4,4.22-8,8.5A5.9,5.9,0,0,1,160.28,241.73Zm46.32-45.14a5.94,5.94,0,0,1-3.91-10.42q4.47-3.9,9-7.72a5.94,5.94,0,0,1,7.63,9.1q-4.46,3.75-8.85,7.57A5.86,5.86,0,0,1,206.6,196.59Zm51-39.79a5.94,5.94,0,0,1-3.4-10.81q4.88-3.39,9.81-6.68a5.94,5.94,0,1,1,6.59,9.89q-4.84,3.23-9.62,6.54A5.87,5.87,0,0,1,257.58,156.8Zm55-33.93a5.94,5.94,0,0,1-2.84-11.16q5.21-2.82,10.48-5.55a5.94,5.94,0,0,1,5.45,10.55q-5.16,2.67-10.27,5.44A5.89,5.89,0,0,1,312.61,122.87ZM371,95.23a5.94,5.94,0,0,1-2.24-11.44q5.47-2.24,11-4.35a5.94,5.94,0,1,1,4.26,11.09q-5.43,2.09-10.8,4.26A5.87,5.87,0,0,1,371,95.23Zm61.11-21a5.94,5.94,0,0,1-1.61-11.65Q436.22,61,442,59.48A5.94,5.94,0,0,1,445,71q-5.62,1.45-11.21,3A6,6,0,0,1,432.14,74.24Z"/><path class="cls-1" d="M496.28,60a5.94,5.94,0,0,1-.95-11.8l5.92-.94A5.94,5.94,0,0,1,503.06,59l-5.82.92A6.22,6.22,0,0,1,496.28,60Z"/></g></g></svg>