<svg xmlns="http://www.w3.org/2000/svg" viewBox="0 0 1183.25 1222.94"><defs><style>.cls-1{fill:#f8a922;}</style></defs><title>Asset 16</title><g id="Layer_2" data-name="Layer 2"><g id="Layer_1-2" data-name="Layer 1"><path class="cls-1" d="M565.65,1C549-2.12,532.37,2.62,516.28,7.22l-4.61,1.3.07,13,13.64-.89c3.16,6.86,6.06,58.62,6.28,69.5l-8.22,1.71,2.33,17.07.34.07a24.45,24.45,0,0,0,4.66.36c.94,0,1.7,0,2,0,20-1.3,37.58-8.53,49.48-20.35C595,76.26,601,59,599.71,38.91,598.5,20.38,584.18,4.45,565.65,1Zm9,67.58c-4.09,8.24-12.17,18.27-27.51,19.27l-1.83.12c-1.47-16.49-2.68-32.36-3.92-51.36L540.2,19c5.29-.76,8.4-1.09,13-1.4,15.94-1,26.37,6.77,27.25,20.37C581,46,579.75,58.2,574.6,68.59Z"/><path class="cls-1" d="M683.88,23.84c-6.13-7.94-15-12.5-26.52-13.56-24.71-2.27-41,16.45-44.27,36.11C610,64.61,617.16,86.63,640,94.78l.12,0c.58,0,2.28.25,4,.44s3.26.37,3.83.42c1.48.14,2.92.2,4.33.2,22.85,0,36.08-17.44,39.15-35.66C693.71,46.3,691,33,683.88,23.84Zm-28.52-1.25a15.06,15.06,0,0,1,11,5.9c5.8,7.55,6,21.44,4.18,31.92-2.74,16.82-9,24.89-18.58,24-5.51-.5-9.81-2.74-12.79-6.64-7-9.1-5.15-24.83-4-31.18C637,35,641.93,21.36,655.36,22.59Z"/><path class="cls-1" d="M767.14,18.25l-1.52-.06-.78,3.37c-2.1,9.13-4.4,20.76-6.62,32-2.17,11-4.42,22.33-6.51,31.57-8.49-13.14-20-47.5-20.11-65.25v-.4l-17.73-4.07-.07.55C710,48.65,697.4,74.51,687.29,95.28l-.31.64,21,9.54.08-.68c1.72-13.69,4.21-21,7.65-31.16,1.4-4.12,3-8.75,4.67-14.4.34.8.87,2,1.63,3.65,1.39,3.08,3.34,7.37,5.55,12.23,7,15.47,16.67,36.65,19.15,43.08l.1.24,13.76,3.17.09-.52c1.09-6.55,2.14-13.32,3.15-19.87,4.2-27.19,8.54-55.31,18.26-81l.2-.53-.56-.13C777.43,18.59,771.24,18.38,767.14,18.25Z"/><path class="cls-1" d="M873.11,54l-.48-.19c-10.75-4.15-19-6.57-26.73-7.84l-.59-.09v.59c.22,13.7-5.37,50.81-20.54,61.39-4.73,3.3-10.07,3.83-15.89,1.59-5.65-2.19-9.29-5.61-10.83-10.16-4.2-12.42,7.38-31.34,15.84-45.15,3.22-5.27,6-9.82,7.38-13.11l.23-.54-22.74-5.3.36.89c2,4.91-4.86,21.32-9,31.13-1.28,3-2.29,5.47-2.75,6.85-5.76,16.41-3.59,37.17,19.78,46.21a41.83,41.83,0,0,0,15,3,28.79,28.79,0,0,0,12-2.52c17.1-7.75,25.71-31.26,33.3-52,1.89-5.14,3.66-10,5.48-14.32Z"/><path class="cls-1" d="M967.26,103.3a.24.24,0,0,1,.08-.09c-3.58,1.63-65.85-27.08-76.63-37l-.46-.42-.31.54c-4.06,7.06-6.09,10.6-8.63,19.4l-.12.42L907.32,97.5C904.8,118,891,142.17,879.8,161.61c-2.54,4.44-4.94,8.63-7,12.36l-.23.42,20.48,11.78,0-.83c.75-19.84,19.93-58.1,30-75.56.61-1.06,1.23-2.06,1.82-3,.46-.74.9-1.45,1.3-2.13,6.1,1.19,15.62,5.08,24,8.52,3.91,1.6,7.6,3.11,10.59,4.2l.42.15,6.88-13.75v0Z"/><path class="cls-1" d="M923.11,154.28a5.89,5.89,0,0,1-3.36-1l-4.86-3.31a5.94,5.94,0,0,1,6.63-9.85l5,3.37a5.94,5.94,0,0,1-3.37,10.83Z"/><path class="cls-1" d="M591.6,1222.94h-3.93a5.94,5.94,0,0,1,.08-11.88l3.85,0q3.93,0,7.83-.06a5.94,5.94,0,0,1,.16,11.88C596.93,1222.93,594.27,1222.94,591.6,1222.94Zm-56.85-2.72-.58,0q-5.94-.57-11.85-1.26a5.94,5.94,0,1,1,1.38-11.8q5.79.67,11.61,1.24a5.94,5.94,0,0,1-.56,11.85Zm117.71-.4a5.94,5.94,0,0,1-.61-11.85q5.82-.6,11.6-1.31a5.94,5.94,0,1,1,1.46,11.79q-5.89.72-11.84,1.34C652.87,1219.81,652.66,1219.82,652.46,1219.82Zm-181.8-9.38a6.38,6.38,0,0,1-1.22-.12c-3.9-.82-7.77-1.68-11.64-2.57a5.94,5.94,0,1,1,2.68-11.57q5.67,1.3,11.4,2.51a5.94,5.94,0,0,1-1.22,11.75Zm245.81-.83a5.94,5.94,0,0,1-1.25-11.75q5.71-1.24,11.38-2.59a5.94,5.94,0,1,1,2.76,11.55q-5.79,1.38-11.62,2.65A6.1,6.1,0,0,1,716.47,1209.61Zm-308.42-16a6.08,6.08,0,0,1-1.86-.3q-5.69-1.87-11.31-3.86a5.94,5.94,0,1,1,3.94-11.2q5.52,1.93,11.09,3.78a5.94,5.94,0,0,1-1.86,11.58ZM779,1192.34a5.94,5.94,0,0,1-1.89-11.57c3.69-1.24,7.36-2.53,11-3.84a5.94,5.94,0,1,1,4,11.17c-3.73,1.35-7.48,2.65-11.25,3.93A6,6,0,0,1,779,1192.34Zm-431.31-22.46a5.86,5.86,0,0,1-2.47-.54q-5.43-2.49-10.81-5.09a5.94,5.94,0,1,1,5.18-10.69q5.26,2.55,10.58,5a5.94,5.94,0,0,1-2.48,11.34Zm491.48-1.65a5.94,5.94,0,0,1-2.51-11.32c3.51-1.65,7-3.32,10.49-5a5.94,5.94,0,1,1,5.24,10.66q-5.33,2.63-10.71,5.14A5.91,5.91,0,0,1,839.13,1168.23ZM290.28,1139.6a6,6,0,0,1-3.06-.85q-5.12-3.07-10.16-6.25a5.94,5.94,0,1,1,6.32-10.06q5,3.12,10,6.13a5.94,5.94,0,0,1-3.06,11Zm606-2a5.94,5.94,0,0,1-3.1-11q5-3,9.88-6.17a5.94,5.94,0,1,1,6.39,10q-5,3.19-10.09,6.29A5.87,5.87,0,0,1,896.23,1137.6Zm-659.61-34.44a6,6,0,0,1-3.6-1.22q-4.74-3.62-9.4-7.33a5.94,5.94,0,0,1,7.39-9.29q4.58,3.63,9.22,7.18a5.94,5.94,0,0,1-3.61,10.66Zm713-2.32a5.94,5.94,0,0,1-3.64-10.63q4.62-3.57,9.16-7.23a5.94,5.94,0,0,1,7.45,9.25q-4.64,3.74-9.34,7.37A5.89,5.89,0,0,1,949.6,1100.84ZM187.32,1061a5.9,5.9,0,0,1-4.1-1.64q-4.32-4.11-8.54-8.31a5.94,5.94,0,0,1,8.37-8.43q4.14,4.13,8.37,8.15a5.94,5.94,0,0,1-4.1,10.23Zm811.3-2.62a5.94,5.94,0,0,1-4.13-10.21q4.2-4.05,8.31-8.19a5.94,5.94,0,1,1,8.43,8.37c-2.8,2.82-5.63,5.6-8.48,8.37A6,6,0,0,1,998.62,1058.42Zm-855.68-44.65a5.93,5.93,0,0,1-4.55-2.12q-3.82-4.56-7.56-9.19a5.94,5.94,0,0,1,9.24-7.46q3.68,4.54,7.42,9a5.94,5.94,0,0,1-4.55,9.76Zm899.74-2.9a5.94,5.94,0,0,1-4.56-9.73q3.72-4.5,7.36-9.07a5.94,5.94,0,1,1,9.3,7.4q-3.72,4.66-7.52,9.25A6,6,0,0,1,1042.68,1010.87Zm-938.63-49a5.94,5.94,0,0,1-5-2.65q-3.3-4.93-6.5-10a5.94,5.94,0,0,1,10-6.39q3.14,4.92,6.37,9.76a5.94,5.94,0,0,1-4.93,9.24Zm977.21-3.18a5.93,5.93,0,0,1-5-9.2q3.21-4.87,6.32-9.83a5.94,5.94,0,0,1,10.06,6.33q-3.18,5-6.46,10A5.94,5.94,0,0,1,1081.26,958.74ZM71.11,906.1a5.94,5.94,0,0,1-5.28-3.21q-2.72-5.26-5.35-10.6A5.94,5.94,0,0,1,71.14,887q2.56,5.24,5.24,10.39a5.93,5.93,0,0,1-5.27,8.67Zm1042.75-3.43a5.95,5.95,0,0,1-5.29-8.64q2.65-5.21,5.2-10.48a5.94,5.94,0,1,1,10.7,5.18q-2.61,5.37-5.32,10.7A5.93,5.93,0,0,1,1113.86,902.67ZM44.57,847A5.92,5.92,0,0,1,39,843.19q-2.14-5.55-4.16-11.16A5.94,5.94,0,1,1,46,828c1.33,3.66,2.68,7.31,4.08,10.94A6,6,0,0,1,44.57,847ZM1140,843.31a5.94,5.94,0,0,1-5.56-8q2.05-5.47,4-11a5.94,5.94,0,0,1,11.2,4q-2,5.64-4.09,11.23A6,6,0,0,1,1140,843.31Zm-1115.29-58A5.94,5.94,0,0,1,19,780.83q-1.5-5.75-2.89-11.56a5.94,5.94,0,0,1,11.56-2.76Q29,772.2,30.5,777.84a5.93,5.93,0,0,1-5.75,7.44Zm1134.7-3.87a6.14,6.14,0,0,1-1.46-.18,5.94,5.94,0,0,1-4.3-7.22c1-3.76,1.87-7.55,2.75-11.34a5.94,5.94,0,1,1,11.57,2.68q-1.35,5.8-2.81,11.58A5.94,5.94,0,0,1,1159.45,781.41ZM11.93,721.73a5.93,5.93,0,0,1-5.87-5.09q-.85-5.88-1.59-11.81a5.94,5.94,0,0,1,11.79-1.46q.72,5.8,1.55,11.57a5.94,5.94,0,0,1-5,6.73A6.07,6.07,0,0,1,11.93,721.73Zm1159.91-4a5.76,5.76,0,0,1-.82-.06A5.93,5.93,0,0,1,1166,711q.79-5.78,1.47-11.58a5.94,5.94,0,1,1,11.8,1.38q-.69,5.92-1.51,11.82A5.94,5.94,0,0,1,1171.84,717.78ZM6.21,657.16a5.94,5.94,0,0,1-5.93-5.74Q.08,645.5,0,639.53a5.94,5.94,0,0,1,11.88-.16c0,3.89.14,7.78.27,11.65a5.94,5.94,0,0,1-5.73,6.14Zm1170.9-4H1177a6,6,0,0,1-5.78-6.1c.11-3.88.17-7.77.2-11.67a5.94,5.94,0,1,1,11.88.08q0,6-.2,11.91A5.94,5.94,0,0,1,1177.11,653.17ZM7.58,592.36a3.39,3.39,0,0,1-.45,0A6,6,0,0,1,1.65,586q.45-5.94,1-11.87a5.94,5.94,0,0,1,11.83,1.14q-.55,5.81-1,11.63A5.94,5.94,0,0,1,7.58,592.36Zm1167.73-4a5.93,5.93,0,0,1-5.91-5.45q-.5-5.83-1.08-11.63a5.94,5.94,0,1,1,11.81-1.22q.61,5.93,1.1,11.87a5.94,5.94,0,0,1-5.43,6.41ZM16,528.09a6.14,6.14,0,0,1-1.11-.11A5.94,5.94,0,0,1,10.2,521q1.1-5.85,2.32-11.68a5.94,5.94,0,1,1,11.63,2.44q-1.2,5.7-2.28,11.45A5.94,5.94,0,0,1,16,528.09Zm1150.37-4a6,6,0,0,1-5.83-4.8q-1.11-5.73-2.35-11.41a5.94,5.94,0,1,1,11.61-2.51q1.26,5.8,2.4,11.64a5.94,5.94,0,0,1-4.69,7A6.38,6.38,0,0,1,1166.41,524.13Zm-1134.83-59a5.93,5.93,0,0,1-5.68-7.68q1.76-5.73,3.62-11.39a5.94,5.94,0,1,1,11.28,3.71q-1.83,5.57-3.55,11.16A5.93,5.93,0,0,1,31.58,465.13Zm1118.88-3.78a6,6,0,0,1-5.67-4.16q-1.74-5.56-3.61-11.08a5.94,5.94,0,1,1,11.26-3.79q1.9,5.63,3.68,11.3a5.93,5.93,0,0,1-3.88,7.45A5.8,5.8,0,0,1,1150.46,461.35ZM54,404.26A5.93,5.93,0,0,1,48.6,396q2.37-5.49,4.86-10.91A5.94,5.94,0,1,1,64.26,390q-2.43,5.31-4.77,10.69A5.94,5.94,0,0,1,54,404.26Zm1073.57-3.55a5.93,5.93,0,0,1-5.43-3.54q-2.37-5.34-4.82-10.61a5.94,5.94,0,1,1,10.76-5q2.52,5.38,4.92,10.83a5.93,5.93,0,0,1-3,7.83A5.85,5.85,0,0,1,1127.61,400.71ZM83.13,346.28a5.82,5.82,0,0,1-2.94-.79,5.93,5.93,0,0,1-2.2-8.1q3-5.19,6-10.3a5.94,5.94,0,0,1,10.18,6.12q-3,5-5.92,10.08A5.93,5.93,0,0,1,83.13,346.28Zm1015-3.3a6,6,0,0,1-5.14-3q-2.93-5-6-10a5.94,5.94,0,0,1,10.15-6.18q3.09,5.08,6.09,10.23a5.94,5.94,0,0,1-5.13,8.93Zm-979.7-51.1a5.93,5.93,0,0,1-4.78-9.44q3.51-4.81,7.13-9.55a5.94,5.94,0,1,1,9.45,7.2c-2.37,3.09-4.7,6.22-7,9.36A5.91,5.91,0,0,1,118.46,291.88Zm944-3a5.93,5.93,0,0,1-4.78-2.41q-3.46-4.68-7-9.3a5.94,5.94,0,0,1,9.4-7.27q3.64,4.72,7.19,9.5a5.95,5.95,0,0,1-4.77,9.48ZM159.57,241.72a5.94,5.94,0,0,1-4.38-9.95q4-4.4,8.14-8.7a5.94,5.94,0,0,1,8.6,8.19q-4,4.23-8,8.54A5.9,5.9,0,0,1,159.57,241.72ZM1021.08,239a5.9,5.9,0,0,1-4.35-1.91q-4-4.28-8-8.47a5.94,5.94,0,0,1,8.55-8.26q4.14,4.29,8.19,8.66a5.95,5.95,0,0,1-4.36,10ZM205.93,196.39A5.94,5.94,0,0,1,202,186q4.47-3.91,9-7.75a5.94,5.94,0,0,1,7.64,9.09q-4.47,3.77-8.86,7.6A5.88,5.88,0,0,1,205.93,196.39Zm768.5-2.47a5.91,5.91,0,0,1-3.88-1.45q-4.42-3.83-8.91-7.55a5.94,5.94,0,1,1,7.58-9.14q4.59,3.81,9.1,7.71a5.94,5.94,0,0,1-3.89,10.43ZM257,156.44a5.94,5.94,0,0,1-3.4-10.82q4.87-3.39,9.82-6.7a5.94,5.94,0,1,1,6.6,9.87q-4.85,3.24-9.63,6.58A5.94,5.94,0,0,1,257,156.44Zm55.13-34.08a5.94,5.94,0,0,1-2.84-11.16q5.22-2.83,10.5-5.57a5.94,5.94,0,1,1,5.46,10.54q-5.17,2.68-10.29,5.47A5.9,5.9,0,0,1,312.12,122.36Zm58.55-27.75a5.94,5.94,0,0,1-2.24-11.44q5.49-2.25,11-4.38a5.94,5.94,0,0,1,4.26,11.09c-3.63,1.4-7.23,2.82-10.82,4.29A6.08,6.08,0,0,1,370.67,94.61Zm61.26-21.07a5.94,5.94,0,0,1-1.62-11.66c3.81-1.08,7.63-2.11,11.46-3.12a5.94,5.94,0,0,1,3,11.5q-5.64,1.47-11.24,3A6,6,0,0,1,431.93,73.54Z"/><path class="cls-1" d="M496.33,59.21a5.94,5.94,0,0,1-.95-11.8l5.93-.94a5.94,5.94,0,0,1,1.79,11.75c-1.94.29-3.87.6-5.8.91A5.36,5.36,0,0,1,496.33,59.21Z"/></g></g></svg>