<svg xmlns="http://www.w3.org/2000/svg" viewBox="0 0 1183.1 1219.22"><defs><style>.cls-1{fill:#844a2c;}</style></defs><title>Asset 14</title><g id="Layer_2" data-name="Layer 2"><g id="Layer_1-2" data-name="Layer 1"><path class="cls-1" d="M597.42,67.2a14.73,14.73,0,0,1-1.37-1.35l-.11-.1c-2-1.34-3.71-1.78-5.3-1.31-3.3,1-5.28,5.59-7.57,10.94-3.38,7.91-7.22,16.87-16.27,17.47-25.24,1.68-30.47-20.4-31.36-33.71-.69-10.38,1.33-20.94,5.54-29,5.19-9.89,13.46-15.49,23.9-16.19,5.5-.36,10.15.45,13.46,2.36,3.8,2.2,5.9,5.83,6.23,10.79a13.71,13.71,0,0,1-.91,6.83c-1.07,2.21-3,3.38-5.88,3.57l-.72,0c-1.39-6.84-2.31-10.59-10.26-10.06-3.94.26-5.67,2.14-6.43,3.68-1.3,2.64-.73,6.34,1.49,9.65a14.64,14.64,0,0,0,13.24,6.57,22.38,22.38,0,0,0,16.09-8.31A24.46,24.46,0,0,0,596.55,22c-1-15.42-12.76-23.17-33-21.82a50.65,50.65,0,0,0-37.42,20.14,60,60,0,0,0-11.79,39.83c.83,12.42,5.57,23.51,13.35,31.23s17.8,11.6,29.44,11.6c1.17,0,2.34,0,3.53-.12,21.53-1.44,34.74-17,39.92-31l0-.1v-.11C600.47,69.93,598.78,68.41,597.42,67.2Z"/><path class="cls-1" d="M682.2,19.91C676.06,12,667.13,7.45,655.66,6.42,631,4.21,614.74,23,611.49,42.65c-3,18.22,4.17,40.22,27,48.31l.12,0c.58.05,2.23.24,3.88.42s3.32.37,3.9.42c1.44.13,2.85.19,4.22.19,22.92,0,36.15-17.5,39.17-35.76C692.1,42.34,689.32,29.09,682.2,19.91Zm-28.52-1.17a15.09,15.09,0,0,1,11.06,5.86c5.82,7.54,6,21.43,4.27,31.91-2.71,16.83-8.93,24.92-18.53,24.07-5.5-.5-9.81-2.72-12.8-6.62-7-9.08-5.21-24.81-4.12-31.16C635.33,31.16,640.25,17.54,653.68,18.74Z"/><path class="cls-1" d="M717.25,45.94c-1.56-6.69,3.78-21.13,7.12-27.08,11-.34,24.51-.67,35.49,9.64l.38.36.34-.4c2.66-3.11,10.27-14.95,11.34-19.87L772,8.1l-1.2-.26c-5.51-1.2-14.14-1.52-24.13-1.9-12.24-.46-26.1-1-36.85-3.32h0c-2-.43-3.84-1-5.42-1.47L703.7.92l.08.76c3.28,30.13-6,70.61-14.43,99.26L688,105.78l25.37,5.5-.19-.77c-3.83-15.71-3.82-30,0-47.8l.55-2.55c1,.07,2,.12,2.93.16,6.37.29,11.86.55,16.44,7.66l.6.93L740.3,46l-.9.3C734.58,47.89,724.28,48.85,717.25,45.94Z"/><path class="cls-1" d="M808.56,66.79c-5,1-15.32.71-21.94-3-.74-6.82,6.28-20.52,10.31-26,10.91,1,24.41,2.27,34.07,13.83l.34.4.38-.36c3-2.76,12-13.6,13.64-18.36l.17-.47-1.16-.4c-5.32-1.85-13.85-3.21-23.73-4.79-12.09-1.92-25.78-4.11-36.17-7.71h0c-1.88-.65-3.6-1.4-5.2-2.11l-.7-.3v.75C778.2,48.51,764.1,87.57,752.33,115l-2,4.64,24.52,8.5-.1-.79c-1.91-16-.19-30.24,5.78-47.44l.85-2.46c1,.19,1.94.35,2.89.51,6.28,1.06,11.71,2,15.4,9.58l.48,1,9.29-21.94Z"/><path class="cls-1" d="M881.21,145.27c-10.05.91-32.19-7.08-44.71-13.05l-1.76-.83c1.17-7.61,7.53-25.46,12.69-29.69,8.68,1.7,18.55,4.41,26.26,11.45l.53.48,6.21-15.24-.64-.08a45.7,45.7,0,0,1-26-11.34c.39-.84,1.82-3.4,2.72-5l.1-.15c5.19-8.11,7.26-11.09,8.06-12.11,3.75.86,11.61,4.81,19.22,8.63C887,80,890,81.45,892.68,82.74l1.6.76,9-16-.6-.18a335.91,335.91,0,0,1-48.76-18.77l-.48-.22-4,10.23h0c-10.29,26.55-22,56.63-41.67,77l-.48.5.62.3c8.2,3.9,20.25,8.51,31.91,13s23.68,9,31.84,12.94l.41.19,10.15-17.29Z"/><path class="cls-1" d="M979.69,114A336.23,336.23,0,0,1,933.94,88.8l-.44-.29-5.39,9.58h0c-13.79,24.9-29.43,53.11-51.71,70.63l-.54.43.58.38c7.58,5,18.9,11.17,29.84,17.17s22.22,12.16,29.77,17.12l.38.25,12.4-15.75-1,0c-10.06-.46-30.91-11.37-42.5-19l-1.63-1.07c2.18-7.37,10.9-24.18,16.59-27.68,8.36,2.87,17.77,6.89,24.45,14.9l.46.55,8.22-14.25-.63-.17a45.66,45.66,0,0,1-24.22-14.76c.5-.77,2.25-3.11,3.36-4.53,5-5.91,8.47-9.79,9.74-11,3.6,1.36,10.87,6.35,17.9,11.17,2.89,2,5.61,3.85,8.1,5.48l1.48,1,11.08-14.65Z"/><path class="cls-1" d="M968,184.88a6,6,0,0,1-3.82-1.39c-1.49-1.26-3-2.52-4.51-3.76a5.94,5.94,0,0,1,7.55-9.17q2.31,1.91,4.61,3.84A5.94,5.94,0,0,1,968,184.88Z"/><path class="cls-1" d="M595.6,1219.22a5.94,5.94,0,0,1,0-11.88q5.85,0,11.67-.2a5.94,5.94,0,0,1,.31,11.88q-5.94.15-11.9.2Zm-53-2-.49,0q-6-.5-11.87-1.1a5.94,5.94,0,0,1,1.22-11.82q5.79.6,11.63,1.08a5.94,5.94,0,0,1-.49,11.86Zm117.7-2a5.94,5.94,0,0,1-.68-11.84q5.8-.67,11.58-1.48a5.94,5.94,0,0,1,1.62,11.77q-5.89.81-11.82,1.51C660.75,1215.21,660.52,1215.23,660.29,1215.23Zm-181.92-6.9a5.59,5.59,0,0,1-1.14-.12q-5.87-1.14-11.67-2.4a5.94,5.94,0,1,1,2.51-11.61q5.7,1.23,11.44,2.36a5.94,5.94,0,0,1-1.14,11.77Zm245.8-4.2a5.94,5.94,0,0,1-1.34-11.73q5.7-1.32,11.35-2.75a5.94,5.94,0,0,1,2.91,11.52q-5.76,1.45-11.58,2.8A5.64,5.64,0,0,1,724.17,1204.13Zm-308.64-11.77a5.8,5.8,0,0,1-1.78-.28q-5.72-1.8-11.38-3.71a5.94,5.94,0,1,1,3.8-11.25c3.7,1.25,7.41,2.45,11.14,3.63a5.94,5.94,0,0,1-1.78,11.61ZM786.42,1186a5.94,5.94,0,0,1-2-11.54q5.52-1.95,11-4a5.94,5.94,0,0,1,4.18,11.12q-5.57,2.09-11.19,4.08A5.93,5.93,0,0,1,786.42,1186ZM354.8,1169.46a5.85,5.85,0,0,1-2.4-.51q-5.46-2.42-10.88-4.94a5.94,5.94,0,1,1,5-10.76q5.29,2.48,10.65,4.84a5.94,5.94,0,0,1-2.4,11.37Zm491.46-8.41a5.94,5.94,0,0,1-2.6-11.29q5.25-2.54,10.43-5.17a5.94,5.94,0,1,1,5.39,10.58q-5.29,2.7-10.64,5.29A6,6,0,0,1,846.26,1161.05ZM297,1140a5.9,5.9,0,0,1-3-.81q-5.16-3-10.25-6.11A5.94,5.94,0,0,1,290,1122.9q5,3,10,6a5.94,5.94,0,0,1-3,11.07Zm605.92-10.33a5.94,5.94,0,0,1-3.17-11q4.93-3.11,9.8-6.31a5.94,5.94,0,1,1,6.53,9.93q-5,3.26-10,6.43A5.9,5.9,0,0,1,902.93,1129.63Zm-660.08-25.38a5.89,5.89,0,0,1-3.53-1.17q-4.78-3.54-9.51-7.19a5.94,5.94,0,0,1,7.27-9.4q4.62,3.57,9.32,7a5.94,5.94,0,0,1-3.55,10.71Zm712.95-12.11a5.94,5.94,0,0,1-3.7-10.59q4.56-3.63,9.06-7.35a5.93,5.93,0,1,1,7.57,9.14q-4.58,3.79-9.24,7.51A5.88,5.88,0,0,1,955.8,1092.14ZM193,1062.8a5.94,5.94,0,0,1-4-1.58q-4.37-4.07-8.65-8.2a5.94,5.94,0,0,1,8.26-8.54q4.2,4.07,8.47,8a5.93,5.93,0,0,1-4,10.29Zm811.27-13.75a5.94,5.94,0,0,1-4.19-10.16q4.14-4.11,8.2-8.31a5.94,5.94,0,1,1,8.54,8.26q-4.14,4.28-8.37,8.48A5.92,5.92,0,0,1,1004.24,1049.05ZM148,1016.13a5.94,5.94,0,0,1-4.5-2.06q-3.89-4.5-7.69-9.08a5.94,5.94,0,1,1,9.15-7.58q3.72,4.49,7.53,8.9a5.93,5.93,0,0,1-4.49,9.82Zm899.69-15.25a5.93,5.93,0,0,1-4.62-9.66q3.66-4.56,7.24-9.17a5.94,5.94,0,0,1,9.4,7.26q-3.64,4.73-7.39,9.36A5.92,5.92,0,0,1,1047.65,1000.88ZM108.36,964.8a5.94,5.94,0,0,1-4.9-2.57q-3.37-4.9-6.64-9.87a5.94,5.94,0,1,1,9.92-6.53q3.21,4.88,6.51,9.67a6,6,0,0,1-1.53,8.26A5.89,5.89,0,0,1,108.36,964.8Zm977.15-16.58a5.93,5.93,0,0,1-5-9.13q3.15-4.94,6.19-9.92a5.94,5.94,0,1,1,10.14,6.19q-3.1,5.08-6.32,10.12A5.91,5.91,0,0,1,1085.51,948.22ZM74.66,909.44a5.94,5.94,0,0,1-5.24-3.14q-2.81-5.24-5.5-10.54a5.94,5.94,0,1,1,10.59-5.39q2.64,5.19,5.38,10.32a5.95,5.95,0,0,1-5.23,8.75ZM1117.33,891.7a6,6,0,0,1-5.32-8.57q2.58-5.24,5-10.55a5.94,5.94,0,1,1,10.77,5q-2.53,5.42-5.17,10.77A5.93,5.93,0,0,1,1117.33,891.7Zm-1070-41A6,6,0,0,1,41.79,847q-2.2-5.52-4.3-11.11a5.94,5.94,0,1,1,11.11-4.18c1.38,3.65,2.78,7.27,4.23,10.88a5.94,5.94,0,0,1-3.32,7.72A5.86,5.86,0,0,1,47.31,850.7ZM1142.69,832a5.93,5.93,0,0,1-5.59-8q2-5.5,3.85-11.06a5.94,5.94,0,0,1,11.26,3.79q-1.9,5.67-3.94,11.3A5.93,5.93,0,0,1,1142.69,832Zm-1116-42.73a5.93,5.93,0,0,1-5.72-4.36q-1.59-5.75-3.05-11.53a5.94,5.94,0,0,1,11.52-2.91c1,3.77,2,7.54,3,11.28A6,6,0,0,1,28.23,789,6.19,6.19,0,0,1,26.65,789.24ZM1161.23,769.8a6,6,0,0,1-5.78-7.32q1.35-5.67,2.59-11.39a5.94,5.94,0,0,1,11.61,2.52q-1.28,5.83-2.65,11.62A5.94,5.94,0,0,1,1161.23,769.8ZM13,725.87a5.94,5.94,0,0,1-5.86-5Q6.17,715,5.35,709.07a5.94,5.94,0,0,1,11.77-1.62q.79,5.79,1.71,11.55a6,6,0,0,1-4.94,6.8A7.41,7.41,0,0,1,13,725.87ZM1172.73,706a6.23,6.23,0,0,1-.74,0,5.94,5.94,0,0,1-5.16-6.62q.7-5.79,1.31-11.61a5.94,5.94,0,0,1,11.82,1.22q-.62,5.94-1.34,11.84A5.94,5.94,0,0,1,1172.73,706ZM6.37,661.37a5.94,5.94,0,0,1-5.93-5.66Q.17,649.77,0,643.8a5.94,5.94,0,0,1,11.88-.31q.15,5.85.43,11.67a6,6,0,0,1-5.66,6.21Zm1170.74-20.06H1177a5.94,5.94,0,0,1-5.87-6c0-2.57,0-5.15,0-7.73v-4a5.94,5.94,0,0,1,11.88-.08v4c0,2.63,0,5.26,0,7.88A5.94,5.94,0,0,1,1177.11,641.31ZM6.88,596.54l-.38,0a5.94,5.94,0,0,1-5.56-6.29q.38-6,.86-11.89a5.94,5.94,0,0,1,11.84,1q-.48,5.8-.84,11.65A6,6,0,0,1,6.88,596.54Zm1167.54-20a6,6,0,0,1-5.91-5.37q-.55-5.8-1.23-11.58a5.94,5.94,0,0,1,11.8-1.38q.69,5.89,1.26,11.82a5.94,5.94,0,0,1-5.34,6.48ZM14.47,532.14a5.19,5.19,0,0,1-1-.09,5.94,5.94,0,0,1-4.83-6.87q1-5.88,2.17-11.72a5.94,5.94,0,0,1,11.66,2.28q-1.12,5.73-2.13,11.48A5.93,5.93,0,0,1,14.47,532.14Zm1150.17-19.67a6,6,0,0,1-5.81-4.72q-1.2-5.72-2.51-11.38a5.94,5.94,0,0,1,11.57-2.68q1.33,5.79,2.56,11.62a5.93,5.93,0,0,1-4.59,7A5.69,5.69,0,0,1,1164.64,512.47ZM29.15,469a6.07,6.07,0,0,1-1.67-.24,5.94,5.94,0,0,1-4-7.37q1.68-5.75,3.47-11.44a5.94,5.94,0,1,1,11.33,3.56q-1.76,5.58-3.4,11.21A6,6,0,0,1,29.15,469Zm1118.65-19.1a6,6,0,0,1-5.64-4.08q-1.83-5.54-3.76-11a5.94,5.94,0,1,1,11.2-3.95q2,5.61,3.84,11.26a5.93,5.93,0,0,1-3.78,7.5A5.7,5.7,0,0,1,1147.8,449.88ZM50.79,407.8a6,6,0,0,1-2.29-.46,5.94,5.94,0,0,1-3.18-7.77q2.3-5.52,4.71-11A5.94,5.94,0,1,1,60.9,393.4q-2.37,5.34-4.63,10.75A5.93,5.93,0,0,1,50.79,407.8ZM1124.1,389.55a6,6,0,0,1-5.4-3.46q-2.45-5.31-5-10.56a5.94,5.94,0,0,1,10.69-5.17q2.6,5.36,5.07,10.77a5.94,5.94,0,0,1-2.92,7.88A5.86,5.86,0,0,1,1124.1,389.55ZM79.1,349.42a5.94,5.94,0,0,1-5.18-8.83q2.89-5.2,5.9-10.37a5.94,5.94,0,0,1,10.26,6q-2.94,5.06-5.78,10.17A6,6,0,0,1,79.1,349.42Zm1014.74-17.2a5.93,5.93,0,0,1-5.1-2.89q-3-5-6.11-9.94a5.94,5.94,0,1,1,10-6.32q3.18,5,6.24,10.15a5.94,5.94,0,0,1-5.08,9ZM113.71,294.55a5.94,5.94,0,0,1-4.84-9.38q3.45-4.86,7-9.65a5.94,5.94,0,0,1,9.54,7.08q-3.48,4.68-6.87,9.45A5.93,5.93,0,0,1,113.71,294.55Zm943.7-16a5.91,5.91,0,0,1-4.72-2.34q-3.56-4.64-7.18-9.21a5.94,5.94,0,0,1,9.3-7.39q3.7,4.67,7.32,9.4a5.94,5.94,0,0,1-4.72,9.54ZM154.14,243.84a5.94,5.94,0,0,1-4.43-9.89q4-4.45,8-8.82a5.94,5.94,0,0,1,8.71,8.08q-4,4.29-7.86,8.64A5.93,5.93,0,0,1,154.14,243.84Zm861.15-14.58a5.92,5.92,0,0,1-4.29-1.84q-4-4.23-8.15-8.37a5.94,5.94,0,1,1,8.43-8.37q4.2,4.23,8.31,8.54a5.94,5.94,0,0,1-4.3,10ZM199.9,197.89a5.94,5.94,0,0,1-4-10.36q4.42-4,8.93-7.87a5.94,5.94,0,1,1,7.77,9q-4.42,3.83-8.76,7.72A5.91,5.91,0,0,1,199.9,197.89Zm50.53-40.64A5.94,5.94,0,0,1,247,146.48q4.83-3.47,9.74-6.84a5.94,5.94,0,0,1,6.73,9.79q-4.81,3.31-9.55,6.71A5.92,5.92,0,0,1,250.43,157.25Zm54.68-34.81a5.94,5.94,0,0,1-2.92-11.12q5.19-2.91,10.43-5.72a5.94,5.94,0,1,1,5.61,10.47c-3.43,1.84-6.84,3.7-10.22,5.61A6,6,0,0,1,305.11,122.44Zm58.17-28.55A5.94,5.94,0,0,1,361,82.48q5.46-2.31,11-4.52a5.94,5.94,0,1,1,4.41,11q-5.42,2.16-10.76,4.43A5.94,5.94,0,0,1,363.28,93.89Zm61-21.89a5.94,5.94,0,0,1-1.69-11.64q5.69-1.68,11.42-3.27a5.94,5.94,0,0,1,3.15,11.46q-5.61,1.55-11.19,3.2A5.82,5.82,0,0,1,424.26,72Z"/><path class="cls-1" d="M488.37,56.83a5.94,5.94,0,0,1-1-11.79l5.91-1a5.94,5.94,0,0,1,2,11.72l-5.8,1A6.18,6.18,0,0,1,488.37,56.83Z"/></g></g></svg>