<svg xmlns="http://www.w3.org/2000/svg" viewBox="0 0 1183.23 1229.07"><defs><style>.cls-1{fill:#eb5d1c;}</style></defs><title>Asset 18</title><g id="Layer_2" data-name="Layer 2"><g id="Layer_1-2" data-name="Layer 1"><path class="cls-1" d="M573.17,48.26c.8-.37,1.89-.78,3.15-1.26,7.37-2.79,21.08-8,20.28-21.32l-.08-1.34C593.46-.29,569.78-.93,547.83.4,547.6.41,525.11,2,524.36,4l-.19,14.84.43.07c3.31.51,10.36.24,13.71-.08l6.62,52.39.05.34,12.84,3.33-1.63-12.34c16-2.08,26.56,1.87,28.89,10.88,2.65,10.26-6.22,24.37-18.25,29-6.57,2.55-23.28,5.55-37.71-20.84a9.62,9.62,0,0,0,8.11-1.85c2.86-2.35,4.33-6.46,4-11.27-.36-6-3.14-10.6-7.63-12.6a12.43,12.43,0,0,0-12.79,1.85c-5.19,4.15-7.15,11.67-5.38,20.65,5.23,24.88,20.69,39,42.53,39l1.64,0c22.77-.72,45-16.5,47.45-33.77C608.32,75.12,605.51,59.29,573.17,48.26ZM555.43,46.6c-3.17-21.77-3.69-27.44-3.64-28.69,4.34-1.31,14.2-1.9,19.58,1.48a7.55,7.55,0,0,1,3.71,5.55l.1,1.6C575.81,37,569.53,43.39,555.43,46.6Z"/><path class="cls-1" d="M630.6,91l-2-.15c-1.64-7.52-2.09-26.46,1.2-32.26,8.72-1.52,18.91-2.53,28.62,1.28l.66.26.34-16.46-.63.16a45.75,45.75,0,0,1-28.35-1.26c.07-.93.48-3.82.77-5.59,1.53-7.49,2.69-12.66,3.22-14.37,3.82-.54,12.58.33,21.07,1.17,3.48.34,6.77.67,9.74.9l1.77.14L669.72,6.6l-.62.05a337.33,337.33,0,0,1-52.24,0l-.53,0-.07,5,0,6c-.1,28.47-.2,60.74-11.29,86.83l-.27.64.7.06c9,.71,22,.68,34.43.66s25.34-.05,34.34.66l.46,0,3.27-19.77-.87.43C668,91.57,644.41,92,630.6,91Z"/><path class="cls-1" d="M759.92,24.81l.38-.62-.71-.14c-9.89-1.88-18.81-3.3-28.08-4.46l-.65-.08.09.64c.81,5.68-.2,11-1.27,16.56-3.43,18-11,33.07-19,49-2.12,4.22-4.31,8.57-6.43,13a303.34,303.34,0,0,1,3.74-75l.09-.5-.5-.08c-9.37-1.5-18.85-1.89-28.55-2.19l-.89,0,.44.78c13.41,23.4,14.13,71.44,9.51,95.7l-.11.6,25.93,0,.35-1.83c5.49-28.84,20.42-52,36.22-76.52C753.58,34.82,756.81,29.81,759.92,24.81Z"/><path class="cls-1" d="M805.74,140.49l7.56-18.56-.94.23c-9.81,2.34-32.86-2.4-46.1-6.51l-1.86-.58c.07-7.69,3.81-26.26,8.31-31.19,8.83.45,19,1.72,27.61,7.58l.6.4,4-16h-.66a45.67,45.67,0,0,1-27.35-7.5c.27-.88,1.31-3.61,2-5.28,3.15-7,5.43-11.74,6.32-13.29,3.84.31,12.19,3.1,20.27,5.79,3.33,1.11,6.47,2.15,9.31,3l1.69.52,6.62-17.13-.62-.09a336.43,336.43,0,0,1-50.92-11.59l-.51-.16-2.53,10.7h0c-6.39,27.74-13.63,59.18-30.21,82.17l-.41.56.67.21c8.66,2.69,21.24,5.52,33.41,8.26s24.72,5.56,33.35,8.24Z"/><path class="cls-1" d="M942.92,221.7c-.21-.17-.44-.33-.67-.49,5-29.74,29.64-71.6,36.9-81.91l8.6,3.5,4.59-11.32-.41-.21c-56-28.66-56.23-28.31-56.71-27.61L930,117.39l5.58,2.72c-14.52,24.15-45,55.35-56.58,62.29l-.28.16c-.11-1.74-.21-3.48-.32-5.21-.61-10.16-1.24-20.65-3.63-29.88-2.25-9-4.7-17.62-9.76-24.89,11.68.65,27-3,33-15.61l.33-.66c8.29-18.19-2.76-37.29-17.76-44.56L849.35,46.61l0,.83c.39,15.34-5.29,30.25-10.32,43.44-.12.41-.26.77-.39,1.13a10.9,10.9,0,0,0-.39,1.13q-2.09,4.31-4.12,8.68c-7.69,16.36-15.63,33.28-29.23,45.61l-.54.49,27.11,13.8.77.33,0-.86c-.18-3.86-.36-7.85-.35-11.74,1.6-8.87,4.84-18.26,9.9-28.7l1.17-2.4c.71-.73,1-.86,1.52-.41,5.69,3.4,7.89,10.42,9.17,16.15,2.16,9.72,3.07,20.22,4,31.34,2.7,30.92,5.49,62.9,36.13,78l.91.45c4.53,2.19,20.61,9.47,34.42,9.47,8.19,0,15.58-2.55,19.3-10.24l.25-.51C951.94,235.84,950.38,225.82,942.92,221.7Zm19.36-84c-2.95,4.41-5.72,8.85-8.41,13.15s-5.5,8.82-8.43,13.17l-.07.11c-8.24-4.17-13.87-7.31-15.39-8.58l16.88-25.83a6.4,6.4,0,0,1,1.11.44l.11.05A126.24,126.24,0,0,1,962.28,137.67ZM865.49,71.8c2-2.27,5.07-.88,7.81.35.62.28,1.21.54,1.75.75l1.68.81c8.62,4.18,10.18,15.71,6.23,23.87l-.5,1c-6,11.45-20.37,16.63-31.33,11.33A20.76,20.76,0,0,1,848,108Zm24.72,124.4,28.5-25.91,19.4,9.7-15.28,36.73,8.8,3.85a7.19,7.19,0,0,0-2.71,3l-.4.83c-3.35,6.91,4.33,12.74,7.37,14.7l-.16.32c-4.77,7.34-15.91,6.49-33.1-2.52-19.71-11.78-22.52-32.78-23.92-53.92Z"/><path class="cls-1" d="M1027,260.25l11.15-14.18-50.33-29.15L983,227l14.87,11.68-.54.69c-.28.37-.56.73-.85,1-2.29,2.53-5.94,5.81-10.38,7.06s-8.31.18-11.9-3.06c-11.06-10,1.74-33,7.6-41,7.51-10,21.33-22.26,35.59-23.64a24.19,24.19,0,0,1,19.24,6.53c7.1,6.41,6.44,15.19,3.46,21.27-2.64,5.38-7.13,8.83-11.29,8.83h0c3.76-3,5.65-5.8,5.79-8.6.13-2.55-1.22-5.12-4-7.64a7.34,7.34,0,0,0-5.71-2.15c-3.35.31-6.09,3.07-7.8,5.34-4.65,6.4-4,13.59,1.71,18.74a18.25,18.25,0,0,0,16.77,4.47,28.89,28.89,0,0,0,14.69-8.93c6-6.66,9-14.08,8.49-21.46s-4.47-14.85-11.57-21.27c-14.4-13-30.39-12.55-41.26-9.88-13,3.18-26.11,11.28-36,22.21h0c-1.46,1.62-2.82,3.33-4.09,5-12.76,17.18-18.24,43.12-.13,59.48,9.47,8.56,22.89,10.38,33.19,4.88L986.74,270l7.32,13,.46-.64c1.52-2.15,3.31-4.73,5.24-7.52,5.12-7.43,11.48-16.63,16.21-22.25Z"/><path class="cls-1" d="M1122.65,260a335.8,335.8,0,0,1-36.33-37.55L1086,222l-8,7.58h0c-20.52,19.74-43.78,42.12-70.24,52.32l-.64.25.44.53c5.78,7,14.78,16.25,23.48,25.2s17.67,18.17,23.43,25.13l.29.36L1071.26,322l-.92-.33c-9.5-3.4-26.22-20-35.06-30.66l-1.24-1.5c4.26-6.41,17.55-19.92,24-21.58,7.15,5.2,15,11.81,19,21.44l.28.66,12.06-11.21-.56-.34A45.71,45.71,0,0,1,1070,257.22c.71-.59,3.08-2.31,4.6-3.37,8.18-5.21,11.34-7.06,12.51-7.65,3,2.37,8.52,9.27,13.83,15.95,2.17,2.74,4.23,5.33,6.13,7.63l1.12,1.36,14.91-10.74Z"/><path class="cls-1" d="M1096.88,347a5.9,5.9,0,0,1-5.12-2.93l-3-5a5.94,5.94,0,1,1,10.18-6.12L1102,338a5.93,5.93,0,0,1-5.11,8.95Z"/><path class="cls-1" d="M591.84,1229.07h-2.18a5.94,5.94,0,1,1,0-11.88h1.9c3.27,0,6.53,0,9.79-.08a5.88,5.88,0,0,1,6,5.84,6,6,0,0,1-5.84,6Q596.71,1229.07,591.84,1229.07Zm-55.16-2.54a5.25,5.25,0,0,1-.56,0q-5.94-.55-11.85-1.22a5.94,5.94,0,1,1,1.33-11.8c3.87.44,7.74.83,11.62,1.2a5.94,5.94,0,0,1-.54,11.85Zm117.74-.79a5.94,5.94,0,0,1-.62-11.85q5.81-.62,11.6-1.35a5.94,5.94,0,1,1,1.49,11.78q-5.89.75-11.83,1.39ZM472.54,1217a5.6,5.6,0,0,1-1.21-.13c-3.89-.8-7.78-1.64-11.64-2.53a5.94,5.94,0,1,1,2.64-11.58q5.67,1.3,11.41,2.48a5.94,5.94,0,0,1-1.2,11.76Zm245.88-1.67a5.94,5.94,0,0,1-1.28-11.74q5.72-1.26,11.38-2.63a5.94,5.94,0,0,1,2.8,11.54q-5.79,1.4-11.61,2.69A6.36,6.36,0,0,1,718.42,1215.3Zm-308.56-15A6,6,0,0,1,408,1200q-5.68-1.86-11.33-3.82a5.94,5.94,0,0,1,3.91-11.22q5.54,1.92,11.11,3.75a5.94,5.94,0,0,1-1.84,11.58Zm371-2.52a5.94,5.94,0,0,1-1.92-11.56q5.53-1.89,11-3.89a5.94,5.94,0,0,1,4.06,11.16q-5.6,2-11.24,4A6.13,6.13,0,0,1,780.87,1197.81Zm-431.51-21a5.82,5.82,0,0,1-2.46-.54q-5.44-2.48-10.83-5a5.94,5.94,0,0,1,5.14-10.71q5.28,2.52,10.61,5a5.94,5.94,0,0,1-2.46,11.35ZM841,1173.48a5.94,5.94,0,0,1-2.53-11.31q5.26-2.49,10.48-5.07a5.94,5.94,0,0,1,5.28,10.64q-5.33,2.63-10.7,5.17A5.86,5.86,0,0,1,841,1173.48Zm-549.1-26.79a5.89,5.89,0,0,1-3-.84q-5.13-3.06-10.19-6.22a5.94,5.94,0,0,1,6.29-10.08q5,3.1,10,6.1a5.94,5.94,0,0,1-3.05,11Zm606.11-4a5.94,5.94,0,0,1-3.12-11q5-3.06,9.87-6.21a5.94,5.94,0,1,1,6.42,10q-5,3.22-10.07,6.34A6,6,0,0,1,898,1142.64Zm-659.9-32.23a5.91,5.91,0,0,1-3.59-1.21q-4.74-3.6-9.43-7.3a5.94,5.94,0,0,1,7.37-9.31q4.57,3.62,9.24,7.15a5.94,5.94,0,0,1-3.59,10.67Zm713.16-4.73a5.94,5.94,0,0,1-3.66-10.63q4.6-3.58,9.14-7.26a5.94,5.94,0,1,1,7.48,9.22q-4.62,3.75-9.32,7.41A5.88,5.88,0,0,1,951.24,1105.68Zm-762.62-37.24a5.92,5.92,0,0,1-4.08-1.63q-4.32-4.11-8.57-8.29a5.94,5.94,0,0,1,8.35-8.45q4.16,4.1,8.39,8.12a5.94,5.94,0,0,1-4.09,10.25Zm811.5-5.37a5.94,5.94,0,0,1-4.15-10.19q4.18-4.08,8.29-8.23a5.94,5.94,0,1,1,8.45,8.34q-4.19,4.24-8.45,8.4A5.94,5.94,0,0,1,1000.12,1063.07Zm-856-41.78a5.94,5.94,0,0,1-4.54-2.11q-3.84-4.54-7.59-9.17a5.94,5.94,0,0,1,9.22-7.48q3.67,4.53,7.44,9a5.93,5.93,0,0,1-.7,8.37A5.86,5.86,0,0,1,144.09,1021.29Zm899.93-5.95a5.93,5.93,0,0,1-4.58-9.71q3.72-4.51,7.34-9.1a5.94,5.94,0,0,1,9.32,7.36q-3.7,4.68-7.49,9.28A5.91,5.91,0,0,1,1044,1015.34Zm-939-45.8a5.91,5.91,0,0,1-4.93-2.63Q96.78,962,93.55,957a5.94,5.94,0,0,1,10-6.43q3.17,4.9,6.41,9.75a5.94,5.94,0,0,1-4.93,9.25Zm977.4-6.48a5.87,5.87,0,0,1-3.24-1,6,6,0,0,1-1.73-8.22q3.19-4.89,6.3-9.86a5.94,5.94,0,1,1,10.07,6.3q-3.15,5.06-6.42,10.05A5.93,5.93,0,0,1,1082.42,963.06ZM71.91,913.81a5.93,5.93,0,0,1-5.27-3.2c-1.83-3.5-3.63-7-5.39-10.59a5.94,5.94,0,1,1,10.64-5.28q2.58,5.22,5.28,10.38a6,6,0,0,1-5.26,8.69Zm1042.91-7a5.95,5.95,0,0,1-5.3-8.62q2.64-5.22,5.17-10.51a5.94,5.94,0,0,1,10.71,5.14q-2.58,5.39-5.27,10.72A6,6,0,0,1,1114.82,906.85ZM45.18,854.77A5.94,5.94,0,0,1,39.64,851q-2.16-5.57-4.19-11.16a5.94,5.94,0,1,1,11.16-4.07q2,5.5,4.11,10.94a5.94,5.94,0,0,1-5.54,8.08Zm1095.61-7.4a5.78,5.78,0,0,1-2.07-.38,5.93,5.93,0,0,1-3.5-7.63q2-5.49,4-11a5.94,5.94,0,0,1,11.22,3.91q-2,5.65-4.06,11.26A5.93,5.93,0,0,1,1140.79,847.37ZM25.17,793.09a5.94,5.94,0,0,1-5.74-4.43q-1.51-5.76-2.92-11.56a5.94,5.94,0,1,1,11.54-2.79q1.38,5.69,2.86,11.32a5.94,5.94,0,0,1-4.23,7.26A6,6,0,0,1,25.17,793.09ZM1160,785.38a6,6,0,0,1-1.44-.18,5.93,5.93,0,0,1-4.32-7.2q1.41-5.65,2.7-11.36a5.94,5.94,0,0,1,11.59,2.64q-1.34,5.82-2.77,11.59A5.94,5.94,0,0,1,1160,785.38ZM12.15,729.56a5.94,5.94,0,0,1-5.87-5.08q-.87-5.88-1.62-11.8a5.94,5.94,0,1,1,11.78-1.5q.75,5.8,1.59,11.57a5.93,5.93,0,0,1-5,6.74A5.1,5.1,0,0,1,12.15,729.56Zm1160-7.88a7.13,7.13,0,0,1-.79,0,6,6,0,0,1-5.1-6.68q.77-5.78,1.43-11.59a5.94,5.94,0,1,1,11.8,1.34q-.67,5.92-1.46,11.82A5.94,5.94,0,0,1,1172.11,721.68ZM6.25,665a6,6,0,0,1-5.94-5.72Q.1,653.33,0,647.37a5.94,5.94,0,1,1,11.88-.2c.06,3.9.16,7.78.31,11.66A6,6,0,0,1,6.47,665Zm1170.89-8H1177a6,6,0,0,1-5.8-6.08q.13-5.82.16-11.67a6.19,6.19,0,0,1,6-5.93,5.94,5.94,0,0,1,5.92,6q0,6-.15,11.92A5.94,5.94,0,0,1,1177.14,657ZM7.43,600.16H7a5.94,5.94,0,0,1-5.49-6.36q.44-6,1-11.87A5.94,5.94,0,1,1,14.31,583q-.54,5.81-1,11.64A5.94,5.94,0,0,1,7.43,600.16Zm1167.66-8a5.94,5.94,0,0,1-5.91-5.43q-.51-5.82-1.12-11.62a5.94,5.94,0,0,1,11.81-1.26q.63,5.91,1.14,11.86a6,6,0,0,1-5.4,6.43ZM15.71,535.84a5.82,5.82,0,0,1-1.09-.1,5.93,5.93,0,0,1-4.76-6.92q1.1-5.87,2.3-11.7a5.94,5.94,0,0,1,11.63,2.41q-1.18,5.7-2.25,11.46A5.93,5.93,0,0,1,15.71,535.84ZM1165.94,528a5.93,5.93,0,0,1-5.82-4.78q-1.15-5.73-2.4-11.42a5.93,5.93,0,1,1,11.59-2.56q1.29,5.81,2.46,11.66a5.94,5.94,0,0,1-4.67,7A5.79,5.79,0,0,1,1165.94,528ZM31.07,472.82a6.14,6.14,0,0,1-1.73-.25,5.93,5.93,0,0,1-3.95-7.41q1.74-5.73,3.59-11.41a5.94,5.94,0,0,1,11.29,3.68q-1.82,5.56-3.52,11.18A5.94,5.94,0,0,1,31.07,472.82Zm1118.64-7.61a5.93,5.93,0,0,1-5.65-4.14q-1.79-5.56-3.66-11.08a5.94,5.94,0,0,1,11.24-3.84q1.92,5.63,3.73,11.31a5.94,5.94,0,0,1-5.66,7.75ZM53.37,411.87a5.87,5.87,0,0,1-2.34-.48,5.94,5.94,0,0,1-3.11-7.81q2.37-5.49,4.84-10.92a5.94,5.94,0,1,1,10.81,4.92q-2.43,5.32-4.74,10.7A5.94,5.94,0,0,1,53.37,411.87Zm1073.23-7.26a6,6,0,0,1-5.43-3.51q-2.39-5.34-4.87-10.62a5.94,5.94,0,1,1,10.74-5.06c1.7,3.59,3.35,7.2,5,10.83a5.93,5.93,0,0,1-5.42,8.36ZM82.31,353.79a5.94,5.94,0,0,1-5.15-8.88q3-5.19,6-10.31a5.94,5.94,0,0,1,10.2,6.09q-3,5-5.89,10.1A5.94,5.94,0,0,1,82.31,353.79Zm35.2-54.5a5.95,5.95,0,0,1-4.8-9.44q3.51-4.82,7.11-9.57a5.94,5.94,0,0,1,9.47,7.17q-3.54,4.67-7,9.39A6,6,0,0,1,117.51,299.29Zm41-50.29a5.94,5.94,0,0,1-4.38-9.94q4-4.41,8.11-8.73a5.94,5.94,0,1,1,8.62,8.17q-4,4.25-8,8.56A5.93,5.93,0,0,1,158.49,249Zm46.26-45.47a5.94,5.94,0,0,1-3.93-10.39q4.47-3.94,9-7.79a5.94,5.94,0,0,1,7.67,9.07q-4.45,3.78-8.84,7.63A5.9,5.9,0,0,1,204.75,203.53Zm51-40.1a5.94,5.94,0,0,1-3.42-10.8q4.88-3.42,9.82-6.74a5.94,5.94,0,1,1,6.62,9.86q-4.85,3.25-9.62,6.6A5.86,5.86,0,0,1,255.72,163.43Zm55.06-34.23a5.94,5.94,0,0,1-2.86-11.15q5.22-2.85,10.49-5.6a5.94,5.94,0,0,1,5.5,10.53q-5.18,2.7-10.28,5.49A5.9,5.9,0,0,1,310.78,129.2Zm58.5-27.91A5.94,5.94,0,0,1,367,89.86q5.49-2.27,11-4.4a5.94,5.94,0,1,1,4.29,11.07q-5.43,2.11-10.81,4.31A5.79,5.79,0,0,1,369.28,101.29ZM430.5,80.06a5.94,5.94,0,0,1-1.63-11.65q5.7-1.64,11.46-3.15a5.94,5.94,0,1,1,3,11.48c-3.76,1-7.5,2-11.23,3.09A6.11,6.11,0,0,1,430.5,80.06Z"/><path class="cls-1" d="M494.68,65.61a5.94,5.94,0,0,1-1-11.8l5.91-1a5.94,5.94,0,0,1,1.85,11.74l-5.81.93A5.52,5.52,0,0,1,494.68,65.61Z"/></g></g></svg>