<svg xmlns="http://www.w3.org/2000/svg" viewBox="0 0 1302.91 1442.57"><defs><style>.cls-1{isolation:isolate;}.cls-2{opacity:0.3;mix-blend-mode:screen;}.cls-3{fill:#f1844f;}</style></defs><title>Asset 23</title><g class="cls-1"><g id="Layer_2" data-name="Layer 2"><g id="Layer_1-2" data-name="Layer 1"><g class="cls-2"><path class="cls-3" d="M101.23,24.28C103.8,34,115,38.82,124.5,42.05c34.54,11.72,75.35,6,105.07,27.19C254.5,87,264.65,119.46,266.24,150c1.85,35.59-7.18,74-33.8,97.66C203.65,273.3,162,276.2,123.89,281.85a102.43,102.43,0,0,0-35.42,12.53c-11,6.24-20.83,15-21.88,27.57-1.14,13.77,7.5,26.76,18.46,35.18,23.87,18.34,56.44,19,86.55,18.88l75.93-.31c8.53,0,17.4,0,25.06,3.75,12.1,5.91,18.45,20.16,18.23,33.62s-31,27.42-12.64,37.89c10.46,4.57,21.88-3,31.18-9.58,50.52-35.82,113-53.91,174.93-52.55,21.55.47,43.73,3.44,62.3,14.39s32.78,31.34,31.21,52.83c-1.2,16.35-16.45,33.26-32,28.15-10.46-3.44-19.84-22.86-29-14.42-7.78,6.24-6.92,19.15-.61,26.87s16.31,11.32,26,13.77,19.76,4.21,28.23,9.46c0,0,17.2,8.08,23.93,23.52,11.1,25.46,21.87,56.28,6.48,79.4-11.28,17-33.24,23.4-53.58,24.21-16,.65-32.61-1.35-47.76,3.94s-28.33,21.46-23.16,36.65,24.29,19.87,40.33,22c16.39,2.23,33,4.46,49.41,2.6,19.15-2.17,37.2-9.79,55.85-14.67,42.51-11.11,92.57-5.74,122.9,26,23.51,24.64,31.26,61.75,24.7,95.18s-26,63.28-50.26,87.2c-55.67,54.93-135.17,80-213.18,85.55S350,985,272.42,975.44c-12.2-1.5-24.69-2.94-36.67-.21s-23.56,10.44-27.51,22.08c-4.94,14.55,3.58,30.93,16,39.93s77.62,29.4,103,31.27c69.87,5.13,140.23,9.78,209.85,2,18-2,36.44-4.79,53.81.16S624.31,1091,623.3,1109c-1.24,22.21-26.54,38.54-24.93,60.73.88,12,9.69,22,19.13,29.45,61.15,48.56,156.57,31.72,217.42,80.66,7.49,6,14.58,13.49,16.55,22.9,3,14.41-6.73,28.3-17.15,38.7-42.71,42.64-103.2,61.31-161.45,77.11-72.22,19.59-363.32,81.49-530.49-125.67-59-73.14-101.15-162.15-100.79-256.14.14-36.66,6.44-75.06,28.85-104.09,22.57-29.24,58.17-44.94,92.75-57.94,22-8.25,49.3-28.84,36.78-48.7-4.91-7.79-14.37-11.34-23.25-13.79C84.16,786.61,88.79,734,112.16,712s57.45-27.13,86.65-40.43C227,658.73,251.93,636.72,263.48,608s7.75-64.35-13.35-87c-25.38-27.28-66.66-30.18-103.67-34.52C108.78,482,70,473.6,40,450.44S-8.85,385.94,4.21,350.33c24.62-67.11,126.69-60.86,175.68-112.92,37.57-39.94,29.28-113.19-16.28-143.72-20-13.38-45.18-19.36-61.36-37.13S89.82,1.51,113.81,0C113.81,0,97.31,9.46,101.23,24.28Z"/><path class="cls-3" d="M829,1238.92l170.53-49c62.19-17.89,125.67-36.38,178.63-73.57s94.41-97.18,91.95-161.85c-2.6-68.67-51.8-125.5-98.65-175.77S1074.68,672.6,1070.18,604c-3.16-48,18.61-96.95,56.35-126.75,43.8-34.6,105.31-43.47,144.11-83.61,42-43.41,43.17-119.77,2.61-164.5,23,74.14-8.29,119.93-27.39,134.58-41.81,32.05-107,15.39-159.68,14.4S973,389.81,947.58,436c-23.37,42.47-6.81,96.47,20.49,136.52s64.59,73,88.15,115.41c36,64.78,35.48,145.25,12.72,215.79s-65.7,132.76-111.76,190.84C917.23,1144.92,876,1195.1,829,1238.92Z"/></g></g></g></g></svg>