<svg xmlns="http://www.w3.org/2000/svg" viewBox="0 0 1515.14 1444.95"><defs><style>.cls-1{fill:#ea5c1c;}.cls-2{fill:#fff;}.cls-3{fill:#56250f;}</style></defs><title>Asset 19</title><g id="Layer_2" data-name="Layer 2"><g id="Layer_1-2" data-name="Layer 1"><path class="cls-1" d="M1460,777.46c-24.59-26.06-105-46.71-213.59-61,98.67-24.91,174.09-48.75,208.48-67.85,166.57-92.55-74-638.55-296.14-647.8-242-10.09-971.7,74-1092,277.62S11.25,741.15,85.29,843c13.67,18.8,63.34,27.18,136.27,27.77-19.1,104.94-3.95,259.21,48.81,305.38,39.4,34.47,322.43,66.32,596.81,80.21,13.31,82.89-130.76,196.87-78.56,188.17,48-8,229.88-78.29,306.08-181,147.59,1.4,266.72-5.06,304.7-22.59C1519.71,1185.36,1556.72,880,1460,777.46Z"/><path class="cls-2" d="M422.17,819.87v-.13c.57-2.9,1.71-5.37-.18-7.32a24.76,24.76,0,0,0-11.4-7.7c-1.42-.53-10.58-1.67-12.56-2.75-.61-.07-.88-1-.88-1,0-.49.16-4.81,1.3-6.16.71-.79,11.59.42,15.58,1.23,5,1,11.91,5.28,14.4,8.53,1.19,1.49,5.64,6.07,6,8.58.5,4.39-.54,9.35-5.41,16.36-6.41,8.69-14,19.23-21.84,23.93-1.19.74-8.93,3.59-10.22.73-.19-.52-.91-.72-1-1.23-.41-3-1.71-5.76.08-6.3,5.63-1.73,11.9-6.85,13.15-8.07a80.12,80.12,0,0,0,7.37-9.58c-4.24-.84-16.15-1.67-16-1.9-1.1-.12-3.25.26-5.08.06-2.08-.23-6.48.39-7.35-1.81.26-2.32-.67-4,1.38-5.78,2.87-2.41,12.85-.93,16.64-.51,1,.11,2.65.67,3.88.8.49.06,10.81-.41,11.37.15A1.6,1.6,0,0,1,422.17,819.87ZM458.06,860c1.19-10.76,2.66-17.28,3.51-28.32-4.34-1-19.71,2.51-25.22-.21-.71-.32-.84-1.33-1.26-2,0-.37-.11-4.59.52-4.77,8.59-1.52,21.74-.68,27.58-4.24.4-3.67,1.53-7.13,2-12.28a52.38,52.38,0,0,0,0-9c-.75-4.42-6.15-12.57-7.24-16.15-.83-2.57,1.19-5.19,3.39-6.06a3.49,3.49,0,0,1,3.14.72c2.08,2.46,8.79,14.46,9.8,16.55a9.46,9.46,0,0,1,.88,3.2c-1.44,29.66-4.87,43.88-8.75,67.71-.12,1.1-.83,9.68-1.15,10.39A7.43,7.43,0,0,1,461,879c-1.82.79-5.83-1-5.68-2.36C455.85,871,457.19,865.58,458.06,860Z"/><path class="cls-2" d="M511,822.42c1.23,2.36,3.48,15.49,3.29,17.2a6.55,6.55,0,0,0,0,1.23c0,1.48,1.07,2.6.82,4.92-.19,1.71.5,3.27.11,4.59a21.63,21.63,0,0,0,6.57-.14c1.58-3,4.17-8.57,4.74-13.7,1-8.8.68-10.57-.1-13.63-.16-.76.36-.95,1.1-2.1.84-.9,6-.33,7.32-.18s1.47,6.85,1.85,9c.12,1.13-.2,13-2.83,21.1l-.18.47c-.72,2-.72,2,.23,2.38l18.55,4.54c1.47.16,1.08,3.7.63,5.51,0,.12-2,3.61-3.33,3.22s-22.19-5.19-34.31-5.29c-11.38,0-23-.33-25.92-.65-.85-.1-2.07-.23-1.94-1.45a3.16,3.16,0,0,1-.05-.63c-.13-1.13-.1-3.6.62-4.51,1-1.13,2.23-2.23,4.06-2a77.29,77.29,0,0,0,9.28-1.08l1.26-.23a12.79,12.79,0,0,0,2.42-.6c-1-8-.76-16.54-3.4-25.13-.38-1,.3-2.68,2.39-3.69C507.79,820,510,821,511,822.42Zm30.7-10.08c-8.3,1.18-23.8,1.44-34.91,1.2a20.51,20.51,0,0,1-3.81-.18,32.43,32.43,0,0,1-4.5-.74c-.6-.19-4.32-1.23-5.29-3.68-.7-1.44,0-5.94,1.55-6.14a13.85,13.85,0,0,1,3.59,0c1.95.22,4,.69,5.95,1a32.39,32.39,0,0,0,5.59.87c7-.22,17.93.14,27-1.21l1.42-.46a29,29,0,0,1,4-.67c1.36,0,4.52.5,5.63,1.74a7.45,7.45,0,0,1-.53,4.77c-1,1.49-2.46,3.19-3.45,3.2Zm26,5.85.84-7.58c.12-1.1-2.36-7.69-3.78-9.45l-.88-1c-2.53-2.88-5.83-6.58-6.89-8.19a1.39,1.39,0,0,1-.08-.38,2.79,2.79,0,0,1,.37-2.18c1.31-1.84,5.29-4.24,8-2.59a32.77,32.77,0,0,1,6.42,6.78l1.95,2.57c.43.54.84,1.33,1.38,2,1.85,2.31,3.87,5.25,4,7.37a75.18,75.18,0,0,1-.5,9c-.37,3.3-.84,6.47-1.33,9.75-2.39,16-2.9,25.05-5.15,41.88-.55,3.9-1.38,10.24-1.87,14.64-.2,1.84-3.46,7.79-7,7.39l-4.53-.5c-1.1-.12-1.25-1-1.17-1.74C561,866.59,565.26,839.58,567.64,818.19Z"/><path class="cls-2" d="M589.4,865.16a14.13,14.13,0,0,1,6.09-3.54l1.15-.36C603,858,611.85,848,613.44,844.81c1.82-1.91,5.77-8.52,7.5-14,.53-1.43.27-2.45-1.05-2.84-3.46-1.13-19.08-3.11-27.12-3.14-.49,0-2.31-.38-2.45-1.38,0-.25-.2-.4-.18-.64a13.45,13.45,0,0,1,.3-3.8v.12a3.94,3.94,0,0,1,3.74-2.43c4.57,0,10.25.15,15.79.39,7.13.42,14,.81,17.16,1.53,2.51.78,5.19,5.65,5.49,7.42a7.44,7.44,0,0,1,0,3.22l-.12,1.1a46.73,46.73,0,0,1-5.38,12.77,78.41,78.41,0,0,1-27.38,28.14,10.37,10.37,0,0,1-8.22.45C590.33,871.32,587.57,867.18,589.4,865.16ZM644,880.62c2-10.3,4-20.59,5.53-30.94,1.14-8,2.54-18.41,3.4-26.11.36-3.3.72-6.48.88-9.06.22-2-4.54-10.4-6.43-13.46-.83-1.45-1.76-3,.67-4.88,1.74-1.17,3.81-.93,6.61.61.67.7,2.19,2.6,3.71,4.5a24.1,24.1,0,0,1,4.92,9.21c1.25,5.46.64,11,.05,16.22-.33,3-2.18,15.22-2.51,15.93-.69,1.78.1,2.49.59,2.54l10.88,1.21c2.2.24,5.16.32,7.63.35,2.23,0,4.83,0,6.54.23a3.54,3.54,0,0,1,2.28,2.85v-.12c.27.9-.23,3.19-.47,4.28-.65,2.52-5.41,3-5.77,2.95-7.46-.83-12.37-1.25-15.67-1.62l-3.79-.42-2.82-.19c-.72-.2-1,1-1.18,1.73-1,4.59-2.07,11.9-3.1,19s-1.94,14.14-3,19.22c-.4,2.55-2.7,5.39-4.17,5.23l-5.5-.61c-.73-.08-2.75-1.92-2.28-2.85Z"/><path class="cls-2" d="M731,851.42c.57-.68,1.82-1.9,2.43-1.84,2.06.36,15.61,3.22,20.12,3.84s10.36,1.4,12.32,1.62c4.4.49,9.9,0,16.35-.17,4.33,0,8.18-.08,11.51,0a23.74,23.74,0,0,0,2.47,0c4.33,0,17.74-.38,21.89.08a13,13,0,0,1,3.87.8c.59.31.56,6.13-1.54,7.25a17.14,17.14,0,0,1-6.81,1.1l-22.8.32c-2.1-.11-5.57,0-9.53-.07l-9.41.07a101.91,101.91,0,0,1-11.06-.73c-6.6-.73-19.18-2.25-28.4-5-.84-.21-2.24-1-2.28-1.74A14.32,14.32,0,0,1,731,851.42Zm19.16,47.05-.86-1.21a3.91,3.91,0,0,1-1.6-4.51c.28-1.45,2.58-2.07,3.2-2.12l26.15-1.43a37.9,37.9,0,0,0,10.61-1.92,2,2,0,0,1-.18-.64c-.46-2.52-.72-4.65-2.5-5.35-5.34-1-17.14-.54-23.8.33l-1.78.42c-2.29.62-4.57,1.1-5.09-.93-.37-2.27.71-6.36,2-6.84,5-2,10.55-2.54,16.39-2.76a74,74,0,0,1,11,.23c7.7.86,13,3.18,14,8.49l.36,5.73c0,.37.53.81,1,1.1a4.06,4.06,0,0,1,1.45,1.4A4.54,4.54,0,0,1,800,893h.12c-1.81,1.78-8.08,4.8-10.65,4.51-.49,0-4.58,0-7.07.21l-5.61.36a71.84,71.84,0,0,0-16,2.31c-.4,3.67-.76,10.19,3.67,12.66a34.49,34.49,0,0,0,10,2.6,52.67,52.67,0,0,0,7.14.29c2-.15,5.46-1.25,7.29-3.27,1.25-1.22,2.2-2,3.92-1.79a8.23,8.23,0,0,1,3.54,1.5c1.59,1.29.18,5.1-1.13,6.81-2.62,3.54-8.39,5.38-14,6.11a34.2,34.2,0,0,1-9.9,0c-6.85-.76-14.28-3-16.66-7.17C750.53,912,749.93,904,750.18,898.47Zm7.38-71,3-5.73,1.58-3c.45-.69.35-1,.13-1.22-2-.22-4-.94-6.42-1.21-1.22-.13-4-1.8-3.71-4.49.16-1.47.41-4.79,2.61-4.54a116,116,0,0,0,21.38.27l12.62-1.08c4.25-.39,5.48-.38,7.39.33s1.56,3.76,1,5.92c-.17.35-.7.67-1.13,1.24a3.9,3.9,0,0,1-2.76,1.42c-1.86,0-14.54.62-18.57,3.39-3.34,2.23-5.92,8.75-6.55,11.15-.75,3.38.5,4.39,2.52,5.11.49.05,2.83.19,5.93.16,3.32.12,7.28.19,8.13.28a67.41,67.41,0,0,0,8-1.08c4.87-.33,6.83-.24,7.81,1,1.57,1.53,0,5.81-.55,6.12A5.06,5.06,0,0,1,796.8,843a9.32,9.32,0,0,0-1.4.34c-7.51,1.89-25.64,1.36-30.41.83-4.19-1.33-7.83-4.21-8.59-10.73C756.2,831.94,757,828.93,757.56,827.51Z"/><path class="cls-2" d="M891.52,911.68a28.06,28.06,0,0,1,1.32-2.95,27.75,27.75,0,0,0,1.29-2.7c.22-2,.65-4.76,1.14-8s1.13-7.92,1.46-11c.21-1.83.47-4.16.49-5.52a48.38,48.38,0,0,1,.37-6.64l-27.67-1.58a22.25,22.25,0,0,1-3.67,13c-.77,1.4-14.5,12.49-22.08,11.65-8.68-1-14.29-3.93-18.27-13.78-.93-5.05,7.49-29.61,19.44-33.61a23.6,23.6,0,0,1,8.63-.77,22.8,22.8,0,0,1,8.37,2.66c2.44,1.38,8.08,6.34,8.23,11.68,1.22.13,3.56.27,6.9.27,4.95,0,12.35.25,19.24.65a2.64,2.64,0,0,0,3-1.77c.31-1.7.77-3.63,1-5.21.49-4.41,0-8.79-3.78-12.8l-3.53-3.86a24.85,24.85,0,0,0-1.78-1.8,5.26,5.26,0,0,1-.25-5.6c1.14-1.36,3.52-1.59,5.88-.58,4,2,8.2,7.59,10.55,10.94a11.67,11.67,0,0,0,1,1.35,15.74,15.74,0,0,1,1.86,5.53c-.2,5.17-.81,11.79-1.5,18-.63,5.62-1.41,11.6-2.19,17.46s-1.71,13.17-2.32,18.67c0,.37-.21.84-.27,1.33-.6,3.16-1.61,7.87-5.49,9.3a13.58,13.58,0,0,1-4,.42C890.68,915.92,890.92,913.72,891.52,911.68ZM837,878.77a15.15,15.15,0,0,0,0,4c.74,3.42,4.46,6.68,7.54,5.66,4.84-1.19,11.67-3.65,14.32-9.67a32.77,32.77,0,0,0,1.52-7,21.2,21.2,0,0,0-.41-7.47c-.73-2.31-2.17-4.94-4.46-5.57-3.84-1-7.1.45-10.79,4.74S837.62,873.27,837,878.77Z"/><path class="cls-2" d="M920.94,902a14.1,14.1,0,0,1,6.09-3.53l1.15-.37c6.3-3.26,15.21-13.29,16.8-16.45,1.82-1.9,5.77-8.52,7.5-14,.53-1.43.27-2.45-1.05-2.84-3.46-1.13-19.08-3.11-27.13-3.13-.48-.06-2.3-.38-2.44-1.39,0-.24-.2-.39-.18-.64a13.09,13.09,0,0,1,.3-3.8v.12a3.93,3.93,0,0,1,3.73-2.43c4.58,0,10.26.15,15.8.39,7.13.42,14,.81,17.16,1.53,2.51.78,5.19,5.65,5.49,7.42a7.44,7.44,0,0,1,0,3.22l-.12,1.1a46.6,46.6,0,0,1-5.38,12.77,78.51,78.51,0,0,1-27.38,28.15,10.42,10.42,0,0,1-8.22.44C921.87,908.11,919.11,904,920.94,902Zm54.59,15.46c2-10.29,4-20.59,5.54-30.94,1.14-8,2.54-18.41,3.39-26.11.37-3.3.72-6.48.89-9.06.21-2-4.54-10.4-6.43-13.46-.83-1.45-1.77-3,.66-4.88,1.74-1.16,3.82-.93,6.62.61.66.7,2.19,2.6,3.71,4.5a24.1,24.1,0,0,1,4.92,9.21c1.25,5.46.64,11,0,16.22-.34,3-2.18,15.22-2.51,15.93-.69,1.78.1,2.49.59,2.54l10.88,1.21c2.2.24,5.16.32,7.63.35,2.23,0,4.82,0,6.54.23a3.54,3.54,0,0,1,2.28,2.85v-.12c.27.9-.23,3.19-.47,4.28-.66,2.53-5.41,3-5.78,3-7.45-.83-12.36-1.25-15.66-1.62l-3.79-.42-2.82-.19c-.72-.2-1,1-1.19,1.73-1,4.59-2.06,11.9-3.09,19s-1.94,14.14-3,19.22c-.41,2.55-2.7,5.39-4.17,5.23l-5.5-.61c-.73-.08-2.76-1.91-2.28-2.85Z"/><path class="cls-2" d="M1019.67,912.28c.77-1.39,2.68-4.15,4.88-3.91a15.62,15.62,0,0,0,3.41-.61,20,20,0,0,0,6.4-3l4.08-3.26c3-2.27,5.8-4.31,6.53-5.34.68-.55,7.16-7.62,7.86-8.41,2-2.13,6.45-8,7.77-9.78.14-.11.3-.46.29-.34.29-.46-.64-.94-1.5-1l-20.22.47-3.26.38.12,0a19.37,19.37,0,0,1-5.6.24,6,6,0,0,1-3.69-2.39c-.9-.84-4.06-4.65-.67-7.37,1-.76,3.64-.46,5.35-.27l.49.05c2,.22,5.92.16,31.91-.91a19.24,19.24,0,0,0,5.28-.78,11.47,11.47,0,0,1,5,.56c1.84,1.31,2.87,2,2.49,5.47-.16,1.47-2.43,5.18-4.44,7.68a4.9,4.9,0,0,0-1.33,2l-1.48,2.19c-.87,1.14-1.88,2.39-6.15,8.6-.87,1.14-1.21,2-1,2.24v-.12c1.66,1.79,3.18,3.69,4.37,5.19l1.1,1.23h-.12c1.28,1.87,3.32,4.7,4.88,5.12,2.35,2.24,3.9,3.9,4.67,5.84a4.56,4.56,0,0,1-.26,1.21c0,.24-.17.47-.2.72l-.41,1.44c-.47.93-2.86,2.4-3.51,2.7-3,.65-5.63-1.74-7.34-4.16l-2.73-3.27c-1.63-2-2.93-3.67-4-4.9-2.83-3.41-3.72-4.38-4.33-4.44a46.41,46.41,0,0,0-5.11,3.64h.13a95.44,95.44,0,0,1-9.5,7.49l-2.56,1.94a41.33,41.33,0,0,1-8.52,4.25c-2.13.26-5.07-.06-5.88-.53C1020.75,917,1018.4,914.74,1019.67,912.28Zm67.45,24.44,1.88-8,2.3-9.64a59.77,59.77,0,0,1,1.5-7.88,19.7,19.7,0,0,1,.91-3.73,20.53,20.53,0,0,0,.92-3.86c2.54-13.95,3.24-20.31,4.44-31.07a25.21,25.21,0,0,0-2.39-8.55l-4.5-7.43c-.27-.9-1-3.33.08-5.19s4.17-3,6.12-1.67a51.62,51.62,0,0,1,5.8,6.83,51,51,0,0,1,4.38,7.41,15.78,15.78,0,0,1,1.1,6.81c-1.12,10.15-1.42,15.06-2.28,20.54-.39,2.43-.76,4.62-1,6.45s-.5,3.41-.61,4.39a51.41,51.41,0,0,1-1.14,5.81,53.77,53.77,0,0,0-1.13,5.69,71.55,71.55,0,0,1-1.44,7.39c-.08.73-.41,1.44-.49,2.17l-.25,1.21a2.37,2.37,0,0,0-.22.85,64.24,64.24,0,0,0-2.21,11,72.29,72.29,0,0,1-1.51,8c-1,2.61-4.82,2.19-6.9,2-1.59-.18-4.73-4.24-3.6-8.82A2.16,2.16,0,0,1,1087.12,936.72Z"/><path class="cls-2" d="M1167.69,885.4c2.22-6.69,7-9.74,14-12.07,8.49-2.89,21.35,3.86,23.85,12.55,2.23,7.8-1.11,20-10.83,24-14.26,5.85-23.57-1.75-25.41-6.4C1167.05,897.82,1164.94,893.38,1167.69,885.4ZM1205.13,955c-5.43,4.35-9.75,2-16.6,2.36-9.17-1-16.56-8-16.22-24.44a20,20,0,0,1,2.08-6.46c.86-1,7.77.25,7.95,3.11-.37,3.3-1.44,14.08,5,17.27,4.81,2.39,16.14,2.9,20.52-.94.71-4.13,8.29-11.09,20.74-8.47,6.05,1.29,12.5,10,11,17.06-1.79,8.34-9.9,11.15-13.28,11.52-8.27.94-17.69-1.22-19.34-10.81C1206.14,953.77,1206,954.37,1205.13,955Zm-25.27-53.3c5,2.66,14.72,0,15.85-5.67,1.68-6.24-.82-11.6-4.88-12.91-4.37-1.85-11-2.09-13.66,3.8C1175.14,891.79,1175.54,899.39,1179.86,901.72Zm25.05,22.95c3.52.64,22.24,1.48,25.78,1.87s10.27-1.08,11.81-.42c2.36,1,2.35,4.47,2,6.78-.28,1.33-2.21,3.1-4.92,3-6.11-.68-25.4-2-33.84-2.89a3.75,3.75,0,0,1-2.48-2.13C1202.18,928.08,1203.21,924.36,1204.91,924.67Zm8.83-16c3.77-1.69,6.33,3.18,11.57,3.88l3.27-29.46c.9-8.07-2.26-13.12-6.74-20.67-1.78-2.92,2.54-5,6.36-3.75s7.21,7.48,8.94,10.89c3.34,6.68,1,13,.7,20.37-.06,1.73.51,2.16,1.63,2a110,110,0,0,0,11.2.62c4.81.17,8.54-1.15,12.7-.69,2.93.33,2.2,5.81,1.85,7.88-.56,3.9-14.21,2-19.1,1.47a60.38,60.38,0,0,0-7.68,0,2.09,2.09,0,0,0-1.91,1.65c-.46,4.15-1.64,9.22-2.11,13.38,1.31,1.63,3.25,2,4,3.91.28.77-.83,4.11-2.24,4.57-4.64,1.59-25.35-6.89-24.69-12.88A3.83,3.83,0,0,1,1213.74,908.7Zm5.61,48.64c4.23,2.08,9.65,1.19,11.55-4.78.37-1.08-.86-4.55-2.12-5.44-1.49-1-5.18-2.43-8.12-1.52C1215.3,947,1212.45,953.73,1219.35,957.34Z"/><path class="cls-2" d="M1267.35,918.48c.5-4.52,2.13-8.05,4.28-9.55a51.35,51.35,0,0,0,7.13-7.37c3.26-3.72,4.86-4.78,7.49-5.11,4.51-.49,11,2,13.63,3.24,4,2,12.55,11.79,10.66,19.87l-.66,2.65a34.23,34.23,0,0,1-1.56,5.15c-2.09,3.23-10.34,10.61-14.86,12.34-1.16.36-10.08.49-12.91.3-5.09-2-12.41-9.67-13-13.69A24.7,24.7,0,0,1,1267.35,918.48Zm9.75,2.45c-.23,2.08-.53,4.77,3.82,8,.53.8,4,1.81,4.5,1.86,2.32.26,10.7-1.66,13.75-9.12,0-.24.32-.58.34-.82a10.64,10.64,0,0,0,1-4.84c-.53-3-4.37-8.65-7.91-9.05a10.24,10.24,0,0,0-6.58,1.26C1280.8,911.07,1277.74,915.18,1277.1,920.93Zm53.56,15.84c1.09-6.44,2-13.64,2.73-20.11.52-4.65.91-9.31,1.42-14,0-.36-.49-7.85-3.16-11.61a36.21,36.21,0,0,0-3.59-3.37c-2.35-2.24-5.35-5.29-6.07-6.61a3.86,3.86,0,0,1,0-3.22,3.09,3.09,0,0,1,1-1.37,5.41,5.41,0,0,1,4.92-.82c1.18.5,5,2.66,9.58,7.38a9,9,0,0,0,1,1.22c1.89,1.94,5.18,5.77,6.46,9.87a82.88,82.88,0,0,1-.26,16.81c-.28,2.56-.73,5.48-1.26,9.14a2.44,2.44,0,0,0,1.2,1.49c2.08.23,7.36.57,12.28.87,4.3.23,9.08.64,10.55.8s3.25,3.08,2.78,5c-.23,2.08-3.51,4.93-6.45,4.61-2.79-.44-6.35-.71-9.3-.91-1.73-.07-4.17-.34-6.25-.57-1.71-.19-5.85-.78-6.07,1.18-.46,1.93-1.07,5.2-1.75,9.09-1.34,7.65-3,17.24-4.44,22.15-.86,2.13-4.58,2.22-4.94,2.18-.62-.07-6.85-.76-6.28-3.67A252,252,0,0,0,1330.66,936.77Z"/><path class="cls-3" d="M568.79,1011.89a7.34,7.34,0,0,1,.89-3.61l.59-.81a77.21,77.21,0,0,0,8.61-12.9c.75-1.16-.79-2.93-2.12-3.21a29.07,29.07,0,0,0-5.61-.74c-1.1-.12-1.85-.08-3.07-.22-.29.34-1.78-.69-1.75-2l0-.49c0-1,0-3.1.42-3.79.91-1.51,6.94-1.21,11.63-1.06.85.09,1.72.07,2.46.15,3.7,0,7.39.32,8.36.43,1.84.21,13.32-1.74,17-2.32,3-.41,3.95.06,5.77,2.62.67,2.92-.09,4.2-.76,4.62a55,55,0,0,1-11.49,3.18c-2.66.57-5.43,1-8.5,1.9-2.39,1.47-8.45,15.89-9,17.2a1.16,1.16,0,0,0,.78,1.82c2.08.23,4.16.46,6.35.82l7.08.91a56.94,56.94,0,0,0,8,.4,2.57,2.57,0,0,0,1.39-.34,28,28,0,0,1,4.92-.82,4.64,4.64,0,0,1,2.87,2,14.92,14.92,0,0,1-.75,5.61c-.39,1.32-5.15,2.9-7.63,3-3.95-.07-9.47-.55-15-1.17-5.26-.58-10.87-1.32-14.49-2.1-1.81-.45-7.3-5.63-7.06-7.84Zm31,44.9a4.29,4.29,0,0,1-1.5-2.15l-.15-.88v.12c-.43-1.65-.88-3.19,1.29-3.81.5-.07,4.35-.14,7.81-.13l5.2,0c5.34-.15,10.65-.05,15.47,0l4,.06c1.89-.28,1.87-6.84-.15-7.56a103.38,103.38,0,0,0-10.58-1.67c-3.06-.34-6.25-.57-9.32-.79s-6.37-.58-9.43-.92c-1.71-.19-3.79-1.53-3.6-3.25l.08-.73c0-1.48.3-3.8,2.19-4.09a110.27,110.27,0,0,1,12.55.65c5.65.38,12,.72,16,.54a2.8,2.8,0,0,0,1.46-2.06c.32-3.93,1.51-12.46,2.62-19.14.76-4.62,1.47-8.75,1.71-10.95l1.13-10.15c.23-2.07.66-6-.48-8s-6-8.71-9.05-11c-2.28-1.74,1.14-5.81,4.16-6.22s5.41,1.47,7.68,3.33c.46.3.89.84,1.35,1.14,3.17,2.7,6.66,8,6.91,13.64a70.66,70.66,0,0,1-.37,8.86c-.15,1.35-.41,2.56-.56,3.9l-.39,3.55c3.42.38,6.83.88,10.5,1.29l10.88,1.21c1.71.19,4.71,2.13,4.47,4.33-.24,1.08-1.21,4.19-2,4.36-3.27.5-7.44.16-12.24-.12q-5-.37-10.71-.45a7.46,7.46,0,0,0-3.2.88l-1.33,10.87L641,1032.16c-.09.85.48,1.29,1.14,2,1,1.1,2.24,2.11,2.22,4.58,0,3.58-.13,6.67-.42,9.36a78.57,78.57,0,0,1-1.63,9.1,5.2,5.2,0,0,1-4.58,3.33c-9.29-1-23-1.44-25.48-.11-.91.4-1.58,3-1.85,5.49a14.53,14.53,0,0,0-.05,3.83,13.8,13.8,0,0,0,3.69,6.85c.9.84,3.09,1.2,5.53,1.48a54.63,54.63,0,0,0,9.13.27c.12,0,.14-.11.26-.1,1.89-.28,6.56-1.13,9.9-4.47.84-.9,2.47-1.09,4.18-.9a10.19,10.19,0,0,1,3.48,1c1.86,1.07-.75,5.61-3.52,9.38-2.41,2.83-10.09,6.19-18.32,5.64l-8.19-.9c-6.72-.75-16.19-5.76-17.88-14a17.73,17.73,0,0,1-.16-5.22,41.43,41.43,0,0,1,1.1-5.45,47.19,47.19,0,0,0,1.12-5.69Z"/><path class="cls-3" d="M671,1027.93c.91-.39,7.19-.07,8.17,0,8.92,1,14.22,1.21,21.23.5,1.12-.12,2.15-2.73,2.32-4.2l1.12-10.15a3.18,3.18,0,0,1,2-2.49c1.54-.45,6.24.69,7.11,1.77-.58,5.26.77,9.74-.86,15.5.64.94,3.44,1.37,5.17,1.44,3.91.44,32.36,2.73,41.29,3.72,2.2.24,1.52,3,1.25,5.46s-1.25,4.56-4.94,4.4c-2.58-.16-31.61-4-38.28-4.12-9.63-.21-31.27-1.49-44.79-3.49C668.23,1035.8,669.41,1028.5,671,1027.93Zm19.62,35.1c.09-.86-1.53-4-3-5.65-.76-1-3.13-4.19-1.75-6.51.44-.69,4.75-1.58,6.46-1.39s3.45,3.48,4.92,4.76c2.34,2.36,5.69,1.12,7.09.78,12.41-2.58,17.49-3.75,27-2.69,0,0,5.64,1.62,6.82,4.35,1.37,3.24.33,14.88-2.4,25-.25,1.08-2.84,5.5-2.38,5.8,2.41,1.75,2.56,2.63,2.39,4.1-.25,2.32-4.37,4.83-7.43,4.5l-27-2.88a8.7,8.7,0,0,0-3.49,1.34c-.07.62-6,.58-6.23-.69C689.14,1082.67,693.9,1074.41,690.58,1063Zm4.34-65.86c-.35-1.27,10.24.27,13.17.6,1.47.16,8.94-.25,10.41-.08,2.53-.47,11.39-.1,13.31-1.74l.68-.55a18.29,18.29,0,0,0,0-3.7c.28-.34-1.06-1.61-1.77-1.93-2.47-1.14-7.75-1.48-10.55-1.92l-22.13-2.45a2.68,2.68,0,0,1-2.29-1.62c-.21-.39.1-5.43.93-6.21.87-1.14,6.06-1.06,8.25-.69l24,2.66c1.22.13,6.9.27,9,.5,2.17.49,5.29,3.56,5.31,5.66.08,3.73-1.86,16.75-2.24,20.17a96.06,96.06,0,0,1-3.34,10,19.45,19.45,0,0,1-4.29,5.22c-1.28,1.46-9.35.57-9.2-.78s-.19-1.63.61-3.27c.63-1.17,1.67-1.67,2.77-2.66.68-1.66,1.92-5,3.09-8.82a46.18,46.18,0,0,1-5.52.63c-13.72.95-12.89,1.29-29.5-1.79-.49-.06-1-.23-1.31-1.63A8.13,8.13,0,0,1,694.92,997.17ZM708.19,1085c5.59.87,7.74.49,13.36,1.11a2.13,2.13,0,0,0,2.29-1.6c1.12-3.47,5.74-16.07,3.93-19.86-1.19-2.61-3.58-2.26-6-2.53-3.79-.42-15.42,1.76-20.48,2.8a30.64,30.64,0,0,1,1.23,6.7,88.7,88.7,0,0,1-.28,10.36C701.93,1084.58,703.33,1084.24,708.19,1085Z"/><path class="cls-3" d="M767.41,1014.13a35.42,35.42,0,0,1,6-3.79c2.42-.6,10.8-.29,16.86-.23,2.47,0,4.59-.11,5.7-.11,2.61-.09,16.62.85,20.9,1.32,1.59.18,1.21,2.49.95,4.81l-.1.86c-.09.85-2.28,2.72-6,2.8a85,85,0,0,1-11.07-.61,114.6,114.6,0,0,0-13.18-.6c-2.5.22-4.74.34-6.63.63a33,33,0,0,1-9.08.47,16.86,16.86,0,0,1-3.4-.62c-.6-.19-.8-.58-1.33-1.39-.11-.13-.1-.25-.07-.5C766.71,1016,766.46,1014.89,767.41,1014.13Zm10.48,31.61a50.34,50.34,0,0,1,1.52-7c1.45-4.17,6.48-8.19,10.17-9.15.27-2.44.52-4.64,3.74-4.66a31.92,31.92,0,0,1,3.56.28,36.19,36.19,0,0,1,13,3.66c3.26,1.85,6.72,9.66,6.72,14.11a23.33,23.33,0,0,1-2.12,9c-2.43,5.18-9.34,11.71-13.2,13a17.21,17.21,0,0,1-8.12.71c-5.26-.58-11.07-2.84-13.27-7.53A21.23,21.23,0,0,1,777.89,1045.74Zm4.6-54.81c.26-2.33.26-2.33,1.93-4,.85-1,4.13.71,7.51,2.57a38.29,38.29,0,0,0,8.22,4,40.79,40.79,0,0,0,9.2,1.76l1.23.14c1.95.21,3.68,1.39,3.46,3.35-.38,3.42-2.29,6.18-6.45,5.72l-5.13-.57c-1.84-.2-11.36-3.61-16.52-7.28-1.6-1.17-3.74-3.14-3.51-5.21Zm6.31,63.57a11.55,11.55,0,0,0,2.32,1.37,11.35,11.35,0,0,0,6.89.39c2.67-.69,7.86-4,8.88-9.78.68-3.89.87-5.6-3.31-10.27l0,.12a18.6,18.6,0,0,0-4.45-1.11,2.47,2.47,0,0,0-1.52.33,1,1,0,0,1-.18.47c-.65,1.41-4.1,2.39-6.14,2.91-2-.22-3.78,3.91-3.95,5.5C786.57,1051.15,787.67,1053.5,788.8,1054.5Zm10.62,21.35a7.18,7.18,0,0,1,3.48-2.34c1-.26,3.29-.62,4.32.11a4.61,4.61,0,0,1,1.94,3.68c0,3.83,1.19,9.41,3.44,12.51l1.7,2.54c2.15,3,8.15,4.62,9.43,4.26,1.46.17,10.89-1.14,15.17-4l3.77-2.8a6.43,6.43,0,0,1,5,.56,3.45,3.45,0,0,1,1.4,3c-1.13,4.58-5.57,7.8-7.92,8.9a82.68,82.68,0,0,1-16.18,4.15,31.27,31.27,0,0,1-5.54-.25,19.81,19.81,0,0,1-5.62-1.74c-6.71-3.09-15-17.26-14.58-24.76C799.4,1078.32,799,1076.78,799.42,1075.85Zm33-75.54c-1.16-1.74-.89-5.3,1-6.58a5.55,5.55,0,0,1,4.41.37c1.74,1.06,6.62,6.18,12.89,14.42,1,1.35,1.63,5.38,1.75,7.62,0,1.48-.18,2.7-.31,3.93-.17,1.46-.37,3.3-.66,4.75s-1.45,10.85-1.68,12.93c0,.37.67.7,5.18.21a77.71,77.71,0,0,0,9.67-1.28,47.82,47.82,0,0,1,10.82-.53c2.94.32,3.58,1.26,3.39,3l-.27,2.45c-.18,1.59-3.89,3.77-7.16,4.28a22.81,22.81,0,0,1-6.28.78l-4.19-.09-5.41.76c-3.29.63-.82.65-4.81,1-1,.26-2.08.89-2.17,1.74l-2.47,22.25c-.46,4.16-4.39,6.07-9,5.19-.61-.07-1.75-.94-1.66-1.79l6.35-56.1a27.84,27.84,0,0,0-.75-7.76,33.3,33.3,0,0,0-4.81-6.84Z"/><path class="cls-3" d="M967.56,1041.66a155.61,155.61,0,0,1-4.71,17.92c-.88,2.38-3.56,4.18-5.68,5.43-.81.65-2.51.34-3.53.6-3.18-.35-6.45-1-14.33-2.46-1-.1-1.89.29-2,1l-.79,2.64c-.78,2.63-1.63,4.64-2.1,6.7-.27,1.33-.15,3.57.29,4.11,1.07,1.48,2.26,3,3.69,3.5,1.26.89,9.7,2.94,11.17,3.1,1.83.2,13.57.39,15.39-.4,4.22-1.26,4.64-1.71,7.86-4a4.17,4.17,0,0,1,6.24,2.92,6.38,6.38,0,0,1-.29,3.68A12.91,12.91,0,0,1,977,1088c-6.73,6.06-20.21,7-29.87,6-1.59-.17-3.65-.53-5.1-.81-3.92-.44-11.58-3.88-15.29-6.15-2-1.59-3.2-6.79-3-8.26a28.49,28.49,0,0,1,1.74-9c.74-2.26,1.3-2.82,1.57-5.27s-1.41-2.88-2.67-3.76a3.56,3.56,0,0,1-2.15-1.84,29.47,29.47,0,0,1,.35-4.3l1.78-1.53a51.77,51.77,0,0,1,7.68,0c3.3.37,6.46.84,19.66,2.31,1.23.14,2-.15,2.22-1a33.71,33.71,0,0,1,1.11-4.46c1-3.84,2-6,2.13-9.17a3.78,3.78,0,0,0-2.46-2.37l-24.45-2.72a3.2,3.2,0,0,1-2.4-2.86,5.5,5.5,0,0,1,.35-3.18,3.71,3.71,0,0,1,2.84-2.16l3.22,0a177.35,177.35,0,0,1,19.72.71l1.59.17a44.18,44.18,0,0,1,7,.78c1.32.39,4.25,4.06,4.8,5.85a30.32,30.32,0,0,1,.14,4.23Zm20.48,59.7a42.29,42.29,0,0,0,.94-6.21c.28-2.57.74-5.61,1.2-8.65,1.06-6.2,1.89-12.54,4.85-39.19a59.72,59.72,0,0,0-.58-17.14c0-.37-.78-2.94-4.64-9.43l-.37-1.15a7.38,7.38,0,0,1-.26-2.14c.37-3.3.6-4.26,1.82-5.24,1-.76,5.68.13,6.25.57,1.7,1.43,7.38,11.59,8.11,16.12.35,1.28,1,3.33.15,13.14-.16,1.46-.35,4.29-.44,7.37s-.21,6.29-.4,8l3.55.4a61.73,61.73,0,0,0,6.67.12l2,0a89,89,0,0,1,11.55.79,3.82,3.82,0,0,1,2.2,3.58l-.25,2.2a7.75,7.75,0,0,1-3.27,2.73,16.85,16.85,0,0,1-8.65,1c-2.46-.15-12.92-.69-15.34-.09l-.64,1.29-3.27,29.46a93.59,93.59,0,0,1-2,9.19c-.22.84-2.12,4.59-3.77,4.9-1.88.29-5.18-.08-6-.66-.44-.43-1.33-1.39-1.26-2Z"/><path class="cls-3" d="M1034.5,1049.59a2.61,2.61,0,0,1,3.21-2.12c7.28,1.3,14.79,1.64,22.12,2.45.61.07,5,0,6.05.18,1.18.5,3.23,2.09,3,4.29l15.18.32c3.22,0,4.91-.69,7.94-.11,1,.23,3.93.19,4,2.3.18,5.09-3.6,6.78-5.58,6.8-1.12,0-5.31-.09-6.29-.2a7.74,7.74,0,0,0-5.67,2c-1.3,2.83-5.82,11.24-5.82,19,.38,2.15,4,2.92,5.22,3.18,2.89.69,8.42-.06,12.33-.74.76-.16,3.54-.72,4.52.51.65.81-.16,7-.88,7.94-.46.82-4.43,2-5,2-6.17.93-11.25-.13-16.43-1.45-3.24-.86-7.3,0-9.86-4.81-1.65,1.55-3.47,3.45-12.82,2.91-4.43-.24-7.46-.83-11.86-1.31-.87,0-5.83-2.14-4.49-9.66.61-5.5,5.55-16.59,7.48-21.69.68-1.66,3-2.52,4.83-2.31s6.87.51,5.72,4.22c-2.46,7.65-6.12,10.58-7,18.41-.21,1.83.5,2.15,1,2.33,3,1.2,10,1.11,11.24,1.25,1.84.2,4.78-.71,5.9-2.94.89-1.38,1.65-6,2.56-8.62.94-2.87,1.46-4.17,4.51-9.4.31-.59.11-1-.87-1.09l-4.15-.46c-.49,0-1.42-1.76-1.66-4a93.46,93.46,0,0,1-24.3-2.94C1033.7,1054.57,1034.16,1052.64,1034.5,1049.59Zm72,30a67.19,67.19,0,0,1-15.26.28c-1.59-.17-4.21,0-2.87-5.39,1-2.48,1.14-3.58,3.84-3.28,6.11.67,13.27-.26,16-.09.61.07,2-1,2-5,.24-7.77-.89-11-3.17-15-.94-1.58-2.15-7.41-.25-7.82,5.58-1.24,6.56-1.13,9,2.61,3.19,4.68,5.47,13.1,5.5,20.66-.08,5.19-5.25,38.4-6.39,43.1-.23,1-1.17,2.71-1.9,2.63-2-.21-9.19,1.34-8.4-2.41,1.93-9.57,2.66-17.28,3.75-27.06C1108.68,1081.45,1108.41,1079.44,1106.54,1079.61Zm23.55,5.21c.51-4.65,2.39-29.31,1.6-35.59-.45-3.76-5.18-12.45-7.23-16.27-.68-1.68-.14-2.12.34-3.06.31-.58,4.14-2.75,7.88-.73,3.47,2.12,9.7,15.18,10.16,19.94.65,8.61-1.82,29.75-2.43,35.25-.72,6.48-5.9,38.7-5.89,39.69-.16,1.46-1.38,6.9-2.44,7.52-2.08-.23-8.44.18-8.38-2.54Z"/><path class="cls-2" d="M211.79,407.56a23.72,23.72,0,0,0,1-3.25c-.08-.49,0-5-.07-5.47-.08-3.09,1.46-11.15.77-15.78-.81-1.25-4.83.1-7.13-.31-.13,0-4-.9-4.32-1.47-.55-1.16-.13-6.7,1.58-6.95l7.3-1.08c.85-.13,2,.2,3.2-.23a23.9,23.9,0,0,0,3.05-1.2c3.56-1.15,13-4.54,17.3-5.8.83-.24,2.65-2.25,4-2.7,2.58-1,3.85-1.69,6.41-2.06a3.43,3.43,0,0,1,3.29,1.25c.36-.06.85,3.23.9,3.59s-1,5-2.3,5.44c-5.21,1.77-12.68,3.38-18.53,5.86a9.88,9.88,0,0,0-4.24,3.24c.08,2.23-.65,5.69-.66,7.31l1.17.32c1,.22,16.64-4.33,19.3-4.85,3.61-.78,7.73-2.39,11.4-2.81,1.82-.27,1.89,6.06,1.06,7.18-1.12,1.66-10.53,5.29-12.11,5.53-2.19.32-4.21.13-7.28,1.2-1.31.44-10.06,3.48-11.88,3.75-1.1.17-1.75,2.5-1.75,2.5-.43,3.8-.57,3.69-.17,6.37.22,1.46,5.1,3.35,6.56,3.13l4.26-.63c.36-.06,4.93-2,5.41-2.05,8.87-1.44,12-3.77,19.18-4.83.49-.07,3,1.55,3.06,2.16.14,1,.62,3.38.61,4.13-.28,3.15-3.94,4.44-6.39,4.68l-12.14,2a20.17,20.17,0,0,0-2.46,1c-1.95.28-11.43,2.56-15.14,2.74-4.69.2-13.25-5.5-13.43-6.71C212.33,411.21,211.16,410,211.79,407.56ZM246.9,438c.25-.78,2.23-5.05,3.31-5.34.24,0,1.89-.65,2.68-.39a14.58,14.58,0,0,1,3.14,2.76c2.67,3.71,3.94,5.64,6.67,8.09a15.61,15.61,0,0,0,9,3c2.73,0,8.07-.94,10.82-3.34,1.21-1.05,2.65-2.26,3.88-3.19.55-.45,2.77-2.27,4.62-1.55.92.36,2.21,3.15,2.37,4.25a5.53,5.53,0,0,1-.16,3.13c-1.95,2.77-8.86,8.15-13.13,9.53a31.28,31.28,0,0,1-15.71-.28c-1.54-.27-8.46-4.22-10-6.1-2.91-2.06-7-7.17-7.12-7.78C247.17,439.87,246.66,439,246.9,438Zm31.33-31c0-.63.62-4.2.52-4.93-.45-3-1.3-4.53-2.06-9.64-.32-2.19.37-5.9.17-9-.15-1-2.92-18-3.95-19.93-1.59-3.12-8.62-11.16-14.4-14.9-1.24-1.68-1.06-3-.58-3.9s.74-2.59,2.23-3.43c1.14-.67,3-1.2,4.07-.23,1.73,1.6,6.16,4.68,8.59,6.8,1.57,1.39,4.91,3.75,6.4,6.27.34.57,3.87,7.63,3.95,9l2.47,16.66c.09.61,1.33,1.42,1.33,1.42l8.76-1.3c4.5-.66,8.43-3.48,12.31-5.05,1.59-1,2.86-1.67,4.42-1.16a8.66,8.66,0,0,1,2.2,3,5.16,5.16,0,0,1-.83,4.48,7.5,7.5,0,0,1-4.78,3.82c-3.95,1.08-12.75,4.62-21.9,5l-1,.53,1.57,10.59c.08.48-.11,1.76,0,2.24l1.1,7.42c-.53.58-.87,2.5-2.42,3-.71.23-5.59.83-6.93,1C278.9,414.89,277.82,414.31,278.23,407Z"/><path class="cls-2" d="M315.9,392.74c3.25-1.6,8.34-5,10.26-7.11a52,52,0,0,0,10.64-18.86,43,43,0,0,0,1.06-13,18.72,18.72,0,0,0-1.87-4.2c-1.58-2.25-2.57-3.1-2.72-4.07-.21-1.46,2.88-2.42,3.62-3.27.43-.44,3.48,0,4.28.36a13.37,13.37,0,0,1,5.94,7.32c2.94,7.28,2.24,10.11.93,17.15,9.19,5,14.68,10.13,21.36,14.11a35.31,35.31,0,0,1,2.73,2.46c1.5,1.77-2.4,6.45-4,6.68l-3.17.47c-1.21.18-2.53-2-3.39-2.73-3.37-2.61-13.43-10.07-17-11.65-3.29,8.82-10.53,15.37-11.83,16.68-1.81,2-14.22,10.56-16.19,7.37C314,396.39,313.62,394.08,315.9,392.74Zm39.18,16.83c.77-1.49,6.38-3.93,8.28-2.85,1.22.69,4.59,5.79,5.89,7.83,3.89,6.14,7.86,9.41,12.32,11,2.49.88,5.66,1.28,10.19-.89.92-.51,11.42-7.66,12.78-8.61a16,16,0,0,1,3.4-.5c.59-.21,2.75,2.58,3.12,3.39a4.07,4.07,0,0,1-.21,3.64c.31,2.07-14.49,13-21.06,13.94-5,.74-8.06,1.82-13.76-.57-4.9-2-14.14-12.33-16-14.67-2.31-3-4.5-5.17-5-8.58A5.67,5.67,0,0,1,355.08,409.57Zm34.61-17.32c-.2-1.34-1.82-21.49-2.17-22.19l-1.61-10.83c-1.08-7.3-2-17-4.25-22-.74-1.63-4.2-4-5.51-4.4-5.33-1.57-6.63-2-8.54-4-.6-.66.89-5.73,2-6.64a18.83,18.83,0,0,1,8.8.69,58,58,0,0,1,9.44,4.07,14,14,0,0,1,3.94,4.76c1.8,3,3.93,20.68,4.64,25.43.07.48-.07,2.87,0,3.48.18,1.21,1.51,1,2.47.75,3.21-1,5.83-2.61,9.24-3.11,1-.15,11.61-2.22,14.65-2.67a3.75,3.75,0,0,1,2.26.16c1.68,1.24,1.64,4.36,1.88,5.94s-2.3,3.82-3.88,4c-4.14.62-7.89.43-15.94,2.37-1.68.37-7.42,3.59-7.75,3.88-.58.34-1.18.43-1,1.89.94,5.45,1.48,12.46,2.06,16.36l.52,3.52c-.39,1.55-6.3,5.29-7.52,5.47-1.58.24-5-1-4.61-3.42Z"/><path class="cls-2" d="M431.67,402.81a8.46,8.46,0,0,1-.63-4.26c.22-1,1.83-1.89,2.75-2.4a59.7,59.7,0,0,1,8.7-2.53,95,95,0,0,0,9.33-2.5h-.12c1.16-.54,1.12-1.66,1.29-3.05l.05-.5c0-2.25-2.05-11.26-3.16-14.58-.15-1-3.32-6.47-4.37-7.68-.48-.68-1.41-2.78-1-4.21.59-1.08,2.76-1.53,4.6-1.67,3-.19,6.45,3.27,7.07,4.05,1.37,2.53,4.36,11.78,4.82,13.21.76,2.62,1.72,9.07,2,11.14.16,1.09,3,1.43,4,1.14l8.65-2c5.14-1.38,14.66-3.42,19.65-4.16a3.16,3.16,0,0,1,2,.95A9.72,9.72,0,0,1,498,388c-.58,1.95-4.95,4.34-5.93,4.48l-16.87,3.62C467,398.18,457.31,400.5,450,402c-4.33,1-9.4,2-14,2.7-1.46.22-3.65-.32-4.23-1.73Zm39.73-36.48c.53-3.94.17-10.6-.66-16.19-.22-1.46-.42-2.8-.74-4.12a3.57,3.57,0,0,0-2.24-2.53,11.33,11.33,0,0,0-2,.17,2.36,2.36,0,0,0-.84.24c-4.32,1.89-8.68,3.53-13,5.05a34.66,34.66,0,0,1-5.69,1.09,35.12,35.12,0,0,1-5.63.59c-1.11,0-5.85-.88-6.9-2.09a7.17,7.17,0,0,1-.35-1.56l-.42-2.8.38-.8c.41-.56.74-.86.86-.88,2.68-.39,16.93-3.25,20.28-4.12.73-.11,6.67-2.86,7.36-3.21a37.5,37.5,0,0,1,8.09-2.44,27.23,27.23,0,0,1,4.32-.27c2.85,0,4.7,7.39,5,9.21l2,13.26a80.85,80.85,0,0,1,.47,10.75v2.61c0,3.11-4.2,6.84-6.5,6.44-.79-.26-2.88-1-3-1.92A57.6,57.6,0,0,1,471.4,366.33Zm33.42,30c.17-3,.41-6.4.31-10.49a21.13,21.13,0,0,0-.6-4.88c-.13-.86-.38-1.69-.47-2.3a19.27,19.27,0,0,0-1.85-4.94c-1.56-2.14-1.29-6.16-.15-8.56s.17-13.09-.17-15.4L499,330.28c-.47-3.17-3.83-6.52-6.34-8.39a24.55,24.55,0,0,0-4.45-2.32l-3.87-1.79c-.59-.66-1.58-3.13-1.36-4.15l0,.12c0-4.47,3.9-4.68,5.94-4.36,10.41,2.31,16.47,8.74,18.9,14.23a65,65,0,0,1,2.33,10.72c.56,3.77.95,8.07,1.44,12.22.55,4.52,1.13,9.28,1.76,13.54.15,1,1,2,3.35,1.62a81.47,81.47,0,0,0,8.76-2.17c5.47-1.68,11.55-3.45,14.19-3.22,1.64.13,3.45.6,3.77,2.79a11.79,11.79,0,0,1-.15,4c-.81,1.23-3.26,2.34-4.54,2.91-.47.19-.92.51-.8.49-.36.05-3.27.61-6.15,1.28s-5.4,1.3-5.89,1.37c-3.28.49-10.4,3.66-10.5,4.67-.83,3.61-.47,12.75.09,16.53.09.6.21,3.07.45,5.52l.46,4.79c.18,1.21-1.89,4.88-3.71,6a8,8,0,0,1-5.36.79,3.31,3.31,0,0,1-2.53-2.86A60.77,60.77,0,0,1,504.82,396.31Z"/><path class="cls-2" d="M582.56,349.59c1.09-1,1.93-.41,4.1-1.72,1.14-.67,8.34-11.69,9.06-13.53a36.06,36.06,0,0,0,3.11-13.4c0-2.61-1.89-5.19-3.19-7.23a3.1,3.1,0,0,1,1.81-4.62l3.77-.56a3.72,3.72,0,0,1,3.95,1.52c.5.8,2.44,3,2.72,4.08,1.16,4.43,1.2,12.25-.24,16.82.34.57,5.91,3,6.61,3.5a14.21,14.21,0,0,0,7.15,2c.74,0,4.21,1.62,4.32,2.35l.42,2.8c.2,1.33-1.51,4.07-2.73,4.25a15.76,15.76,0,0,1-4.13.62c-3.17-.4-14.22-7.84-14.27-6.47a4,4,0,0,0-1.67.5c0,.12-2.22,3.44-2.62,4.12-2.36,4.2-7,10.37-8.79,11.13a30.23,30.23,0,0,1-5.18,1.14c-1.1.16-4.75-1-4.86-1.77C581.68,353.7,581.16,351,582.56,349.59Zm78.65,4.63c-.34-2.31-.53-6.14-.89-8.57-.08-.49-.33-6.42-.79-11.2-.43-4.54.21-6.13-.93-9.56-.44-1.31-2.77-1.09-4.35-.85-1.82.27-3.61,1.65-5.34,2.53-1,.53-2.92,1.3-3.59,1.78-.49.07-.71,1.1-.71,1.1,1,6.81,2.29,13,2.3,17.19,0,3.23-5.29,6.25-6.14,6.38-1.83.27-1.89.65-2.93-.44s-3.76-5.28-3.2-7.35c.24-.91,2.08-1.93,2.05-2.92-.46-8.14-3.39-27.1-5.28-35.65-.47-2.29-6-5.32-8.16-6.37a5.85,5.85,0,0,1-3.52-4.46c.21-.28.73-2.59,1.1-2.65.88-.75,2.5-.74,5.18-1.14a3.63,3.63,0,0,1,2.29.41c3.2,2.26,8.45,4.09,10.83,7.59,2.42,3.75,2.76,12.77,4,17.19a1.16,1.16,0,0,0,1.5.89c4.73-.82,8.2-2.58,12.59-4.85,1-.14.79-1.36.85-2.61a81.39,81.39,0,0,0-.81-11.32c-.36-2.44-7.31-11.6-8.55-12.41a51,51,0,0,1-4.19-3.11,4.78,4.78,0,0,1-.51-3.41c0-1.86,5.36-2.41,7.31-2.7,1.46-.21,7.82,5.81,9.23,7.71l4.9,6.24c.91,1.11,1.65,5.23,1.86,6.69.18,1.21.67,7.85.83,8.95.11.73-.57,7.05-.3,8,1,6.94,2.18,18.08,3.14,24.53.57,3.89,1.55,8,1,12.78-.15,1.51-4.28,5.49-7.36,4.82C662.64,357.11,661.54,356.41,661.21,354.22ZM628.4,379.48c-.48-3.29,6.36-15,9.62-16.48,4.2-1.86,10.9-2,13-1.93,6.23.07,14.88,8.12,15.76,10.72,2.23,6.63-.09,15.31-3.48,20.91a19.36,19.36,0,0,1-20,8.44c-2.7-.59-9.55-4.05-12.38-9.73S629.18,384.71,628.4,379.48Zm17.49,11.45a24,24,0,0,0,6.57-1c1.88-.78,4.8-7,5-9.58.34-5.27-3.34-9.08-6.44-9.86-2-.7-4.07.23-6.62.61-2.31.34-5.24,5.75-5.85,8.33a9,9,0,0,0,.58,5.63A13.44,13.44,0,0,0,645.89,390.93Z"/><path class="cls-2" d="M687.66,364.84a8.41,8.41,0,0,1-.63-4.25c.22-1,1.83-1.89,2.75-2.4a60.69,60.69,0,0,1,8.7-2.54,89.68,89.68,0,0,0,9.33-2.5l-.12,0c1.16-.55,1.12-1.66,1.28-3.05l0-.51c0-2.24-2-11.26-3.15-14.57-.15-1-3.32-6.48-4.38-7.69-.47-.67-1.4-2.77-1-4.2.58-1.08,2.76-1.53,4.6-1.68,2.95-.19,6.45,3.27,7.07,4,1.37,2.53,4.36,11.79,4.82,13.21.76,2.63,1.71,9.07,2,11.14.16,1.1,3,1.43,4,1.15l8.66-2c5.14-1.39,14.66-3.42,19.65-4.16.36-.05,1.81.48,2,.95A9.58,9.58,0,0,1,754,350c-.59,2-5,4.34-5.93,4.49l-16.87,3.62c-8.15,2.08-17.88,4.39-25.25,5.86-4.32,1-9.4,2-14,2.7-1.46.22-3.65-.33-4.23-1.73Zm39.72-36.48c.54-3.93.17-10.59-.66-16.19-.21-1.46-.41-2.8-.73-4.12a3.61,3.61,0,0,0-2.24-2.53,12.67,12.67,0,0,0-2,.17,2.43,2.43,0,0,0-.83.25c-4.32,1.88-8.68,3.53-13.05,5a35.76,35.76,0,0,1-5.69,1.1,36.19,36.19,0,0,1-5.63.58c-1.11,0-5.85-.87-6.9-2.08a7.12,7.12,0,0,1-.35-1.57l-.42-2.79.38-.81c.41-.56.74-.85.86-.87,2.68-.4,16.93-3.26,20.28-4.13.73-.11,6.67-2.85,7.36-3.2a38.07,38.07,0,0,1,8.09-2.45,26.13,26.13,0,0,1,4.32-.26c2.85-.05,4.7,7.38,5,9.21l2,13.26a80.75,80.75,0,0,1,.48,10.75v2.61c0,3.11-4.2,6.84-6.5,6.43-.79-.25-2.88-.94-3-1.91A60.18,60.18,0,0,1,727.38,328.36Zm33.42,30c.18-3,.42-6.41.31-10.49a20.16,20.16,0,0,0-.6-4.89c-.12-.85-.37-1.68-.46-2.29a19.57,19.57,0,0,0-1.85-4.95c-1.56-2.13-1.29-6.15-.15-8.56s.17-13.08-.17-15.39L755,292.31c-.47-3.16-3.83-6.52-6.34-8.38a25.09,25.09,0,0,0-4.45-2.33l-3.87-1.79a7.25,7.25,0,0,1-1.36-4.15v.12c0-4.47,3.91-4.68,5.95-4.36,10.41,2.31,16.47,8.75,18.9,14.23a65.24,65.24,0,0,1,2.33,10.72c.56,3.78,1,8.07,1.44,12.23.55,4.52,1.13,9.28,1.76,13.54.15,1,1,2,3.35,1.62a83.91,83.91,0,0,0,8.75-2.17c5.48-1.69,11.55-3.46,14.2-3.23,1.64.13,3.45.61,3.77,2.8a11.73,11.73,0,0,1-.15,4c-.81,1.24-3.26,2.35-4.54,2.91-.47.2-.92.51-.8.49-.36.06-3.27.61-6.15,1.29s-5.4,1.3-5.89,1.37c-3.29.49-10.4,3.66-10.5,4.67-.83,3.6-.47,12.75.09,16.52.09.61.2,3.08.44,5.53l.47,4.78c.18,1.22-1.89,4.88-3.71,6a7.94,7.94,0,0,1-5.36.8,3.31,3.31,0,0,1-2.53-2.86A60.62,60.62,0,0,1,760.8,358.35Z"/><path class="cls-2" d="M811,275.68c7.95-4.29,20.91-4.1,27.54,3.75,5.39,6.16,5.56,18.2,5.32,19.11a20.2,20.2,0,0,1-16.37,15.36c-10.08,1.61-23.71.28-26.26-17.75C799.91,287.51,802.8,280.12,811,275.68Zm14.5,29.81c3-.58,8.32-4.22,8.65-8.75,0-3.35-.65-7.73-2.79-10.4-2.78-3.69-9.94-5-13.52-4-8.7,2.54-10.46,15.86-3.23,21C816.51,304.7,822.31,306.08,825.46,305.49Zm49.43,12.19c.63,0,1.61,2.49,1.69,3,.63,4.26,1.26,11,1.07,13.15-.22,3.51.22,7.3-3.49,10-10.17,1.88-16.7,3.09-28.28,4.69a1.14,1.14,0,0,0-.67,1.34c1.19,4.67,5.64,10.35,6.18,10.65,3.71,1.56,8,.55,12.46.14l8.45-.88c3.18-.35,6.1-3.27,7.44-3.47,2-.29,3.6,3.32,3.7,4.8.13,2.59-2.6,5.11-3.89,5.68-4.56,1.92-12,2.27-17.34,2.94-4.63.69-11.29,1.05-14.42,0-9.29-3.1-15.18-21-15.18-21-.43-2.92-.22-4.81,2.38-6.57,4.14-.61,9.81-1.82,13.75-2A90.47,90.47,0,0,0,864.82,337a3.93,3.93,0,0,0,2.92-2.92c.26-.78-.27-5.18-1-6.93-1.34-.67-22.85,3.51-24,3.55-3.4.51-7.18,2.68-9.84,3.2-1.44.34-3.4-1.11-4.27-3.59-.42-1.18.17-2.26.73-3.47.48-1.81,14.55-5.88,24.16-7.31C860.94,318.38,866.42,317.57,874.89,317.68ZM867,312.5c0-1.86,1.18-4.65,1.54-6.44-2.09-13.25-3.21-24.15-6.86-37-1.34-4.77-10.59-11-13.07-13.48-1.8-1.22-1.34-3.16-.67-4.5,1-1.88,5.61-2.45,7.63-1.38,1.74.86,12.26,9.75,14.74,14.73,3.93,8,4.65,20.45,5.37,25.31.58,3.9,2.62,16.77,1.55,23C876.77,315.28,866.91,315,867,312.5Z"/><path class="cls-2" d="M894.43,306.08a23.41,23.41,0,0,1-.16-6.94c1-4.88,6.58-16,11.86-20.66a15,15,0,0,1,6.15-2.16c1.7-.25,11.65,2.25,19.09,8,1.85,1.59,4.66,3.78,5.76,11.21a33.57,33.57,0,0,1,.46,4.78c.36,7.4-5.21,17.68-13.35,20.63a30.09,30.09,0,0,1-5.42,1.18,47.66,47.66,0,0,1-10.23.64c-2-.07-10-5.11-10.76-6.36A29.13,29.13,0,0,1,894.43,306.08ZM909,313a23.23,23.23,0,0,0,7,0,25.8,25.8,0,0,0,6.56-1.84c1.46-1.09,3.16-5.57,3.38-6.59a17.71,17.71,0,0,0,.34-6.89,22.2,22.2,0,0,0-1.19-4.68c-1-2.83-6.41-6.38-9.17-7.34a12.48,12.48,0,0,0-3,.45c-2.4.6-8,9.89-8.47,15.81C904.06,303.9,905.18,312.32,909,313Zm55.5,17.88a63.5,63.5,0,0,1,0-10.31,183.11,183.11,0,0,0-2-29.93c-.49-3.28-1.08-6.43-1.63-9.33-1.95-8.92-4.74-20.19-12.27-26.53a9.89,9.89,0,0,1-2-2.06,5.59,5.59,0,0,1-.22-.59c-.42-1.18-1.06-3.82-.28-4.44a6.21,6.21,0,0,1,5.54-1.19,23.13,23.13,0,0,1,7.47,5.11c7.9,8.77,10.25,15.39,13.12,32.25l.59,4c1,6.94,1.43,13,2,19.11.47,6.52,1,13.16,2.18,21.44.61,4.13-3.06,7-6.71,7.58-1.7.25-2.92.43-3.48,0C965.65,335.18,964.84,333.93,964.51,330.87Z"/><path class="cls-2" d="M1035.34,282.82c-1.38-5.15-5.77-9.59-13.68-17.62a4,4,0,0,1,.1-5.24,5,5,0,0,1,5.84-.87,9.35,9.35,0,0,0,1.58.64c2.53,1.12,5.63,1.9,7.58,4.1a14.56,14.56,0,0,1-1.06-2.08,2.17,2.17,0,0,1,.72-2.72,2.92,2.92,0,0,0,.78-.61,33.91,33.91,0,0,0,7.18-2.69c2-1.29,10.47-7.39,12-8.62,1.21-1.05,4.43-2,8.08-2.56a35.59,35.59,0,0,1,5.28-.41c1.13.08,4.89,2.75,5.09,4.09l1.59,12.45c.91,7.82,2,16.5,2.33,19.05a5.88,5.88,0,0,1,2,.2l2,1.45a11.84,11.84,0,0,1,.37,5c-.62,1.71-3.68,3.66-5.33,4.27l-5.11,1.63c-9,2.83-22.35,6.92-23.32,7.07l-.47,1.06a12.83,12.83,0,0,1-3.35,3.36c-3.59,2.64-6.2.17-6.74-3.48A127.76,127.76,0,0,0,1035.34,282.82Zm21.24-23.67c-4.18,2.86-9.95,6.7-17.81,7.36,5.32,5.68,7.46,15.06,8.49,20.38.29,1.08.66,2.76.72,3.13,2.92-.43,16.61-3.71,18.9-6.66-.12-.85,1-3.38.9-5.73a142.44,142.44,0,0,0-2.74-20.11c-.16-1.09-.92-2.85-5-.49ZM1070,311a5.79,5.79,0,0,1,.14-2.38l.41-1.43c1.53-1.47,5-1.61,6.46-.09l1.1,2.45a12.71,12.71,0,0,1,1.31,2.92,57,57,0,0,0,5.36,10.14l1.29,1.18c1.66,2,4.77,4.51,12.84,2.7,2.48-.87,13.25-7.07,15.48-9.64,1.63-1.61,3.47-.88,5.2.72,1.63.88,1.34,3.16,1.11,4.94a1.2,1.2,0,0,0-.15.64c-.6,2.7-8.3,9.44-10.51,10.51-2.65,1.39-10.73,3.09-14,3.57a21.28,21.28,0,0,1-9.51-.45c-5.39-1.94-11.83-9.31-13.09-13.6C1072,319.29,1070.18,314,1070,311Zm29.5-22.4c1-1.52,1.73-2.62,1.49-4.2l-1.16-10.4c-.71-5.61-1.44-12.22-2.35-18.3-1-6.94-2.39-14.45-4.31-23.24-.66-1.89-4.42-3.82-8.07-5.77a36.16,36.16,0,0,1-6.54-3.88c-1.87-1.71-1.55-5.36,1.13-5.76.49-.07,1.08-.28,1.69-.37,1.32-.32,3.13-.72,3.79-.44,6.13,1.95,15.78,6.61,17.2,9.51a90.2,90.2,0,0,1,4.25,17.77c.45,3,.89,6,1.22,9s.72,5.74,1.15,8.66c.08.49.42,1.93,1,1.84a30.81,30.81,0,0,0,6.55-2c3.07-1.07,6.32-1.81,9.38-3,2.5-.75,5.4-1.3,6.77,1.23.78,1.87.78,5.23-1.16,6.39a196.66,196.66,0,0,0-20.49,7.76c.51,3.41.92,8.7,1.09,12.4-.09,1.88-2.27,4.81-3.44,6.11a5.3,5.3,0,0,1-3.35,1.74,7.88,7.88,0,0,1-4.46-.71C1099.21,291.75,1098.27,290.39,1099.49,288.6Z"/><path class="cls-2" d="M1146.6,275c-1,.14-3.73-.81-3.81-2.17-.39-7.65-3.52-17-4.63-20.33a29.27,29.27,0,0,0-6.19-9c-.47-.67-1.84-3.21-.68-4.62.51-.7.11-1.76,5.59-2.57,1.7-.25,3.65,1.2,5.95,4.09a61.06,61.06,0,0,1,4.55,8.9c2,6.16,2.72,8.3,3.4,13.67.09.61.65,1.89,1.75,1.73,6.13-.54,15.45-2.29,19.22-2.85l6.06-1.89c1.46-.22,11.81-4.24,12.58-2.37.57,1.29,1.63,5.11-.52,6.55-5.86,4.1-16,6.85-23.08,7.89ZM1169.16,288c1.22-1.79,4.21-2.61,6.21-2.53,1,.09,1.78,1.1,2.4,2.75,1,3.46,4.2,8.2,6.4,10.49,5.57,5.64,7.08,4.92,14.38,3.84,1.46-.22,4.77-2.2,4.77-2.2l6.75-6.48a3.53,3.53,0,0,1,5,.5,9.49,9.49,0,0,1-.36,7.64c-1,2-7.49,8.2-11.38,9.64-1.3.44-15.49,4.54-21,.13-.84-.62-9.88-9.6-11.6-12.83C1168,293.48,1167.41,290.46,1169.16,288Zm9.11-78.57c0-.36,2.86-1.67,3.25-1.6,6.51,1.15,16.5,9,18.78,12.64,1,1.47,5.65,12.09,6.15,15.5,1,1.21,1.8,1.22,3.26,1a48.19,48.19,0,0,0,10.74-3.09,19.72,19.72,0,0,1,8-.68c1.51.14,2.69,6.43,2.91,7.89s-2.83,1.92-4.3,2l-6.58,1c-1.45.21-6.29,1.18-7.53,2-2.5,1.62-4.08,2.72-4.06,6.2,0,1.5.51,13.48.8,15.43.21,1.46-1.3,3.8-1.3,3.8-3.8,2.05-8,2.42-8.2-.78-.71-4.74-1-22.85-4.42-33.17-.64-1.77-2.55-7.95-3.39-9.44-2.79-4.56-8.9-8-12.94-10.89A6.14,6.14,0,0,1,1178.27,209.39Z"/><path class="cls-3" d="M425.94,553.64c5.39-7.27,11.33-14.12,16.16-21.8,1.11-1.78,2.28-7.3.75-13.41-.22-1.46-3.22-6.61-3.94-8.12-.16-.23-1.21-2.31-.45-3.05,3.43-2,6-1.38,8.37.26,2.89,1.93,5.06,7.33,5.41,8,.92,2,1.56,10.46,1.74,11.68,2.36,3.38,4.34,4.95,7.73,7.68,1.53,1.14,9.12,4.49,10.55,5.77.72.64,1.93,3,1.12,4.19,0,0-2.49,3.35-4.19,3.61-1,.14-3.41.5-4.11,0-1.24-.81-2.52-2.73-3.35-3.35-3.06-2.16-7.13-5.29-10.53-7.27-.4-.19-1.65.62-2.71,1.89-1.5,1.59-11.21,15-12.35,16.51.27.08-2.19,1.94-2.68,2-3.58.16-5.4-.32-7.13-1.93A1.92,1.92,0,0,1,425.94,553.64Zm37.45,23.66c1-6,7.38-13.15,12.55-15.16,4-1.59,11-1.89,16.16-.91,7.94,1.56,11.11,6.19,13.49,11.31,1.84,4.08,2.82,14,.24,19.24A21.05,21.05,0,0,1,480.75,603c-6.2-.7-11.49-6.26-14-10.85C464.32,587.74,462.48,582.91,463.39,577.3ZM469.54,488a6.76,6.76,0,0,1,.79-3.1c.91-1.38,4.3-1.14,5.84-.87,7,1.08,14.7,6.9,17.89,11.65,3.35,5,4.46,17.49,5.74,26.13,7.18-1.06,14.81-2.44,22.51-3.34.61-.09,2.09.69,2.14,2.67s-1.87,5.87-3.66,6.39c-7,1.92-13.38,2-19.71,2.92,1,6.69,3.69,14,1.42,20.43-.6,1.83-.09,2.75-4.07,3.59-1.57.36-4.18.37-4.5-1.82-2.63-17.76-5.13-39.65-8.05-50.91-.83-3.11-7.78-8-9.77-8.87C471.35,491,470.09,491.63,469.54,488Zm10.68,103c5.75,2.76,6.66,3,12,1.21,3.32-1.11,7-8.75,5.49-14.12-2.29-7.87-9.22-9.33-14.74-8-5,1.24-10.65,6.18-9.47,11.6S477.81,589.84,480.22,591Z"/><path class="cls-3" d="M528.27,536.84a6.75,6.75,0,0,1,2.59-3.49,49.37,49.37,0,0,1,7.66.48,138,138,0,0,0,19-2.06c5.23-.78,18.12-4.43,20.92-4.85a2.29,2.29,0,0,0,1.3-1.31,97.94,97.94,0,0,0,1.69-15.42c-1.81-.48-20,2.84-19.88,2.58a10.55,10.55,0,0,0-4.72,2.56c-1.39,1.57-6.35.82-7.75-1.09-.34-2.31-1.74-4.22-.21-6.43,2.16-3.06,12.19-4.17,16-4.73,1-.15,5.17-.4,6.38-.58.49-.07,10.35-3.15,11-2.75a17.71,17.71,0,0,0,.38-6.65c-.4-2.68-2.52-6.09-5.74-6-4.58.18-8.87,3.06-13.5,3.75s-8.23,1.47-14,2.07c-1.72.13-4.06-1.39-4.26-2.72-.09-.61-1.31-2.17-.21-3.95.71-1.1,4.88-1.47,6.58-1.72A75.37,75.37,0,0,0,570.08,480c2.93-1.18,5.11-.75,9.37-1.38.73-.11,3.62.08,4.17.5,2.64,1.84,6.67,6.34,7.19,9.87.16,1.1.9,11.93.58,14-.75,5.83-1.2,13.73-2.12,19.21.05.37.81.5,1.18.45l13.73-2.16c2.07-.31,6.44-2.7,10.13-3,1.84-.14,2.43,3,2.76,5.19a4.82,4.82,0,0,1-3.92,5.43c-14.1,3.09-32.5,5.57-46.43,10.62-6.61,2.35-16.16,3.39-23.09,4.42-.61.09-11.9.27-13.16-.66C528.94,541.35,527.3,540.35,528.27,536.84Zm35.11,47.27c-.72-4.87-3.35-12.56-6.43-19.06a24.38,24.38,0,0,0-3.69-5.55c-1.74-1.73.17-4.75.9-4.86l4-.59c1.7-.26,6.3,3.91,7,5.3,3.94,9,4.31,12.29,6.46,18.44l.24,1.58c0,1.86,1.89,1.83,3,1.91.62,0,11.91-1,13.87-2,1.39-.71,3.71-1.8,4.1-3.35.53-2.31-.12-10-.46-12.36-.38-2.56-.35-2.31-1.72-4.85s-9.94.86-11.21,1.54c-.92.51-5.44,2.68-6.91,2.89a12.63,12.63,0,0,1-3,.45c-1.27-.18-2.58-4.84-2.27-6.13s3.72-2.54,5.18-2.75c3.53-.53,14.68-6.66,17.73-7.11l1.54-1.35c1.26-.68,8.25,1.14,8.5,2.84a35.78,35.78,0,0,1,.27,5.19c.78,5.23,4.19,21.51,2.82,26.56-.41,1.43-1.74,2.5-2.83,3.53a28.39,28.39,0,0,1-9.06,3.46c-4.73.82-15.69,3.2-22.14,4.15-.61.09-1.72,1-2.08,1.06a4.42,4.42,0,0,1-3.23-1.64C562.68,589.44,563.78,586.79,563.38,584.11Z"/><path class="cls-3" d="M618.53,498.22a35.75,35.75,0,0,1,4.83-5.2c2.19-1.19,10.37-3,16.24-4.52,2.4-.6,4.41-1.27,5.49-1.56,2.5-.74,16.28-3.41,20.54-4,1.58-.23,1.8,2.1,2.14,4.41l.13.85c.13.85-1.51,3.21-5.09,4.24A83,83,0,0,1,652,494.63a115.64,115.64,0,0,0-12.89,2.78c-2.37.85-4.5,1.54-6.25,2.29a33.49,33.49,0,0,1-8.67,2.78,16.49,16.49,0,0,1-3.44.26c-.63,0-.93-.36-1.64-1-.14-.1-.16-.22-.2-.46C618.34,500.23,617.81,499.19,618.53,498.22Zm8.67-26.28c-.35-2.31-.35-2.31.84-4.36.57-1.2,4.17-.37,7.92.57,2.86.82,6.48,1.78,9,1.78a40.56,40.56,0,0,0,9.35-.64l1.22-.18c2-.29,3.92.41,4.2,2.36.51,3.41-.64,6.56-4.78,7.17l-5.11.76c-1.82.27-11.9-.6-17.82-2.83-1.85-.72-4.41-2.08-4.72-4.15Zm9.52,54.17a50.12,50.12,0,0,1-.31-7.17c.34-4.4,4.17-9.57,7.5-11.43-.36-2.44-.69-4.62,2.42-5.46a28.47,28.47,0,0,1,3.52-.64c4.38-.65,9.45-.79,13.46.24,3.62,1,9,7.62,10.1,11.93a23.4,23.4,0,0,1,.26,9.29c-1,5.62-6,13.7-9.45,16a17.42,17.42,0,0,1-7.67,2.75c-5.23.78-11.43.08-14.76-3.9A21.21,21.21,0,0,1,636.72,526.11Zm12.78,5.69a11.78,11.78,0,0,0,2.6.73,11.31,11.31,0,0,0,6.76-1.37c2.41-1.36,6.59-5.83,6.09-11.73-.33-3.93-.58-5.63-5.82-9.08l0,.12a18.68,18.68,0,0,0-4.6.06,2.57,2.57,0,0,0-1.38.7,1,1,0,0,1,0,.51c-.27,1.53-3.36,3.36-5.2,4.38-1.94.28-2.65,4.74-2.42,6.32C646.5,529.13,648.16,531.13,649.5,531.8Zm15.72,17.93a7.13,7.13,0,0,1,2.77-3.14c.92-.51,3-1.44,4.2-1a4.66,4.66,0,0,1,2.82,3.07c.92,3.71,3.54,8.8,6.51,11.22l2.29,2c2.83,2.32,9.06,2.39,10.2,1.72,1.46-.22,10.24-3.88,13.65-7.75l2.94-3.66a6.38,6.38,0,0,1,5-.74,3.41,3.41,0,0,1,2.12,2.54c.07,4.72-3.4,9-5.39,10.62a82.54,82.54,0,0,1-14.59,8.14,31.73,31.73,0,0,1-5.42,1.17,20,20,0,0,1-5.88-.24c-7.28-1.29-18.94-12.86-20.41-20.23C665.82,552.13,665,550.76,665.22,549.73Zm12.66-81.46c-1.57-1.38-2.21-4.89-.73-6.6a5.57,5.57,0,0,1,4.36-.77c2,.58,8,4.29,16.13,10.66,1.28,1.06,3,4.79,3.64,6.92.34,1.44.52,2.66.7,3.88.22,1.46.49,3.28.58,4.76s1.37,10.87,1.67,12.93c.06.37.82.5,5.06-1.12a76.73,76.73,0,0,0,9-3.7A47.58,47.58,0,0,1,728.65,492c2.92-.44,3.77.31,4,2l.36,2.43c.23,1.59-2.8,4.65-5.83,6a23.16,23.16,0,0,1-5.87,2.36l-4.08,1-5,2.11c-3,1.44-.62.84-4.4,2.15-.92.51-1.79,1.38-1.66,2.23l3.28,22.15c.62,4.13-2.69,7-7.37,7.31-.61.09-1.93-.46-2.06-1.31l-8.16-55.87a27.93,27.93,0,0,0-2.7-7.31,34,34,0,0,0-6.39-5.39Z"/><path class="cls-3" d="M838,511.43l-.23-4.07a90.82,90.82,0,0,1-1-9.18l-.55-6.26c0-.74-.18-1.21-.57-1.28-2.39.6-5.07,1-7.14,1.31-2.31.34-4.48.79-7,1.29A10.39,10.39,0,0,1,817,493a50.19,50.19,0,0,1-2.7,15.33c-2.06,5.4-5.78,7.94-9.84,9.91a10.88,10.88,0,0,1-3.46,1,18.85,18.85,0,0,1-10.53-1.42c-5.49-2.67-7.79-6.43-8.71-12.63a62.45,62.45,0,0,1-.47-9.88c0-2.13,3.49-10.84,8.75-16.47a11.63,11.63,0,0,1,6.52-3,26.94,26.94,0,0,1,7.34,0c4.3.48,8.9,5.52,11.6,8.6a3.71,3.71,0,0,0,1.37.05,62.26,62.26,0,0,0,6.24-.68A92.15,92.15,0,0,0,833.58,481a2.93,2.93,0,0,0,.78-1.49c-.06-1.23-.21-3.08-.48-4.9a26.57,26.57,0,0,0-2.09-7.4c-1.13-1.7-5-4.48-5.86-5.1-1.4-1-1.93-3.82-1.8-5.45.13-.77,2.13-1.56,4.32-1.89,1.7-.25,3.44-.26,4.14.26,3.46,2.35,7.32,4.88,8.72,7.66.71,1.39,1.66,7,2.69,13.9,1.44,9.73,2.88,22,3.59,28.44l.46,3.91c.07,1.36.27,2.7.45,3.91.22,1.46-1.77,3.13-2.57,3.62-1,.53-4.06,2-5.68,2-.62,0-1.91-.34-2-1.57C838.23,514.87,838.1,513.15,838,511.43Zm-46.71-8.12c.39,2.68,1.4,5.27,3.51,6.07a9.47,9.47,0,0,0,4.87,1,6.45,6.45,0,0,0,3.23-1.72c4.42-3.76,4-8.81,3.56-13.71-.07-.49,0-.87-.07-1.36-.3-2.81-.92-6.2-4.41-7.92-1.62-.88-4.34-.73-5.37.67-1.58,2-4.35,6.74-5.05,9.58A21.12,21.12,0,0,0,791.26,503.31Zm69.68,32.2a5.06,5.06,0,0,1-.27-2.7c.18-1.27,1.31-13.75,1.22-14.36-.93-6.32-2.33-19.05-3.49-31.06-.42-4.54-.84-9.08-1.3-13-.52-3.53-2.56-13.92-3.38-16.91-.63-1.77-2-3.68-10.65-10.6-.47-.68-1.06-3.83-.63-4.26a11.78,11.78,0,0,1,3.91-1.33,11.24,11.24,0,0,1,4,.15c2.33.65,7.26,4.52,9.45,6.69,1,1.09,3.47,4.95,5.58,13.34,1.32,8.88,2.76,22,3.88,32,.34,3.18.81,6.34,1.28,9.5,1,6.82,2.13,13.49,1.8,20.5a21.49,21.49,0,0,1-7.16,14.62c-.9.63-3.68.3-3.92-1.28A5,5,0,0,0,860.94,535.51Z"/><path class="cls-3" d="M884.65,487.47a23.4,23.4,0,0,1-.16-6.94c1-4.87,6.58-16,11.86-20.66a15.06,15.06,0,0,1,6.15-2.15c1.7-.25,11.65,2.25,19.09,8,1.85,1.59,4.66,3.78,5.76,11.2a33.72,33.72,0,0,1,.46,4.78c.36,7.41-5.21,17.69-13.35,20.64A30.28,30.28,0,0,1,909,503.5a47.74,47.74,0,0,1-10.23.65c-2-.08-10-5.11-10.76-6.36A29.19,29.19,0,0,1,884.65,487.47Zm14.58,6.92a23.23,23.23,0,0,0,7,0,26,26,0,0,0,6.57-1.84c1.45-1.09,3.15-5.57,3.37-6.6a17.69,17.69,0,0,0,.34-6.89,22.68,22.68,0,0,0-1.18-4.67c-1-2.83-6.42-6.38-9.18-7.34a12.48,12.48,0,0,0-3,.45c-2.4.6-8,9.89-8.47,15.8C894.28,485.3,895.4,493.71,899.23,494.39Zm55.5,17.88a64.78,64.78,0,0,1,0-10.32,183.06,183.06,0,0,0-2-29.92c-.49-3.29-1.08-6.43-1.63-9.33-1.94-8.92-4.74-20.19-12.27-26.54a9.43,9.43,0,0,1-2-2.06,4.84,4.84,0,0,1-.22-.59c-.42-1.18-1.06-3.82-.28-4.43a6.15,6.15,0,0,1,5.54-1.19,23.24,23.24,0,0,1,7.47,5.1c7.9,8.78,10.25,15.4,13.12,32.25l.6,4c1,6.93,1.42,13,2,19.11.47,6.52,1,13.16,2.18,21.43.62,4.14-3.06,7.05-6.71,7.59-1.7.25-2.92.43-3.48,0C955.87,516.58,955.06,515.33,954.73,512.27Z"/><path class="cls-3" d="M984.49,460.6c-.28-5.3,1.36-10.14,2.92-14.73l.53-1.44a18.67,18.67,0,0,1-5.42,1.17c-3.34.12-3.71-1.56-3.79-2.92l-.22-4.81c-.13-1.73,1.78-2.26,3.57-2.77l1.32-.32c.37-.06,1-.15,7.35-1.59l33.15-7,2.16-.57,1.2-.3a7,7,0,0,0,1.44-.34c1.79-.51,4.57-1.05,6.09,0s1.31,4.65.59,6.5l-1.92,2.15c-.33.3-1.67.5-4.43,1.16-3.84.94-11.52,2.82-27.74,7.47a5.41,5.41,0,0,0-3.24,2.47,23.66,23.66,0,0,1-.72,2.71c-1.26,4.05-2.94,9.52-1.74,12.57-.07.39,3.17,4.63,9.21,4.23a66.82,66.82,0,0,0,18.69-3.89,22.84,22.84,0,0,0,4-1.71c2.43-1.23,4.84-2.58,7.36-2.33a3.47,3.47,0,0,1,3.11,2.52c.43,1.18.36,5.79-2.08,6.9-10.07,4.23-20.85,7.82-36.14,8.72-2.84.17-12.38-3-14.21-8.59A25.48,25.48,0,0,1,984.49,460.6Zm-4,48.71c-.55-1.16-1-3.69-.5-5,.79-1.36,1.64-2.36,4.63-3.17.85-.13,1.56-.36,2.88-.68,4.45-1,21.34-4.53,61.94-11.67.36-.06,3-1.32,3.71-2.67,1.08-1.9,9.67.68,10.52,3.91.71,2.26-4.39,7.25-7.38,8.06-.49.08-1,.27-2,.43-4,.84-21.43,3.93-58.38,10.52l-3.11.84a73.4,73.4,0,0,1-8.67,1.91,3.79,3.79,0,0,1-2.15-.31,1.86,1.86,0,0,1-1-.72A5.46,5.46,0,0,0,980.53,509.31Z"/></g></g></svg>