<svg xmlns="http://www.w3.org/2000/svg" viewBox="0 0 1541.72 1168.09"><defs><style>.cls-1{fill:#ec6b71;}.cls-2{fill:#fff;}.cls-3{fill:#990d0d;}</style></defs><title>Asset 18</title><g id="Layer_2" data-name="Layer 2"><g id="Layer_1-2" data-name="Layer 1"><path class="cls-1" d="M1540,456.8C1521.46,107.49,1333.4-37.74,1010.82,8.28,589.75,68.35,450.77,11.72,159.69,184.8-116.37,349,13.86,811.37,187.86,901.88c82,42.66,174.36,62.8,272.4,68.9,7.69,227.13-175.12,149.25-94,190,71.56,36,245.39-67,253.56-190.9,160.62-10,329.23-43.42,488.22-68C1427.29,852.43,1558.75,811.22,1540,456.8Z"/><path class="cls-2" d="M545.1,331.91c3.42-.39,6.86-1.66,10.65-2.1,1.1-.13,2.1,2.1,2.91,2.63s-.74,4.29-1.48,5.37c-.53.81-3.85,2.06-4.83,2.17-4.27.5-11.72,2.49-17.22,3.13-4.15.48-23.93,5-29.55,5.67-7,.82-22.77,3.28-32.42,4.41a4,4,0,0,1-1.92-.52c-1.23-1-2.52-8.87-1.13-9.65,5.35-3,8.68.1,11.12-.19,10.39-1.21,25.42-5.07,35.8-6.28C521.92,336,541.68,332.31,545.1,331.91ZM485.29,292.7a45.64,45.64,0,0,0-5.92.2c-1.59.18-2.33-2.95-2.5-4.42-.28-2.44,2.71-4.4,4.44-4.48a160.94,160.94,0,0,0,26.08-4.65c5.65-1.4,15.43-3.53,21-4.92,1.57-.31,2.3,1.71,2.48,2.18.1.86.7,3.88.19,4.81-1.18,2.62-2.8,3.55-9.65,4.35-1,.11-10.37,2.32-11.61,2.34-2.81.33-8.84,2.77-11.77,3.11a1.51,1.51,0,0,0-.38,1c.13,1.1.24,5.18.35,6.16,6.39-.38,9.15-1.2,16.6-2.07,1.83-.21,10.11-2.54,11.67-3l3.29-.38c1.59-.19,2.17.49,3,1.5,1.6,2.05.61,7.36-.37,7.48-4.15.48-15.05,2.62-17.84,3.07-5,.83-10.54,1-15.21,3.38-.58.32-.19.52-.28,1.89-.23,4.36-.09,5.59,3.12,6.57,5.24,1.37,20.26-1.49,28.08-5.62,2.46-1.16,4-.35,6.82.07.36-.05,2.9,2.63,1.78,6.85-.38.91-3,2.58-4.11,2.95-3.23,1-37.39,9.57-43.17,2.56-6-7.09-2.49-9.74-4-22.44-.14-1.22-.9-5.59-.89-7.7C486.51,292.56,485.29,292.7,485.29,292.7Zm51.57,100.24c-.58-3.9-.37-6.4-.24-11.62a62.44,62.44,0,0,0-.85-13.64,2.29,2.29,0,0,0-2.47-2.07c-4.76.56-18,2.1-25.2,4.8-2,.23-9.26,2.32-12.6,2.34a4.37,4.37,0,0,1-2.68-4.89c.34-2.39,1.94-5.68,4.76-5.88,10.42-1,25-4,34.64-5.65,2.06-.37,4.56-2.27,6.73-1.78.76.16,4.34,1.1,4.69,3.05,2.2,10.39,2.43,20.89,3.65,31.27.45,3.91.51,5.51-4,7.4C539.89,397.66,537.43,396.71,536.86,392.94Z"/><path class="cls-2" d="M572.7,330.8c-.54-4.64-.3-9-1.89-13a9.57,9.57,0,0,1-1.91-3.62c-.86-7.45-2.2-8.28-7.84-14.19-.58-.68.09-2.36.6-3.29.87-1.09,3-3.2,5-1.94.27.21,5.2,4.22,5.5,4.68,3.16,3.72,2.93,5,5,8.83,3.6-1,6.15-1.46,8.66-2.25,2.75-.82,10.36-2.45,11.8-5a28.53,28.53,0,0,0-.8-10.06c-2.8-4.87-2.82-5-5.26-6.82-2.85-2.14,1.4-7.09,5.62-6,2.69.8,7.51,4.95,8.61,8,1.27,3.44,3.28,20.67,2.77,21.59-.41.67-.41,6-.33,6.73.27,2.32,1,11.77.62,15.9-.12,1.13-2.75,4-4.21,4.21-22.61,2.64-22.18,3.08-26.64,3.11-.62-.05-3.79-.67-4.4-2.71C573.39,334.56,572.72,330.92,572.7,330.8Zm23.46-2.74c.61-.07,2.7-.19,3.14-1.73l.15-13.64a1.87,1.87,0,0,0-1.86-2.13,40.33,40.33,0,0,0-6.67,1.27c-.82.35-9.39,3.33-11,4.5a1.47,1.47,0,0,0-.59,1.31c.32,2.69.62,4.26,1,7.44,0,.24-.35,4.37,2.58,4C587.43,328.58,591.52,328.6,596.16,328.06Zm55,15.63c.89,3.37-.45,10-1.3,12.17.68.54,1.29,3.68-.67,4.9-2.31,1.39-18.53,3.53-27.6,4.34-.62.07-1.18,1.62-.83,2.45.35,1.94,1.64,5.63,4.09,7.45,1.22,1,5.31,1,8.24.64,4.77-.55,10-2.4,14.61-4.3,2.57-.3,5.4,1.72,5,4.74-.13,1-3.73,4.15-4.31,4.47-2.76,1.8-12.23,3.4-15.41,3.78-8.67,1-13.43.57-19.07-7.44a46.56,46.56,0,0,1-6.3-12.64c-.84-4,0-5,5-5.54l17.47-2c1.59-.18,6.81-1,8.31-2,.68-.57,3.15-2.72,3.05-4.69-.18-5.8-2.46-5.16-7.31-5.34A113.4,113.4,0,0,0,615.57,348c-1.8.46-5.66.29-8.1.58-1.35.15-3.57-.83-3.73-4.4a3.45,3.45,0,0,1,1.59-3.28c3.18-.37,15.09-2.26,18.64-2.67.36,0,3.85-.94,4.34-1s9.24-1.45,11.66-.87C642.65,337,650.63,338.55,651.11,343.69Zm-7.47-12c.08-.39.65-2.93,1-4,.81-2.57.56-5.77.6-8.62-.17-1.46-.8-1.52-.8-1.52-5,.59-9,.19-14.51.83l-12,.28c-.38-.07-2-1.25-2-4.59,0-2.47,3.08-3.33,4-3.57,4.22-1,15.33-1.29,18.67-1.31.87,0,5.1-.84,5.56-2.26,0-2.1-.53-12-2.85-11.68-3.55.42-4.74.8-9.86,2.52-2.87.95-9.82,1.88-12.75,2.23-.49,0-1.59-.93-1.63-1.3-.15-1.22-1.17-4.69,0-5.32,7.91-4.39,16.6-5.28,23.37-8.8a52.65,52.65,0,0,0-1.5-6.51c-2.19-3.95-8.59-6.8-10.09-12.2-.25-1.08.94-3.57,2.3-4.72.31-.53,2.64-.68,3.49-.78,2-.23,11.8,10.88,12.54,11.91.44.57,2.37,6.53,3.33,10.51a124.16,124.16,0,0,1,3.66,26.07l.45,19.76c.08,1.73-.48,5.39-1.51,6.12C652.56,334.86,642.82,338.47,643.64,331.69Z"/><path class="cls-2" d="M664.39,292a35.85,35.85,0,0,1,5-5c2.22-1.13,10.46-2.71,16.37-4,2.42-.53,4.45-1.13,5.54-1.38,2.52-.67,16.38-2.91,20.65-3.41,1.59-.18,1.74,2.15,2,4.48l.1.85c.1.86-1.61,3.16-5.22,4.08a83,83,0,0,1-10.93,1.89,117.24,117.24,0,0,0-13,2.38c-2.39.78-4.54,1.4-6.32,2.1a33.43,33.43,0,0,1-8.74,2.51,17.93,17.93,0,0,1-3.45.15c-.63-.05-.92-.39-1.61-1.05-.14-.11-.15-.23-.18-.47C664.13,294,663.64,292.94,664.39,292Zm9.48-26c-.27-2.32-.27-2.32,1-4.32.6-1.19,4.18-.24,7.9.81a38.66,38.66,0,0,0,8.91,2.06,41,41,0,0,0,9.37-.35l1.22-.15c2-.22,3.9.54,4.13,2.49.4,3.42-.85,6.54-5,7l-5.14.6c-1.83.21-11.87-1-17.73-3.38-1.82-.78-4.34-2.22-4.58-4.3Zm7.84,54.44a51.33,51.33,0,0,1-.1-7.17c.48-4.39,4.48-9.44,7.86-11.19-.28-2.45-.54-4.65,2.59-5.38a29.08,29.08,0,0,1,3.53-.54c4.4-.51,9.48-.49,13.45.66,3.59,1.07,8.73,7.9,9.73,12.24a23.48,23.48,0,0,1,0,9.29c-1.21,5.59-6.47,13.51-9.94,15.65A17.24,17.24,0,0,1,701,336.5c-5.25.62-11.42-.27-14.62-4.36A21.11,21.11,0,0,1,681.71,320.43Zm12.6,6.09a11.78,11.78,0,0,0,2.57.81,11.34,11.34,0,0,0,6.8-1.16c2.45-1.28,6.77-5.62,6.45-11.53-.21-3.94-.41-5.65-5.54-9.26l0,.12a18.5,18.5,0,0,0-4.59-.08,2.48,2.48,0,0,0-1.41.66.92.92,0,0,1-.07.5c-.32,1.52-3.46,3.25-5.33,4.21-2,.23-2.8,4.66-2.61,6.25C691.38,323.76,693,325.8,694.31,326.52Zm15.15,18.41a7.16,7.16,0,0,1,2.86-3.05c.93-.49,3.06-1.35,4.23-.87a4.61,4.61,0,0,1,2.72,3.15c.81,3.74,3.27,8.91,6.17,11.42l2.22,2.09c2.76,2.4,9,2.67,10.14,2,1.47-.18,10.36-3.57,13.89-7.32l3-3.58a6.44,6.44,0,0,1,5-.58,3.43,3.43,0,0,1,2,2.61c-.07,4.71-3.68,8.85-5.72,10.45A83,83,0,0,1,741.24,369a30.23,30.23,0,0,1-5.46,1,19.85,19.85,0,0,1-5.87-.43c-7.23-1.51-18.53-13.44-19.77-20.85C710,347.35,709.2,346,709.46,344.93Zm15.19-81c-1.53-1.43-2.07-5-.53-6.63a5.51,5.51,0,0,1,4.38-.63c1.94.64,7.84,4.53,15.8,11.16,1.24,1.09,2.79,4.87,3.42,7,.29,1.45.43,2.67.57,3.89.18,1.47.39,3.3.44,4.78s1,10.9,1.26,13c0,.37.81.52,5.09-1a76,76,0,0,0,9.14-3.41,47.52,47.52,0,0,1,10.43-2.95c2.93-.35,3.76.42,4,2.13l.29,2.45c.18,1.58-2.94,4.55-6,5.77a22.42,22.42,0,0,1-5.94,2.18l-4.11.86-5.1,1.95c-3.06,1.35-.65.82-4.47,2-.94.48-1.83,1.33-1.73,2.18l2.6,22.24c.48,4.15-2.91,6.9-7.6,7.08-.61.07-1.92-.52-2-1.38l-6.43-56.09a27.89,27.89,0,0,0-2.47-7.39,33.29,33.29,0,0,0-6.22-5.59Z"/><path class="cls-2" d="M829.71,283.47c-.52-2.29-3-5.22-5.29-8.17a39,39,0,0,1-4.92-7.11,3.5,3.5,0,0,1,.72-3.42c1.44-1.41,5.64-1.53,6.92-1.18,2.42.58,9.53,9.54,11.54,11.9a20.1,20.1,0,0,1,2.58,8.25c.18,1.58.16,2.45.25,4.3,0,1.48.08,2.84.23,4.06,4-.47,6.85-1.79,10.86-3.5l2-1c1.92-.47,8.5-4.58,10.61-6.69,1.07-1.48,3.08-1.22,4.25.37.46.69.59,2.91.6,4a7.2,7.2,0,0,1,0,.75c.1.85-2.71,4.4-3.52,4.87a59.72,59.72,0,0,1-13.25,7.36l-2.73,1.06h.12c-4,1.58-11.72,4.59-18.09,5.21-3.79.44-4.06-4-3.55-6A31.24,31.24,0,0,0,829.71,283.47Zm30.22,54.18c-4.27.5-4.6-1.19-4.9-2.77,0-.24-.18-.47-.21-.72-.49-2,.54-4.89,1.71-5.52,1.76-.82,11.28-3.05,16.34-4.26l3.27-.63,1.93-.47c3.6-.92,5.75-1.66,7.8-4.26s3.68-4.51,3.27-8c-.24-2.08-.21-2.83-1.55-2.67-4.64.54-7.6,1.75-12.26,3.16l-3.84,1.07c-.25,0-2.19.38-4.36.88-3.51.66-8.1,1.69-9.56,1.86l-1.05-.5a1.76,1.76,0,0,1-1.16-1.47c-.43-3.67.29-6,4.14-6.93.86-.1,14-4,26-7.49a53.24,53.24,0,0,1,5.33-1,22.93,22.93,0,0,1,4.2-.12c1.51.2,3.6,2.18,3.77,3.65a50.67,50.67,0,0,1,.1,10.39,17.75,17.75,0,0,1-.72,3.43,18.72,18.72,0,0,0-.86,2.2c.76.16,1.7-.32,2.29.48a14.27,14.27,0,0,1,.49,6.38,19,19,0,0,1-4.94,3.3,100.13,100.13,0,0,1-13.79,3.84c-2.4.65-5.18,1.22-7.93,2a4.28,4.28,0,0,0-1.84,2.32,30.83,30.83,0,0,0,1.69,6c2,4.23,4.09,7.45,9.83,6.78,5.26-.61,12.34-4.66,16.73-8.39,1.94-1.47,4.35.11,6.18,2,1.44,1.69.36,4.17-2.08,6.56-.33.41-3.84,5.28-16.7,8.64-1.7.32-4-.52-6.23-.27-3.42.4-6.6,1.76-7.92,1.05C866,354.29,863.86,348,859.93,337.65Zm25.2-48.26a6.86,6.86,0,0,0,0-2.11c-.52-11.82-1.72-23.2-3.25-36.27a12.46,12.46,0,0,0-.62-2.16c-3.44-4-8.41-6.32-13.73-10.53a4.73,4.73,0,0,1-.56-4.77c.16-.76,3.12-3,4.64-2.64,2.68.67,6.53,2.83,10,4.78,4.15,2.61,6.8,4.16,9.24,7,1.31,1.7,2,8.56,2.67,14.42.31,2.69.58,5,.94,6.95,1-.11,2.81-.33,4.9-.45L904,263s2.28-.63,4.3-1.37c2.61-.92,5.11-1.83,5.72-1.9.85-.1,3.48.09,4.17.75,1.81,1.65,1.74,4.26.91,6.7-.32,1.53-2.35,2.14-4.63,2.77l-2.14.75c-2.12,1-5,1.45-8.56,2a58.7,58.7,0,0,0-7,1.56,2.47,2.47,0,0,0-1.82,2.44,135.8,135.8,0,0,1,1.07,15.6c-.19,1.51-3.69,3.4-4,3.45l-4.28.5c-1.59.18-2.27-1.47-2.54-2.68A31,31,0,0,1,885.13,289.39Z"/><path class="cls-2" d="M923.8,288.59c-.77-.28-1-2.23-1-3.35l-.11-1c-.12-1,.23-4.37,3.65-4.76a12.43,12.43,0,0,1,2.75.17,8,8,0,0,0,2.25.23c5.44-.14,10.47-.48,15.24-1a108.7,108.7,0,0,0,12.62-2.22c1.34-.15,17.37-2.89,29.73-7.31,2.05-.48,11-4.86,13-6.71.57-.44,4-.84,5.39.49,2.07,1.86,1.87,5.47.72,6.23-2.51,1.78-9.77,6.46-14.25,8.35l-3.58,1.16c-5.27,1.6-15.68,4.68-20.39,5.72-1.79.58-2.9,1.7-32.95,5.21C931.93,290.37,929,290.34,923.8,288.59Zm17.1-38.15a22.48,22.48,0,0,1,0-6.32c.8-5.91,7.11-11.23,11.17-13.56,1.4-.78,8.93-2,11.13-2.29a14.78,14.78,0,0,1,14.17,7.88,25.33,25.33,0,0,1,2.31,8.15,19.22,19.22,0,0,1-.33,6.73c-1.34,5.48-6,11.59-13.14,15.77-3.39,1.76-9.68.88-12.55-.39C947,264.1,941.64,256.79,940.9,250.44Zm11,74.37a9.09,9.09,0,0,1-2.59-6.26c-.33-2.81,7.64-3.49,11.37-4.42a8.24,8.24,0,0,1,1.56-.43c5.31-1.24,15.28-2.77,19.63-4.77,2-1,2.86-.95,2.66-2.66l-.6-5.13c-.49-1.06-.87-1.14-1.5-1.19a38.09,38.09,0,0,0-7.88,1.42,130.33,130.33,0,0,1-20.23,3.84c-2,.23-2.94.35-4.49-1.33-1.09-.86-.88-3.24-.81-3.74.23-2.26,1.68-2.55,2.05-2.6,1.83-.21,11.78-2,14.31-2.53,1.44-.42,3.37-.89,4.91-1.44s3.34-1.14,5-1.58l5.58-1a39.13,39.13,0,0,1,8.72-.65c1.76.29,3.86,3.39,4,4.61l.87,7.46c.2,1.71.52,8.73-1.2,12a7.42,7.42,0,0,1-2.27,1.75c-3.27.63-7.41,1.24-10.94,1.78A133,133,0,0,0,963,321.79h.12c-.23.15-.35.16-.42.67a2.11,2.11,0,0,0-.14.88c.08.73.64,1.29,1.12,2.22,0,.12.15.23.17.35,1.26,2.33,4.84,5.38,7.74,6.9,1.29.47,8.72.47,11-.41a88,88,0,0,0,12.86-7.57,5.1,5.1,0,0,1,5.27-.49c.67.42,2.16,1.48,2.51,4.54.1.85-.77,2.93-8.61,7.94a35.91,35.91,0,0,1-15,5.46,30.31,30.31,0,0,1-8.82-.21c-3.29-.61-5.8-.94-13.61-7.33-1.12-1.11-4-7.08-4.17-8.18A4.94,4.94,0,0,0,951.93,324.81Zm4.91-67.19a9.9,9.9,0,0,0,4,.52,11,11,0,0,0,8.18-6.28,15.6,15.6,0,0,0,1.49-8.47c-.27-2.32-1.39-4.42-3.7-5.14a17.87,17.87,0,0,0-7.39-.75,12,12,0,0,0-4,1.2c-2.08,1.24-5.82,5.27-5.83,7.37C949.54,253.39,953.36,256.41,956.84,257.62Z"/><path class="cls-3" d="M311.73,531.91c.14-2-.54-6.74-.9-9.8-.11-1-1.84-.9-3.83-2,0-.37-1.14-4.45-.6-5.13.74-1.08,3.82-2.3,7.61-2.75,4.28-.49,19.14-2.6,22.44-4,2.13-.86,5.95-3.17,6.9-2.41a9.79,9.79,0,0,1,3.24,7.55c-.16,1.87-5.39,3.72-8,4.4-4.82,1.18-9.76,2.38-16.89,3.83,1,5.09-.34,16.26,1.08,28.36.35,3,5.12,2.49,7.13,2.75,2.64.32,6.79-.17,13.44-1.56,4.71-1,7.65-3.37,10.61-4.58,1.18-.51,3.7,3,4,5.6.35,3.05-6.43,6.44-9.19,7.26a76.59,76.59,0,0,1-25.29,3c-3.37-.23-10.9-3.19-11.42-6.59C311.48,552.13,311.39,539.63,311.73,531.91Zm65.32,41.92c-.12-1,1-6.31.9-7.17.34-10.81.06-28.12-1.66-37.57-9.21.7-21.13,3.58-31.89,3.72-.63,0-2.3-2.71-2.21-6.19.08-2.48,8.24-3.68,12.76-4.21l9.53-1.11a22.17,22.17,0,0,0,8.47-2.72c1.51-.92,2.21-1.25,2.05-3.71-.74-10.56-5-15.14-12.69-22.79-1-.88,1.34-6.6,4.05-6.66,1.6-.07,11.87,5.17,14.32,10.21A62.78,62.78,0,0,1,385.2,510c2,9.67,2.31,21.89,2.82,31.62.42,6.76,2.19,23,.77,29.88C388.15,574.51,377.69,579.32,377.05,573.83Z"/><path class="cls-3" d="M447.61,516.31a7.33,7.33,0,0,1,.06-3.73l.39-.91a77.2,77.2,0,0,0,5.49-14.51c.46-1.29-1.43-2.68-2.79-2.65a28.83,28.83,0,0,0-5.63.54c-1.1.13-1.82.33-3,.48-.21.39-1.89-.28-2.17-1.61l-.06-.49c-.24-1-.72-3-.44-3.78.55-1.68,6.49-2.74,11.09-3.65.86-.1,1.69-.32,2.43-.41,3.62-.79,7.27-1.34,8.25-1.46,1.83-.21,12.58-4.68,16-6.07,2.84-1.08,3.87-.83,6.21,1.25,1.31,2.7.85,4.11.3,4.67a54.28,54.28,0,0,1-10.48,5.68c-2.47,1.16-5.07,2.2-7.86,3.77-2,2-4.66,17.38-4.87,18.77a1.16,1.16,0,0,0,1.18,1.6c2.07-.24,4.15-.49,6.37-.62l7.1-.71a57.38,57.38,0,0,0,7.88-1.41,2.65,2.65,0,0,0,1.29-.65,28.51,28.51,0,0,1,4.6-1.9,4.68,4.68,0,0,1,3.26,1.36,14.84,14.84,0,0,1,.53,5.63c-.09,1.37-4.36,4-6.76,4.63-3.87.82-9.35,1.59-14.85,2.23-5.25.61-10.89,1.14-14.6,1.2-1.86,0-8.37-3.85-8.63-6Zm40.32,36.78a4.44,4.44,0,0,1-1.94-1.76l-.34-.83,0,.13c-.8-1.52-1.58-2.92.39-4,.48-.18,4.21-1.11,7.59-1.88l5.06-1.21c5.16-1.34,10.36-2.45,15.07-3.49l3.87-.82c1.77-.71.28-7.1-1.85-7.34a103,103,0,0,0-10.69.75c-3.05.36-6.21.85-9.25,1.33s-6.34.86-9.4,1.22c-1.71.2-4-.65-4.23-2.36l-.09-.73c-.29-1.45-.56-3.77,1.21-4.48a113.16,113.16,0,0,1,12.38-2.18c5.59-.9,11.9-2,15.74-3.08a2.8,2.8,0,0,0,1-2.34c-.57-3.89-1.33-12.48-1.75-19.24-.29-4.67-.53-8.85-.79-11l-1.18-10.14c-.25-2.08-.7-6-2.26-7.66s-7.77-7.15-11.29-8.72c-2.62-1.18-.2-5.92,2.65-7s5.59.21,8.22,1.52c.52.18,1.06.61,1.58.8,3.69,1.92,8.3,6.34,9.79,11.74A70.8,70.8,0,0,1,519,479c.16,1.35.18,2.58.33,3.93l.42,3.54c3.42-.4,6.85-.68,10.52-1.1l10.87-1.27c1.71-.2,5.07,1,5.33,3.21,0,1.12-.23,4.37-.94,4.7-3.07,1.22-7.21,1.83-12,2.63q-4.93.76-10.54,2a7.4,7.4,0,0,0-2.92,1.58l1.15,10.89,1.26,10.75c.09.85.75,1.15,1.55,1.67,1.22.85,2.66,1.55,3.19,4a92.06,92.06,0,0,1,1.69,9.21,76,76,0,0,1,.46,9.24,5.19,5.19,0,0,1-3.71,4.27c-9.28,1.08-22.72,3.76-24.85,5.62-.8.59-.85,3.32-.57,5.76a14.87,14.87,0,0,0,.81,3.75,13.81,13.81,0,0,0,5.14,5.84c1.06.62,3.27.48,5.72.2a53.3,53.3,0,0,0,9-1.79c.13,0,.11-.14.23-.15,1.78-.7,6.14-2.57,8.65-6.58.62-1.06,2.16-1.62,3.87-1.82a10.53,10.53,0,0,1,3.62.2c2,.63.53,5.64-1.32,9.94-1.72,3.29-8.44,8.29-16.59,9.61l-8.18,1c-6.72.78-17.07-2-20.57-9.62a17.46,17.46,0,0,1-1.33-5,42.88,42.88,0,0,1-.15-5.56,50,50,0,0,0-.18-5.8Z"/><path class="cls-3" d="M550.77,509c.8-.58,7-1.68,8-1.79,8.92-1,14.13-2,20.8-4.29,1.08-.37,1.5-3.14,1.32-4.61l-1.18-10.14a3.18,3.18,0,0,1,1.4-2.89c1.39-.78,6.23-.72,7.32.14.61,5.25,2.94,9.32,2.65,15.29.83.77,3.66.57,5.35.25,3.91-.46,32.16-4.62,41.08-5.66,2.2-.26,2.16,2.59,2.44,5s-.19,4.72-3.83,5.4c-2.55.42-31.7,3.2-38.22,4.58-9.43,2-30.81,5.58-44.42,6.67C549.88,517.25,549.39,509.88,550.77,509Zm16.43-35.35c-.63-1.16,10-2,13-2.38,1.46-.17,8.65-2.25,10.12-2.42,2.35-1,11.08-2.65,12.57-4.69l.54-.68a18.3,18.3,0,0,0-.79-3.62c.2-.4-1.39-1.32-2.15-1.48-2.67-.56-7.89.3-10.72.5l-22.11,2.58a2.7,2.7,0,0,1-2.6-1.05c-.29-.34-1.12-5.32-.48-6.26.59-1.31,5.66-2.4,7.87-2.53l24-2.8c1.22-.14,6.78-1.28,8.86-1.53,2.23,0,6,2.28,6.45,4.33.92,3.61,1.95,16.74,2.35,20.16a96.23,96.23,0,0,1-1,10.52,19.57,19.57,0,0,1-3,6c-.91,1.72-9,2.66-9.13,1.32s-.56-1.55-.14-3.33c.34-1.28,1.25-2,2.1-3.22.29-1.76.74-5.29,1-9.28a45.81,45.81,0,0,1-5.23,1.85c-13.16,4-12.27,4.16-29.15,4.89-.49,0-1,0-1.64-1.3A8.06,8.06,0,0,1,567.2,473.62Zm10.58,65.14c-.1-.85-2.4-3.56-4.16-4.84-1-.75-4-3.37-3.17-5.94.28-.78,4.28-2.61,6-2.81s4.14,2.62,5.86,3.53c2.81,1.78,5.8-.18,7.08-.83,11.52-5.3,16.21-7.58,25.74-8.7,0,0,5.85.31,7.62,2.71,2.07,2.85,3.67,14.43,3.27,24.88,0,1.11-1.53,6-1,6.18,2.74,1.17,3.08,2,3.25,3.46.27,2.32-3.17,5.7-6.22,6.05l-27,3.28a8.48,8.48,0,0,0-3.1,2.09c.07.61-5.72,1.91-6.23.73C580.79,558.23,583.57,549.11,577.78,538.76Zm22.1,17.49c5.65-.42,7.65-1.27,13.27-1.92a2.14,2.14,0,0,0,1.86-2.08c.32-3.63,2-17-.62-20.24-1.75-2.27-4-1.39-6.45-1.1-3.79.44-14.63,5.17-19.33,7.33a31.1,31.1,0,0,1,2.71,6.25,91,91,0,0,1,2.06,10.16C593.67,557.22,595,556.57,599.88,556.25Z"/><path class="cls-3" d="M643.79,484.75c-1.81-1.77-3.63-7.75-.69-8.1,4.39-.51,8.32-.84,12.36-1.19,3.68-.31,7.24-.6,10.91-1,4.27-.49,8.66-1.13,13.38-2.05a26.09,26.09,0,0,0,7.44-3.1c1.84-1.21,3.49-1.89,5.7-1,2.48,1.08,3.64,5.77,3,6.59-.86,1.09-5.92,5.52-9.78,6.34-7.73,1.65-14.51,3.06-21.59,3.88a152.83,152.83,0,0,1-16.11,1,6.55,6.55,0,0,1-4.49-1.34Zm10.31-36.87H654a11.51,11.51,0,0,1,2.8.67l1,.25c6.25,1.5,15.55,3.76,22.85,4.76,2.26.24,2.92,2.76,3.14,5.7,0,.37-.39.92-1,1.74-.43.54-.64.81-.77.83-2.84,1.07-12.75,0-16.28-.58-1.15-.24-10-2.92-13.92-5.68-1.36-1.08-1.6-4.15-1.28-5.67C650.91,448.13,652.47,447.7,654.1,447.88ZM696.4,509a30.74,30.74,0,0,1,.92,4.72c1.24,10.63-3.3,20.57-14.38,25.33a14.08,14.08,0,0,1-4,1c-7.57.88-17.45-3.16-20-9.93l0,.12a31.58,31.58,0,0,1-2.1-8.42,34.28,34.28,0,0,1,.13-8.44c1.18-6.82,4.78-14.18,15.18-16.38C681.18,495.24,694.54,501.49,696.4,509Zm-29.52,12.36c.8,6.84,6.12,11.05,12.37,8.34,6.47-2.86,9.63-8.68,8.24-15.33-1.65-8.85-10.18-7.6-13-7.28-4.27.5-6.69,5.24-7.52,9.8A14.75,14.75,0,0,0,666.88,521.31Zm53,13.75a68.84,68.84,0,0,0-.32-9.13c-1-8.18-1.58-15.66-2.18-22.9-.57-7-1.11-13.74-2-20.95-.53-4.52-1.19-9.15-2-14.13-1.58-8.23-6.12-11.05-8.79-12.72a14.55,14.55,0,0,0-1.73-1c-2-1.38-2.65-2.54-1.66-5.75,1.24-3.12,6.34-1.86,9.14-1.19s5,2.51,7.52,4.94c3.93,4,6.61,16.32,6.62,18.55l1.29,10c.45,2.8.91,6.7,1.35,10.49.28,2.45,1.2,3.95,4.85,3.4a50.87,50.87,0,0,0,8.56-2l3-.85a9.71,9.71,0,0,0,1.7-.32c2.29-.51,6-1.32,6.39-.37,1.51,5.52-.49,7.48-4.17,8.78S738.65,502.78,731,505a2.58,2.58,0,0,0-1.59,3.4c0,1.86-.06,3.72,0,5.57a79.87,79.87,0,0,0,.54,8.85c.06.49.11,2,.28,3.44s.22,2.94.28,3.43a9.71,9.71,0,0,1-2.66,7v-.12c-.86,1.09-7.78,1.28-8-.31Z"/><path class="cls-3" d="M767.57,510.8l.73-1.2c.83-1.34,11.45-21.77,14.11-33,.61-2.17.51-4-1.07-3.84-9.34.6-18.7,2.18-28,3.27a2.83,2.83,0,0,1-3.15-1.49c-.55-2.66-.62-6.37,1-6.56l6.28-1.35c10.27-1.19,19.77-2.55,30.42-2.56,3.09,0,4.85,2.29,5,3.63.64,5.5,0,8.54-2,14.48,1.83-.22,6.14-1.46,8.79-2.14a15.35,15.35,0,0,1,1.68-.45,29.49,29.49,0,0,0,7.17-3.31,92.65,92.65,0,0,0-.87-11.66l-.17-1.47c-.26-2.2-2.68-3.9-5.34-5.44a16,16,0,0,0-3.38-1.34,8.76,8.76,0,0,1-2.78-1.54c-.46-.81-.77-4.49-.44-4.9,1.07-1.36,1.7-1.31,3-1.47l1.23-.14c4.52-.53,13.21,5,16.19,8.26.59.8,1.08,4,1.54,7.87.7,6,1.27,14.1,1.42,18.54l.57,25.07c0,2.23-1.83,3.43-3.34,4.23l-.94.48c-1.85,1.08-5.28,1.48-5.67-.82a22.71,22.71,0,0,1-.06-5.82l.16-2.86a114.28,114.28,0,0,0-.3-17.43A184.79,184.79,0,0,1,788.65,493c-1.21.27-2.61,2-3,2.95a56.38,56.38,0,0,0-4.52,9.07,50.34,50.34,0,0,1-5.36,10.29l.12,0c-1.65,2.8-8.53,4.34-9.57,2.86C764.58,516,766.12,513.2,767.57,510.8Zm67.77,18.34a27.53,27.53,0,0,1,.24-6.46,9.8,9.8,0,0,0,.22-2.38c.76-9.38.39-17.88.15-26.27-.23-5.18-.41-11-.38-17-.14-3.33-.35-7.26-.72-10.44a68.91,68.91,0,0,0-2.5-11.85l-.41-1.43c-1-3.11-2.83-8.34-6.19-10.55-.92-.51-3.17-.62-5.42-.85s-4.87-.3-5.66-.71-1.67-5.87-.59-6.12l1.3-1.64c.67-.57,2.25-.88,4.33-1.12a23.11,23.11,0,0,1,7.83.32c4.37,1.35,9.13,6,10,6.89,2.07,2.85,4.81,11.45,5.57,14.83a78,78,0,0,1,1.16,7.79c1.54,13.2,1.67,32.37,1.45,48.5l-.1,6.57a30,30,0,0,0,.54,5.76c.12,1,.35,1.94.47,2.92.26,2.2-4.27,4.83-8.54,5.33a2.23,2.23,0,0,1-2.22-1l-.48-.94Z"/><path class="cls-2" d="M923.52,451.74c3.57-4.38,12-18.12,9-18.51-8.39,1.35-18.06,3.34-26.49,4.33-2.2.25-3.45-2-3.67-3.91-.13-3.2,3.15-3.71,3.15-3.71,1.59-.19,15.17-2.64,16.64-2.81s12.49-4.43,14.08-4.61,7.31-1,8.88-.3c2.87,1.28,2.11,6.44,1.84,8.33-.73,4.42-8.53,17.1-10.65,20.19,4.65,1.69,15.89,9.91,17.61,11.94,1,1.24,1.31,6.91,1,8.19-.51,2-4.59,3.13-6.73,1.77-1.88-1.27-1.74-3.26-2.93-5-1.48-2.06-12.6-8.19-13.32-8-1.38-1.2-2.15-.37-3.29.38-6.1,8.27-19.47,16.76-23.68,17.87-3.33-1-7.47-4.58-5-7.09C909.17,465.67,919.62,456.52,923.52,451.74Zm21.1,46.08c1.63-7.25,11.36-16.19,23-14.45,8.2,1.28,13.74,6.33,15.65,9.94.48.94,3.36,8.65,1.86,16-1.09,5.45-2.75,12.45-12.84,15.12-14.18,3.76-20.39-3.82-25.4-10.66C943.46,509.1,943.39,503.16,944.62,497.82Zm9.23,7c.63,5.37,7.7,11.85,13.87,11.63,7-.32,9.45-8.16,8.29-13.85-1.51-7.62-7-10.95-13.77-9.78C953.62,494.29,952.82,500.2,953.85,504.79Zm4.66-99.12,2.86-2.07c4.79-.31,13.63,9.68,14.52,13,2,7.57,1.93,10.17,2.67,16.53.35,1.94,1.48,2.05,2.2,1.85,3.44-1.27,15.89-2.85,19.31-3.25.86-.1,1.88,1.27,2.06,1.74.38,1.07.42,4.66-.26,5.23-1.78,1.7-12.21,4.65-14.65,4.93a13.52,13.52,0,0,0-7.71,4l1.57,13.44c.2,1.71.75,10.68-.09,13l-1.4,1.77c-1.11,1.12-5.5.65-6.18-.89-1.92-16.49-4.22-41.48-5.76-49.35-.89-4.48-6.22-13-8.58-15.22A3.41,3.41,0,0,1,958.51,405.67Z"/><path class="cls-2" d="M1004.32,462.86c.8-.58,2.55-.42,5.49-1.75s11.12-10.83,16.44-20.37c.41-.79,4-7.52,4.13-11.38a31.22,31.22,0,0,0-1.05-10c-.39-1.2-1.95-6.09-.11-7.3,1.15-.75,6.48-1.74,8.08-.81.79.4,2.22,6.3,2.41,6.9,1.4,4.54,1.92,10.05,1,13.38-1.26,4.11-1.29,4.86-2.32,6.71,2.67,2.66,8.18,7.47,10.77,9.52,2.87,2.27.75,3.26,5.7,3.17,2.1,0,3.24,4.46,2.69,6.13a8.41,8.41,0,0,1-2.67,2.54c-3.06,1.35-4.37.76-6.86-.44-3-1.38-8.3-6.34-13.44-11.18-3.48,5.23-12.95,17.48-22.48,22.8a18.57,18.57,0,0,1-6.66,1.28C1002.89,471.82,1002.27,463.35,1004.32,462.86Zm76.43,39.51c-.06-.49.19-2.63.13-3.12-.7-5-.33-6-.57-12.31a39.36,39.36,0,0,0-1-7.56c-.36-.95-1.35-1-2.22-1-4.24-.25-16.85,4.19-21.36,5.83s-8.89,2.4-10.58,1.73a6,6,0,0,1-1.86-1.14c-1.71-1.91-2.3-6.92-.43-7.88,7.58-.88,15.52-3.91,21.93-5.28,3.62-.79,13.48-3.31,16-4.84,2.09-1.24,6.9,1.79,7.41,5.08.45,2.79.78,6.72,1,8.92.5,4.27,1.06,15.48,2,20.32-.26,3.12-2.17,3.72-3.79,4.65-.37,0-4.75.68-5,.59C1081.7,506.22,1081.07,506.17,1080.75,502.37Zm-.92-46.09c-.06-3.71.71-8.75.29-12.41-.53-4.53-.92-20.58-2-25.53a24.65,24.65,0,0,0-1-4.1c-3.79-12.31-9.16-12.67-13.64-16-.53-.31-1-4,.55-7a7.21,7.21,0,0,1,4.15-1.6c1.89.28,11.76,7.42,12.49,8.33,2.61,3.28,5.65,6,7.37,15.48.72,4,.93,15.37,1.6,21.12.24,2.07.2,13.35.58,16.65.07.61-.67,1.68-.61,2.17a24.91,24.91,0,0,0,1.24,3.2c.21,1.83-4.51,7-9,5.76C1080.62,462,1079.93,461.35,1079.83,456.28Z"/><path class="cls-2" d="M1101.78,412a5.22,5.22,0,0,1,4.19-4.45c1.58-.19,4.76-.56,8-1.07,3.52-.53,7.18-1.08,9.13-1.31a62.55,62.55,0,0,0,7.09-1.82,176,176,0,0,1,19.54-4.51c2.55-.42,4.71.07,4.76,3.66.06,1.6-.88,5.18-3.45,5.48a54,54,0,0,0-7.65,1.26c-1.55.55-4.88,1.69-18,5.07a70,70,0,0,1-9.82,1.77,73.29,73.29,0,0,1-10.21.57A4.2,4.2,0,0,1,1101.78,412Zm16.69-27.83a47.58,47.58,0,0,0,9.94,2.43c1.88.15,6.18-.1,9.75-.27,2.34-.15,5.06-.22,6-.21,2.61.07,3.58,2.06,3.83,4.13.29,2.57-1.6,4.4-4,4.81l-1.34.16c-1.34.15-3.53.53-6,.82a54.63,54.63,0,0,1-9.36.47,65.86,65.86,0,0,1-10.47-2.74,11.9,11.9,0,0,1-2.33-.85c-1.43-.57-3.18-2.84-3.76-4.63a5,5,0,0,1,1.49-5.25C1113.07,382.44,1115.26,383.17,1118.47,384.16Zm1,51c-.48-4.16,6.78-14.05,12.2-16.41a29,29,0,0,1,7.56-2.12,24.72,24.72,0,0,1,7.35.38c4.19.87,8.09,2.52,10.49,6.08a15.13,15.13,0,0,1,1.77,5.62c.61,5.25-.48,11.82-3,15.58-5.81,8.6-10.36,9.88-14.6,10.74-1.83.22-10.57-.38-14.46-4C1122.43,446.73,1120.5,444,1119.47,435.19Zm15.38,9.72a10.44,10.44,0,0,0,3.87.29,18.63,18.63,0,0,0,6.55-2.25c3.64-1.66,4.84-9.48,3.54-13.17-1.18-1.59-5.11-3.49-9.51-3a13.72,13.72,0,0,0-4.88,1.68c-1.36,1.15-4.84,4.16-5.36,8.18C1128.8,439.79,1132.94,444.51,1134.85,444.91Zm22.43,34.16a7.32,7.32,0,0,1-2.18-1.73c-1.45-1.81-1-6.44.37-7.47a7.26,7.26,0,0,1,5-.83,8.46,8.46,0,0,0,1.74,0c1-.12,3.76-.69,7.38-1.48,5-1.08,11.34-2.57,17.41-3.64a100.48,100.48,0,0,0,0-10.29c0-1.11-2-1.49-2.77-1.53a10.1,10.1,0,0,0-4.74.8c-.25,0-.35.16-.6.19-2.38.78-5,1.7-8,2.91a87.84,87.84,0,0,1-11,4c-2,.61-3.49-1.21-4.1-3.24-.78-3.5,1.06-4.71,2-5.31,5-2.93,18.7-7.38,24.72-8.83a13.44,13.44,0,0,1,9.33,1.39c.13.11.65.29.53.31,3.34,2.09,3.91,3.75,4.18,7.19a49.93,49.93,0,0,1-.22,6.59,38.79,38.79,0,0,0-.21,4.6,4.48,4.48,0,0,1,2.75,4.39c-.14,2-5.9,4.65-7.84,5-1.45.29-4.13.73-5.35.87-4.73.8-11.55,1.85-16.21,3.26-.94.48-1.07,1.48-.56,2.66.64,2.28,3,6.46,8.5,11.27,1.38,1.2,4.54,1.82,8.76.84,3.14-.74,9.16-3.3,12.4-6.28a4.39,4.39,0,0,1,4-.72,1.65,1.65,0,0,0,.76.16c.38.08,2.3,2.71,2.31,3.82.08,2.84-3.14,6.06-3.14,6.06-2.46,2.27-10.51,6.43-15.09,7.58-5.53,1.39-10.44-.39-12.92-1.46-1.16-.36-10.88-9.38-15.24-19.15A5.4,5.4,0,0,0,1157.28,479.07Zm22.35-47.31c-.16-3.45-.23-7.28-.68-11.07-.32-2.81-.64-5.5-.83-8.2l-.89-8.69c-.33-2.81-.81-5.85-1.39-8.75-.62-2.16-4.08-7.33-4.79-8.11a10.85,10.85,0,0,0-2.48-2.19c-1.6-.93-2.81-1.78-3.11-4.34-.18-1.59-.17-2.58,1.19-3.61a5,5,0,0,1,3.37-1.88c2.45-.28,5.38,1.48,8.1,4.63,1,1.25,5.72,7.63,7.19,11.79.33.71.5,1.06,2.68,14.43.28,2.44,2,2.12,3.31,1.84l7.08-.83a54.7,54.7,0,0,0,12.6-2.46c2-.6,5.42,3,3.75,6.75-1.12,2-5.45,4.23-7.28,4.44-1.22.14-3.64.67-6,1.2s-9.23,1.57-10.82,1.76a1.88,1.88,0,0,0-1.34,2.26c.31,2.69.47,5.15.65,7.73s.36,5.16.65,7.72c.28,2.32-4.41,4.6-7.54,4.35a4.22,4.22,0,0,1-3.11-3.35Z"/><path class="cls-3" d="M247,739.47c-1.05-9,1.43-19.6,2.74-25.33-2.2.26-4.32.13-6.76.42-1.74,0-3.11-.14-4.26-1.49a14,14,0,0,1-.87-4.23c-.42-2.55,2.51-4,5.37-5l8.22-1.7c7.51-1.5,14.52-2.94,20.88-4.67,1-.23-.52-.19.43-.54,1.44-.42,3-1,4.67-1.42.12,0,.47-.17.72-.2,1.69-.33,4.61-.79,5.52,1.71a4.39,4.39,0,0,1,.21.71,8.8,8.8,0,0,1,.41,2.43c-.09,2.49-2.7,4.53-4.61,5.12-5.18,1.23-7.55,2.12-12.71,3.59a14.88,14.88,0,0,0-7,4.9c-2.31,4.61-2.2,17.22-2.09,21.3-.08,1.49.89,6.58,6.07,5.36a265.49,265.49,0,0,0,28.25-7.26,14.38,14.38,0,0,0,2-1.1l2.34-1.14c2.46-1.28,7.53.86,6.93,4.15a19.37,19.37,0,0,1-2.66,3.77c-1,1.23-3.2,2.23-4.49,2.88l-.83.34C290.78,744,279.44,748.7,268,750c-.36,0-1.33.27-2.42.4-1.82.34-4.88.7-6.95.94a21.47,21.47,0,0,1-4.55.28,8.36,8.36,0,0,1-5.35-4.45A34.27,34.27,0,0,1,247,739.47Zm64.86,11.38c-1.41-18.41-2.83-36.94-5-55.88-.61-5.25-5.56-10.5-9.19-14a28.79,28.79,0,0,0-3.08-2,9.74,9.74,0,0,1-3.37-2.33,2.56,2.56,0,0,1-.63-3.27l2.58-3.4c.44-.42,5-.34,6.25.51A56.21,56.21,0,0,1,312.89,682c4.71,6.38,5.74,16.29,6.17,20,.27,2.32.36,4.17.46,6s.13,4.32.48,7.38c.05.36.59.79,1.12,1.1a3.8,3.8,0,0,0,1,.13c1.47-.17,5-1,8.83-1.77,5.44-1.13,11.6-2.47,13.71-2.47,1.6-.06,3.67.69,3.86,2.28l.5,4.27c0,1.36-.55,1.68-2.15,2.86-.43.54-23.72,5.74-24.58,5.84s-1,4.32-.94,6.79c0,1.12.09,1.85-.12,2.12.26,3.32,1.8,19.73,2,25.89,0,2.23-1.9,3.94-3.72,5.27l-1,.86c-1,.74-5.17.23-5.33-1.11Z"/><path class="cls-3" d="M351.26,703c-2.49-10.73,4.39-19.71,11.81-26.14,1.35-1.15,5.58-2,7.42-2.23s3.35,2.21,5,2.63c.49,0,4.91-.32,5.3-.24,7.45,1.23,11.59,7.06,12.32,8,4.46,5.3,3.95,19,2.48,21.26-4.93,7.63-13.44,15.31-24.34,13.24C360.75,717.54,354.06,715.35,351.26,703Zm19.34,6.54c5.66,1.81,15.93-2.48,16.84-9.52.75-7.4-3.41-12.24-9.48-13.38-4.3-.74-10.35-5.86-16.09,4.35-2,3.32-1.55,10.09-.65,12.46C362.79,707.39,368.27,708.73,370.6,709.58Zm25.77,53.21c-3.92-3.88-7.58-8.77-6.78-17.78.6-6.51,6.08-11.61,12.61-15.1,5.82-3.15,20.72-3.9,27.53,4.59,2.6,3.17,1.4,8.88,2.4,12.11,1,8.3-7.35,19.8-15.92,21.67S402,768.45,396.37,762.79Zm13.54-95.2c-3.71-5.26-7.2-6.47-10.17-8.6-.41-.32-.6-3-.76-4.37a4.54,4.54,0,0,1,.75-3.18c.91-1.71,2.85-2.06,6.39-.37,1.45.7,10,7,10.3,7.59,3.46,6.28,3.74,14.05,4.57,19l16.5-2.92c.86-.09,4.71-1,7.42-1.23,1.93-.35,3.35.1,4.22,2.23.46,2.92-.4,6.11-3.1,7.42-.32.41-4,0-4.46,0-2.75-.29-12.42,2.82-16.17,3.63a3.05,3.05,0,0,0-2.46,2.26c0,1.86.42,6.77.76,9.7.23.84,1,1,1.72.91l11.58-1.6c5.25-.61,9.36-2.57,15.34-3.27,1.35-.16,2.64.31,3,3.73.24,2.08-1.05,5.82-3.77,5.89s-24.5,3.35-24,3.17a4.28,4.28,0,0,0-3,1.47l.47,7.25c-.37,2.15-1.75,5.16-3.17,5.7a20.1,20.1,0,0,1-3.84,1.07,2.37,2.37,0,0,1-1.63-1.18C416,718.64,411.24,669.42,409.91,667.59Zm2.17,91.88c6.6-.77,13.43-7,11-16.26-.43-1.56-3.77-5.76-5.92-6.13-4.49-1.33-10.77,1.14-11.24,1.32-3,.6-6.74,4.87-6.53,8.81C399.72,753.24,405.61,760.23,412.08,759.47Z"/><path class="cls-3" d="M453.49,675a36.39,36.39,0,0,1,5-5c2.22-1.12,10.46-2.7,16.37-4,2.42-.53,4.45-1.14,5.54-1.39,2.52-.67,16.38-2.9,20.65-3.4,1.59-.19,1.74,2.15,2,4.47l.1.85c.1.86-1.61,3.16-5.22,4.08a83.3,83.3,0,0,1-10.93,1.9,115,115,0,0,0-13,2.38c-2.39.77-4.54,1.39-6.32,2.1a33.36,33.36,0,0,1-8.75,2.5,17,17,0,0,1-3.44.16c-.63-.05-.92-.39-1.61-1.05-.14-.11-.15-.23-.18-.48C453.23,677,452.74,676,453.49,675ZM463,649c-.27-2.32-.27-2.32,1-4.33.6-1.18,4.18-.24,7.9.81a38.19,38.19,0,0,0,8.9,2.06,40.42,40.42,0,0,0,9.37-.35l1.23-.14c1.95-.23,3.9.53,4.13,2.49.39,3.42-.85,6.54-5,7l-5.14.6c-1.83.21-11.87-1-17.73-3.38-1.82-.78-4.34-2.22-4.58-4.29Zm7.84,54.44a50,50,0,0,1-.1-7.18c.48-4.39,4.47-9.43,7.86-11.19-.29-2.44-.54-4.64,2.59-5.38a31.21,31.21,0,0,1,3.53-.54,36.51,36.51,0,0,1,13.45.66c3.59,1.07,8.73,7.9,9.73,12.24a23.49,23.49,0,0,1,0,9.29c-1.21,5.59-6.48,13.51-9.94,15.65a17.35,17.35,0,0,1-7.76,2.52c-5.25.61-11.42-.28-14.62-4.36A21.17,21.17,0,0,1,470.81,703.46Zm12.6,6.08a10.78,10.78,0,0,0,2.57.81,11.26,11.26,0,0,0,6.8-1.16c2.45-1.28,6.77-5.62,6.45-11.53-.21-3.94-.41-5.65-5.54-9.26l0,.12a19,19,0,0,0-4.59-.08,2.51,2.51,0,0,0-1.41.66.91.91,0,0,1-.07.5c-.32,1.53-3.46,3.26-5.33,4.22-1.95.23-2.8,4.66-2.61,6.25C480.48,706.79,482.08,708.83,483.41,709.54ZM498.56,728a7,7,0,0,1,2.86-3.06c.93-.48,3.06-1.35,4.23-.87a4.63,4.63,0,0,1,2.72,3.15c.81,3.75,3.27,8.91,6.16,11.42l2.23,2.09c2.76,2.41,9,2.67,10.14,2,1.47-.17,10.36-3.56,13.89-7.32l3.05-3.57a6.38,6.38,0,0,1,5-.59,3.42,3.42,0,0,1,2,2.61c-.06,4.72-3.67,8.85-5.71,10.45A83,83,0,0,1,530.34,752a32.11,32.11,0,0,1-5.46,1,20.19,20.19,0,0,1-5.87-.43c-7.23-1.51-18.53-13.44-19.77-20.85C499.08,730.37,498.3,729,498.56,728Zm15.18-81c-1.52-1.43-2.06-5-.52-6.62a5.56,5.56,0,0,1,4.38-.64c1.94.64,7.84,4.53,15.79,11.16,1.25,1.09,2.8,4.87,3.43,7,.29,1.45.43,2.67.57,3.9.17,1.46.39,3.29.44,4.77s1,10.91,1.26,13c0,.37.81.53,5.09-1a75.81,75.81,0,0,0,9.14-3.42,47.37,47.37,0,0,1,10.43-3c2.93-.34,3.76.43,4,2.14l.29,2.44c.18,1.59-2.94,4.55-6,5.78a23.18,23.18,0,0,1-5.94,2.18l-4.11.85-5.1,2c-3.06,1.34-.65.81-4.47,2-.94.48-1.83,1.33-1.73,2.19l2.6,22.23c.48,4.16-2.91,6.9-7.6,7.08-.61.07-1.92-.52-2-1.37l-6.42-56.1a28,28,0,0,0-2.47-7.39,33.17,33.17,0,0,0-6.22-5.58Z"/><path class="cls-3" d="M650.08,665c-2.68-2.78,3.66-5.75,8.67-2.12a104.78,104.78,0,0,1,6.78,14.56,2.3,2.3,0,0,0,3.24,1.23l6-1.32c11.46-1.58,19.24-2.86,28.34-2.32a3.78,3.78,0,0,1,1.81,2.77c.18,1.58-2.42,5.85-3.88,6l-12,1.4c-14.29,1.67-30.12,6.11-43.43,7.67-4.52.52-30.17,4.63-31.52,3.67,0,0-2.13-5.44.22-6.58,0,0,4.33-2.12,5.92-2.31l23.58-2.75c4.15-.48,11.82-2.74,11.75-4.34C655.16,676.62,652.13,668.68,650.08,665Zm-26.58-2.84,7-2.67c4.85-1.93,17.9-16.46,20.06-23.39.36-1.16.25-3.13-1.17-2.59a49.17,49.17,0,0,1-7,2.55c-2.64.68-15.39,1.8-18.33,2.14a4.73,4.73,0,0,1-4.95-4.25c-.1-.86-.31-2.69.44-3.65,2.69-.31,21.77-3.4,24.46-3.72,4-.47,7.38-3.58,11.17-4,4.64-.54,7.36.51,8.08,6.62.33,2.81-1.83,6.65-3.36,10.54,4.37,1.35,22.89,5.13,27,6.39.64.17,1.8,2.64,1.29,3.56-.93,1.6-2.46,7.6-6.83,6.25-1.67-.55-20.64-7.13-23.74-7.14a16.82,16.82,0,0,0-3.54.41c-2.78,3.8-12.16,17.89-24.46,21.8-1.43.42-4.12-1.37-4.83-2.16C623.35,667.21,621.93,663.53,623.5,662.11ZM643.77,716c.91-8.16,9.54-14.86,14.83-16.22,7.09-1.82,17.73-4,23.87,8.23,3.24,6.56,2.85,15.89,2.25,19.31-2.45,10.81-13.05,13.41-22.84,13.31-6.57-.1-14.23-6.26-16.44-10.34C642.92,725.6,643.31,720.48,643.77,716Zm15.78,13.14c1.73,1,9,.81,12.15-2s3.27-6.94,2.64-12.32c-.82-7.08-9.49-7.06-15.67-4.86-1.3.53-4.6,4.13-4.86,6.14C653.05,723.31,654.4,726.37,659.55,729.11Z"/><path class="cls-3" d="M774,715.75c-1.39-12-1.86-20.21-3.26-32.19-.08-.73-1.06-4.83-3.38-4.55-5.25.61-8.88,2.39-15.08,3.37-.62.07-1.74,1.06-1.51,1.91a42.32,42.32,0,0,1,1.51,13c-.14,2-1.46,6.61-2,9.27a28.37,28.37,0,0,1-3.76,7c-.66.7-5.39.51-6.2,0-1.47-.94-2.32-5-.89-7.69.18-.52,3.59-8.47,3.4-13.28a24.52,24.52,0,0,0-1.22-6.17,2.58,2.58,0,0,0-2.19-.74c-5.82,1-14.09,1.27-19.1,1.86-1,.11-8.06-1.17-9-3.9-1-2.12-1.54-5.77.44-6.87,1.27-.76,4.7-.05,6.16-.22.62-.07,9.58.37,11.17.18,5.5-.64,11-.79,16.94-2.35,10-2.52,28.38-7.27,37.3-8.31l14.17-1.65a4.23,4.23,0,0,1,2.45,4c0,.87-.33,4.62-1,5.44-4.83,1.06-12.94,1.64-18.42,2.4-.13,0-1.12,0-.6,5.52s2.82,18.86,3.51,24.73c.47,4,1.16,6.8,1.29,11.12,0,1.35-2.26,4-3.87,5-1.15.75-3.79,1.43-4.88.57C774,721.58,774.34,718.44,774,715.75Zm-14.73-55.12c-7,1.32-14.31,2.54-20,2.58-2.23,0-3.6-.07-5.72-.2-1.13-.11-3.26-1.35-3.67-2.79-.77-3.38-.95-7.07-1.6-10.46-.46-.81-1.78-1.53-3.1-2.24a9,9,0,0,1-3.08-2c-.83-1.76.48-5.38,2.27-6l6.85-1.78c7.33-2,17.89-4.82,23-6.9a4.79,4.79,0,0,0,1-2.72c-.17-1.46-1-6.69-2.13-6.56-2.85,0-5.09,1-7.55,2.12a22.53,22.53,0,0,1-4.5,1.76,56.61,56.61,0,0,1-10.9,2.14l-3.67.43c-1.46.17-2.82.2-4.16.36s-3.31-.73-3.6-2.18c0-.24-.21-.72-.25-1.09-.34-1.81-.67-4.62,1.17-4.84a61.51,61.51,0,0,1,9.08-.69,49.55,49.55,0,0,0,6.56-2.12l5.73-1.91c6.07-2.07,13.92-4.84,17.4-4.75,2.73,0,3.8,2.89,4.37,4.56,0,.12.15.23.16.35a122.63,122.63,0,0,1,2.9,17.38l.17,1.46c.51,2.29-2.33,4.48-3.66,4.76-2.15.63-4.34,1-7.12,1.58l-4.72.92c-.49.06-9.14,2.3-11.64,3.21-.8.59-1.28,1.76-.54,7,.09.86,1.52,1.43,2.16,1.61a24.38,24.38,0,0,0,7.42-.13c6.72-.78,14.58-3.43,23.63-5.48,1.45-.29,2.81-.32,3.39,1.46.22.85.78,3.5-.41,5-1.4,1.77-6.89,3.52-11.31,4.91Z"/><path class="cls-2" d="M877.53,674.2l-7.09,2.93c-5.42,2.37-15.71,6.54-22.92,8.38a72.63,72.63,0,0,1-8.62,1.5c-2.44.28-5,.46-7.47.74s-4.77.44-7.1.71a35.38,35.38,0,0,1-8.09-1.41c-3.34-1.1-8.86-3.8-10-5.27-1.22-.85-.83-5-.74-5.24.77-1.95,1.92-2.7,3.26-2.86a10.48,10.48,0,0,1,4,.77c1.55.56,2.86,1.15,4.17,1.74,3.13,1.37,6.11,2.51,9.2,2.4,3.57-.17,6.53-.27,9.7-.64a58.06,58.06,0,0,0,7.64-1.39c2.39-.77,27-7.6,33.24-12.3,1.67-2.67,1.87-6.28,2-10l.05-2.73-1-8.92c-.54-4.64-1.36-10.61-2.12-14-.78-2.39-8.28-13.65-12-17.17-1.15-1.35.12-5.34,1.91-5.92.12,0,.23-.15.35-.17,1.55-.55,3.45-1.26,5.41-.38,2.27,1.47,11.45,14.27,13.37,19.12a71.19,71.19,0,0,1,3.68,16.66c.43,3.67.82,8.08.95,12.4,0,1,0,3.84-.19,6.83-.15,5.1-.37,11.69,0,14.5L890.42,686c.31,2.69-2.72,6.38-5.41,6.7l-.74.08c-1.82.34-4.49.78-4.8-1.91ZM813,644.58c-.45-3.91-.28-7.77.8-10.13,2-4.07,6.14-7.89,9.26-8.75l.83-1.34c.82-1.46,1.75-3.05,2.69-3.53,2.91-1.58,5.47-1.88,7.79-1.16,6,1.53,14.82,6.07,18,14l1,6.45c.33,2.81.64,5.5.09,7.17-2,6.93-10.5,14-17.07,16.11-10.59,2.6-18.78-5-20.37-8A32.06,32.06,0,0,1,813,644.58Zm10.06.19a23.63,23.63,0,0,0,1.06,3.84,8.92,8.92,0,0,0,7.48,5.69c1.25.1,6.44-1,7.89-2.41V652a17,17,0,0,0,4.11-11.5c-.42-6.76-8.77-11.48-12.69-10-3.2,1.24-5.64,3.63-7.13,8.88A13.61,13.61,0,0,0,823.08,644.77Z"/><path class="cls-2" d="M954.78,649.59c4.64-2.65,8.91-9.59,9.74-10.92a48.82,48.82,0,0,0,3.16-6.94c-5.26.62-12.94,1.64-12.83,1.5-1.1.13-3.11,1-4.94,1.2-2.08.24-6.22,1.84-7.57-.11-.27-2.32-1.55-3.78,0-6,2.26-3,12.31-3.79,16.1-4.23,1-.12,2.73.05,4-.09.36,0,5.16-1.35,8.42-2.1a5,5,0,0,0,.18-1.63c-.07-2.72,1.14-5.09-1-6.45a22,22,0,0,0-11.54-4.47c-1.39-.21-7.38.49-9.31-.15-.61.07-1.06-.62-1.06-.62-.06-.49-.86-5.23-.16-6.67.4-.79,8-1.67,11.67-1.86,4.58,0,11.53,2.25,14.41,4.64,1.37,1.08,6.18,4.11,6.92,6.25,1.31,3.81,1.47,8.37-1.41,15.52-3.91,8.88-7.08,21-13,26.65-1,1-7.22,5.05-8.85,2.77-.3-.46-.92-.51-1.09-.87C955.61,652.46,953.38,650.37,954.78,649.59ZM983.11,677c-3.13-5.58-5.74-8.86-8.5-11.27-1.24-1.09-1.47-3.05.81-4.8,1-.74,6.27-2.46,7.94-.92,3.53,4.79,6.29,7.19,7.91,11.58.9,2.37,16.77-1.71,22.46-3.86,1.43-.54,1.75-1,1.74-3.17-.55-2.54-1.58-8.24-3.19-9.29-2-1.37-4.36-2.34-.38-6.4,5-3.05,10,1.57,12.51,9.57s.72,17.87,1.52,26.82l1.93,2.74c0,.37.85,4.11.6,5.13-.87,3.2-11.52,4.2-14.91,4.84l-16.62,1.94c-1.95.23-5.46-.11-6.47-2.34C988.27,690.38,986.76,683.87,983.11,677Zm27.33-80c-2.78-5.74-4.17-7.06-7.63-10.13-.83-.77-3.25-1.35-2.3-7,.43-2.66,6.52-1.39,6.52-1.39,7.14,3.88,11.53,11.79,12.38,14.78,2.41,9,4.26,33.31,6.33,50,0,0-1.37,2-2.84,2.19-.12,0-4.31,1.24-5.46-.11a33.79,33.79,0,0,1-2-5.22l-1.87-16c-5.48.76-19.26,6.83-24.87,5.5-.76-.16-1.12-1.11-1.68-1.66,0-.37-1.14-4.45-.55-4.77,7.44-3.09,20.18-5.32,25.89-9.46Zm-12.61,91.5a3.13,3.13,0,0,0,3.52,2.57l9.29-1.09c2.07-.24,4.7-1,5.81-2.16.68-2.68,0-6.2-.33-9.25-1.79-1.53-3.37-1.22-14.73.11-1.95.23-4.59,1-5.64,2.64C996,683.41,997.32,686.23,997.83,688.52Z"/><path class="cls-2" d="M1050.41,666.91c-1.26-.23-3.68-.81-2.79-4.88.34-1.27,1.92-2.57,2.84-3.18a11.14,11.14,0,0,0,4.89-4.78L1056,653a55.59,55.59,0,0,0,5.82-12.81,2.22,2.22,0,0,0-.72.2,139.41,139.41,0,0,1-13.87,2.12c-1.47.17-5.71-.08-6.4-1.73-.76-2.27-.65-4.51.8-5.92a1.11,1.11,0,0,1,.7-.33c3.16-.49,16.56-2.42,22.16-4.32a17.09,17.09,0,0,0,.75-6.28c-.3-2.56-1.39-4.54-3.49-5.53-1.85-1-11-3.3-17.08-4.2a3.39,3.39,0,0,1-2.48-3.18,15.06,15.06,0,0,1,.82-4.68c1.36-2.14,6-1.44,8.29-1.09,3.41.6,18.64,3.77,22.66,8.5.58.68,1,2.48,1.31,4.8a42.08,42.08,0,0,1,.15,7.66c-.13,1,.74,1,1.1,1a156.7,156.7,0,0,0,18.14-3.73,52.73,52.73,0,0,0-.6-8.35c-.31-2.68-.75-5.36-1.13-7.54-.82-3.87-2.72-5.26-4.86-6.62a26.6,26.6,0,0,1-2.67-1.67c-2.7-1.91-1.51-6.63.68-6.89l.49-.06a6.88,6.88,0,0,1,2.69-.31c4.73,1.31,12.49,6.22,13.18,9,.36,1.94.73,4.12,1,6.45s.44,4.77.72,7.22.47,5,.75,7.46c.24,2.08.79,24.8-.23,28.76-.56,2.67-2.35,5.35-9.32,6.17-2.32.27-4.34-5.44-3.28-6.93,2-2,2.88-2.93,2.94-5.54-.12-3.21-.27-8.76-.1-11.51a123.39,123.39,0,0,1-14.22,3.4c-2.29.51-4.84.93-6.63,1.51-1,1.86-2.2,4.47-3.69,7.62-2.78,5.89-6,13.08-9.59,17.59-1.08,1.36-8.8,4.24-10.09,3.77Zm79.59-12c.22,2.94.27,6.53.47,9.35a6.91,6.91,0,0,1-7.35,5c-1-.13-2.73-1.17-2.85-2.15-.74-8.45-1.12-17.08-1.42-26l-.32-9.13c-.36-6.27-1.87-21.32-3.07-31.59-.24-2.07-2.35-8.51-3.4-9l-12.12-10.48c-.77-.28.19-6.83.81-6.9l4.88-.57,5,3.87a88.51,88.51,0,0,1,10,8.37h-.12c.82.65,4.88,11.07,5.41,13.49s.85,6.21,1.16,8.9c1.57,13.44,2.67,28.17,2.4,37.49Z"/><path class="cls-2" d="M1142.53,623.22a23.53,23.53,0,0,1,0-6.94c1.17-4.84,7.07-15.81,12.5-20.28a14.84,14.84,0,0,1,6.21-2c1.71-.2,11.57,2.61,18.83,8.57,1.8,1.65,4.54,3.93,5.41,11.38a34.13,34.13,0,0,1,.32,4.8c.12,7.41-5.76,17.51-14,20.2a29.52,29.52,0,0,1-5.46,1,48.38,48.38,0,0,1-10.24.33c-2-.14-9.79-5.42-10.56-6.69A29.19,29.19,0,0,1,1142.53,623.22Zm14.35,7.37a23.38,23.38,0,0,0,7,.17,26.33,26.33,0,0,0,6.62-1.63c1.49-1,3.32-5.47,3.58-6.49a18,18,0,0,0,.56-6.88,23,23,0,0,0-1-4.7c-1-2.86-6.22-6.59-8.94-7.63a12.53,12.53,0,0,0-3,.36c-2.42.53-8.29,9.63-9,15.53C1152.21,621.35,1153.08,629.79,1156.88,630.59Zm54.92,19.59a64.34,64.34,0,0,1,.28-10.31,183.23,183.23,0,0,0-1-30c-.38-3.3-.88-6.46-1.34-9.38-1.67-9-4.1-20.33-11.43-26.9a9.51,9.51,0,0,1-2-2.12c0-.12-.16-.35-.19-.6-.39-1.19-.95-3.85-.15-4.44a6.2,6.2,0,0,1,5.58-1,23.34,23.34,0,0,1,7.31,5.34c7.62,9,9.76,15.7,12.11,32.64l.47,4c.81,7,1,13,1.36,19.16.27,6.53.55,13.19,1.52,21.49.49,4.16-3.27,6.95-6.94,7.38-1.71.2-2.93.34-3.48-.09C1212.8,654.52,1212,653.25,1211.8,650.18Z"/><path class="cls-2" d="M1241.09,637a24.63,24.63,0,0,1,3-.48c1.1-.12,10.36,1.77,11.95,1.58,5.74-.67,19.77-3.54,26.86-4.37,5-.59,30.87-4,38.69-4.89,1.46-.17,4,1.15,3.87,3.51-.12,3.24-.13,5.22-2.78,5.9l-47.44,5.17c-2.93.34-17.15,4.84-22,4.3-2.2.26-9.14-.91-12.79-2.47-.26-.09-1.63-1.17-1.71-1.9C1238.47,641,1239.38,637.18,1241.09,637Zm9.86-35.45c-.63-1.16,10-2,13-2.38,1.47-.17,8.66-2.25,10.12-2.42,2.36-1,11.08-2.66,12.58-4.69l.33-.41c-.23-4.06-.55-7.86-1.29-10,.2-.4-2.62-1.18-3.38-1.34-2.67-.56-6.53,1.38-9.35,1.59-7.58.88-14.4,2.91-22,3.8a2.69,2.69,0,0,1-2.6-1.06c-.29-.34-1.12-5.32-.49-6.26.6-1.31,5.67-2.4,7.88-2.53,10.67-2,17.54-5.76,28.86-6.34,2.21-.13,9.91,4.29,10.4,6.34.92,3.61,2,16.74,2.35,20.16,0,.24-.95,17.32-1.57,20.49a19.61,19.61,0,0,1-2.52,6c-.91,1.72-9,2.66-9.14,1.32s-.55-1.55-.14-3.33a16.25,16.25,0,0,1,2-4.44,114.13,114.13,0,0,0,1-14.1,24.46,24.46,0,0,1-4.52,1.64c-13.15,4-12.27,4.15-29.15,4.88-.49.06-1,0-1.63-1.29A8.06,8.06,0,0,1,1251,601.53Z"/></g></g></svg>