<svg xmlns="http://www.w3.org/2000/svg" viewBox="0 0 1381.07 1106.58"><defs><style>.cls-1{fill:#a8633d;}.cls-2{fill:#442311;}.cls-3{fill:#fff;}</style></defs><title>Asset 20</title><g id="Layer_2" data-name="Layer 2"><g id="Layer_1-2" data-name="Layer 1"><path class="cls-1" d="M246.37,63.22C463.71-73,660.46,34.63,714.14,163.27c0,0,146.71-267.58,475.43-106.75,142.44,69.69,196.26,206.53,191.18,303.6-5.5,104.91-60.82,189-60.82,189s61.35,157.22-107.35,307.29C996.82,1048.39,744.81,970.8,721.81,1028s7.66,78.61-30.68,78.61-92-57.17-153.36-78.61S407.41,1013.68,277,927.92,154.35,706.39,154.35,706.39-14.35,656.36,1,384.8,246.37,63.22,246.37,63.22Z"/><path class="cls-2" d="M257.2,414.12c-.49.49-2.46-1-2.58-2a7.17,7.17,0,0,1-.12-1.72c0-.74-.12-1.6-.12-2.09,0-1.48,3.56-2.46,5.41-2.95l1.11-.25c3.19-.61,14.26-1.6,16.6-1.6,2.71,0,5.53-.74,6.4-2.7.61-1.48.73-4.19.73-7.26s-.12-6.4-.37-10a36.18,36.18,0,0,0-2.45-5.66,38.14,38.14,0,0,1-2.34-5.54c-.25-2-.13-3.32,1.35-4.43.74-.49,3.44-.36,4.8-.24.49,0,1.35.12,1.6.12,3.07,0,7.13,12.79,7.38,13.9.49,7,.73,13,.73,19.31,0,.86.5,1.23,1.48,1.23.74.12,4.31.12,8.49,0,3.57-.12,9.22-.12,14.14-.12,4.06,0,11.07,0,15.87.12,2,.12,2.71.25,3.2.25.24,0,.37.12.49.12,2,0,1.72,4.43,1.72,6S337.89,412,337,412c-6.76,0-79.7,1.48-79.7,2ZM311,380.54a6.54,6.54,0,0,1,.73-2.21,12.82,12.82,0,0,0,1.36-4.55,76.89,76.89,0,0,0,.37-10.34v-3.07c0-3.2-2.1-7.75-3.57-8.37-.74-.36-3.2-.73-8.12-.73-3.57,0-8.49.12-15,.73h-8.62c-1.47,0-3.32-.24-3.32-2.33v-1c0-2.21,0-5,1.36-5.29l5.78-.36c3.44-.25,7.87-.5,10-.87,3.57-.61,19.43-1.59,21.65-1.35,2.95.12,4.55,1,5.78,2.95a37.45,37.45,0,0,1,4.43,14v7.5c0,2.46,0,5.29-.12,7.87a16.43,16.43,0,0,1-2.59,8.49l-.61.86c-1.36,1.84-2.95,3.32-5.66,2.21C313.17,384.11,310.59,383.12,311,380.54Z"/><path class="cls-2" d="M373.56,431.09c0-1,1.48-4.92,2.59-5.9,0-3.94-3.7-15.5-6.65-18.57-1.1-1.11-1-3.57-1-5.17s3.07-4.3,4.55-4.3c1.23,0,3.08.12,3.81,1.35,1,1.6,3.32,3.44,5.41,2.34a47.88,47.88,0,0,1,8.62-3.2c0-1.48.36-9.47.36-12.67a14.55,14.55,0,0,0-.73-3.45c-.13-.24-1-.61-3-.24a26.5,26.5,0,0,1-4.3.61c-4.8,0-33.83.37-37.64-.37a1.79,1.79,0,0,1-1.72-2.09c0-.49.61-4.55,1.84-5.53,2.34-1.85,3.08-1.23,7.51-.86,8.36.49,16.11-.49,24.1-.49,7,0,15.38-1,22.88-1.73,5.66-.49,17.84-3.19,24.11-4.06,3.08-.36,6.27-1,9.35-.49,2.09.37,2.7,4.92,2.46,7.14-.49,2.58-2.83,3.07-5.41,3.07-3.45,0-12.18.86-17.84,1.48-.86.12-7.5.86-10.58,2.33a1.28,1.28,0,0,0-.86,1.23c0,3,.37,11,.37,11.44,0,1.23.25,2.59.86,2.59,8.12-1.36,9.72-2.46,16.61-.74,2.34.61,2.95,2.46,2.95,5.29,0,.49-1.35,6-1.35,6-.37,4.8-2,14.77-2.95,25.34-.25,3.08-1.6,3.82-5.05,4.68-2.34.61-5.29-.86-7.62-.86s-3.45.61-5.05.86a101.24,101.24,0,0,1-23.74,0C373.68,435.77,373.32,435.77,373.56,431.09Zm-10.21-98.27c-.37,0-1.6-.25-1.6-.86,0-1.11,0-4.19.74-5.42A6.38,6.38,0,0,1,366.8,324c8.61,0,17.09-.49,25.34-.49,2.7,0,7.13-1.35,10.2-3,4.06-2,11.2-1.48,13.53-1.23a1.91,1.91,0,0,1,1.23,1,13.32,13.32,0,0,1,0,5.41c-.36.49-1.6,2.09-2.46,2.09a24.43,24.43,0,0,0-5.53.86,95.85,95.85,0,0,1-.62,11.81,111.74,111.74,0,0,1-1.84,11.2c2.83-.74,11-1.36,10.45,1.72a21.52,21.52,0,0,1-.36,3.2c-.87,3.19-3,3.44-5.05,3.81-4.55.74-13.28,1.35-17.34,2.09-2.34.37-8.86.74-11,1.35-3.93,1.11-13,1.85-18.45.74-1.84-.37-1.11-3.2-1.11-5a3.55,3.55,0,0,1,1.73-2.59c3.07,0,8.61-.73,12.05-.36a2,2,0,0,0,1.35-1.23,66.55,66.55,0,0,0-.86-9.72c-1-5-2.7-6.77-2.83-9.1-.12-2.59,5.42-2.34,7.88-1.6.36.12,2.09,2.21,2.21,2.21.86,4.31,1.48,6.27,2.58,10.58.49,1.84.74,5.29,2.09,5.9,5.54,0,5.91-.86,5.91-.86a7.39,7.39,0,0,0,2.58-5.9c.25-2.71.37-10.33.37-14.76,0-.49-.86-.86-1.6-.86-3.07,0-6.27,1.1-12.3,1.6C377.74,333.43,370.61,332.82,363.35,332.82Zm44.9,92.37c0-1.35.49-7.38.49-8.61,0-1.84,1.35-4.92,1.35-8.12,0-1.35,0-3.07-1.6-4.3-1-.74-3.93-.86-5.78.12-1.23.61-18,3.69-18.2,4.18-.74,1.6-1.6.13,0,7.26.86,3.69.61,6.89.86,10.7C387,428.63,403.7,426.79,408.25,425.19Z"/><path class="cls-2" d="M441.46,371.68c.61-.49,5.9-2.82,7.25-3.44,2-1,11.69-11.32,13.66-13.9,1.1-1.47,7.62-8.49,7.62-11.44,0-1.1-2-.61-3.19-.24a26.36,26.36,0,0,1-4.92.49,74.31,74.31,0,0,1-10.34,0c-2.46-.25-5.78-1.11-7.13-2.83a6.78,6.78,0,0,1-.49-4.31c.24-.86,1.1-2,1.72-2,3.93,0,10.21.37,14.27.49a41.36,41.36,0,0,0,8.85-.86c.49-.13,3.2-1.72,4.06-1.85,7.63-1.23,11.69-1.23,12.18.49a10.85,10.85,0,0,1-.37,6.65c-1.23,3.32-9.47,11.8-10.58,15.37,0,2.58,6.89,7.75,9.11,9.72,2,1.6,3.44,2.95,4.79,3.81a18.07,18.07,0,0,1,3.32,2.83c.49,1.48.37,2.34,0,2.83-1.35,1.72-3.81,4.18-6.64,3.2-1.35-.49-2.21-2-16.36-15.25-.86,1.23-6.39,7.38-7.62,8.48a89.22,89.22,0,0,1-13.78,9.6c-1,.49-4.43.86-5.41,0C439.12,377.59,438.63,374.27,441.46,371.68Zm22.38,38.75a5.32,5.32,0,0,1-.49-2.09c0-1.48,2.95-2.95,4.55-3.69,4.55,0,36.66-1,35.67-1.35,1-.37,2.71-4.8,2.22-5.29,0,0,.73-2-2.71-3.45-1.84-.73-28.29,1.36-29,1.36h-4.8c-1.35,0-3.68-1-4.05-2.71-.13-.37,0-3.57,0-3.94.12-1.1,1.47-1.72,2.21-1.84,3.32-.49,6.76-.74,13.41-1.23,3.93-.25,19.92-2,24.11-1.6.86,0,.73,0,1-.74,1.23-3.32,3.2-11.81,3.2-15.62,0-2.83.37-22.63.37-29.64a15.91,15.91,0,0,0-.74-4.55,121.86,121.86,0,0,0-13.9-15.26c-2-2.09,2.71-6.76,4.06-6.27,4.67,1.6,9.72,5.29,13.53,9.35.49.49,6.39,9.1,6.64,11.19,1.35,9.72-.12,29.4-.49,37.27-.12,2.58-.37,7.63-1,10s-2.33,3.94-4.42,6.28a20.24,20.24,0,0,1,2.33,4.06c1.11,2,.62,14.39,0,16-.24.73-1.47,5.16-3.19,5.41-10.21,1.48-23,1.72-34.44,1.6-.87.24-.5,1-.5,1.84a25,25,0,0,0,3.2,8.37c1.6,2.33,6.64,6.39,8.61,7.13A20,20,0,0,0,501,431c1.72-.61,4.55-3.32,5.9-4.55.5-.37,3.82.86,4.68,1.6a3.89,3.89,0,0,1,.74,4.92,25.19,25.19,0,0,1-3.94,4.06,26.22,26.22,0,0,1-7.75,3.57,39.12,39.12,0,0,1-10.7,0c-1.6-.25-10.09-3.69-12.55-5.91a31.43,31.43,0,0,1-8.12-12.18c-.36-1-.86-6.39-1.84-8.36C467.16,413.63,464.09,411.05,463.84,410.43Z"/><path class="cls-2" d="M595.08,402.56c.86-2,2-6.52,2.71-9.1.61-2.09,1.11-8.74,1.11-11.81-.13-.49-.13-1-.62-1.11-6.15,0-10,.37-16.36-2.09-.74,0-3.2-1.85-4.06-3.08-.49-.73-.49-4.92,0-5.9.25-.61,1.35-.74,2.09-1,1.36-.62,4.06-1.6,5.78,0,5,5.29,21.28,2.09,27.93,2.09.36,0,5.28-.86,5.53-.86,2.46,0,20.54-3.32,22.14-4.92,1-.5,3.2-.74,3.44,0,.62,1.35,2.09,5,1.72,6a5.19,5.19,0,0,1-3.68,4.55A131.68,131.68,0,0,1,625,378.2l-15.13,1.36c-.49,0-.86.24-1,1,.12,3.44-2.71,20.54-3.32,24.6-.74,2.83-4.8,3.57-6.77,3.57-2.21,0-3.69-.62-3.69-3.08C595.08,404.65,594.71,403.42,595.08,402.56Zm8-77.37c4.67-2.09,13.65-2.21,18.2,1.11,10.33,6.89,7.75,22.38,5.66,26.81-3.45,7.26-13,10.33-20.79,9.23-4.18-.5-13-5.54-14.88-12.55C589.05,341.43,592.13,330,603.08,325.19Zm6,27.8c11.81,0,11.93-9.72,10.71-14-.5-1.23-1.73-5.42-5.66-5.78-4.68-.25-8.74-.74-11.93,2.95a5.2,5.2,0,0,0-1,2.83c-.12,1.72-2.09,1.72-1.84,4.06C599.75,346.47,601.6,353,609.1,353Zm44,39.61c-.37-1.23-1.48-1.23-2.83-1.23s-8.61,2.82-14,3.44c-7,.74-14-.74-20.91-.74-.62,0-1.36-1.23-1.36-2.09,0-3.2,2.59-6.27,5.42-6.15,4.67.25,10.45.25,16.35.25,5.42,0,15.75-3.33,18-4.43a7,7,0,0,0,.86-1.6c0-3.94,2.1-15.25,2.1-17.71,0-2,.49-7.75,1.84-22.39.25-2.95-2.46-8.12-3.94-11.68-1.72-2.34-5.16-4.43-5.9-8-.12-.49,2.46-5,4.06-4.8a7.49,7.49,0,0,1,2.58.25c2.09.12,8.24,8.36,9.47,9.47.62.62,2.83,7.13,2.95,7.75.74,6.27,0,9.84,0,14.88,0,11.07-2.95,22.88-2.95,34.07,0,1.48-1.35,16.61-3.07,20.67-.86,1.35-5.78,3.56-7.14,3.44-2-.12-3.32-2.21-3-3.44A77.59,77.59,0,0,0,653.14,392.6Zm-37,18.94c.25-1,3-2.22,4.31-2.83a2.35,2.35,0,0,1,3.32,1c.49,1.23,5.66,13.16,5.78,12.92,3.32,5.9,9.47,4.92,11.07,5.16,5.41.74,11.19-2.33,13.78-3.69.24-.12,1.6-2.09,2-2.09.86-1.35,7.38-.86,7.38,0l.36.74c.62,2.83,1.48,6.15,0,7.38-2.82,2.34-9.34,3.81-14.51,5.66-1.11.49-8.24,1.47-11.32,1.47-1.47,0-10.82-2-13-4.05-.74-.87-5.54-5.66-6.28-7.88C618.08,422.36,615.38,413.87,616.11,411.54Z"/><path class="cls-2" d="M724.48,404.28v-8.36c0-1.23-.49-2.22-1.23-2.22-3.2,0-14.89,1.11-20.67,1.23-3.07.13-11.68-2.21-15.13-2.95-6.27-1.6-8.24-3.44-9.71-4.92-.5-.49,1-6.27,3.69-6,3.07.25,8.73,2.09,9.1,2.09a64,64,0,0,0,12.05,1.48l20.91-.86a55.6,55.6,0,0,0,8.74-1.11c4.18-.74,8.73-.74,13-1.23,6.77-.74,9.11-2.21,16.86-2.21.37,0,2,0,2.45.61,1.48,1.85.87,5.41,0,6.28-.61.61-6.76,2.46-8.6,2.46a33.11,33.11,0,0,0-6.89.86c-1.6.37-10.58,1.23-12.42,1.35s-1.85,1.23-1.85,1.72c0,1.23.37,8.24.37,9.23v26.56c0,.87-3.81,4.19-5.91,4.93a5.6,5.6,0,0,1-3.07-.37c-2.46-1.6-1.85-1.85-2-4.19C723.74,420.39,724.48,412.52,724.48,404.28ZM696.92,358.4c.25-4.18,2.59-14.14,5.54-17.71-1.84-1-3.57-.86-5.29-2-2-1.23-3.32-5.41-1.84-7.75,1.1-1.72,1.23-1.6,6.15-1.11,5.9.62,9.59,1,13.16.37a91.38,91.38,0,0,0,11.56-2.33c.37,0,4.92-1.6,5.29-1.73,4.18-1.35,7.25-2.46,11-2.46a3.68,3.68,0,0,1,2.58.62c.74.61,1.35,5.29.74,6a11.39,11.39,0,0,1-3.32,2.46c-.87.24-4.06,1.6-4.93,2-.36.13-14.88,3.45-16.23,3.45-.86,0-5,1.11-9.35,1.47-.61,0-1.11.37-1.11,3.82,0,3.93-2.83,8.48-3.19,10.7-.25,1.11-.13,3.81,3.44,4.43a56.23,56.23,0,0,0,13,0c1.47-.13,10.08-2.34,10.45-2.46,3-1.11,7.88-3.45,9.1-1.48s1.73,4.55,1.11,5.78c-1.23,2.46-3.2,4.18-4.79,4.43-3.2.61-6.28,1.11-10.09,1.48a29.49,29.49,0,0,1-5.54.86c-4.67.37-14.14.86-19.31-.25C698.89,365.53,696.68,362.58,696.92,358.4Z"/><path class="cls-3" d="M766.67,411.78c-.13-1.47.86-1.84,2-1.84l.5-.13,23.61-.49h.49c2.34-.12,10.58-.24,10.83-3.81.12-1.35.37-8.36.24-10.33,0-.86-.12-1.6-.12-2.22a2.2,2.2,0,0,0-1.47-2.33c-1.85-.49-6.65-.74-9-1s-3.57-.49-5.66-.86c-1.11-.24-3.08-1.72-3.32-3.2-.25-2.46-.25-6.52-.25-9.34,0-2.1,0-4.19-.12-4.92-.37-.87-1.6-1.73-2.83-2.59a9.23,9.23,0,0,1-2.83-2.33c-.62-1.85,1.11-5.29,2.95-5.66l7-1c7.51-1.1,20.79-2.7,26.08-4.18a4.78,4.78,0,0,0,1.35-2.58c0-1.48-.24-11.69-1.35-11.69a28.41,28.41,0,0,0-10.21,1.23,22.44,22.44,0,0,1-4.67,1.23,56.6,56.6,0,0,1-11.07.86h-3.69c-1.48,0-2.83-.12-4.19-.12s-3.19-1.11-3.32-2.58c0-.25-.12-.74-.12-1.11-.12-1.84-.12-4.67,1.72-4.67a59.82,59.82,0,0,1,9.1.37,51.57,51.57,0,0,0,6.77-1.36l5.9-1.23c6.28-1.35,16.85-3.19,20.3-2.7,2.71.37,3.44,3.32,3.81,5,0,.12.12.25.12.37.86,5.66.86,17,.86,22.51v1.47c.25,2.34-2.82,4.19-4.18,4.31-2.21.37-4.42.49-7.25.74l-7.26.37c-.49,0-9.35,1.23-11.93,1.84-.86.49-1.48,5.29-1.36,10.58,0,.86,1.36,1.6,2,1.84a24.26,24.26,0,0,0,7.38.74c6.77,0,17.35-1.72,26.57-2.7,1.48-.13,2.83,0,3.2,1.84.12.86.37,3.57-1,4.92-1.6,1.6-7.26,2.71-11.81,3.57l-4.06.74c-1.23.37-1.48.86-1.6,2.21v2.09c-.12,3.57-.37,13.16,1,13.41a28.38,28.38,0,0,0,4.55,0c2.34,0,2.83-.37,5.78-.62,3.33-.24,9.35-1.1,12.43-1.23.37,0,1.6-.24,2.7-.37,3.33-.49,8.74-1.23,10.58-.86,2.71.62,2.09,4.31,1.85,5.78a4.23,4.23,0,0,1-1.72,2.1,3,3,0,0,1-1.23.61c-7,1.72-42.44,6-54.74,6.15l-3.32.12c-5.41.25-18.33,1-22.39.13-1.1-.25-3.32-2.09-3.44-3.57Z"/><path class="cls-3" d="M973.92,325.31c2.33-1.1,4.06-.61,14,9.11,1,1,3.32,5.53,3.32,6.51v26c0,16.48-.37,33-2.46,49.32-.37,1.6-2.58,4.68-3.69,4.68-.62,0-1.35.12-2,.12-2.58.12-4.92.24-6.64-1.72h.12a2.13,2.13,0,0,1-.37-2.34,3.6,3.6,0,0,0,.25-1H977a67.58,67.58,0,0,0,2.83-9,76.94,76.94,0,0,0,.62-9.6c0-3.44-.25-7.13-.37-10.82s-.37-6.89-.37-10.21a9.13,9.13,0,0,1-4.31,1.23,32,32,0,0,1-4.79.24,26,26,0,0,0-7.51,1c-.61.37-1.23.49-1.23,2.09-1,7.5-2.46,16.6-3.32,19.93-1.6,5.41-3.44,10.33-9.59,8.61a7,7,0,0,1-2.71-2.22c-.24-.74.74-3,1.48-4.55a15,15,0,0,0,.86-1.84,50,50,0,0,1,1.11-6,53.77,53.77,0,0,0,1-5.29c-3.07,3.32-8.12,6.52-10.09,7-2.46.62-23.24,4.31-28.29,4.8h-6c-1.6,0-4.8-1.11-4.68-3.57v-3.2c0-2.46,1.48-5.16,3-8s3-6.15,3.07-8.61c-.12-1.23-.12-2.83-.12-3.94-.13-5.41-.13-9.59-4.92-19.31l-1-2.34c-.49-1.35-1-2.58-.49-3.19s2.34-1.36,6.89-.5c2,.37,3.93,3.45,4.92,4.92h-.12l.73,1A49.29,49.29,0,0,1,916.84,365a40.91,40.91,0,0,1,.62,7.63c0,1.47-.12,2.95-.12,4.43s-.13,3.19-.13,4.79l-.24-.24a40.3,40.3,0,0,1-1.6,8.12c5.9,1.35,22-2.59,25.83-4.19,1.11-.37,7.87-3.93,9.22-6.88,1.36-3.33,2.59-17.84,2.59-25.1,0-1.84-2.22-5.29-4.19-8.24a35.6,35.6,0,0,1-2.45-4.06l-.25-.49c-.49-1.35-1.72-4.18.37-5.78,1-.61,3.44-.37,4.92-.12a4.34,4.34,0,0,0,1.11.12,5.22,5.22,0,0,1,3.69,2.58A59.47,59.47,0,0,1,963,349.54a18.14,18.14,0,0,1,.74,5.66,76.24,76.24,0,0,1-.49,7.75c-.13,1.35-.25,2.71-.25,3.32.12,2.34.12,3.08,2.21,3,3-.24,5.91-.61,8.74-1.1l5.41-.86a4.5,4.5,0,0,0,.61-.5c.13-.24.37-.36.62-.61,0-1.23,0-4.67.12-5.9.13-2.1.13-4.19.13-6.15,0-4.31-.25-8.49-1.48-11.81a32.38,32.38,0,0,0-4.06-6.4c-.74-1-1.72-2.09-2.58-3.32-.37-.61-.25-2.46-.12-3.57,0-.37.12-.86.12-1.1Z"/><path class="cls-3" d="M1011.68,390.14a76.46,76.46,0,0,1,2.83-10.83,20.73,20.73,0,0,1-3.94,0s-1-.61-1-1a32.05,32.05,0,0,1,0-4.92A3.72,3.72,0,0,1,1013,371c4.55,0,14.14-.5,19.43-.74,1.48-.12,2.22-1.48,2.46-2.83a77.62,77.62,0,0,0,.74-10.58c0-1.23-2.46-2-2.46-2l-15-2.21c-.37,0-5.17-.37-5.79-.37-2,0-4.18-.74-4.42-1.6-.74-3.07.61-6.64,4.06-6.89,1.47-.12,2,.37,4.18.74,8,1.35,17.09.74,25.46,1.23,2,.12,3.69,2.58,3.81,4.43.25,3.07-.49,8.61-.49,11.07,0,1.6-1.11,5.9-1.11,8.36,0,.37,1,1.6,1.11,2a13.62,13.62,0,0,1-.37,4.92c-.86,2.58-4.8,2.22-5.16,2.22-2,0-12.18.24-14.52.49-1.35,4.18-4.3,10-2.71,13.77,1.73,4.19,6.65,5.54,14.76,4.43,2.1-.24,9.84-3.2,11.07-.61.62,1.23.87,4.42.13,5.41-3.32,4.06-13.41,5-19.8,4.55-4.56-.37-12.18-2-15-6C1011.06,397.27,1010.94,394.19,1011.68,390.14Zm67.15,27.67a51.73,51.73,0,0,0,1.11-5.66c.49-2.95.37-15.62.62-23.61,0,0,0-2.46-1.85-2.46s-4.92,1-6.89,1.1-11.07,1.23-15.74,1.6c-1.72.12-3.08-1-3.32-4.3-.12-2.09,3.07-4.43,4.8-4.55,5-.5,9-.87,14-1.23,6.52-.62,6.89-2.59,7.13-2.83,1.6-1.85,2-9,1.72-11.2-.12-1.84-.36-2.33-2.45-2.58-1.11-.12-12.8,3.32-14.27,3.69-2.22.62-9.35.37-9.35.37-.86-.62-1.23-3.57-1.11-4.67-.12-1.73,1.85-4.43,3.57-4.68,1.23,0,7.62-.61,8.85-.74s14.27-3.93,14.15-5c-.62-7.5-1.6-13.28-5.66-17.71-.74-.74-5.53-3.2-5.9-3.57-1.48-1.47-.37-6.76,3.56-7.5a18.54,18.54,0,0,1,4.19.37c2.7,1.6,9.59,7.75,11.68,13.77,2,5.66,2.34,22.14,2.58,24.36.13,1.47.13,11.19.13,35.42.12.74-.25,14-.25,14.15-.12,6.89-.74,16.6-6.64,16.11-1.72-.12-5-1.11-5.53-2.46C1077.61,423.22,1078.47,418.55,1078.83,417.81Z"/><path class="cls-3" d="M1101.47,397.64c.86-1.6,3.93-3.32,6.15-4.8l2.09-1.35a79.56,79.56,0,0,0,18-18.08c3.33-4.8,6.77-11.07,6.77-16.24a37.88,37.88,0,0,0-.49-4.92,40.38,40.38,0,0,1-.62-5.29c0-2.7,1.36-3.93,4.06-3.69s5.17,1.6,5.54,3.08a52.17,52.17,0,0,1,1.23,11.93,28.74,28.74,0,0,1-1.23,9.35l-1,1.84c-1.47,2.58-3.93,7-4.18,8.24a5.72,5.72,0,0,1-.12.62,2.51,2.51,0,0,0,.12,1.35,83.6,83.6,0,0,0,8.24,9.72,75.93,75.93,0,0,1,6.4,7c.86,1.23-.86,4.43-2.46,6-1.11,1.11-4.43,1.48-5.54,0h.13l-14.27-14.26c-.25-.25-.62-.13-1,.24-7.38,6.4-14.63,12.3-23.37,16.12-3.07,1-4.06-.13-4.42-1.11C1100.6,401.57,1100.6,398.38,1101.47,397.64Zm81.18-7.75c0-3.2-.13-6.27-.13-9.35s-.12-5.41-.12-8.24a27.82,27.82,0,0,1-5.9,2.58,81.73,81.73,0,0,1-11.81.62,126.53,126.53,0,0,1-13.78-.62c-1-.24-1.35-4.55-.37-6.39l1.23-1.23a100.4,100.4,0,0,1,11.69-1,100.28,100.28,0,0,0,10.82-1.1,19.45,19.45,0,0,0,5.17-1.48c1.11-.74,2.09-.37,3.2.74.12-1.6.12-3.2.12-4.92a62.12,62.12,0,0,0-1.23-13.41c-.37-1.72-3.07-5.29-5.78-8.86a71.17,71.17,0,0,1-4.8-6.51c-.24-.62,1.72-4.43,2.71-5.42.37-.37,2.21-.37,3.32.25,5.41,3.44,9.47,8.12,12.67,11.81l1,1.1h-.12c.86.87,2.34,5.29,2.46,6.4.49,7.38.74,18,.74,28.66,0,11-.25,22.63-.74,32.72-.25,2.21-5.41,10.58-8.24,11.56-1,.37-4.8.49-6-.74-1-1.23,0-3.69,1.35-6.39a17.32,17.32,0,0,0,2-5.66C1182.52,400.22,1182.65,395.06,1182.65,389.89Z"/><path class="cls-2" d="M484.38,550.42a52.73,52.73,0,0,0,11.69-18.82c.86-2.33.61-3.93-.49-4.79-.37,0-2.59-.37-3-.37A24.05,24.05,0,0,1,490,526c-5.41-.62-7.13-.25-11.31-.25-.37,0-4.56-.62-5.05-.62-1.23,0-5.16-.49-5.66-2.58-.36-1.72.87-4.8,2.59-5.66h23.24c1.85,0,7.88.74,10,2.22a11.51,11.51,0,0,1,3.81,3.44c0,.86.74,1.48.37,4.31-.25,1.72-3.57,8.73-3.81,10.33,0,2-4.55,9-6.89,11.56-.86,1-8.12,10.58-9,11.32-1.6,1.47-3.32,3.32-4.43,4.18l-.74,1.84a6.17,6.17,0,0,1-6.52.74,6.8,6.8,0,0,1-1.84-1.23c-2.34-2.58-1.6-4.67,0-5.9C475.9,558.79,484.26,550.67,484.38,550.42Zm4.31,52.65c0-1.23.37-2.46,1.23-2.83,2.7-1.11,4.55,0,7.5,0,.37,0,1.23.37,1.6.37.49.37,9.59-.13,10.82-.37,1.73-.37.87-2.46.87-2.58a31.79,31.79,0,0,0-1.36-3.08c-1.11-4.67-1.11-5.41-2.58-11.69-.49-2-.86-3.93-2.46-5.16-3.69-.25-5.66.61-8.86-.74-.73,0-2.21-3.07-2.58-3.69-2.09-3.2.25-5.53,2.21-5.9.74-.13,3.82.24,6.89.37l4.55.24h9.6c1,0,8-1.23,8.73-1.23,10.46-.86,11.44-1.11,22.51-2.95a51,51,0,0,1,5.17-.86c1,0,2.46,1.72,3,2.58.86,1.35,0,5.41-3,6.64-.74.25-2.22,1-2.22,1-3.93.61-4.67.37-7.87,1.23-1.11.24-.37,6.64-.37,9.71,0,5.66-.37,7.51-1.23,13.9,1.6,1.6,10.21-.61,12.42-.36.62,0,5-1.73,6-1.73,1.48,0,4.68-.86,6.15,0,.49.25,1.6,4.55.74,6.65-1.11,2.7-2.71,3.93-3.94,3.93-.74,0-5.53.86-6.39.86-10.21,0-18.7.13-28.42,2.59-.36,0-2.09.36-2.58.36-9.84,0-22.88.25-31.36-.36C489.92,610.2,488.69,606.51,488.69,603.07Zm39.6-3.2c.62,0,2.46-4.31,2.83-5.78,1.11-3.94.87-3.69,1.11-7.87,0-2.46-.74-4.06-1-7.88-.13-1.35-.37-2-2-2.21-2.46-.37-6.4,0-8.37,0-.86,0-4.3.61-5.16,1.23-.49.49-.12,2.09.37,3.57.61,1.84,1.23,5.29,1.6,7.13.36,1.6,2.83,8.12,3.19,11.19C521.16,601.1,525.47,599.87,528.29,599.87Zm10-56c0-.37.37-1.6.37-2,.24-3.2-.37-7.14-.37-10A121.55,121.55,0,0,0,537,517.7c-.62-3.93-5.78-10.33-7.75-11.93-1.85-1.35-4.18-2.83-5.17-4.79-.37-.62,0-2.22.74-3.57,1.6-3,2.95-2.46,5.17-1.6.49.25,3.32.74,5,2.58,3.44,3.57,6.76,5.29,9,9.35,3,5.17,3.57,11.56,3.57,17.71,0,.86,1.22,8.49,1.59,10v14.26c0,.37-.49,1.6-.49,2v7c-.61,1.73-2.21,3.69-3.93,3.94-.62,0-3.32.12-3.94,0-1.48-.25-2.21-.12-2.58-1C537.27,559.16,538.38,542.43,538.26,543.9Z"/><path class="cls-2" d="M566.18,555.34c.86-1.47,2.21-1.6,3.93-1.35a16,16,0,0,1,2.22.49c4.18,1.11,13.28,3.81,20.17,3.81,21.77,0,45-3.19,53.75-4.3a26.68,26.68,0,0,1,2.71-.37l1.23-.12c1.23-.13,2.82,0,3.44,1.35.37.62-.25,5.41-.62,6.4a3.8,3.8,0,0,1-3.81,2.46c-.86,0-13.4.73-21.52,1.72-.25,0-2.09.12-4.06.37-7.63.86-23.74,2.46-33.46,2.46-1.47,0-3.32,0-4.43-.12-5.53-.5-17.09-3.57-18.57-5v.12c-1.11-1-2.46-2.21-2.09-3.56A10.05,10.05,0,0,1,566.18,555.34Zm20.78,30a9.09,9.09,0,0,1-.12-3.32c.37-2.09,1.6-2.7,8.36-2.7a2.42,2.42,0,0,1,2.1,1.23,5,5,0,0,1,.49,1.1c0,.37,1.47,9.11,4.55,13.17a12.67,12.67,0,0,0,4.3,3.07,29.78,29.78,0,0,0,5.54.49,32.14,32.14,0,0,0,5.78-.49c.74,0,9.35-1.11,12.92-4.06a7,7,0,0,0,1.22-1.47,2.84,2.84,0,0,1,3.57-1.48c2.46.62,4.55,3.69,4.43,4.18a14.85,14.85,0,0,1-5.17,8.37c-2.21,2-8.73,3.32-13.28,4.18l-3.69.74a9.77,9.77,0,0,1-1.23.12c-1.84.12-5.41.37-8.24.37a28.11,28.11,0,0,1-5.29-.49,20.16,20.16,0,0,1-10.7-7.88C589.91,596.55,587,590.27,587,585.35Zm4.31-69.49c2-4.06,7.38-8,11.81-9.84a22.65,22.65,0,0,1,4.67-.37c4.92,0,11.69,1,15.13,3.08,2.83,2,6,4.42,6.89,8a30.53,30.53,0,0,1,.37,5.41,70.92,70.92,0,0,1-.37,7.75c-.25,4.43-10.21,16.85-26.2,14.88-4.8-.61-13.9-6.76-14.51-14.88A30.26,30.26,0,0,1,591.27,515.86Zm14.27-.25a10.33,10.33,0,0,0-6.77,9.47,15,15,0,0,0,1.23,5.66c1.72,4.18,6,7.14,10.33,5.66,1.36-.37,7.14-2.71,9.11-6.76,0-.25.24-.62.24-.87a22.32,22.32,0,0,0,1-5.28,11.26,11.26,0,0,0-3.94-7.75,6.58,6.58,0,0,0-4.06-1.48,20.62,20.62,0,0,0-5,.86Z"/><path class="cls-2" d="M727.43,597.78c0-7.14,2.46-12.43,10-17.47a20.83,20.83,0,0,1,3.69-1.72c-.25-3.94-.37-8.36-.74-12.18-.24-1.72-.74-4.92-2.83-4.79-10.21.61-18.82,0-29,0-.5,0-5.29-.37-7.51-2.83-1.35-1.48-2-5,0-6.4,1.48-1,28.29,0,34.81,0,17.47,0,33-3.69,49.94-4.67.86,0,1.72,1.1,1.84,1.84.25,1.48,1.36,7.38-2.83,7.38-4.55,0-24.1,2.34-32.22,3.81a2.08,2.08,0,0,0-2.09,2.1c-.12,2.82.24,1.1.86,12.79a4.83,4.83,0,0,1-.37,1.84,52.63,52.63,0,0,1,6.27.62c3.69.74,10.21,8.12,11.07,11.68a16.16,16.16,0,0,1,.62,4.8c0,8.49-6,17-11.69,20.42A20.94,20.94,0,0,1,747,617.34a19.13,19.13,0,0,1-9.84-2.34c-3.32-1.72-8.85-7-9.1-10.58A44.27,44.27,0,0,1,727.43,597.78Zm-11.94-84.5c-.36,0-2.82-1.48-2.82-2.09,0-1.11-1.48-3.94-.74-5.17s6.64-2.58,8-2.58c8.61,0,15.87-1.36,21.65-2.22,2.71-.37,11.81-1,16.36-2.21,4.31-1.23,10.58-2.71,12.92-2.46a1.94,1.94,0,0,1,1.23,1c.37.62-.25,6.15-.62,6.77s-1.6,2.09-2.46,2.09-9.22.49-10.45,1c3.56,3.82,5.16,6.89,4.67,11.07-.37,3.32-.74,8.74-1.48,11.93,5.29,0,10.21-.86,9.72,2.22a20.54,20.54,0,0,1-.37,3.2c-.86,3.19-4.18,3.44-6.27,3.81-8.49,1.35-16.85.12-25.83,1-4.06.37-16.73,3.94-22.14,2.83-1.85-.37-1.11-2.83-1.11-4.67a3.56,3.56,0,0,1,1.72-2.59,59.78,59.78,0,0,1,13.29-2.33,2,2,0,0,0,1.35-1.23c0-2.34.86-.13-1.35-6.52a43.12,43.12,0,0,0-2.46-6.64c-.62-1.11,3.2-6,5.66-5.29a12.45,12.45,0,0,1,2.21,2.21A63.19,63.19,0,0,1,740,528.16a6.73,6.73,0,0,0,3.2,4.18c5.54,0,7.14-.86,7.14-.86,1.72-1.23,2.58-5.66,2.58-7.87a40.25,40.25,0,0,0-1.72-13.53c-.13-.49-.86-.86-1.6-.86-3.08,0-9.1,1.6-15.13,2.09C727.18,511.92,722.75,513.28,715.49,513.28Zm28.54,94a15,15,0,0,0,4.68.74,6.76,6.76,0,0,0,3.44-.74c5.29-2.83,6.52-8.36,6.89-10.46.86-7.5-4.06-10.33-7.75-10a6.46,6.46,0,0,0-4.06,1.6,11.35,11.35,0,0,1-3.94,2.09l-1,.37c-3.2,1-4.55,1.35-5.29,3.44C735.42,598.39,737.88,605.53,744,607.25Z"/><path class="cls-2" d="M804.18,570.35c0-12.67-3.57-21.53-5.41-27.55-1-3.2-3.7-5.54-6.28-9-1.6-2.22,2-4.8,4.92-5.17,4.31-.49,7.75,4.68,9.72,8.61,1.23,2.46,6.89-1.84,8.49-2.21a80.68,80.68,0,0,1,24.72-3.32c1.6,0,3.57,1.84,4.06,2.7,3,5.17,2.21,30,0,38.63-.49,2-3.08,3.93-4.06,3.81-9.6,0-19.31,2-29,2-2.21,0-7.13,1-7.13-1.6Zm12.05-.74c5.54-.12,8-.37,13.41-.49,1.72,0,6-1.85,6.27-5.41.62-9.11.12-17.84-.49-19.44-2-5-11.44-.86-13.65-.49a63.78,63.78,0,0,0-11.2,3.81c1.23,3.69,3,16.36,3,20.3C813.53,570.23,815.62,569.36,816.23,569.61Zm53.63,6.15c0-13.78.25-23.74.74-38.13,0-1.72-1.6-13-3.57-16.11-3.44-5.29-10.45-9.47-10.45-14.89,0-2.09.12-4.67,2.83-5.16a10.93,10.93,0,0,1,3.32.49c9.71,4.06,17.09,20.66,17.71,27.06.61,6.15.86,30.63-.49,40.84-.13,1.23,0,18.2-1.11,31.73-.12,1-3.2,5.17-3.81,5.54-3,1.72-6,1-6.15-1.48C868.51,597,869.49,585.72,869.86,575.76Z"/><path class="cls-3" d="M897,577.36a14.15,14.15,0,0,1,5.66-4.18l1.11-.49c5.9-3.94,13.65-14.89,14.88-18.21,1.6-2.09,4.8-9.1,5.9-14.76.37-1.47,0-2.46-1.35-2.7-3.57-.74-19.31-1-27.31-.13-.49,0-2.33-.12-2.58-1.1,0-.25-.25-.37-.25-.62a13.54,13.54,0,0,1-.12-3.81v.12a4,4,0,0,1,3.45-2.83c4.55-.49,10.21-1,15.74-1.35,7.13-.37,14-.74,17.22-.37,2.58.49,5.78,5,6.27,6.76a7.26,7.26,0,0,1,.37,3.2V538a46.56,46.56,0,0,1-3.93,13.28,78.45,78.45,0,0,1-24.11,31,10.37,10.37,0,0,1-8.12,1.35C898.64,583.39,895.44,579.57,897,577.36Zm56,9.35c.86-10.46,1.72-20.91,2.09-31.37.24-8.12.49-18.57.49-26.32,0-3.32,0-6.52-.12-9.1,0-2-5.66-9.84-7.88-12.67-1-1.35-2.09-2.83.13-4.92,1.6-1.35,3.69-1.35,6.64-.12.74.61,2.46,2.33,4.18,4.05a24.14,24.14,0,0,1,5.91,8.62c1.84,5.28,1.84,10.82,1.84,16.11,0,3.07-.49,15.37-.74,16.11-.49,1.85.37,2.46.86,2.46h11c2.21,0,5.17-.24,7.63-.49,2.21-.25,4.79-.49,6.51-.49a3.53,3.53,0,0,1,2.59,2.58V551c.37.86.12,3.2,0,4.3-.37,2.59-5,3.57-5.41,3.57-7.51,0-12.43.12-15.75.12h-3.81l-2.83.13c-.74-.13-.86,1.1-1,1.84-.49,4.67-.74,12.06-1,19.19s-.37,14.27-.86,19.43c-.12,2.59-2.09,5.66-3.56,5.66h-5.54c-.74,0-3-1.6-2.58-2.58Z"/><path class="cls-3" d="M423.62,756c1.36,1.73,9.23,6,10.58,6.15,17.22,2.22,45.88-1,53.14-1a14,14,0,0,0,7.62-2.21,7.36,7.36,0,0,1,7.38,0c.86.49,1.73,4.06,1.73,4.92,0,2.83-2.83,3.93-5.17,4.67-7.38,2.34-27.43,3.69-37.89,3.69-4.67,0-13.65.25-16,.25-2.7,0-5.65.37-8.48.37-4.18,0-16.61-5.05-19.93-9.11-2.7-3.32-2.21-4.79-1.35-6a10.35,10.35,0,0,1,1.84-2.22C418.33,754.5,422.27,754.25,423.62,756Zm4.92-55.35c-1.47-2.09.12-3.44,1.48-4.55a16.43,16.43,0,0,1,4.8-1c1.1,0,3.81,2.71,4.3,3.57,1.72,3.32,4.18,5.53,5.78,15.49a64,64,0,0,1,.25,9.48c-.25,2.58,5.29,2.33,7.5,2.33a36,36,0,0,1,4.06-.74c1.85,0,10.82-1.47,13.28-1.47,1,0,5.66-2.09,6.4-2.46,2-.86,3.2-.62,5.9.61,1.23.5,2.1,5.29.74,7.26-2.7,4.06-14.51,5.54-20.17,6a113.38,113.38,0,0,1-25.46,1.35c-.49,0-3.57-.61-3.45-4.55,0,0,.37-8.49,1-12.79C435.31,716.86,433.59,708.25,428.54,700.62Z"/><path class="cls-3" d="M512.67,742.2c3.08-2.22,6.15-6.15,9.11-10.7A75.49,75.49,0,0,0,526,724a3.91,3.91,0,0,0-2.09-5.65c-2.22-.86-13.78-4.43-17.1-6-.86-.37-1.72-1.72-2.09-2.21s-.37-5.91.24-6.65a3.78,3.78,0,0,1,4.06-1c1.48.74,9,2.83,12.43,3.81,1.6.49,8.73,2.71,10.21,3.45,2.7,1.23,4.67,4.55,5.29,5.41,1.23,1.72.61,5.29.36,6.27s-3.32,7.5-3.81,9c-2.09,5-7.5,12.55-10.7,16-1.48,1.6-3.2,3.2-4.68,4.92-1.35,1.35-5.9.62-6.51.37-.86-.37-2.09-1.11-2.09-4.18C509.48,746.63,511.44,743.18,512.67,742.2Zm26.2,5.29a25,25,0,0,1,2.71-1.23c2.83-.62,8.73-10.09,10.21-12.67a79,79,0,0,0,4.3-10.46c.25-.73.25-2.83-.86-3.56a14,14,0,0,0-6.76-3c-1.11,0-7.38-.49-8.49-.49-.74,0-2.34-2.46-2.34-2.83.25-1.84.5-4.3,1.85-5.53.86-1,9.35-.37,12.17-.37,4.31,0,8.61-.49,12.31,2.09,1,.74,2,3.81,2.33,7.38a2.37,2.37,0,0,1,1.48-.49h8.85c1.36,0,14.52-2.71,14.52-3.94,0-7.5-.49-18.2-4.18-23-.62-.74-5.17-3.69-5.54-4.06-1.35-1.6.25-6.76,4.18-7.13.13,0,3.45.24,4.19.74,2.45,1.72,8.85,8.48,10.45,14.63,1.48,5.78.49,22.27.49,24.48,0,1.48-.86,11.19-2.83,35.3,0,.74-1.47,14-1.47,14.15-.74,6.89-2.09,16.48-8,15.5-1.72-.25-4.92-1.6-5.29-3-.24-.73,1-5.29,1.36-6a35,35,0,0,0,1.59-5.54c.74-2.95,1.73-10.58,2.59-18.57,0,0,.24-2.46-1.6-2.59s-4.92.5-6.89.5-11.19.24-15.87.24c-1.72,0-3-1.23-3-4.55,0-2.09,3.45-4.18,5.17-4.18h14c6.64,0,7.13-2,7.38-2.21,1.72-1.73,2.71-8.74,2.71-10.95,0-2-.25-2.46-2.22-2.83-1.11-.25-13,2.21-14.63,2.46a53.73,53.73,0,0,1-7.63-.12c-.37,3.44-10.09,23.37-19.68,29.27-.49.37-4.43.25-5.29,0-.37-.12-2.83-.86-3.07-1.6C537.52,751.42,537.27,749.21,538.87,747.49Z"/><path class="cls-3" d="M615.5,754.74c.61-1.47,2.21-4.42,4.43-4.42a16,16,0,0,0,3.32-1,19.83,19.83,0,0,0,6-3.69L633,742c2.7-2.58,5.28-4.92,5.9-6,.62-.62,6.27-8.37,6.89-9.23,1.72-2.34,5.53-8.61,6.64-10.58.12-.12.25-.49.25-.37.24-.49-.74-.86-1.6-.86l-20,2.71-3.2.74h.12a19.37,19.37,0,0,1-5.53.86,6,6,0,0,1-3.94-2c-1-.74-4.55-4.18-1.47-7.26.86-.86,3.56-.86,5.28-.86h.5c2,0,5.9-.49,31.61-4.43a18.74,18.74,0,0,0,5.16-1.35,11.59,11.59,0,0,1,5.05,0c2,1.11,3.07,1.72,3.07,5.17,0,1.47-1.84,5.41-3.57,8.11a5,5,0,0,0-1.1,2.1L661.75,721c-.74,1.23-1.6,2.59-5.17,9.23-.74,1.23-1,2.09-.74,2.33v-.12c1.85,1.6,3.57,3.32,4.92,4.68l1.23,1.1h-.12c1.48,1.72,3.81,4.31,5.41,4.55,2.59,2,4.31,3.45,5.29,5.29a4.71,4.71,0,0,1-.12,1.23c0,.25-.13.49-.13.74l-.24,1.48c-.37,1-2.58,2.7-3.2,3.07-3,1-5.78-1.11-7.75-3.32l-3.07-2.95c-1.85-1.85-3.32-3.32-4.55-4.43-3.2-3.07-4.19-3.94-4.8-3.94a45.3,45.3,0,0,0-4.67,4.19h.12a94.17,94.17,0,0,1-8.61,8.48l-2.34,2.22a41.61,41.61,0,0,1-8,5.16,13.64,13.64,0,0,1-5.91.13C617.1,759.3,614.51,757.33,615.5,754.74Zm69.74,16.86,1-8.12,1.23-9.84a58.23,58.23,0,0,1,.61-8,20.82,20.82,0,0,1,.49-3.81,19.94,19.94,0,0,0,.49-3.94c1-14.14,1-20.54,1-31.36a25,25,0,0,0-3.32-8.24l-5.29-6.89c-.37-.86-1.36-3.2-.49-5.17s3.81-3.44,5.9-2.33a51.39,51.39,0,0,1,11.68,13,15.75,15.75,0,0,1,1.85,6.65c0,10.21.25,15.13,0,20.66-.12,2.46-.25,4.67-.25,6.52s-.12,3.44-.12,4.43a49.14,49.14,0,0,1-.49,5.9,51.81,51.81,0,0,0-.49,5.78,72.88,72.88,0,0,1-.62,7.51c0,.73-.24,1.47-.24,2.21l-.13,1.23a2.44,2.44,0,0,0-.12.86,65.9,65.9,0,0,0-1,11.19,70.27,70.27,0,0,1-.62,8.12c-.74,2.71-4.55,2.71-6.64,2.71-1.6,0-5.17-3.69-4.55-8.37A2.19,2.19,0,0,1,685.24,771.6Z"/><path class="cls-3" d="M711.93,734.2c.49-2,4.06-3.56,5.78-3.56a53.41,53.41,0,0,1,8.73.86,106.87,106.87,0,0,0,16.86,1c9.59,0,15.37-.37,24.23-.86,8.12-.49,14.51-2.34,21.52-3.57a93.9,93.9,0,0,1,10-1.35,1.42,1.42,0,0,1,1.23.25c.5.49.87,1.72.62,3.93a5.82,5.82,0,0,1-3.08,4.43c-4.92,2.58-25,5.54-34.19,6-4.8.24-5.41.24-10.09.24-4.92,0-10,0-14.88-.12-4.43-.12-5.78-.12-10.21-.12-1,0-14.64-.49-16.36-3.2C711.32,737,711.56,735.68,711.93,734.2Zm21.89-29.76a16.85,16.85,0,0,0,.86-6,26.31,26.31,0,0,0-.36-4.67c0-.74-1-2.59-2.09-4.43a23.93,23.93,0,0,1-1.85-3.45v-.12l-.49-1.23c-.62-1.47-1.35-3.69-1.11-4.06.37-.74,3-1.1,5.54-1.1a12.19,12.19,0,0,1,4.06.49c1.35.74,5.41,8.61,6,12.54.37,2.34,1.11,10.83,1.11,13.29a1.21,1.21,0,0,0,1.23,1.23,76.13,76.13,0,0,0,9.1-.25c1.23-.12,3.94-.12,4.8-.12,1.84-.37,4.18-.62,6.15-.86,3.69-.49,7.87-.86,11.56-1.72,1.6,0,3.69,1.35,3.81,2.7v2.46c0,1.48-1.84,3.57-4.55,4.92s-11.31,2-17.71,2.46c-2.58.12-4.8.37-6.15.49-1.6,0-16.48-.12-20-3.32a4.38,4.38,0,0,1-1.35-3.56A11.69,11.69,0,0,1,733.82,704.44Zm-3.19,56.82a5.57,5.57,0,0,1-.25-3.44c1.35-4.06,4.06-5.29,7.38-3.81.74.37,1.35,1.72,2.09,3.44a98.82,98.82,0,0,0,8.37,14.76c1.84,2.46,4.18,4.8,6.88,5.29a41,41,0,0,0,7.51.74,30.36,30.36,0,0,0,6.88-.74c4.43-1,9.11-3.32,11.32-5.41a23.41,23.41,0,0,0,4.18.74c1.85.37,2.22,3.69,2.22,3.69,0,2.33-1.23,3.56-2.34,4.67-6.4,6.4-15.38,8-22.76,8a51.9,51.9,0,0,1-6.27-.36,20.34,20.34,0,0,1-9-3.57c-6-4.18-14.27-16.48-16.23-24.11Z"/><path class="cls-3" d="M881.05,728.79v-.12c.25-2.95,1.11-5.54-1-7.26A24.71,24.71,0,0,0,867.89,715c-1.48-.37-10.7-.5-12.79-1.36-.62,0-1-.86-1-.86,0-.49-.37-4.8.62-6.27.61-.86,11.56-.86,15.62-.49,5,.49,12.42,3.93,15.25,6.88,1.36,1.36,6.28,5.42,6.89,7.88,1,4.3.49,9.34-3.57,16.85-5.41,9.35-11.8,20.66-19.06,26.2-1.11.86-8.49,4.55-10.09,1.84-.24-.49-1-.61-1.11-1.1-.73-3-2.33-5.54-.61-6.28,5.41-2.34,11.07-8.12,12.18-9.47a80.69,80.69,0,0,0,6.27-10.33c-4.3-.37-16.24.12-16.11-.12-1.11,0-3.2.61-5,.61-2.09,0-6.39,1.11-7.5-1,0-2.34-1.1-3.94.74-5.91,2.58-2.7,12.67-2.33,16.48-2.33,1,0,2.71.36,3.94.36.49,0,10.7-1.59,11.31-1.1A1.71,1.71,0,0,1,881.05,728.79Zm40.1,35.92c0-10.83.74-17.47.37-28.54-4.43-.49-19.31,4.68-25.09,2.58-.74-.24-1-1.23-1.48-1.84,0-.37-.61-4.55,0-4.8,8.37-2.46,21.53-3.07,26.94-7.25,0-3.69.74-7.26.61-12.43a53.09,53.09,0,0,0-1-9c-1.23-4.3-7.5-11.8-9-15.25-1.11-2.46.62-5.29,2.71-6.39a3.48,3.48,0,0,1,3.19.36c2.34,2.22,10.34,13.41,11.57,15.38a9.34,9.34,0,0,1,1.23,3.07c1.84,29.65,0,44.16-1.23,68.27,0,1.11.24,9.72,0,10.46a7.41,7.41,0,0,1-3.82,3.93c-1.72,1-5.9-.37-5.9-1.72C920.17,775.9,920.9,770.37,921.15,764.71Z"/><path class="cls-3" d="M999,708.13c-8.12,2.09-23.5,4.06-34.56,5a20.25,20.25,0,0,1-3.82.25,31.8,31.8,0,0,1-4.55-.25c-.61-.12-4.43-.74-5.66-3.07-.86-1.36-.61-5.91.86-6.28a14.14,14.14,0,0,1,3.57-.37c2,0,4.06.25,6,.37a33.07,33.07,0,0,0,5.66.25c6.88-1,17.83-1.85,26.69-4.18l1.35-.62a29.26,29.26,0,0,1,3.94-1.11c1.35-.12,4.55,0,5.78,1.11a7.4,7.4,0,0,1,0,4.8c-.86,1.6-2.09,3.44-3.08,3.57Zm-29.4,13.4c1.48,2.22,5.17,15,5.17,16.73a5.74,5.74,0,0,0,.12,1.23c.12,1.48,1.35,2.46,1.35,4.8,0,1.72.86,3.2.62,4.55a22.07,22.07,0,0,0,6.52-.86c1.23-3.2,3.19-9,3.19-14.15,0-8.85-.49-10.57-1.59-13.53-.25-.73.24-1,.86-2.21.73-1,5.9-1,7.25-1s2.22,6.64,2.83,8.73c.25,1.11,1.23,12.91-.49,21.28l-.12.49c-.49,2.09-.49,2.09.49,2.34l18.94,2.46c1.48,0,1.48,3.56,1.23,5.41,0,.12-1.6,3.81-3,3.57s-22.63-2.71-34.69-1.48c-11.31,1.23-22.87,2.21-25.83,2.21-.86,0-2.09,0-2.09-1.23a2.45,2.45,0,0,1-.12-.61c-.25-1.11-.49-3.57.12-4.55.86-1.23,2-2.46,3.82-2.46a75.07,75.07,0,0,0,9.1-2.09l1.23-.37a13.47,13.47,0,0,0,2.34-.86c-1.85-7.87-2.59-16.36-6.16-24.6-.49-1,0-2.71,2-3.94C966.17,719.44,968.5,720.18,969.61,721.53Zm55.84-10.45v-7.63c0-1.1-3.19-7.38-4.79-9l-1-.86c-2.83-2.58-6.52-5.9-7.75-7.38a1.19,1.19,0,0,1-.12-.37,2.83,2.83,0,0,1,.12-2.21c1.11-2,4.8-4.8,7.63-3.44a32.55,32.55,0,0,1,7.13,6l2.22,2.34c.49.49,1,1.23,1.6,1.85,2.09,2.09,4.42,4.79,4.79,6.88a74.5,74.5,0,0,1,.5,9c0,3.32-.13,6.52-.25,9.84-.62,16.12-.12,25.22-.49,42.19-.13,3.94-.25,10.33-.25,14.76,0,1.85-2.58,8.12-6.15,8.12h-4.55c-1.11,0-1.35-.86-1.35-1.6C1024.22,759.91,1025.45,732.6,1025.45,711.08Z"/></g></g></svg>