<svg xmlns="http://www.w3.org/2000/svg" viewBox="0 0 1530.32 1198.04"><defs><style>.cls-1{fill:#f7a512;}.cls-2{fill:#a53813;}.cls-3{fill:#fff;}</style></defs><title>Asset 21</title><g id="Layer_2" data-name="Layer 2"><g id="Layer_1-2" data-name="Layer 1"><path class="cls-1" d="M1134.42,89.61S980.46-7.62,939.94.48C877.89,12.89,753.58,73.41,753.58,73.41S615.83.48,551,16.69C470.07,36.92,380.84,146.33,380.84,146.33S196.91,157.47,154,211.16c-32.42,40.51-48.62,210.67-48.62,210.67S0,515.13,0,592c0,72.92,113.44,170.16,113.44,170.16s43,147.09,105.34,178.26c48.62,24.31,186.37,32.42,186.37,32.42S518,1078.17,575.31,1078.17c48.62,0,170.16-64.82,170.16-64.82s179.64,225.14,210.68,178.27,0-202.58,0-202.58,145.85,48.62,194.47,40.52,121.55-129.65,121.55-129.65,170.16-32.41,194.47-64.82,8.1-210.68,8.1-210.68,63-145.85,54.86-186.37S1379,300.11,1379,300.11s-25.82-129.47-64.09-181.25S1134.42,89.61,1134.42,89.61Z"/><path class="cls-2" d="M532.62,352.37c1-2.21,6-1.1,8.24-.61,11.44,2.21,22.76.74,31.37.74a2.53,2.53,0,0,0,1.84-1.85,112,112,0,0,0,1.85-12.91c0-.62,1.47-4.06,2.7-4.56.86-.36,5.91-1,6,0,.74,8.37-.12,11.32-.12,16.86a.87.87,0,0,0,.86,1c13.28,0,20.66-.74,31.12-1.11,1.1,0,5.41-.61,6.39.37.74.74.49,4.43,0,4.92a10.69,10.69,0,0,1-7.38,3.69c-30.87,2.83-47.48,3.94-62.73,3.08-3.69-.25-15.74-1.85-19.56-3.08C532.13,358.52,531.88,354.09,532.62,352.37Zm11.93-14.88c11.56-4.43,28.66-20.42,33.83-27.18.37-.5.37-1.6-1-1.85a19.36,19.36,0,0,0-6,0c-2.22.25-5.91,1.85-9.11,1.85-1.23,0-5.53-2.83-6.39-4.06-1.6-2.22,1.47-4.19,1.47-4.19,9.72-.12,23.62-4.79,33.58-2.82,1.72.36,2.22,4.67,2.09,5.65-.61,2.71-2.33,6.4-7.62,12.18,7.62,1,21.89,6.52,26.32,12.05.37.5,0,2.71,0,2.83,0,2.59-5.54,4.56-6.15,3.94-9.23-9.35-18.45-9.59-27.55-10.82-2.83,3.07-15.62,13.9-28.29,19.18-1.23.5-5.41,1.73-5.54,0C544.06,342.78,543.32,338.72,544.55,337.49Zm5.17,47c3.56-.62,24.11-1.6,28.66-1.85a222.74,222.74,0,0,1,25.58,0c.62,0,1.72.37,1.85,1,.61,2.34.24,7.88-2.71,7.88H579.24c-3.82,0-23.62.86-27.31.86-1,0-3.57-1.11-3.81-1.85C547,387.8,548.36,384.72,549.72,384.48Zm14.39-16.86c.12-1.84,4.3-2.09,7.87-.36s13.41,2.21,17.34,2.21c1.6,0,5.17.74,5.54,3.2.24,1.47-.12,4.55-1.23,5-5.17,2.34-18.57-.61-23.49-2.71C568.78,374.39,563.74,372.3,564.11,367.62Zm3.69,40.84c.37-4.18,5.78-10,9.72-11.68,8.73-3.82,18.57.61,23.37,9.84,2,3.93,1.84,8.85.61,13.53-1.6,5.78-11.93,10.45-13.9,10.7-6.27.86-12.3-.74-13.16-1.6C566.08,421.25,567.06,415.72,567.8,408.46Zm12.42,12.3a8.85,8.85,0,0,0,8.86.12c6.64-5,3.69-12.67-1.6-15.49-1.72-1-9.23.61-10.46,5.28C575.79,416.21,577,419,580.22,420.76Z"/><path class="cls-2" d="M627.21,363c.86-1.48,2.21-1.6,3.93-1.35a14.88,14.88,0,0,1,2.22.49c4.18,1.11,13.28,3.81,20.17,3.81,21.77,0,45-3.2,53.75-4.3a26.68,26.68,0,0,1,2.71-.37l1.23-.12c1.23-.13,2.82,0,3.44,1.35.37.61-.25,5.41-.62,6.39a3.79,3.79,0,0,1-3.81,2.46c-.86,0-13.41.74-21.52,1.73-.25,0-2.09.12-4.06.37-7.63.86-23.74,2.46-33.46,2.46-1.47,0-3.32,0-4.43-.13-5.53-.49-17.09-3.56-18.57-5v.12c-1.11-1-2.46-2.21-2.09-3.56A10,10,0,0,1,627.21,363ZM648,393a9.11,9.11,0,0,1-.12-3.32c.37-2.09,1.6-2.7,8.36-2.7a2.37,2.37,0,0,1,2.09,1.23,4.31,4.31,0,0,1,.5,1.1c0,.37,1.47,9.1,4.55,13.16a12.7,12.7,0,0,0,4.3,3.08,29.78,29.78,0,0,0,5.54.49,33.09,33.09,0,0,0,5.78-.49c.74,0,9.35-1.11,12.91-4.06a7,7,0,0,0,1.23-1.48,2.85,2.85,0,0,1,3.57-1.47c2.46.61,4.55,3.69,4.43,4.18A14.84,14.84,0,0,1,696,411c-2.21,2-8.73,3.33-13.28,4.19L679,416a9,9,0,0,1-1.23.13c-1.85.12-5.41.37-8.24.37a27.16,27.16,0,0,1-5.29-.5,20.07,20.07,0,0,1-10.7-7.87C650.94,404.16,648,397.88,648,393Zm4.31-69.49c2-4.06,7.38-8,11.81-9.84a22.65,22.65,0,0,1,4.67-.37c4.92,0,11.69,1,15.13,3.07,2.83,2,6,4.43,6.89,8a30.53,30.53,0,0,1,.37,5.41,71.05,71.05,0,0,1-.37,7.75c-.25,4.43-10.21,16.85-26.2,14.88-4.8-.61-13.9-6.76-14.52-14.88A30.39,30.39,0,0,1,652.3,323.47Zm14.27-.25a10.33,10.33,0,0,0-6.77,9.47,15,15,0,0,0,1.23,5.66c1.72,4.18,6,7.13,10.33,5.66,1.36-.37,7.14-2.71,9.11-6.77,0-.24.24-.61.24-.86a22.31,22.31,0,0,0,1-5.29,11.3,11.3,0,0,0-3.94-7.75,6.63,6.63,0,0,0-4.06-1.47,20.62,20.62,0,0,0-5,.86Z"/><path class="cls-2" d="M780,388.17c.86-2,2-6.52,2.71-9.11.61-2.09,1.1-8.73,1.1-11.8-.12-.5-.12-1-.61-1.11-6.15,0-10,.37-16.36-2.09-.74,0-3.2-1.85-4.06-3.08-.49-.74-.49-4.92,0-5.9.24-.62,1.35-.74,2.09-1,1.35-.61,4.06-1.59,5.78,0,5,5.29,21.28,2.1,27.92,2.1.37,0,5.29-.87,5.54-.87,2.46,0,20.54-3.32,22.14-4.92,1-.49,3.2-.73,3.44,0,.62,1.36,2.09,5.05,1.72,6a5.2,5.2,0,0,1-3.69,4.55,131.25,131.25,0,0,1-17.83,2.83l-15.13,1.35c-.49,0-.86.25-1,1,.12,3.44-2.71,20.54-3.33,24.6-.73,2.83-4.79,3.57-6.76,3.57-2.22,0-3.69-.62-3.69-3.08C780,390.26,779.6,389,780,388.17Zm8-77.37c4.68-2.09,13.66-2.22,18.21,1.11,10.33,6.88,7.75,22.38,5.66,26.81-3.45,7.26-13,10.33-20.79,9.22-4.18-.49-13-5.53-14.88-12.54C773.94,327,777,315.6,788,310.8Zm6,27.8c11.81,0,11.93-9.72,10.7-14-.49-1.23-1.72-5.41-5.66-5.78-4.67-.24-8.73-.73-11.93,3a5.23,5.23,0,0,0-1,2.82c-.12,1.73-2.09,1.73-1.85,4.06C784.64,332.08,786.49,338.6,794,338.6Zm44,39.6c-.37-1.23-1.48-1.23-2.83-1.23s-8.61,2.83-14,3.45c-7,.73-14-.74-20.91-.74-.61,0-1.35-1.23-1.35-2.09,0-3.2,2.58-6.28,5.41-6.15,4.68.24,10.46.24,16.36.24,5.41,0,15.75-3.32,18-4.42a7,7,0,0,0,.86-1.6c0-3.94,2.09-15.26,2.09-17.72,0-2,.49-7.74,1.85-22.38.24-2.95-2.46-8.12-3.94-11.69-1.72-2.33-5.16-4.42-5.9-8-.12-.49,2.46-5.05,4.06-4.8a7.49,7.49,0,0,1,2.58.25c2.09.12,8.24,8.36,9.47,9.47.62.61,2.83,7.13,2.95,7.75.74,6.27,0,9.84,0,14.88,0,11.07-2.95,22.88-2.95,34.07,0,1.48-1.35,16.61-3.07,20.67-.87,1.35-5.79,3.56-7.14,3.44-2-.12-3.32-2.21-3-3.44A77.8,77.8,0,0,0,838,378.2Zm-37,18.94c.25-1,3-2.21,4.31-2.82a2.35,2.35,0,0,1,3.32,1c.49,1.23,5.66,13.16,5.78,12.91,3.32,5.91,9.47,4.92,11.07,5.17,5.41.74,11.19-2.34,13.78-3.69.24-.12,1.59-2.09,2-2.09.86-1.35,7.38-.86,7.38,0l.37.74c.62,2.83,1.48,6.15,0,7.38-2.83,2.33-9.35,3.81-14.51,5.66-1.11.49-8.24,1.47-11.32,1.47-1.47,0-10.82-2-13-4.06-.73-.86-5.53-5.66-6.27-7.87C803,408,800.26,399.48,801,397.14Z"/><path class="cls-2" d="M865.45,398.87c4.19-1.48,10.7-2.09,16-2.95,2.34-.37,5-.74,5.54-2.83.37-1.73,1-1.73.49-7.38-1-2.59-2.09-9.48-.49-10.21.61-.25,4.55-1.48,5.53-.86a11.39,11.39,0,0,1,3,4.05c1.72,5.29,1.72,9.84,2.33,13.78.37,1.48,6.64.62,8.37.12,3.19-.86,2.83-2.83,2.83-2.83a28.82,28.82,0,0,0,1.35-8.24v-6.39c-.62-3.94,5.53-4.06,7.26-4.06s2.09,2,2.21,3.2c0,6.15-.25,8.85-.25,15,0,0-.36,1.11,3,1.6,2.82.37,6.64-.61,11.07-.61,4.92,0,12.91-1.48,17.34-1.48a4.68,4.68,0,0,1,2.58,1.48c1.72,2,.74,7,0,7.25-5.41,1.85-12.42,2.09-18.57,2.09-9.35,0-45,3.94-59,5.91l-4.06,1.23c-1.6,0-5.17,1.11-6.4-1.23C864.84,404.28,864.1,400,865.45,398.87ZM879,345.24c.25-1.6,2.59-4.55,4.31-4.8,1.35-.24,12.67-1.35,14.27-1.6,8.12-1.1,12.3-1.35,15.5-3.69.73-1,1.1-4.67.86-8-.13-1.11-.62-2.22-2.83-1.85l-5.66,1.48c-3.57.74-26.32,4.06-27.92,1.23-.62-1.11.49-5.29,1.47-6.27a31.59,31.59,0,0,1,4.31-.87c3.07-.24,11.44-1.23,12.67-1.23,4.8,0,11.68-2.95,15.86-2.95,1.48,0,5.17-.24,7.39.74,3.19,1.48,4.18,9.35,4.18,10.58.12,2.83.12,9.35-1,11.07-1.72,2.7-3.19,3.93-7.87,5.41-6.52,2.09-12.91,1.85-22.39,3.57a4.07,4.07,0,0,0-3.44,4.43c0,.36-.37,4.05,1.6,5.28s3.81,1.85,7.26,1.85c1.47,0,18.69-2.58,19.92-2.71a23.51,23.51,0,0,1,6.15.37,5.77,5.77,0,0,1,1.72,4.43c0,.74-1.47,2.71-2.09,2.71-6.39.49-17,3.69-24.23,3.81-10.08.25-15.37-.49-18.82-4.67S877.88,354.22,879,345.24Z"/><path class="cls-3" d="M958.93,397.39c-.12-1.47.86-1.84,2-1.84l.49-.13,23.62-.49h.49c2.34-.12,10.58-.25,10.83-3.81.12-1.36.36-8.37.24-10.33,0-.87-.12-1.6-.12-2.22a2.21,2.21,0,0,0-1.48-2.34c-1.84-.49-6.64-.73-9-1s-3.56-.49-5.65-.86c-1.11-.25-3.08-1.72-3.32-3.2-.25-2.46-.25-6.52-.25-9.35,0-2.09,0-4.18-.12-4.92-.37-.86-1.6-1.72-2.83-2.58A9.25,9.25,0,0,1,971,352c-.62-1.84,1.11-5.29,3-5.65l7-1c7.5-1.11,20.79-2.7,26.08-4.18a4.81,4.81,0,0,0,1.35-2.58c0-1.48-.25-11.69-1.35-11.69a28.41,28.41,0,0,0-10.21,1.23,23,23,0,0,1-4.68,1.23,56.54,56.54,0,0,1-11.07.86h-3.69c-1.47,0-2.82-.12-4.18-.12s-3.2-1.11-3.32-2.58c0-.25-.12-.74-.12-1.11-.13-1.85-.13-4.67,1.72-4.67a61,61,0,0,1,9.1.36,50,50,0,0,0,6.77-1.35l5.9-1.23c6.27-1.35,16.85-3.2,20.3-2.7,2.7.36,3.44,3.32,3.81,5,0,.12.12.24.12.37.86,5.66.86,17,.86,22.51v1.47c.25,2.34-2.83,4.18-4.18,4.31-2.21.37-4.43.49-7.26.74l-7.25.36c-.5,0-9.35,1.23-11.93,1.85-.87.49-1.48,5.29-1.36,10.58,0,.86,1.36,1.6,2,1.84a24.26,24.26,0,0,0,7.38.74c6.77,0,17.34-1.72,26.57-2.71,1.48-.12,2.83,0,3.2,1.85.12.86.37,3.57-1,4.92-1.6,1.6-7.25,2.71-11.81,3.57l-4,.73c-1.23.37-1.48.87-1.6,2.22v2.09c-.13,3.57-.37,13.16,1,13.41a28.38,28.38,0,0,0,4.55,0c2.34,0,2.83-.37,5.78-.62,3.32-.24,9.35-1.1,12.43-1.23.37,0,1.6-.24,2.7-.37,3.32-.49,8.74-1.23,10.58-.86,2.71.62,2.09,4.31,1.84,5.78a4.15,4.15,0,0,1-1.72,2.09,2.79,2.79,0,0,1-1.23.62c-7,1.72-42.43,6-54.73,6.15l-3.32.12c-5.41.25-18.33,1-22.39.12-1.11-.24-3.32-2.09-3.44-3.56Z"/><path class="cls-2" d="M307.78,541.2a50.79,50.79,0,0,0-1.6-9.84c-1-2.46-4.18-7.26-4.92-9.72-.25-.74-2-4.67-.62-6.4l1.73-1.72c.49-1.11,4.55.49,5.66,1.72l4.05,4.8c5.42,0,16.86-4.3,22.64-4.8,5.16-.49,8.24-.61,11.31,3.2,1.48,1.85,2.71,6.4,2.71,6.4-.49,17.09-2.71,25.46-4.43,33.95-.37,2.09-4.06,4.67-6.4,4.92-7.13.73-14.26.12-25.83,0-1.47,0-4.3-2.1-4.3-5.66Zm20.66-17c-2.7.49-10.57,2.59-12.3,3.69.86,6.52,1,16.24.62,25.34,0,.74,1.47,1.35,3.32,1.6,4.3.49,8.36,0,12.05,0,2,0,2.83-2.83,2.83-2.83,1.11-4.8,3.57-16.11,1.6-26.2C336.44,525.08,335.21,523.12,328.44,524.22ZM384.9,572c0-3.32,3.08-23.37,3.08-26.82,0-2.21.86-9.47-1.73-9.84-4.55,0-4.92.25-10.82.86a11.62,11.62,0,0,0-1.48,4.31c0,3.2-1.72,22-1.72,25.34,0,2.58-3.44,4.3-4.43,4.92-5.28,3.44-5.28-1.48-5.28-3.2,0-3.32.36-8.73.36-10.33s1.73-19.44,1.73-20.91c0-5.66,1.47-18.21-1.23-24.36-1-2.21-6.52-8.12-8.49-9.35-3.08-2-3.57-3.19-1.72-6.39,1.1-1.23,2.7-3.45,5.29-2.09,6.15,3.2,12.3,9.59,15,16,.62,1.47.86,11.56.86,13.28s.62,3.57,2.83,3.08c4.06,0,8.12.12,10.83-1.73,0,0,1.72-1,1.72-4.18,0-1.6-.74-13.9-1.72-18.32s-6.15-10.34-8-12.92c-2-2.83-1.23-4.8,0-6,2-2,5.17-2,8-.49,2.09,2.46,10.08,11.93,10.7,16.11,2,14.4.74,31.86,0,42.32-.74,11.07-2.95,22-2.95,33.94,0,1.6-1,9.23-1.36,11.2s-3.32,3.69-4.67,4.92c-2.34,0-4.31.61-4.8-1.72C383.79,584.74,384.9,576.62,384.9,572Z"/><path class="cls-2" d="M431.27,499.5c8.49-3.08,21.28-1,26.69,7.75,4.43,6.89,2.83,18.82,2.46,19.68A20.2,20.2,0,0,1,442,539.72c-10.21.12-23.49-3.2-23.37-21.4C418.6,509.58,422.54,502.7,431.27,499.5Zm10,31.61c3.08-.12,8.86-3,9.84-7.38.5-3.32.5-7.75-1.23-10.7-2.21-4.06-9.1-6.4-12.79-5.91-9,1.24-12.67,14.15-6.27,20.3C432.5,529,438,531.23,441.23,531.11Zm47.11,19.31c.62.12,1.23,2.71,1.23,3.2a90.3,90.3,0,0,1-.86,13.16c-.74,3.44-.86,7.26-4.92,9.35-10.33.37-17,.61-28.66.49a1.15,1.15,0,0,0-.86,1.23c.49,4.8,4.06,11.07,4.55,11.44,3.45,2.09,7.87,1.72,12.3,2l8.49.37c3.2.12,6.52-2.34,7.87-2.34,2,0,3.08,3.81,2.95,5.29-.24,2.58-3.32,4.67-4.67,5-4.8,1.23-12.18.49-17.59.37-4.67,0-11.32-.61-14.27-2.09-8.73-4.43-11.93-23-11.93-23,0-2.95.49-4.8,3.32-6.15,4.19,0,10-.37,13.9,0a91,91,0,0,0,16.36-.74,3.93,3.93,0,0,0,3.32-2.46c.37-.74.49-5.17,0-7-1.23-.86-23.12.12-24.23,0-3.44,0-7.5,1.6-10.21,1.72-1.47.12-3.2-1.6-3.69-4.18-.24-1.23.49-2.21,1.23-3.32.74-1.72,15.25-3.69,25-3.69C474.44,549.07,480,549.07,488.34,550.42Zm-7-6.27c.25-1.85,1.85-4.43,2.46-6.15-.12-13.41.37-24.36-1.35-37.64-.62-4.92-8.86-12.42-10.95-15.25-1.6-1.48-.86-3.32,0-4.55,1.23-1.73,5.91-1.6,7.75-.25,1.6,1.11,10.7,11.44,12.42,16.73,2.71,8.49,1.6,20.91,1.6,25.83,0,3.94.13,17-1.84,23C490.56,548.33,480.84,546.61,481.33,544.15Z"/><path class="cls-2" d="M548,547c1.72-.74,6.15-5.54,7.25-6.4,7.14-6,14-21.28,14.76-23.12.86-2.22,1.36-9.35,2.59-11.69.24,0,4,.49,4.42.62,5.05,1.72,3.45,10.58,2.83,12.3-.74,2.09-1.6,3.56-2.46,5.66a3.33,3.33,0,0,0,1.36,2.09c8.24,7.87,12.91,9.47,20.41,16,1,.86.25,3.19,0,3.81-.49,1.35-1.72,3.81-3.81,4.06a6.19,6.19,0,0,1-3.2-.74c-4.92-3.69-12.91-10.95-17-14.39-1.48-1.23-2.46-.49-3.08.74-1.35,2.46-14.63,17.71-17.46,18.82a40.13,40.13,0,0,1-5.54.37c-1.6,0-2.83-2.46-3.81-4.19C544.55,549.56,547.38,547.22,548,547Zm26.32,21.89c2.58-1.84,7.75-1.47,8.85.25,1.36,2.09,8.24,12,8.74,12.79.86,1.6,3.07,2.21,7.13,3.32,1.23.37,9.72.12,12.18-1,3.57-1.6,10.33-6.15,13.41-6.15a5,5,0,0,1,2.58.86c1.84,2.58,1.84,5.66,1,7.13-1.35,2.83-19.68,8.61-21.15,8.86a29.9,29.9,0,0,1-19.81-3c-1.6-.87-13.28-17.47-13.9-19.44A3,3,0,0,1,574.32,568.87Zm38.5-11.44c.86-2.95,1.47-11.68,1.47-12.79s.62-3.81.62-5.17c0-5.53-.37-26.93-1.23-30.87-.49-2.34-8.24-11.07-9.23-12.18-2-1.47-4.92-6.64-5.16-8.36-.37-2.21,3-3.44,4.43-3.81h2.58c1.47.24,3.93,4.79,5.41,6.64,2.58,3.2,10.58,10.45,11.32,14.51s1.72,20.67,1.72,23c0,10-.49,14-.49,23.5,0,3,.12,8-.74,10.7-.49,1.35-3.69,2.83-5,3.32-4.06,1.35-7.14-.37-7.14-3.32A28.19,28.19,0,0,1,612.82,557.43Z"/><path class="cls-2" d="M637.17,544.52c1.35-3.08,12.18-12.43,13.77-14.39,3.45-4.55,8.62-11,10.21-17.72.87-3.69,2.46-10,2.46-14.26,0-2.09.74-3.82,1.36-4.31a20.11,20.11,0,0,1,6.39-1.47l1.6,1.47c1.11,2.46,1.23,5.17,1,9.47-.25,5.17-2.46,10.95-4.06,16-.13.49-2.22,3.57-2.46,4.68-.5,1.6,6.15,5.41,7.13,6.15,2.09,1.6,10.83,8.48,12.79,10.45.86.86,2.46,2.09,2.46,3.45,0,2.21-2.21,3.93-4.55,5.65-.37.25-2.33,1.23-3.32,0-.74-.86-6.52-5.53-7.5-6.52-1.6-2-6.15-5.16-9.35-7.38-.61-.49-3.32-1.84-4.55-.73-3.44,2.33-12.3,13.53-16.48,15.74a3.32,3.32,0,0,1-3.57,0,5.26,5.26,0,0,1-2.83-1.72A5.17,5.17,0,0,1,637.17,544.52ZM669.39,566a7.18,7.18,0,0,1,3.2.37c1.11,0,4.31,4.8,4.8,5.66.12,1.11,4.8,6.64,6,8.24a16.52,16.52,0,0,0,2.58,2.58,16.32,16.32,0,0,0,14.51,4.19c1.73-.37,4.8-2.83,6.52-3.45,3.2-1.47,4.55-1.72,6.65-.24.73.36,2.82,4.18,1.72,5.41-1.48,1.84-2.09,2.83-5.78,4.06-1,.37-9.48,3.44-10.7,3.69a18,18,0,0,1-7.75,0c-5.29-.86-9.84-5.17-12.43-7.26-6.52-5.17-7.5-8.49-13.65-16.85C665,571.09,667.8,565.67,669.39,566Zm38.26-17a28.58,28.58,0,0,0,1.6-2.83,204.49,204.49,0,0,0,1-23.37,1.22,1.22,0,0,0-1.35-1.35c-1.36,0-18.7,3.07-20.42,4.3-1.48,1-4.55-.12-6-2.09,0,0-1.72-3.69-.24-4.8,2-1.35,13.53-4.42,17.71-5.29,2.46-.49,6.89-.49,9-1.23,1.72-.49,1.72-2.33,1.72-3.56,0-.37-.49-1.11-.49-1.48a66,66,0,0,0-1.48-12.54c-.37-2-6.64-7.63-7.87-9-.86-1-.49-2-.25-3.2.13-.49,1.6-2.83,3-3.32s3.81,0,5.78,1.1a47.83,47.83,0,0,1,6.15,6c4.67,6.27,5.53,22.63,5.53,22a260.37,260.37,0,0,1-2.46,35.79c-.24,1.48-1.47,10.7-2.09,11.69-.86,1.35-2.7,3.07-4.43,3.07H708c-1.36,0-1.6-2.21-1.72-3.2C706.05,553.5,707.16,551.41,707.65,549.07Z"/><path class="cls-2" d="M738.4,524.47c-1.6-2-2.71-8.12.24-8.12,4.43,0,8.37.12,12.43.25,3.69.12,7.25.24,10.94.24,4.31,0,8.74-.12,13.53-.49a25.81,25.81,0,0,0,7.75-2.21c2-1,3.69-1.48,5.78-.37,2.34,1.35,3,6.15,2.22,6.89-1,1-6.52,4.79-10.46,5.16-7.87.74-14.76,1.35-21.89,1.35a151.36,151.36,0,0,1-16.12-.86,6.51,6.51,0,0,1-4.3-1.84Zm49.44,30.13a31,31,0,0,1,.37,4.8c0,10.7-5.66,20.05-17.22,23.49a14.08,14.08,0,0,1-4.06.5c-7.62,0-17-5.17-18.69-12.18v.12a31.6,31.6,0,0,1-1.11-8.61,33.94,33.94,0,0,1,1.11-8.36c2-6.64,6.39-13.53,17-14.52C774.31,539.23,786.86,547,787.84,554.6ZM752.91,489h-.12a11.46,11.46,0,0,1,2.7,1l1,.37c6,2.21,15,5.53,22.14,7.38,2.21.49,2.58,3.07,2.46,6,0,.37-.49.87-1.23,1.6-.49.5-.74.74-.86.74-3,.74-12.67-1.47-16.12-2.46-1.1-.37-9.59-4.06-13.16-7.26-1.23-1.23-1.1-4.3-.61-5.78C749.71,488.92,751.31,488.67,752.91,489Zm4.18,74.42c0,6.89,4.8,11.68,11.32,9.72,6.76-2.09,10.58-7.51,10-14.27-.61-9-9.22-8.73-12-8.73-4.31,0-7.26,4.42-8.61,8.85A14.84,14.84,0,0,0,757.09,563.46Zm51,19.8a68,68,0,0,0,.74-9.1c0-8.24.24-15.74.49-23,.24-7,.49-13.78.49-21,0-4.55-.12-9.23-.37-14.27-.61-8.37-4.8-11.69-7.26-13.65a12.17,12.17,0,0,0-1.59-1.23c-1.85-1.6-2.34-2.83-1-5.91,1.6-2.95,6.52-1.11,9.23-.12s4.67,3.07,6.88,5.78c3.45,4.43,4.68,17,4.43,19.19l.13,10.08c.12,2.83.12,6.77.12,10.58,0,2.46.74,4.06,4.43,3.94a50.41,50.41,0,0,0,8.73-1l3.08-.49a11.12,11.12,0,0,0,1.72-.12c2.33-.25,6.15-.62,6.39.37.86,5.66-1.35,7.38-5.16,8.24s-9.11,1.84-17,3.2a2.59,2.59,0,0,0-2,3.19c-.24,1.85-.49,3.69-.61,5.54a79.49,79.49,0,0,0-.49,8.86c0,.49-.13,2-.13,3.44s-.12,3-.12,3.44a9.75,9.75,0,0,1-3.44,6.65v-.13c-1,1-7.87.37-7.87-1.23Z"/><path class="cls-2" d="M858.32,564.69l.86-1.11c1-1.23,13.9-20.29,17.84-31.12.86-2.09,1-3.93-.62-3.93-9.35-.49-18.82,0-28.17,0a2.82,2.82,0,0,1-3-1.85c-.24-2.7.13-6.39,1.72-6.39l6.4-.62c10.33,0,19.93-.24,30.5,1,3.08.36,4.56,2.82,4.56,4.18,0,5.53-1,8.48-3.69,14.14,1.84,0,6.27-.74,9-1.1a13.09,13.09,0,0,1,1.73-.25,29.55,29.55,0,0,0,7.5-2.46,93.22,93.22,0,0,0,.49-11.69V522c0-2.22-2.21-4.18-4.67-6a16.63,16.63,0,0,0-3.2-1.72,8.61,8.61,0,0,1-2.58-1.85c-.37-.86-.25-4.55.12-4.92,1.23-1.23,1.85-1.1,3.2-1.1h1.23c4.55,0,12.54,6.52,15.13,10.08.49.86.61,4.06.61,8,0,6-.37,14.14-.74,18.57l-2.33,25c-.25,2.21-2.22,3.2-3.82,3.81l-1,.37c-2,.86-5.41.86-5.54-1.47a22.57,22.57,0,0,1,.62-5.78l.49-2.83a115.24,115.24,0,0,0,1.72-17.35,184.46,184.46,0,0,1-21.4,4.68c-1.23.12-2.83,1.72-3.32,2.58a55.84,55.84,0,0,0-5.53,8.49A51.15,51.15,0,0,1,866,570.1h.12c-2,2.58-9,3.32-9.84,1.72C854.75,569.49,856.6,566.9,858.32,564.69Zm65.19,26.08a26.84,26.84,0,0,1,1-6.4A10.78,10.78,0,0,0,925,582c1.84-9.22,2.46-17.71,3.19-26.07.37-5.17.87-11,1.6-17,.25-3.32.5-7.25.5-10.45a68.59,68.59,0,0,0-1.11-12.06l-.25-1.47c-.61-3.2-1.84-8.61-4.92-11.2-.86-.61-3.07-1-5.29-1.47s-4.79-.86-5.53-1.35-1-6,.12-6.15l1.48-1.48c.74-.49,2.33-.62,4.43-.62A23.48,23.48,0,0,1,927,494c4.18,1.85,8.36,7,9.1,8,1.72,3.07,3.44,11.93,3.81,15.37a78,78,0,0,1,.25,7.88c0,13.28-2.09,32.35-4.19,48.34l-.86,6.51a31.13,31.13,0,0,0-.12,5.79c0,1,.12,2,.12,2.95,0,2.21-4.79,4.3-9.1,4.3a2.23,2.23,0,0,1-2.09-1.23l-.37-1Z"/><path class="cls-3" d="M1003,539.47c-.62-5.28-4.31-10.33-11-19.43a4,4,0,0,1,.86-5.17,5.05,5.05,0,0,1,5.9,0,9.51,9.51,0,0,0,1.48.87c2.34,1.47,5.29,2.7,6.89,5.16a14.71,14.71,0,0,1-.74-2.21,2.18,2.18,0,0,1,1.11-2.59,2.43,2.43,0,0,0,.86-.49,33.93,33.93,0,0,0,7.5-1.6c2.22-1,11.44-5.78,13.16-6.76,1.35-.86,4.68-1.35,8.37-1.35a37.89,37.89,0,0,1,5.29.36c1.1.25,4.42,3.45,4.42,4.8l-.24,12.55c-.25,7.87-.49,16.6-.49,19.19a5.69,5.69,0,0,1,2,.49l1.73,1.72a12.06,12.06,0,0,1-.37,5c-.86,1.6-4.19,3.08-5.91,3.45l-5.29.86c-9.34,1.47-23.12,3.56-24.11,3.56l-.61,1a12.76,12.76,0,0,1-3.81,2.83c-3.94,2.09-6.15-.74-6.15-4.43A130,130,0,0,0,1003,539.47Zm24.47-20.29c-4.55,2.21-10.82,5.17-18.69,4.67,4.43,6.4,5.16,16,5.41,21.41.12,1.1.24,2.82.24,3.19,3,0,17-1.23,19.69-3.81,0-.86,1.47-3.2,1.72-5.53a142.34,142.34,0,0,0,.24-20.3c0-1.11-.49-2.95-4.92-1.23Zm5.66,53.26a5.69,5.69,0,0,1,.49-2.34l.62-1.35c1.72-1.23,5.16-.86,6.39.86l.74,2.58a12.36,12.36,0,0,1,.86,3.08c0,1,2.83,9.35,3.82,10.82l1.1,1.35c1.36,2.22,4.06,5.17,12.3,4.56,2.59-.5,14.15-5,16.73-7.26,1.85-1.35,3.57-.37,5,1.47,1.48,1.11.87,3.33.37,5a1.3,1.3,0,0,0-.24.61c-1,2.59-9.6,8.12-11.93,8.86-2.83,1-11.07,1.48-14.39,1.48a21.47,21.47,0,0,1-9.35-1.85c-5.05-2.71-10.34-11-11-15.38C1033.84,580.93,1032.85,575.39,1033.1,572.44Zm32.47-17.84c1.23-1.35,2.09-2.33,2.09-3.93l.37-10.46c.13-5.66.37-12.3.37-18.45,0-7-.24-14.64-.86-23.61-.37-2-3.81-4.43-7.13-6.89a36.68,36.68,0,0,1-5.91-4.8c-1.6-2-.73-5.53,2-5.53.49,0,1.11-.13,1.72-.13,1.36-.12,3.2-.24,3.82.13,5.78,2.82,14.63,8.85,15.62,11.93a90.21,90.21,0,0,1,1.6,18.2c0,3.08,0,6-.13,9.1s-.12,5.78-.12,8.74c0,.49.12,2,.74,2a31,31,0,0,0,6.76-1c3.2-.61,6.52-.86,9.72-1.6,2.58-.37,5.54-.49,6.52,2.22.49,2,0,5.28-2.09,6.15a198.08,198.08,0,0,0-21.4,4.67c0,3.44-.37,8.73-.74,12.42-.37,1.85-3,4.43-4.31,5.54a5.24,5.24,0,0,1-3.56,1.23,7.89,7.89,0,0,1-4.31-1.36C1064.84,557.68,1064.1,556.2,1065.57,554.6Z"/><path class="cls-3" d="M1103.82,577.48c-.36-1.23-.49-3.81.25-5,1-1.23,2-2.09,5-2.46.87,0,1.6-.12,3-.25,4.55-.37,21.77-1.35,63-2.46.37,0,3.2-.86,4.06-2.09,1.35-1.72,9.47,2.09,9.84,5.41.37,2.34-5.41,6.52-8.49,6.89-.49,0-1,.12-2.09.12-4,.25-21.77.74-59.28,1.85l-3.2.37a72.91,72.91,0,0,1-8.86.61,3.81,3.81,0,0,1-2.09-.61c-.37-.25-.74-.49-.86-.86A5.08,5.08,0,0,0,1103.82,577.48Zm11.07-47.6c.5-5.29,2.83-9.84,5-14.14l.74-1.36a19.06,19.06,0,0,1-5.54.37c-3.32-.37-3.44-2.09-3.32-3.44l.49-4.8c.12-1.72,2.09-2,3.94-2.21l1.35-.13c.37,0,1,0,7.5-.49l33.83-2.09,2.21-.25,1.23-.12a7.29,7.29,0,0,0,1.48-.12c1.84-.25,4.67-.37,6,.86s.61,4.8-.37,6.52l-2.22,1.84c-.37.25-1.72.25-4.55.5-3.93.36-11.81,1.1-28.53,3.32a5.45,5.45,0,0,0-3.57,2,24,24,0,0,1-1.11,2.59c-1.84,3.81-4.3,9-3.56,12.17-.13.37,2.46,5,8.48,5.54a67.05,67.05,0,0,0,19.07-1.11,22.92,22.92,0,0,0,4.18-1.1c2.58-.87,5.17-1.85,7.63-1.23a3.46,3.46,0,0,1,2.7,2.95c.25,1.23-.49,5.78-3.07,6.52-10.58,2.7-21.78,4.67-37,3.32-2.83-.25-11.8-4.8-12.79-10.58A25,25,0,0,1,1114.89,529.88Z"/><path class="cls-3" d="M1191.77,541.81c.49-2,4.06-3.57,5.78-3.57a53.29,53.29,0,0,1,8.73.87,106.81,106.81,0,0,0,16.85,1c9.6,0,15.38-.37,24.24-.86,8.11-.49,14.51-2.34,21.52-3.57a91.26,91.26,0,0,1,10-1.35,1.45,1.45,0,0,1,1.23.24c.5.5.86,1.73.62,3.94a5.82,5.82,0,0,1-3.08,4.43c-4.92,2.58-25,5.53-34.19,6-4.8.24-5.41.24-10.09.24-4.92,0-10,0-14.88-.12-4.43-.12-5.78-.12-10.21-.12-1,0-14.64-.5-16.36-3.2C1191.15,544.64,1191.4,543.29,1191.77,541.81ZM1213.66,512a16.75,16.75,0,0,0,.86-6,26.43,26.43,0,0,0-.36-4.68c0-.73-1-2.58-2.1-4.42a24.8,24.8,0,0,1-1.84-3.45v-.12l-.49-1.23c-.62-1.48-1.36-3.69-1.11-4.06.37-.74,3-1.11,5.54-1.11a12.05,12.05,0,0,1,4,.5c1.36.73,5.42,8.61,6,12.54.37,2.34,1.11,10.83,1.11,13.29a1.21,1.21,0,0,0,1.23,1.23,76.13,76.13,0,0,0,9.1-.25c1.23-.12,3.94-.12,4.8-.12,1.84-.37,4.18-.62,6.15-.86,3.69-.5,7.87-.87,11.56-1.73,1.6,0,3.69,1.36,3.81,2.71v2.46c0,1.48-1.84,3.57-4.55,4.92s-11.31,2-17.71,2.46c-2.58.12-4.8.37-6.15.49-1.6,0-16.48-.12-20-3.32a4.39,4.39,0,0,1-1.35-3.57A11.72,11.72,0,0,1,1213.66,512Zm-3.19,56.83a5.57,5.57,0,0,1-.25-3.44c1.35-4.06,4.06-5.29,7.38-3.82.74.37,1.35,1.73,2.09,3.45a99.45,99.45,0,0,0,8.36,14.76c1.85,2.46,4.19,4.8,6.89,5.29a41,41,0,0,0,7.51.74,30.36,30.36,0,0,0,6.88-.74c4.43-1,9.11-3.32,11.32-5.41a24.09,24.09,0,0,0,4.18.73c1.85.37,2.22,3.69,2.22,3.69,0,2.34-1.23,3.57-2.34,4.68-6.4,6.39-15.38,8-22.76,8a49.88,49.88,0,0,1-6.27-.37,20.34,20.34,0,0,1-9-3.56c-6-4.19-14.27-16.49-16.23-24.11Z"/><path class="cls-3" d="M335.21,715.75V703.33c0-7.38-6.4-16.11-8.49-20.17-.37-.74-1.35-2.46,0-3.94.25-.61,3.57-1.11,4.55-1.11,3.57,0,6.77,3.2,7.75,6.65,1.72-2.71,4.18-3.82,9-4.92,5.53-1.36,9.59-2.71,16.11-3.94,1.72-.37,7.87-1.48,10.58-.12,1.23.61,2.58,1.6,2.58,3a121,121,0,0,1-.73,14.39c-.5,4.8-1.85,18.45-3.57,22.76A8.89,8.89,0,0,1,365.1,721c-1.73,0-8.25-1.11-11.57-1.47a88.43,88.43,0,0,0-16.23-.37C335.33,718.58,335.21,715.75,335.21,715.75Zm24.35-3c2.09,0,4.92-1.6,5.54-3.94,1.84-7.25,1.6-14.14,2.09-22.14.12-2-1.85-2.33-2.71-2.33-4.55,0-12.67,3.44-18.57,4.18-1.48,0-4.55-1.6-6.15-1.72,4.3,7.13,4.67,16.85,5.53,23.12,0,.86.62,1.23,1.6,1.48A62.36,62.36,0,0,0,359.56,712.8ZM341.11,777a5.24,5.24,0,0,1,2.58-3.08c3.2,0,12.8-4.8,16.86-7,3.32-1.84,5.16-6.15,7.5-9.35.61-.74,8.24-19.55,8.49-19.92,1.1-2.22,2.33-3.82,4.18-4.43.12,0,4.92-.37,6.27.49,1.6,1,.37,4.06.37,4.43-.74,1-3.08,6.64-3.57,7.75,2.46,3.81,10,9.71,10.33,10a180.64,180.64,0,0,0,18.21,10.46c1.11.49,2,3.56,1.23,4.42a22.71,22.71,0,0,1-4.06,3.2,4.86,4.86,0,0,1-3.81,0,11.76,11.76,0,0,1-3.82-2.83c-1.84-1.84-11.07-5.66-13.77-7.75-2.34-1.84-5.29-3.69-8.24-7.62-2.71,6-8,15.62-14.15,19.31-5.41,3.44-15.5,8.49-22.26,5.9C342.59,780.45,340.86,778.36,341.11,777Zm56.95-49.94c.37-1.11,1.72-4.18,1.72-5.54,0-15.74,2.46-31.61-.86-46.12-1.35-6.28-7.75-9.6-12.3-13.41-2.95-2.34,1.11-6,4.06-6a13.32,13.32,0,0,1,3.44.5c5.29,2.21,12.18,6.64,13.53,11.56,2.34,8.73,1.85,16.6,2.46,25.58,0,.37,1,1.11,1.6,1.11,4.19-.12,7.14-1.11,11.44-2.21,3.45-.87,7.75-.5,9.84,1,0,.25,1,5,.74,5.9.12,1.73-3.69,2.71-6.27,2.71-3.32,0-9.72.86-15,1.48-1.35,0-2.34.61-2.34,3.07,0,8.49,0,18.82-1.59,24.35-.37,1.36-1.73,2.83-4.31,3.82-.12.24-5.53-.25-5.66-1C397.69,732.48,396.34,732,398.06,727.07Z"/><path class="cls-3" d="M475.43,772.09a17.49,17.49,0,0,0,2-2.46c-2.46-2-8-5.54-10.94-7.63-.62-.49-1.6.12-2.46.62L461.65,765c-4.92,4.55-8.85,9-15,12.92-1.59,1-6.14,2.83-7.87,1.6-1.35-1-1.1-3.69-.49-5.17l1.35-1.6a24.7,24.7,0,0,1,5.42-5.29c1.1-1,2.21-2,3.19-2.7a60.84,60.84,0,0,0,9.11-8.37,95.61,95.61,0,0,0,12.17-22.88l2.09-2.09c1.23-1,2.59-.37,5.05,2.71.86,1.23.49,2.95.12,4.43,0,.24-.12.49-.12.74-.62,2.82-3.2,8.61-4.8,11.56-.61,1.47-.86,2.7,0,3.2,3.32,2.82,6,5,9.84,7.74a2.84,2.84,0,0,0,2.95-.12c3.45-3.2,7.14-11.07,9.47-16.23l.74-1.73a10,10,0,0,0,.86-3.81,25.33,25.33,0,0,1,1-4.18c.12-.74,1.1-1.11,1.47-1.23a12,12,0,0,1,5.91,0c1,.49,1.35,2.21,1.35,2.7a65.44,65.44,0,0,1-.86,7.63c-.12.86-.25,2.71-.25,3.2,3.82,6.89,11.69,13.41,18.82,17.22,2.83,1.23,3,4.06,2.09,6.89-.61,2-1.1,3.2-2.09,3.32-1.35.12-3.07.24-3.81-.25a94.31,94.31,0,0,1-15-13.41l-.61-.49c-2.34-1.72-3.69-4.18-4.43-3.07-6,8.48-9.72,13.16-15.87,18.82l-.61.37c-1.36,1.23-6.64,5.16-9.23,3.07.13.25-.61-.24-1-.49-.74-.49-1.11-.12-1.11-1.35C471.49,776.15,473.71,773.69,475.43,772.09Zm-35.55-71.47c0-6.64,2.46-12.42,8.12-18.2,3.56-3.44,9.59-4.8,14.64-4.8a27.68,27.68,0,0,1,4.79.37c6.64,2,12.92,8.24,15,13,.61,1.48,1,4.8,1,8.36,0,3.94-.49,7.88-1.6,10.09-3.44,6.52-12.17,13.28-22.38,12.3-3-.25-16.73-5.41-18.7-13.9A30.93,30.93,0,0,1,439.88,700.62Zm10.95,3c0,3.69,3.69,7.38,9.59,8.36,2.83.61,9.72-.12,12.18-6.52a12.61,12.61,0,0,0,1-5,16.6,16.6,0,0,0-.74-4.8c-1-3.32-5.65-9-9.71-9a13.2,13.2,0,0,0-7.87,2.71C451.2,691.64,450.83,699.27,450.83,703.58Zm51.78,20.17c1-3.82,2.83-12.55,2.83-15.13,0-1.23.25-5.54.37-10.58.25-7,.49-15.62.49-18.82,0-2.46-4.06-9.35-6.52-13.28l-1.11-2c-1.72-2.83-.86-4.06,0-5.54.37-.49,2.71-2.09,4.43-1.47,2.59.24,10.95,11.19,11.93,13.9a23.48,23.48,0,0,1,1.11,5.16c0,1,0,16.12-.37,21.28-.24,2.71-.24,6-.49,9.6-.25,5.53-.62,11.8-1.23,16.36-.37,1.84-2.83,6.15-5.53,6.39-2.46.37-4.92.86-5.91-1.47C501.63,726.21,501.63,726.08,502.61,723.75Z"/><path class="cls-3" d="M530.53,755.73c-.49.49-2.46-1-2.58-2a6.68,6.68,0,0,1-.13-1.72c0-.74-.12-1.6-.12-2.09,0-1.48,3.57-2.46,5.41-3l1.11-.25c3.2-.62,14.27-1.6,16.61-1.6,2.7,0,5.53-.74,6.39-2.71.62-1.47.74-4.18.74-7.25s-.12-6.4-.37-10a36,36,0,0,0-2.46-5.65,41.09,41.09,0,0,1-2.34-5.54c-.24-2-.12-3.32,1.36-4.43.73-.49,3.44-.37,4.79-.24.49,0,1.36.12,1.6.12,3.08,0,7.14,12.79,7.38,13.9.49,7,.74,13,.74,19.31,0,.86.49,1.23,1.48,1.23.73.12,4.3.12,8.48,0,3.57-.12,9.23-.12,14.15-.12,4.06,0,11.07,0,15.87.12,2,.12,2.7.25,3.19.25.25,0,.37.12.5.12,2,0,1.72,4.43,1.72,6s-2.83,3.32-3.69,3.32c-6.77,0-79.71,1.47-79.71,2Zm53.75-33.58a6.69,6.69,0,0,1,.74-2.22,12.88,12.88,0,0,0,1.35-4.55,76.75,76.75,0,0,0,.37-10.33V702c0-3.2-2.09-7.75-3.57-8.37-.73-.37-3.19-.74-8.11-.74-3.57,0-8.49.13-15,.74h-8.61c-1.48,0-3.32-.24-3.32-2.33v-1c0-2.21,0-5,1.35-5.29l5.78-.37c3.45-.24,7.88-.49,10-.86,3.56-.61,19.43-1.6,21.64-1.35,3,.12,4.56,1,5.79,3a37.31,37.31,0,0,1,4.42,14v7.51c0,2.46,0,5.29-.12,7.87a16.35,16.35,0,0,1-2.58,8.49l-.62.86c-1.35,1.84-3,3.32-5.66,2.21C586.5,725.72,583.91,724.73,584.28,722.15Z"/><path class="cls-3" d="M749.59,724.36c-.25,2.59-2.34,4.43-3.07,5-13.17,0-16,2.21-31.86,3.69-.37-.25-3.57,1.23-3.57,2.46-.12,2.58.62,9.71.62,17.58,0,.37.86,5.54.86,5.79,0,1,.37,9.71.37,13.28-.5,1.11-1.11,4.06-3,5.17-1.47.73-8.73.49-8.48-2,0-3.32-.86-13-.25-17.47V734.45c.12-.62-.74-1.48-1.84-1.48-1.36,0-6.65.49-7.51.49-4.3,0-15.62,3.08-26.57,2.71-1.72,0-7.13-.74-9.71-3.2a3.48,3.48,0,0,1-.74-2c0-2.7,1.85-5.41,4.18-5.28s6.52,1.1,26.69.12c11.69-.49,20.18-1.48,31.49-2.34.25,0,3.2-.74,3.44-.74,3.45,0,18.33-2.58,23.38-3.19,3.93-.37,5.41,1.72,5.53,2.7ZM724,684.76c0,.24-.25,2.58-.25,3.32,0,3.81-1.72,15.13-2.71,17.46-.37.5-2.7,3.69-4.42,4.68-3.45,1.72-2.59,1.23-25.22,3.32-2.09,0-3.93,2-6.15,2-2,0-4.3-1-4.3-3.08l-.13-9.59c0-1.36-.73-5.05-.73-5.54-.74-2.95-3.33-7.75-4.19-9.22-2.83-4.55-4.79-8-7.13-9.72-.49-.49-.74-2.71.12-3.44a3,3,0,0,1,2.09-1c2.59,0,7.63-1,9.23,1.48.86,1.72,3.44,5.41,4.67,8.61.25.49.86,3,1.72,3.32,8.74-2.09,16.86-4.31,19.81-4.31,1.6,0,3.81-.24,5.16-.24,1.85.37,2.22-1.6,2.59-2.71-1-7.25-1.6-11.31-6.52-16.85a7.54,7.54,0,0,1-.5-1.72c-.24-1.48,2.34-2.58,7.51-2.09a10.18,10.18,0,0,1,2.58,2.09c4.8,2.34,6.89,10.82,6.89,16.6v1.36Zm-20,6.52c-1.6,0-14.39,2.33-15.25,4.3,0,.37.49,3.32.61,3.69,1,3.32.61,4.18,1.48,6.27,16.48,0,18.82-3.19,19.92-3.56,1.11-1.11,2.09-3.69,2.09-9a2,2,0,0,0-2.09-2h-5.53Z"/><path class="cls-3" d="M751.8,755.48c-.37-1.23-.49-3.81.25-5,1-1.23,2-2.09,5-2.46.86,0,1.6-.12,2.95-.25,4.56-.37,21.78-1.35,63-2.46.37,0,3.2-.86,4.06-2.09,1.35-1.72,9.47,2.09,9.84,5.41.37,2.34-5.41,6.52-8.49,6.89-.49,0-1,.12-2.09.12-4.06.25-21.77.74-59.28,1.85l-3.2.37a72.91,72.91,0,0,1-8.86.61,3.81,3.81,0,0,1-2.09-.61c-.37-.25-.74-.49-.86-.86A5.08,5.08,0,0,0,751.8,755.48Zm11.07-47.6c.5-5.29,2.83-9.84,5-14.14l.73-1.36a19,19,0,0,1-5.53.37c-3.32-.37-3.44-2.09-3.32-3.44l.49-4.8c.12-1.72,2.09-2,3.94-2.21l1.35-.13c.37,0,1,0,7.5-.49l33.83-2.09,2.21-.25,1.23-.12a7.29,7.29,0,0,0,1.48-.12c1.84-.25,4.67-.37,6,.86s.62,4.8-.36,6.52l-2.22,1.84c-.37.25-1.72.25-4.55.5-3.93.36-11.81,1.1-28.54,3.32a5.45,5.45,0,0,0-3.56,2,24,24,0,0,1-1.11,2.59c-1.84,3.81-4.3,9-3.57,12.17-.12.37,2.46,5,8.49,5.54a67.07,67.07,0,0,0,19.07-1.11,23.13,23.13,0,0,0,4.18-1.1c2.58-.87,5.16-1.85,7.62-1.23a3.46,3.46,0,0,1,2.71,2.95c.25,1.23-.49,5.78-3.08,6.52-10.57,2.7-21.77,4.67-37,3.32-2.83-.25-11.81-4.8-12.79-10.58A25,25,0,0,1,762.87,707.88Z"/><path class="cls-3" d="M851.92,719.2c0-1.23-3.56-1-4.3-1.36a5.89,5.89,0,0,1-1.35-2.09c0-1.84-.25-5,2.46-5.41,7.87-.86,15.12-.25,22.87-.37,2.71,0,4.55.12,5.42-1.6,1-2,1.1-8.48.37-10.33-4.8-1.35-6-1.35-12.06-1.72-2.09-.12-11-.12-13.41.12-1.23.25-2.82-1.11-3.56-1.72s-.74-3-.62-4.55c.25-2,2-1.72,5.91-2.09,6.88-.37,12.05-.62,18.32-.37,3.69.12,7.63-.13,10.95.86a6.51,6.51,0,0,1,4.55,5.78c.49,12.67-.37,15.38-1.11,18.2-.86,3.33-4.42,4.8-6.39,5.29a48,48,0,0,1-8.49,0c-4.18,0-6,.25-7.26,1.73-1.6,1.84-5.41,10.57-6,13.53a6.31,6.31,0,0,0,.37,2.46c1.1,1.84,4,3.19,7.25,3.93,5.17,1.23,13.78-.37,16.61-1.84a44.59,44.59,0,0,1,6.52-2.22c1.23,0,2.09-.49,3.19.13s1.36,2.58.25,5c-1.47,3.44-9.47,7-17.34,7.75-4.43.37-16.73,1.23-25.46-6.28-4.19-3.56-2.71-9-2-11.93C848.11,728.18,852.05,721.53,851.92,719.2ZM912.69,754c.61-4.43,2-14.64,2.7-22,0-2.71,1-7.87,1.85-13a2,2,0,0,0-1.48-2c-1.6,0-3.81.37-5,.37-1.72,0-6,1.11-7.75,1.23a105.55,105.55,0,0,1-11.19.62c-2.59-.13-3-1.6-2.59-5.17a4.51,4.51,0,0,1,3.2-3.69c5,0,8.49-.49,13.53-.49,3.45,0,8.73-.25,11.19-2.34l.25-3.57V688c0-2.58-1.72-7.5-3.69-10.82-1.35-2.46-6.52-8-7.38-10a7.46,7.46,0,0,1-1-3.08c0-1.6,1.23-4.18,3.19-4.43.62,0,3.2.37,3.69.86,2.83,2.47,10.7,11.08,13,14.64a27.35,27.35,0,0,1,2,9.23c0,2.21.37,14.39.62,19.19,0,2.46-.25,9.59-.25,13.53,0,1.59-1.48,14.63-1.35,17.58,0,8.37-2.71,21.9-3.94,29.16-.61,2.82-7.13,2.95-8.24,2.58-2.58-.86-2.83-4.06-2.58-5.78C911.7,758.43,912.44,756.22,912.69,754Z"/><path class="cls-3" d="M985,728.54a1.94,1.94,0,0,0-1.72-1.59c-1.36,0-4.68,1.23-8.12,1.47-8.49.62-19.19,1.85-28,.49-.62-.12-7.63-2.46-7.51-3.69-.49-.49-.12-4.92,0-5.41.12-.74,1.36-1.72,3.94-1.84.24,0,4.43.24,4.92.37.24,0,1.23,1.1,2.09,1.47,10.95-.74,24.48-1.23,35.3-2.83,4.55-.61,13-2.46,17.59-3.44,2.71-.62,21.89-4.55,24.35-3.45a3.72,3.72,0,0,1,1.73,2c.86,2-1.11,6.64-1.73,6.89l-16.23,2.21c-1.85.25-11.07,2-13.66,3-1.47.61-1.84,1.6-2.46,2.21,0,8.49-.86,15.38-.36,23.74a7.17,7.17,0,0,1-.37,2.58c0,.86-5.29,4.06-6.28,4.06-.24.12-3.93-.12-3.44-1.35C984.52,745.89,986,739.49,985,728.54Zm-21,37.77c-.62-.87-5.66-10.34-5.91-12.18-.61-.25-2.21-.86-2.21-1.85v-2.7c0-1.6,1.47-3.82,3.44-5.66.49-.49,2-.49,4.18-.49,1.23,0,3,4.18,3.69,5.66,1,2.09,3.94,8.48,4.8,9.84,1.72,2.82,5.41,6.39,8.61,6.51,5.29.25,16.36.5,20.42-.86,3-1,5-1.47,8.24-3.81a34.56,34.56,0,0,0,3.08-2.46,13.5,13.5,0,0,1,3.07-.49c1.35,0,2.09,1.6,2.83,2.95.86,1.6,0,3.44-.74,4.67a14.81,14.81,0,0,1-5.9,5.79c-1.72,1-12.3,4.18-19.56,5-1.48.12-14.51-.25-17.59-1.72A29.25,29.25,0,0,1,964,766.31Zm1.6-72.33c-1.36-3.69-1.48-10.08-.13-15.37,1.36-5.05,6.52-10.7,7.51-10,.12-.37.61-2.58,1.47-2.95,4.8-2,10.33-2.09,16.85-.12,5.29,1.6,14.76,5.29,16,16.36.13,1.23.25,6.52-3.07,13.53A22.32,22.32,0,0,1,994,705.67c-7.5,1.72-15,2.21-19.19-.37A21,21,0,0,1,965.58,694Zm17.34,3.94c2.7.24,11.07-2.71,13.16-6.52,1.23-2,2-8.73,1.11-10.95-1.48-4.3-8.49-8.36-16.36-7.26-1.48.25-5.78,4.43-6,5.66-.49,1.85-1.84,9.35,0,13.78C976,695.7,978.24,697.43,982.92,697.92Z"/><path class="cls-3" d="M1075,757a8.69,8.69,0,0,1,.13-3.57c.73-1.84,2.09-2,4.67-2.21.37,0,.74-.13,1.11-.13.73,0,2.33.13,4.18.25s3.44.12,4.18.12c5.66,0,8-.61,13.53-1.47,1.23-.74,1.84-1,2.34-2.83,1.6-5.66,2.46-17.35,2.09-24-1.6-.12-3-.24-4.55-.24-3-.13-6.15,0-9-.74a6,6,0,0,1-4.55-5.66c.12-3.44.61-6.89,1-10.21a121.66,121.66,0,0,0,1-14,1.83,1.83,0,0,0-.37-1c-.13,0-.62-.25-.74-.25-.74,0-3.32-.37-6.4-.86-1.23-.37-3.07-.74-3.07-2.46v-3.94c0-2.09,2.83-2.46,4.55-2.46h2.46c4.43,0,8.61.13,13.28-.86,3.32-.61,18.33-2,22.39-2l2.21-.24c2.71-.25,7.26-.62,8.12-.62.62.13,2.34,1.48,1.35,5.66a6,6,0,0,1-1.72,2.71l-.61.61c-.62.62-7,1.85-8.37,1.85-1.72,0-6.15.24-10.58.49s-8.73.49-10.57.49c-.86,0-1.11,1.11-1.48,2.21,0,.13-.12.25-.12.37-.62,3.2-2.22,12.43-1.85,17.72.37,2.82,2.71,2.7,4.18,2.7h9.11c1.6,0,3.07,0,5-.12a67.53,67.53,0,0,0,8.12-.86,24.64,24.64,0,0,0,3.56-1.48c2.1-.86,3.94-2,5.66-.49,2,1.72,3,3.94,1.72,5.29s-6.39,5.29-8.11,5.78-3.32.74-4.55,1c-2,.5-3.45,1-6.77,1.6,0,3.82-.12,11.2-.25,15.62,0,1.36-.12,3.32-.12,3.57a13.39,13.39,0,0,1-3,6.77c1.72-.25,3.32-.74,5-1,5.66-.24,7.38-.61,12.67-1l15-1.11a6.78,6.78,0,0,0,3.2-1.48c1.1-.86,2.21-1.84,3.69-1.59h.61c1.35.12,3.44.36,4.06,2,.25.74-.74,6.52-3,8.24-1.11.62-5,2.46-5.91,2.46-1.1,0-3.07.25-5.65.5l-19,2.21c-10,1-21.28,2.21-23.12,2.21-1.6,0-3.57,0-6,.13-3.2.12-4.43.37-8,.37a52.71,52.71,0,0,1-7.87-.5,6.72,6.72,0,0,0-1.48-.12c-1.85-.12-3.57-.24-3.57-2.21Z"/><path class="cls-3" d="M1162.86,684.88c1.6-1.72,5.91-.86,6.77-.37,3.69,2.21,7.5,4.8,9,7.63,0,0,2.09,4.3,2.09,5.9,0,4.43.12,11.07,1.47,14,.62,1.23,1.73,4.06,6.89,3,2-.36,13.16-2.21,18.08-3.81,1.36-.49,3.69-.61,4.43.86,1.11,2.22.49,8-1.35,8.24-3.08.5-3.94.86-7.87,1.6-1.23.25-7.26,1.23-8.86,1.6-6.89,1.48-17.34,1.6-18.94-.12-1.48-1.48-3.2-9.1-3.2-10.33,0-1.73.37-12.43-.25-13.78-1.84-4.43-6.88-7.63-8.85-9.35C1161.26,689.06,1162,685.74,1162.86,684.88Zm47.85,73.92c-.49-.49-2.71-1.35-3.69-.12-4.55,6.15-11.68,12.05-18.2,14.88-.87.25-5.29,1.48-7-.12-1.6-1.35-3-3-1-4.92,1.72-1.72,4.67-3.81,7-5.66l3-2.21c6.4-4.68,10.7-12.43,15-20l2.58-4.55c.86-1.48,2.22-2.95,4.19-2.95a11.84,11.84,0,0,1,4,.86c1.6.73,2.1,2.95,1.11,5.78a117.39,117.39,0,0,1-5.9,10.58c1.6,0,3.93.36,4.79,1l2.34,2c6.27,5.16,13.78,10.94,19.93,15.13,3.07,1.84,2.83,4.3,2.21,5.78l-2.09,2.46c-.49.74-4.92,1.35-6.89.12-3.93-2.71-8.36-6.76-12.79-10.58-3-2.58-5.9-5.16-8.61-7.25Zm17.59-15.86a21.6,21.6,0,0,1,.37-6.89l.49-2.95c0-1.73.25-7.75.61-13.78.25-5.66.62-20.91.62-22.51a18.2,18.2,0,0,1-5,2.09c-1,.37-3.32,1.11-3.32,1.11-2.22.37-13.66.74-16.12.37-1.6-.25-9.47-8.61,1.73-8.61,1,0,13.4-.86,15.25-1.23l2-1.11a24,24,0,0,0,6.89-4.8c1.36-1.35-1.35-8.85-2.21-10.7-1.35-2.7-5-5-8.49-6.39a3.08,3.08,0,0,1-1.47-2.46c-.13-1.23-.25-4.92.36-5.66,1-1.11,3.57-2.09,4.8-1.48,6.28,3.57,12.3,7.38,14.76,12.67,1.6,3.57,1.85,10.09,1.85,17,0,3.57,0,7.14-.13,10.34-.12,2.58-.12,4.92-.12,6.89-.12.36-.24,2.82-.37,4.05s-.24,2.34-.24,2.83c0,1-.37,4.06-.62,7.63-.37,5-.86,10.95-.86,13.78v7.62c0,1.35-2.46,3.57-3.57,3.57h-.73c-2,.12-5.91.12-6.4-1.23Z"/></g></g></svg>