<svg xmlns="http://www.w3.org/2000/svg" viewBox="0 0 4491.73 3392.59"><defs><style>.cls-1{fill:#fff;}.cls-2{fill:#ca8649;}.cls-3{fill:#ab733e;}.cls-4{fill:#f0c56d;}.cls-5{fill:#fff498;}.cls-6{fill:#e0e0e0;}.cls-7{fill:#ffeed5;}.cls-8{fill:#683c11;}.cls-9{fill:#ed7db0;}.cls-10{fill:#e83a59;}.cls-11{fill:#fff298;}</style></defs><title>Asset 13</title><g id="Layer_2" data-name="Layer 2"><g id="Layer_1-2" data-name="Layer 1"><rect class="cls-1" width="4491.73" height="3392.59"/><path class="cls-2" d="M2899.47,2749.44a42.94,42.94,0,0,1-4-7.5c-4.9-11.44,9.36-17.88,9.36-17.88s-1.61-1.47-1.94-10.52,2.61-12.85,6.76-19.74,16.93-13.94,24.36-13.64,15.29,1.39,22.46,14.91,2.32,20.22-1.43,28.63-14.37,12-14.37,12a25.24,25.24,0,0,1,1.92,8.8c.16,8.07-10.78,14.69-10.78,14.69,2.38,6.94-.47,12.67-2.89,17a12.85,12.85,0,0,1-10,6.31c1,4.17.69,8.83-2.93,12.89-8.57,9.59-15,1.6-15.1,1.51a2.14,2.14,0,0,1-.15-.28c-3.19,1.22-10.42.87-12.12-7.81-1.78-9.1,4.45-16.06,5.55-17.19-3-6.89-1-11.45-.75-12,.35-.67.17-4.55,6.1-10.24Z"/><path class="cls-3" d="M2904.84,2724.06a24.26,24.26,0,0,0,10.45,13.38,51.41,51.41,0,0,1,10.86,8.83c2.65,3,3.59,6.71,5,10.45a5.71,5.71,0,0,1,.65,2.46l2.59-1.83c.8-.56-1.23-4-1.53-4.62a29.63,29.63,0,0,0-4.37-6.85c-3.13-3.46-7.21-6-10.94-8.69a28,28,0,0,1-4.42-3.63,25.18,25.18,0,0,1-3.07-4.25c-.84-1.37-2.42-2.12-3.61-3.18A9.18,9.18,0,0,1,2904.84,2724.06Z"/><path class="cls-3" d="M2940.68,2735.69s-3.86-14.07-12.1-18.59-4.22-9.56-4.22-9.56l.4,2.71c.52,1.87,8.39,7.15,10.12,9.29,2.4,3,7,13.16,6.78,15.77Z"/><path class="cls-3" d="M2933.3,2704.7s.32,3.24-1,4.54-4.32,3-3.32,5.87,1.19,2,1.19,2-1.65-.86.81-3.75S2934.36,2710.37,2933.3,2704.7Z"/><path class="cls-3" d="M2898.15,2750.8s15.6,3.32,15.38,11.9,5.89,9.28,5.35,19.81h0s1.59-3.47.27-6.58c-3.21-7.57-4.57-11.94-4.48-13.18.15-2-1.37-10.39-15.2-13.31Z"/><path class="cls-3" d="M2894.13,2771.63l9.44,12.22a8.36,8.36,0,0,1-2.87,12.78s4.88-.33,6.45-4.38-2.39-11.21-6.88-14.76A38.31,38.31,0,0,1,2894.13,2771.63Z"/><path class="cls-4" d="M4290,2768.15c-3.19,4.08-6.29,6.2-10.48,8.68-2.51,1.48-5.39,2.15-8.15,3a36.79,36.79,0,0,1-10.68,1.59,36.37,36.37,0,0,1-13-2.42,36.79,36.79,0,0,1-8.25-4.47,26.74,26.74,0,0,1-7.8-7.64,33.81,33.81,0,0,1-5.59-10.82,36.65,36.65,0,0,1-1.73-11.67c.06-4.27-.18-8.18,1.42-12.28a33.4,33.4,0,0,1,4.18-7.82,47.11,47.11,0,0,1,6.83-7.62c2.81-2.36,6-5.26,9.32-6.43s6.39-2.45,10.58-2.35a56.64,56.64,0,0,1,13.12,1.74c4.31,1.1,8.88,2.47,12.7,5.23a41.73,41.73,0,0,1,11.53,12.78,34,34,0,0,1,3.93,11.61c.5,3-.15,6-.39,9a37.18,37.18,0,0,1-3.37,12.71C4292.46,2764.46,4293.07,2764.18,4290,2768.15Z"/><path class="cls-5" d="M4292.66,2761.24c-2.24,4.86-4.85,7.74-8.47,11.24-2.18,2.1-4.92,3.46-7.5,5a37.56,37.56,0,0,1-33.46,2.3c-4.28-1.76-5.32-2.19-9.68-5.81a35.2,35.2,0,0,1-8.22-9.57,38,38,0,0,1-4.53-11.34c-1-4.32-2.14-8.2-1.51-12.7a34.71,34.71,0,0,1,2.34-8.88,48.92,48.92,0,0,1,5.06-9.3c2.27-3,4.82-6.75,7.85-8.71s5.85-4,10.09-4.9a58.52,58.52,0,0,1,13.63-1.38c4.6.08,9.53.37,14.05,2.24A43.13,43.13,0,0,1,4287,2719.5a35.21,35.21,0,0,1,6.73,10.75c1.21,2.86,1.28,6,1.76,9.13a38.76,38.76,0,0,1-.36,13.61C4294.29,2756.93,4294.84,2756.49,4292.66,2761.24Z"/><path class="cls-4" d="M4289.74,2761.52c-2.39,4.71-5.07,7.45-8.77,10.76-2.21,2-5,3.23-7.56,4.61a37.47,37.47,0,0,1-10.37,3.71,37,37,0,0,1-22.66-2.67,27.34,27.34,0,0,1-9.32-6.08,34.7,34.7,0,0,1-7.74-9.72,37.51,37.51,0,0,1-4-11.34c-.78-4.28-1.81-8.15-1-12.56a34.39,34.39,0,0,1,2.63-8.66,47.1,47.1,0,0,1,5.33-9c2.34-2.92,5-6.47,8-8.29s5.91-3.72,10.13-4.45a57,57,0,0,1,13.46-.86c4.53.24,9.38.71,13.75,2.71a42.57,42.57,0,0,1,14.07,10.5,34.2,34.2,0,0,1,6.23,10.83c1.1,2.87,1,6,1.4,9.06a38,38,0,0,1-.85,13.39C4291.5,2757.34,4292.06,2756.93,4289.74,2761.52Z"/><path class="cls-1" d="M4283.1,2716.7c-.84,2-2.62,1.51-5.14,1.52a27.35,27.35,0,0,1-10.61-2.17,52.11,52.11,0,0,1-5.33-2.55,14.71,14.71,0,0,1-5.11-4.73,4.13,4.13,0,0,1-.39-4.19,7.76,7.76,0,0,1,1.76-2.51,9.43,9.43,0,0,1,3.87-2.08c1.87-.69,3.74-2,6.4-2.16a14.71,14.71,0,0,1,6.29.63c2.33,1,4.6,3.6,6.06,4.87s1.61,2.76,2.33,4.25a18.79,18.79,0,0,1,.74,3.92A9.44,9.44,0,0,1,4283.1,2716.7Z"/><path class="cls-6" d="M4267.3,2716.16a48.9,48.9,0,0,1-5.34-2.56,14.84,14.84,0,0,1-5.15-4.76,4.23,4.23,0,0,1-.41-4.31,8,8,0,0,1,1.79-2.54,9.23,9.23,0,0,1,3.76-2.06l.15,0c.55-.2,1.09-.46,1.66-.73a12.28,12.28,0,0,1,4.79-1.44,14.75,14.75,0,0,1,6.34.63,17.5,17.5,0,0,1,4.84,3.72c.45.44.88.86,1.25,1.18a6.2,6.2,0,0,1,1.84,3,12.57,12.57,0,0,0,.52,1.3,10.45,10.45,0,0,1,.61,2.91c0,.4.09.77.14,1.05a9.51,9.51,0,0,1-.88,5.27c-.71,1.73-2.15,1.68-4,1.62q-.61,0-1.29,0A27.66,27.66,0,0,1,4267.3,2716.16Zm7.49-17.59a14.52,14.52,0,0,0-6.23-.61,11.78,11.78,0,0,0-4.7,1.42c-.57.27-1.12.52-1.67.73l-.15,0a9.07,9.07,0,0,0-3.67,2,7.92,7.92,0,0,0-1.74,2.46,4,4,0,0,0,.38,4.08,14.67,14.67,0,0,0,5.07,4.69,48.6,48.6,0,0,0,5.32,2.54,27.15,27.15,0,0,0,10.56,2.16c.46,0,.88,0,1.3,0,1.85.07,3.07.11,3.72-1.46a9.27,9.27,0,0,0,.86-5.14c-.05-.28-.09-.66-.14-1.06a10.47,10.47,0,0,0-.58-2.83,11.73,11.73,0,0,1-.53-1.32,5.94,5.94,0,0,0-1.77-2.88c-.38-.33-.81-.75-1.27-1.2A17.27,17.27,0,0,0,4274.79,2698.57Z"/><path class="cls-4" d="M3644.71,3167.71c-8.68-8.74-22.06-13.39-35.26-13.49-8-.07-19.94,1.06-26.77,4.28-17.49,8.24-27.23,26.55-27.4,47.17-.11,13,3.36,23.46,11.19,32.64,9.44,11,22.47,20.58,38.13,20.71,14.35.11,31.31-5.28,40.78-14.6s13.63-21.11,13.75-35.45C3659.25,3193.49,3654.89,3178,3644.71,3167.71Zm-23.18,49.36c-2.74,4.06-6.14,6.63-10.59,7.49s-10.29-.8-14.35-3.53c-4.43-3-6.33-8.16-6.93-13.08a16,16,0,0,1,3-11.39c3.94-5.83,10.16-9.2,16.68-8.25,2.55.38,6.14,2.29,8.42,3.83a17.42,17.42,0,0,1,7.49,10.48C3626.17,3207.45,3624.48,3212.69,3621.53,3217.07Z"/><path class="cls-7" d="M3658.8,3206.47l-.48-1.68c-.48-1.69-1.92-2.72-.49-5.21l.16-1.74a14.27,14.27,0,0,0-2.84-9.9l-1.05-1.38a14.24,14.24,0,0,1-2.34-4.69l-.48-1.67a14.28,14.28,0,0,0-6.22-8.21l-1.48-.91a14.33,14.33,0,0,1-3.88-3.52l-1-1.39c-2.15-2.83-4.08-4.48-7.57-5.13l-2.55.14a7.53,7.53,0,0,1-5.24-2.61l-1.49-.92a14.25,14.25,0,0,0-10.12-1.87l-1.71.32a14.2,14.2,0,0,1-5.24,0l-1.71-.32a14.31,14.31,0,0,0-10.12,1.91l-1.48.92a14.07,14.07,0,0,1-4.88,1.9l-1.71.33c-3.49.66-7.55.16-9.69,3l-1.43,3.88c-1.06,1.41-1,2.56-2.54,3.49l-1.48.92c-2.69,1.68-2.89,3.18-3.59,5.93a4,4,0,0,1-1,1.77l-1.37,1.45a4.47,4.47,0,0,0-1,1.61,14.63,14.63,0,0,1-2.05,3.84l-1.05,1.39a14.2,14.2,0,0,0-2.8,9.91l.16,1.73a14.17,14.17,0,0,1-.47,5.22l-.48,1.67a11.77,11.77,0,0,0,.93,9,4.44,4.44,0,0,1,.27.72l.33,1.28a11.43,11.43,0,0,0,.54,1.52,14.24,14.24,0,0,1,1.12,4.35l.17,1.74a14.26,14.26,0,0,0,4.61,9.21l1.28,1.17a14.19,14.19,0,0,1,3.17,4.17l.78,1.56a14.23,14.23,0,0,0,7.62,6.92l1.62.63c1.65.63,2.86.13,4.16,1.32l1.78,1.8c2.63,2.39,5.87,4.51,9.42,4.5h1.74a14.16,14.16,0,0,1,5.15.95l1.62.63a14.24,14.24,0,0,0,9,.41,3.83,3.83,0,0,0,2-1.38l1-1.31a1.93,1.93,0,0,1,2.5-.5,5,5,0,0,0,2.55,1.15h1.74a14.3,14.3,0,0,0,9.6-3.74l1.28-1.17a14.29,14.29,0,0,1,4.45-2.77l1.62-.63a14.28,14.28,0,0,0,7.6-7l.77-1.56c.78-1.58,1.78-1.71,3.08-2.9l1.36-1.1a2.07,2.07,0,0,1,1.33-.48c5.56,0,2.93-6.7,3.24-10.11l.15-1.73a14.35,14.35,0,0,1,1.43-5l.77-1.56A14.22,14.22,0,0,0,3658.8,3206.47Zm-32.17,6.31-.36.59a5.9,5.9,0,0,0-.73,2l-.12.69a5.66,5.66,0,0,1-2.11,3.51l-.55.42a5.76,5.76,0,0,0-1.39,1.56l-.35.59a5.74,5.74,0,0,1-3.25,2.51l-.66.19a3,3,0,0,0-2.17.87l-.63.79a4.51,4.51,0,0,1-3.53.88l-.69,0a5.86,5.86,0,0,0-2.08.21l-.66.2a5.68,5.68,0,0,1-4.09-.33l-.62-.3a5.62,5.62,0,0,0-2-.55l-.69-.05a5.71,5.71,0,0,1-3.69-1.79l-.47-.51c-.36-1.08-1.05-.93-1.68-1.23l-.62-.3a5.7,5.7,0,0,1-2.8-3l-.26-.64a5.61,5.61,0,0,0-1.12-1.76l-.47-.51c-.93-1-3.6-2-2.14-3.64a.8.8,0,0,0,.21-.52l0-.7c0-.7.21-1-.05-1.68l-.25-.64a5.63,5.63,0,0,1,0-4.1l.24-.65a5.56,5.56,0,0,0,.36-2.06V3202a5.73,5.73,0,0,1,1.44-3.84l.46-.51a2.06,2.06,0,0,1,1-.46.74.74,0,0,0,.51-.87l-.12-.64a1.54,1.54,0,0,1,.13-1,5.6,5.6,0,0,1,2.51-2.56l.61-.31a5.43,5.43,0,0,0,1.65-1.28l.46-.52a5.89,5.89,0,0,1,3.84-1.6l1-.05c.7-.07.87-.56,1.5-.88l.61-.32a5.72,5.72,0,0,1,4.08-.42l.67.18a5.6,5.6,0,0,0,2.08.17l.69-.07a5.7,5.7,0,0,1,3.95,1.07l.56.42a5.85,5.85,0,0,0,1.59.82,3.32,3.32,0,0,1,.59.24l.47.24a1.45,1.45,0,0,0,.29.11,4.71,4.71,0,0,1,2.9,2.11l.37.58a5.91,5.91,0,0,0,1.42,1.53l.56.41a5.68,5.68,0,0,1,2.2,3.46l.13.68a5.85,5.85,0,0,0,.6,1.62,1.81,1.81,0,0,1,.21.73l.07.79a1.52,1.52,0,0,0,.27.76,3,3,0,0,1,.8,2.64l-.12.68c-.12.69.23,1,.36,1.68l.77,1.45C3628.59,3210.49,3627.36,3211.57,3626.63,3212.78Z"/><path class="cls-8" d="M3656.78,3184.21a2.06,2.06,0,0,0-2.8-.77l-24.36,13.8c2.18-2.09,4.49-4.26,6.54-6.18,3.78-3.55,7.69-7.22,10.51-10,1.54-1.53,2.66-2.7,3.42-3.58.91-1.05,2.15-2.49,1.28-4a2,2,0,0,0-1.34-1,2,2,0,0,0-1.64.34c-.07.05-7.08,5.08-14.67,10-5.54,3.6-9.37,5.85-12,7.24,3.41-3.54,7.93-8.32,11.75-12.84,7.83-9.24,8.64-12.53,7.46-14.62a2.05,2.05,0,0,0-3-.66c-.09.06-9.23,6.52-19,12.81-16.59,10.66-21.15,11.94-22.27,12.05a2.05,2.05,0,0,0-3.07,2.61,2.93,2.93,0,0,0,2,1.4c1.34.3,3.64.11,10.57-3.59,3.87-2.06,8.81-5,14.71-8.8,5.09-3.27,10-6.6,13.67-9.08-1.12,1.54-2.69,3.54-4.89,6.1-4.47,5.2-9.79,10.7-13,14l-1.39,1.44a6.76,6.76,0,0,1,2.09,1.49,7,7,0,0,1,2.64,2.16c.15.11.29.23.43.35l.31.24c.93-.41,2-1,3.31-1.63,2.67-1.43,6-3.39,9.83-5.85l-.49.46c-3.68,3.46-7.47,7-10.39,9.9a6.07,6.07,0,0,1,.24.59,7.59,7.59,0,0,1,.79,1.65,7.7,7.7,0,0,1,1.46,4.1L3656,3187A2.05,2.05,0,0,0,3656.78,3184.21Z"/><path class="cls-8" d="M3597.15,3187.37Z"/><path class="cls-8" d="M3637.68,3159.14a3.54,3.54,0,0,0-2.34-1.69c-2.52-.59-8,.27-28,12.37-12.38,7.49-26.63,17-37,24l-3.31,2.22q3.06-2.43,7.06-5.36c9.48-6.94,21.34-14.9,30.87-21.29,5.33-3.59,9.94-6.68,13.24-9,1.77-1.24,3.05-2.18,3.91-2.86a12.86,12.86,0,0,0,1.16-1,2.28,2.28,0,0,0,.58-2.87,2.4,2.4,0,0,0-1.54-1.16c-1.44-.36-3.89,0-17.76,8.07-8.33,4.86-18.44,11.15-27.37,16.7-3.75,2.33-7.56,4.7-10.85,6.72,4.14-4.34,9.26-9.52,13-13.35,2.85-2.89,5.31-5.39,7.12-7.26,1-1,1.68-1.76,2.16-2.28.83-.91,1.77-1.94,1-3.3a2,2,0,0,0-1.24-1c-.82-.23-1.32.05-2.23.55l-1.79,1c-1.29.73-3.09,1.74-5.33,3l-7.71,4.41a2.05,2.05,0,1,0,2.05,3.56l3.36-1.93-.32.32c-4.61,4.67-9.84,10-13.93,14.28-2.25,2.37-3.9,4.17-5.05,5.5-1.66,1.92-2.86,3.32-2,4.85a2.19,2.19,0,0,0,1.32,1c.89.22,1.66-.07,3.5-1.07,1.1-.6,2.62-1.48,4.64-2.69,3.77-2.27,8.94-5.48,14.42-8.89s11.14-6.93,16.71-10.32c-8.73,5.88-18.32,12.44-26.12,18.23a135.52,135.52,0,0,0-12.07,9.79c-2.95,2.8-5.47,5.73-4.07,8.21a2.16,2.16,0,0,0,1.35,1c1,.24,1.63,0,6.36-3.05,2.8-1.81,6.65-4.39,11.11-7.38,10.5-7,24.89-16.67,37.28-24.15,4.09-2.47,7.73-4.57,10.9-6.27-7.62,4.67-17.4,10.81-27,17.22-11.73,7.87-20.83,14.61-27,20-8.89,7.75-11.95,12.81-9.92,16.39a2.08,2.08,0,0,0,1.27,1,2.52,2.52,0,0,0,.54.08,6.33,6.33,0,0,0,2.63-1c1-.49,2.29-1.21,4-2.16,2.84-1.58,6.74-3.81,11.58-6.61s9.73-5.65,12.91-7.51a6.19,6.19,0,0,1,.64-2.73c0-.1,0-.21,0-.32a5.38,5.38,0,0,1,.44-2.33c-9.43,5.55-23.35,13.64-29.59,17,1.05-1.72,3.33-4.47,8.21-8.73,6.08-5.31,15-11.94,26.62-19.71,19.79-13.29,40.6-25.41,40.81-25.53A2.05,2.05,0,0,0,3637.68,3159.14Z"/><path class="cls-2" d="M931.34,3215a42.94,42.94,0,0,1-4-7.5c-4.91-11.44,9.36-17.88,9.36-17.88s-1.62-1.47-1.94-10.52,2.61-12.84,6.76-19.74,16.93-13.94,24.35-13.64,15.3,1.39,22.46,14.91,2.33,20.22-1.42,28.63-14.37,12-14.37,12a25.24,25.24,0,0,1,1.92,8.8c.16,8.07-10.78,14.69-10.78,14.69,2.37,6.94-.48,12.67-2.9,17a12.84,12.84,0,0,1-10,6.31c1,4.17.7,8.84-2.93,12.89-8.56,9.59-15,1.6-15.1,1.51s-.15-.28-.15-.28c-3.18,1.23-10.41.87-12.12-7.81-1.78-9.1,4.46-16,5.55-17.19-3-6.89-1-11.45-.74-11.95.34-.66.17-4.55,6.09-10.24Z"/><path class="cls-3" d="M936.71,3189.65A24.17,24.17,0,0,0,947.15,3203a51.78,51.78,0,0,1,10.87,8.83c2.64,3,3.59,6.71,5,10.45a5.85,5.85,0,0,1,.65,2.46l2.59-1.83c.79-.56-1.23-4-1.53-4.62a30,30,0,0,0-4.37-6.85c-3.14-3.46-7.22-6-10.94-8.69a27.55,27.55,0,0,1-4.42-3.63,25.81,25.81,0,0,1-3.08-4.25c-.83-1.37-2.41-2.12-3.6-3.18A8.46,8.46,0,0,1,936.71,3189.65Z"/><path class="cls-3" d="M972.55,3201.28s-3.86-14.07-12.1-18.59-4.23-9.56-4.23-9.56l.41,2.71c.52,1.87,8.39,7.16,10.11,9.29,2.41,3,7,13.16,6.79,15.78Z"/><path class="cls-3" d="M965.16,3170.29s.33,3.24-1,4.54-4.32,3-3.32,5.87,1.2,2,1.2,2-1.66-.86.8-3.75S966.23,3176,965.16,3170.29Z"/><path class="cls-3" d="M930,3216.39s15.61,3.33,15.39,11.9,5.89,9.28,5.34,19.81h0s1.6-3.47.28-6.58c-3.21-7.57-4.57-11.94-4.48-13.18.15-2-1.38-10.39-15.2-13.31Z"/><path class="cls-3" d="M926,3237.22l9.45,12.22a8.36,8.36,0,0,1-2.88,12.78s4.89-.33,6.46-4.38-2.39-11.2-6.89-14.76A38.88,38.88,0,0,1,926,3237.22Z"/><path class="cls-4" d="M2268.37,3233.74c-3.19,4.08-6.29,6.2-10.48,8.68-2.51,1.49-5.39,2.15-8.15,3a36.79,36.79,0,0,1-10.68,1.59,36.26,36.26,0,0,1-21.28-6.89,26.82,26.82,0,0,1-7.8-7.63,34,34,0,0,1-5.6-10.83,36.6,36.6,0,0,1-1.72-11.67c.06-4.27-.19-8.18,1.41-12.28a33.77,33.77,0,0,1,4.18-7.82,46.67,46.67,0,0,1,6.84-7.61c2.81-2.36,6-5.27,9.31-6.44s6.4-2.45,10.59-2.35a56.62,56.62,0,0,1,13.11,1.74c4.31,1.1,8.88,2.48,12.71,5.24a41.6,41.6,0,0,1,11.52,12.78,33.51,33.51,0,0,1,3.93,11.6c.5,3-.14,6-.38,9a37.58,37.58,0,0,1-3.37,12.71C2270.86,3230.05,2271.48,3229.77,2268.37,3233.74Z"/><path class="cls-5" d="M2271.07,3226.83c-2.24,4.87-4.86,7.75-8.48,11.24-2.17,2.1-4.92,3.46-7.5,5a37.93,37.93,0,0,1-10.37,4.16,37.52,37.52,0,0,1-13.71.68,37.9,37.9,0,0,1-9.37-2.53c-4.29-1.77-5.32-2.2-9.68-5.82a35.16,35.16,0,0,1-8.22-9.56,37.85,37.85,0,0,1-4.53-11.35c-1-4.31-2.14-8.19-1.52-12.7A35.26,35.26,0,0,1,2200,3197a48.37,48.37,0,0,1,5.06-9.3c2.27-3.05,4.82-6.75,7.84-8.71s5.86-4,10.1-4.89a57.33,57.33,0,0,1,13.62-1.38c4.61.07,9.54.36,14.05,2.23a42.93,42.93,0,0,1,14.66,10.11,34.83,34.83,0,0,1,6.73,10.75c1.22,2.87,1.28,6,1.76,9.13a38.75,38.75,0,0,1-.35,13.61C2272.69,3222.52,2273.25,3222.09,2271.07,3226.83Z"/><path class="cls-4" d="M2268.14,3227.11c-2.38,4.72-5.06,7.46-8.76,10.77-2.22,2-5,3.22-7.56,4.6a37.07,37.07,0,0,1-33,1,27.34,27.34,0,0,1-9.32-6.08,34.74,34.74,0,0,1-7.74-9.72,37.17,37.17,0,0,1-4-11.33c-.79-4.29-1.81-8.16-1-12.57a34.13,34.13,0,0,1,2.64-8.66,47.58,47.58,0,0,1,5.32-9c2.35-2.92,5-6.47,8-8.29s5.91-3.72,10.12-4.45a57.16,57.16,0,0,1,13.47-.86c4.53.24,9.37.71,13.75,2.71a42.43,42.43,0,0,1,14.06,10.5,34.54,34.54,0,0,1,6.24,10.83c1.09,2.87,1,6,1.39,9.06a38.18,38.18,0,0,1-.84,13.39C2269.9,3222.93,2270.46,3222.52,2268.14,3227.11Z"/><path class="cls-1" d="M2261.5,3182.3c-.83,2-2.61,1.5-5.13,1.51a27.32,27.32,0,0,1-10.61-2.17,49.17,49.17,0,0,1-5.33-2.55,14.62,14.62,0,0,1-5.11-4.73,4.14,4.14,0,0,1-.4-4.19,7.66,7.66,0,0,1,1.77-2.5,9.35,9.35,0,0,1,3.86-2.09c1.88-.69,3.74-2,6.41-2.16a14.89,14.89,0,0,1,6.29.63c2.33,1,4.59,3.6,6.06,4.87s1.6,2.76,2.33,4.25a18.13,18.13,0,0,1,.73,3.92A9.32,9.32,0,0,1,2261.5,3182.3Z"/><path class="cls-6" d="M2245.71,3181.75a48,48,0,0,1-5.34-2.56,14.87,14.87,0,0,1-5.16-4.76,4.23,4.23,0,0,1-.4-4.31,7.86,7.86,0,0,1,1.79-2.54,9.23,9.23,0,0,1,3.76-2.06l.15-.05c.54-.2,1.08-.46,1.65-.73a12.38,12.38,0,0,1,4.79-1.44,14.75,14.75,0,0,1,6.34.63,17.54,17.54,0,0,1,4.84,3.72c.46.44.89.86,1.26,1.18a6.34,6.34,0,0,1,1.84,3,10.55,10.55,0,0,0,.52,1.29,10.54,10.54,0,0,1,.6,2.92c.05.39.09.76.14,1a9.49,9.49,0,0,1-.87,5.27c-.72,1.74-2.15,1.68-4,1.62-.41,0-.83,0-1.28,0A27.44,27.44,0,0,1,2245.71,3181.75Zm7.49-17.59a14.57,14.57,0,0,0-6.24-.61,11.69,11.69,0,0,0-4.69,1.42c-.58.27-1.12.53-1.67.73l-.15.06a8.87,8.87,0,0,0-3.67,2,7.64,7.64,0,0,0-1.74,2.47,4,4,0,0,0,.38,4.07,14.58,14.58,0,0,0,5.07,4.69,47.52,47.52,0,0,0,5.31,2.54,27.2,27.2,0,0,0,10.57,2.16c.45,0,.88,0,1.29,0,1.85.07,3.08.11,3.73-1.46a9.36,9.36,0,0,0,.86-5.14c-.05-.28-.1-.66-.15-1.05a10.17,10.17,0,0,0-.58-2.84c-.21-.45-.37-.89-.53-1.32a5.94,5.94,0,0,0-1.77-2.88c-.37-.33-.8-.75-1.26-1.19A17.41,17.41,0,0,0,2253.2,3164.16Z"/><path class="cls-2" d="M1601.66,2700.2l3.17-3.28a5.94,5.94,0,0,1,7.33-2.13c4.91,1.83,22.15,8.55,25.84,33.95s-5.48,40.57-22.13,51.24-40.33,4.06-43.69,2.78-14.59-6.73-19.7-21.7c-4.36-12.77-8.66-32.22-4.45-42.56s12.31-17.68,21.8-20.34C1580,2695.31,1586,2693,1601.66,2700.2Z"/><path class="cls-8" d="M1603.69,2701.09s15.25,9.58,19.32,32.4-12.75,30.2-12.75,30.2-23.43,13.55-38.41-1.5-9.74-30.15-9.74-30.15,2.43-17.94,29.79-17.6,15.87,31.77,15.34,32.28-15.22,15.21-28.21-.39,9.44-16.06,9.44-16.06,6.26,2.42-1,4.76-1.79,8.66-.14,8.57,14.91,6.52,14.56-7.18-10.11-17-17.44-14.81-18.94,8.34-15.53,22.75,13.61,16.77,23.95,15.14,23.33-3.53,23.42-17.1-3.83-22.66-10.53-27.51-23.36-10.63-39.12.3-12.34,31.38-4.91,43.81,18.35,21.11,32.49,16.3,25.72-7.71,31.12-19.5,6.6-26.19-3.91-39.53S1603.69,2701.09,1603.69,2701.09Z"/><path class="cls-4" d="M289.09,2768.15c-3.18,4.08-6.28,6.2-10.47,8.68-2.52,1.48-5.4,2.15-8.15,3a36.79,36.79,0,0,1-10.68,1.59,36.37,36.37,0,0,1-13-2.42,36.79,36.79,0,0,1-8.25-4.47,26.74,26.74,0,0,1-7.8-7.64,33.81,33.81,0,0,1-5.59-10.82,36.37,36.37,0,0,1-1.73-11.67c.06-4.27-.18-8.18,1.41-12.28a34.16,34.16,0,0,1,4.18-7.82,47.64,47.64,0,0,1,6.84-7.62c2.81-2.36,6-5.26,9.31-6.43s6.4-2.45,10.59-2.35a56.62,56.62,0,0,1,13.11,1.74c4.32,1.1,8.89,2.47,12.71,5.23a41.73,41.73,0,0,1,11.53,12.78,34,34,0,0,1,3.93,11.61c.5,3-.15,6-.39,9a37.41,37.41,0,0,1-3.37,12.71C291.59,2764.46,292.2,2764.18,289.09,2768.15Z"/><path class="cls-5" d="M291.79,2761.24c-2.24,4.86-4.85,7.74-8.48,11.24-2.17,2.1-4.91,3.46-7.49,5a37.56,37.56,0,0,1-33.46,2.3c-4.28-1.76-5.32-2.19-9.68-5.81a35.2,35.2,0,0,1-8.22-9.57,38,38,0,0,1-4.53-11.34c-1-4.32-2.14-8.2-1.51-12.7a34.71,34.71,0,0,1,2.34-8.88,48.37,48.37,0,0,1,5.06-9.3c2.27-3,4.82-6.75,7.84-8.71s5.86-4,10.1-4.9a58.47,58.47,0,0,1,13.63-1.38c4.6.08,9.53.37,14,2.24a42.93,42.93,0,0,1,14.66,10.11,35.06,35.06,0,0,1,6.74,10.75c1.21,2.86,1.28,6,1.75,9.13a38.52,38.52,0,0,1-.35,13.61C293.42,2756.93,294,2756.49,291.79,2761.24Z"/><path class="cls-4" d="M288.86,2761.52c-2.38,4.71-5.06,7.45-8.76,10.76-2.22,2-5,3.23-7.56,4.61a37.47,37.47,0,0,1-10.37,3.71,37,37,0,0,1-22.66-2.67c-4.16-1.9-5.16-2.36-9.32-6.08a34.7,34.7,0,0,1-7.74-9.72,37.24,37.24,0,0,1-4-11.34c-.79-4.28-1.81-8.15-1-12.56a34.39,34.39,0,0,1,2.63-8.66,47.58,47.58,0,0,1,5.32-9c2.35-2.92,5-6.47,8-8.29s5.91-3.72,10.12-4.45A57.16,57.16,0,0,1,257,2707c4.53.24,9.38.71,13.75,2.71a42.57,42.57,0,0,1,14.07,10.5A34.4,34.4,0,0,1,291,2731c1.09,2.87,1,6,1.4,9.06a38.42,38.42,0,0,1-.85,13.39C290.62,2757.34,291.18,2756.93,288.86,2761.52Z"/><path class="cls-1" d="M282.23,2716.7c-.84,2-2.62,1.51-5.14,1.52a27.35,27.35,0,0,1-10.61-2.17,52.11,52.11,0,0,1-5.33-2.55,14.62,14.62,0,0,1-5.11-4.73,4.11,4.11,0,0,1-.39-4.19,7.76,7.76,0,0,1,1.76-2.51,9.43,9.43,0,0,1,3.87-2.08c1.87-.69,3.74-2,6.4-2.16a14.73,14.73,0,0,1,6.29.63c2.33,1,4.59,3.6,6.06,4.87s1.6,2.76,2.33,4.25a18.13,18.13,0,0,1,.73,3.92A9.35,9.35,0,0,1,282.23,2716.7Z"/><path class="cls-6" d="M266.43,2716.16a48,48,0,0,1-5.34-2.56,14.75,14.75,0,0,1-5.15-4.76,4.23,4.23,0,0,1-.41-4.31,8,8,0,0,1,1.79-2.54,9.23,9.23,0,0,1,3.76-2.06l.15,0c.55-.2,1.08-.46,1.65-.73a12.38,12.38,0,0,1,4.79-1.44,14.8,14.8,0,0,1,6.35.63,17.31,17.31,0,0,1,4.83,3.72c.46.44.89.86,1.26,1.18a6.2,6.2,0,0,1,1.84,3,12.57,12.57,0,0,0,.52,1.3,10.46,10.46,0,0,1,.6,2.91c.05.4.1.77.15,1.05a9.59,9.59,0,0,1-.88,5.27c-.71,1.73-2.15,1.68-4,1.62-.41,0-.83,0-1.28,0A27.66,27.66,0,0,1,266.43,2716.16Zm7.49-17.59a14.57,14.57,0,0,0-6.24-.61,11.69,11.69,0,0,0-4.69,1.42c-.58.27-1.12.52-1.67.73l-.15,0a9.07,9.07,0,0,0-3.67,2,7.76,7.76,0,0,0-1.74,2.46,4,4,0,0,0,.38,4.08,14.58,14.58,0,0,0,5.07,4.69,48.6,48.6,0,0,0,5.32,2.54,27.11,27.11,0,0,0,10.56,2.16c.46,0,.88,0,1.29,0,1.86.07,3.08.11,3.73-1.46a9.36,9.36,0,0,0,.86-5.14c-.05-.28-.09-.66-.14-1.06a10.86,10.86,0,0,0-.58-2.83,11.73,11.73,0,0,1-.53-1.32,5.94,5.94,0,0,0-1.77-2.88c-.38-.33-.81-.75-1.27-1.2A17.42,17.42,0,0,0,273.92,2698.57Z"/><path class="cls-2" d="M2887.77,687.25a42.27,42.27,0,0,1-4-7.5c-4.91-11.44,9.36-17.88,9.36-17.88s-1.62-1.47-1.95-10.52,2.61-12.85,6.77-19.74,16.92-13.94,24.35-13.64,15.29,1.39,22.46,14.91,2.32,20.22-1.42,28.63-14.38,12-14.38,12a25.25,25.25,0,0,1,1.93,8.8c.16,8.07-10.78,14.69-10.78,14.69,2.37,6.94-.48,12.67-2.9,17a12.84,12.84,0,0,1-10,6.31c1,4.17.7,8.84-2.93,12.89-8.57,9.59-15,1.6-15.1,1.51a2.14,2.14,0,0,1-.15-.28c-3.19,1.22-10.42.87-12.12-7.81-1.78-9.1,4.46-16.06,5.55-17.19-3-6.89-1-11.45-.75-12,.35-.66.17-4.55,6.1-10.24Z"/><path class="cls-3" d="M2893.14,661.87a24.2,24.2,0,0,0,10.44,13.38,51.72,51.72,0,0,1,10.87,8.83c2.64,3,3.58,6.71,5,10.45a5.87,5.87,0,0,1,.66,2.46l2.59-1.83c.79-.56-1.24-4-1.53-4.62a29.67,29.67,0,0,0-4.38-6.85c-3.13-3.46-7.21-6-10.93-8.69a27.12,27.12,0,0,1-4.42-3.63,25.24,25.24,0,0,1-3.08-4.25c-.84-1.37-2.42-2.12-3.6-3.18A8.65,8.65,0,0,1,2893.14,661.87Z"/><path class="cls-3" d="M2929,673.5s-3.85-14.07-12.1-18.59-4.22-9.56-4.22-9.56l.4,2.71c.52,1.87,8.4,7.15,10.12,9.29,2.4,3,7,13.16,6.78,15.77Z"/><path class="cls-3" d="M2921.59,642.51s.32,3.24-1,4.54-4.32,3-3.32,5.87,1.2,2,1.2,2-1.66-.86.8-3.75S2922.66,648.18,2921.59,642.51Z"/><path class="cls-3" d="M2886.44,688.61s15.6,3.32,15.38,11.9,5.9,9.28,5.35,19.81h0s1.59-3.47.28-6.58c-3.21-7.57-4.57-11.94-4.48-13.18.15-2-1.38-10.39-15.2-13.31Z"/><path class="cls-3" d="M2882.42,709.44l9.45,12.22a8.36,8.36,0,0,1-2.88,12.78s4.88-.33,6.45-4.38-2.39-11.21-6.88-14.76A38.31,38.31,0,0,1,2882.42,709.44Z"/><path class="cls-4" d="M4278.26,706c-3.19,4.08-6.29,6.2-10.48,8.68-2.51,1.49-5.39,2.15-8.15,3a36.79,36.79,0,0,1-10.68,1.59,36.26,36.26,0,0,1-21.28-6.89,26.84,26.84,0,0,1-7.81-7.63,34.16,34.16,0,0,1-5.59-10.83,36.93,36.93,0,0,1-1.73-11.67c.07-4.27-.18-8.18,1.42-12.28a33.77,33.77,0,0,1,4.18-7.82,47.59,47.59,0,0,1,6.83-7.62c2.82-2.36,6-5.26,9.32-6.43s6.39-2.45,10.59-2.35a56.62,56.62,0,0,1,13.11,1.74c4.31,1.1,8.88,2.47,12.71,5.23a41.74,41.74,0,0,1,11.52,12.79,33.44,33.44,0,0,1,3.93,11.6c.5,3-.14,6-.39,9a37.39,37.39,0,0,1-3.36,12.71C4280.75,702.27,4281.37,702,4278.26,706Z"/><path class="cls-5" d="M4281,699.05c-2.24,4.86-4.86,7.75-8.48,11.24-2.18,2.1-4.92,3.46-7.5,5a37.68,37.68,0,0,1-24.08,4.84,37.49,37.49,0,0,1-9.37-2.54c-4.29-1.76-5.33-2.19-9.68-5.81a35,35,0,0,1-8.22-9.57,37.69,37.69,0,0,1-4.53-11.34c-1-4.32-2.15-8.2-1.52-12.7a35.55,35.55,0,0,1,2.34-8.88A49,49,0,0,1,4215,660c2.27-3.05,4.82-6.75,7.84-8.71s5.86-4,10.1-4.9a57.83,57.83,0,0,1,13.62-1.37c4.61.07,9.54.36,14.05,2.23a43,43,0,0,1,14.66,10.11,34.83,34.83,0,0,1,6.73,10.75c1.22,2.87,1.28,6,1.76,9.13a38.76,38.76,0,0,1-.35,13.61C4282.58,694.74,4283.13,694.3,4281,699.05Z"/><path class="cls-4" d="M4278,699.33c-2.38,4.71-5.06,7.45-8.76,10.77-2.22,2-5,3.22-7.56,4.6a37.25,37.25,0,0,1-23.9,3.88,36.86,36.86,0,0,1-9.14-2.84,27.34,27.34,0,0,1-9.32-6.08,34.74,34.74,0,0,1-7.74-9.72,37.41,37.41,0,0,1-4-11.34c-.78-4.28-1.8-8.15-1-12.56a34.51,34.51,0,0,1,2.63-8.66,48.16,48.16,0,0,1,5.33-9c2.35-2.92,5-6.47,8-8.29s5.92-3.72,10.13-4.45a57.13,57.13,0,0,1,13.47-.86c4.53.24,9.37.71,13.75,2.71A42.43,42.43,0,0,1,4274,658a34.44,34.44,0,0,1,6.24,10.83c1.09,2.87,1,6,1.39,9.06a38.18,38.18,0,0,1-.84,13.39C4279.79,695.15,4280.35,694.74,4278,699.33Z"/><path class="cls-1" d="M4271.39,654.51c-.83,2-2.61,1.51-5.14,1.52a27.38,27.38,0,0,1-10.61-2.17,49.89,49.89,0,0,1-5.32-2.55,14.75,14.75,0,0,1-5.12-4.73,4.13,4.13,0,0,1-.39-4.19,7.66,7.66,0,0,1,1.77-2.5,9.35,9.35,0,0,1,3.86-2.09c1.88-.69,3.74-2,6.41-2.16a14.73,14.73,0,0,1,6.29.63c2.32,1,4.59,3.6,6.06,4.87s1.6,2.76,2.33,4.25a18.13,18.13,0,0,1,.73,3.92A9.44,9.44,0,0,1,4271.39,654.51Z"/><path class="cls-6" d="M4255.6,654a48,48,0,0,1-5.34-2.56,14.78,14.78,0,0,1-5.16-4.76,4.23,4.23,0,0,1-.4-4.31,7.71,7.71,0,0,1,1.79-2.54,9.17,9.17,0,0,1,3.76-2.06l.15,0c.54-.2,1.08-.46,1.65-.73a12.38,12.38,0,0,1,4.79-1.44,14.75,14.75,0,0,1,6.34.63,17.35,17.35,0,0,1,4.84,3.72c.46.44.89.86,1.26,1.18a6.34,6.34,0,0,1,1.84,3,11.23,11.23,0,0,0,.52,1.29,10.83,10.83,0,0,1,.6,2.91c.05.4.09.77.14,1a9.49,9.49,0,0,1-.87,5.27c-.72,1.73-2.15,1.68-4,1.62-.41,0-.83,0-1.28,0A27.62,27.62,0,0,1,4255.6,654Zm7.49-17.59a14.57,14.57,0,0,0-6.24-.61,11.69,11.69,0,0,0-4.69,1.42c-.58.27-1.12.53-1.68.73l-.15.05a9,9,0,0,0-3.66,2,7.6,7.6,0,0,0-1.74,2.46,4,4,0,0,0,.38,4.08,14.58,14.58,0,0,0,5.07,4.69,47.52,47.52,0,0,0,5.31,2.54,27.19,27.19,0,0,0,10.56,2.16c.46,0,.89,0,1.3,0,1.85.07,3.08.11,3.73-1.46a9.36,9.36,0,0,0,.86-5.14c-.06-.28-.1-.66-.15-1.06a10.17,10.17,0,0,0-.58-2.83,11.73,11.73,0,0,1-.53-1.32,5.94,5.94,0,0,0-1.77-2.88c-.37-.33-.81-.75-1.26-1.2A17.57,17.57,0,0,0,4263.09,636.38Z"/><path class="cls-2" d="M3603.77,122.16l3.17-3.28a6,6,0,0,1,7.33-2.14c4.91,1.84,22.16,8.56,25.85,34s-5.49,40.58-22.14,51.25-40.33,4.06-43.68,2.78-14.6-6.73-19.71-21.7c-4.35-12.77-8.65-32.22-4.45-42.56s12.32-17.68,21.8-20.34C3582.06,117.27,3588.11,114.94,3603.77,122.16Z"/><path class="cls-8" d="M3605.81,123s15.25,9.58,19.31,32.41-12.75,30.2-12.75,30.2-23.43,13.55-38.4-1.5-9.75-30.15-9.75-30.15,2.43-17.94,29.79-17.6,15.87,31.77,15.34,32.28-15.21,15.21-28.2-.4,9.43-16.06,9.43-16.06,6.27,2.43-1,4.77-1.79,8.66-.14,8.57,14.92,6.51,14.56-7.18-10.1-16.95-17.43-14.81-18.94,8.33-15.54,22.75,13.61,16.77,23.95,15.13,23.34-3.53,23.42-17.09-3.82-22.66-10.52-27.51-23.36-10.63-39.13.3-12.33,31.37-4.91,43.81,18.35,21.11,32.5,16.3,25.72-7.71,31.12-19.51,6.59-26.18-3.91-39.52S3605.81,123,3605.81,123Z"/><path class="cls-4" d="M3633,1163.39c-8.67-8.74-22.05-13.39-35.25-13.49-8.06-.07-19.95,1.06-26.78,4.28-17.49,8.24-27.23,26.55-27.39,47.17-.11,13,3.35,23.46,11.19,32.64,9.43,11,22.46,20.58,38.13,20.71,14.34.11,31.3-5.28,40.78-14.6s13.62-21.11,13.74-35.45C3647.55,1189.17,3643.18,1173.63,3633,1163.39Zm-23.18,49.36c-2.73,4.06-6.14,6.63-10.59,7.49s-10.29-.8-14.34-3.53c-4.43-3-6.34-8.16-6.94-13.08a16,16,0,0,1,3-11.39c3.93-5.83,10.15-9.2,16.68-8.25,2.54.38,6.14,2.29,8.42,3.83a17.37,17.37,0,0,1,7.48,10.48C3614.46,1203.13,3612.77,1208.37,3609.82,1212.75Z"/><path class="cls-7" d="M3647.1,1202.14l-.48-1.67c-.49-1.69-1.93-2.72-.49-5.21l.15-1.74a14.26,14.26,0,0,0-2.83-9.9l-1-1.38a14.27,14.27,0,0,1-2.35-4.69l-.48-1.67a14.2,14.2,0,0,0-6.22-8.21l-1.48-.91a14.48,14.48,0,0,1-3.88-3.52l-1-1.39c-2.14-2.83-4.07-4.48-7.57-5.13l-2.54.14a7.55,7.55,0,0,1-5.25-2.61l-1.48-.92a14.29,14.29,0,0,0-10.13-1.87l-1.71.32a14.2,14.2,0,0,1-5.24,0l-1.71-.32a14.32,14.32,0,0,0-10.12,1.91l-1.47.92a14.2,14.2,0,0,1-4.89,1.9l-1.71.33c-3.49.66-7.55.16-9.69,3l-1.42,3.88c-1.06,1.41-1.05,2.56-2.54,3.49l-1.48.92c-2.7,1.68-2.89,3.18-3.59,5.93a4.08,4.08,0,0,1-1,1.77L3552,1177a4.62,4.62,0,0,0-1,1.61,14.07,14.07,0,0,1-2.05,3.84l-1.05,1.39a14.3,14.3,0,0,0-2.8,9.91l.17,1.73a14.39,14.39,0,0,1-.48,5.22l-.47,1.67a11.77,11.77,0,0,0,.92,9,3.67,3.67,0,0,1,.27.72l.34,1.28a9.16,9.16,0,0,0,.54,1.52,14.24,14.24,0,0,1,1.12,4.35l.16,1.74a14.3,14.3,0,0,0,4.61,9.21l1.29,1.17a14.33,14.33,0,0,1,3.16,4.17l.78,1.56a14.26,14.26,0,0,0,7.62,6.92l1.63.63c1.64.63,2.85.13,4.15,1.32l1.78,1.8c2.63,2.39,5.87,4.51,9.42,4.5h1.74a14.16,14.16,0,0,1,5.15,1l1.63.63a14.2,14.2,0,0,0,9,.41,3.82,3.82,0,0,0,2-1.38l1-1.31a1.92,1.92,0,0,1,2.49-.5,5,5,0,0,0,2.55,1.15h1.74a14.26,14.26,0,0,0,9.6-3.74l1.28-1.17a14.29,14.29,0,0,1,4.45-2.77l1.63-.63a14.26,14.26,0,0,0,7.59-6.95l.77-1.56c.79-1.58,1.78-1.71,3.08-2.9l1.36-1.1a2.11,2.11,0,0,1,1.33-.48c5.56,0,2.93-6.7,3.24-10.11l.16-1.73a14.34,14.34,0,0,1,1.42-5l.78-1.56A14.29,14.29,0,0,0,3647.1,1202.14Zm-32.17,6.32-.36.59a5.69,5.69,0,0,0-.73,2l-.12.69a5.72,5.72,0,0,1-2.12,3.51l-.55.42a5.72,5.72,0,0,0-1.38,1.56l-.36.59a5.72,5.72,0,0,1-3.24,2.51l-.67.19a3,3,0,0,0-2.16.87l-.64.79a4.51,4.51,0,0,1-3.53.88l-.69,0a5.78,5.78,0,0,0-2.07.21l-.67.2a5.65,5.65,0,0,1-4.08-.33l-.63-.3a5.62,5.62,0,0,0-2-.55l-.69,0a5.74,5.74,0,0,1-3.69-1.79l-.47-.51c-.36-1.08-1.05-.93-1.68-1.23l-.62-.3a5.74,5.74,0,0,1-2.8-3l-.25-.64a5.61,5.61,0,0,0-1.12-1.76l-.47-.51c-.93-1-3.61-2-2.14-3.64a.85.85,0,0,0,.21-.52l0-.7c0-.7.22-1,0-1.68l-.26-.64a5.69,5.69,0,0,1,0-4.1l.25-.65a6,6,0,0,0,.36-2.06v-.69a5.67,5.67,0,0,1,1.43-3.84l.46-.51a2.1,2.1,0,0,1,1-.46.76.76,0,0,0,.52-.87l-.13-.64a1.54,1.54,0,0,1,.13-1,5.65,5.65,0,0,1,2.51-2.56l.62-.31a5.69,5.69,0,0,0,1.65-1.28l.46-.52a5.87,5.87,0,0,1,3.83-1.6l1-.05c.69-.07.87-.56,1.49-.88l.62-.32a5.69,5.69,0,0,1,4.07-.42l.67.18a5.62,5.62,0,0,0,2.08.17l.69-.07a5.67,5.67,0,0,1,3.95,1.07l.56.42a5.85,5.85,0,0,0,1.59.82,3.75,3.75,0,0,1,.6.24l.46.24a1.45,1.45,0,0,0,.29.11,4.71,4.71,0,0,1,2.9,2.11l.38.58a5.59,5.59,0,0,0,1.42,1.53l.56.41a5.67,5.67,0,0,1,2.19,3.46l.14.68a5.53,5.53,0,0,0,.59,1.62,1.83,1.83,0,0,1,.22.73l.06.79a1.62,1.62,0,0,0,.27.76,3,3,0,0,1,.8,2.64l-.12.68c-.12.69.23,1,.37,1.68l.77,1.45C3616.88,1206.17,3615.66,1207.25,3614.93,1208.46Z"/><path class="cls-8" d="M3645.07,1179.89a2.06,2.06,0,0,0-2.8-.77l-24.36,13.8c2.19-2.09,4.5-4.26,6.55-6.18,3.78-3.55,7.68-7.22,10.5-10,1.54-1.53,2.66-2.7,3.42-3.58.91-1.05,2.16-2.49,1.29-4a2.06,2.06,0,0,0-3-.65c-.07,0-7.08,5.08-14.66,10-5.54,3.6-9.37,5.84-12,7.24,3.4-3.54,7.92-8.32,11.75-12.84,7.82-9.24,8.64-12.53,7.45-14.62a2,2,0,0,0-1.34-1,2,2,0,0,0-1.63.33c-.09.06-9.23,6.52-19,12.81-16.59,10.66-21.15,11.94-22.27,12a2.05,2.05,0,0,0-3.07,2.61,3,3,0,0,0,2,1.4c1.34.3,3.65.11,10.57-3.59,3.87-2.06,8.82-5,14.71-8.8,5.09-3.27,10-6.6,13.67-9.09-1.12,1.55-2.69,3.55-4.89,6.11-4.47,5.2-9.79,10.7-13,14l-1.39,1.44a6.92,6.92,0,0,1,2.1,1.49,7,7,0,0,1,2.64,2.16l.42.35.31.24c.94-.41,2-1,3.32-1.63,2.66-1.43,6-3.39,9.83-5.85l-.49.46c-3.68,3.46-7.48,7-10.4,9.9.09.19.17.39.25.59a8,8,0,0,1,.78,1.65,7.71,7.71,0,0,1,1.47,4.1l30.55-17.3A2.06,2.06,0,0,0,3645.07,1179.89Z"/><path class="cls-8" d="M3585.44,1183.05Z"/><path class="cls-8" d="M3626,1154.82a3.56,3.56,0,0,0-2.35-1.69c-2.52-.59-8,.27-28,12.37-12.37,7.49-26.62,17-37,24l-3.31,2.22c2-1.62,4.41-3.41,7.07-5.36,9.48-6.94,21.33-14.9,30.86-21.29,5.33-3.59,9.94-6.68,13.24-9,1.77-1.24,3.05-2.18,3.91-2.86a11.92,11.92,0,0,0,1.17-1,2.27,2.27,0,0,0,.57-2.87,2.4,2.4,0,0,0-1.54-1.16c-1.44-.36-3.88,0-17.76,8.07-8.33,4.86-18.44,11.15-27.36,16.7-3.76,2.33-7.56,4.7-10.86,6.72,4.15-4.34,9.26-9.52,13-13.35,2.85-2.89,5.31-5.39,7.12-7.26,1-1,1.69-1.76,2.17-2.28.83-.91,1.77-1.94,1-3.3a2,2,0,0,0-1.25-1c-.82-.23-1.32,0-2.23.55l-1.79,1-5.33,3c-3.86,2.2-7.7,4.41-7.7,4.41a2.05,2.05,0,1,0,2,3.56l3.36-1.93-.31.32c-4.61,4.67-9.84,10-13.93,14.28-2.26,2.37-3.91,4.17-5,5.5-1.66,1.92-2.86,3.32-2,4.85a2.14,2.14,0,0,0,1.32,1c.89.22,1.65-.07,3.5-1.07,1.09-.6,2.61-1.48,4.63-2.69,3.77-2.27,9-5.48,14.42-8.89s11.15-6.93,16.72-10.32c-8.73,5.88-18.33,12.44-26.12,18.23a136,136,0,0,0-12.08,9.79c-2.94,2.8-5.47,5.73-4.06,8.21a2.12,2.12,0,0,0,1.34,1c1,.24,1.63,0,6.37-3,2.79-1.81,6.65-4.39,11.11-7.38,10.5-7,24.88-16.67,37.27-24.15,4.09-2.47,7.74-4.57,10.9-6.27-7.62,4.67-17.4,10.81-27,17.22-11.73,7.87-20.82,14.61-27,20-8.88,7.75-11.94,12.81-9.91,16.39a2.06,2.06,0,0,0,1.27,1,1.93,1.93,0,0,0,.53.07,6.16,6.16,0,0,0,2.64-1c.94-.49,2.29-1.21,4-2.16,2.84-1.58,6.74-3.81,11.59-6.61s9.72-5.65,12.91-7.51a6,6,0,0,1,.63-2.73c0-.1,0-.21,0-.32a5.39,5.39,0,0,1,.45-2.33c-9.43,5.55-23.35,13.63-29.6,17,1.05-1.72,3.33-4.47,8.21-8.73,6.09-5.31,15-11.94,26.62-19.71,19.79-13.29,40.61-25.41,40.81-25.53A2.06,2.06,0,0,0,3626,1154.82Z"/><path class="cls-2" d="M919.64,1210.71a42.21,42.21,0,0,1-4-7.5c-4.9-11.44,9.36-17.88,9.36-17.88s-1.61-1.47-1.94-10.52,2.61-12.84,6.76-19.74,16.93-13.94,24.36-13.64,15.29,1.39,22.46,14.91,2.32,20.22-1.43,28.63-14.37,12-14.37,12a25.24,25.24,0,0,1,1.92,8.8c.16,8.07-10.78,14.69-10.78,14.69,2.38,6.94-.47,12.67-2.89,17a12.85,12.85,0,0,1-10.05,6.31c1,4.17.69,8.84-2.93,12.89-8.57,9.59-15,1.6-15.1,1.51a2.14,2.14,0,0,1-.15-.28c-3.19,1.23-10.42.87-12.12-7.81-1.78-9.1,4.45-16,5.55-17.19-3-6.89-1-11.45-.75-12,.35-.66.17-4.55,6.1-10.24Z"/><path class="cls-3" d="M925,1185.33a24.23,24.23,0,0,0,10.45,13.38,51.72,51.72,0,0,1,10.86,8.83c2.65,3,3.59,6.71,5,10.45a5.71,5.71,0,0,1,.65,2.46l2.6-1.83c.79-.56-1.24-4-1.54-4.62a29.63,29.63,0,0,0-4.37-6.85c-3.13-3.46-7.21-6-10.94-8.69a28,28,0,0,1-4.42-3.63,25.75,25.75,0,0,1-3.07-4.25c-.84-1.37-2.42-2.12-3.61-3.18A9.18,9.18,0,0,1,925,1185.33Z"/><path class="cls-3" d="M960.84,1197s-3.86-14.07-12.1-18.59-4.22-9.56-4.22-9.56l.4,2.71c.52,1.87,8.39,7.16,10.12,9.29,2.4,3,7,13.16,6.78,15.78Z"/><path class="cls-3" d="M953.46,1166s.32,3.24-1,4.54-4.32,3-3.32,5.87,1.19,2,1.19,2-1.65-.86.81-3.75S954.52,1171.64,953.46,1166Z"/><path class="cls-3" d="M918.31,1212.07s15.6,3.32,15.38,11.9,5.89,9.28,5.35,19.81h0s1.59-3.47.27-6.58c-3.21-7.57-4.57-11.94-4.48-13.18.15-2-1.37-10.39-15.19-13.31Z"/><path class="cls-3" d="M914.29,1232.9l9.44,12.22a8.36,8.36,0,0,1-2.87,12.78s4.88-.33,6.45-4.38-2.39-11.2-6.88-14.76A38.31,38.31,0,0,1,914.29,1232.9Z"/><path class="cls-4" d="M2256.67,1229.42c-3.19,4.08-6.29,6.2-10.48,8.68-2.51,1.49-5.4,2.15-8.15,3a36.79,36.79,0,0,1-10.68,1.59,36.33,36.33,0,0,1-21.29-6.89,26.82,26.82,0,0,1-7.8-7.63,34,34,0,0,1-5.59-10.83,36.61,36.61,0,0,1-1.73-11.67c.06-4.27-.18-8.18,1.41-12.28a34.16,34.16,0,0,1,4.18-7.82,47.64,47.64,0,0,1,6.84-7.62c2.81-2.35,6-5.26,9.31-6.43s6.4-2.45,10.59-2.35a56.78,56.78,0,0,1,13.12,1.74c4.31,1.1,8.88,2.48,12.7,5.24a41.51,41.51,0,0,1,11.53,12.78,33.93,33.93,0,0,1,3.93,11.6c.5,3-.15,6-.39,9a37.35,37.35,0,0,1-3.37,12.71C2259.16,1225.73,2259.77,1225.45,2256.67,1229.42Z"/><path class="cls-5" d="M2259.36,1222.51c-2.24,4.87-4.85,7.75-8.48,11.24-2.17,2.1-4.91,3.46-7.49,5a38.06,38.06,0,0,1-10.37,4.16,37.53,37.53,0,0,1-13.71.68,38,38,0,0,1-9.38-2.53c-4.28-1.77-5.32-2.2-9.68-5.82a35,35,0,0,1-8.22-9.57,38,38,0,0,1-4.53-11.34c-1-4.32-2.14-8.19-1.51-12.7a34.71,34.71,0,0,1,2.34-8.88,48.37,48.37,0,0,1,5.06-9.3c2.27-3.05,4.82-6.75,7.84-8.71s5.86-4,10.1-4.9a57.91,57.91,0,0,1,13.63-1.37c4.6.07,9.53.36,14,2.23a43.07,43.07,0,0,1,14.67,10.11,35.21,35.21,0,0,1,6.73,10.75c1.21,2.87,1.28,6,1.75,9.13a38.52,38.52,0,0,1-.35,13.61C2261,1218.2,2261.54,1217.77,2259.36,1222.51Z"/><path class="cls-4" d="M2256.43,1222.79c-2.38,4.72-5.06,7.46-8.76,10.77-2.22,2-5,3.22-7.56,4.6a37.15,37.15,0,0,1-10.37,3.71,37,37,0,0,1-22.66-2.67,27.34,27.34,0,0,1-9.32-6.08,34.56,34.56,0,0,1-7.74-9.72,37.15,37.15,0,0,1-4.05-11.34c-.79-4.28-1.81-8.15-1-12.56a34.51,34.51,0,0,1,2.63-8.66,47.58,47.58,0,0,1,5.32-9c2.35-2.92,5-6.47,8-8.29s5.91-3.72,10.12-4.45a57.16,57.16,0,0,1,13.47-.86c4.53.24,9.38.71,13.75,2.71a42.57,42.57,0,0,1,14.07,10.5,34.31,34.31,0,0,1,6.23,10.83c1.09,2.87,1,6,1.4,9.06a38.42,38.42,0,0,1-.85,13.39C2258.19,1218.61,2258.75,1218.2,2256.43,1222.79Z"/><path class="cls-1" d="M2249.8,1178c-.84,2-2.62,1.51-5.14,1.52a27.35,27.35,0,0,1-10.61-2.17,50.09,50.09,0,0,1-5.33-2.55,14.62,14.62,0,0,1-5.11-4.73,4.11,4.11,0,0,1-.39-4.19,7.62,7.62,0,0,1,1.76-2.5,9.32,9.32,0,0,1,3.87-2.09c1.87-.69,3.74-2,6.4-2.16a14.73,14.73,0,0,1,6.29.63c2.33,1,4.6,3.6,6.06,4.87s1.6,2.76,2.33,4.25a18.13,18.13,0,0,1,.73,3.92A9.35,9.35,0,0,1,2249.8,1178Z"/><path class="cls-6" d="M2234,1177.43a48,48,0,0,1-5.34-2.56,14.75,14.75,0,0,1-5.15-4.76,4.23,4.23,0,0,1-.41-4.31,8,8,0,0,1,1.79-2.54,9.23,9.23,0,0,1,3.76-2.06l.15,0c.55-.2,1.08-.46,1.65-.73a12.38,12.38,0,0,1,4.79-1.44,14.8,14.8,0,0,1,6.35.63,17.5,17.5,0,0,1,4.83,3.72c.46.44.89.86,1.26,1.18a6.18,6.18,0,0,1,1.84,3,12.43,12.43,0,0,0,.52,1.29,10.81,10.81,0,0,1,.61,2.92c0,.39.09.76.14,1a9.58,9.58,0,0,1-.88,5.27c-.72,1.73-2.15,1.68-4,1.62-.41,0-.84,0-1.29,0A27.48,27.48,0,0,1,2234,1177.43Zm7.49-17.59a14.52,14.52,0,0,0-6.23-.61,11.69,11.69,0,0,0-4.7,1.42c-.58.27-1.12.53-1.67.73l-.15.06a8.94,8.94,0,0,0-3.67,2,7.8,7.8,0,0,0-1.74,2.47,4,4,0,0,0,.38,4.07,14.67,14.67,0,0,0,5.07,4.69,48.6,48.6,0,0,0,5.32,2.54,27.11,27.11,0,0,0,10.56,2.16c.46,0,.88,0,1.29,0,1.86.07,3.08.11,3.73-1.46a9.36,9.36,0,0,0,.86-5.14c-.05-.28-.09-.66-.14-1a10.94,10.94,0,0,0-.58-2.84,11.73,11.73,0,0,1-.53-1.32,5.94,5.94,0,0,0-1.77-2.88c-.38-.33-.81-.75-1.27-1.19A17.12,17.12,0,0,0,2241.49,1159.84Z"/><path class="cls-2" d="M1590,638l3.17-3.27a5.94,5.94,0,0,1,7.33-2.14c4.91,1.83,22.16,8.56,25.84,33.95s-5.48,40.57-22.13,51.25-40.33,4.05-43.68,2.77-14.6-6.73-19.71-21.7c-4.36-12.77-8.65-32.22-4.45-42.56s12.32-17.68,21.8-20.34C1568.24,633.12,1574.29,630.8,1590,638Z"/><path class="cls-8" d="M1592,638.9s15.25,9.58,19.31,32.4-12.75,30.2-12.75,30.2-23.43,13.55-38.4-1.5-9.75-30.15-9.75-30.15,2.43-17.94,29.79-17.6,15.87,31.77,15.34,32.28-15.21,15.21-28.21-.39,9.44-16.06,9.44-16.06,6.27,2.42-1,4.76-1.79,8.66-.14,8.57,14.92,6.52,14.56-7.18-10.1-17-17.43-14.81-18.94,8.34-15.54,22.75,13.61,16.77,24,15.14,23.34-3.53,23.42-17.1-3.82-22.66-10.52-27.51-23.36-10.63-39.13.3-12.33,31.38-4.91,43.81,18.35,21.11,32.5,16.3,25.72-7.7,31.12-19.5,6.59-26.19-3.91-39.53S1592,638.9,1592,638.9Z"/><path class="cls-4" d="M277.39,706c-3.19,4.08-6.29,6.2-10.48,8.68-2.51,1.49-5.39,2.15-8.15,3a36.79,36.79,0,0,1-10.68,1.59,36.37,36.37,0,0,1-13-2.42,36.79,36.79,0,0,1-8.25-4.47,26.82,26.82,0,0,1-7.8-7.63,34,34,0,0,1-5.59-10.83,36.65,36.65,0,0,1-1.73-11.67c.06-4.27-.18-8.18,1.42-12.28a33.4,33.4,0,0,1,4.18-7.82,47.11,47.11,0,0,1,6.83-7.62c2.81-2.36,6-5.26,9.32-6.43s6.39-2.45,10.58-2.35a56.64,56.64,0,0,1,13.12,1.74c4.31,1.1,8.88,2.47,12.71,5.23a41.74,41.74,0,0,1,11.52,12.79,33.65,33.65,0,0,1,3.93,11.6c.5,3-.15,6-.39,9a37.18,37.18,0,0,1-3.37,12.71C279.88,702.27,280.49,702,277.39,706Z"/><path class="cls-5" d="M280.08,699.05c-2.23,4.86-4.85,7.75-8.47,11.24-2.18,2.1-4.92,3.46-7.5,5a37.56,37.56,0,0,1-33.46,2.3c-4.28-1.76-5.32-2.19-9.68-5.81a35.37,35.37,0,0,1-8.22-9.57,38,38,0,0,1-4.53-11.34c-1-4.32-2.14-8.2-1.51-12.7a34.71,34.71,0,0,1,2.34-8.88,48.92,48.92,0,0,1,5.06-9.3c2.27-3.05,4.83-6.75,7.85-8.71s5.85-4,10.1-4.9A57.83,57.83,0,0,1,245.68,645c4.61.07,9.53.36,14.05,2.23a43,43,0,0,1,14.66,10.11,34.83,34.83,0,0,1,6.73,10.75c1.21,2.87,1.28,6,1.76,9.13a38.76,38.76,0,0,1-.35,13.61C281.71,694.74,282.26,694.3,280.08,699.05Z"/><path class="cls-4" d="M277.16,699.33c-2.39,4.71-5.07,7.45-8.76,10.77-2.22,2-5,3.22-7.57,4.6a37,37,0,0,1-33,1,27.34,27.34,0,0,1-9.32-6.08,34.56,34.56,0,0,1-7.74-9.72,37.41,37.41,0,0,1-4.05-11.34c-.78-4.28-1.81-8.15-1-12.56a34.51,34.51,0,0,1,2.63-8.66,48.16,48.16,0,0,1,5.33-9c2.34-2.92,5-6.47,8-8.29s5.92-3.72,10.13-4.45a57.08,57.08,0,0,1,13.46-.86c4.54.24,9.38.71,13.76,2.71A42.43,42.43,0,0,1,273.08,658a34.44,34.44,0,0,1,6.24,10.83c1.09,2.87,1,6,1.39,9.06a38.18,38.18,0,0,1-.84,13.39C278.92,695.15,279.48,694.74,277.16,699.33Z"/><path class="cls-1" d="M270.52,654.51c-.83,2-2.61,1.51-5.14,1.52a27.35,27.35,0,0,1-10.61-2.17,49.89,49.89,0,0,1-5.32-2.55,14.75,14.75,0,0,1-5.12-4.73,4.13,4.13,0,0,1-.39-4.19,7.62,7.62,0,0,1,1.76-2.5,9.45,9.45,0,0,1,3.87-2.09c1.88-.69,3.74-2,6.4-2.16a14.7,14.7,0,0,1,6.29.63c2.33,1,4.6,3.6,6.06,4.87s1.61,2.76,2.33,4.25a18.79,18.79,0,0,1,.74,3.92A9.44,9.44,0,0,1,270.52,654.51Z"/><path class="cls-6" d="M254.73,654a48.24,48.24,0,0,1-5.35-2.56,14.84,14.84,0,0,1-5.15-4.76,4.26,4.26,0,0,1-.41-4.31,8,8,0,0,1,1.79-2.54,9.21,9.21,0,0,1,3.77-2.06l.15,0c.54-.2,1.08-.46,1.65-.73a12.38,12.38,0,0,1,4.79-1.44,14.75,14.75,0,0,1,6.34.63,17.35,17.35,0,0,1,4.84,3.72c.45.44.88.86,1.25,1.18a6.18,6.18,0,0,1,1.84,3c.16.42.31.85.52,1.29a10.45,10.45,0,0,1,.61,2.91c.05.4.09.77.14,1a9.49,9.49,0,0,1-.88,5.27c-.71,1.73-2.15,1.68-4,1.62-.41,0-.83,0-1.29,0A27.61,27.61,0,0,1,254.73,654Zm7.49-17.59a14.59,14.59,0,0,0-6.24-.61,11.78,11.78,0,0,0-4.7,1.42c-.57.27-1.11.53-1.67.73l-.15.05a9.07,9.07,0,0,0-3.67,2,7.92,7.92,0,0,0-1.74,2.46,4,4,0,0,0,.39,4.08,14.49,14.49,0,0,0,5.07,4.69,47.52,47.52,0,0,0,5.31,2.54,27.15,27.15,0,0,0,10.56,2.16c.46,0,.89,0,1.3,0,1.85.07,3.07.11,3.72-1.46a9.27,9.27,0,0,0,.86-5.14c-.05-.28-.09-.66-.14-1.06a10.17,10.17,0,0,0-.58-2.83,11.73,11.73,0,0,1-.53-1.32,5.94,5.94,0,0,0-1.77-2.88c-.37-.33-.81-.75-1.27-1.2A17.37,17.37,0,0,0,262.22,636.38Z"/><path class="cls-9" d="M2264.72,167.1c-2.8,7.77-8.36,14.51-14.89,19.68-3.89,3.07-8.53,6.92-11.28,8.76-2.51,1.67-5.62,2.63-8,3.81-3.11,1.55-8.06,2.7-11.3,1.77a31.78,31.78,0,0,1-7.77-3.85c-2.89-1.77-3.94-3-7.35-5.65-10.24-8-20.25-20.19-21.12-32.43-1.14-16.19,4.18-36.38,21.13-36.46,18-.09,16.5,11.33,20.63,15.37,6.07-4.49,7.45-14.28,24.17-13.52C2264.07,125.26,2269.84,152.88,2264.72,167.1Z"/><rect class="cls-10" x="2186.84" y="157.1" width="7.03" height="1.1" transform="translate(256.9 1198.94) rotate(-32.42)"/><rect class="cls-10" x="2242.25" y="182.13" width="1.1" height="5.37" transform="translate(-3.06 41.92) rotate(-1.07)"/><rect class="cls-11" x="2250.93" y="166.51" width="1.1" height="5.68" transform="translate(813.91 1910.39) rotate(-54.76)"/><rect class="cls-11" x="2193.07" y="132.53" width="7.03" height="1.1" transform="translate(270.35 1197.18) rotate(-32.38)"/><rect class="cls-11" x="2253.9" y="150.09" width="6.1" height="1.1" transform="translate(606.86 1697.81) rotate(-46.97)"/><rect class="cls-11" x="2211.37" y="141.03" width="1.1" height="7.03" transform="translate(1317.94 2172.92) rotate(-69.95)"/><rect class="cls-11" x="2195.78" y="167.88" width="1.1" height="5.17" transform="translate(168.18 1030.42) rotate(-27.42)"/><rect class="cls-10" x="2246.99" y="131.86" width="1.1" height="7.03" transform="translate(427.3 1460.7) rotate(-39.51)"/><path class="cls-8" d="M986,205.66c2.07-2.95,2.94-6.82,3.33-10.17a19.18,19.18,0,0,0-2.69-13c-1.36-2.19-3.46-3.73-5.69-5.3a16.1,16.1,0,0,0,4.77.33,21.07,21.07,0,0,0,7-1.87c3.74-1.73,6.3-4.71,8.38-7.94a20.71,20.71,0,0,0,3.74-9.87,21,21,0,0,0-1.91-10c-1.52-3.27-4.44-6-7.14-8a19.24,19.24,0,0,0-12.61-4.17c-2.57.08-5,1.13-7.43,2.28a16.07,16.07,0,0,0,2.67-4,21.26,21.26,0,0,0,1.87-7c.37-4.1-.93-7.81-2.69-11.22-1.65-3.21-3.65-6.19-6.68-8.18a20.84,20.84,0,0,0-9.64-3.36c-3.59-.32-7.38.87-10.47,2.2a19.25,19.25,0,0,0-9.92,8.83c-1.21,2.28-1.49,4.86-1.74,7.58a15.88,15.88,0,0,0-2.1-4.3,21,21,0,0,0-5.11-5.11c-3.37-2.37-7.23-3.1-11.06-3.28-3.6-.18-7.18.07-10.42,1.69a20.87,20.87,0,0,0-7.73,6.67c-2.08,3-2.94,6.83-3.33,10.17a19.18,19.18,0,0,0,2.69,13c1.36,2.19,3.46,3.73,5.69,5.3a16.15,16.15,0,0,0-4.77-.33,21,21,0,0,0-7,1.87c-3.74,1.74-6.3,4.71-8.38,7.94-1.95,3-3.53,6.26-3.74,9.87a20.89,20.89,0,0,0,1.91,10c1.52,3.28,4.44,6,7.14,8a19.21,19.21,0,0,0,12.6,4.16c2.58-.08,5-1.13,7.44-2.27a15.75,15.75,0,0,0-2.67,4,20.78,20.78,0,0,0-1.87,7c-.37,4.1.93,7.81,2.68,11.22,1.65,3.21,3.66,6.19,6.68,8.18a20.92,20.92,0,0,0,9.65,3.36c3.59.32,7.37-.86,10.47-2.2a19.15,19.15,0,0,0,9.91-8.83c1.22-2.27,1.5-4.86,1.75-7.58a15.59,15.59,0,0,0,2.1,4.3,21,21,0,0,0,5.1,5.11c3.37,2.37,7.23,3.1,11.07,3.29,3.6.17,7.18-.08,10.42-1.7A20.87,20.87,0,0,0,986,205.66Zm-34.3-24.13a18.08,18.08,0,0,0-3.09,8.58,15.92,15.92,0,0,0-4.88-7.1c-1.47-1.37-3.24-1.82-5.08-2.73a21,21,0,0,0-7.45-2.11,18.14,18.14,0,0,0-9,1.61,15.74,15.74,0,0,0,3.71-7.77c.46-2,0-3.72-.16-5.76a21,21,0,0,0-1.91-7.51,18.2,18.2,0,0,0-5.89-7,15.79,15.79,0,0,0,8.59-.67c1.92-.58,3.2-1.9,4.9-3a20.77,20.77,0,0,0,5.55-5.4,18.06,18.06,0,0,0,3.1-8.59,15.71,15.71,0,0,0,4.88,7.1c1.47,1.37,3.24,1.83,5.07,2.74a21.07,21.07,0,0,0,7.46,2.1,18.08,18.08,0,0,0,9-1.61,15.83,15.83,0,0,0-3.71,7.77c-.45,2,0,3.72.17,5.76a21,21,0,0,0,1.91,7.51,18.12,18.12,0,0,0,5.89,7,15.88,15.88,0,0,0-8.59.67c-1.93.59-3.2,1.9-4.91,3A21,21,0,0,0,951.72,181.53Z"/><path class="cls-2" d="M3603.77,2215.77l3.17-3.28a5.94,5.94,0,0,1,7.33-2.13c4.91,1.83,22.16,8.55,25.85,33.95s-5.49,40.57-22.14,51.24-40.33,4.06-43.68,2.78-14.6-6.73-19.71-21.7c-4.35-12.77-8.65-32.22-4.45-42.56s12.32-17.68,21.8-20.34C3582.06,2210.88,3588.11,2208.55,3603.77,2215.77Z"/><path class="cls-8" d="M3605.81,2216.66s15.25,9.58,19.31,32.4-12.75,30.2-12.75,30.2-23.43,13.55-38.4-1.5-9.75-30.15-9.75-30.15,2.43-17.94,29.79-17.6,15.87,31.77,15.34,32.28-15.21,15.21-28.2-.4,9.43-16.06,9.43-16.06,6.27,2.43-1,4.77-1.79,8.66-.14,8.57,14.92,6.51,14.56-7.18-10.1-16.95-17.43-14.81-18.94,8.34-15.54,22.75,13.61,16.77,23.95,15.13,23.34-3.53,23.42-17.09-3.82-22.66-10.52-27.51-23.36-10.63-39.13.3-12.33,31.38-4.91,43.81,18.35,21.11,32.5,16.3,25.72-7.71,31.12-19.51,6.59-26.18-3.91-39.52S3605.81,2216.66,3605.81,2216.66Z"/><path class="cls-9" d="M4286.31,1749.83c-2.79,7.77-8.35,14.5-14.89,19.67-3.88,3.08-8.53,6.93-11.28,8.76-2.51,1.68-5.62,2.64-8,3.82-3.11,1.54-8.06,2.7-11.29,1.77a31.41,31.41,0,0,1-7.77-3.85c-2.89-1.78-3.95-3-7.36-5.65-10.23-8-20.25-20.2-21.11-32.43-1.15-16.19,4.17-36.39,21.13-36.47,18-.08,16.49,11.33,20.62,15.38,6.08-4.5,7.46-14.28,24.17-13.53C4285.66,1708,4291.43,1735.61,4286.31,1749.83Z"/><rect class="cls-10" x="4208.43" y="1739.83" width="7.03" height="1.1" transform="translate(-277.11 2526.35) rotate(-32.38)"/><rect class="cls-10" x="4263.84" y="1764.86" width="1.1" height="5.37" transform="translate(-32.3 80.03) rotate(-1.07)"/><rect class="cls-11" x="4272.53" y="1749.23" width="1.1" height="5.68" transform="translate(376.04 4230.39) rotate(-54.75)"/><rect class="cls-11" x="4214.67" y="1715.26" width="7.03" height="1.1" transform="translate(-262.92 2526.21) rotate(-32.39)"/><rect class="cls-11" x="4275.49" y="1732.82" width="6.1" height="1.1" transform="translate(90.48 3675.18) rotate(-46.93)"/><rect class="cls-11" x="4232.97" y="1723.76" width="1.1" height="7.03" transform="translate(1159.75 5112.26) rotate(-69.95)"/><rect class="cls-11" x="4217.38" y="1750.61" width="1.1" height="5.17" transform="translate(-333.45 2139.93) rotate(-27.43)"/><rect class="cls-10" x="4268.58" y="1714.59" width="1.1" height="7.03" transform="translate(-117.75 3108.29) rotate(-39.51)"/><path class="cls-8" d="M2954.15,1788.38c2.08-3,2.94-6.82,3.34-10.17a19.27,19.27,0,0,0-2.69-13c-1.37-2.19-3.47-3.73-5.7-5.3a15.8,15.8,0,0,0,4.77.32,20.69,20.69,0,0,0,7-1.86c3.74-1.74,6.3-4.71,8.38-7.94,1.95-3,3.53-6.26,3.74-9.87a20.89,20.89,0,0,0-1.91-10c-1.52-3.28-4.44-6-7.14-8a19.27,19.27,0,0,0-12.6-4.17c-2.58.09-5,1.14-7.44,2.28a15.75,15.75,0,0,0,2.67-4,20.78,20.78,0,0,0,1.87-7c.37-4.11-.93-7.81-2.68-11.22-1.65-3.21-3.66-6.19-6.68-8.18a20.92,20.92,0,0,0-9.64-3.36c-3.6-.32-7.38.86-10.48,2.2A19.15,19.15,0,0,0,2909,1698c-1.22,2.27-1.5,4.86-1.75,7.57a15.67,15.67,0,0,0-2.1-4.29,21,21,0,0,0-5.1-5.11c-3.37-2.37-7.23-3.1-11.07-3.29-3.6-.17-7.18.08-10.42,1.7a21,21,0,0,0-7.73,6.67c-2.07,3-2.94,6.82-3.33,10.17a19.18,19.18,0,0,0,2.69,13c1.36,2.19,3.46,3.73,5.69,5.3a15.8,15.8,0,0,0-4.77-.33,21.07,21.07,0,0,0-7,1.87c-3.74,1.73-6.3,4.71-8.38,7.94-2,3-3.52,6.25-3.74,9.87a20.92,20.92,0,0,0,1.92,10c1.51,3.27,4.43,6,7.13,8a19.24,19.24,0,0,0,12.61,4.17,19.44,19.44,0,0,0,7.43-2.28,16.07,16.07,0,0,0-2.67,4,21.26,21.26,0,0,0-1.87,7c-.37,4.1.93,7.81,2.69,11.22,1.65,3.21,3.65,6.19,6.68,8.18a20.83,20.83,0,0,0,9.64,3.35c3.59.33,7.38-.86,10.47-2.19a19.29,19.29,0,0,0,9.92-8.83c1.21-2.28,1.49-4.86,1.74-7.58a15.88,15.88,0,0,0,2.1,4.3,21,21,0,0,0,5.11,5.11c3.37,2.37,7.23,3.1,11.06,3.28,3.6.18,7.18-.07,10.42-1.69A21,21,0,0,0,2954.15,1788.38Zm-34.29-24.13a18.06,18.06,0,0,0-3.1,8.59,15.71,15.71,0,0,0-4.88-7.1c-1.47-1.38-3.24-1.83-5.07-2.74a20.86,20.86,0,0,0-7.46-2.1,18.08,18.08,0,0,0-9,1.61,15.87,15.87,0,0,0,3.71-7.77c.45-2,0-3.72-.17-5.77a20.93,20.93,0,0,0-1.91-7.5,18,18,0,0,0-5.89-7,15.88,15.88,0,0,0,8.59-.67c1.93-.59,3.2-1.9,4.91-3a21,21,0,0,0,5.55-5.41,18.08,18.08,0,0,0,3.09-8.58,15.92,15.92,0,0,0,4.88,7.1c1.47,1.37,3.24,1.82,5.08,2.73a20.81,20.81,0,0,0,7.45,2.1,18,18,0,0,0,9-1.61,15.81,15.81,0,0,0-3.71,7.78c-.46,2,0,3.72.17,5.76a20.75,20.75,0,0,0,1.9,7.51,18.1,18.1,0,0,0,5.89,7,15.88,15.88,0,0,0-8.59.68c-1.92.58-3.2,1.9-4.9,3A20.92,20.92,0,0,0,2919.86,1764.25Z"/><path class="cls-9" d="M2264.72,2260.72c-2.8,7.76-8.36,14.5-14.89,19.67-3.89,3.07-8.53,6.92-11.28,8.76-2.51,1.68-5.62,2.63-8,3.81-3.11,1.55-8.06,2.71-11.3,1.77a31.78,31.78,0,0,1-7.77-3.85c-2.89-1.77-3.94-3-7.35-5.64-10.24-8-20.25-20.2-21.12-32.44-1.14-16.19,4.18-36.38,21.13-36.46,18-.09,16.5,11.33,20.63,15.37,6.07-4.49,7.45-14.28,24.17-13.52C2264.07,2218.87,2269.84,2246.49,2264.72,2260.72Z"/><rect class="cls-10" x="2186.84" y="2250.71" width="7.03" height="1.1" transform="translate(-865.52 1524.99) rotate(-32.42)"/><rect class="cls-10" x="2242.25" y="2275.74" width="1.1" height="5.37" transform="translate(-42.16 42.28) rotate(-1.07)"/><rect class="cls-11" x="2250.93" y="2260.12" width="1.1" height="5.68" transform="translate(-895.92 2795.88) rotate(-54.76)"/><rect class="cls-11" x="2193.07" y="2226.14" width="7.03" height="1.1" transform="matrix(0.84, -0.54, 0.54, 0.84, -851.01, 1522.93)"/><rect class="cls-11" x="2253.9" y="2243.7" width="6.1" height="1.1" transform="translate(-923.68 2362.9) rotate(-46.97)"/><rect class="cls-11" x="2211.37" y="2234.64" width="1.1" height="7.03" transform="translate(-648.85 3548.85) rotate(-69.95)"/><rect class="cls-11" x="2195.78" y="2261.5" width="1.1" height="5.17" transform="translate(-795.79 1265.53) rotate(-27.41)"/><rect class="cls-10" x="2246.99" y="2225.47" width="1.1" height="7.03" transform="translate(-904.56 1938.95) rotate(-39.51)"/><path class="cls-8" d="M986,2299.27c2.07-2.95,2.94-6.82,3.33-10.17a19.18,19.18,0,0,0-2.69-13c-1.36-2.19-3.46-3.73-5.69-5.3a15.78,15.78,0,0,0,4.77.33,21.07,21.07,0,0,0,7-1.87c3.74-1.73,6.3-4.71,8.38-7.94,1.95-3,3.52-6.25,3.74-9.87a21,21,0,0,0-1.91-10c-1.52-3.27-4.44-6-7.14-8a19.24,19.24,0,0,0-12.61-4.17,19.5,19.5,0,0,0-7.43,2.28,16.07,16.07,0,0,0,2.67-4,21.26,21.26,0,0,0,1.87-7c.37-4.1-.93-7.81-2.69-11.22-1.65-3.21-3.65-6.19-6.68-8.18a20.83,20.83,0,0,0-9.64-3.35c-3.59-.33-7.38.86-10.47,2.19a19.29,19.29,0,0,0-9.92,8.83c-1.21,2.28-1.49,4.86-1.74,7.58a15.88,15.88,0,0,0-2.1-4.3,21,21,0,0,0-5.11-5.11c-3.37-2.37-7.23-3.1-11.06-3.28-3.6-.18-7.18.07-10.42,1.69a21,21,0,0,0-7.73,6.68c-2.08,3-2.94,6.82-3.33,10.17a19.16,19.16,0,0,0,2.69,13c1.36,2.19,3.46,3.73,5.69,5.3a15.82,15.82,0,0,0-4.77-.32,20.75,20.75,0,0,0-7,1.86c-3.74,1.74-6.3,4.71-8.38,7.94-1.95,3-3.53,6.26-3.74,9.87a20.89,20.89,0,0,0,1.91,10c1.52,3.28,4.44,6,7.14,8a19.27,19.27,0,0,0,12.6,4.17c2.58-.09,5-1.14,7.44-2.28a15.75,15.75,0,0,0-2.67,4,20.78,20.78,0,0,0-1.87,7c-.37,4.11.93,7.81,2.68,11.22,1.65,3.21,3.66,6.19,6.68,8.18a20.92,20.92,0,0,0,9.65,3.36c3.59.32,7.37-.86,10.47-2.2a19.17,19.17,0,0,0,9.91-8.82c1.22-2.28,1.5-4.87,1.75-7.58a15.67,15.67,0,0,0,2.1,4.29,21,21,0,0,0,5.1,5.11c3.37,2.37,7.23,3.1,11.07,3.29,3.6.17,7.18-.08,10.42-1.7A20.87,20.87,0,0,0,986,2299.27Zm-34.3-24.13a18.08,18.08,0,0,0-3.09,8.58,15.92,15.92,0,0,0-4.88-7.1c-1.47-1.37-3.24-1.82-5.08-2.73a20.81,20.81,0,0,0-7.45-2.1,18,18,0,0,0-9,1.61,15.81,15.81,0,0,0,3.71-7.78c.46-2,0-3.72-.16-5.76a21,21,0,0,0-1.91-7.51,18.1,18.1,0,0,0-5.89-7,15.88,15.88,0,0,0,8.59-.68c1.92-.58,3.2-1.89,4.9-3a20.77,20.77,0,0,0,5.55-5.4,18.06,18.06,0,0,0,3.1-8.59,15.71,15.71,0,0,0,4.88,7.1c1.47,1.38,3.24,1.83,5.07,2.74a20.86,20.86,0,0,0,7.46,2.1,18.08,18.08,0,0,0,9-1.61,15.87,15.87,0,0,0-3.71,7.77c-.45,2,0,3.72.17,5.77a20.93,20.93,0,0,0,1.91,7.5,18,18,0,0,0,5.89,7,15.88,15.88,0,0,0-8.59.67c-1.93.59-3.2,1.9-4.91,3A21,21,0,0,0,951.72,2275.14Z"/><path class="cls-4" d="M1619.19,1706.8c-8.68-8.74-22.06-13.38-35.26-13.49-8.06-.07-20,1.07-26.78,4.28-17.49,8.24-27.23,26.55-27.4,47.18-.1,13,3.36,23.45,11.2,32.63,9.43,11,22.46,20.58,38.13,20.71,14.34.12,31.3-5.28,40.78-14.6s13.62-21.1,13.74-35.45C1633.73,1732.58,1629.36,1717.05,1619.19,1706.8ZM1596,1756.16c-2.74,4.06-6.14,6.63-10.59,7.49s-10.29-.8-14.34-3.53c-4.43-3-6.34-8.16-6.94-13.08a16,16,0,0,1,3-11.38c3.93-5.84,10.15-9.21,16.68-8.25,2.54.37,6.14,2.29,8.42,3.82a17.39,17.39,0,0,1,7.48,10.48C1600.64,1746.54,1599,1751.79,1596,1756.16Z"/><path class="cls-7" d="M1633.28,1745.56l-.48-1.67c-.49-1.7-1.93-2.72-.49-5.22l.15-1.73a14.23,14.23,0,0,0-2.83-9.9l-1.05-1.39a14.22,14.22,0,0,1-2.35-4.68l-.48-1.68a14.18,14.18,0,0,0-6.22-8.2l-1.48-.92a14.32,14.32,0,0,1-3.88-3.52l-1.05-1.39c-2.14-2.83-4.08-4.48-7.57-5.13l-2.54.14a7.51,7.51,0,0,1-5.25-2.61l-1.48-.92a14.29,14.29,0,0,0-10.13-1.87l-1.71.32a14.2,14.2,0,0,1-5.24,0l-1.71-.31a14.22,14.22,0,0,0-10.12,1.91l-1.48.92a14.27,14.27,0,0,1-4.88,1.9l-1.71.32c-3.49.66-7.55.16-9.69,3l-1.42,3.87c-1.06,1.41-1,2.56-2.54,3.49l-1.48.92c-2.7,1.68-2.89,3.19-3.59,5.93a4.08,4.08,0,0,1-1,1.77l-1.38,1.45a4.43,4.43,0,0,0-1,1.62,14.16,14.16,0,0,1-2,3.83l-1,1.39a14.3,14.3,0,0,0-2.8,9.91l.17,1.73a14.37,14.37,0,0,1-.48,5.22l-.47,1.67a11.76,11.76,0,0,0,.92,9,3.76,3.76,0,0,1,.27.73l.34,1.27a9.6,9.6,0,0,0,.54,1.53,14.24,14.24,0,0,1,1.12,4.35l.16,1.73a14.28,14.28,0,0,0,4.61,9.21l1.29,1.17a14.38,14.38,0,0,1,3.16,4.18l.78,1.55a14.28,14.28,0,0,0,7.62,6.93l1.63.62c1.64.63,2.85.14,4.15,1.32l1.78,1.81c2.63,2.39,5.87,4.5,9.42,4.49h1.74a14.37,14.37,0,0,1,5.15,1l1.63.63a14.27,14.27,0,0,0,9,.42,3.89,3.89,0,0,0,2-1.39l1-1.31a1.9,1.9,0,0,1,2.49-.49,5.12,5.12,0,0,0,2.55,1.15h1.74a14.25,14.25,0,0,0,9.6-3.73l1.28-1.18a14.26,14.26,0,0,1,4.45-2.76l1.62-.64a14.2,14.2,0,0,0,7.6-7l.78-1.56c.78-1.57,1.77-1.71,3.07-2.9l1.36-1.1a2.17,2.17,0,0,1,1.33-.48c5.56,0,2.93-6.7,3.24-10.1l.16-1.74a14.34,14.34,0,0,1,1.42-5l.78-1.56A14.27,14.27,0,0,0,1633.28,1745.56Zm-32.17,6.31-.36.6a5.69,5.69,0,0,0-.73,2l-.12.68a5.72,5.72,0,0,1-2.12,3.51l-.55.42a5.72,5.72,0,0,0-1.38,1.56l-.36.59a5.68,5.68,0,0,1-3.24,2.51l-.67.2a3,3,0,0,0-2.16.86l-.64.79a4.52,4.52,0,0,1-3.53.89l-.69-.06a5.78,5.78,0,0,0-2.07.22l-.67.19a5.6,5.6,0,0,1-4.08-.33l-.63-.3a5.61,5.61,0,0,0-2-.54l-.69-.06a5.69,5.69,0,0,1-3.69-1.79l-.47-.5c-.36-1.09-1-.93-1.68-1.24l-.62-.3a5.74,5.74,0,0,1-2.8-3l-.25-.64a5.61,5.61,0,0,0-1.12-1.76l-.47-.51c-.93-1-3.61-2-2.14-3.64a.83.83,0,0,0,.21-.52l0-.7c0-.7.22-1,0-1.68l-.26-.64a5.69,5.69,0,0,1,0-4.1l.25-.65a5.7,5.7,0,0,0,.35-2.05v-.7a5.63,5.63,0,0,1,1.43-3.83l.46-.52a2,2,0,0,1,1-.45.77.77,0,0,0,.52-.87l-.13-.65a1.54,1.54,0,0,1,.13-1,5.68,5.68,0,0,1,2.51-2.55l.62-.32a5.83,5.83,0,0,0,1.65-1.27l.46-.52a5.77,5.77,0,0,1,3.83-1.6l1,0c.69-.08.87-.57,1.49-.89l.62-.31a5.64,5.64,0,0,1,4.07-.43l.67.19a5.61,5.61,0,0,0,2.08.16l.69-.07a5.64,5.64,0,0,1,4,1.08l.56.41a5.58,5.58,0,0,0,1.59.82l.6.24.46.24a1.48,1.48,0,0,0,.29.12,4.66,4.66,0,0,1,2.9,2.1l.38.59a5.55,5.55,0,0,0,1.42,1.52l.56.41a5.67,5.67,0,0,1,2.19,3.46l.14.68a5.59,5.59,0,0,0,.59,1.63,1.78,1.78,0,0,1,.22.72l.06.79a1.62,1.62,0,0,0,.27.76,3,3,0,0,1,.8,2.64l-.12.68c-.12.69.23,1,.37,1.68l.77,1.45C1603.06,1749.59,1601.84,1750.66,1601.11,1751.87Z"/><path class="cls-8" d="M1631.25,1723.3a2.06,2.06,0,0,0-2.8-.77l-24.36,13.8c2.19-2.08,4.5-4.25,6.55-6.18,3.78-3.55,7.68-7.22,10.5-10,1.54-1.53,2.66-2.7,3.42-3.58.91-1,2.16-2.48,1.29-4a2.06,2.06,0,0,0-3-.65c-.07,0-7.08,5.08-14.66,10-5.54,3.6-9.38,5.84-12,7.23,3.4-3.54,7.92-8.32,11.75-12.83,7.82-9.25,8.64-12.54,7.45-14.63a2.06,2.06,0,0,0-1.34-1,2,2,0,0,0-1.63.33c-.09.06-9.23,6.52-19,12.82-16.59,10.66-21.15,11.94-22.27,12a2.06,2.06,0,0,0-3.07,2.62,3,3,0,0,0,2,1.4c1.34.29,3.65.1,10.57-3.59,3.87-2.07,8.82-5,14.71-8.81,5.09-3.27,10-6.59,13.67-9.08-1.12,1.55-2.69,3.55-4.89,6.1-4.47,5.2-9.79,10.7-13,14l-1.39,1.44a6.83,6.83,0,0,1,2.1,1.5,7.07,7.07,0,0,1,2.64,2.15c.14.12.28.23.42.36l.31.23c.94-.41,2-.94,3.32-1.63,2.66-1.42,6-3.39,9.83-5.85l-.49.46c-3.69,3.46-7.48,7-10.4,9.9.09.2.17.39.25.59a8.13,8.13,0,0,1,.78,1.66,7.71,7.71,0,0,1,1.47,4.1l30.55-17.31A2.06,2.06,0,0,0,1631.25,1723.3Z"/><path class="cls-8" d="M1571.62,1726.46h0Z"/><path class="cls-8" d="M1612.16,1698.24a3.5,3.5,0,0,0-2.35-1.69c-2.52-.6-8,.27-28,12.37-12.37,7.49-26.62,17-37,24l-3.31,2.22c2-1.61,4.41-3.4,7.07-5.35,9.48-7,21.33-14.91,30.86-21.3,5.33-3.58,9.94-6.67,13.24-9,1.77-1.24,3-2.17,3.91-2.86a13.63,13.63,0,0,0,1.17-1,2.31,2.31,0,0,0,.58-2.88,2.47,2.47,0,0,0-1.55-1.15c-1.44-.37-3.88,0-17.76,8.06-8.33,4.86-18.44,11.15-27.36,16.7-3.76,2.34-7.56,4.7-10.86,6.72,4.15-4.33,9.26-9.52,13-13.35,2.85-2.89,5.31-5.38,7.12-7.26,1-1,1.69-1.75,2.17-2.28.83-.91,1.77-1.94,1-3.3a2.07,2.07,0,0,0-1.25-1c-.82-.22-1.32,0-2.23.55l-1.79,1-5.33,3c-3.86,2.19-7.7,4.4-7.7,4.4a2.05,2.05,0,0,0,2,3.56l3.36-1.93-.31.32c-4.61,4.68-9.84,10-13.93,14.28-2.26,2.37-3.91,4.17-5,5.5-1.66,1.93-2.86,3.32-2,4.86a2.12,2.12,0,0,0,1.32,1c.89.23,1.65-.07,3.5-1.07,1.09-.59,2.61-1.47,4.63-2.69,3.77-2.26,8.95-5.48,14.42-8.88s11.14-6.93,16.72-10.33c-8.73,5.88-18.33,12.44-26.12,18.23a135.7,135.7,0,0,0-12.08,9.8c-2.94,2.79-5.47,5.72-4.06,8.2a2.05,2.05,0,0,0,1.34,1c1,.24,1.63,0,6.37-3,2.79-1.81,6.64-4.39,11.11-7.38,10.5-7,24.88-16.67,37.27-24.15,4.09-2.47,7.74-4.56,10.9-6.26-7.62,4.66-17.4,10.8-27,17.21-11.73,7.87-20.82,14.61-27,20-8.88,7.76-11.94,12.81-9.91,16.39a2.12,2.12,0,0,0,1.8,1.06,6.37,6.37,0,0,0,2.63-1c1-.49,2.3-1.22,4-2.17,2.84-1.58,6.74-3.8,11.59-6.6s9.72-5.65,12.9-7.52a6.15,6.15,0,0,1,.64-2.72c0-.11,0-.22,0-.33a5.39,5.39,0,0,1,.45-2.33c-9.43,5.55-23.35,13.64-29.6,17,1-1.72,3.33-4.48,8.21-8.74,6.09-5.31,15-11.94,26.62-19.71,19.79-13.28,40.61-25.41,40.81-25.53A2,2,0,0,0,1612.16,1698.24Z"/><path class="cls-9" d="M285.44,1749.83c-2.8,7.77-8.35,14.5-14.89,19.67-3.89,3.08-8.53,6.93-11.28,8.76-2.51,1.68-5.62,2.64-8,3.82-3.11,1.54-8.06,2.7-11.3,1.77a31.78,31.78,0,0,1-7.77-3.85c-2.89-1.78-3.94-3-7.35-5.65-10.23-8-20.25-20.2-21.11-32.43-1.15-16.19,4.17-36.39,21.13-36.47,18-.08,16.49,11.33,20.62,15.38,6.08-4.5,7.46-14.28,24.17-13.53C284.79,1708,290.56,1735.61,285.44,1749.83Z"/><rect class="cls-10" x="207.56" y="1739.83" width="7.03" height="1.1" transform="translate(-899.24 383.67) rotate(-32.38)"/><rect class="cls-10" x="262.97" y="1764.86" width="1.1" height="5.37" transform="translate(-33 5.24) rotate(-1.07)"/><rect class="cls-11" x="271.66" y="1749.23" width="1.1" height="5.68" transform="translate(-1315.7 963.15) rotate(-54.75)"/><rect class="cls-11" x="213.8" y="1715.26" width="7.03" height="1.1" transform="translate(-885.22 383.27) rotate(-32.39)"/><rect class="cls-11" x="274.62" y="1732.82" width="6.1" height="1.1" transform="translate(-1178.93 753.58) rotate(-46.97)"/><rect class="cls-11" x="232.1" y="1723.76" width="1.1" height="7.03" transform="translate(-1469.71 1353.67) rotate(-69.95)"/><rect class="cls-11" x="216.51" y="1750.61" width="1.1" height="5.17" transform="translate(-782.89 296.86) rotate(-27.42)"/><rect class="cls-10" x="267.71" y="1714.59" width="1.1" height="7.03" transform="translate(-1031.71 563.14) rotate(-39.51)"/></g></g></svg>