<svg xmlns="http://www.w3.org/2000/svg" viewBox="0 0 616.59 474.68"><defs><style>.cls-1{fill:#905ea7;}.cls-2{fill:#71488c;}.cls-3{fill:#372845;}.cls-4{fill:#ffce61;}</style></defs><title>Asset 9</title><g id="Layer_2" data-name="Layer 2"><g id="Layer_1-2" data-name="Layer 1"><path class="cls-1" d="M487.76,325.62,302,368.77,183.76,396.22c.78-22.75,6.59-66.21,13.39-110.69,10.22-66.69,22.7-135.65,23.87-140.36,2-7.84-27.46-64.72-35.3-64.72s-82.38,5.88-80.42,0c1.69-5.08,47.37-60,72.4-76.08,3.92-2.51,7.33-4.06,10-4.33,19.61-2,162.79,78.45,166.71,88.26,2.34,5.84,49.41,89.26,87,155.57C466.72,288.64,487.76,325.62,487.76,325.62Z"/><path class="cls-2" d="M221,145.17c2-7.84-27.46-64.72-35.3-64.72s-82.38,5.88-80.42,0c1.69-5.08,47.37-60,72.4-76.08-2.28,21,16,46.31,19.51,60.39C203.1,88.3,258,98.1,252.13,129.48,246.79,158,225.3,307.63,302,368.77L183.76,396.22C185.72,339.35,219.06,153,221,145.17Z"/><path class="cls-3" d="M487.76,325.62,302,368.77,183.76,396.22c.78-22.75,6.59-66.21,13.39-110.69,74.18,50.32,202.29,12.45,244.21-41.66C466.72,288.64,487.76,325.62,487.76,325.62Z"/><path class="cls-2" d="M613.09,244.38c34,97.94-192.51,204.61-276.44,222.08S479.31,292.21,518.52,272.6,613.09,244.38,613.09,244.38Z"/><path class="cls-1" d="M616.56,263.89c-10.9-41.4-119.83,52.29-178.65,139.43-16.28,24.11-44.9,44.39-81.16,57.1C262,493.62,115,475.07,0,338c47.94-26.14,122,8.71,193.9-30.52,0,0,22.69,13.32,55.66,23.17,44.82,13.41,108.56,20.43,160-21C498.92,237.75,618.74,192,616.56,263.89Z"/><path class="cls-2" d="M356.75,460.42C262,493.62,115,475.07,0,338c47.94-26.14,122,8.71,193.9-30.52,0,0,22.69,13.32,55.66,23.17-109.31,38.32-87.95,88.53-30.77,122.48C249.89,471.58,307,468.36,356.75,460.42Z"/><circle class="cls-4" cx="364.57" cy="310.54" r="40.72"/></g></g></svg>