<svg xmlns="http://www.w3.org/2000/svg" viewBox="0 0 455.02 89.98"><defs><style>.cls-1{fill:#593b7f;}</style></defs><title>Asset 67</title><g id="Layer_2" data-name="Layer 2"><g id="Layer_1-2" data-name="Layer 1"><path class="cls-1" d="M21,39.75,16.21,65.51,6,66.43c4.43-10.7-5-55.88-6-59.32L13.3,8.49c-.69,2.06-3.51,3.44,0,37.84l4.44-18.27.3-.31c.31-.31,6.35-.61,8.49-.69L33.48,50.3c9.33-31.42,6.81-33,6.81-36.23l14.83,2.82C37.69,51.6,37.92,66.58,37.92,66.58c-2,0-7.65-.3-8-.68Z"/><path class="cls-1" d="M71.17,11.31c-1.6.31-2.44,47.4,1.84,51.83l-11.78,2.6c2.07-4,1.69-45.41-1.52-52.13Z"/><path class="cls-1" d="M78.74,21.79A37.71,37.71,0,0,1,77.59,10.7c7.8,1.76,45.26-1.68,45.11-3.44l.46,7.88c-5.28.91-14.91,1.75-19.42,3.36,0,1-.08,2.14-.08,3.36,0,11.7,1.46,33.56,6.19,42.58H98.08c-.3-11.77.92-31.87-4.43-44.33Z"/><path class="cls-1" d="M141.12,12.84c8.87,0,16.36,3.14,16.36,12.39,0,6.57-5,12.38-11.92,12.38-7.34,0-10.4-10.24-3.67-10.24,4,0,4.28,1.68,4.81,5.65h.61c3.6,0,4.21-3,4.21-5.5,0-5.81-4.66-7.87-10.17-7.87-12.54,0-17.35,13.15-17.35,23,0,9.17,3.36,19.11,15.59,19.11,9.71,0,9.71-18.35,16.13-13.3.54.76,2.14,1.91,2.14,3.05-3.21,7.19-10.78,14.76-21.86,14.76-14.52,0-22.63-11-22.63-23.85C113.37,27.52,124.23,12.84,141.12,12.84Z"/><path class="cls-1" d="M159.32,21,171,22.32c-1.68,5.81-1.83,11.16-1.68,17.28,1.53-.08,11.7.08,14.45-1.3.61-1.68,3.14-25.07.77-28.29h12.3C189,43.35,192,53.44,194.41,62.61l-11.62.53c.46-4.51,2.67-11.16,1.76-17l-14.76.16c-.91,8-.38,13,2.75,20-4.28,0-7.11.38-12.46.38C164.9,51,161.15,28.13,159.32,21Z"/><path class="cls-1" d="M202.21,24.31c.3-1.53-.39-24.31-.77-24.31.54,0,6.27.69,7.11.69a.31.31,0,0,1,.08.23c0,2.21-2.91,19.19-2.91,23.08v.54Z"/><path class="cls-1" d="M218.87,44.34c3.06,0,8.33,1.83,8.33,5.73,0,3.37-2.75,5.28-5.88,3.67,0,3.82,4.35,6.5,8.41,6.5,5.19,0,11.31-3,11.31-8.87C241,34.63,213.67,43,213.67,28c0-12.16,10.17-16.74,20-16.74,4.5,0,15.28,2.21,15.28,8.25,0,4.13-2.83,7.57-7.18,7.57-2.14,0-4.9-1.14-4.9-3.51,0-1.84,1.84-2.68,1.84-4.44,0-2.22-5.27-2.67-6.57-2.67-3.83,0-7.88,1.68-7.88,6,0,12.84,24.92,4.43,27,21.17a17.55,17.55,0,0,1,.15,1.91c0,11.7-14,18.2-24.46,18.2-6.65,0-16.13-3.6-16.13-11.55C210.77,47.47,214.13,44.34,218.87,44.34Z"/><path class="cls-1" d="M306.63,12.84C315.5,12.84,323,16,323,25.23c0,6.57-5,12.38-11.92,12.38-7.34,0-10.4-10.24-3.67-10.24,4,0,4.28,1.68,4.81,5.65h.61c3.6,0,4.21-3,4.21-5.5,0-5.81-4.66-7.87-10.17-7.87-12.54,0-17.35,13.15-17.35,23,0,9.17,3.36,19.11,15.59,19.11,9.71,0,9.71-18.35,16.13-13.3.54.76,2.14,1.91,2.14,3.05-3.21,7.19-10.78,14.76-21.86,14.76-14.53,0-22.63-11-22.63-23.85C278.88,27.52,289.74,12.84,306.63,12.84Z"/><path class="cls-1" d="M337.67,47.32,332.85,67l-8.56-2.3c3.06-6.49,7.26-29.28,6.42-44.34l-3.28.46-1.68-7.26c0-.23,4.05-.92,32.71-4.36L359.69,15,355,16c-.16,5.5,1.22,33.71,8.71,48.54l-10.09,1.84-4.13-20.57Zm.54-9.33c1.22.31,8.56-.61,9.78-.76v-.31c0-5.58-.38-11-.38-16.74a64.85,64.85,0,0,0-8.79.92,2.52,2.52,0,0,0-.84.23Z"/><path class="cls-1" d="M376.2,42.5V44a59.39,59.39,0,0,0,1.91,16c.92,1.92,1.91,3.75,2.91,5.58l-15.68-.3c4.29-10.63,3.37-22.32,3.37-33.56-.08-.46-.08-.84-.15-1.3-.69-7.87-1.46-16-5.13-23.09h17.89c9.25,0,18.2,7,18.43,16.82v.38c0,7.19-6.2,12.54-12.46,15,4.35,2.29,7.64,6,10.77,9.78,10.55,12.39,14.83,34.48,34,36.16,4.82.15,15.75.08,16.59-6.65v-.46c-2.9-.3-6.88-1.6-6.88-5V72.7c0-2.9,3.37-4.43,5.89-3.82,4.2.23,7.34,4.28,7.34,8.33v.31C455,88.07,438.58,90,429.94,90h-.53c-24.24-.16-31.58-26.84-44-42.58-2.06-2.6-4.74-5.35-8.25-5.66C376.51,41.59,376.35,42.05,376.2,42.5Zm5.05-29.2c-1.69.15-4.51-.23-5.05,1.91V36.69a10.4,10.4,0,0,0,2.22.23c6.65,0,12.31-6,12.54-12.84v-.61c0-4.89-3.52-10.17-8.72-10.17h-1Z"/><path class="cls-1" d="M411.6,57.72l4.35-.61c.23-4.51.61-34-1-37.31h-7.11l.38-6.35,2.14-.45c8.49-1.84,17.59-3.83,26.22-1.61A21.76,21.76,0,0,1,453,32.26c0,22.09-16.36,34.48-37.38,34.48a16.44,16.44,0,0,1-3.44-.38Zm12.3-1.23c14.91,0,19.57-16.43,19.57-25.38,0-7.72-5.81-11.92-13.91-11.92-2.6,0-4.28.07-7.18.3v9.56c0,9.25.07,17.89.3,27.44Z"/></g></g></svg>