<svg xmlns="http://www.w3.org/2000/svg" viewBox="0 0 608.25 65.03"><defs><style>.cls-1{fill:#593b7f;}</style></defs><title>Asset 65</title><g id="Layer_2" data-name="Layer 2"><g id="Layer_1-2" data-name="Layer 1"><path class="cls-1" d="M0,5.89,12.92,2.83C10.78,18,10.47,31.42,12.77,46.56c1.6,10.7,19.19,9,24.61-.16l1.07,12.85L8.56,60.77Z"/><path class="cls-1" d="M45.41,11.62l-.23-3.13L45,6.12A178.13,178.13,0,0,0,72.55,4l-.61,9.09h-.69c-5.58,0-13.84-.46-16.51.23-.31,1.15-1,6.65-1.15,7.88a28,28,0,0,0-.15,3.21,24.48,24.48,0,0,0,15.29-.46l.45,8c-5.27-1.61-10.62-.69-15.36.53-1.68,3.29-.46,13.92.69,17.51h1.22c6.5,0,19.49-1.07,24.39-4l-.84,9.79c-9.56,0-26.68,2.14-36.24,2.14C47.78,43.73,46.56,26.91,45.41,11.62Z"/><path class="cls-1" d="M89.37,9.63A161.42,161.42,0,0,0,95.1,49.92c3.14-12.16,7.34-23,7.34-35.7a26.46,26.46,0,0,0-1-8.79c4.81-.31,9.55-.46,15-.46C109.86,22,101.75,38.22,101.75,57v.77L88.83,60.16c0-13.6-5.27-38.14-14.45-48.85A120.55,120.55,0,0,1,89.37,9.63Z"/><path class="cls-1" d="M119.41,11.62l-.23-3.13L119,6.12A178.13,178.13,0,0,0,146.55,4l-.61,9.09h-.69c-5.58,0-13.84-.46-16.51.23-.31,1.15-1,6.65-1.15,7.88a30.62,30.62,0,0,0-.15,3.21,24.48,24.48,0,0,0,15.29-.46l.46,8c-5.28-1.61-10.63-.69-15.37.53-1.68,3.29-.46,13.92.69,17.51h1.22c6.5,0,19.5-1.07,24.39-4l-.84,9.79c-9.56,0-26.68,2.14-36.24,2.14C121.78,43.73,120.56,26.91,119.41,11.62Z"/><path class="cls-1" d="M151.6,5.89l12.92-3.06c-2.14,15.13-2.45,28.59-.16,43.73,1.61,10.7,19.19,9,24.62-.16l1.07,12.85-29.89,1.52Z"/><path class="cls-1" d="M277.68,63.05a1.18,1.18,0,0,1,1.05.22.62.62,0,0,1,.18.8,1.17,1.17,0,0,1-1,.6,29.38,29.38,0,0,1-10.83-.29,22.51,22.51,0,0,1-8.55-4.21,28.87,28.87,0,0,1-2.76-2.58,32.54,32.54,0,0,1-8.85,2.83,35.41,35.41,0,0,1-9.57.35,20.9,20.9,0,0,1-8.88-3,15.83,15.83,0,0,1-6.24-6.8A13.75,13.75,0,0,1,222,39.11q2.82-6.66,11.4-12.17a29.74,29.74,0,0,1-5.28-10.5,9.85,9.85,0,0,1,2.16-9.19,13.63,13.63,0,0,1,8.88-4.2,18.08,18.08,0,0,1,6.51.48,10.87,10.87,0,0,1,5.25,3,8.88,8.88,0,0,1,2.34,7.56q-.6,5.4-10.08,11.1l15.48,21.9a24.78,24.78,0,0,1-8,4.44L235.14,29.75a13.8,13.8,0,0,0-4.5,4.9A13,13,0,0,0,229,41a13.39,13.39,0,0,0,1.59,6.59A11.54,11.54,0,0,0,234.84,52a18.43,18.43,0,0,0,5.88,2.25,19,19,0,0,0,6.75.15,21.42,21.42,0,0,0,6.63-2.06,28.53,28.53,0,0,0,8.7-6.75,25.84,25.84,0,0,0,5.34-9.07,13.42,13.42,0,0,0,.3-8.54,6.64,6.64,0,0,0-1.08-2.14,5.48,5.48,0,0,0-1.56-1.4,7.75,7.75,0,0,0-1.74-.73,3.3,3.3,0,0,0-1.71,0,4.86,4.86,0,0,0-1.47.75,3.59,3.59,0,0,0-1.05,1.44,5.67,5.67,0,0,0-.39,2.19c0,1.72,1.16,3.27,3.36,4.62a7.09,7.09,0,0,1-3.54,2.71,5.92,5.92,0,0,1-3.78.08,6.46,6.46,0,0,1-3-2A5.83,5.83,0,0,1,251,30.17a8.16,8.16,0,0,1,1-4.56,9.26,9.26,0,0,1,3.06-3.36,13.88,13.88,0,0,1,4.38-1.83,12.46,12.46,0,0,1,4.86-.15,10.09,10.09,0,0,1,8.28,7q2,6.26-1,13.69A29.64,29.64,0,0,1,262.8,53q1,1.52,1.92,2.64a26.88,26.88,0,0,0,6.3,5.88A10,10,0,0,0,277.68,63.05ZM237.18,7.31q-2.88,1.76-2.1,5.4a13.7,13.7,0,0,0,2.19,4.56,60.11,60.11,0,0,0,3.81,5.17c3.8-2.65,5.48-5.72,5-9.25a7.71,7.71,0,0,0-2.52-5.27,5.49,5.49,0,0,0-4.2-1.33A5.69,5.69,0,0,0,237.18,7.31Z"/><path class="cls-1" d="M317.9,37.08c0,4.43-2.83,7.49-7,6.11,16.36,35.93,50.61-11.69,15.06-9l.46,6.42-6.12-2-1.83-28.06a40.45,40.45,0,0,1-7.42-.38l.54-7.49c.3-.69,10.09-1,12.23-1,10.39,0,23.77.61,24.61,13.92v.68c0,8.64-11.39,9.94-13.45,11.16,50.15,20-23.47,61-30.43,14C302.61,27.29,317.9,26.22,317.9,37.08Zm19.73-21v-.84c-.39-5.42-9.64-5.42-12.54-4.66-.08.23-.23,1.3,1,15.75C332.43,25.3,337.63,22.78,337.63,16.05Z"/><path class="cls-1" d="M354.6,11.62l-.23-3.13-.16-2.37A178.26,178.26,0,0,0,381.74,4l-.62,9.09h-.68c-5.58,0-13.84-.46-16.52.23-.3,1.15-1,6.65-1.14,7.88a31.46,31.46,0,0,0-.16,3.21,24.47,24.47,0,0,0,15.29-.46l.46,8c-5.27-1.61-10.62-.69-15.36.53-1.69,3.29-.46,13.92.68,17.51h1.23c6.5,0,19.49-1.07,24.38-4l-.84,9.79c-9.55,0-26.68,2.14-36.23,2.14C357,43.73,355.74,26.91,354.6,11.62Z"/><path class="cls-1" d="M390.68,52.67c2.75-11.92,6.19-26.75,4.28-44.11h9.1c2.22,9.25,12.46,26.15,18.58,31.73,0-10.17-.77-24.92-.77-34.86V3.82a50.57,50.57,0,0,1,8.18-1.14c-2.45,17.88-.15,36.69.92,54.43h-7c-3.37-5-21.49-28.29-20.95-27.83-.69,11.08-2.07,15.14-1,25.68Z"/><path class="cls-1" d="M437.92,11.62l-.22-3.13-.16-2.37A178.13,178.13,0,0,0,465.06,4l-.61,9.09h-.69c-5.58,0-13.83-.46-16.51.23-.3,1.15-1,6.65-1.15,7.88-.07.91-.22,3.21-.15,3.21a24.48,24.48,0,0,0,15.29-.46l.46,8c-5.28-1.61-10.63-.69-15.37.53-1.68,3.29-.45,13.92.69,17.51h1.23c6.49,0,19.49-1.07,24.38-4l-.84,9.79c-9.55,0-26.68,2.14-36.24,2.14C440.29,43.73,439.07,26.91,437.92,11.62Z"/><path class="cls-1" d="M477,4.13C487.46,4.13,502.37,0,509,0h.38c0,2.52-2.52,9.4-3.59,11.39-6.88-4.13-13.91-2.45-19.72-1-1.15,3.59-2.3,11.92-.61,15.21,3.9.76,9.17-.76,11.77-2.29l-.77,11.46c-3.82-3.82-7.33-2.44-11.31-1.91v1.61c0,8.64,1.22,16.28,5.35,24.77h-13l.15-2.37C478.83,40.82,479.05,19.11,474,4,474.93,4.05,475.92,4.13,477,4.13Z"/><path class="cls-1" d="M522.25,5.73c-1.61.31-2.45,47.4,1.83,51.83l-11.77,2.6c2.06-4,1.68-45.41-1.53-52.13Z"/><path class="cls-1" d="M529.82,16.21a37.71,37.71,0,0,1-1.15-11.09c7.8,1.76,45.26-1.68,45.1-3.44l.46,7.88c-5.27.91-14.91,1.75-19.42,3.36,0,1-.07,2.14-.07,3.36,0,11.7,1.45,33.56,6.19,42.58H549.16c-.31-11.77.91-31.87-4.44-44.34Z"/><path class="cls-1" d="M575.76,38.76c3.06,0,8.33,1.83,8.33,5.73,0,3.37-2.75,5.28-5.88,3.67,0,3.82,4.35,6.5,8.41,6.5,5.19,0,11.31-3,11.31-8.87,0-16.74-27.37-8.41-27.37-23.39,0-12.16,10.17-16.74,20-16.74,4.51,0,15.28,2.21,15.28,8.25,0,4.13-2.82,7.57-7.18,7.57-2.14,0-4.89-1.15-4.89-3.52,0-1.83,1.83-2.67,1.83-4.43,0-2.22-5.27-2.67-6.57-2.67-3.83,0-7.88,1.68-7.88,6,0,12.85,24.92,4.44,27,21.18a17.55,17.55,0,0,1,.15,1.91c0,11.7-14,18.2-24.46,18.2-6.65,0-16.13-3.6-16.13-11.55C567.66,41.89,571,38.76,575.76,38.76Z"/></g></g></svg>