<svg xmlns="http://www.w3.org/2000/svg" viewBox="0 0 463.6 55.84"><defs><style>.cls-1{fill:#593b7f;}</style></defs><title>Asset 39</title><g id="Layer_2" data-name="Layer 2"><g id="Layer_1-2" data-name="Layer 1"><path class="cls-1" d="M0,54.71C3.1,40.86,3,19.29,1.51,1.59h16.2c.6,11.5,4.31,24.29,10,36.47C33.82,25.27,37.83,13.47,37.83,1.59H53C51.53,11.65,51.53,37,53,54.71H37.53a249.92,249.92,0,0,0,.08-32.84q-7,16.46-12.49,32.84H20.05C16.12,42.07,11.12,23.38,5,9c-.6,13.47,1.44,34.28,5.23,45.71Z"/><path class="cls-1" d="M64.32,54a30.14,30.14,0,0,0-6.28.68q1.13-13.29,1.13-26.56T58,1.59C65.83,1.59,78,0,83.31,0c11,0,13.77,4.62,13.77,9.31s-3.33,9.38-10.52,9.38c-5.6,0-7.56-3-7.56-5.6,0-2.12,1.51-4,3.4-4a1.51,1.51,0,0,1,1.66,1.51c0,.76-.52,1.52-2.27,1.52-1.36,0-2,.53-2,1.06s.83,1.28,2.65,1.28a4.72,4.72,0,0,0,5.07-4.92c0-5-3.71-7-8.7-7a23.54,23.54,0,0,0-6.28.91c0,5.06,0,15.81-.08,22.47h2.27c5,0,11.43-.91,15.21-4.54V32.69c-3.78-3.63-10.21-4.54-15.21-4.54H72.41c0,8.1.38,16.42,1.14,24.52a44.39,44.39,0,0,0,6.81.68c4.31,0,8.4-1.21,8.4-6.13,0-2.65-1.67-5.15-5.45-5.15-1.82,0-2.65.68-2.65,1.29s.68,1.06,2,1.06c1.74,0,2.27.75,2.27,1.51a1.51,1.51,0,0,1-1.66,1.51c-1.89,0-3.41-1.89-3.41-4,0-4.69,4.47-7.18,9.23-7.18,6.66,0,10.45,4.46,10.45,9.15,0,5.07-4.54,10.44-14.91,10.44C76.42,55.84,70.67,54,64.32,54Z"/><path class="cls-1" d="M103.58,54.71c3.11-13.85,3-35.42,1.52-53.12h16.19c.61,11.5,4.31,24.29,10,36.47,6.13-12.79,10.14-24.59,10.14-36.47h15.21c-1.51,10.06-1.51,35.41,0,53.12H141.12a251.66,251.66,0,0,0,.07-32.84q-7,16.46-12.48,32.84h-5.07C119.7,42.07,114.71,23.38,108.58,9,108,22.47,110,43.28,113.8,54.71Z"/><path class="cls-1" d="M161.39,54.71a211.42,211.42,0,0,0,1.74-26.56,210.45,210.45,0,0,0-1.74-26.56c9.46,0,14.53-1.51,20.66-1.51,12.41,0,20.81,4.08,20.81,12,0,4.54-2.88,9.3-8.25,11.88,7.42,1.66,11.12,8.09,11.12,14.6,0,12-11.27,16.8-25.72,16.8C174.18,55.39,170.85,54.71,161.39,54.71Zm29.82-16.42c0-7-2.88-9.69-6.74-10.75C180,26.33,178,24.37,178,21.87s2-4.39,5-4.39a2.09,2.09,0,1,1,0,4.16c-2.12,0-2.73.91-2.73,1.74s.76,1.67,2.35,1.67c3.18,0,7-2.5,7-11.73C189.62,6.13,185.38,3,178.8,3c-.61,0-1.37,0-2.05.07-.6,8.17-.9,16.8-.9,25.35,0,8.32.3,16.5.9,24a16.19,16.19,0,0,0,2.65.15C187.12,52.59,191.21,47.29,191.21,38.29Z"/><path class="cls-1" d="M216,54a30.28,30.28,0,0,0-6.28.68q1.14-13.29,1.14-26.56T209.74,1.59c7.8,0,20-1.59,25.28-1.59,11,0,13.77,4.62,13.77,9.31s-3.33,9.38-10.52,9.38c-5.6,0-7.57-3-7.57-5.6,0-2.12,1.52-4,3.41-4a1.51,1.51,0,0,1,1.66,1.51c0,.76-.53,1.52-2.27,1.52-1.36,0-2,.53-2,1.06s.83,1.28,2.65,1.28a4.72,4.72,0,0,0,5.07-4.92c0-5-3.71-7-8.7-7a23.66,23.66,0,0,0-6.29.91c0,5.06,0,15.81-.07,22.47h2.27c5,0,11.42-.91,15.21-4.54V32.69c-3.79-3.63-10.22-4.54-15.21-4.54h-2.27c0,8.1.38,16.42,1.13,24.52a44.52,44.52,0,0,0,6.81.68c4.32,0,8.4-1.21,8.4-6.13,0-2.65-1.66-5.15-5.44-5.15-1.82,0-2.65.68-2.65,1.29s.68,1.06,2,1.06c1.74,0,2.27.75,2.27,1.51A1.51,1.51,0,0,1,235,47.44c-1.9,0-3.41-1.89-3.41-4,0-4.69,4.46-7.18,9.23-7.18,6.66,0,10.44,4.46,10.44,9.15,0,5.07-4.54,10.44-14.9,10.44C228.13,55.84,222.38,54,216,54Z"/><path class="cls-1" d="M255.29,54.71a196.92,196.92,0,0,0,1.82-27.54c0-8.93-.53-19.22-1.82-25.58,9.38,0,18.24-1.59,24.9-1.59,10.59,0,16.72,6.13,16.72,12.33,0,6.36-6.43,12.72-18.09,12.72v.37c12.11,2.73,19.6,8.1,19.6,29.29H282.68c0-10.52-1.51-17-3.48-21.42-3.1-7.18-7.19-8.85-7.19-13.24,0-3.33,2.27-4.61,3.79-4.61,1.81,0,2.49,1.13,2.49,2.11s-.52,1.9-1.43,1.9c-2.05,0-3.11,1.06-3.11,2s.91,1.74,2.65,1.74c3.79,0,7.57-3.55,7.57-10.89,0-6.21-3.48-9.38-9.16-9.38a19.92,19.92,0,0,0-4,.45c-.75,8.17-1.13,16.57-1.13,25.73,0,8.85.38,17.7,1.13,25.65Z"/><path class="cls-1" d="M301.37,43.36c0-5,3.94-9.69,10.37-9.69,4.31,0,8.24,2.35,8.24,6.74,0,2.12-1.51,4-3.4,4a1.51,1.51,0,0,1-1.66-1.52c0-.75.52-1.51,2.27-1.51,1.36,0,1.81-.53,1.81-1.06,0-1-1.06-1.59-2.34-1.59-1.9,0-4.09,1.29-4.09,4.92a9.94,9.94,0,0,0,10.06,10.22c3.79,0,7.27-4,7.27-8.78,0-9.46-26.79-19.15-26.79-29.66C303.11,3.93,315.9,0,326.11,0c8.63,0,16.5,3.41,16.5,10.14,0,5.3-5.37,8.17-10.75,8.17-6.12,0-8.62-3.71-8.62-6.88,0-2.27,1.28-4.24,3.48-4.24a1.71,1.71,0,0,1,1.89,1.74,1.77,1.77,0,0,1-2,1.74c-1.13,0-1.66.6-1.66,1.36a2.42,2.42,0,0,0,2.65,2.2c1.81,0,3.86-1.44,3.86-5.07,0-4.92-3.94-7.42-7.72-7.42-3.48,0-8.4,2.19-8.4,7.26,0,8.93,27.69,16.73,27.69,31.18,0,10.37-11.88,15.66-22.92,15.66C306.9,55.84,301.37,49.34,301.37,43.36Z"/><path class="cls-1" d="M347.07,54.71a310,310,0,0,0,0-53.12h15.51q-1,12.15-1.13,24.29h17.18q-.12-12.15-1.14-24.29H393a312,312,0,0,0,0,53.12H377.49q1.14-13.29,1.14-26.56H361.45q0,13.27,1.13,26.56Z"/><path class="cls-1" d="M398.75,54.71a312,312,0,0,0,0-53.12h15.51a312,312,0,0,0,0,53.12Z"/><path class="cls-1" d="M420,54.71q1.14-13.29,1.14-26.56T420,1.59c11.88,0,18-1.59,25.8-1.59,11.88,0,17.79,9.08,17.79,18.92,0,14.22-10.07,19.82-19,19.82a17.11,17.11,0,0,1-10.14-3c.15,6.36.53,12.64,1.06,19Zm28.07-35.79c0-9.16-2.11-16.12-9.61-16.12a14.47,14.47,0,0,0-3,.3c-.75,8.7-1.13,17.86-1.06,24.59.08,5.91,2.43,8,5.07,8C443.39,35.64,448.08,31.25,448.08,18.92Z"/></g></g></svg>