<svg xmlns="http://www.w3.org/2000/svg" xmlns:xlink="http://www.w3.org/1999/xlink" viewBox="0 0 1372.42 644.67"><defs><style>.cls-1{fill:#f08223;}.cls-2{fill:#28102d;}.cls-3{fill:none;}.cls-4{fill:#fff2c1;}.cls-5{fill:#481e4f;}.cls-6{clip-path:url(#clip-path);}.cls-7{clip-path:url(#clip-path-2);}.cls-8{fill:#1c0f24;}.cls-9{fill:#603914;}.cls-10{fill:#eb6026;}.cls-11{fill:#facdc4;}.cls-12{fill:#be202e;}.cls-13{fill:#3b2315;}.cls-14{clip-path:url(#clip-path-3);}.cls-15{fill:#edc171;}.cls-16{fill:#f7a71e;}.cls-17{fill:#fdd06c;}.cls-18{fill:#ffe8aa;}.cls-19{font-size:116.82px;fill:#db2787;font-family:PyeongChangPeace-Bold, PyeongChang Peace;font-weight:700;}.cls-20{fill:#373636;font-family:PyeongChang-Bold, PyeongChang;}</style><clipPath id="clip-path"><path class="cls-1" d="M235.76,571.06l-25.35-48L131.12,595.6s-28.3-10.92-27.69-15.69c1-7.7-9.72,7.13,1.68,16.6,8.11,6.73,28.66,31.06,35.46,17Z"/></clipPath><clipPath id="clip-path-2"><path class="cls-2" d="M152.46,529.42l-34.68-41.79L55.09,574.94s-29.94-4.87-30.32-9.66c-.63-7.75-8,9,5.06,15.89,9.31,4.92,34.43,24.51,38.19,9.35Z"/></clipPath><clipPath id="clip-path-3"><path class="cls-3" d="M278.31,257.74c39.12,3,78.4-4.89,107-5.93-15-3.82-31.87-8.52-45.32-13.31a1.53,1.53,0,0,1-.59-2.51c3.27-3.39,6.28-6.83,7.64-12.58a4.71,4.71,0,0,0-1.76-4.85c-5.42-4.06-18.56-13.56-18.48-16.76.55-24.17-21.12-165-19.88-166.59,1.59-2,16.95,11.27,27.25,10.85,0,0-28.65-40.46-46.13-46-6.87-2.18-119,144-130.18,158.59-.55.71-1.77,1.34-5.67,2.2-7.85,1.73-18.35-1.34-11.52,12.28.7,1.39,1.16,2.16-.37,2.49-1.92.41-6.39.85-8.2,2.09-2.15,1.49,1.12,7.18-2.86,10.16-10.7,8-24.69,9.45-37.67,8.26a265.75,265.75,0,0,1,25.1,11.65C193.71,248.15,220.89,253.29,278.31,257.74Z"/></clipPath></defs><title>Asset 33</title><g id="Layer_2" data-name="Layer 2"><g id="Layer_1-2" data-name="Layer 1"><path class="cls-4" d="M961.19,136.5c-170.1-6.67-315.1,3.76-441.15,6.31-176,3.57-307.73,45-203,107.82l4.28,5.08c-104.63,30.58-111.77,139,5.1,108.63-62.83,140.74,133.12,59,430,67.48,276.1,7.89,452.15,52.13,371.77-69,89,3.12,159.47-39,56.65-91.67C1380.07,164.63,1039.54,139.57,961.19,136.5Z"/><path class="cls-5" d="M82.09,387.14s-61,41.28-78.17,72c-26,46.47,88.09,137.65,35.61,8-7.11-17.56,9.28-12.85,31.84-26.36,19.4-11.61,16.29-31.28,16.29-31.28Z"/><path class="cls-2" d="M291.83,370.1s14.19,9.66,21,14.88c26.79,20.57,102.37,18.25,153.58,51.94,50.49,33.22-58.92,107.94-95.92,106.87-50-1.44-144.78-4.12-172.88-6.18-98-7.17-153.21,9.15-168.6-12.79-26.59-37.93-.6-80.64,71.59-126.21,11-6.91,16.14-28.55,19-32.92s91.23,11.81,91.23,11.81S279,370.11,291.83,370.1Z"/><path class="cls-1" d="M235.76,571.06l-25.35-48L131.12,595.6s-28.3-10.92-27.69-15.69c1-7.7-9.72,7.13,1.68,16.6,8.11,6.73,28.66,31.06,35.46,17Z"/><g class="cls-6"><path class="cls-2" d="M235.76,571.06l-25.35-48L131.12,595.6s-28.3-10.92-27.69-15.69c1-7.7-9.72,7.13,1.68,16.6,8.11,6.73,28.66,31.06,35.46,17Z"/><rect class="cls-2" x="182.53" y="542.18" width="74.12" height="13.4" transform="translate(584.86 84.05) rotate(59.97)"/><rect class="cls-2" x="170.94" y="548.89" width="74.12" height="13.4" transform="translate(584.88 97.44) rotate(59.97)"/><rect class="cls-2" x="159.34" y="555.59" width="74.12" height="13.4" transform="translate(584.89 110.82) rotate(59.97)"/><rect class="cls-2" x="147.74" y="562.3" width="74.12" height="13.4" transform="translate(584.9 124.21) rotate(59.97)"/><rect class="cls-2" x="136.14" y="569.01" width="74.12" height="13.4" transform="translate(584.91 137.6) rotate(59.97)"/><rect class="cls-1" x="124.55" y="575.71" width="74.12" height="13.4" transform="translate(584.92 150.99) rotate(59.97)"/><rect class="cls-2" x="112.95" y="582.42" width="74.12" height="13.4" transform="translate(584.93 164.38) rotate(59.97)"/><rect class="cls-1" x="101.35" y="589.12" width="74.12" height="13.4" transform="translate(584.95 177.77) rotate(59.97)"/><rect class="cls-2" x="89.75" y="595.83" width="74.12" height="13.4" transform="translate(584.96 191.16) rotate(59.97)"/><rect class="cls-1" x="78.16" y="602.53" width="74.12" height="13.4" transform="translate(584.97 204.55) rotate(59.97)"/></g><path class="cls-2" d="M152.46,529.42l-34.68-41.79L55.09,574.94s-29.94-4.87-30.32-9.66c-.63-7.75-8,9,5.06,15.89,9.31,4.92,34.43,24.51,38.19,9.35Z"/><g class="cls-7"><path class="cls-2" d="M152.46,529.42l-34.68-41.79L55.09,574.94s-29.94-4.87-30.32-9.66c-.63-7.75-8,9,5.06,15.89,9.31,4.92,34.43,24.51,38.19,9.35Z"/><rect class="cls-2" x="95.02" y="504.34" width="74.12" height="13.4" transform="translate(424.32 71.49) rotate(48.11)"/><rect class="cls-2" x="85.05" y="513.29" width="74.12" height="13.4" transform="translate(427.66 81.88) rotate(48.11)"/><rect class="cls-2" x="75.08" y="522.23" width="74.12" height="13.4" transform="matrix(0.67, 0.74, -0.74, 0.67, 431.01, 92.28)"/><rect class="cls-2" x="65.1" y="531.17" width="74.12" height="13.4" transform="translate(434.35 102.68) rotate(48.11)"/><rect class="cls-2" x="55.13" y="540.12" width="74.12" height="13.4" transform="translate(437.7 113.07) rotate(48.11)"/><rect class="cls-1" x="45.16" y="549.06" width="74.12" height="13.4" transform="translate(441.05 123.47) rotate(48.11)"/><rect class="cls-2" x="35.19" y="558.01" width="74.12" height="13.4" transform="translate(444.39 133.87) rotate(48.11)"/><rect class="cls-1" x="25.21" y="566.95" width="74.12" height="13.4" transform="translate(447.74 144.26) rotate(48.11)"/><rect class="cls-2" x="15.24" y="575.9" width="74.12" height="13.4" transform="translate(451.08 154.66) rotate(48.11)"/><rect class="cls-1" x="5.27" y="584.84" width="74.12" height="13.4" transform="translate(454.42 165.05) rotate(48.11)"/></g><path class="cls-8" d="M417.35,256.27c-7.59-4.35-18.64-5.37-32-4.89-28.6,1-67.88,9-107,5.94-57.42-4.45-84.6-9.6-161.64-50a263.54,263.54,0,0,0-25.1-11.66C73.14,194,56.77,187,54.89,186.17h-.08c-32.08-2.51-38.5,17-38.5,17-39.87,74.35,168.13,92.07,193.28,98.93S370.94,329.69,395.69,317C424.8,302,441.34,270,417.35,256.27Z"/><path class="cls-9" d="M109.29,302c-2.79,5.57,5,15.12,5,15.12s12.32.52,15.11-5.05-5-15.11-5-15.11S112.08,296.42,109.29,302Z"/><path class="cls-9" d="M102.57,316.37c-3.19,4.12,1.66,13.19,1.66,13.19s10,2.42,13.19-1.7-1.67-13.19-1.67-13.19S105.75,312.26,102.57,316.37Z"/><path class="cls-9" d="M95.25,325.2c-3.43,2.49-1.73,10.71-1.73,10.71s7.27,4.19,10.71,1.7,1.73-10.7,1.73-10.7S98.69,322.72,95.25,325.2Z"/><path class="cls-9" d="M83.59,334.2a78.55,78.55,0,0,1-8.09,1.58s7.75,7.74,8.71,13c1.32,7.26-2,6.81,7.17-3.28,2.56-2.82,1.77-9.56,1.77-9.56S87.6,333.17,83.59,334.2Z"/><path class="cls-10" d="M101.58,338.63c-1.87-1.09-8-2.92-8-2.92s-.27-7.38-.91-9.45a.69.69,0,0,0-1.27-.29,8.74,8.74,0,0,1-2.72,2.29c-2.18,1.4-6.17,1.89-2.25,4.47,1.63,1.06,6.46,3.41,6.46,3.41s-.11,4.61.48,6.32c2.07,6,2.74,2.54,5.27.41a31.26,31.26,0,0,1,3.36-2.39C102.52,340.07,102.7,339.28,101.58,338.63Z"/><path class="cls-11" d="M326.26,239.08c-12.2-48.61-47.67-52.93-111.07-58.62-52.63-4.73-83.19,21.63-95.9,50.21-4.93,11.11-4.26,16.24-4.86,32.24-.26,6.9-.05,11.65,1.58,24.3,1.06,8.26,3.58,20.49,4.49,26.65,1.92,13,4.52,24.12,2.82,33.65h0l94.27,31.28L315,364.44s-.3-6.46,2.57-22.67c2.06-11.64,2.37-17.81,4.68-30.11,2.15-11.44,2.37-12.44,3.95-22.63C327.48,280.74,332.21,262.75,326.26,239.08Z"/><path class="cls-9" d="M331.47,225.74c-11.25-30.22-66.54-46.57-88.56-47.83L162,177.34c-19.4,1.36-33.24,17.93-47.86,46.41-9.45,18.4-4.66,61-1.49,64s53.17-25.79,112.15-14.84a5.18,5.18,0,0,0,6-4,403.5,403.5,0,0,0,7.66-51.66s4.13,31.13,4.38,60.09c29,2.78,78.12,45.13,83.2,43.4S339.74,247.92,331.47,225.74Z"/><path class="cls-1" d="M122.54,358.19s-15.79,25.91-50.17,88.95c-18.2,25.95-16.57,81-28.2,86.48,0,0,100.3,14.76,206.41,58.22-.19-.84,30.51-16.39,57.84-22.15,87.78-18.51,15.91-180,7.08-196.89C315.5,372.8,183.76,382.27,122.54,358.19Z"/><path class="cls-12" d="M201.08,330.86a14.29,14.29,0,0,1-1.78-.21.46.46,0,0,1-.34-.54.45.45,0,0,1,.54-.35c.36.08,8.81,1.82,12-5.26a.45.45,0,0,1,.6-.23.44.44,0,0,1,.22.6C209.77,330.57,204,331,201.08,330.86Z"/><path class="cls-13" d="M199.14,315.72a.44.44,0,0,1-.37-.23c-.05-.08-1.12-2.05-.28-3.4.51-.81,1.57-1.18,3.15-1.09a3.47,3.47,0,0,1,3,1.44,3.92,3.92,0,0,1,0,3.31.46.46,0,0,1-.6.22.45.45,0,0,1-.22-.6,3.1,3.1,0,0,0,.08-2.47,2.64,2.64,0,0,0-2.28-1c-.84-.05-1.93,0-2.33.67-.56.88.29,2.45.3,2.47a.46.46,0,0,1-.18.62A.42.42,0,0,1,199.14,315.72Z"/><path class="cls-13" d="M177.11,298.22l-11.27-5.48a.49.49,0,0,0-.43.88l4.88,2.37c-2.86.52-5.23,4-5.48,8.37a11.29,11.29,0,0,0,1.32,6.18,11.26,11.26,0,0,1-3-.25.37.37,0,0,0-.18.71,10.53,10.53,0,0,0,2,.28,10.79,10.79,0,0,0,1.69,0,4.93,4.93,0,0,0,3.68,2.24c3.28.19,6.17-3.59,6.45-8.44a11,11,0,0,0-1.68-6.76l1.66.8a.41.41,0,0,0,.18.05.5.5,0,0,0,.47-.27A.48.48,0,0,0,177.11,298.22Z"/><path class="cls-13" d="M227.27,301.09l11.82-4.15a.48.48,0,0,1,.62.29.49.49,0,0,1-.29.63l-5.12,1.79c2.78.85,4.73,4.58,4.48,9a11.23,11.23,0,0,1-2,6,11.3,11.3,0,0,0,3,.09.37.37,0,0,1,.1.73,10.77,10.77,0,0,1-2,0,10.66,10.66,0,0,1-1.67-.22,5,5,0,0,1-3.91,1.81c-3.29-.19-5.73-4.28-5.45-9.13a10.89,10.89,0,0,1,2.44-6.52l-1.74.61a.63.63,0,0,1-.19,0,.49.49,0,0,1-.43-.33A.48.48,0,0,1,227.27,301.09Z"/><g class="cls-14"><path class="cls-5" d="M278.31,257.74c39.12,3,78.4-4.89,107-5.93-15-3.82-31.87-8.52-45.32-13.31a1.53,1.53,0,0,1-.59-2.51c3.27-3.39,6.28-6.83,7.64-12.58a4.71,4.71,0,0,0-1.76-4.85c-5.42-4.06-18.56-13.56-18.48-16.76.55-24.17-21.12-165-19.88-166.59,1.59-2,16.95,11.27,27.25,10.85,0,0-28.65-40.46-46.13-46-6.87-2.18-119,144-130.18,158.59-.55.71-1.77,1.34-5.67,2.2-7.85,1.73-18.35-1.34-11.52,12.28.7,1.39,1.16,2.16-.37,2.49-1.92.41-6.39.85-8.2,2.09-2.15,1.49,1.12,7.18-2.86,10.16-10.7,8-24.69,9.45-37.67,8.26a265.75,265.75,0,0,1,25.1,11.65C193.71,248.15,220.89,253.29,278.31,257.74Z"/><path class="cls-15" d="M280.36,10.36c-3.8-4.22-9.87-6.67-15.95-7-3.72-.22-9.22,0-12.45,1.37-8.25,3.4-13.15,11.62-13.7,21.13-.34,6,1,10.89,4.43,15.3,4.1,5.3,9.89,10,17.11,10.41,6.61.38,14.55-1.73,19.13-5.81s6.76-9.42,7.14-16C286.48,22.58,284.82,15.32,280.36,10.36ZM268.55,32.6a7.46,7.46,0,0,1-5.05,3.21,9.64,9.64,0,0,1-6.53-2,8.24,8.24,0,0,1-2.91-6.19,7.37,7.37,0,0,1,1.63-5.18,8,8,0,0,1,7.88-3.43,11.34,11.34,0,0,1,3.79,2,7.94,7.94,0,0,1,3.21,5A9.06,9.06,0,0,1,268.55,32.6Z"/><path class="cls-15" d="M322.34,67.63c-3.18-3.53-8.25-5.58-13.33-5.87-3.1-.18-7.7,0-10.4,1.15-6.89,2.84-11,9.71-11.44,17.65a18.12,18.12,0,0,0,3.69,12.79c3.43,4.43,8.27,8.35,14.3,8.7,5.52.31,12.16-1.44,16-4.86s5.65-7.87,6-13.39C327.45,77.84,326.07,71.77,322.34,67.63Zm-9.87,18.58a6.27,6.27,0,0,1-4.22,2.68,8.07,8.07,0,0,1-5.46-1.63,6.89,6.89,0,0,1-2.42-5.17,6.13,6.13,0,0,1,1.36-4.33,6.67,6.67,0,0,1,6.58-2.86,9.57,9.57,0,0,1,3.17,1.63,6.66,6.66,0,0,1,2.68,4.18A7.6,7.6,0,0,1,312.47,86.21Z"/><path class="cls-15" d="M212.94,86.42c-3.45-3.84-9-6.06-14.48-6.37-3.37-.2-8.37,0-11.29,1.24-7.49,3.09-11.94,10.55-12.44,19.18a19.7,19.7,0,0,0,4,13.89c3.72,4.81,9,9.07,15.53,9.45,6,.34,13.21-1.57,17.37-5.28s6.13-8.55,6.48-14.55C218.5,97.51,217,90.91,212.94,86.42ZM202.23,106.6a6.83,6.83,0,0,1-4.59,2.92,8.76,8.76,0,0,1-5.93-1.78,7.48,7.48,0,0,1-2.64-5.61,6.72,6.72,0,0,1,1.48-4.71,7.26,7.26,0,0,1,7.15-3.11,10.28,10.28,0,0,1,3.44,1.78,7.25,7.25,0,0,1,2.92,4.54A8.24,8.24,0,0,1,202.23,106.6Z"/><path class="cls-15" d="M254.57,140.32a15.52,15.52,0,0,0-10.52-4.62c-2.45-.14-6.08,0-8.21.9-5.44,2.24-8.67,7.66-9,13.93a14.28,14.28,0,0,0,2.91,10.09c2.71,3.5,6.53,6.6,11.29,6.87,4.36.25,9.6-1.14,12.62-3.83s4.46-6.21,4.7-10.57C258.6,148.38,257.51,143.59,254.57,140.32ZM246.78,155a5,5,0,0,1-3.33,2.12,6.41,6.41,0,0,1-4.31-1.29,5.45,5.45,0,0,1-1.91-4.08,4.87,4.87,0,0,1,1.07-3.42,5.26,5.26,0,0,1,5.19-2.26,7.5,7.5,0,0,1,2.51,1.29,5.31,5.31,0,0,1,2.12,3.3A6,6,0,0,1,246.78,155Z"/><path class="cls-15" d="M341.62,164.59c-3.55-3.94-9.21-6.22-14.89-6.55-3.46-.2-8.6,0-11.61,1.28-7.7,3.18-12.28,10.85-12.79,19.72a20.2,20.2,0,0,0,4.13,14.28c3.83,5,9.24,9.33,16,9.72,6.17.35,13.59-1.61,17.86-5.42s6.31-8.8,6.66-15C347.33,176,345.78,169.22,341.62,164.59Zm-11,20.76a7,7,0,0,1-4.71,3,9,9,0,0,1-6.1-1.82,7.64,7.64,0,0,1-2.71-5.77,6.87,6.87,0,0,1,1.52-4.84,7.44,7.44,0,0,1,7.35-3.2,10.69,10.69,0,0,1,3.54,1.83,7.51,7.51,0,0,1,3,4.67A8.53,8.53,0,0,1,330.6,185.35Z"/><path class="cls-15" d="M280.45,210c-3.81-4.23-9.87-6.67-16-7-3.71-.22-9.22,0-12.44,1.37-8.25,3.4-13.15,11.62-13.7,21.13-.34,6,1,10.89,4.42,15.3,4.1,5.3,9.9,10,17.12,10.41,6.61.38,14.55-1.72,19.13-5.81s6.76-9.42,7.14-16C286.57,222.22,284.91,215,280.45,210Zm-11.81,22.23a7.51,7.51,0,0,1-5.05,3.22,9.75,9.75,0,0,1-6.54-2,8.22,8.22,0,0,1-2.9-6.18,7.38,7.38,0,0,1,1.63-5.19,8,8,0,0,1,7.87-3.42,11.36,11.36,0,0,1,3.8,1.95,8,8,0,0,1,3.21,5A9.06,9.06,0,0,1,268.64,232.24Z"/><path class="cls-15" d="M180.4,209.36c-3.81-4.22-9.87-6.67-16-7-3.71-.21-9.21,0-12.44,1.37-8.25,3.4-13.15,11.62-13.7,21.13-.34,6,1,10.89,4.42,15.3,4.1,5.31,9.9,10,17.12,10.41,6.61.38,14.55-1.72,19.13-5.8s6.76-9.43,7.14-16C186.52,221.58,184.86,214.31,180.4,209.36ZM168.59,231.6a7.53,7.53,0,0,1-5.05,3.21,9.68,9.68,0,0,1-6.54-1.95,8.28,8.28,0,0,1-2.9-6.19,7.35,7.35,0,0,1,1.63-5.18,8,8,0,0,1,7.87-3.43,11.36,11.36,0,0,1,3.8,1.95,8,8,0,0,1,3.21,5A9.08,9.08,0,0,1,168.59,231.6Z"/></g><path class="cls-8" d="M155.66,180.67c13.85,7.87,47.73,18.6,82.52,25.2,25.29,4.8,51.45,6.5,68.88,7.8,9.74.72,3.6,3.52-5.67,4.66-22.35,2.75-83.75-4.23-103.22-11C177,200,163.59,194.52,151,182.36,142.45,174.1,142.54,173.2,155.66,180.67Z"/><path class="cls-8" d="M177.68,170.71c28.41,9.19,54.64,12.88,64.39,12.28s4.17,3.1-4.86,5.5-38.47,1.16-48.63-4.93C165.74,169.86,149.28,161.51,177.68,170.71Z"/><path class="cls-9" d="M339.06,326.71c2.12,7.06-8.9,16.62-8.9,16.62s-14.47-1.88-16.59-8.94,8.89-16.62,8.89-16.62S336.93,319.66,339.06,326.71Z"/><path class="cls-9" d="M344,344.86c2.87,5.44-4.61,15-4.61,15s-12.16.79-15-4.65,4.61-15,4.61-15S341.11,339.42,344,344.86Z"/><path class="cls-9" d="M350.73,356.63c3.5,3.6-.15,12.84-.15,12.84s-9.33,3.41-12.83-.18.14-12.84.14-12.84S347.22,353,350.73,356.63Z"/><path class="cls-9" d="M362.51,369.48a91.09,91.09,0,0,0,9.12,3.48s-10.61,7.47-12.79,13.41c-3,8.2,1,8.34-7.71-5.29-2.41-3.79-.12-11.5-.12-11.5S358,367.48,362.51,369.48Z"/><path class="cls-10" d="M340.63,371c2.4-.89,9.95-1.77,9.95-1.77s1.81-8.57,3-10.85a.82.82,0,0,1,1.55-.08,10.19,10.19,0,0,0,2.71,3.22c2.26,2.08,6.81,3.46,1.71,5.67-2.11.91-8.22,2.67-8.22,2.67s-.81,5.39-1.84,7.27c-3.62,6.56-3.71,2.42-6.23-.58-2.25-2.67-2.13-2-3.43-3.47C339.24,372.5,339.19,371.54,340.63,371Z"/><path class="cls-11" d="M347.58,429.59l13.34,64.05c4.86,2.68,22.37,13.62,1.27,22.11-6,2.43-10.25,5.2-14.09,5.58-4.9.49-7.11-4.22-8-7.16-.65-2.19.08-4.38.41-6.21.57-3.19.89-5.21,1.06-6.4l-37.25-76.18L328,417.5C336.5,414.68,345.65,420.34,347.58,429.59Z"/><path class="cls-11" d="M304.58,308.3s6.07-7.35,14.51-4.46,10.36,23.15-12.76,21.62"/><path class="cls-11" d="M113.32,381.69l-66.7-36.08c-.93-5.12-5.43-23.9-19.09-6.75-3.91,4.91-7.59,8.06-9,11.47-1.87,4.36,1.63,7.58,4,9.12,1.73,1.15,3.87,1,5.58,1.2,3,.28,4.85.5,5.94.64l56.12,53.3Z"/><path class="cls-5" d="M329.54,384.53a7.56,7.56,0,0,1-2.32-2.67c-8.69-16.73-7-37.24-9.17-41.9-2.52-5.31-113.4,18.76-133.78,23.23a7.43,7.43,0,0,1-5.84-1.17c-8.64-6-36.4-24.6-53.24-27.63a7.42,7.42,0,0,0-8.71,7.48c.11,5.15-1,12.1-6.81,16.62-3.5,2.73-5.9,5.79-11.24,9a7.49,7.49,0,0,0-1.24,11.81c11.39,11.1,17.85,29.59,35.25,29.74,13,.11,16.43,0,24.75-11.49,27.6-38.07,34.76-28.46,50.93,4.16,13,26.19,60.3-2.46,87.15,15.11,14.57,9.54,21.85,17.2,28,21,49.57,30.55,73,33.52,98.88,33.3,33.54-.28,57.2-21.57,57.63-17.4C478.05,419.88,360,406.16,329.54,384.53Z"/><path class="cls-5" d="M453.41,507.87q0,.75,0,1.47A6.8,6.8,0,0,0,453.41,507.87Z"/><path class="cls-16" d="M183.58,361.17S161.81,337.56,157,337.61c0,0-1.95,18.85-5.84,23.91s-10.75,17.15.18,17,24.21.46,30.46-1.76S190,379,190,379s17.7,11.64,24.51,11.39,11.11.06,8.09-14.61-3.65-5.88-.52-14.88,2.9-14,2.33-16.52-15.2,3.4-20.37,6.68S194,358.91,192,360.36s-5.15,4.18-6.86,3.66S183.58,361.17,183.58,361.17Z"/><path class="cls-1" d="M184.17,365.94s-12.9-7.75-18.1-8.05a9.21,9.21,0,0,0-1,10.41s16.34,1.44,19.11.87c0,0,17.2,7.34,22.21,6.39a23.86,23.86,0,0,0,1.67-10.77s-10.09-.29-18.43,2.89C187.83,368.37,184.17,365.94,184.17,365.94Z"/><path class="cls-10" d="M183,360.52s5.75-2.51,9-.16c0,0,1.45,13.89-2,18.67,0,0-6.62,2.78-10.81-.69C179.23,378.34,180.43,363.44,183,360.52Z"/><polygon class="cls-17" points="1316.88 114.41 1271.44 130.91 1259.27 177.69 1229.54 139.57 1181.28 142.45 1208.35 102.4 1190.7 57.4 1237.15 70.76 1274.5 40.06 1276.15 88.38 1316.88 114.41"/><polygon class="cls-18" points="1358.07 235.47 1326.25 221.78 1296.95 240.24 1300.13 205.75 1273.53 183.58 1307.31 175.95 1320.17 143.8 1337.87 173.57 1372.42 175.87 1349.58 201.9 1358.07 235.47"/><text class="cls-19" transform="translate(453.13 320.89)">매직스타<tspan class="cls-20" x="434.57" y="0">란?</tspan></text></g></g></svg>