<svg xmlns="http://www.w3.org/2000/svg" viewBox="0 0 445.77 85.77"><defs><style>.cls-1{fill:#593b7f;}</style></defs><title>Asset 66</title><g id="Layer_2" data-name="Layer 2"><g id="Layer_1-2" data-name="Layer 1"><path class="cls-1" d="M1.3,61C7.26,16.36,3.13,7.11.54,1.3L0,0,12.92,4.43l9,35.4c4.89-8.26,9.79-27.75,11.93-37C37.76,3,40.29,2.52,45,2.52c-8,13.07-.38,48.62,2.9,55.35L34.78,56.8a54.26,54.26,0,0,0,1.15-12.23A37.79,37.79,0,0,0,32.72,27.9c-9.33,29.89-9.48,30.2-9.86,30.2s-.61-.61-.69-1L10.93,28.9c-.3,4.89-.92,25,2,31.8Z"/><path class="cls-1" d="M64.29,43.12,59.48,62.76l-8.56-2.29c3-6.5,7.26-29.28,6.42-44.34l-3.29.46L52.37,9.33c0-.23,4.05-.92,32.72-4.36l1.22,5.81-4.74,1c-.15,5.51,1.22,33.72,8.72,48.55l-10.1,1.83L76.07,41.59Zm.54-9.33c1.22.31,8.56-.61,9.78-.77v-.3c0-5.58-.38-11-.38-16.74a64.87,64.87,0,0,0-8.79.91,3,3,0,0,0-.84.23Z"/><path class="cls-1" d="M90.29,35.93c0-14.22,7.95-31.88,25.61-31.88,10.24,0,16,6,16,15.37,0,6-3.29,12.61-10.47,12.61-4.29,0-6.65-2.9-7-6.5-.23-2.6.39-5.73,3.9-5.73,4.89,0,5.51,3.21,4.66,7.34,4.9-3.06,2.07-15.44-7.18-15.44-13.61,0-16.59,16.51-15.67,26.37.53,5.2,3.59,19,11.77,19,5.81,0,7.57-5.12,7.57-9.71,0-.46-.08-1-.08-1.45l-10,.69-1.53-5.2,29.43-6.27.61,8.94-7,.92c.15,5.28,1.53,14.3,2.14,19.49l-6.88-2.29V50.91c-1.38,6.65-7.8,11.47-15,11.47-13.38,0-19.73-12.77-20.72-23.09C90.36,38.22,90.29,37.08,90.29,35.93Z"/><path class="cls-1" d="M150.76,7.11c-1.61.31-2.45,47.4,1.83,51.83l-11.77,2.6c2.06-4,1.68-45.41-1.53-52.14Z"/><path class="cls-1" d="M183.4,8.64c8.87,0,16.36,3.13,16.36,12.38,0,6.58-5,12.39-11.93,12.39-7.33,0-10.39-10.25-3.67-10.25,4,0,4.29,1.69,4.82,5.66h.61c3.6,0,4.21-3,4.21-5.5,0-5.81-4.67-7.88-10.17-7.88-12.54,0-17.35,13.15-17.35,23,0,9.18,3.36,19.11,15.59,19.11,9.71,0,9.71-18.34,16.13-13.3.54.77,2.14,1.91,2.14,3.06-3.21,7.19-10.78,14.75-21.86,14.75-14.53,0-22.63-11-22.63-23.85C155.65,23.32,166.5,8.64,183.4,8.64Z"/><path class="cls-1" d="M235.77,40.13c3,0,8.33,1.84,8.33,5.74,0,3.36-2.75,5.27-5.89,3.67,0,3.82,4.36,6.5,8.41,6.5,5.2,0,11.32-3,11.32-8.87,0-16.74-27.37-8.41-27.37-23.4,0-12.15,10.17-16.74,20-16.74,4.51,0,15.29,2.22,15.29,8.26,0,4.13-2.83,7.57-7.19,7.57-2.14,0-4.89-1.15-4.89-3.52,0-1.83,1.84-2.67,1.84-4.43,0-2.22-5.28-2.68-6.58-2.68-3.82,0-7.87,1.68-7.87,6,0,12.84,24.92,4.43,27,21.18a15.38,15.38,0,0,1,.16,1.91c0,11.69-14,18.19-24.47,18.19-6.65,0-16.13-3.59-16.13-11.54C227.66,43.27,231,40.13,235.77,40.13Z"/><path class="cls-1" d="M268.41,17.58A37.61,37.61,0,0,1,267.26,6.5c7.8,1.76,45.26-1.68,45.11-3.44l.46,7.87c-5.28.92-14.91,1.76-19.42,3.37,0,1-.08,2.14-.08,3.36,0,11.7,1.45,33.56,6.19,42.58H287.75c-.3-11.77.92-31.88-4.43-44.34Z"/><path class="cls-1" d="M328.42,43.12l-4.81,19.64L315,60.47c3.06-6.5,7.27-29.28,6.42-44.34l-3.28.46L316.5,9.33c0-.23,4.05-.92,32.71-4.36l1.23,5.81-4.74,1c-.15,5.51,1.22,33.72,8.71,48.55l-10.09,1.83-4.13-20.56Zm.54-9.33c1.22.31,8.56-.61,9.78-.77v-.3c0-5.58-.38-11-.38-16.74a64.87,64.87,0,0,0-8.79.91,2.86,2.86,0,0,0-.84.23Z"/><path class="cls-1" d="M367,38.3v1.45a59.51,59.51,0,0,0,1.91,16c.92,1.91,1.91,3.75,2.91,5.58L356.1,61c4.28-10.62,3.36-22.32,3.36-33.56-.08-.45-.08-.84-.15-1.3-.69-7.87-1.46-16-5.13-23.08h17.89c9.25,0,18.2,7,18.43,16.82v.38c0,7.18-6.2,12.54-12.46,15,4.35,2.3,7.64,6,10.78,9.79,10.55,12.38,14.83,34.47,34,36.16,4.82.15,15.75.07,16.59-6.65v-.46c-2.9-.31-6.88-1.61-6.88-5V68.5c0-2.91,3.37-4.44,5.89-3.83,4.2.23,7.34,4.28,7.34,8.34v.3c0,10.55-16.44,12.46-25.08,12.46h-.53c-24.24-.15-31.57-26.83-44-42.58-2.07-2.6-4.74-5.35-8.26-5.65C367.26,37.38,367.1,37.84,367,38.3ZM372,9.1c-1.68.15-4.51-.23-5.05,1.91V32.49a11.16,11.16,0,0,0,2.22.23c6.65,0,12.31-6,12.54-12.84v-.62c0-4.89-3.52-10.16-8.72-10.16h-1Z"/></g></g></svg>